<svg xmlns="http://www.w3.org/2000/svg" xmlns:xlink="http://www.w3.org/1999/xlink" width="118.494" height="112.823" viewBox="0 0 118.494 112.823">
  <defs>
    <linearGradient id="linear-gradient" x1="0.324" y1="0.652" x2="0.987" y2="-0.003" gradientUnits="objectBoundingBox">
      <stop offset="0" stop-color="#57a6d4"/>
      <stop offset="1" stop-color="#fff"/>
    </linearGradient>
    <linearGradient id="linear-gradient-2" x1="0.347" y1="0.613" x2="0.981" y2="0.014" gradientUnits="objectBoundingBox">
      <stop offset="0" stop-color="#d9e26e"/>
      <stop offset="1" stop-color="#fff"/>
    </linearGradient>
    <linearGradient id="linear-gradient-3" x1="0.226" y1="0.774" x2="0.972" y2="0.028" gradientUnits="objectBoundingBox">
      <stop offset="0" stop-color="#8ebe6e"/>
      <stop offset="1" stop-color="#fff"/>
    </linearGradient>
    <linearGradient id="linear-gradient-4" x1="0.251" y1="0.746" x2="0.858" y2="0.102" gradientUnits="objectBoundingBox">
      <stop offset="0" stop-color="#f8f072"/>
      <stop offset="1" stop-color="#fff"/>
    </linearGradient>
    <linearGradient id="linear-gradient-5" x1="0.218" y1="0.76" x2="0.937" y2="0.032" gradientUnits="objectBoundingBox">
      <stop offset="0" stop-color="#f1ce6d"/>
      <stop offset="1" stop-color="#fff"/>
    </linearGradient>
    <linearGradient id="linear-gradient-6" x1="0.175" y1="0.677" x2="0.968" y2="0.027" gradientUnits="objectBoundingBox">
      <stop offset="0" stop-color="#e5784d"/>
      <stop offset="1" stop-color="#fff"/>
    </linearGradient>
    <linearGradient id="linear-gradient-7" x1="0.197" y1="0.696" x2="0.941" y2="0.062" gradientUnits="objectBoundingBox">
      <stop offset="0" stop-color="#f0af52"/>
      <stop offset="1" stop-color="#fff"/>
    </linearGradient>
    <linearGradient id="linear-gradient-8" x1="0.217" y1="0.735" x2="0.93" y2="0.074" gradientUnits="objectBoundingBox">
      <stop offset="0" stop-color="#dc5849"/>
      <stop offset="1" stop-color="#f2f1f0"/>
    </linearGradient>
    <linearGradient id="linear-gradient-9" x1="0.196" y1="0.194" x2="0.954" y2="0.918" gradientUnits="objectBoundingBox">
      <stop offset="0" stop-color="#6178b8"/>
      <stop offset="1" stop-color="#fff"/>
    </linearGradient>
    <linearGradient id="linear-gradient-10" x1="0.224" y1="0.302" x2="0.963" y2="0.977" gradientUnits="objectBoundingBox">
      <stop offset="0" stop-color="#8e58a5"/>
      <stop offset="1" stop-color="#fff"/>
    </linearGradient>
    <linearGradient id="linear-gradient-11" x1="0.242" y1="0.183" x2="1.033" y2="0.995" gradientUnits="objectBoundingBox">
      <stop offset="0" stop-color="#bb3a5e"/>
      <stop offset="1" stop-color="#fff"/>
    </linearGradient>
    <linearGradient id="linear-gradient-12" x1="0.208" y1="0.246" x2="0.961" y2="0.952" gradientUnits="objectBoundingBox">
      <stop offset="0" stop-color="#614fa0"/>
      <stop offset="1" stop-color="#fff"/>
    </linearGradient>
  </defs>
  <g id="Grupo_987064" data-name="Grupo 987064" transform="translate(-1059 -1585)">
    <path id="Trazado_732493" data-name="Trazado 732493" d="M10,0h98.494a10,10,0,0,1,10,10v92.823a10,10,0,0,1-10,10H10a10,10,0,0,1-10-10V10A10,10,0,0,1,10,0Z" transform="translate(1059 1585)" fill="#ea526f"/>
    <g id="Grupo_986736" data-name="Grupo 986736" transform="translate(12074 11912)">
      <g id="Grupo_986735" data-name="Grupo 986735" transform="translate(-11006 -10322)">
        <path id="Intersección_1" data-name="Intersección 1" d="M0,20.776,36.724,0,15.963,36.7A41.584,41.584,0,0,1,0,20.776Z" transform="translate(15.781 58.681) rotate(-14)" fill="url(#linear-gradient)"/>
        <path id="Intersección_4" data-name="Intersección 4" d="M0,20.776,36.724,0,15.963,36.7A41.584,41.584,0,0,1,0,20.776Z" transform="translate(41.783 85.336) rotate(-76)" fill="url(#linear-gradient-2)"/>
        <path id="Intersección_2" data-name="Intersección 2" d="M0,20.776,36.724,0,15.963,36.7A41.584,41.584,0,0,1,0,20.776Z" transform="translate(25.177 75.714) rotate(-45)" fill="url(#linear-gradient-3)"/>
        <path id="Intersección_3" data-name="Intersección 3" d="M0,20.776,36.724,0,15.963,36.7A41.584,41.584,0,0,1,0,20.776Z" transform="translate(61.235 85.037) rotate(-107)" fill="url(#linear-gradient-4)"/>
        <path id="Intersección_1-2" data-name="Intersección 1" d="M0,21.711,35.215,0,13.361,35.7A41.082,41.082,0,0,1,0,21.711Z" transform="translate(76.978 74.911) rotate(-137)" fill="url(#linear-gradient-5)"/>
        <path id="Intersección_4-2" data-name="Intersección 4" d="M0,17.578,37.708,0,13.714,34.023A40.815,40.815,0,0,1,0,17.578Z" transform="translate(87.191 39.281) rotate(161)" fill="url(#linear-gradient-6)"/>
        <path id="Intersección_2-2" data-name="Intersección 2" d="M0,18.969,36.634,0,13.111,34.6A41.133,41.133,0,0,1,0,18.969Z" transform="translate(87.156 58.758) rotate(-168)" fill="url(#linear-gradient-7)"/>
        <path id="Intersección_3-2" data-name="Intersección 3" d="M10.541,32.751A40.638,40.638,0,0,1,0,18.833L38.313,0,14.92,36.022A42.218,42.218,0,0,1,10.541,32.751Z" transform="translate(77.746 24.567) rotate(133)" fill="url(#linear-gradient-8)"/>
        <path id="Intersección_1-3" data-name="Intersección 1" d="M0,15.919,36.724,36.7,15.963,0A41.584,41.584,0,0,0,0,15.919Z" transform="translate(5.512 74.075) rotate(-72)" fill="url(#linear-gradient-9)"/>
        <path id="Intersección_4-3" data-name="Intersección 4" d="M0,15.919,36.724,36.7,15.963,0A41.584,41.584,0,0,0,0,15.919Z" transform="translate(9.263 21.478) rotate(-10)" fill="url(#linear-gradient-10)"/>
        <path id="Intersección_5" data-name="Intersección 5" d="M0,11.269A40.522,40.522,0,0,1,14.939,0L31.659,37.7Z" transform="matrix(0.985, 0.174, -0.174, 0.985, 26.634, 7.995)" fill="url(#linear-gradient-11)"/>
        <path id="Intersección_2-3" data-name="Intersección 2" d="M0,15.919,36.724,36.7,15.963,0A41.584,41.584,0,0,0,0,15.919Z" transform="matrix(0.755, -0.656, 0.656, 0.755, 0, 47.16)" fill="url(#linear-gradient-12)"/>
        <circle id="Elipse_5968" data-name="Elipse 5968" cx="6.922" cy="6.922" r="6.922" transform="translate(43.934 43.71)" fill="#fff"/>
      </g>
      <path id="Elipse_5969" data-name="Elipse 5969" d="M36.687.193a36.764,36.764,0,0,0-7.355.741A36.293,36.293,0,0,0,16.283,6.425,36.6,36.6,0,0,0,3.06,22.482a36.309,36.309,0,0,0-2.126,6.85,36.852,36.852,0,0,0,0,14.71A36.293,36.293,0,0,0,6.425,57.091,36.6,36.6,0,0,0,22.482,70.313a36.309,36.309,0,0,0,6.85,2.126,36.852,36.852,0,0,0,14.71,0,36.293,36.293,0,0,0,13.049-5.491A36.6,36.6,0,0,0,70.313,50.892a36.309,36.309,0,0,0,2.126-6.85,36.852,36.852,0,0,0,0-14.71,36.293,36.293,0,0,0-5.491-13.049A36.6,36.6,0,0,0,50.892,3.06,36.309,36.309,0,0,0,44.042.934,36.764,36.764,0,0,0,36.687.193m0-.193A36.687,36.687,0,1,1,0,36.687,36.687,36.687,0,0,1,36.687,0Z" transform="translate(-10991.557 -10307.942)" fill="#fff"/>
      <path id="Elipse_5970" data-name="Elipse 5970" d="M31.487.193A31.526,31.526,0,0,0,25.18.828,31.122,31.122,0,0,0,13.99,5.537,31.387,31.387,0,0,0,2.652,19.306,31.136,31.136,0,0,0,.828,25.18a31.6,31.6,0,0,0,0,12.614,31.122,31.122,0,0,0,4.709,11.19A31.386,31.386,0,0,0,19.306,60.323a31.136,31.136,0,0,0,5.874,1.823,31.6,31.6,0,0,0,12.614,0,31.122,31.122,0,0,0,11.19-4.709A31.387,31.387,0,0,0,60.323,43.668a31.137,31.137,0,0,0,1.823-5.874,31.6,31.6,0,0,0,0-12.614,31.122,31.122,0,0,0-4.709-11.19A31.387,31.387,0,0,0,43.668,2.652,31.136,31.136,0,0,0,37.794.828,31.526,31.526,0,0,0,31.487.193m0-.193A31.487,31.487,0,1,1,0,31.487,31.487,31.487,0,0,1,31.487,0Z" transform="translate(-10986.356 -10302.742)" fill="#fff"/>
      <path id="Elipse_5971" data-name="Elipse 5971" d="M25.517.193a25.513,25.513,0,0,0-5.1.515,25.185,25.185,0,0,0-9.055,3.81A25.4,25.4,0,0,0,2.183,15.66,25.2,25.2,0,0,0,.707,20.413a25.573,25.573,0,0,0,0,10.208,25.185,25.185,0,0,0,3.81,9.055A25.4,25.4,0,0,0,15.66,48.852a25.2,25.2,0,0,0,4.753,1.476,25.573,25.573,0,0,0,10.208,0,25.185,25.185,0,0,0,9.055-3.81,25.4,25.4,0,0,0,9.175-11.142,25.2,25.2,0,0,0,1.476-4.753,25.573,25.573,0,0,0,0-10.208,25.185,25.185,0,0,0-3.81-9.055A25.4,25.4,0,0,0,35.375,2.183,25.2,25.2,0,0,0,30.621.707a25.513,25.513,0,0,0-5.1-.515m0-.193A25.517,25.517,0,1,1,0,25.517,25.517,25.517,0,0,1,25.517,0Z" transform="translate(-10980.386 -10296.771)" fill="#fff"/>
      <path id="Elipse_5972" data-name="Elipse 5972" d="M20.317.193A20.275,20.275,0,0,0,16.261.6a20.014,20.014,0,0,0-7.2,3.028,20.184,20.184,0,0,0-7.292,8.855A20.022,20.022,0,0,0,.6,16.261a20.323,20.323,0,0,0,0,8.112,20.014,20.014,0,0,0,3.028,7.2,20.184,20.184,0,0,0,8.855,7.292,20.022,20.022,0,0,0,3.777,1.173,20.323,20.323,0,0,0,8.112,0,20.014,20.014,0,0,0,7.2-3.028,20.184,20.184,0,0,0,7.292-8.855,20.022,20.022,0,0,0,1.173-3.777,20.323,20.323,0,0,0,0-8.112,20.014,20.014,0,0,0-3.028-7.2,20.184,20.184,0,0,0-8.855-7.292A20.022,20.022,0,0,0,24.374.6,20.275,20.275,0,0,0,20.317.193m0-.193A20.317,20.317,0,1,1,0,20.317,20.317,20.317,0,0,1,20.317,0Z" transform="translate(-10975.187 -10291.572)" fill="#fff"/>
      <path id="Elipse_5973" data-name="Elipse 5973" d="M14.733.193A14.471,14.471,0,0,0,6.6,2.676a14.583,14.583,0,0,0-5.268,6.4A14.521,14.521,0,0,0,2.676,22.862a14.583,14.583,0,0,0,6.4,5.268,14.521,14.521,0,0,0,13.789-1.341,14.583,14.583,0,0,0,5.268-6.4A14.521,14.521,0,0,0,26.789,6.6a14.583,14.583,0,0,0-6.4-5.268A14.449,14.449,0,0,0,14.733.193m0-.193A14.733,14.733,0,1,1,0,14.733,14.733,14.733,0,0,1,14.733,0Z" transform="translate(-10969.602 -10285.987)" fill="#fff"/>
      <path id="Elipse_5974" data-name="Elipse 5974" d="M10.111.193A9.921,9.921,0,0,0,6.25,19.249,9.921,9.921,0,0,0,13.971.972a9.856,9.856,0,0,0-3.86-.779m0-.193A10.111,10.111,0,1,1,0,10.111,10.111,10.111,0,0,1,10.111,0Z" transform="translate(-10964.98 -10281.365)" fill="#fff"/>
    </g>
  </g>
</svg>
