<svg xmlns="http://www.w3.org/2000/svg" width="85" height="92" viewBox="0 0 85 92">
  <g id="_21" data-name="21" transform="translate(-377 -2637)">
    <rect id="Rectángulo_338875" data-name="Rectángulo 338875" width="85" height="92" rx="10" transform="translate(377 2637)" fill="#ff6e33"/>
    <g id="bordado" transform="translate(388 2651)">
      <g id="Grupo_987013" data-name="Grupo 987013">
        <path id="Trazado_732262" data-name="Trazado 732262" d="M24,11v4H22a2.015,2.015,0,0,1-2-2,2.006,2.006,0,0,1,2-2Z" fill="#b27946"/>
        <path id="Trazado_732263" data-name="Trazado 732263" d="M38,11v4l-.01.1c-.98-.07-1.98-.1-2.99-.1s-2.01.03-2.99.1L32,15V11Z" fill="#b27946"/>
        <path id="Trazado_732264" data-name="Trazado 732264" d="M48,11a2.006,2.006,0,0,1,2,2,2.015,2.015,0,0,1-2,2H46V11Z" fill="#b27946"/>
      </g>
      <path id="Trazado_732265" data-name="Trazado 732265" d="M46,15v1l-1.03.18a40.308,40.308,0,0,0-6.98-1.08L38,15V10a1,1,0,0,1,1-1h6a1,1,0,0,1,1,1v5Z" fill="#cf9e76"/>
      <path id="Trazado_732266" data-name="Trazado 732266" d="M24,16V10a1,1,0,0,1,1-1h6a1,1,0,0,1,1,1v5l.01.1a38.757,38.757,0,0,0-7.9,1.33Z" fill="#cf9e76"/>
      <path id="Trazado_732267" data-name="Trazado 732267" d="M58,33c0,3.64-3.1,6.89-8,9.09A37.084,37.084,0,0,1,35,45c-.68,0-1.34-.02-2-.05a36.006,36.006,0,0,1-13-2.86c-4.9-2.2-8-5.45-8-9.09,0,5-4,14-4,15,0,3,3,8,8,8l.11.02A5.243,5.243,0,0,0,16,57c0,3,6.17,5,9,5a20.815,20.815,0,0,0,10-2.38A20.9,20.9,0,0,0,45,62c2.83,0,9-2,9-5a5.243,5.243,0,0,0-.11-.98L54,56c5,0,8-5,8-8C62,47,58,38,58,33Z" fill="#fcd770"/>
      <path id="Trazado_732268" data-name="Trazado 732268" d="M12,27c0,6.63,10.3,12,23,12s23-5.37,23-12v6c0,3.64-3.1,6.89-8,9.09A37.084,37.084,0,0,1,35,45c-.68,0-1.34-.02-2-.05a36.006,36.006,0,0,1-13-2.86c-4.9-2.2-8-5.45-8-9.09V27Z" fill="#cf9e76"/>
      <path id="Trazado_732269" data-name="Trazado 732269" d="M18.59,20.61a1.41,1.41,0,0,0,.98.39H21V19.57a1.41,1.41,0,0,0-.39-.98L20,17.9a28.713,28.713,0,0,1,4.11-1.47,38.757,38.757,0,0,1,7.9-1.33c.98-.07,1.98-.1,2.99-.1s2.01.03,2.99.1a40.308,40.308,0,0,1,6.98,1.08C52.68,18.12,58,22.23,58,27c0,6.63-10.3,12-23,12S12,33.63,12,27c0-2.82,1.87-5.42,5-7.47l.16-.18Z" fill="#ffeaa7"/>
      <path id="Trazado_732270" data-name="Trazado 732270" d="M49,27.35a3.675,3.675,0,0,1-2.52,3.49L37,34l-2-5.33.19-.5A13.009,13.009,0,0,0,36,23.68a3.432,3.432,0,0,0-1-2.37A4.219,4.219,0,0,1,38,20a4.349,4.349,0,0,1,2.68.88A3.792,3.792,0,0,1,42,24l2.71-.29a4.3,4.3,0,0,1,.61-.05A3.692,3.692,0,0,1,49,27.35Z" fill="#5cd6b3"/>
      <path id="Trazado_732271" data-name="Trazado 732271" d="M36,23.68a13.009,13.009,0,0,1-.81,4.49l-.19.5L33,34l-9.48-3.16a3.684,3.684,0,0,1,1.16-7.18,4.3,4.3,0,0,1,.61.05L28,24a3.758,3.758,0,0,1,4-4,4.169,4.169,0,0,1,2.76,1.08c.08.07.16.15.24.23A3.432,3.432,0,0,1,36,23.68Z" fill="#ff826e"/>
      <path id="Trazado_732272" data-name="Trazado 732272" d="M20.61,18.59a1.41,1.41,0,0,1,.39.98V21H19.57a1.41,1.41,0,0,1-.98-.39l-1.43-1.26L4.12,7.87,2.93,6.82A2.756,2.756,0,1,1,6.82,2.93L20,17.9Z" fill="#e6e9ed"/>
      <path id="Trazado_732273" data-name="Trazado 732273" d="M31.994,19a4.735,4.735,0,0,0-4.9,3.9l-1.643-.172a4.681,4.681,0,0,0-2.25,9.059l10.4,3.467L35,31.515l1.4,3.739,10.4-3.466a4.681,4.681,0,0,0,1.547-8.013,4.617,4.617,0,0,0-3.736-1.054l-1.7.179A4.751,4.751,0,0,0,38,19h-.041a5.206,5.206,0,0,0-2.97,1.009A5.1,5.1,0,0,0,31.994,19ZM32.4,32.746,23.834,29.89a2.678,2.678,0,0,1,.859-5.221,3.15,3.15,0,0,1,.489.04l3.818.4V24a2.766,2.766,0,0,1,3-3,2.968,2.968,0,0,1,3,2.682,11.725,11.725,0,0,1-.75,4.136ZM38,21a2.767,2.767,0,0,1,3,3v1.11l3.877-.409a2.682,2.682,0,0,1,1.289,5.19L37.6,32.746l-1.529-4.079.055-.146A13.756,13.756,0,0,0,37,23.682a4.262,4.262,0,0,0-.644-2.182A3.136,3.136,0,0,1,38,21Z"/>
      <path id="Trazado_732274" data-name="Trazado 732274" d="M63,48a13.531,13.531,0,0,0-.968-3.2C60.9,41.614,59,36.282,59,33V27c0-4.686-4.36-8.717-11.047-11H48a3,3,0,0,0,0-6H47a2,2,0,0,0-2-2H39a2,2,0,0,0-2,2H33a2,2,0,0,0-2-2H25a2,2,0,0,0-2,2H22a3,3,0,0,0,0,6h.162q-.968.328-1.876.706L7.573,2.272a3.756,3.756,0,1,0-5.3,5.3L3,8.214V24a9.01,9.01,0,0,0,8,8.941V33c0,3.282-1.9,8.614-3.032,11.8A13.531,13.531,0,0,0,7,48c0,3.443,3.086,8.346,8,8.94,0,.019,0,.041,0,.06,0,3.959,7.01,6,10,6a22.049,22.049,0,0,0,10-2.253A22.028,22.028,0,0,0,45,63c2.99,0,10-2.041,10-6,0-.019,0-.041,0-.06C59.914,56.346,63,51.443,63,48ZM57,33c0,5.963-10.075,11-22,11S13,38.963,13,33v-.72C16.67,36.866,25.033,40,35,40s18.33-3.134,22-7.72Zm0-6c0,5.963-10.075,11-22,11S13,32.963,13,27c0-2.818,2.151-4.967,4.123-6.346l.792.7A2.421,2.421,0,0,0,19.568,22H22V19.568a2.429,2.429,0,0,0-.353-1.26A37.617,37.617,0,0,1,35,16C46.925,16,57,21.037,57,27ZM48,12a1,1,0,0,1,0,2H47V12Zm-3-2v5.144a40.515,40.515,0,0,0-6-.969V10Zm-8,2v2.046c-.659-.028-1.325-.046-2-.046s-1.337.017-2,.047V12Zm-6-2v4.183a40.7,40.7,0,0,0-6,.984V10ZM21,13a1,1,0,0,1,1-1h1v2H22A1,1,0,0,1,21,13ZM4.755,3a1.756,1.756,0,0,1,1.318.6L19.882,19.273a.427.427,0,0,1,.118.3V20h-.432a.43.43,0,0,1-.3-.118L3.6,6.073A1.756,1.756,0,0,1,4.755,3ZM5,24V9.976l10.6,9.332C12.633,21.51,11,24.209,11,27v3.92A7.006,7.006,0,0,1,5,24ZM15.327,54.957C11.229,54.527,9,50.257,9,48.05c.036-.282.471-1.5.854-2.579a79.121,79.121,0,0,0,2.524-8.051,15.907,15.907,0,0,0,6.584,5.325,33.732,33.732,0,0,1-2.277,8.195C16.136,52.424,15.638,53.783,15.327,54.957ZM17,57a21.316,21.316,0,0,1,1.56-5.37,39.017,39.017,0,0,0,2.324-8.054A37.693,37.693,0,0,0,32.006,45.9c.054,10.289,1.005,13.291,1.047,13.416l.039.116A20.659,20.659,0,0,1,25,61c-2.867,0-8-2.017-8-4Zm28,4a19.331,19.331,0,0,1-10.127-2.618c-.219-.965-.822-4.365-.868-12.4.33.007.661.013.995.013a39.479,39.479,0,0,0,14.117-2.424,39.035,39.035,0,0,0,2.324,8.054A21.348,21.348,0,0,1,53,57C53,58.983,47.867,61,45,61Zm9.673-6.043c-.311-1.174-.809-2.533-1.355-4.018a33.687,33.687,0,0,1-2.277-8.195,15.907,15.907,0,0,0,6.584-5.325,79.121,79.121,0,0,0,2.524,8.051c.382,1.077.817,2.3.851,2.53,0,2.255-2.229,6.527-6.327,6.957Z"/>
    </g>
  </g>
</svg>
