<svg xmlns="http://www.w3.org/2000/svg" width="76" height="76" viewBox="0 0 76 76">
  <g id="Grupo_987104" data-name="Grupo 987104" transform="translate(-5639 1886)">
    <rect id="Rectángulo_345062" data-name="Rectángulo 345062" width="76" height="76" transform="translate(5639 -1886)" fill="none"/>
    <g id="Grupo_987103" data-name="Grupo 987103" transform="translate(14.455 119.639)">
      <g id="g2002" transform="translate(5685.879 -1986.561)">
        <path id="path2004" d="M-39.15-38.284a.864.864,0,0,1-.613-.254l-2.847-2.847a.866.866,0,0,1,0-1.225.866.866,0,0,1,1.225,0l2.847,2.847a.866.866,0,0,1,0,1.225A.864.864,0,0,1-39.15-38.284Z" transform="translate(42.864 42.864)" fill="#9f0925"/>
      </g>
      <path id="path2008" d="M-34.689-33.823a.864.864,0,0,1-.613-.254L-37.726-36.5a.866.866,0,0,1,0-1.225.866.866,0,0,1,1.225,0l2.424,2.424a.866.866,0,0,1,0,1.225A.864.864,0,0,1-34.689-33.823Z" transform="translate(5719.131 -1953.309)" fill="#9f0925"/>
      <g id="g2018" transform="translate(5641.392 -1996.639)">
        <path id="path2020" d="M25.881-86.3a.864.864,0,0,1-.613-.254.866.866,0,0,1,0-1.225l5.179-5.179a.756.756,0,0,0,.224-.539.756.756,0,0,0-.223-.539.75.75,0,0,0-.54-.225.759.759,0,0,0-.54.224l-2.426,2.426a.866.866,0,0,1-1.109.1A27.447,27.447,0,0,0-8.54-89a.866.866,0,0,1-1.225-.037.866.866,0,0,1,.037-1.225,29.193,29.193,0,0,1,35.951-3.086l1.919-1.919A2.481,2.481,0,0,1,29.907-96a2.477,2.477,0,0,1,1.766.732A2.476,2.476,0,0,1,32.4-93.5a2.477,2.477,0,0,1-.732,1.765l-5.178,5.178A.864.864,0,0,1,25.881-86.3Z" transform="translate(10 98.131)" fill="#9f0925"/>
      </g>
      <g id="g2022" transform="translate(5632.545 -1985.226)">
        <path id="path2024" d="M-44.214,36.736a29.172,29.172,0,0,1-20.617-8.513A29.25,29.25,0,0,1-67.652-9.65a.866.866,0,0,1,1.212-.18.866.866,0,0,1,.18,1.212A27.507,27.507,0,0,0-63.606,27,27.439,27.439,0,0,0-44.216,35,27.273,27.273,0,0,0-34.7,33.3a.866.866,0,0,1,1.114.51.866.866,0,0,1-.51,1.114A29.007,29.007,0,0,1-44.214,36.736Z" transform="translate(73.307 10.001)" fill="#9f0925"/>
      </g>
      <g id="g2026" transform="translate(5673.745 -1989.777)">
        <path id="path2028" d="M-67.841-27.161a.866.866,0,0,1-.769-.467.866.866,0,0,1,.369-1.168,27.374,27.374,0,0,0,6.725-4.937,27.306,27.306,0,0,0,3.108-34.981.866.866,0,0,1,.1-1.109l2.425-2.425a.759.759,0,0,0,.224-.54.756.756,0,0,0-.223-.539.757.757,0,0,0-.54-.224.756.756,0,0,0-.539.223l-5.179,5.179a.866.866,0,0,1-1.225,0,.866.866,0,0,1,0-1.225l5.179-5.179a2.476,2.476,0,0,1,1.764-.731,2.477,2.477,0,0,1,1.765.732,2.476,2.476,0,0,1,.731,1.765,2.481,2.481,0,0,1-.732,1.765L-56.579-69.1a29.036,29.036,0,0,1-3.713,36.6,29.105,29.105,0,0,1-7.151,5.249A.863.863,0,0,1-67.841-27.161Z" transform="translate(68.709 75.283)" fill="#9f0925"/>
      </g>
      <g id="g2030" transform="translate(5636.772 -1992.392)">
        <path id="path2032" d="M-81.687-26.947a24.847,24.847,0,0,1-24.819-24.819A24.74,24.74,0,0,1-102.619-65.1a.866.866,0,0,1,1.2-.264.866.866,0,0,1,.264,1.2,23.01,23.01,0,0,0-3.614,12.406A23.112,23.112,0,0,0-81.687-28.68,23.113,23.113,0,0,0-58.6-51.766,23.08,23.08,0,0,0-64.234-66.88a23.465,23.465,0,0,0-2.338-2.338,23.08,23.08,0,0,0-15.115-5.634,23.084,23.084,0,0,0-15.027,5.56.866.866,0,0,1-1.222-.093.866.866,0,0,1,.093-1.222,24.818,24.818,0,0,1,16.155-5.978,24.813,24.813,0,0,1,16.25,6.058,25.207,25.207,0,0,1,2.512,2.512,24.813,24.813,0,0,1,6.058,16.25A24.847,24.847,0,0,1-81.687-26.947Z" transform="translate(106.505 76.585)" fill="#9f0925"/>
      </g>
      <g id="g2034" transform="translate(5687.542 -1984.898)">
        <path id="path2036" d="M-36.48-5.9a.864.864,0,0,1-.613-.254.866.866,0,0,1,0-1.225l2.369-2.369a.866.866,0,0,1,1.225,0,.866.866,0,0,1,0,1.225l-2.369,2.369A.864.864,0,0,1-36.48-5.9Z" transform="translate(37.347 10)" fill="#9f0925"/>
      </g>
      <g id="g2038" transform="translate(5671.855 -1958.107)">
        <path id="path2040" d="M-35.7-4.823a2.583,2.583,0,0,1-1.838-.761l-.485-.485a.866.866,0,0,1,0-1.225.866.866,0,0,1,1.225,0l.485.485a.861.861,0,0,0,.613.254.861.861,0,0,0,.613-.254.869.869,0,0,0,0-1.225l-.486-.486a.866.866,0,0,1,0-1.225.866.866,0,0,1,1.225,0l.486.486a2.6,2.6,0,0,1,0,3.675A2.583,2.583,0,0,1-35.7-4.823Z" transform="translate(38.28 10)" fill="#9f0925"/>
      </g>
      <g id="g2042" transform="translate(5668.413 -1961.551)">
        <path id="path2044" d="M-19.586-44.576a.864.864,0,0,1-.613-.254l-.486-.486a2.6,2.6,0,0,1,0-3.675,2.583,2.583,0,0,1,1.839-.762,2.583,2.583,0,0,1,1.838.761l.486.486a.866.866,0,0,1,0,1.225.866.866,0,0,1-1.225,0l-.486-.486a.861.861,0,0,0-.613-.254.861.861,0,0,0-.613.254.869.869,0,0,0,0,1.225l.486.486a.866.866,0,0,1,0,1.225A.864.864,0,0,1-19.586-44.576Z" transform="translate(21.444 49.753)" fill="#9f0925"/>
      </g>
      <g id="g2046" transform="translate(5668.411 -1961.551)">
        <path id="path2048" d="M-77.623-15.858a2.582,2.582,0,0,1,1.838.761,2.6,2.6,0,0,1,0,3.676L-79.207-8a2.582,2.582,0,0,1-1.838.761A2.582,2.582,0,0,1-82.883-8a2.582,2.582,0,0,1-.761-1.838,2.582,2.582,0,0,1,.761-1.838l3.422-3.422A2.582,2.582,0,0,1-77.623-15.858ZM-81.045-8.97a.861.861,0,0,0,.613-.254l3.422-3.423a.867.867,0,0,0,0-1.225.86.86,0,0,0-.613-.254.861.861,0,0,0-.613.254l-3.422,3.423a.861.861,0,0,0-.254.613.861.861,0,0,0,.254.613A.861.861,0,0,0-81.045-8.97Z" transform="translate(83.644 15.858)" fill="#9f0925"/>
      </g>
      <g id="g2050" transform="translate(5671.855 -1976.158)">
        <path id="path2052" d="M-35.716-4.825a2.592,2.592,0,0,1-1.837-.759l-.486-.486a.866.866,0,0,1,0-1.225.866.866,0,0,1,1.225,0l.485.485a.87.87,0,0,0,1.227,0,.869.869,0,0,0,0-1.226l-.485-.485a.866.866,0,0,1,0-1.225.866.866,0,0,1,1.225,0l.485.485a2.605,2.605,0,0,1,0,3.676A2.6,2.6,0,0,1-35.716-4.825Z" transform="translate(38.293 10)" fill="#9f0925"/>
      </g>
      <g id="g2054" transform="translate(5668.413 -1979.601)">
        <path id="path2056" d="M-19.589-44.564a.864.864,0,0,1-.613-.254l-.486-.486a2.605,2.605,0,0,1,0-3.676,2.605,2.605,0,0,1,3.677,0l.487.487a.866.866,0,0,1,0,1.225.866.866,0,0,1-1.225,0l-.486-.486a.87.87,0,0,0-1.227,0,.869.869,0,0,0,0,1.226l.486.486a.866.866,0,0,1,0,1.225A.864.864,0,0,1-19.589-44.564Z" transform="translate(21.447 49.739)" fill="#9f0925"/>
      </g>
      <g id="g2058" transform="translate(5668.411 -1979.603)">
        <path id="path2060" d="M-77.623-15.858a2.582,2.582,0,0,1,1.838.761,2.582,2.582,0,0,1,.761,1.838,2.582,2.582,0,0,1-.761,1.838L-79.207-8a2.582,2.582,0,0,1-1.838.761A2.582,2.582,0,0,1-82.883-8a2.582,2.582,0,0,1-.761-1.838,2.582,2.582,0,0,1,.761-1.838l3.422-3.422A2.582,2.582,0,0,1-77.623-15.858ZM-81.045-8.97a.861.861,0,0,0,.613-.254l3.422-3.422a.861.861,0,0,0,.254-.613.86.86,0,0,0-.254-.613.861.861,0,0,0-.613-.254.861.861,0,0,0-.613.254l-3.422,3.422a.861.861,0,0,0-.254.613.86.86,0,0,0,.254.613A.861.861,0,0,0-81.045-8.97Z" transform="translate(83.644 15.858)" fill="#9f0925"/>
      </g>
      <g id="g2062" transform="translate(5662.866 -1958.107)">
        <path id="path2064" d="M-35.7-4.823a2.582,2.582,0,0,1-1.838-.761l-.486-.486a.866.866,0,0,1,0-1.225.866.866,0,0,1,1.225,0l.486.486a.861.861,0,0,0,.612.254.861.861,0,0,0,.612-.254.86.86,0,0,0,.254-.612.861.861,0,0,0-.254-.612l-.486-.486a.866.866,0,0,1,0-1.225.866.866,0,0,1,1.225,0l.486.486A2.582,2.582,0,0,1-33.1-7.422a2.582,2.582,0,0,1-.761,1.838A2.582,2.582,0,0,1-35.7-4.823Z" transform="translate(38.279 10)" fill="#9f0925"/>
      </g>
      <g id="g2066" transform="translate(5659.422 -1961.551)">
        <path id="path2068" d="M-19.613-44.576a.864.864,0,0,1-.613-.254l-.486-.486a2.582,2.582,0,0,1-.761-1.838,2.582,2.582,0,0,1,.761-1.838,2.582,2.582,0,0,1,1.838-.761,2.582,2.582,0,0,1,1.838.761l.486.486a.866.866,0,0,1,0,1.225.866.866,0,0,1-1.225,0l-.486-.486a.861.861,0,0,0-.612-.254.861.861,0,0,0-.612.254.861.861,0,0,0-.254.612.861.861,0,0,0,.254.612l.486.486a.866.866,0,0,1,0,1.225A.864.864,0,0,1-19.613-44.576Z" transform="translate(21.473 49.753)" fill="#9f0925"/>
      </g>
      <g id="g2070" transform="translate(5659.422 -1961.551)">
        <path id="path2072" d="M-77.624-15.858a2.582,2.582,0,0,1,1.838.761,2.6,2.6,0,0,1,0,3.676L-79.209-8a2.582,2.582,0,0,1-1.838.761A2.582,2.582,0,0,1-82.885-8a2.582,2.582,0,0,1-.761-1.838,2.582,2.582,0,0,1,.761-1.838l3.422-3.422A2.582,2.582,0,0,1-77.624-15.858ZM-81.047-8.97a.861.861,0,0,0,.613-.254l3.423-3.423a.868.868,0,0,0,0-1.225.861.861,0,0,0-.613-.254.861.861,0,0,0-.613.254l-3.423,3.423a.86.86,0,0,0-.254.613.861.861,0,0,0,.254.613A.861.861,0,0,0-81.047-8.97Z" transform="translate(83.646 15.858)" fill="#9f0925"/>
      </g>
      <g id="g2074" transform="translate(5662.866 -1967.142)">
        <path id="path2076" d="M-35.7-4.823a2.582,2.582,0,0,1-1.838-.761l-.486-.486a.866.866,0,0,1,0-1.225.866.866,0,0,1,1.225,0l.486.486a.861.861,0,0,0,.612.254.861.861,0,0,0,.612-.254.861.861,0,0,0,.254-.613.858.858,0,0,0-.253-.611l-.487-.487a.866.866,0,0,1,0-1.225.866.866,0,0,1,1.225,0l.486.486A2.579,2.579,0,0,1-33.1-7.423a2.582,2.582,0,0,1-.761,1.838A2.582,2.582,0,0,1-35.7-4.823Z" transform="translate(38.279 10)" fill="#9f0925"/>
      </g>
      <g id="g2078" transform="translate(5659.422 -1970.587)">
        <path id="path2080" d="M-19.613-44.576a.864.864,0,0,1-.613-.254l-.486-.486a2.582,2.582,0,0,1-.761-1.838,2.582,2.582,0,0,1,.761-1.838,2.582,2.582,0,0,1,1.838-.761,2.582,2.582,0,0,1,1.838.761l.486.486a.866.866,0,0,1,0,1.225.866.866,0,0,1-1.225,0l-.486-.486a.861.861,0,0,0-.612-.254.861.861,0,0,0-.612.254.861.861,0,0,0-.254.612.861.861,0,0,0,.254.612l.486.486a.866.866,0,0,1,0,1.225A.864.864,0,0,1-19.613-44.576Z" transform="translate(21.473 49.753)" fill="#9f0925"/>
      </g>
      <g id="g2082" transform="translate(5659.423 -1970.587)">
        <path id="path2084" d="M-77.611-15.858a2.582,2.582,0,0,1,1.838.761,2.6,2.6,0,0,1,0,3.676L-79.2-8a2.582,2.582,0,0,1-1.838.761A2.582,2.582,0,0,1-82.872-8a2.6,2.6,0,0,1,0-3.676l3.423-3.422A2.582,2.582,0,0,1-77.611-15.858ZM-81.034-8.97a.861.861,0,0,0,.613-.254L-77-12.646a.868.868,0,0,0,0-1.225.861.861,0,0,0-.613-.254.861.861,0,0,0-.613.254l-3.423,3.422a.861.861,0,0,0-.254.613.861.861,0,0,0,.254.613A.861.861,0,0,0-81.034-8.97Z" transform="translate(83.632 15.858)" fill="#9f0925"/>
      </g>
      <g id="g2086" transform="translate(5671.946 -1967.142)">
        <path id="path2088" d="M-35.7-4.823a2.583,2.583,0,0,1-1.838-.761l-.485-.485a.866.866,0,0,1,0-1.225.866.866,0,0,1,1.225,0l.485.485a.861.861,0,0,0,.613.254.861.861,0,0,0,.613-.254.868.868,0,0,0,0-1.225l-.486-.486a.866.866,0,0,1,0-1.225.866.866,0,0,1,1.225,0l.486.486a2.6,2.6,0,0,1,0,3.675A2.583,2.583,0,0,1-35.7-4.823Z" transform="translate(38.279 10)" fill="#9f0925"/>
      </g>
      <g id="g2090" transform="translate(5668.503 -1970.587)">
        <path id="path2092" d="M-19.586-44.576a.864.864,0,0,1-.613-.254l-.486-.486a2.6,2.6,0,0,1,0-3.675,2.583,2.583,0,0,1,1.839-.762,2.583,2.583,0,0,1,1.838.761l.486.486a.866.866,0,0,1,0,1.225.866.866,0,0,1-1.225,0l-.486-.486a.861.861,0,0,0-.613-.254.861.861,0,0,0-.613.254.869.869,0,0,0,0,1.225l.486.486a.866.866,0,0,1,0,1.225A.864.864,0,0,1-19.586-44.576Z" transform="translate(21.444 49.753)" fill="#9f0925"/>
      </g>
      <g id="g2094" transform="translate(5668.502 -1970.587)">
        <path id="path2096" d="M-77.61-15.858a2.582,2.582,0,0,1,1.838.761,2.6,2.6,0,0,1,0,3.676L-79.195-8a2.582,2.582,0,0,1-1.838.761A2.582,2.582,0,0,1-82.871-8a2.6,2.6,0,0,1,0-3.676l3.423-3.422A2.582,2.582,0,0,1-77.61-15.858ZM-81.033-8.97a.861.861,0,0,0,.613-.254L-77-12.646a.867.867,0,0,0,0-1.225.86.86,0,0,0-.613-.254.861.861,0,0,0-.613.254l-3.423,3.422a.868.868,0,0,0,0,1.225A.861.861,0,0,0-81.033-8.97Z" transform="translate(83.631 15.858)" fill="#9f0925"/>
      </g>
      <g id="g2098" transform="translate(5653.878 -1958.107)">
        <path id="path2100" d="M-35.7-4.823a2.583,2.583,0,0,1-1.838-.761l-.485-.485a.866.866,0,0,1,0-1.225.866.866,0,0,1,1.225,0l.485.485a.861.861,0,0,0,.613.254.861.861,0,0,0,.613-.254.869.869,0,0,0,0-1.225l-.486-.486a.866.866,0,0,1,0-1.225.866.866,0,0,1,1.225,0l.486.486a2.6,2.6,0,0,1,0,3.675A2.583,2.583,0,0,1-35.7-4.823Z" transform="translate(38.28 10)" fill="#9f0925"/>
      </g>
      <g id="g2102" transform="translate(5650.435 -1961.551)">
        <path id="path2104" d="M-19.586-44.576a.864.864,0,0,1-.613-.254l-.486-.486a2.6,2.6,0,0,1,0-3.675,2.583,2.583,0,0,1,1.839-.762,2.583,2.583,0,0,1,1.838.761l.486.486a.866.866,0,0,1,0,1.225.866.866,0,0,1-1.225,0l-.486-.486a.861.861,0,0,0-.613-.254.861.861,0,0,0-.613.254.869.869,0,0,0,0,1.225l.486.486a.866.866,0,0,1,0,1.225A.864.864,0,0,1-19.586-44.576Z" transform="translate(21.444 49.753)" fill="#9f0925"/>
      </g>
      <g id="g2106" transform="translate(5650.435 -1961.551)">
        <path id="path2108" d="M-77.611-15.858a2.582,2.582,0,0,1,1.838.761,2.6,2.6,0,0,1,0,3.676L-79.2-8a2.582,2.582,0,0,1-1.838.761A2.582,2.582,0,0,1-82.871-8a2.6,2.6,0,0,1,0-3.676l3.423-3.423A2.582,2.582,0,0,1-77.611-15.858ZM-81.033-8.97a.86.86,0,0,0,.613-.254L-77-12.646a.867.867,0,0,0,0-1.225.861.861,0,0,0-.613-.254.861.861,0,0,0-.613.254l-3.423,3.423a.867.867,0,0,0,0,1.225A.861.861,0,0,0-81.033-8.97Z" transform="translate(83.631 15.858)" fill="#9f0925"/>
      </g>
      <g id="g2110" transform="translate(5633.983 -1992.89)">
        <path id="path2112" d="M-159.217-129a4.706,4.706,0,0,1-3.99-2.188l-6.873-10.8a1.847,1.847,0,0,1,.258-2.34,1.845,1.845,0,0,1,2.337-.255l10.8,6.873a4.734,4.734,0,0,1,1.871,5.688.866.866,0,0,1-1.121.5.866.866,0,0,1-.5-1.121,3,3,0,0,0-1.185-3.6l-10.8-6.874a.125.125,0,0,0-.182.02.128.128,0,0,0-.02.184l6.873,10.8a2.982,2.982,0,0,0,2.528,1.386,2.94,2.94,0,0,0,1.077-.2.866.866,0,0,1,1.123.491.866.866,0,0,1-.491,1.123A4.666,4.666,0,0,1-159.217-129Z" transform="translate(170.383 144.883)" fill="#9f0925"/>
      </g>
      <g id="g2114" transform="translate(5642.531 -1985.76)">
        <path id="path2116" d="M-102.2-91.973a2.411,2.411,0,0,1-1.716-.711,2.428,2.428,0,0,1,0-3.43l2.333-2.333a1.691,1.691,0,0,0,0-2.389,1.677,1.677,0,0,0-1.194-.493,1.677,1.677,0,0,0-1.194.493l-2.815,2.815a7.447,7.447,0,0,1-3.136,1.872A.866.866,0,0,1-111-96.735a.866.866,0,0,1,.584-1.077,5.709,5.709,0,0,0,2.4-1.436l2.815-2.815a3.4,3.4,0,0,1,2.419-1,3.4,3.4,0,0,1,2.419,1,3.426,3.426,0,0,1,0,4.84l-2.333,2.333a.694.694,0,0,0,0,.98.689.689,0,0,0,.491.2.684.684,0,0,0,.488-.2l2.336-2.335a4.775,4.775,0,0,0,1.405-3.4,4.775,4.775,0,0,0-1.405-3.4,4.816,4.816,0,0,0-6.8,0l-2.814,2.814a4.291,4.291,0,0,1-3.057,1.267,4.291,4.291,0,0,1-3.058-1.267l-2.6-2.6a.688.688,0,0,0-.49-.2.688.688,0,0,0-.49.2.694.694,0,0,0,0,.98l2.6,2.6a5.682,5.682,0,0,0,2.741,1.525.866.866,0,0,1,.65,1.039.866.866,0,0,1-1.039.65,7.413,7.413,0,0,1-3.577-1.989l-2.6-2.6a2.428,2.428,0,0,1,0-3.43,2.41,2.41,0,0,1,1.715-.71,2.41,2.41,0,0,1,1.715.71l2.6,2.6a2.57,2.57,0,0,0,1.832.759,2.57,2.57,0,0,0,1.831-.759l2.815-2.815a6.551,6.551,0,0,1,9.251,0,6.5,6.5,0,0,1,1.913,4.625,6.5,6.5,0,0,1-1.913,4.625l-2.335,2.334A2.4,2.4,0,0,1-102.2-91.973Z" transform="translate(120.618 106.18)" fill="#9f0925"/>
      </g>
    </g>
  </g>
</svg>
