<svg xmlns="http://www.w3.org/2000/svg" width="320.681" height="219.5" viewBox="0 0 320.681 219.5">
  <g id="_11" data-name="11" transform="translate(-926.233 -5023)">
    <g id="Grupo_987081" data-name="Grupo 987081">
      <path id="Trazado_732501" data-name="Trazado 732501" d="M-7223.616-6664.744s8.4,8.126,19.082,0,10.675,3.662,18.716,3.466,12.038-7.89,17.431-6.178,6.114,8.338,13.624,7.657,12.092-8.679,14.9-7.657,8.23,6.216,9.777,6.178" transform="translate(8192 11700)" fill="none" stroke="#12263f" stroke-width="1"/>
      <path id="Trazado_732502" data-name="Trazado 732502" d="M-7223.616-6664.744s2.173,5.249,9.35,4.945c4.524-.19,8.641-6.742,15.912-6.742s5.946,6.938,13.987,6.742,8.261-7.112,16.025-6.742,6.07,7.423,13.579,6.742,8.836-5.415,15.005-5.784,8.126,4.343,9.673,4.305" transform="translate(8192 11692.046)" fill="none" stroke="#12263f" stroke-width="1"/>
      <g id="Elipse_6010" data-name="Elipse 6010" transform="translate(1018 5032)" fill="#fff" stroke="#12263f" stroke-width="1">
        <circle cx="4.5" cy="4.5" r="4.5" stroke="none"/>
        <circle cx="4.5" cy="4.5" r="4" fill="none"/>
      </g>
      <g id="Elipse_6013" data-name="Elipse 6013" transform="translate(1033 5025)" fill="#fff" stroke="#12263f" stroke-width="1">
        <circle cx="4.5" cy="4.5" r="4.5" stroke="none"/>
        <circle cx="4.5" cy="4.5" r="4" fill="none"/>
      </g>
      <g id="Elipse_6014" data-name="Elipse 6014" transform="translate(1003 5025)" fill="#fff" stroke="#12263f" stroke-width="1">
        <circle cx="4.5" cy="4.5" r="4.5" stroke="none"/>
        <circle cx="4.5" cy="4.5" r="4" fill="none"/>
      </g>
      <g id="Elipse_6015" data-name="Elipse 6015" transform="translate(973 5023)" fill="#fff" stroke="#12263f" stroke-width="1">
        <circle cx="4.5" cy="4.5" r="4.5" stroke="none"/>
        <circle cx="4.5" cy="4.5" r="4" fill="none"/>
      </g>
      <g id="Elipse_6011" data-name="Elipse 6011" transform="translate(989 5032)" fill="#fff" stroke="#12263f" stroke-width="1">
        <circle cx="4.5" cy="4.5" r="4.5" stroke="none"/>
        <circle cx="4.5" cy="4.5" r="4" fill="none"/>
      </g>
      <g id="Elipse_6012" data-name="Elipse 6012" transform="translate(1047 5032)" fill="#fff" stroke="#12263f" stroke-width="1">
        <circle cx="4.5" cy="4.5" r="4.5" stroke="none"/>
        <circle cx="4.5" cy="4.5" r="4" fill="none"/>
      </g>
    </g>
    <path id="Trazado_732501-2" data-name="Trazado 732501" d="M-7223.616-6664.744s8.4,8.126,19.082,0,10.675,3.662,18.716,3.466,12.038-7.89,17.431-6.178,6.114,8.338,13.624,7.657,12.092-8.679,14.9-7.657,8.23,6.216,9.777,6.178" transform="translate(8192 11726)" fill="#12263f" stroke="#12263f" stroke-width="1"/>
    <path id="Trazado_732502-2" data-name="Trazado 732502" d="M-7223.616-6664.744s2.173,5.249,9.35,4.945c4.524-.19,8.641-6.742,15.912-6.742s5.946,6.938,13.987,6.742,8.261-7.112,16.025-6.742,6.07,7.423,13.579,6.742,8.836-5.415,15.005-5.784,8.126,4.343,9.673,4.305.934-5.263.934-5.263l-94.465-1.622Z" transform="translate(8192 11718.046)" fill="#12263f" stroke="#12263f" stroke-width="1"/>
    <g id="Elipse_6010-2" data-name="Elipse 6010" transform="translate(1018 5058)" fill="#12263f" stroke="#12263f" stroke-width="1">
      <circle cx="4.5" cy="4.5" r="4.5" stroke="none"/>
      <circle cx="4.5" cy="4.5" r="4" fill="none"/>
    </g>
    <g id="Trazado_732518" data-name="Trazado 732518" transform="translate(1033 5051)" fill="#12263f">
      <path d="M 4.5 8.5 C 2.294389963150024 8.5 0.5 6.705609798431396 0.5 4.5 C 0.5 2.294389963150024 2.294389963150024 0.5 4.5 0.5 C 6.705609798431396 0.5 8.5 2.294389963150024 8.5 4.5 C 8.5 6.705609798431396 6.705609798431396 8.5 4.5 8.5 Z" stroke="none"/>
      <path d="M 4.5 1 C 2.570089817047119 1 1 2.570089817047119 1 4.5 C 1 6.429909706115723 2.570089817047119 8 4.5 8 C 6.429909706115723 8 8 6.429909706115723 8 4.5 C 8 2.570089817047119 6.429909706115723 1 4.5 1 M 4.5 0 C 6.98528003692627 0 9 2.01471996307373 9 4.5 C 9 6.98528003692627 6.98528003692627 9 4.5 9 C 2.01471996307373 9 0 6.98528003692627 0 4.5 C 0 2.01471996307373 2.01471996307373 0 4.5 0 Z" stroke="none" fill="#fff"/>
    </g>
    <g id="Elipse_6014-2" data-name="Elipse 6014" transform="translate(1003 5051)" fill="#12263f" stroke="#fff" stroke-width="1">
      <circle cx="4.5" cy="4.5" r="4.5" stroke="none"/>
      <circle cx="4.5" cy="4.5" r="4" fill="none"/>
    </g>
    <g id="Elipse_6015-2" data-name="Elipse 6015" transform="translate(973 5049)" fill="#12263f" stroke="#fff" stroke-width="1">
      <circle cx="4.5" cy="4.5" r="4.5" stroke="none"/>
      <circle cx="4.5" cy="4.5" r="4" fill="none"/>
    </g>
    <g id="Elipse_6011-2" data-name="Elipse 6011" transform="translate(989 5058)" fill="#12263f" stroke="#12263f" stroke-width="1">
      <circle cx="4.5" cy="4.5" r="4.5" stroke="none"/>
      <circle cx="4.5" cy="4.5" r="4" fill="none"/>
    </g>
    <g id="Elipse_6012-2" data-name="Elipse 6012" transform="translate(1047 5058)" fill="#12263f" stroke="#12263f" stroke-width="1">
      <circle cx="4.5" cy="4.5" r="4.5" stroke="none"/>
      <circle cx="4.5" cy="4.5" r="4" fill="none"/>
    </g>
    <path id="Trazado_732503" data-name="Trazado 732503" d="M990.088,5104.63s63.293,31.142,119.154-6.591" transform="translate(0 26)" fill="none" stroke="#12263f" stroke-width="1"/>
    <path id="Trazado_732504" data-name="Trazado 732504" d="M990.088,5104.63s63.293,31.142,119.154-6.591" transform="translate(0 30)" fill="none" stroke="#12263f" stroke-width="1"/>
    <path id="Trazado_732505" data-name="Trazado 732505" d="M990.088,5110.116s63.293-31.142,119.154,6.591" transform="translate(0 57)" fill="none" stroke="#12263f" stroke-width="1"/>
    <path id="Trazado_732506" data-name="Trazado 732506" d="M-7219-6544.96s11.955,5.372,17.674,0,11.194,0,11.194,0,8.815,3.088,12.261,1.042,7.131-5.054,10.772-5.032,13.159,1.76,13.159,1.76-8.812-6.458-13.159-6.169-9.932,4.168-11.888,4.409-3.972-3.109-7.953-4.409-7.878-3.126-10.308-2.38-1.955.41-5.2,2.38-3.3,3.992-4.7,4.409-2.158-.3-4,0a15.971,15.971,0,0,1-4.042,0l4.042-4.409,7.373-2.38s13.138,1.453,16.835,0,5.889-2.365,5.889-2.365,20.295,5.955,36.633,4.745,47.314-10.336,47.314-10.336-5.09,6.445,0,7.956,8.058.847,11.508,0,19.963-2.687,20.177,2.38-7.831-1.351-9.977-1.351a41.739,41.739,0,0,0-13.352,3.35c-4.647,2.158-6,.643-8.356,0s-7.774-5.092-14.126-2-5.483,4.327-8.929,4.409-7.792-5.648-16.778-2.41-10.378,3.863-8.738,4.17,6.989-2.835,12.749-1.76,9.374,3.7,15.376,3.99,9.583-6.487,14.054-3.99,5.878,9.079,12.031,7.648,10.763-3.435,14.125-5.889,3.888-6.331,8.219-1.76,6.06,5.8,1.281,6.039-6.307-.759-7.556,0-.762,1.623-4.636,2.847-6.87,1.908-9.886,1.691-3.589-1.426-6.038-1.691-2.341-.036-5.066-1.237-2.274-1.769-4.841-1.609-2.738.056-2.384,1.609a6.88,6.88,0,0,1,0,2.929,90.336,90.336,0,0,0-23.6-5.545c-4.348-.476-9.52-1.6-15.039-1.042-22.167,2.242-30.282,3.486-32.1,3.659s-5.748,0-5.748,0a66.986,66.986,0,0,0-10.358-2.616c-3.8-.414-1.987-.467-7.356,1.007s-6.672,1.533-8.7,1.609-7.853-1.609-7.853-1.609Z" transform="translate(8192 11700)" fill="#12263f"/>
    <path id="Trazado_732507" data-name="Trazado 732507" d="M-7112.214-6551.015s3.911-2.8,6.8-1.843" transform="translate(8192 11701.021)" fill="none" stroke="#12263f" stroke-width="1"/>
    <path id="Trazado_732508" data-name="Trazado 732508" d="M-7105.412-6551.015s-3.911-2.8-6.8-1.843" transform="translate(5532.358 13739.364) rotate(20)" fill="none" stroke="#12263f" stroke-width="1"/>
    <path id="Trazado_732509" data-name="Trazado 732509" d="M-7105.412-6551.015s-3.911-2.8-6.8-1.843" transform="translate(-7943.425 1742.175) rotate(158)" fill="none" stroke="#12263f" stroke-width="1"/>
    <path id="Trazado_732510" data-name="Trazado 732510" d="M-7105.412-6551.015s-3.911-2.8-6.8-1.843" transform="matrix(0.545, -0.839, 0.839, 0.545, 10478.223, 2757.243)" fill="none" stroke="#12263f" stroke-width="1"/>
    <path id="Trazado_732511" data-name="Trazado 732511" d="M-7105.412-6551.015s-3.911-2.8-6.8-1.843" transform="matrix(0.999, 0.035, -0.035, 0.999, 7996.502, 11944.57)" fill="none" stroke="#12263f" stroke-width="1"/>
    <g id="Grupo_987082" data-name="Grupo 987082" transform="translate(4.302 -2.885)">
      <path id="Trazado_732516" data-name="Trazado 732516" d="M-7112.214-6551.015s3.911-2.8,6.8-1.843" transform="translate(8098 11703.319)" fill="none" stroke="#12263f" stroke-width="1"/>
      <path id="Trazado_732515" data-name="Trazado 732515" d="M-7105.412-6551.015s-3.911-2.8-6.8-1.843" transform="translate(5438.358 13741.662) rotate(20)" fill="none" stroke="#12263f" stroke-width="1"/>
      <path id="Trazado_732514" data-name="Trazado 732514" d="M-7105.412-6551.015s-3.911-2.8-6.8-1.843" transform="translate(-8037.425 1744.473) rotate(158)" fill="none" stroke="#12263f" stroke-width="1"/>
      <path id="Trazado_732513" data-name="Trazado 732513" d="M-7105.412-6551.015s-3.911-2.8-6.8-1.843" transform="matrix(0.545, -0.839, 0.839, 0.545, 10384.223, 2759.541)" fill="none" stroke="#12263f" stroke-width="1"/>
      <path id="Trazado_732512" data-name="Trazado 732512" d="M-7105.412-6551.015s-3.911-2.8-6.8-1.843" transform="translate(10210.987 2274.871) rotate(-60)" fill="none" stroke="#12263f" stroke-width="1"/>
    </g>
    <path id="Trazado_732517" data-name="Trazado 732517" d="M-7089.812-6536.848s.339.2,1.155.667c1.615.924,5.96,3.328,7.363,3.421,1.81.12,6.848,3.61,2.1,2.17s-5.354-.964-10.622-5.592" transform="translate(8192 11700)" fill="#12263f"/>
    <line id="Línea_220" data-name="Línea 220" y2="126" transform="translate(1025.5 5116.5)" fill="none" stroke="#12263f" stroke-width="1" stroke-dasharray="4"/>
    <line id="Línea_221" data-name="Línea 221" y2="126" transform="translate(1060.5 5116.5)" fill="none" stroke="#12263f" stroke-width="1" stroke-dasharray="4"/>
    <g id="Grupo_987083" data-name="Grupo 987083">
      <line id="Línea_222" data-name="Línea 222" y2="11" transform="translate(1033.5 5126.5)" fill="none" stroke="#12263f" stroke-width="1"/>
      <path id="Polígono_15" data-name="Polígono 15" d="M2.5,0,5,5H0Z" transform="translate(1036 5140) rotate(180)" fill="#12263f"/>
    </g>
    <g id="Grupo_987088" data-name="Grupo 987088" transform="translate(1031 5160.207)">
      <line id="Línea_222-2" data-name="Línea 222" y1="11" transform="translate(2.5 2.5)" fill="none" stroke="#12263f" stroke-width="1"/>
      <path id="Polígono_15-2" data-name="Polígono 15" d="M2.5,0,5,5H0Z" fill="#12263f"/>
    </g>
    <g id="Grupo_987084" data-name="Grupo 987084" transform="translate(10)">
      <line id="Línea_222-3" data-name="Línea 222" y2="11" transform="translate(1033.5 5126.5)" fill="none" stroke="#12263f" stroke-width="1"/>
      <path id="Polígono_15-3" data-name="Polígono 15" d="M2.5,0,5,5H0Z" transform="translate(1036 5140) rotate(180)" fill="#12263f"/>
    </g>
    <g id="Grupo_987087" data-name="Grupo 987087" transform="translate(1041 5160.207)">
      <line id="Línea_222-4" data-name="Línea 222" y1="11" transform="translate(2.5 2.5)" fill="none" stroke="#12263f" stroke-width="1"/>
      <path id="Polígono_15-4" data-name="Polígono 15" d="M2.5,0,5,5H0Z" fill="#12263f"/>
    </g>
    <g id="Grupo_987085" data-name="Grupo 987085" transform="translate(19)">
      <line id="Línea_222-5" data-name="Línea 222" y2="11" transform="translate(1033.5 5126.5)" fill="none" stroke="#12263f" stroke-width="1"/>
      <path id="Polígono_15-5" data-name="Polígono 15" d="M2.5,0,5,5H0Z" transform="translate(1036 5140) rotate(180)" fill="#12263f"/>
    </g>
    <g id="Grupo_987089" data-name="Grupo 987089" transform="matrix(0.391, 0.921, -0.921, 0.391, 5423.91, 2161.28)">
      <line id="Línea_222-6" data-name="Línea 222" y2="24.759" transform="translate(1033.5 5112.741)" fill="none" stroke="#12263f" stroke-width="1"/>
      <path id="Polígono_15-6" data-name="Polígono 15" d="M2.5,0,5,5H0Z" transform="translate(1036 5140) rotate(180)" fill="#12263f"/>
    </g>
    <g id="Grupo_987090" data-name="Grupo 987090" transform="matrix(0.391, 0.921, -0.921, 0.391, 5434.275, 2177.999)">
      <line id="Línea_222-7" data-name="Línea 222" y2="24.759" transform="translate(1033.5 5112.741)" fill="none" stroke="#12263f" stroke-width="1"/>
      <path id="Polígono_15-7" data-name="Polígono 15" d="M2.5,0,5,5H0Z" transform="translate(1036 5140) rotate(180)" fill="#12263f"/>
    </g>
    <g id="Grupo_987091" data-name="Grupo 987091" transform="translate(6272.663 4116.071) rotate(90)">
      <line id="Línea_222-8" data-name="Línea 222" y2="24.759" transform="translate(1033.5 5112.741)" fill="none" stroke="#12263f" stroke-width="1"/>
      <path id="Polígono_15-8" data-name="Polígono 15" d="M2.5,0,5,5H0Z" transform="translate(1036 5140) rotate(180)" fill="#12263f"/>
    </g>
    <g id="Grupo_987092" data-name="Grupo 987092" transform="translate(6079.663 4116.071) rotate(90)">
      <line id="Línea_222-9" data-name="Línea 222" y2="24.759" transform="translate(1033.5 5112.741)" fill="none" stroke="#12263f" stroke-width="1"/>
      <path id="Polígono_15-9" data-name="Polígono 15" d="M2.5,0,5,5H0Z" transform="translate(1036 5140) rotate(180)" fill="#12263f"/>
    </g>
    <g id="Grupo_987086" data-name="Grupo 987086" transform="translate(1050 5160.207)">
      <line id="Línea_222-10" data-name="Línea 222" y1="11" transform="translate(2.5 2.5)" fill="none" stroke="#12263f" stroke-width="1"/>
      <path id="Polígono_15-10" data-name="Polígono 15" d="M2.5,0,5,5H0Z" transform="translate(0)" fill="#12263f"/>
    </g>
    <path id="Trazado_732618" data-name="Trazado 732618" d="M5.737-6.343H3.452V0H2.52V-6.343H.239v-.767h5.5ZM8.359.1A2.308,2.308,0,0,1,6.611-.608,2.619,2.619,0,0,1,5.938-2.5v-.166a3.17,3.17,0,0,1,.3-1.4,2.343,2.343,0,0,1,.84-.967,2.112,2.112,0,0,1,1.169-.349,1.979,1.979,0,0,1,1.6.679,2.939,2.939,0,0,1,.571,1.943v.376H6.841A1.878,1.878,0,0,0,7.3-1.121,1.435,1.435,0,0,0,8.408-.64a1.573,1.573,0,0,0,.811-.2A2.037,2.037,0,0,0,9.8-1.353l.552.43A2.219,2.219,0,0,1,8.359.1ZM8.247-4.639a1.2,1.2,0,0,0-.918.4A1.934,1.934,0,0,0,6.87-3.125H9.517v-.068A1.721,1.721,0,0,0,9.146-4.26,1.134,1.134,0,0,0,8.247-4.639Zm4.15-.645V.61q0,1.523-1.382,1.523a1.685,1.685,0,0,1-.552-.087V1.328a1.746,1.746,0,0,0,.41.039.614.614,0,0,0,.461-.164.81.81,0,0,0,.159-.569V-5.283Zm-1-1.4a.542.542,0,0,1,.134-.369.494.494,0,0,1,.393-.154.512.512,0,0,1,.4.151.534.534,0,0,1,.137.371.516.516,0,0,1-.137.366.521.521,0,0,1-.4.146.505.505,0,0,1-.4-.146A.527.527,0,0,1,11.4-6.685ZM14.834,0h-.9V-5.283h.9Zm-.977-6.685a.539.539,0,0,1,.134-.371.5.5,0,0,1,.4-.151.512.512,0,0,1,.4.151.534.534,0,0,1,.137.371.516.516,0,0,1-.137.366.521.521,0,0,1-.4.146.513.513,0,0,1-.4-.146A.521.521,0,0,1,13.857-6.685Zm2.2,4a3.1,3.1,0,0,1,.576-1.956,1.822,1.822,0,0,1,1.509-.74,1.832,1.832,0,0,1,1.47.635V-7.5h.9V0h-.83l-.044-.566A1.84,1.84,0,0,1,18.135.1a1.8,1.8,0,0,1-1.5-.752,3.13,3.13,0,0,1-.579-1.963Zm.9.1a2.343,2.343,0,0,0,.371,1.406,1.2,1.2,0,0,0,1.025.508,1.318,1.318,0,0,0,1.255-.771V-3.867a1.328,1.328,0,0,0-1.245-.747,1.205,1.205,0,0,0-1.035.513A2.58,2.58,0,0,0,16.963-2.583ZM21.68-2.69a3.121,3.121,0,0,1,.305-1.4,2.277,2.277,0,0,1,.85-.957,2.313,2.313,0,0,1,1.243-.337,2.228,2.228,0,0,1,1.746.747,2.874,2.874,0,0,1,.667,1.987v.063a3.148,3.148,0,0,1-.3,1.384,2.243,2.243,0,0,1-.845.955A2.339,2.339,0,0,1,24.087.1a2.222,2.222,0,0,1-1.741-.747,2.86,2.86,0,0,1-.667-1.978Zm.908.107A2.26,2.26,0,0,0,23-1.172a1.3,1.3,0,0,0,1.091.532,1.3,1.3,0,0,0,1.094-.54,2.472,2.472,0,0,0,.405-1.511A2.256,2.256,0,0,0,25.173-4.1a1.312,1.312,0,0,0-1.1-.54A1.3,1.3,0,0,0,23-4.106,2.453,2.453,0,0,0,22.588-2.583ZM33.174-1.4A.665.665,0,0,0,32.9-1.97a2.655,2.655,0,0,0-.962-.349,4.548,4.548,0,0,1-1.089-.352,1.549,1.549,0,0,1-.6-.488,1.168,1.168,0,0,1-.193-.674,1.37,1.37,0,0,1,.549-1.1,2.145,2.145,0,0,1,1.4-.449,2.208,2.208,0,0,1,1.458.464,1.473,1.473,0,0,1,.559,1.187H33.12a.815.815,0,0,0-.315-.64,1.18,1.18,0,0,0-.793-.269,1.235,1.235,0,0,0-.771.215.676.676,0,0,0-.278.562.548.548,0,0,0,.259.493,3.184,3.184,0,0,0,.935.317,4.872,4.872,0,0,1,1.1.361,1.6,1.6,0,0,1,.623.505,1.243,1.243,0,0,1,.2.72A1.352,1.352,0,0,1,33.511-.33,2.376,2.376,0,0,1,32.041.1a2.66,2.66,0,0,1-1.123-.225,1.827,1.827,0,0,1-.764-.627,1.512,1.512,0,0,1-.276-.872h.9a.935.935,0,0,0,.364.72,1.411,1.411,0,0,0,.9.266,1.457,1.457,0,0,0,.823-.208A.638.638,0,0,0,33.174-1.4ZM37.446.1A2.308,2.308,0,0,1,35.7-.608,2.619,2.619,0,0,1,35.024-2.5v-.166a3.17,3.17,0,0,1,.3-1.4,2.343,2.343,0,0,1,.84-.967,2.112,2.112,0,0,1,1.169-.349,1.979,1.979,0,0,1,1.6.679,2.939,2.939,0,0,1,.571,1.943v.376H35.928a1.878,1.878,0,0,0,.457,1.262A1.435,1.435,0,0,0,37.5-.64a1.573,1.573,0,0,0,.811-.2,2.037,2.037,0,0,0,.581-.518l.552.43A2.219,2.219,0,0,1,37.446.1Zm-.112-4.736a1.2,1.2,0,0,0-.918.4,1.934,1.934,0,0,0-.459,1.116H38.6v-.068a1.721,1.721,0,0,0-.371-1.067A1.134,1.134,0,0,0,37.334-4.639Zm5.337,4a1.3,1.3,0,0,0,.845-.293,1.031,1.031,0,0,0,.4-.732h.854a1.638,1.638,0,0,1-.312.864,2.058,2.058,0,0,1-.769.654A2.219,2.219,0,0,1,42.671.1a2.176,2.176,0,0,1-1.716-.72,2.869,2.869,0,0,1-.637-1.97v-.151A3.181,3.181,0,0,1,40.6-4.116a2.157,2.157,0,0,1,.813-.933,2.309,2.309,0,0,1,1.252-.332,2.119,2.119,0,0,1,1.477.532,1.9,1.9,0,0,1,.627,1.382h-.854a1.245,1.245,0,0,0-.388-.842,1.208,1.208,0,0,0-.862-.33,1.264,1.264,0,0,0-1.067.5,2.328,2.328,0,0,0-.378,1.433v.171A2.281,2.281,0,0,0,41.6-1.133,1.27,1.27,0,0,0,42.671-.64ZM45.547-2.69a3.121,3.121,0,0,1,.305-1.4,2.277,2.277,0,0,1,.85-.957,2.313,2.313,0,0,1,1.243-.337,2.228,2.228,0,0,1,1.746.747,2.874,2.874,0,0,1,.667,1.987v.063a3.148,3.148,0,0,1-.3,1.384,2.243,2.243,0,0,1-.845.955A2.339,2.339,0,0,1,47.954.1a2.222,2.222,0,0,1-1.741-.747,2.86,2.86,0,0,1-.667-1.978Zm.908.107a2.26,2.26,0,0,0,.408,1.411,1.3,1.3,0,0,0,1.091.532,1.3,1.3,0,0,0,1.094-.54,2.472,2.472,0,0,0,.405-1.511A2.256,2.256,0,0,0,49.041-4.1a1.312,1.312,0,0,0-1.1-.54,1.3,1.3,0,0,0-1.079.532A2.453,2.453,0,0,0,46.455-2.583Z" transform="translate(1073 5036)" fill="#12263f"/>
    <path id="Trazado_732619" data-name="Trazado 732619" d="M5.737-6.343H3.452V0H2.52V-6.343H.239v-.767h5.5ZM8.359.1A2.308,2.308,0,0,1,6.611-.608,2.619,2.619,0,0,1,5.938-2.5v-.166a3.17,3.17,0,0,1,.3-1.4,2.343,2.343,0,0,1,.84-.967,2.112,2.112,0,0,1,1.169-.349,1.979,1.979,0,0,1,1.6.679,2.939,2.939,0,0,1,.571,1.943v.376H6.841A1.878,1.878,0,0,0,7.3-1.121,1.435,1.435,0,0,0,8.408-.64a1.573,1.573,0,0,0,.811-.2A2.037,2.037,0,0,0,9.8-1.353l.552.43A2.219,2.219,0,0,1,8.359.1ZM8.247-4.639a1.2,1.2,0,0,0-.918.4A1.934,1.934,0,0,0,6.87-3.125H9.517v-.068A1.721,1.721,0,0,0,9.146-4.26,1.134,1.134,0,0,0,8.247-4.639Zm4.15-.645V.61q0,1.523-1.382,1.523a1.685,1.685,0,0,1-.552-.087V1.328a1.746,1.746,0,0,0,.41.039.614.614,0,0,0,.461-.164.81.81,0,0,0,.159-.569V-5.283Zm-1-1.4a.542.542,0,0,1,.134-.369.494.494,0,0,1,.393-.154.512.512,0,0,1,.4.151.534.534,0,0,1,.137.371.516.516,0,0,1-.137.366.521.521,0,0,1-.4.146.505.505,0,0,1-.4-.146A.527.527,0,0,1,11.4-6.685ZM14.834,0h-.9V-5.283h.9Zm-.977-6.685a.539.539,0,0,1,.134-.371.5.5,0,0,1,.4-.151.512.512,0,0,1,.4.151.534.534,0,0,1,.137.371.516.516,0,0,1-.137.366.521.521,0,0,1-.4.146.513.513,0,0,1-.4-.146A.521.521,0,0,1,13.857-6.685Zm2.2,4a3.1,3.1,0,0,1,.576-1.956,1.822,1.822,0,0,1,1.509-.74,1.832,1.832,0,0,1,1.47.635V-7.5h.9V0h-.83l-.044-.566A1.84,1.84,0,0,1,18.135.1a1.8,1.8,0,0,1-1.5-.752,3.13,3.13,0,0,1-.579-1.963Zm.9.1a2.343,2.343,0,0,0,.371,1.406,1.2,1.2,0,0,0,1.025.508,1.318,1.318,0,0,0,1.255-.771V-3.867a1.328,1.328,0,0,0-1.245-.747,1.205,1.205,0,0,0-1.035.513A2.58,2.58,0,0,0,16.963-2.583ZM21.68-2.69a3.121,3.121,0,0,1,.305-1.4,2.277,2.277,0,0,1,.85-.957,2.313,2.313,0,0,1,1.243-.337,2.228,2.228,0,0,1,1.746.747,2.874,2.874,0,0,1,.667,1.987v.063a3.148,3.148,0,0,1-.3,1.384,2.243,2.243,0,0,1-.845.955A2.339,2.339,0,0,1,24.087.1a2.222,2.222,0,0,1-1.741-.747,2.86,2.86,0,0,1-.667-1.978Zm.908.107A2.26,2.26,0,0,0,23-1.172a1.3,1.3,0,0,0,1.091.532,1.3,1.3,0,0,0,1.094-.54,2.472,2.472,0,0,0,.405-1.511A2.256,2.256,0,0,0,25.173-4.1a1.312,1.312,0,0,0-1.1-.54A1.3,1.3,0,0,0,23-4.106,2.453,2.453,0,0,0,22.588-2.583ZM31.079,0h-.9V-5.283h.9ZM30.1-6.685a.539.539,0,0,1,.134-.371.5.5,0,0,1,.4-.151.512.512,0,0,1,.4.151.534.534,0,0,1,.137.371.516.516,0,0,1-.137.366.521.521,0,0,1-.4.146.513.513,0,0,1-.4-.146A.521.521,0,0,1,30.1-6.685Zm3.271,1.4L33.4-4.7a1.951,1.951,0,0,1,1.567-.684,1.51,1.51,0,0,1,1.509.85,2,2,0,0,1,.686-.615,2.026,2.026,0,0,1,1-.234q1.738,0,1.768,1.841V0h-.9V-3.486a1.213,1.213,0,0,0-.259-.847,1.14,1.14,0,0,0-.869-.281,1.2,1.2,0,0,0-.835.3,1.218,1.218,0,0,0-.386.808V0h-.908V-3.462a1.008,1.008,0,0,0-1.128-1.152,1.209,1.209,0,0,0-1.216.757V0h-.9V-5.283Zm12.378,2.7A3.163,3.163,0,0,1,45.2-.64,1.768,1.768,0,0,1,43.706.1a1.938,1.938,0,0,1-1.514-.61V2.031h-.9V-5.283h.825l.044.586a1.861,1.861,0,0,1,1.533-.684,1.8,1.8,0,0,1,1.506.718,3.2,3.2,0,0,1,.554,2Zm-.9-.1A2.334,2.334,0,0,0,44.468-4.1a1.227,1.227,0,0,0-1.045-.518,1.328,1.328,0,0,0-1.23.728v2.524a1.33,1.33,0,0,0,1.24.723,1.221,1.221,0,0,0,1.033-.515A2.548,2.548,0,0,0,44.849-2.686Zm4.6-1.787a2.707,2.707,0,0,0-.444-.034A1.19,1.19,0,0,0,47.8-3.75V0h-.9V-5.283h.879l.015.61a1.407,1.407,0,0,1,1.26-.708.923.923,0,0,1,.4.068ZM52.383.1a2.308,2.308,0,0,1-1.748-.706A2.619,2.619,0,0,1,49.961-2.5v-.166a3.17,3.17,0,0,1,.3-1.4,2.343,2.343,0,0,1,.84-.967,2.112,2.112,0,0,1,1.169-.349,1.979,1.979,0,0,1,1.6.679,2.939,2.939,0,0,1,.571,1.943v.376H50.864a1.878,1.878,0,0,0,.457,1.262,1.435,1.435,0,0,0,1.111.481,1.573,1.573,0,0,0,.811-.2,2.037,2.037,0,0,0,.581-.518l.552.43A2.219,2.219,0,0,1,52.383.1Zm-.112-4.736a1.2,1.2,0,0,0-.918.4,1.934,1.934,0,0,0-.459,1.116H53.54v-.068a1.721,1.721,0,0,0-.371-1.067A1.134,1.134,0,0,0,52.271-4.639Zm3,1.953a3.105,3.105,0,0,1,.571-1.965,1.827,1.827,0,0,1,1.514-.73,1.817,1.817,0,0,1,1.509.684l.044-.586h.825V-.127a2.149,2.149,0,0,1-.608,1.616A2.243,2.243,0,0,1,57.5,2.08a2.717,2.717,0,0,1-1.118-.244,1.925,1.925,0,0,1-.835-.669l.469-.542a1.766,1.766,0,0,0,1.421.718A1.384,1.384,0,0,0,58.459.972a1.418,1.418,0,0,0,.369-1.045V-.527A1.857,1.857,0,0,1,57.349.1a1.8,1.8,0,0,1-1.5-.747A3.265,3.265,0,0,1,55.273-2.686Zm.908.1a2.369,2.369,0,0,0,.366,1.4,1.19,1.19,0,0,0,1.025.51,1.323,1.323,0,0,0,1.255-.776V-3.857a1.339,1.339,0,0,0-1.245-.757,1.2,1.2,0,0,0-1.03.513A2.58,2.58,0,0,0,56.182-2.583Zm5.771-2.7.029.664a1.925,1.925,0,0,1,1.582-.762q1.675,0,1.689,1.89V0h-.9V-3.5a1.216,1.216,0,0,0-.261-.845,1.047,1.047,0,0,0-.8-.273,1.3,1.3,0,0,0-.771.234A1.592,1.592,0,0,0,62-3.765V0h-.9V-5.283ZM69.878,0a1.9,1.9,0,0,1-.127-.557,2.016,2.016,0,0,1-1.5.654,1.865,1.865,0,0,1-1.282-.442,1.43,1.43,0,0,1-.5-1.121,1.494,1.494,0,0,1,.627-1.282A2.958,2.958,0,0,1,68.857-3.2h.879v-.415a1.015,1.015,0,0,0-.283-.754,1.138,1.138,0,0,0-.835-.281,1.317,1.317,0,0,0-.811.244.719.719,0,0,0-.327.591h-.908a1.247,1.247,0,0,1,.281-.764,1.916,1.916,0,0,1,.762-.583,2.563,2.563,0,0,1,1.057-.215,2.089,2.089,0,0,1,1.431.457,1.647,1.647,0,0,1,.537,1.257v2.432a2.973,2.973,0,0,0,.186,1.157V0Zm-1.5-.688a1.588,1.588,0,0,0,.806-.22,1.329,1.329,0,0,0,.552-.571V-2.563h-.708q-1.66,0-1.66.972a.822.822,0,0,0,.283.664A1.089,1.089,0,0,0,68.379-.688Zm3.457-2a3.1,3.1,0,0,1,.576-1.956,1.822,1.822,0,0,1,1.509-.74,1.832,1.832,0,0,1,1.47.635V-7.5h.9V0h-.83L75.42-.566A1.84,1.84,0,0,1,73.911.1a1.8,1.8,0,0,1-1.5-.752,3.13,3.13,0,0,1-.579-1.963Zm.9.1a2.343,2.343,0,0,0,.371,1.406,1.2,1.2,0,0,0,1.025.508,1.318,1.318,0,0,0,1.255-.771V-3.867a1.328,1.328,0,0,0-1.245-.747A1.205,1.205,0,0,0,73.11-4.1,2.58,2.58,0,0,0,72.739-2.583Zm4.717-.107a3.121,3.121,0,0,1,.305-1.4,2.277,2.277,0,0,1,.85-.957,2.313,2.313,0,0,1,1.243-.337,2.228,2.228,0,0,1,1.746.747,2.874,2.874,0,0,1,.667,1.987v.063a3.148,3.148,0,0,1-.3,1.384,2.243,2.243,0,0,1-.845.955A2.339,2.339,0,0,1,79.863.1a2.222,2.222,0,0,1-1.741-.747,2.86,2.86,0,0,1-.667-1.978Zm.908.107a2.26,2.26,0,0,0,.408,1.411,1.3,1.3,0,0,0,1.091.532,1.3,1.3,0,0,0,1.094-.54,2.472,2.472,0,0,0,.405-1.511A2.256,2.256,0,0,0,80.95-4.1a1.312,1.312,0,0,0-1.1-.54,1.3,1.3,0,0,0-1.079.532A2.453,2.453,0,0,0,78.364-2.583Z" transform="translate(1073 5063)" fill="#12263f"/>
    <path id="Trazado_732620" data-name="Trazado 732620" d="M-55.94-3.169A4.408,4.408,0,0,1-57.7-4.021a1.628,1.628,0,0,1-.549-1.248,1.72,1.72,0,0,1,.671-1.389,2.668,2.668,0,0,1,1.746-.549,2.913,2.913,0,0,1,1.306.283,2.148,2.148,0,0,1,.889.781,2,2,0,0,1,.315,1.089h-.942a1.3,1.3,0,0,0-.41-1.017,1.668,1.668,0,0,0-1.157-.37,1.708,1.708,0,0,0-1.082.306,1.02,1.02,0,0,0-.388.849.918.918,0,0,0,.369.736A3.616,3.616,0,0,0-55.674-4a5.823,5.823,0,0,1,1.387.55,2.1,2.1,0,0,1,.742.7,1.788,1.788,0,0,1,.242.942,1.661,1.661,0,0,1-.674,1.384,2.873,2.873,0,0,1-1.8.52,3.342,3.342,0,0,1-1.367-.281,2.3,2.3,0,0,1-.979-.769,1.877,1.877,0,0,1-.344-1.108h.942a1.224,1.224,0,0,0,.476,1.018,2,2,0,0,0,1.272.374,1.843,1.843,0,0,0,1.138-.3.983.983,0,0,0,.4-.825.965.965,0,0,0-.366-.808A4.222,4.222,0,0,0-55.94-3.169ZM-50.051.1A2.308,2.308,0,0,1-51.8-.608,2.619,2.619,0,0,1-52.473-2.5v-.166a3.17,3.17,0,0,1,.3-1.4,2.343,2.343,0,0,1,.84-.967,2.112,2.112,0,0,1,1.169-.349,1.979,1.979,0,0,1,1.6.679,2.939,2.939,0,0,1,.571,1.943v.376H-51.57a1.878,1.878,0,0,0,.457,1.262A1.435,1.435,0,0,0-50-.64a1.573,1.573,0,0,0,.811-.2,2.037,2.037,0,0,0,.581-.518l.552.43A2.219,2.219,0,0,1-50.051.1Zm-.112-4.736a1.2,1.2,0,0,0-.918.4,1.934,1.934,0,0,0-.459,1.116h2.646v-.068a1.721,1.721,0,0,0-.371-1.067A1.134,1.134,0,0,0-50.164-4.639Zm4.072-.645.029.664a1.925,1.925,0,0,1,1.582-.762q1.675,0,1.689,1.89V0h-.9V-3.5a1.216,1.216,0,0,0-.261-.845,1.047,1.047,0,0,0-.8-.273,1.3,1.3,0,0,0-.771.234,1.592,1.592,0,0,0-.518.615V0h-.9V-5.283ZM-40.2-6.562v1.279h.986v.7H-40.2V-1.3a.733.733,0,0,0,.132.477.555.555,0,0,0,.449.159,2.187,2.187,0,0,0,.43-.059V0a2.634,2.634,0,0,1-.693.1A1.125,1.125,0,0,1-40.8-.269a1.573,1.573,0,0,1-.308-1.04V-4.585h-.962v-.7h.962V-6.562ZM-37.18,0h-.9V-5.283h.9Zm-.977-6.685a.539.539,0,0,1,.134-.371.5.5,0,0,1,.4-.151.512.512,0,0,1,.4.151.534.534,0,0,1,.137.371.516.516,0,0,1-.137.366.521.521,0,0,1-.4.146.513.513,0,0,1-.4-.146A.521.521,0,0,1-38.157-6.685Zm2.2,4a3.1,3.1,0,0,1,.576-1.956,1.822,1.822,0,0,1,1.509-.74,1.832,1.832,0,0,1,1.47.635V-7.5h.9V0h-.83l-.044-.566A1.84,1.84,0,0,1-33.879.1a1.8,1.8,0,0,1-1.5-.752,3.13,3.13,0,0,1-.579-1.963Zm.9.1a2.343,2.343,0,0,0,.371,1.406,1.2,1.2,0,0,0,1.025.508A1.318,1.318,0,0,0-32.4-1.44V-3.867a1.328,1.328,0,0,0-1.245-.747A1.205,1.205,0,0,0-34.68-4.1,2.58,2.58,0,0,0-35.051-2.583Zm4.717-.107a3.121,3.121,0,0,1,.305-1.4,2.277,2.277,0,0,1,.85-.957,2.313,2.313,0,0,1,1.243-.337,2.228,2.228,0,0,1,1.746.747,2.874,2.874,0,0,1,.667,1.987v.063a3.148,3.148,0,0,1-.3,1.384,2.243,2.243,0,0,1-.845.955A2.339,2.339,0,0,1-27.927.1a2.222,2.222,0,0,1-1.741-.747,2.86,2.86,0,0,1-.667-1.978Zm.908.107a2.26,2.26,0,0,0,.408,1.411,1.3,1.3,0,0,0,1.091.532,1.3,1.3,0,0,0,1.094-.54,2.472,2.472,0,0,0,.405-1.511A2.256,2.256,0,0,0-26.841-4.1a1.312,1.312,0,0,0-1.1-.54,1.3,1.3,0,0,0-1.079.532A2.453,2.453,0,0,0-29.426-2.583Zm7.29-.1a3.1,3.1,0,0,1,.576-1.956,1.822,1.822,0,0,1,1.509-.74,1.832,1.832,0,0,1,1.47.635V-7.5h.9V0h-.83l-.044-.566A1.84,1.84,0,0,1-20.061.1a1.8,1.8,0,0,1-1.5-.752,3.13,3.13,0,0,1-.579-1.963Zm.9.1a2.343,2.343,0,0,0,.371,1.406,1.2,1.2,0,0,0,1.025.508,1.318,1.318,0,0,0,1.255-.771V-3.867a1.328,1.328,0,0,0-1.245-.747,1.205,1.205,0,0,0-1.035.513A2.58,2.58,0,0,0-21.233-2.583ZM-14.084.1a2.308,2.308,0,0,1-1.748-.706A2.619,2.619,0,0,1-16.506-2.5v-.166a3.17,3.17,0,0,1,.3-1.4,2.343,2.343,0,0,1,.84-.967A2.112,2.112,0,0,1-14.2-5.381a1.979,1.979,0,0,1,1.6.679,2.939,2.939,0,0,1,.571,1.943v.376H-15.6a1.878,1.878,0,0,0,.457,1.262,1.435,1.435,0,0,0,1.111.481,1.573,1.573,0,0,0,.811-.2,2.037,2.037,0,0,0,.581-.518l.552.43A2.219,2.219,0,0,1-14.084.1ZM-14.2-4.639a1.2,1.2,0,0,0-.918.4,1.934,1.934,0,0,0-.459,1.116h2.646v-.068A1.721,1.721,0,0,0-13.3-4.26,1.134,1.134,0,0,0-14.2-4.639Zm5.479,1.953a3.105,3.105,0,0,1,.571-1.965,1.827,1.827,0,0,1,1.514-.73A1.817,1.817,0,0,1-5.125-4.7l.044-.586h.825V-.127a2.149,2.149,0,0,1-.608,1.616A2.243,2.243,0,0,1-6.5,2.08a2.717,2.717,0,0,1-1.118-.244,1.925,1.925,0,0,1-.835-.669l.469-.542a1.766,1.766,0,0,0,1.421.718A1.384,1.384,0,0,0-5.532.972,1.418,1.418,0,0,0-5.164-.073V-.527A1.857,1.857,0,0,1-6.643.1a1.8,1.8,0,0,1-1.5-.747A3.265,3.265,0,0,1-8.718-2.686Zm.908.1a2.369,2.369,0,0,0,.366,1.4,1.19,1.19,0,0,0,1.025.51,1.323,1.323,0,0,0,1.255-.776V-3.857a1.339,1.339,0,0,0-1.245-.757,1.2,1.2,0,0,0-1.03.513A2.58,2.58,0,0,0-7.81-2.583ZM-1.912,0h-.9V-5.283h.9Zm-.977-6.685a.539.539,0,0,1,.134-.371.5.5,0,0,1,.4-.151.512.512,0,0,1,.4.151.534.534,0,0,1,.137.371.516.516,0,0,1-.137.366.521.521,0,0,1-.4.146.513.513,0,0,1-.4-.146A.521.521,0,0,1-2.888-6.685ZM2.087-4.473a2.707,2.707,0,0,0-.444-.034A1.19,1.19,0,0,0,.437-3.75V0h-.9V-5.283H.413l.015.61a1.407,1.407,0,0,1,1.26-.708.923.923,0,0,1,.4.068ZM2.581-2.69a3.121,3.121,0,0,1,.305-1.4,2.277,2.277,0,0,1,.85-.957,2.313,2.313,0,0,1,1.243-.337,2.228,2.228,0,0,1,1.746.747A2.874,2.874,0,0,1,7.39-2.646v.063a3.148,3.148,0,0,1-.3,1.384,2.243,2.243,0,0,1-.845.955A2.339,2.339,0,0,1,4.988.1,2.222,2.222,0,0,1,3.247-.649a2.86,2.86,0,0,1-.667-1.978Zm.908.107A2.26,2.26,0,0,0,3.9-1.172,1.3,1.3,0,0,0,4.988-.64a1.3,1.3,0,0,0,1.094-.54A2.472,2.472,0,0,0,6.487-2.69,2.256,2.256,0,0,0,6.074-4.1a1.312,1.312,0,0,0-1.1-.54A1.3,1.3,0,0,0,3.9-4.106,2.453,2.453,0,0,0,3.489-2.583Zm7.29-.1a3.1,3.1,0,0,1,.576-1.956,1.822,1.822,0,0,1,1.509-.74,1.832,1.832,0,0,1,1.47.635V-7.5h.9V0h-.83l-.044-.566A1.84,1.84,0,0,1,12.854.1a1.8,1.8,0,0,1-1.5-.752,3.13,3.13,0,0,1-.579-1.963Zm.9.1a2.343,2.343,0,0,0,.371,1.406,1.2,1.2,0,0,0,1.025.508,1.318,1.318,0,0,0,1.255-.771V-3.867a1.328,1.328,0,0,0-1.245-.747,1.205,1.205,0,0,0-1.035.513A2.58,2.58,0,0,0,11.682-2.583ZM18.831.1a2.308,2.308,0,0,1-1.748-.706A2.619,2.619,0,0,1,16.409-2.5v-.166a3.17,3.17,0,0,1,.3-1.4,2.343,2.343,0,0,1,.84-.967,2.112,2.112,0,0,1,1.169-.349,1.979,1.979,0,0,1,1.6.679,2.939,2.939,0,0,1,.571,1.943v.376H17.312a1.878,1.878,0,0,0,.457,1.262,1.435,1.435,0,0,0,1.111.481,1.573,1.573,0,0,0,.811-.2,2.037,2.037,0,0,0,.581-.518l.552.43A2.219,2.219,0,0,1,18.831.1Zm-.112-4.736a1.2,1.2,0,0,0-.918.4,1.934,1.934,0,0,0-.459,1.116h2.646v-.068a1.721,1.721,0,0,0-.371-1.067A1.134,1.134,0,0,0,18.718-4.639ZM22.917,0h-.9V-7.5h.9Zm6.04-.64A1.3,1.3,0,0,0,29.8-.933a1.031,1.031,0,0,0,.4-.732h.854a1.638,1.638,0,0,1-.312.864,2.058,2.058,0,0,1-.769.654A2.219,2.219,0,0,1,28.958.1a2.176,2.176,0,0,1-1.716-.72,2.869,2.869,0,0,1-.637-1.97v-.151a3.181,3.181,0,0,1,.283-1.372,2.157,2.157,0,0,1,.813-.933,2.309,2.309,0,0,1,1.252-.332,2.119,2.119,0,0,1,1.477.532,1.9,1.9,0,0,1,.627,1.382H30.2a1.245,1.245,0,0,0-.388-.842,1.208,1.208,0,0,0-.862-.33,1.264,1.264,0,0,0-1.067.5,2.328,2.328,0,0,0-.378,1.433v.171a2.281,2.281,0,0,0,.376,1.406A1.27,1.27,0,0,0,28.958-.64Zm4.1.64h-.9V-5.283h.9Zm-.977-6.685a.539.539,0,0,1,.134-.371.5.5,0,0,1,.4-.151.512.512,0,0,1,.4.151.534.534,0,0,1,.137.371.516.516,0,0,1-.137.366.521.521,0,0,1-.4.146.513.513,0,0,1-.4-.146A.521.521,0,0,1,32.078-6.685ZM35.481,0h-.9V-7.5h.9Zm2.427,0H37V-5.283h.908Zm.01-7.5h1.094L37.7-6.06l-.728,0Zm2.334,2.212.029.664a1.925,1.925,0,0,1,1.582-.762q1.675,0,1.689,1.89V0h-.9V-3.5a1.216,1.216,0,0,0-.261-.845,1.047,1.047,0,0,0-.8-.273,1.3,1.3,0,0,0-.771.234,1.592,1.592,0,0,0-.518.615V0h-.9V-5.283Zm4.443,2.6a3.1,3.1,0,0,1,.576-1.956,1.822,1.822,0,0,1,1.509-.74,1.832,1.832,0,0,1,1.47.635V-7.5h.9V0h-.83l-.044-.566A1.84,1.84,0,0,1,46.77.1a1.8,1.8,0,0,1-1.5-.752,3.13,3.13,0,0,1-.579-1.963Zm.9.1a2.343,2.343,0,0,0,.371,1.406,1.2,1.2,0,0,0,1.025.508A1.318,1.318,0,0,0,48.25-1.44V-3.867A1.328,1.328,0,0,0,47-4.614a1.205,1.205,0,0,0-1.035.513A2.58,2.58,0,0,0,45.6-2.583Zm7.51-1.89a2.707,2.707,0,0,0-.444-.034,1.19,1.19,0,0,0-1.206.757V0h-.9V-5.283h.879l.015.61a1.407,1.407,0,0,1,1.26-.708.923.923,0,0,1,.4.068ZM53.6-2.69a3.121,3.121,0,0,1,.305-1.4,2.277,2.277,0,0,1,.85-.957A2.313,2.313,0,0,1,56-5.381a2.228,2.228,0,0,1,1.746.747,2.874,2.874,0,0,1,.667,1.987v.063a3.148,3.148,0,0,1-.3,1.384,2.243,2.243,0,0,1-.845.955A2.339,2.339,0,0,1,56.008.1a2.222,2.222,0,0,1-1.741-.747A2.86,2.86,0,0,1,53.6-2.627Zm.908.107a2.26,2.26,0,0,0,.408,1.411,1.3,1.3,0,0,0,1.091.532,1.3,1.3,0,0,0,1.094-.54,2.472,2.472,0,0,0,.405-1.511A2.256,2.256,0,0,0,57.095-4.1a1.312,1.312,0,0,0-1.1-.54,1.3,1.3,0,0,0-1.079.532A2.453,2.453,0,0,0,54.509-2.583Z" transform="translate(1184 5112)" fill="#12263f"/>
    <path id="Trazado_732621" data-name="Trazado 732621" d="M-35.764,0V-7.109h2.324a2.7,2.7,0,0,1,1.741.479,1.725,1.725,0,0,1,.583,1.416,1.444,1.444,0,0,1-.283.881,1.836,1.836,0,0,1-.771.593,1.649,1.649,0,0,1,.911.613,1.759,1.759,0,0,1,.334,1.077,1.9,1.9,0,0,1-.62,1.5A2.564,2.564,0,0,1-33.3,0Zm.938-3.325V-.767h1.548a1.49,1.49,0,0,0,1.033-.339,1.192,1.192,0,0,0,.378-.935q0-1.284-1.4-1.284Zm0-.752h1.416a1.484,1.484,0,0,0,.984-.308,1.033,1.033,0,0,0,.369-.837,1.016,1.016,0,0,0-.342-.854,1.679,1.679,0,0,0-1.04-.267h-1.387Zm4.907,1.387a3.121,3.121,0,0,1,.305-1.4,2.277,2.277,0,0,1,.85-.957,2.313,2.313,0,0,1,1.243-.337,2.228,2.228,0,0,1,1.746.747,2.874,2.874,0,0,1,.667,1.987v.063a3.148,3.148,0,0,1-.3,1.384,2.243,2.243,0,0,1-.845.955A2.339,2.339,0,0,1-27.512.1a2.222,2.222,0,0,1-1.741-.747,2.86,2.86,0,0,1-.667-1.978Zm.908.107A2.26,2.26,0,0,0-28.6-1.172a1.3,1.3,0,0,0,1.091.532,1.3,1.3,0,0,0,1.094-.54,2.472,2.472,0,0,0,.405-1.511A2.256,2.256,0,0,0-26.426-4.1a1.312,1.312,0,0,0-1.1-.54,1.3,1.3,0,0,0-1.079.532A2.453,2.453,0,0,0-29.011-2.583ZM-23,0h-.9V-7.5h.9Zm4.521-1.4a.665.665,0,0,0-.276-.569,2.655,2.655,0,0,0-.962-.349A4.548,4.548,0,0,1-20.8-2.671a1.549,1.549,0,0,1-.6-.488,1.168,1.168,0,0,1-.193-.674,1.37,1.37,0,0,1,.549-1.1,2.145,2.145,0,0,1,1.4-.449,2.208,2.208,0,0,1,1.458.464A1.473,1.473,0,0,1-17.62-3.73h-.908a.815.815,0,0,0-.315-.64,1.18,1.18,0,0,0-.793-.269,1.235,1.235,0,0,0-.771.215.676.676,0,0,0-.278.562.548.548,0,0,0,.259.493,3.184,3.184,0,0,0,.935.317,4.872,4.872,0,0,1,1.1.361,1.6,1.6,0,0,1,.623.505,1.243,1.243,0,0,1,.2.72A1.352,1.352,0,0,1-18.137-.33,2.376,2.376,0,0,1-19.607.1,2.66,2.66,0,0,1-20.73-.127a1.827,1.827,0,0,1-.764-.627,1.512,1.512,0,0,1-.276-.872h.9a.935.935,0,0,0,.364.72,1.411,1.411,0,0,0,.9.266,1.457,1.457,0,0,0,.823-.208A.638.638,0,0,0-18.474-1.4ZM-13.132,0a1.9,1.9,0,0,1-.127-.557,2.015,2.015,0,0,1-1.5.654,1.865,1.865,0,0,1-1.282-.442,1.43,1.43,0,0,1-.5-1.121,1.494,1.494,0,0,1,.627-1.282A2.958,2.958,0,0,1-14.153-3.2h.879v-.415a1.015,1.015,0,0,0-.283-.754,1.138,1.138,0,0,0-.835-.281,1.317,1.317,0,0,0-.811.244.719.719,0,0,0-.327.591h-.908a1.247,1.247,0,0,1,.281-.764,1.916,1.916,0,0,1,.762-.583,2.563,2.563,0,0,1,1.057-.215,2.089,2.089,0,0,1,1.431.457,1.647,1.647,0,0,1,.537,1.257v2.432a2.973,2.973,0,0,0,.186,1.157V0Zm-1.5-.688a1.588,1.588,0,0,0,.806-.22,1.329,1.329,0,0,0,.552-.571V-2.563h-.708q-1.66,0-1.66.972a.822.822,0,0,0,.283.664A1.089,1.089,0,0,0-14.631-.688Zm5.933-2a3.1,3.1,0,0,1,.576-1.956,1.822,1.822,0,0,1,1.509-.74,1.832,1.832,0,0,1,1.47.635V-7.5h.9V0h-.83l-.044-.566A1.84,1.84,0,0,1-6.624.1a1.8,1.8,0,0,1-1.5-.752A3.13,3.13,0,0,1-8.7-2.617Zm.9.1a2.343,2.343,0,0,0,.371,1.406A1.2,1.2,0,0,0-6.4-.669,1.318,1.318,0,0,0-5.144-1.44V-3.867a1.328,1.328,0,0,0-1.245-.747A1.205,1.205,0,0,0-7.424-4.1,2.58,2.58,0,0,0-7.8-2.583ZM-.647.1A2.308,2.308,0,0,1-2.4-.608,2.619,2.619,0,0,1-3.069-2.5v-.166a3.17,3.17,0,0,1,.3-1.4,2.343,2.343,0,0,1,.84-.967A2.112,2.112,0,0,1-.759-5.381a1.979,1.979,0,0,1,1.6.679,2.939,2.939,0,0,1,.571,1.943v.376H-2.166a1.878,1.878,0,0,0,.457,1.262A1.435,1.435,0,0,0-.6-.64a1.573,1.573,0,0,0,.811-.2,2.037,2.037,0,0,0,.581-.518l.552.43A2.219,2.219,0,0,1-.647.1ZM-.759-4.639a1.2,1.2,0,0,0-.918.4,1.934,1.934,0,0,0-.459,1.116H.51v-.068A1.721,1.721,0,0,0,.139-4.26,1.134,1.134,0,0,0-.759-4.639ZM5.916,0h-.9V-7.5h.9ZM8.342,0H7.434V-5.283h.908Zm.01-7.5H9.446L8.137-6.06l-.728,0Zm1.26,4.81a3.1,3.1,0,0,1,.571-1.97,1.851,1.851,0,0,1,1.533-.725,1.85,1.85,0,0,1,1.479.63l.039-.532h.83V2.031h-.9V-.488A1.9,1.9,0,0,1,11.707.1a1.822,1.822,0,0,1-1.526-.745,3.17,3.17,0,0,1-.569-1.975Zm.9.1A2.351,2.351,0,0,0,10.9-1.157a1.219,1.219,0,0,0,1.033.518,1.353,1.353,0,0,0,1.23-.713V-3.94a1.357,1.357,0,0,0-1.221-.7,1.228,1.228,0,0,0-1.04.52A2.559,2.559,0,0,0,10.515-2.583ZM18.777-.522A1.919,1.919,0,0,1,17.229.1a1.642,1.642,0,0,1-1.287-.491A2.124,2.124,0,0,1,15.5-1.846V-5.283h.9V-1.87q0,1.2.977,1.2a1.352,1.352,0,0,0,1.377-.771V-5.283h.9V0H18.8ZM22.009,0h-.9V-5.283h.9Zm-.977-6.685a.539.539,0,0,1,.134-.371.5.5,0,0,1,.4-.151.512.512,0,0,1,.4.151.534.534,0,0,1,.137.371.516.516,0,0,1-.137.366.521.521,0,0,1-.4.146.513.513,0,0,1-.4-.146A.521.521,0,0,1,21.033-6.685Zm2.2,4a3.1,3.1,0,0,1,.576-1.956,1.822,1.822,0,0,1,1.509-.74,1.832,1.832,0,0,1,1.47.635V-7.5h.9V0h-.83l-.044-.566A1.84,1.84,0,0,1,25.31.1a1.8,1.8,0,0,1-1.5-.752,3.13,3.13,0,0,1-.579-1.963Zm.9.1a2.343,2.343,0,0,0,.371,1.406,1.2,1.2,0,0,0,1.025.508A1.318,1.318,0,0,0,26.79-1.44V-3.867a1.328,1.328,0,0,0-1.245-.747,1.205,1.205,0,0,0-1.035.513A2.58,2.58,0,0,0,24.138-2.583Zm4.717-.107a3.121,3.121,0,0,1,.305-1.4,2.277,2.277,0,0,1,.85-.957,2.313,2.313,0,0,1,1.243-.337A2.228,2.228,0,0,1,33-4.634a2.874,2.874,0,0,1,.667,1.987v.063a3.148,3.148,0,0,1-.3,1.384,2.243,2.243,0,0,1-.845.955A2.339,2.339,0,0,1,31.262.1a2.222,2.222,0,0,1-1.741-.747,2.86,2.86,0,0,1-.667-1.978Zm.908.107a2.26,2.26,0,0,0,.408,1.411,1.3,1.3,0,0,0,1.091.532,1.3,1.3,0,0,0,1.094-.54,2.472,2.472,0,0,0,.405-1.511A2.256,2.256,0,0,0,32.349-4.1a1.312,1.312,0,0,0-1.1-.54,1.3,1.3,0,0,0-1.079.532A2.453,2.453,0,0,0,29.763-2.583Z" transform="translate(1170 5131)" fill="#12263f"/>
    <path id="Trazado_732622" data-name="Trazado 732622" d="M-41.538,0V-7.109h2.007a3.231,3.231,0,0,1,1.641.41,2.774,2.774,0,0,1,1.1,1.167A3.8,3.8,0,0,1-36.4-3.794v.454a3.812,3.812,0,0,1-.388,1.763A2.731,2.731,0,0,1-37.893-.415,3.436,3.436,0,0,1-39.57,0Zm.938-6.343V-.767h.986a2.146,2.146,0,0,0,1.687-.674,2.786,2.786,0,0,0,.6-1.921v-.415a2.831,2.831,0,0,0-.569-1.884,2.024,2.024,0,0,0-1.614-.682ZM-34.141,0h-.9V-5.283h.9Zm-.977-6.685a.539.539,0,0,1,.134-.371.5.5,0,0,1,.4-.151.512.512,0,0,1,.4.151.534.534,0,0,1,.137.371.516.516,0,0,1-.137.366.521.521,0,0,1-.4.146.513.513,0,0,1-.4-.146A.521.521,0,0,1-35.117-6.685Zm4.976,2.212a2.707,2.707,0,0,0-.444-.034,1.19,1.19,0,0,0-1.206.757V0h-.9V-5.283h.879l.015.61a1.407,1.407,0,0,1,1.26-.708.923.923,0,0,1,.4.068ZM-27.212.1A2.308,2.308,0,0,1-28.96-.608,2.619,2.619,0,0,1-29.634-2.5v-.166a3.17,3.17,0,0,1,.3-1.4,2.343,2.343,0,0,1,.84-.967,2.112,2.112,0,0,1,1.169-.349,1.979,1.979,0,0,1,1.6.679,2.939,2.939,0,0,1,.571,1.943v.376H-28.73a1.878,1.878,0,0,0,.457,1.262,1.435,1.435,0,0,0,1.111.481,1.573,1.573,0,0,0,.811-.2,2.037,2.037,0,0,0,.581-.518l.552.43A2.219,2.219,0,0,1-27.212.1Zm-.112-4.736a1.2,1.2,0,0,0-.918.4A1.934,1.934,0,0,0-28.7-3.125h2.646v-.068a1.721,1.721,0,0,0-.371-1.067A1.134,1.134,0,0,0-27.324-4.639Zm5.337,4a1.3,1.3,0,0,0,.845-.293,1.031,1.031,0,0,0,.4-.732h.854A1.638,1.638,0,0,1-20.2-.8a2.058,2.058,0,0,1-.769.654A2.219,2.219,0,0,1-21.987.1,2.176,2.176,0,0,1-23.7-.623a2.869,2.869,0,0,1-.637-1.97v-.151a3.181,3.181,0,0,1,.283-1.372,2.157,2.157,0,0,1,.813-.933,2.309,2.309,0,0,1,1.252-.332,2.119,2.119,0,0,1,1.477.532,1.9,1.9,0,0,1,.627,1.382h-.854a1.245,1.245,0,0,0-.388-.842,1.208,1.208,0,0,0-.862-.33,1.264,1.264,0,0,0-1.067.5,2.328,2.328,0,0,0-.378,1.433v.171a2.281,2.281,0,0,0,.376,1.406A1.27,1.27,0,0,0-21.987-.64Zm5.234,0a1.3,1.3,0,0,0,.845-.293,1.031,1.031,0,0,0,.4-.732h.854a1.638,1.638,0,0,1-.312.864,2.058,2.058,0,0,1-.769.654A2.219,2.219,0,0,1-16.753.1a2.176,2.176,0,0,1-1.716-.72,2.869,2.869,0,0,1-.637-1.97v-.151a3.181,3.181,0,0,1,.283-1.372,2.157,2.157,0,0,1,.813-.933,2.309,2.309,0,0,1,1.252-.332,2.119,2.119,0,0,1,1.477.532,1.9,1.9,0,0,1,.627,1.382h-.854a1.245,1.245,0,0,0-.388-.842,1.208,1.208,0,0,0-.862-.33,1.264,1.264,0,0,0-1.067.5A2.328,2.328,0,0,0-18.2-2.71v.171a2.281,2.281,0,0,0,.376,1.406A1.27,1.27,0,0,0-16.753-.64Zm4.1.64h-.9V-5.283h.9Zm-.977-6.685a.539.539,0,0,1,.134-.371.5.5,0,0,1,.4-.151.512.512,0,0,1,.4.151.534.534,0,0,1,.137.371.516.516,0,0,1-.137.366.521.521,0,0,1-.4.146.513.513,0,0,1-.4-.146A.521.521,0,0,1-13.633-6.685ZM-11.45-2.69a3.121,3.121,0,0,1,.305-1.4,2.277,2.277,0,0,1,.85-.957,2.313,2.313,0,0,1,1.243-.337,2.228,2.228,0,0,1,1.746.747,2.874,2.874,0,0,1,.667,1.987v.063a3.148,3.148,0,0,1-.3,1.384,2.243,2.243,0,0,1-.845.955A2.339,2.339,0,0,1-9.043.1a2.222,2.222,0,0,1-1.741-.747,2.86,2.86,0,0,1-.667-1.978Zm.908.107a2.26,2.26,0,0,0,.408,1.411A1.3,1.3,0,0,0-9.043-.64a1.3,1.3,0,0,0,1.094-.54A2.472,2.472,0,0,0-7.544-2.69,2.256,2.256,0,0,0-7.957-4.1a1.312,1.312,0,0,0-1.1-.54,1.3,1.3,0,0,0-1.079.532A2.453,2.453,0,0,0-10.542-2.583Zm1.9-4.917h1.094L-8.857-6.064l-.728,0Zm3.989,2.217.029.664a1.925,1.925,0,0,1,1.582-.762q1.675,0,1.689,1.89V0h-.9V-3.5a1.216,1.216,0,0,0-.261-.845,1.047,1.047,0,0,0-.8-.273,1.3,1.3,0,0,0-.771.234,1.592,1.592,0,0,0-.518.615V0h-.9V-5.283Zm6.919,2.6a3.1,3.1,0,0,1,.576-1.956,1.822,1.822,0,0,1,1.509-.74,1.832,1.832,0,0,1,1.47.635V-7.5h.9V0h-.83L5.85-.566A1.84,1.84,0,0,1,4.341.1a1.8,1.8,0,0,1-1.5-.752,3.13,3.13,0,0,1-.579-1.963Zm.9.1A2.343,2.343,0,0,0,3.54-1.177a1.2,1.2,0,0,0,1.025.508A1.318,1.318,0,0,0,5.82-1.44V-3.867a1.328,1.328,0,0,0-1.245-.747A1.205,1.205,0,0,0,3.54-4.1,2.58,2.58,0,0,0,3.169-2.583ZM10.317.1A2.308,2.308,0,0,1,8.569-.608,2.619,2.619,0,0,1,7.9-2.5v-.166a3.17,3.17,0,0,1,.3-1.4,2.343,2.343,0,0,1,.84-.967,2.112,2.112,0,0,1,1.169-.349,1.979,1.979,0,0,1,1.6.679,2.939,2.939,0,0,1,.571,1.943v.376H8.8a1.878,1.878,0,0,0,.457,1.262,1.435,1.435,0,0,0,1.111.481,1.573,1.573,0,0,0,.811-.2,2.037,2.037,0,0,0,.581-.518l.552.43A2.219,2.219,0,0,1,10.317.1Zm-.112-4.736a1.2,1.2,0,0,0-.918.4,1.934,1.934,0,0,0-.459,1.116h2.646v-.068A1.721,1.721,0,0,0,11.1-4.26,1.134,1.134,0,0,0,10.205-4.639ZM14.4,0h-.9V-7.5h.9Zm5.146-6.562v1.279h.986v.7h-.986V-1.3a.733.733,0,0,0,.132.477.555.555,0,0,0,.449.159,2.187,2.187,0,0,0,.43-.059V0a2.634,2.634,0,0,1-.693.1,1.125,1.125,0,0,1-.913-.366,1.573,1.573,0,0,1-.308-1.04V-4.585h-.962v-.7h.962V-6.562ZM23.784.1a2.308,2.308,0,0,1-1.748-.706A2.619,2.619,0,0,1,21.362-2.5v-.166a3.17,3.17,0,0,1,.3-1.4,2.343,2.343,0,0,1,.84-.967,2.112,2.112,0,0,1,1.169-.349,1.979,1.979,0,0,1,1.6.679,2.939,2.939,0,0,1,.571,1.943v.376H22.266a1.878,1.878,0,0,0,.457,1.262,1.435,1.435,0,0,0,1.111.481,1.573,1.573,0,0,0,.811-.2,2.037,2.037,0,0,0,.581-.518l.552.43A2.219,2.219,0,0,1,23.784.1Zm-.112-4.736a1.2,1.2,0,0,0-.918.4,1.934,1.934,0,0,0-.459,1.116h2.646v-.068A1.721,1.721,0,0,0,24.57-4.26,1.134,1.134,0,0,0,23.672-4.639Zm4.15-.645V.61q0,1.523-1.382,1.523a1.685,1.685,0,0,1-.552-.087V1.328a1.746,1.746,0,0,0,.41.039A.614.614,0,0,0,26.76,1.2a.81.81,0,0,0,.159-.569V-5.283Zm-1-1.4a.542.542,0,0,1,.134-.369.494.494,0,0,1,.393-.154.512.512,0,0,1,.4.151.534.534,0,0,1,.137.371.516.516,0,0,1-.137.366.521.521,0,0,1-.4.146.505.505,0,0,1-.4-.146A.527.527,0,0,1,26.826-6.685ZM30.259,0h-.9V-5.283h.9Zm-.977-6.685a.539.539,0,0,1,.134-.371.5.5,0,0,1,.4-.151.512.512,0,0,1,.4.151.534.534,0,0,1,.137.371.516.516,0,0,1-.137.366.521.521,0,0,1-.4.146.513.513,0,0,1-.4-.146A.521.521,0,0,1,29.282-6.685Zm2.2,4a3.1,3.1,0,0,1,.576-1.956,1.822,1.822,0,0,1,1.509-.74,1.832,1.832,0,0,1,1.47.635V-7.5h.9V0h-.83l-.044-.566A1.84,1.84,0,0,1,33.56.1a1.8,1.8,0,0,1-1.5-.752,3.13,3.13,0,0,1-.579-1.963Zm.9.1a2.343,2.343,0,0,0,.371,1.406,1.2,1.2,0,0,0,1.025.508,1.318,1.318,0,0,0,1.255-.771V-3.867a1.328,1.328,0,0,0-1.245-.747,1.205,1.205,0,0,0-1.035.513A2.58,2.58,0,0,0,32.388-2.583ZM37.1-2.69a3.121,3.121,0,0,1,.305-1.4,2.277,2.277,0,0,1,.85-.957A2.313,2.313,0,0,1,39.5-5.381a2.228,2.228,0,0,1,1.746.747,2.874,2.874,0,0,1,.667,1.987v.063a3.148,3.148,0,0,1-.3,1.384,2.243,2.243,0,0,1-.845.955A2.339,2.339,0,0,1,39.512.1a2.222,2.222,0,0,1-1.741-.747A2.86,2.86,0,0,1,37.1-2.627Zm.908.107a2.26,2.26,0,0,0,.408,1.411,1.3,1.3,0,0,0,1.091.532,1.3,1.3,0,0,0,1.094-.54,2.472,2.472,0,0,0,.405-1.511A2.256,2.256,0,0,0,40.6-4.1a1.312,1.312,0,0,0-1.1-.54,1.3,1.3,0,0,0-1.079.532A2.453,2.453,0,0,0,38.013-2.583Z" transform="translate(1205 5154)" fill="#12263f"/>
    <path id="Trazado_732623" data-name="Trazado 732623" d="M-43.691-2.256a2.616,2.616,0,0,1-.833,1.741A2.728,2.728,0,0,1-46.387.1a2.505,2.505,0,0,1-2.019-.9,3.634,3.634,0,0,1-.759-2.417v-.684a4.051,4.051,0,0,1,.354-1.743,2.644,2.644,0,0,1,1-1.155,2.794,2.794,0,0,1,1.5-.4,2.569,2.569,0,0,1,1.816.632,2.647,2.647,0,0,1,.8,1.75h-.942a2.043,2.043,0,0,0-.53-1.234A1.6,1.6,0,0,0-46.3-6.44a1.677,1.677,0,0,0-1.409.665,3.051,3.051,0,0,0-.51,1.891V-3.2a3.136,3.136,0,0,0,.483,1.842,1.562,1.562,0,0,0,1.353.684,1.8,1.8,0,0,0,1.2-.354,1.964,1.964,0,0,0,.554-1.233Zm.9-.435a3.121,3.121,0,0,1,.305-1.4,2.277,2.277,0,0,1,.85-.957A2.313,2.313,0,0,1-40.4-5.381a2.228,2.228,0,0,1,1.746.747,2.874,2.874,0,0,1,.667,1.987v.063a3.148,3.148,0,0,1-.3,1.384,2.243,2.243,0,0,1-.845.955A2.339,2.339,0,0,1-40.386.1a2.222,2.222,0,0,1-1.741-.747,2.86,2.86,0,0,1-.667-1.978Zm.908.107a2.26,2.26,0,0,0,.408,1.411,1.3,1.3,0,0,0,1.091.532,1.3,1.3,0,0,0,1.094-.54,2.472,2.472,0,0,0,.405-1.511A2.256,2.256,0,0,0-39.3-4.1a1.312,1.312,0,0,0-1.1-.54,1.3,1.3,0,0,0-1.079.532A2.453,2.453,0,0,0-41.885-2.583ZM-36-5.283l.024.586a1.951,1.951,0,0,1,1.567-.684,1.51,1.51,0,0,1,1.509.85,2,2,0,0,1,.686-.615,2.026,2.026,0,0,1,1-.234q1.738,0,1.768,1.841V0h-.9V-3.486a1.213,1.213,0,0,0-.259-.847,1.14,1.14,0,0,0-.869-.281,1.2,1.2,0,0,0-.835.3,1.218,1.218,0,0,0-.386.808V0h-.908V-3.462a1.008,1.008,0,0,0-1.128-1.152,1.209,1.209,0,0,0-1.216.757V0h-.9V-5.283Zm12.378,2.7A3.163,3.163,0,0,1-24.175-.64,1.768,1.768,0,0,1-25.669.1a1.938,1.938,0,0,1-1.514-.61V2.031h-.9V-5.283h.825l.044.586a1.861,1.861,0,0,1,1.533-.684,1.8,1.8,0,0,1,1.506.718,3.2,3.2,0,0,1,.554,2Zm-.9-.1A2.334,2.334,0,0,0-24.907-4.1a1.227,1.227,0,0,0-1.045-.518,1.328,1.328,0,0,0-1.23.728v2.524a1.33,1.33,0,0,0,1.24.723,1.221,1.221,0,0,0,1.033-.515A2.548,2.548,0,0,0-24.526-2.686Zm4.6-1.787a2.707,2.707,0,0,0-.444-.034,1.19,1.19,0,0,0-1.206.757V0h-.9V-5.283h.879l.015.61a1.407,1.407,0,0,1,1.26-.708.923.923,0,0,1,.4.068ZM-16.992.1A2.308,2.308,0,0,1-18.74-.608,2.619,2.619,0,0,1-19.414-2.5v-.166a3.17,3.17,0,0,1,.3-1.4,2.343,2.343,0,0,1,.84-.967A2.112,2.112,0,0,1-17.1-5.381a1.979,1.979,0,0,1,1.6.679,2.939,2.939,0,0,1,.571,1.943v.376h-3.579a1.878,1.878,0,0,0,.457,1.262,1.435,1.435,0,0,0,1.111.481,1.573,1.573,0,0,0,.811-.2,2.037,2.037,0,0,0,.581-.518l.552.43A2.219,2.219,0,0,1-16.992.1ZM-17.1-4.639a1.2,1.2,0,0,0-.918.4,1.934,1.934,0,0,0-.459,1.116h2.646v-.068a1.721,1.721,0,0,0-.371-1.067A1.134,1.134,0,0,0-17.1-4.639ZM-10.811-1.4a.665.665,0,0,0-.276-.569,2.655,2.655,0,0,0-.962-.349,4.548,4.548,0,0,1-1.089-.352,1.549,1.549,0,0,1-.6-.488,1.168,1.168,0,0,1-.193-.674,1.37,1.37,0,0,1,.549-1.1,2.145,2.145,0,0,1,1.4-.449,2.208,2.208,0,0,1,1.458.464A1.473,1.473,0,0,1-9.956-3.73h-.908a.815.815,0,0,0-.315-.64,1.18,1.18,0,0,0-.793-.269,1.235,1.235,0,0,0-.771.215.676.676,0,0,0-.278.562.548.548,0,0,0,.259.493,3.184,3.184,0,0,0,.935.317,4.872,4.872,0,0,1,1.1.361,1.6,1.6,0,0,1,.623.505,1.243,1.243,0,0,1,.2.72A1.352,1.352,0,0,1-10.474-.33,2.376,2.376,0,0,1-11.943.1a2.66,2.66,0,0,1-1.123-.225,1.827,1.827,0,0,1-.764-.627,1.512,1.512,0,0,1-.276-.872h.9a.935.935,0,0,0,.364.72,1.411,1.411,0,0,0,.9.266,1.457,1.457,0,0,0,.823-.208A.638.638,0,0,0-10.811-1.4ZM-7.749,0h-.9V-5.283h.9Zm-.977-6.685a.539.539,0,0,1,.134-.371.5.5,0,0,1,.4-.151.512.512,0,0,1,.4.151.534.534,0,0,1,.137.371.516.516,0,0,1-.137.366.521.521,0,0,1-.4.146.513.513,0,0,1-.4-.146A.521.521,0,0,1-8.726-6.685ZM-6.543-2.69a3.121,3.121,0,0,1,.305-1.4,2.277,2.277,0,0,1,.85-.957,2.313,2.313,0,0,1,1.243-.337A2.228,2.228,0,0,1-2.4-4.634a2.874,2.874,0,0,1,.667,1.987v.063a3.148,3.148,0,0,1-.3,1.384,2.243,2.243,0,0,1-.845.955A2.339,2.339,0,0,1-4.136.1,2.222,2.222,0,0,1-5.876-.649a2.86,2.86,0,0,1-.667-1.978Zm.908.107a2.26,2.26,0,0,0,.408,1.411A1.3,1.3,0,0,0-4.136-.64a1.3,1.3,0,0,0,1.094-.54A2.472,2.472,0,0,0-2.637-2.69,2.256,2.256,0,0,0-3.049-4.1a1.312,1.312,0,0,0-1.1-.54,1.3,1.3,0,0,0-1.079.532A2.453,2.453,0,0,0-5.635-2.583Zm1.9-4.917h1.094L-3.95-6.064l-.728,0ZM.254-5.283l.029.664a1.925,1.925,0,0,1,1.582-.762q1.675,0,1.689,1.89V0h-.9V-3.5a1.216,1.216,0,0,0-.261-.845,1.047,1.047,0,0,0-.8-.273A1.3,1.3,0,0,0,.82-4.38,1.592,1.592,0,0,0,.3-3.765V0H-.6V-5.283Zm6.919,2.6a3.1,3.1,0,0,1,.576-1.956,1.822,1.822,0,0,1,1.509-.74,1.832,1.832,0,0,1,1.47.635V-7.5h.9V0H10.8l-.044-.566A1.84,1.84,0,0,1,9.248.1a1.8,1.8,0,0,1-1.5-.752,3.13,3.13,0,0,1-.579-1.963Zm.9.1a2.343,2.343,0,0,0,.371,1.406,1.2,1.2,0,0,0,1.025.508,1.318,1.318,0,0,0,1.255-.771V-3.867a1.328,1.328,0,0,0-1.245-.747A1.205,1.205,0,0,0,8.447-4.1,2.58,2.58,0,0,0,8.076-2.583ZM15.225.1a2.308,2.308,0,0,1-1.748-.706A2.619,2.619,0,0,1,12.8-2.5v-.166a3.17,3.17,0,0,1,.3-1.4,2.343,2.343,0,0,1,.84-.967,2.112,2.112,0,0,1,1.169-.349,1.979,1.979,0,0,1,1.6.679,2.939,2.939,0,0,1,.571,1.943v.376H13.706a1.878,1.878,0,0,0,.457,1.262,1.435,1.435,0,0,0,1.111.481,1.573,1.573,0,0,0,.811-.2,2.037,2.037,0,0,0,.581-.518l.552.43A2.219,2.219,0,0,1,15.225.1Zm-.112-4.736a1.2,1.2,0,0,0-.918.4,1.934,1.934,0,0,0-.459,1.116h2.646v-.068a1.721,1.721,0,0,0-.371-1.067A1.134,1.134,0,0,0,15.112-4.639ZM19.312,0h-.9V-7.5h.9Zm5.146-6.562v1.279h.986v.7h-.986V-1.3a.733.733,0,0,0,.132.477.555.555,0,0,0,.449.159,2.187,2.187,0,0,0,.43-.059V0a2.634,2.634,0,0,1-.693.1,1.125,1.125,0,0,1-.913-.366,1.573,1.573,0,0,1-.308-1.04V-4.585h-.962v-.7h.962V-6.562ZM28.691.1a2.308,2.308,0,0,1-1.748-.706A2.619,2.619,0,0,1,26.27-2.5v-.166a3.17,3.17,0,0,1,.3-1.4,2.343,2.343,0,0,1,.84-.967,2.112,2.112,0,0,1,1.169-.349,1.979,1.979,0,0,1,1.6.679,2.939,2.939,0,0,1,.571,1.943v.376H27.173a1.878,1.878,0,0,0,.457,1.262A1.435,1.435,0,0,0,28.74-.64a1.573,1.573,0,0,0,.811-.2,2.037,2.037,0,0,0,.581-.518l.552.43A2.219,2.219,0,0,1,28.691.1Zm-.112-4.736a1.2,1.2,0,0,0-.918.4A1.934,1.934,0,0,0,27.2-3.125h2.646v-.068a1.721,1.721,0,0,0-.371-1.067A1.134,1.134,0,0,0,28.579-4.639Zm4.15-.645V.61q0,1.523-1.382,1.523a1.685,1.685,0,0,1-.552-.087V1.328a1.746,1.746,0,0,0,.41.039.614.614,0,0,0,.461-.164.81.81,0,0,0,.159-.569V-5.283Zm-1-1.4a.542.542,0,0,1,.134-.369.494.494,0,0,1,.393-.154.512.512,0,0,1,.4.151.534.534,0,0,1,.137.371.516.516,0,0,1-.137.366.521.521,0,0,1-.4.146.505.505,0,0,1-.4-.146A.527.527,0,0,1,31.733-6.685ZM35.166,0h-.9V-5.283h.9Zm-.977-6.685a.539.539,0,0,1,.134-.371.5.5,0,0,1,.4-.151.512.512,0,0,1,.4.151.534.534,0,0,1,.137.371.516.516,0,0,1-.137.366.521.521,0,0,1-.4.146.513.513,0,0,1-.4-.146A.521.521,0,0,1,34.189-6.685Zm2.2,4a3.1,3.1,0,0,1,.576-1.956,1.822,1.822,0,0,1,1.509-.74,1.832,1.832,0,0,1,1.47.635V-7.5h.9V0h-.83l-.044-.566A1.84,1.84,0,0,1,38.467.1a1.8,1.8,0,0,1-1.5-.752,3.13,3.13,0,0,1-.579-1.963Zm.9.1a2.343,2.343,0,0,0,.371,1.406,1.2,1.2,0,0,0,1.025.508,1.318,1.318,0,0,0,1.255-.771V-3.867A1.328,1.328,0,0,0,38.7-4.614a1.205,1.205,0,0,0-1.035.513A2.58,2.58,0,0,0,37.295-2.583Zm4.717-.107a3.121,3.121,0,0,1,.305-1.4,2.277,2.277,0,0,1,.85-.957,2.313,2.313,0,0,1,1.243-.337,2.228,2.228,0,0,1,1.746.747,2.874,2.874,0,0,1,.667,1.987v.063a3.148,3.148,0,0,1-.3,1.384,2.243,2.243,0,0,1-.845.955A2.339,2.339,0,0,1,44.419.1a2.222,2.222,0,0,1-1.741-.747,2.86,2.86,0,0,1-.667-1.978Zm.908.107a2.26,2.26,0,0,0,.408,1.411,1.3,1.3,0,0,0,1.091.532,1.3,1.3,0,0,0,1.094-.54,2.472,2.472,0,0,0,.405-1.511A2.256,2.256,0,0,0,45.505-4.1a1.312,1.312,0,0,0-1.1-.54,1.3,1.3,0,0,0-1.079.532A2.453,2.453,0,0,0,42.92-2.583ZM-47.288,10.1a2.308,2.308,0,0,1-1.748-.706A2.619,2.619,0,0,1-49.709,7.5V7.339a3.17,3.17,0,0,1,.3-1.4,2.343,2.343,0,0,1,.84-.967A2.112,2.112,0,0,1-47.4,4.619a1.979,1.979,0,0,1,1.6.679,2.939,2.939,0,0,1,.571,1.943v.376h-3.579a1.878,1.878,0,0,0,.457,1.262,1.435,1.435,0,0,0,1.111.481,1.573,1.573,0,0,0,.811-.2,2.037,2.037,0,0,0,.581-.518l.552.43A2.219,2.219,0,0,1-47.288,10.1ZM-47.4,5.361a1.2,1.2,0,0,0-.918.4,1.934,1.934,0,0,0-.459,1.116h2.646V6.807A1.721,1.721,0,0,0-46.5,5.74,1.134,1.134,0,0,0-47.4,5.361Zm4.072-.645.029.664a1.925,1.925,0,0,1,1.582-.762q1.675,0,1.689,1.89V10h-.9V6.5a1.216,1.216,0,0,0-.261-.845,1.047,1.047,0,0,0-.8-.273,1.3,1.3,0,0,0-.771.234,1.592,1.592,0,0,0-.518.615V10h-.9V4.717ZM-35.208,10h-.9V2.5h.9Zm4.707,0a1.9,1.9,0,0,1-.127-.557,2.015,2.015,0,0,1-1.5.654,1.865,1.865,0,0,1-1.282-.442,1.43,1.43,0,0,1-.5-1.121,1.494,1.494,0,0,1,.627-1.282A2.958,2.958,0,0,1-31.521,6.8h.879V6.382a1.015,1.015,0,0,0-.283-.754,1.138,1.138,0,0,0-.835-.281,1.317,1.317,0,0,0-.811.244.719.719,0,0,0-.327.591h-.908a1.247,1.247,0,0,1,.281-.764,1.916,1.916,0,0,1,.762-.583,2.563,2.563,0,0,1,1.057-.215,2.089,2.089,0,0,1,1.431.457,1.647,1.647,0,0,1,.537,1.257V8.765a2.973,2.973,0,0,0,.186,1.157V10ZM-32,9.312a1.588,1.588,0,0,0,.806-.22,1.329,1.329,0,0,0,.552-.571V7.437h-.708q-1.66,0-1.66.972a.822.822,0,0,0,.283.664A1.089,1.089,0,0,0-32,9.312Zm7-.049h3.091V10H-26.1V9.336l2.915-3.872h-2.871V4.717h4v.64Zm3.789-1.953a3.121,3.121,0,0,1,.305-1.4,2.277,2.277,0,0,1,.85-.957,2.313,2.313,0,0,1,1.243-.337,2.228,2.228,0,0,1,1.746.747A2.874,2.874,0,0,1-16.4,7.354v.063a3.148,3.148,0,0,1-.3,1.384,2.243,2.243,0,0,1-.845.955A2.339,2.339,0,0,1-18.8,10.1a2.222,2.222,0,0,1-1.741-.747,2.86,2.86,0,0,1-.667-1.978Zm.908.107a2.26,2.26,0,0,0,.408,1.411A1.3,1.3,0,0,0-18.8,9.36a1.3,1.3,0,0,0,1.094-.54A2.472,2.472,0,0,0-17.3,7.31,2.256,2.256,0,0,0-17.715,5.9a1.312,1.312,0,0,0-1.1-.54,1.3,1.3,0,0,0-1.079.532A2.453,2.453,0,0,0-20.3,7.417Zm5.889-2.7.029.664A1.925,1.925,0,0,1-12.8,4.619q1.675,0,1.689,1.89V10h-.9V6.5a1.216,1.216,0,0,0-.261-.845,1.047,1.047,0,0,0-.8-.273,1.3,1.3,0,0,0-.771.234,1.592,1.592,0,0,0-.518.615V10h-.9V4.717ZM-6.487,10a1.9,1.9,0,0,1-.127-.557,2.015,2.015,0,0,1-1.5.654A1.865,1.865,0,0,1-9.4,9.656a1.43,1.43,0,0,1-.5-1.121,1.494,1.494,0,0,1,.627-1.282A2.958,2.958,0,0,1-7.507,6.8h.879V6.382a1.015,1.015,0,0,0-.283-.754,1.138,1.138,0,0,0-.835-.281,1.317,1.317,0,0,0-.811.244.719.719,0,0,0-.327.591h-.908a1.247,1.247,0,0,1,.281-.764,1.916,1.916,0,0,1,.762-.583,2.563,2.563,0,0,1,1.057-.215,2.089,2.089,0,0,1,1.431.457,1.647,1.647,0,0,1,.537,1.257V8.765A2.973,2.973,0,0,0-5.54,9.922V10Zm-1.5-.688a1.588,1.588,0,0,0,.806-.22,1.329,1.329,0,0,0,.552-.571V7.437h-.708Q-9,7.437-9,8.408a.822.822,0,0,0,.283.664A1.089,1.089,0,0,0-7.986,9.312Zm5.933-2a3.1,3.1,0,0,1,.576-1.956,1.822,1.822,0,0,1,1.509-.74,1.832,1.832,0,0,1,1.47.635V2.5h.9V10h-.83l-.044-.566A1.84,1.84,0,0,1,.022,10.1a1.8,1.8,0,0,1-1.5-.752,3.13,3.13,0,0,1-.579-1.963Zm.9.1A2.343,2.343,0,0,0-.779,8.823a1.2,1.2,0,0,0,1.025.508A1.318,1.318,0,0,0,1.5,8.56V6.133A1.328,1.328,0,0,0,.256,5.386,1.205,1.205,0,0,0-.779,5.9,2.58,2.58,0,0,0-1.15,7.417ZM6,10.1A2.308,2.308,0,0,1,4.25,9.392,2.619,2.619,0,0,1,3.577,7.5V7.339a3.17,3.17,0,0,1,.3-1.4,2.343,2.343,0,0,1,.84-.967,2.112,2.112,0,0,1,1.169-.349,1.979,1.979,0,0,1,1.6.679,2.939,2.939,0,0,1,.571,1.943v.376H4.48a1.878,1.878,0,0,0,.457,1.262,1.435,1.435,0,0,0,1.111.481,1.573,1.573,0,0,0,.811-.2,2.037,2.037,0,0,0,.581-.518l.552.43A2.219,2.219,0,0,1,6,10.1ZM5.886,5.361a1.2,1.2,0,0,0-.918.4,1.934,1.934,0,0,0-.459,1.116H7.156V6.807A1.721,1.721,0,0,0,6.785,5.74,1.134,1.134,0,0,0,5.886,5.361Zm7.813,4a1.3,1.3,0,0,0,.845-.293,1.031,1.031,0,0,0,.4-.732H15.8a1.638,1.638,0,0,1-.312.864,2.058,2.058,0,0,1-.769.654A2.219,2.219,0,0,1,13.7,10.1a2.176,2.176,0,0,1-1.716-.72,2.869,2.869,0,0,1-.637-1.97V7.256a3.181,3.181,0,0,1,.283-1.372,2.157,2.157,0,0,1,.813-.933,2.309,2.309,0,0,1,1.252-.332,2.119,2.119,0,0,1,1.477.532A1.9,1.9,0,0,1,15.8,6.533h-.854a1.245,1.245,0,0,0-.388-.842,1.208,1.208,0,0,0-.862-.33,1.264,1.264,0,0,0-1.067.5,2.328,2.328,0,0,0-.378,1.433v.171a2.281,2.281,0,0,0,.376,1.406A1.27,1.27,0,0,0,13.7,9.36ZM16.575,7.31a3.121,3.121,0,0,1,.305-1.4,2.277,2.277,0,0,1,.85-.957,2.313,2.313,0,0,1,1.243-.337,2.228,2.228,0,0,1,1.746.747,2.874,2.874,0,0,1,.667,1.987v.063a3.148,3.148,0,0,1-.3,1.384,2.243,2.243,0,0,1-.845.955,2.339,2.339,0,0,1-1.262.342,2.222,2.222,0,0,1-1.741-.747,2.86,2.86,0,0,1-.667-1.978Zm.908.107a2.26,2.26,0,0,0,.408,1.411,1.382,1.382,0,0,0,2.185-.007,2.472,2.472,0,0,0,.405-1.511A2.256,2.256,0,0,0,20.068,5.9a1.312,1.312,0,0,0-1.1-.54,1.3,1.3,0,0,0-1.079.532A2.453,2.453,0,0,0,17.483,7.417Zm5.889-2.7.029.664a1.925,1.925,0,0,1,1.582-.762q1.675,0,1.689,1.89V10h-.9V6.5a1.216,1.216,0,0,0-.261-.845,1.047,1.047,0,0,0-.8-.273,1.3,1.3,0,0,0-.771.234,1.592,1.592,0,0,0-.518.615V10h-.9V4.717ZM29.26,3.438V4.717h.986v.7H29.26V8.7a.733.733,0,0,0,.132.477.555.555,0,0,0,.449.159,2.187,2.187,0,0,0,.43-.059V10a2.634,2.634,0,0,1-.693.1,1.125,1.125,0,0,1-.913-.366,1.573,1.573,0,0,1-.308-1.04V5.415H27.4v-.7h.962V3.438ZM34.563,10a1.9,1.9,0,0,1-.127-.557,2.015,2.015,0,0,1-1.5.654,1.865,1.865,0,0,1-1.282-.442,1.43,1.43,0,0,1-.5-1.121,1.494,1.494,0,0,1,.627-1.282A2.958,2.958,0,0,1,33.542,6.8h.879V6.382a1.015,1.015,0,0,0-.283-.754,1.138,1.138,0,0,0-.835-.281,1.317,1.317,0,0,0-.811.244.719.719,0,0,0-.327.591h-.908a1.247,1.247,0,0,1,.281-.764,1.916,1.916,0,0,1,.762-.583,2.563,2.563,0,0,1,1.057-.215,2.089,2.089,0,0,1,1.431.457,1.647,1.647,0,0,1,.537,1.257V8.765a2.973,2.973,0,0,0,.186,1.157V10Zm-1.5-.688a1.588,1.588,0,0,0,.806-.22,1.329,1.329,0,0,0,.552-.571V7.437h-.708q-1.66,0-1.66.972a.822.822,0,0,0,.283.664A1.089,1.089,0,0,0,33.064,9.312Zm5.8.049a1.3,1.3,0,0,0,.845-.293,1.031,1.031,0,0,0,.4-.732h.854a1.638,1.638,0,0,1-.312.864,2.058,2.058,0,0,1-.769.654,2.219,2.219,0,0,1-1.018.244,2.176,2.176,0,0,1-1.716-.72,2.869,2.869,0,0,1-.637-1.97V7.256a3.181,3.181,0,0,1,.283-1.372,2.157,2.157,0,0,1,.813-.933,2.309,2.309,0,0,1,1.252-.332,2.119,2.119,0,0,1,1.477.532,1.9,1.9,0,0,1,.627,1.382H40.1a1.245,1.245,0,0,0-.388-.842,1.208,1.208,0,0,0-.862-.33,1.264,1.264,0,0,0-1.067.5A2.328,2.328,0,0,0,37.41,7.29v.171a2.281,2.281,0,0,0,.376,1.406A1.27,1.27,0,0,0,38.86,9.36ZM43.2,3.438V4.717h.986v.7H43.2V8.7a.733.733,0,0,0,.132.477.555.555,0,0,0,.449.159,2.187,2.187,0,0,0,.43-.059V10a2.634,2.634,0,0,1-.693.1,1.125,1.125,0,0,1-.913-.366,1.573,1.573,0,0,1-.308-1.04V5.415h-.962v-.7H42.3V3.438ZM44.9,7.31a3.121,3.121,0,0,1,.305-1.4,2.277,2.277,0,0,1,.85-.957A2.313,2.313,0,0,1,47.3,4.619a2.228,2.228,0,0,1,1.746.747,2.874,2.874,0,0,1,.667,1.987v.063a3.148,3.148,0,0,1-.3,1.384,2.243,2.243,0,0,1-.845.955,2.339,2.339,0,0,1-1.262.342,2.222,2.222,0,0,1-1.741-.747A2.86,2.86,0,0,1,44.9,7.373Zm.908.107a2.26,2.26,0,0,0,.408,1.411,1.382,1.382,0,0,0,2.185-.007,2.472,2.472,0,0,0,.405-1.511A2.256,2.256,0,0,0,48.4,5.9a1.312,1.312,0,0,0-1.1-.54,1.3,1.3,0,0,0-1.079.532A2.453,2.453,0,0,0,45.813,7.417Z" transform="translate(1050 5104)" fill="#12263f"/>
    <path id="Trazado_732624" data-name="Trazado 732624" d="M-40.554-.767h4.067V0h-5.176V-.7l3.9-5.64H-41.6v-.767h4.956v.684Zm4.8-1.924a3.121,3.121,0,0,1,.305-1.4,2.277,2.277,0,0,1,.85-.957,2.313,2.313,0,0,1,1.243-.337,2.228,2.228,0,0,1,1.746.747,2.874,2.874,0,0,1,.667,1.987v.063a3.148,3.148,0,0,1-.3,1.384,2.243,2.243,0,0,1-.845.955A2.339,2.339,0,0,1-33.347.1a2.222,2.222,0,0,1-1.741-.747,2.86,2.86,0,0,1-.667-1.978Zm.908.107a2.26,2.26,0,0,0,.408,1.411,1.3,1.3,0,0,0,1.091.532,1.3,1.3,0,0,0,1.094-.54,2.472,2.472,0,0,0,.405-1.511A2.256,2.256,0,0,0-32.261-4.1a1.312,1.312,0,0,0-1.1-.54,1.3,1.3,0,0,0-1.079.532A2.453,2.453,0,0,0-34.846-2.583Zm5.889-2.7.029.664a1.925,1.925,0,0,1,1.582-.762q1.675,0,1.689,1.89V0h-.9V-3.5a1.216,1.216,0,0,0-.261-.845,1.047,1.047,0,0,0-.8-.273,1.3,1.3,0,0,0-.771.234,1.592,1.592,0,0,0-.518.615V0h-.9V-5.283ZM-21.033,0a1.9,1.9,0,0,1-.127-.557,2.015,2.015,0,0,1-1.5.654,1.865,1.865,0,0,1-1.282-.442,1.43,1.43,0,0,1-.5-1.121,1.494,1.494,0,0,1,.627-1.282A2.958,2.958,0,0,1-22.053-3.2h.879v-.415a1.015,1.015,0,0,0-.283-.754,1.138,1.138,0,0,0-.835-.281,1.317,1.317,0,0,0-.811.244.719.719,0,0,0-.327.591h-.908a1.247,1.247,0,0,1,.281-.764,1.916,1.916,0,0,1,.762-.583,2.563,2.563,0,0,1,1.057-.215,2.089,2.089,0,0,1,1.431.457,1.647,1.647,0,0,1,.537,1.257v2.432a2.973,2.973,0,0,0,.186,1.157V0Zm-1.5-.688a1.588,1.588,0,0,0,.806-.22,1.329,1.329,0,0,0,.552-.571V-2.563h-.708q-1.66,0-1.66.972a.822.822,0,0,0,.283.664A1.089,1.089,0,0,0-22.532-.688Zm5.933-2a3.1,3.1,0,0,1,.576-1.956,1.822,1.822,0,0,1,1.509-.74,1.832,1.832,0,0,1,1.47.635V-7.5h.9V0h-.83l-.044-.566A1.84,1.84,0,0,1-14.524.1a1.8,1.8,0,0,1-1.5-.752A3.13,3.13,0,0,1-16.6-2.617Zm.9.1a2.343,2.343,0,0,0,.371,1.406A1.2,1.2,0,0,0-14.3-.669a1.318,1.318,0,0,0,1.255-.771V-3.867a1.328,1.328,0,0,0-1.245-.747,1.205,1.205,0,0,0-1.035.513A2.58,2.58,0,0,0-15.7-2.583ZM-8.547.1A2.308,2.308,0,0,1-10.3-.608,2.619,2.619,0,0,1-10.969-2.5v-.166a3.17,3.17,0,0,1,.3-1.4,2.343,2.343,0,0,1,.84-.967A2.112,2.112,0,0,1-8.66-5.381a1.979,1.979,0,0,1,1.6.679,2.939,2.939,0,0,1,.571,1.943v.376h-3.579a1.878,1.878,0,0,0,.457,1.262A1.435,1.435,0,0,0-8.5-.64a1.573,1.573,0,0,0,.811-.2,2.037,2.037,0,0,0,.581-.518l.552.43A2.219,2.219,0,0,1-8.547.1ZM-8.66-4.639a1.2,1.2,0,0,0-.918.4,1.934,1.934,0,0,0-.459,1.116H-7.39v-.068A1.721,1.721,0,0,0-7.761-4.26,1.134,1.134,0,0,0-8.66-4.639ZM-.774.1A2.308,2.308,0,0,1-2.522-.608,2.619,2.619,0,0,1-3.2-2.5v-.166a3.17,3.17,0,0,1,.3-1.4,2.343,2.343,0,0,1,.84-.967A2.112,2.112,0,0,1-.886-5.381a1.979,1.979,0,0,1,1.6.679,2.939,2.939,0,0,1,.571,1.943v.376H-2.292a1.878,1.878,0,0,0,.457,1.262A1.435,1.435,0,0,0-.725-.64a1.573,1.573,0,0,0,.811-.2,2.037,2.037,0,0,0,.581-.518l.552.43A2.219,2.219,0,0,1-.774.1ZM-.886-4.639a1.2,1.2,0,0,0-.918.4,1.934,1.934,0,0,0-.459,1.116H.383v-.068A1.721,1.721,0,0,0,.012-4.26,1.134,1.134,0,0,0-.886-4.639ZM4.1-3.354,5.276-5.283H6.331L4.6-2.671,6.384,0H5.339L4.119-1.978,2.9,0H1.848L3.63-2.671,1.9-5.283H2.947Zm7.646.771A3.163,3.163,0,0,1,11.2-.64,1.768,1.768,0,0,1,9.7.1a1.938,1.938,0,0,1-1.514-.61V2.031h-.9V-5.283h.825l.044.586A1.861,1.861,0,0,1,9.69-5.381a1.8,1.8,0,0,1,1.506.718,3.2,3.2,0,0,1,.554,2Zm-.9-.1A2.334,2.334,0,0,0,10.466-4.1a1.227,1.227,0,0,0-1.045-.518,1.328,1.328,0,0,0-1.23.728v2.524a1.33,1.33,0,0,0,1.24.723,1.221,1.221,0,0,0,1.033-.515A2.548,2.548,0,0,0,10.847-2.686Zm4.6-1.787a2.707,2.707,0,0,0-.444-.034A1.19,1.19,0,0,0,13.8-3.75V0h-.9V-5.283h.879l.015.61a1.407,1.407,0,0,1,1.26-.708.923.923,0,0,1,.4.068ZM18.381.1a2.308,2.308,0,0,1-1.748-.706A2.619,2.619,0,0,1,15.959-2.5v-.166a3.17,3.17,0,0,1,.3-1.4,2.343,2.343,0,0,1,.84-.967,2.112,2.112,0,0,1,1.169-.349,1.979,1.979,0,0,1,1.6.679,2.939,2.939,0,0,1,.571,1.943v.376H16.863a1.878,1.878,0,0,0,.457,1.262A1.435,1.435,0,0,0,18.43-.64a1.573,1.573,0,0,0,.811-.2,2.037,2.037,0,0,0,.581-.518l.552.43A2.219,2.219,0,0,1,18.381.1Zm-.112-4.736a1.2,1.2,0,0,0-.918.4,1.934,1.934,0,0,0-.459,1.116h2.646v-.068a1.721,1.721,0,0,0-.371-1.067A1.134,1.134,0,0,0,18.269-4.639ZM24.563-1.4a.665.665,0,0,0-.276-.569,2.655,2.655,0,0,0-.962-.349,4.548,4.548,0,0,1-1.089-.352,1.549,1.549,0,0,1-.6-.488,1.168,1.168,0,0,1-.193-.674A1.37,1.37,0,0,1,22-4.932a2.145,2.145,0,0,1,1.4-.449,2.208,2.208,0,0,1,1.458.464,1.473,1.473,0,0,1,.559,1.187h-.908a.815.815,0,0,0-.315-.64,1.18,1.18,0,0,0-.793-.269,1.235,1.235,0,0,0-.771.215.676.676,0,0,0-.278.562.548.548,0,0,0,.259.493,3.184,3.184,0,0,0,.935.317,4.872,4.872,0,0,1,1.1.361,1.6,1.6,0,0,1,.623.505,1.243,1.243,0,0,1,.2.72A1.352,1.352,0,0,1,24.9-.33,2.376,2.376,0,0,1,23.43.1a2.66,2.66,0,0,1-1.123-.225,1.827,1.827,0,0,1-.764-.627,1.512,1.512,0,0,1-.276-.872h.9a.935.935,0,0,0,.364.72,1.411,1.411,0,0,0,.9.266,1.457,1.457,0,0,0,.823-.208A.638.638,0,0,0,24.563-1.4ZM27.625,0h-.9V-5.283h.9Zm-.977-6.685a.539.539,0,0,1,.134-.371.5.5,0,0,1,.4-.151.512.512,0,0,1,.4.151.534.534,0,0,1,.137.371.516.516,0,0,1-.137.366.521.521,0,0,1-.4.146.513.513,0,0,1-.4-.146A.521.521,0,0,1,26.648-6.685ZM28.831-2.69a3.121,3.121,0,0,1,.305-1.4,2.277,2.277,0,0,1,.85-.957,2.313,2.313,0,0,1,1.243-.337,2.228,2.228,0,0,1,1.746.747,2.874,2.874,0,0,1,.667,1.987v.063a3.148,3.148,0,0,1-.3,1.384,2.243,2.243,0,0,1-.845.955A2.339,2.339,0,0,1,31.238.1,2.222,2.222,0,0,1,29.5-.649a2.86,2.86,0,0,1-.667-1.978Zm.908.107a2.26,2.26,0,0,0,.408,1.411,1.3,1.3,0,0,0,1.091.532,1.3,1.3,0,0,0,1.094-.54,2.472,2.472,0,0,0,.405-1.511A2.256,2.256,0,0,0,32.324-4.1a1.312,1.312,0,0,0-1.1-.54,1.3,1.3,0,0,0-1.079.532A2.453,2.453,0,0,0,29.739-2.583Zm1.9-4.917h1.094L31.423-6.064l-.728,0Zm3.989,2.217.029.664a1.925,1.925,0,0,1,1.582-.762q1.675,0,1.689,1.89V0h-.9V-3.5a1.216,1.216,0,0,0-.261-.845,1.047,1.047,0,0,0-.8-.273,1.3,1.3,0,0,0-.771.234,1.592,1.592,0,0,0-.518.615V0h-.9V-5.283Zm-76.184,15.6a3.1,3.1,0,0,1,.576-1.956,1.822,1.822,0,0,1,1.509-.74A1.832,1.832,0,0,1-37,8.254V5.5h.9V13h-.83l-.044-.566a1.84,1.84,0,0,1-1.509.664,1.8,1.8,0,0,1-1.5-.752,3.13,3.13,0,0,1-.579-1.963Zm.9.1a2.343,2.343,0,0,0,.371,1.406,1.2,1.2,0,0,0,1.025.508A1.318,1.318,0,0,0-37,11.56V9.133a1.328,1.328,0,0,0-1.245-.747,1.205,1.205,0,0,0-1.035.513A2.58,2.58,0,0,0-39.653,10.417ZM-32.5,13.1a2.308,2.308,0,0,1-1.748-.706,2.619,2.619,0,0,1-.674-1.887v-.166a3.17,3.17,0,0,1,.3-1.4,2.343,2.343,0,0,1,.84-.967,2.112,2.112,0,0,1,1.169-.349,1.979,1.979,0,0,1,1.6.679,2.939,2.939,0,0,1,.571,1.943v.376h-3.579a1.878,1.878,0,0,0,.457,1.262,1.435,1.435,0,0,0,1.111.481,1.573,1.573,0,0,0,.811-.2,2.037,2.037,0,0,0,.581-.518l.552.43A2.219,2.219,0,0,1-32.5,13.1Zm-.112-4.736a1.2,1.2,0,0,0-.918.4,1.934,1.934,0,0,0-.459,1.116h2.646V9.807a1.721,1.721,0,0,0-.371-1.067A1.134,1.134,0,0,0-32.617,8.361Zm4.2,4.639h-.9V5.5h.9Zm4.9,0h-.9V5.5h.9Zm2.427,0H-22V7.717h.908Zm.01-7.5h1.094L-21.294,6.94l-.728,0Zm1.26,4.81a3.1,3.1,0,0,1,.571-1.97,1.851,1.851,0,0,1,1.533-.725,1.85,1.85,0,0,1,1.479.63l.039-.532h.83v7.314h-.9v-2.52a1.9,1.9,0,0,1-1.455.586,1.822,1.822,0,0,1-1.526-.745,3.17,3.17,0,0,1-.569-1.975Zm.9.1a2.351,2.351,0,0,0,.383,1.426,1.219,1.219,0,0,0,1.033.518,1.353,1.353,0,0,0,1.23-.713V9.06a1.357,1.357,0,0,0-1.221-.7,1.228,1.228,0,0,0-1.04.52A2.559,2.559,0,0,0-18.916,10.417Zm8.262,2.061a1.919,1.919,0,0,1-1.548.62,1.642,1.642,0,0,1-1.287-.491,2.124,2.124,0,0,1-.447-1.453V7.717h.9V11.13q0,1.2.977,1.2a1.352,1.352,0,0,0,1.377-.771V7.717h.9V13h-.859ZM-7.422,13h-.9V7.717h.9ZM-8.4,6.315a.539.539,0,0,1,.134-.371.5.5,0,0,1,.4-.151.512.512,0,0,1,.4.151.534.534,0,0,1,.137.371.516.516,0,0,1-.137.366.521.521,0,0,1-.4.146.513.513,0,0,1-.4-.146A.521.521,0,0,1-8.4,6.315Zm2.2,4A3.1,3.1,0,0,1-5.62,8.359a1.822,1.822,0,0,1,1.509-.74,1.832,1.832,0,0,1,1.47.635V5.5h.9V13h-.83l-.044-.566a1.84,1.84,0,0,1-1.509.664,1.8,1.8,0,0,1-1.5-.752A3.13,3.13,0,0,1-6.2,10.383Zm.9.1a2.343,2.343,0,0,0,.371,1.406,1.2,1.2,0,0,0,1.025.508,1.318,1.318,0,0,0,1.255-.771V9.133a1.328,1.328,0,0,0-1.245-.747A1.205,1.205,0,0,0-4.922,8.9,2.58,2.58,0,0,0-5.293,10.417Zm4.717-.107a3.121,3.121,0,0,1,.305-1.4,2.277,2.277,0,0,1,.85-.957,2.313,2.313,0,0,1,1.243-.337,2.228,2.228,0,0,1,1.746.747,2.874,2.874,0,0,1,.667,1.987v.063a3.148,3.148,0,0,1-.3,1.384,2.243,2.243,0,0,1-.845.955,2.339,2.339,0,0,1-1.262.342A2.222,2.222,0,0,1,.09,12.351a2.86,2.86,0,0,1-.667-1.978Zm.908.107A2.26,2.26,0,0,0,.74,11.828a1.3,1.3,0,0,0,1.091.532,1.3,1.3,0,0,0,1.094-.54A2.472,2.472,0,0,0,3.33,10.31,2.256,2.256,0,0,0,2.917,8.9a1.312,1.312,0,0,0-1.1-.54,1.3,1.3,0,0,0-1.079.532A2.453,2.453,0,0,0,.332,10.417Zm9.238,1.26,1.23-3.96h.967l-2.124,6.1q-.493,1.318-1.567,1.318l-.171-.015-.337-.063v-.732l.244.02a1.2,1.2,0,0,0,.715-.186,1.343,1.343,0,0,0,.422-.679l.2-.537L7.266,7.717h.986ZM17.241,13.1a2.308,2.308,0,0,1-1.748-.706,2.619,2.619,0,0,1-.674-1.887v-.166a3.17,3.17,0,0,1,.3-1.4,2.343,2.343,0,0,1,.84-.967,2.112,2.112,0,0,1,1.169-.349,1.979,1.979,0,0,1,1.6.679,2.939,2.939,0,0,1,.571,1.943v.376H15.723a1.878,1.878,0,0,0,.457,1.262,1.435,1.435,0,0,0,1.111.481,1.573,1.573,0,0,0,.811-.2,2.037,2.037,0,0,0,.581-.518l.552.43A2.219,2.219,0,0,1,17.241,13.1Zm-.112-4.736a1.2,1.2,0,0,0-.918.4,1.934,1.934,0,0,0-.459,1.116H18.4V9.807a1.721,1.721,0,0,0-.371-1.067A1.134,1.134,0,0,0,17.129,8.361ZM21.328,13h-.9V5.5h.9Zm7.183,0a1.9,1.9,0,0,1-.127-.557,2.015,2.015,0,0,1-1.5.654,1.865,1.865,0,0,1-1.282-.442,1.43,1.43,0,0,1-.5-1.121,1.494,1.494,0,0,1,.627-1.282A2.958,2.958,0,0,1,27.49,9.8h.879V9.382a1.015,1.015,0,0,0-.283-.754,1.138,1.138,0,0,0-.835-.281,1.317,1.317,0,0,0-.811.244.719.719,0,0,0-.327.591h-.908a1.247,1.247,0,0,1,.281-.764,1.916,1.916,0,0,1,.762-.583A2.563,2.563,0,0,1,27.3,7.619a2.089,2.089,0,0,1,1.431.457,1.647,1.647,0,0,1,.537,1.257v2.432a2.973,2.973,0,0,0,.186,1.157V13Zm-1.5-.688a1.588,1.588,0,0,0,.806-.22,1.329,1.329,0,0,0,.552-.571V10.437h-.708q-1.66,0-1.66.972a.822.822,0,0,0,.283.664A1.089,1.089,0,0,0,27.012,12.312ZM31.67,13h-.9V7.717h.9Zm-.977-6.685a.539.539,0,0,1,.134-.371.5.5,0,0,1,.4-.151.512.512,0,0,1,.4.151.534.534,0,0,1,.137.371.516.516,0,0,1-.137.366.521.521,0,0,1-.4.146.513.513,0,0,1-.4-.146A.521.521,0,0,1,30.693,6.315Zm4.976,2.212a2.707,2.707,0,0,0-.444-.034,1.19,1.19,0,0,0-1.206.757V13h-.9V7.717h.879l.015.61a1.407,1.407,0,0,1,1.26-.708.923.923,0,0,1,.4.068ZM38.6,13.1a2.308,2.308,0,0,1-1.748-.706,2.619,2.619,0,0,1-.674-1.887v-.166a3.17,3.17,0,0,1,.3-1.4,2.343,2.343,0,0,1,.84-.967,2.112,2.112,0,0,1,1.169-.349,1.979,1.979,0,0,1,1.6.679,2.939,2.939,0,0,1,.571,1.943v.376H37.08a1.878,1.878,0,0,0,.457,1.262,1.435,1.435,0,0,0,1.111.481,1.573,1.573,0,0,0,.811-.2,2.037,2.037,0,0,0,.581-.518l.552.43A2.219,2.219,0,0,1,38.6,13.1Zm-.112-4.736a1.2,1.2,0,0,0-.918.4,1.934,1.934,0,0,0-.459,1.116h2.646V9.807a1.721,1.721,0,0,0-.371-1.067A1.134,1.134,0,0,0,38.486,8.361Z" transform="translate(1106 5197)" fill="#12263f"/>
    <path id="Trazado_732625" data-name="Trazado 732625" d="M-94.658-.767h4.067V0h-5.176V-.7l3.9-5.64H-95.7v-.767h4.956v.684Zm4.8-1.924a3.121,3.121,0,0,1,.305-1.4,2.277,2.277,0,0,1,.85-.957,2.313,2.313,0,0,1,1.243-.337,2.228,2.228,0,0,1,1.746.747,2.874,2.874,0,0,1,.667,1.987v.063a3.148,3.148,0,0,1-.3,1.384,2.243,2.243,0,0,1-.845.955A2.339,2.339,0,0,1-87.451.1a2.222,2.222,0,0,1-1.741-.747,2.86,2.86,0,0,1-.667-1.978Zm.908.107a2.26,2.26,0,0,0,.408,1.411,1.3,1.3,0,0,0,1.091.532,1.3,1.3,0,0,0,1.094-.54,2.472,2.472,0,0,0,.405-1.511A2.256,2.256,0,0,0-86.365-4.1a1.312,1.312,0,0,0-1.1-.54,1.3,1.3,0,0,0-1.079.532A2.453,2.453,0,0,0-88.95-2.583Zm5.889-2.7.029.664a1.925,1.925,0,0,1,1.582-.762q1.675,0,1.689,1.89V0h-.9V-3.5a1.216,1.216,0,0,0-.261-.845,1.047,1.047,0,0,0-.8-.273,1.3,1.3,0,0,0-.771.234,1.592,1.592,0,0,0-.518.615V0h-.9V-5.283ZM-75.137,0a1.9,1.9,0,0,1-.127-.557,2.016,2.016,0,0,1-1.5.654,1.865,1.865,0,0,1-1.282-.442,1.43,1.43,0,0,1-.5-1.121,1.494,1.494,0,0,1,.627-1.282A2.958,2.958,0,0,1-76.157-3.2h.879v-.415a1.015,1.015,0,0,0-.283-.754,1.138,1.138,0,0,0-.835-.281,1.317,1.317,0,0,0-.811.244.719.719,0,0,0-.327.591h-.908a1.247,1.247,0,0,1,.281-.764,1.916,1.916,0,0,1,.762-.583,2.563,2.563,0,0,1,1.057-.215,2.089,2.089,0,0,1,1.431.457,1.647,1.647,0,0,1,.537,1.257v2.432a2.973,2.973,0,0,0,.186,1.157V0Zm-1.5-.688a1.588,1.588,0,0,0,.806-.22,1.329,1.329,0,0,0,.552-.571V-2.563h-.708q-1.66,0-1.66.972a.822.822,0,0,0,.283.664A1.089,1.089,0,0,0-76.636-.688Zm5.933-2a3.1,3.1,0,0,1,.576-1.956,1.822,1.822,0,0,1,1.509-.74,1.832,1.832,0,0,1,1.47.635V-7.5h.9V0h-.83l-.044-.566A1.84,1.84,0,0,1-68.628.1a1.8,1.8,0,0,1-1.5-.752A3.13,3.13,0,0,1-70.7-2.617Zm.9.1a2.343,2.343,0,0,0,.371,1.406A1.2,1.2,0,0,0-68.4-.669a1.318,1.318,0,0,0,1.255-.771V-3.867a1.328,1.328,0,0,0-1.245-.747,1.205,1.205,0,0,0-1.035.513A2.58,2.58,0,0,0-69.8-2.583ZM-62.651.1A2.308,2.308,0,0,1-64.4-.608,2.619,2.619,0,0,1-65.073-2.5v-.166a3.17,3.17,0,0,1,.3-1.4,2.342,2.342,0,0,1,.84-.967,2.112,2.112,0,0,1,1.169-.349,1.979,1.979,0,0,1,1.6.679,2.939,2.939,0,0,1,.571,1.943v.376H-64.17a1.878,1.878,0,0,0,.457,1.262A1.435,1.435,0,0,0-62.6-.64a1.573,1.573,0,0,0,.811-.2,2.037,2.037,0,0,0,.581-.518l.552.43A2.219,2.219,0,0,1-62.651.1Zm-.112-4.736a1.2,1.2,0,0,0-.918.4,1.934,1.934,0,0,0-.459,1.116h2.646v-.068a1.721,1.721,0,0,0-.371-1.067A1.134,1.134,0,0,0-62.764-4.639Zm8.247.166a2.707,2.707,0,0,0-.444-.034,1.19,1.19,0,0,0-1.206.757V0h-.9V-5.283h.879l.015.61a1.407,1.407,0,0,1,1.26-.708.923.923,0,0,1,.4.068ZM-51.587.1a2.308,2.308,0,0,1-1.748-.706A2.619,2.619,0,0,1-54.009-2.5v-.166a3.17,3.17,0,0,1,.3-1.4,2.343,2.343,0,0,1,.84-.967A2.112,2.112,0,0,1-51.7-5.381a1.979,1.979,0,0,1,1.6.679,2.939,2.939,0,0,1,.571,1.943v.376h-3.579a1.878,1.878,0,0,0,.457,1.262,1.435,1.435,0,0,0,1.111.481,1.573,1.573,0,0,0,.811-.2,2.037,2.037,0,0,0,.581-.518l.552.43A2.219,2.219,0,0,1-51.587.1ZM-51.7-4.639a1.2,1.2,0,0,0-.918.4,1.934,1.934,0,0,0-.459,1.116h2.646v-.068A1.721,1.721,0,0,0-50.8-4.26,1.134,1.134,0,0,0-51.7-4.639Zm5.337,4a1.3,1.3,0,0,0,.845-.293,1.031,1.031,0,0,0,.4-.732h.854a1.638,1.638,0,0,1-.312.864,2.058,2.058,0,0,1-.769.654A2.219,2.219,0,0,1-46.362.1a2.176,2.176,0,0,1-1.716-.72,2.869,2.869,0,0,1-.637-1.97v-.151a3.181,3.181,0,0,1,.283-1.372,2.157,2.157,0,0,1,.813-.933,2.309,2.309,0,0,1,1.252-.332,2.119,2.119,0,0,1,1.477.532,1.9,1.9,0,0,1,.627,1.382h-.854a1.245,1.245,0,0,0-.388-.842,1.208,1.208,0,0,0-.862-.33,1.264,1.264,0,0,0-1.067.5,2.328,2.328,0,0,0-.378,1.433v.171a2.281,2.281,0,0,0,.376,1.406A1.27,1.27,0,0,0-46.362-.64Zm6.377.117A1.919,1.919,0,0,1-41.533.1,1.642,1.642,0,0,1-42.82-.393a2.124,2.124,0,0,1-.447-1.453V-5.283h.9V-1.87q0,1.2.977,1.2A1.352,1.352,0,0,0-40.01-1.44V-5.283h.9V0h-.859Zm6.714-2.061A3.163,3.163,0,0,1-33.823-.64,1.768,1.768,0,0,1-35.317.1a1.938,1.938,0,0,1-1.514-.61V2.031h-.9V-5.283h.825l.044.586a1.861,1.861,0,0,1,1.533-.684,1.8,1.8,0,0,1,1.506.718,3.2,3.2,0,0,1,.554,2Zm-.9-.1A2.334,2.334,0,0,0-34.556-4.1,1.227,1.227,0,0,0-35.6-4.614a1.328,1.328,0,0,0-1.23.728v2.524a1.33,1.33,0,0,0,1.24.723,1.221,1.221,0,0,0,1.033-.515A2.548,2.548,0,0,0-34.175-2.686ZM-29.932.1A2.308,2.308,0,0,1-31.68-.608,2.619,2.619,0,0,1-32.354-2.5v-.166a3.17,3.17,0,0,1,.3-1.4,2.343,2.343,0,0,1,.84-.967,2.112,2.112,0,0,1,1.169-.349,1.979,1.979,0,0,1,1.6.679,2.939,2.939,0,0,1,.571,1.943v.376H-31.45a1.878,1.878,0,0,0,.457,1.262,1.435,1.435,0,0,0,1.111.481,1.573,1.573,0,0,0,.811-.2,2.037,2.037,0,0,0,.581-.518l.552.43A2.219,2.219,0,0,1-29.932.1Zm-.112-4.736a1.2,1.2,0,0,0-.918.4,1.934,1.934,0,0,0-.459,1.116h2.646v-.068a1.721,1.721,0,0,0-.371-1.067A1.134,1.134,0,0,0-30.044-4.639Zm5.771.166a2.707,2.707,0,0,0-.444-.034,1.19,1.19,0,0,0-1.206.757V0h-.9V-5.283h.879l.015.61a1.407,1.407,0,0,1,1.26-.708.923.923,0,0,1,.4.068ZM-20.376,0A1.9,1.9,0,0,1-20.5-.557a2.015,2.015,0,0,1-1.5.654,1.865,1.865,0,0,1-1.282-.442,1.43,1.43,0,0,1-.5-1.121,1.494,1.494,0,0,1,.627-1.282A2.958,2.958,0,0,1-21.4-3.2h.879v-.415a1.015,1.015,0,0,0-.283-.754,1.138,1.138,0,0,0-.835-.281,1.317,1.317,0,0,0-.811.244.719.719,0,0,0-.327.591h-.908a1.247,1.247,0,0,1,.281-.764,1.916,1.916,0,0,1,.762-.583,2.563,2.563,0,0,1,1.057-.215,2.089,2.089,0,0,1,1.431.457,1.647,1.647,0,0,1,.537,1.257v2.432a2.973,2.973,0,0,0,.186,1.157V0Zm-1.5-.688a1.588,1.588,0,0,0,.806-.22,1.329,1.329,0,0,0,.552-.571V-2.563h-.708q-1.66,0-1.66.972a.822.822,0,0,0,.283.664A1.089,1.089,0,0,0-21.875-.688Zm5.8.049a1.3,1.3,0,0,0,.845-.293,1.031,1.031,0,0,0,.4-.732h.854a1.638,1.638,0,0,1-.312.864,2.058,2.058,0,0,1-.769.654A2.219,2.219,0,0,1-16.079.1,2.176,2.176,0,0,1-17.8-.623a2.869,2.869,0,0,1-.637-1.97v-.151a3.181,3.181,0,0,1,.283-1.372,2.157,2.157,0,0,1,.813-.933,2.309,2.309,0,0,1,1.252-.332,2.119,2.119,0,0,1,1.477.532,1.9,1.9,0,0,1,.627,1.382h-.854a1.245,1.245,0,0,0-.388-.842,1.208,1.208,0,0,0-.862-.33,1.264,1.264,0,0,0-1.067.5,2.328,2.328,0,0,0-.378,1.433v.171a2.281,2.281,0,0,0,.376,1.406A1.27,1.27,0,0,0-16.079-.64Zm4.1.64h-.9V-5.283h.9Zm-.977-6.685a.539.539,0,0,1,.134-.371.5.5,0,0,1,.4-.151.512.512,0,0,1,.4.151.534.534,0,0,1,.137.371.516.516,0,0,1-.137.366.521.521,0,0,1-.4.146.513.513,0,0,1-.4-.146A.521.521,0,0,1-12.959-6.685Zm2.183,3.994a3.121,3.121,0,0,1,.305-1.4,2.277,2.277,0,0,1,.85-.957,2.313,2.313,0,0,1,1.243-.337,2.228,2.228,0,0,1,1.746.747,2.874,2.874,0,0,1,.667,1.987v.063a3.148,3.148,0,0,1-.3,1.384,2.243,2.243,0,0,1-.845.955A2.339,2.339,0,0,1-8.369.1,2.222,2.222,0,0,1-10.11-.649a2.86,2.86,0,0,1-.667-1.978Zm.908.107A2.26,2.26,0,0,0-9.46-1.172,1.3,1.3,0,0,0-8.369-.64a1.3,1.3,0,0,0,1.094-.54A2.472,2.472,0,0,0-6.87-2.69,2.256,2.256,0,0,0-7.283-4.1a1.312,1.312,0,0,0-1.1-.54,1.3,1.3,0,0,0-1.079.532A2.453,2.453,0,0,0-9.868-2.583Zm1.9-4.917h1.094L-8.184-6.064l-.728,0Zm3.989,2.217.029.664a1.925,1.925,0,0,1,1.582-.762q1.675,0,1.689,1.89V0h-.9V-3.5a1.216,1.216,0,0,0-.261-.845,1.047,1.047,0,0,0-.8-.273,1.3,1.3,0,0,0-.771.234,1.592,1.592,0,0,0-.518.615V0h-.9V-5.283Zm-59.556,16.6a3.1,3.1,0,0,1,.576-1.956,1.822,1.822,0,0,1,1.509-.74,1.832,1.832,0,0,1,1.47.635V6.5h.9V14h-.83l-.044-.566a1.84,1.84,0,0,1-1.509.664,1.8,1.8,0,0,1-1.5-.752,3.13,3.13,0,0,1-.579-1.963Zm.9.1a2.343,2.343,0,0,0,.371,1.406,1.2,1.2,0,0,0,1.025.508,1.318,1.318,0,0,0,1.255-.771V10.133a1.328,1.328,0,0,0-1.245-.747,1.205,1.205,0,0,0-1.035.513A2.58,2.58,0,0,0-62.632,11.417ZM-56.694,14h-.9V8.717h.9Zm-.977-6.685a.539.539,0,0,1,.134-.371.5.5,0,0,1,.4-.151.512.512,0,0,1,.4.151.534.534,0,0,1,.137.371.516.516,0,0,1-.137.366.521.521,0,0,1-.4.146.513.513,0,0,1-.4-.146A.521.521,0,0,1-57.671,7.315Zm3.271,1.4.024.586a1.951,1.951,0,0,1,1.567-.684,1.51,1.51,0,0,1,1.509.85,2,2,0,0,1,.686-.615,2.026,2.026,0,0,1,1-.234q1.738,0,1.768,1.841V14h-.9V10.514a1.213,1.213,0,0,0-.259-.847,1.14,1.14,0,0,0-.869-.281,1.2,1.2,0,0,0-.835.3,1.218,1.218,0,0,0-.386.808V14h-.908V10.538a1.008,1.008,0,0,0-1.128-1.152,1.209,1.209,0,0,0-1.216.757V14h-.9V8.717ZM-44.292,14.1a2.308,2.308,0,0,1-1.748-.706,2.619,2.619,0,0,1-.674-1.887v-.166a3.17,3.17,0,0,1,.3-1.4,2.343,2.343,0,0,1,.84-.967A2.112,2.112,0,0,1-44.4,8.619a1.979,1.979,0,0,1,1.6.679,2.939,2.939,0,0,1,.571,1.943v.376h-3.579a1.878,1.878,0,0,0,.457,1.262,1.435,1.435,0,0,0,1.111.481,1.573,1.573,0,0,0,.811-.2,2.037,2.037,0,0,0,.581-.518l.552.43A2.219,2.219,0,0,1-44.292,14.1ZM-44.4,9.361a1.2,1.2,0,0,0-.918.4,1.934,1.934,0,0,0-.459,1.116h2.646v-.068a1.721,1.721,0,0,0-.371-1.067A1.134,1.134,0,0,0-44.4,9.361Zm4.072-.645.029.664a1.925,1.925,0,0,1,1.582-.762q1.675,0,1.689,1.89V14h-.9V10.5a1.216,1.216,0,0,0-.261-.845,1.047,1.047,0,0,0-.8-.273,1.3,1.3,0,0,0-.771.234,1.592,1.592,0,0,0-.518.615V14h-.9V8.717Zm7.739,3.882a.665.665,0,0,0-.276-.569,2.655,2.655,0,0,0-.962-.349,4.548,4.548,0,0,1-1.089-.352,1.549,1.549,0,0,1-.6-.488,1.168,1.168,0,0,1-.193-.674,1.37,1.37,0,0,1,.549-1.1,2.145,2.145,0,0,1,1.4-.449,2.208,2.208,0,0,1,1.458.464,1.473,1.473,0,0,1,.559,1.187h-.908a.815.815,0,0,0-.315-.64,1.18,1.18,0,0,0-.793-.269,1.235,1.235,0,0,0-.771.215.676.676,0,0,0-.278.562.548.548,0,0,0,.259.493,3.184,3.184,0,0,0,.935.317,4.872,4.872,0,0,1,1.1.361,1.6,1.6,0,0,1,.623.505,1.243,1.243,0,0,1,.2.72,1.352,1.352,0,0,1-.566,1.135,2.376,2.376,0,0,1-1.47.427,2.66,2.66,0,0,1-1.123-.225,1.827,1.827,0,0,1-.764-.627,1.512,1.512,0,0,1-.276-.872h.9a.935.935,0,0,0,.364.72,1.411,1.411,0,0,0,.9.266,1.457,1.457,0,0,0,.823-.208A.638.638,0,0,0-32.593,12.6Zm3.062,1.4h-.9V8.717h.9Zm-.977-6.685a.539.539,0,0,1,.134-.371.5.5,0,0,1,.4-.151.512.512,0,0,1,.4.151.534.534,0,0,1,.137.371.516.516,0,0,1-.137.366.521.521,0,0,1-.4.146.513.513,0,0,1-.4-.146A.521.521,0,0,1-30.508,7.315Zm2.183,3.994a3.121,3.121,0,0,1,.305-1.4,2.277,2.277,0,0,1,.85-.957,2.313,2.313,0,0,1,1.243-.337,2.228,2.228,0,0,1,1.746.747,2.874,2.874,0,0,1,.667,1.987v.063a3.148,3.148,0,0,1-.3,1.384,2.243,2.243,0,0,1-.845.955,2.339,2.339,0,0,1-1.262.342,2.222,2.222,0,0,1-1.741-.747,2.86,2.86,0,0,1-.667-1.978Zm.908.107a2.26,2.26,0,0,0,.408,1.411,1.3,1.3,0,0,0,1.091.532,1.3,1.3,0,0,0,1.094-.54,2.472,2.472,0,0,0,.405-1.511A2.256,2.256,0,0,0-24.832,9.9a1.312,1.312,0,0,0-1.1-.54,1.3,1.3,0,0,0-1.079.532A2.453,2.453,0,0,0-27.417,11.417Zm5.889-2.7.029.664a1.925,1.925,0,0,1,1.582-.762q1.675,0,1.689,1.89V14h-.9V10.5a1.216,1.216,0,0,0-.261-.845,1.047,1.047,0,0,0-.8-.273,1.3,1.3,0,0,0-.771.234,1.592,1.592,0,0,0-.518.615V14h-.9V8.717ZM-13.6,14a1.9,1.9,0,0,1-.127-.557,2.015,2.015,0,0,1-1.5.654,1.865,1.865,0,0,1-1.282-.442,1.43,1.43,0,0,1-.5-1.121,1.494,1.494,0,0,1,.627-1.282,2.958,2.958,0,0,1,1.765-.457h.879v-.415a1.015,1.015,0,0,0-.283-.754,1.138,1.138,0,0,0-.835-.281,1.317,1.317,0,0,0-.811.244.719.719,0,0,0-.327.591h-.908a1.247,1.247,0,0,1,.281-.764,1.916,1.916,0,0,1,.762-.583,2.563,2.563,0,0,1,1.057-.215,2.089,2.089,0,0,1,1.431.457,1.647,1.647,0,0,1,.537,1.257v2.432a2.973,2.973,0,0,0,.186,1.157V14Zm-1.5-.688a1.588,1.588,0,0,0,.806-.22,1.329,1.329,0,0,0,.552-.571V11.437h-.708q-1.66,0-1.66.972a.822.822,0,0,0,.283.664A1.089,1.089,0,0,0-15.1,13.312Zm4.658.688h-.9V6.5h.9Zm5.649-1.323,1.23-3.96H-2.6l-2.124,6.1q-.493,1.318-1.567,1.318l-.171-.015-.337-.063v-.732l.244.02a1.2,1.2,0,0,0,.715-.186,1.343,1.343,0,0,0,.422-.679l.2-.537L-7.1,8.717h.986ZM-65.62,25.314a3.1,3.1,0,0,1,.576-1.956,1.822,1.822,0,0,1,1.509-.74,1.832,1.832,0,0,1,1.47.635V20.5h.9V28h-.83l-.044-.566a1.84,1.84,0,0,1-1.509.664,1.8,1.8,0,0,1-1.5-.752,3.13,3.13,0,0,1-.579-1.963Zm.9.1a2.343,2.343,0,0,0,.371,1.406,1.2,1.2,0,0,0,1.025.508,1.318,1.318,0,0,0,1.255-.771V24.133a1.328,1.328,0,0,0-1.245-.747,1.205,1.205,0,0,0-1.035.513A2.58,2.58,0,0,0-64.717,25.417Zm7.148,2.681a2.308,2.308,0,0,1-1.748-.706A2.619,2.619,0,0,1-59.99,25.5v-.166a3.17,3.17,0,0,1,.3-1.4,2.343,2.343,0,0,1,.84-.967,2.112,2.112,0,0,1,1.169-.349,1.979,1.979,0,0,1,1.6.679,2.939,2.939,0,0,1,.571,1.943v.376h-3.579a1.878,1.878,0,0,0,.457,1.262,1.435,1.435,0,0,0,1.111.481,1.573,1.573,0,0,0,.811-.2,2.037,2.037,0,0,0,.581-.518l.552.43A2.219,2.219,0,0,1-57.568,28.1Zm-.112-4.736a1.2,1.2,0,0,0-.918.4,1.934,1.934,0,0,0-.459,1.116h2.646v-.068a1.721,1.721,0,0,0-.371-1.067A1.134,1.134,0,0,0-57.681,23.361Zm8.247.166a2.707,2.707,0,0,0-.444-.034,1.19,1.19,0,0,0-1.206.757V28h-.9V22.717h.879l.015.61a1.407,1.407,0,0,1,1.26-.708.923.923,0,0,1,.4.068Zm2.93,4.57a2.308,2.308,0,0,1-1.748-.706,2.619,2.619,0,0,1-.674-1.887v-.166a3.17,3.17,0,0,1,.3-1.4,2.343,2.343,0,0,1,.84-.967,2.112,2.112,0,0,1,1.169-.349,1.979,1.979,0,0,1,1.6.679,2.939,2.939,0,0,1,.571,1.943v.376h-3.579a1.878,1.878,0,0,0,.457,1.262,1.435,1.435,0,0,0,1.111.481,1.573,1.573,0,0,0,.811-.2,2.037,2.037,0,0,0,.581-.518l.552.43A2.219,2.219,0,0,1-46.5,28.1Zm-.112-4.736a1.2,1.2,0,0,0-.918.4,1.934,1.934,0,0,0-.459,1.116h2.646v-.068a1.721,1.721,0,0,0-.371-1.067A1.134,1.134,0,0,0-46.616,23.361ZM-40.137,28a1.9,1.9,0,0,1-.127-.557,2.015,2.015,0,0,1-1.5.654,1.865,1.865,0,0,1-1.282-.442,1.43,1.43,0,0,1-.5-1.121,1.494,1.494,0,0,1,.627-1.282,2.958,2.958,0,0,1,1.765-.457h.879v-.415a1.015,1.015,0,0,0-.283-.754,1.138,1.138,0,0,0-.835-.281,1.317,1.317,0,0,0-.811.244.719.719,0,0,0-.327.591h-.908a1.247,1.247,0,0,1,.281-.764,1.916,1.916,0,0,1,.762-.583,2.563,2.563,0,0,1,1.057-.215,2.089,2.089,0,0,1,1.431.457,1.647,1.647,0,0,1,.537,1.257v2.432a2.973,2.973,0,0,0,.186,1.157V28Zm-1.5-.688a1.588,1.588,0,0,0,.806-.22,1.329,1.329,0,0,0,.552-.571V25.437h-.708q-1.66,0-1.66.972a.822.822,0,0,0,.283.664A1.089,1.089,0,0,0-41.636,27.312Zm8.149-1.895a3.141,3.141,0,0,1-.557,1.946,1.779,1.779,0,0,1-1.494.735,1.842,1.842,0,0,1-1.548-.708l-.044.61h-.83V20.5h.9v2.8a1.831,1.831,0,0,1,1.509-.679,1.789,1.789,0,0,1,1.511.728,3.236,3.236,0,0,1,.549,1.992Zm-.9-.1a2.441,2.441,0,0,0-.356-1.426,1.18,1.18,0,0,0-1.025-.5,1.326,1.326,0,0,0-1.284.83V26.5a1.363,1.363,0,0,0,1.294.83,1.173,1.173,0,0,0,1.011-.5A2.6,2.6,0,0,0-34.39,25.314Zm5.117,1.284a.665.665,0,0,0-.276-.569,2.655,2.655,0,0,0-.962-.349,4.548,4.548,0,0,1-1.089-.352,1.549,1.549,0,0,1-.6-.488,1.168,1.168,0,0,1-.193-.674,1.37,1.37,0,0,1,.549-1.1,2.145,2.145,0,0,1,1.4-.449,2.208,2.208,0,0,1,1.458.464,1.473,1.473,0,0,1,.559,1.187h-.908a.815.815,0,0,0-.315-.64,1.18,1.18,0,0,0-.793-.269,1.235,1.235,0,0,0-.771.215.676.676,0,0,0-.278.562.548.548,0,0,0,.259.493,3.184,3.184,0,0,0,.935.317,4.872,4.872,0,0,1,1.1.361,1.6,1.6,0,0,1,.623.505,1.243,1.243,0,0,1,.2.72,1.352,1.352,0,0,1-.566,1.135,2.376,2.376,0,0,1-1.47.427,2.66,2.66,0,0,1-1.123-.225,1.827,1.827,0,0,1-.764-.627,1.512,1.512,0,0,1-.276-.872h.9a.935.935,0,0,0,.364.72,1.411,1.411,0,0,0,.9.266,1.457,1.457,0,0,0,.823-.208A.638.638,0,0,0-29.272,26.6Zm1.841-1.289a3.121,3.121,0,0,1,.305-1.4,2.277,2.277,0,0,1,.85-.957,2.313,2.313,0,0,1,1.243-.337,2.228,2.228,0,0,1,1.746.747,2.874,2.874,0,0,1,.667,1.987v.063a3.148,3.148,0,0,1-.3,1.384,2.243,2.243,0,0,1-.845.955,2.339,2.339,0,0,1-1.262.342,2.222,2.222,0,0,1-1.741-.747,2.86,2.86,0,0,1-.667-1.978Zm.908.107a2.26,2.26,0,0,0,.408,1.411,1.3,1.3,0,0,0,1.091.532,1.3,1.3,0,0,0,1.094-.54,2.472,2.472,0,0,0,.405-1.511,2.256,2.256,0,0,0-.413-1.409,1.312,1.312,0,0,0-1.1-.54,1.3,1.3,0,0,0-1.079.532A2.453,2.453,0,0,0-26.523,25.417Zm7.588-1.89a2.707,2.707,0,0,0-.444-.034,1.19,1.19,0,0,0-1.206.757V28h-.9V22.717h.879l.015.61a1.407,1.407,0,0,1,1.26-.708.923.923,0,0,1,.4.068Zm2.856,3.833a1.3,1.3,0,0,0,.845-.293,1.031,1.031,0,0,0,.4-.732h.854a1.638,1.638,0,0,1-.312.864,2.058,2.058,0,0,1-.769.654,2.219,2.219,0,0,1-1.018.244,2.176,2.176,0,0,1-1.716-.72,2.869,2.869,0,0,1-.637-1.97v-.151a3.181,3.181,0,0,1,.283-1.372,2.157,2.157,0,0,1,.813-.933,2.309,2.309,0,0,1,1.252-.332,2.119,2.119,0,0,1,1.477.532,1.9,1.9,0,0,1,.627,1.382h-.854a1.245,1.245,0,0,0-.388-.842,1.208,1.208,0,0,0-.862-.33,1.264,1.264,0,0,0-1.067.5,2.328,2.328,0,0,0-.378,1.433v.171a2.281,2.281,0,0,0,.376,1.406A1.27,1.27,0,0,0-16.079,27.36Zm4.1.64h-.9V22.717h.9Zm-.977-6.685a.539.539,0,0,1,.134-.371.5.5,0,0,1,.4-.151.512.512,0,0,1,.4.151.534.534,0,0,1,.137.371.516.516,0,0,1-.137.366.521.521,0,0,1-.4.146.513.513,0,0,1-.4-.146A.521.521,0,0,1-12.959,21.315Zm2.183,3.994a3.121,3.121,0,0,1,.305-1.4,2.277,2.277,0,0,1,.85-.957,2.313,2.313,0,0,1,1.243-.337,2.228,2.228,0,0,1,1.746.747,2.874,2.874,0,0,1,.667,1.987v.063a3.148,3.148,0,0,1-.3,1.384,2.243,2.243,0,0,1-.845.955,2.339,2.339,0,0,1-1.262.342,2.222,2.222,0,0,1-1.741-.747,2.86,2.86,0,0,1-.667-1.978Zm.908.107a2.26,2.26,0,0,0,.408,1.411,1.3,1.3,0,0,0,1.091.532,1.3,1.3,0,0,0,1.094-.54A2.472,2.472,0,0,0-6.87,25.31,2.256,2.256,0,0,0-7.283,23.9a1.312,1.312,0,0,0-1.1-.54,1.3,1.3,0,0,0-1.079.532A2.453,2.453,0,0,0-9.868,25.417Zm1.9-4.917h1.094l-1.309,1.436-.728,0Zm3.989,2.217.029.664a1.925,1.925,0,0,1,1.582-.762q1.675,0,1.689,1.89V28h-.9V24.5a1.216,1.216,0,0,0-.261-.845,1.047,1.047,0,0,0-.8-.273,1.3,1.3,0,0,0-.771.234,1.592,1.592,0,0,0-.518.615V28h-.9V22.717Z" transform="translate(1022 5192)" fill="#12263f"/>
  </g>
</svg>
