<svg xmlns="http://www.w3.org/2000/svg" width="148" height="144" viewBox="0 0 148 144">
  <g id="Grupo_986878" data-name="Grupo 986878" transform="translate(8497 4936)">
    <g id="Rectángulo_344729" data-name="Rectángulo 344729" transform="translate(-8497 -4936)" fill="none" stroke="#ff6e33" stroke-width="3">
      <rect width="148" height="144" rx="16" stroke="none"/>
      <rect x="1.5" y="1.5" width="145" height="141" rx="14.5" fill="none"/>
    </g>
    <g id="rueda-de-color" transform="translate(-8477 -4923.883)">
      <path id="Trazado_731116" data-name="Trazado 731116" d="M223.856,64.986a38.854,38.854,0,0,0-.039,5.136c.07.846-.078,3.183.544,3.8a8.02,8.02,0,0,0,1.973.79,13.415,13.415,0,0,0,2.719.769,3.292,3.292,0,0,0,2.032-.286c.914-.435,1.145-1.372,1.66-2.252.9-1.537,1.422-3.26,2.339-4.79a19.88,19.88,0,0,0,1.845-4.143,42.712,42.712,0,0,1,1.5-4.694c.77-1.684,2.641-4.046,1.563-6-.606-1.1-2.164-1.11-3.345-1.224-.338-.032-.66-.1-.979-.162a4.134,4.134,0,0,0-.81.025,10.985,10.985,0,0,1-1.118-.037,13.756,13.756,0,0,0-1.55-.209c-.686,0-1.371-.023-2.056-.029a15.585,15.585,0,0,1-2.17-.059,17.793,17.793,0,0,0-1.957-.277,3.614,3.614,0,0,0-1.528.112c-.556.233-.527.793-.576,1.33-.121,1.312.067,2.627.077,3.939C224,59.479,224,62.235,223.856,64.986Z" transform="translate(-176.542 -34.271)" fill="#ff3535"/>
      <path id="Trazado_731117" data-name="Trazado 731117" d="M141.654,54.94a3.424,3.424,0,0,0,.436,2.522c.314.652.648,1.3.905,1.979.521,1.37,1.021,2.762,1.628,4.1.473,1.039.949,2.065,1.394,3.119q.306.726.578,1.461c.244.654.6,1.237.9,1.866.615,1.289,1.253,2.569,1.985,3.8a16.838,16.838,0,0,1,.942,1.626,1.664,1.664,0,0,0,1.289.964,6.99,6.99,0,0,0,2.645-.208c.858-.2,1.739-.3,2.6-.493a3.159,3.159,0,0,0,1.6-.8,2.74,2.74,0,0,0,.294-1.067c.129-.911-.03-1.872.037-2.792.115-1.574.343-3.136.377-4.718.025-1.2.035-2.395-.029-3.58-.068-1.279-.3-2.532-.408-3.807a26.8,26.8,0,0,1,.047-3.741c.028-.54.054-1.071.125-1.6.044-.327-.013-.855-.371-1.006a1.776,1.776,0,0,0-.642-.037c-.415,0-.818-.039-1.231-.069-.945-.069-1.885-.007-2.829-.042a25.934,25.934,0,0,0-3.385-.011c-1.329.122-2.585.317-3.9.567a21.791,21.791,0,0,0-3.122.85c-.326.114-.687.188-1,.317A1.466,1.466,0,0,0,141.654,54.94Z" transform="translate(-111.682 -35.082)" fill="#ff8225"/>
      <path id="Trazado_731118" data-name="Trazado 731118" d="M70.527,76.633c.024.22.295.377.456.517.378.328.644.752,1.021,1.082a33.136,33.136,0,0,1,2.5,2.393c.992,1.069,1.914,2.215,2.965,3.227.936.9,1.668,1.943,2.562,2.878.338.354.668.751,1.037,1.072.349.3.748.547,1.09.859.658.6,1.167,1.308,1.787,1.939a15.61,15.61,0,0,0,1.85,1.44,3.336,3.336,0,0,0,.569.4c.328.143.6-.037.9-.153a11.991,11.991,0,0,0,1.507-.678,18.9,18.9,0,0,0,2.1-1.107c.52-.371,1.1-.605,1.634-.952a7.258,7.258,0,0,0,1.007-.938A1.185,1.185,0,0,0,94,87.517a2.537,2.537,0,0,0-.377-.871c-.213-.4-.366-.835-.541-1.255a9.912,9.912,0,0,0-.968-1.621,9.668,9.668,0,0,1-.822-1.641c-.553-1.273-1.111-2.538-1.628-3.824-.388-.963-.623-2.029-.912-3.027A17.639,17.639,0,0,0,87.7,72.417c-.457-.938-1.06-1.789-1.466-2.749-.2-.471-.269-1.025-.489-1.477a3.09,3.09,0,0,0-.558-.931,2.1,2.1,0,0,0-1.362-.053,11.759,11.759,0,0,0-2.585,1.154c-2.141,1.169-4.38,2.232-6.431,3.56-.88.57-1.689,1.245-2.522,1.879a4.837,4.837,0,0,0-1.122,1.236,2.015,2.015,0,0,0-.289.482A2.369,2.369,0,0,1,70.527,76.633Z" transform="translate(-55.648 -46.741)" fill="#ffa100"/>
      <path id="Trazado_731119" data-name="Trazado 731119" d="M31.622,196.832l-.1-.051c-1.424-.683-2.9-1.254-4.371-1.824l-6.936-2.685-3.468-1.343a8.2,8.2,0,0,0-1.655-.6,3.4,3.4,0,0,1-1.181-.258,3.543,3.543,0,0,0-.785-.488,2.071,2.071,0,0,0-1.9.339,3.984,3.984,0,0,0-1.093,2.531C9.5,196.219,9.086,200.012,8.67,203.8a1.162,1.162,0,0,0,.2,1,1.046,1.046,0,0,0,.573.218,16.1,16.1,0,0,0,3.219-.04c5.409-.293,10.8,1.463,16.193.94a1.808,1.808,0,0,0,1.174-.422,1.886,1.886,0,0,0,.386-.9l1.569-6.75a1,1,0,0,0-.018-.731A.819.819,0,0,0,31.622,196.832Z" transform="translate(-6.823 -143.295)" fill="#71d182"/>
      <path id="Trazado_731120" data-name="Trazado 731120" d="M51.359,130.175c.42.507.9.923.648,1.624a7.509,7.509,0,0,1-1.062,1.665c-.592.838-1.016,1.777-1.53,2.662a8.889,8.889,0,0,1-2.131,2.407,1.653,1.653,0,0,1-.585.366,1.526,1.526,0,0,1-.742-.028,22,22,0,0,1-4.783-1.991,43.732,43.732,0,0,0-6.385-2.513,38.013,38.013,0,0,1-6.177-2.108,3.052,3.052,0,0,1-.913-.631,3.194,3.194,0,0,1-.282-2.987,31.353,31.353,0,0,1,3.248-7.08,16.3,16.3,0,0,1,3.089-4.207A4.719,4.719,0,0,1,35.8,116.1c.827-.136,1.528.726,2.093,1.2,3.04,2.574,6.075,5.162,8.916,7.957A65.881,65.881,0,0,1,51.359,130.175Z" transform="translate(-21.453 -85.375)" fill="#ffdc0f"/>
      <path id="Trazado_731121" data-name="Trazado 731121" d="M26.332,273.775a2,2,0,0,1-.08,1.006c-.248.55-.911.751-1.493.911a50.787,50.787,0,0,0-4.867,1.706l-13.8,5.369a1.366,1.366,0,0,1-1.209.071,1.288,1.288,0,0,1-.435-.649c-1.246-3.173-1.27-6.684-1.084-10.088a20.572,20.572,0,0,1,1.164-6.557,1.568,1.568,0,0,1,.281-.5,1.871,1.871,0,0,1,1.562-.3,36.7,36.7,0,0,0,5.112-.248,45.31,45.31,0,0,1,6.6.263c1.131.1,2.262.2,3.391.32a17.568,17.568,0,0,1,3.182.431,1.385,1.385,0,0,1,1.005,1.2c.2,1.028.216,2.116.312,3.158Q26.151,271.822,26.332,273.775Z" transform="translate(-2.586 -202.445)" fill="#00935f"/>
      <path id="Trazado_731122" data-name="Trazado 731122" d="M34.631,328.5c-1.086,1.13-1.976,2.434-3.016,3.608A36.968,36.968,0,0,1,27.64,335.8l-5.093,4.279a3,3,0,0,1-1.546.841c-.986.094-1.776-.769-2.347-1.578a55.383,55.383,0,0,1-4.761-8.705,19.634,19.634,0,0,1-1.782-5,2.127,2.127,0,0,1,.143-1.46,2.367,2.367,0,0,1,1.175-.815q2.3-.973,4.606-1.937c4.581-1.917,9.229-3.826,14.141-4.556a1.382,1.382,0,0,1,.724.025,1.338,1.338,0,0,1,.535.5c1.051,1.457,1.774,3.113,2.715,4.638a11.135,11.135,0,0,0,1.622,2.108c.3.3.709.523.43.958a6.412,6.412,0,0,1-1.038,1.061C36.326,326.945,35.429,327.672,34.631,328.5Z" transform="translate(-9.509 -243.77)" fill="#14ddf7"/>
      <path id="Trazado_731123" data-name="Trazado 731123" d="M81.205,362.743a2.68,2.68,0,0,1,1.2.975,2.514,2.514,0,0,1,.034,1.779c-1.193,4.864-4.235,9.049-6.1,13.7a24.925,24.925,0,0,1-2.246,4.979,1.257,1.257,0,0,1-.736.605,1.345,1.345,0,0,1-.738-.154l-4.66-1.951a65.046,65.046,0,0,1-6.674-3.1,13.436,13.436,0,0,1-3.444-2.558,2.942,2.942,0,0,1-.951-2.239,3.521,3.521,0,0,1,1.218-1.9q3.337-3.306,6.735-6.549a47.779,47.779,0,0,1,8.523-6.914,1.242,1.242,0,0,1,.706-.235,1.268,1.268,0,0,1,.5.193,10.987,10.987,0,0,0,1.647.889,10.082,10.082,0,0,1,1.427.607l1.794.945A9.723,9.723,0,0,1,81.205,362.743Z" transform="translate(-44.88 -277.184)" fill="#0087c3"/>
      <path id="Trazado_731124" data-name="Trazado 731124" d="M152.983,383.113a18.743,18.743,0,0,1,2.881.493,1.249,1.249,0,0,1,.878.531,1.289,1.289,0,0,1,.051.726,70.064,70.064,0,0,0-.5,11.4,80.21,80.21,0,0,1,.285,9.727,1.342,1.342,0,0,1-.431,1.06,1.359,1.359,0,0,1-.927.108c-4.993-.617-9.91-1.731-14.817-2.843a2.669,2.669,0,0,1-.774-.261,1.944,1.944,0,0,1-.7-.8,4.969,4.969,0,0,1-.034-3.986,23.4,23.4,0,0,1,1.958-3.6,26.409,26.409,0,0,0,1.616-3.248c.651-1.57,1.15-3.2,1.875-4.74a35.286,35.286,0,0,1,2.176-3.772,2.035,2.035,0,0,1,2.523-1.327l2.963.464C152.374,383.1,152.607,383.079,152.983,383.113Z" transform="translate(-109.273 -295.592)" fill="#008ee5"/>
      <path id="Trazado_731125" data-name="Trazado 731125" d="M232.938,383.339c3.435,5.46,4.427,12.112,7.356,17.86a2.6,2.6,0,0,1,.419,2.065c-.278.687-1.084.966-1.8,1.167-5.134,1.44-10.409,2.895-15.718,2.4a1.459,1.459,0,0,1-.68-.182c-.518-.342-.422-1.112-.308-1.723.066-.356.117-.714.155-1.074.259-2.414-.036-4.841.034-7.26a10.189,10.189,0,0,1,.137-1.775,8.855,8.855,0,0,0,.311-1,30.307,30.307,0,0,0-.415-3.524,12.376,12.376,0,0,1,.133-1.912,6.093,6.093,0,0,0,.147-1.772,2.52,2.52,0,0,1,.569-2.593,2.9,2.9,0,0,1,1.189-.5,33.862,33.862,0,0,1,3.648-.539c.614-.074,1.228-.156,1.836-.272s1.173-.345,1.765-.467C232.287,382.127,232.67,382.914,232.938,383.339Z" transform="translate(-175.259 -295.373)" fill="#857daf"/>
      <path id="Trazado_731126" data-name="Trazado 731126" d="M296.309,372.6a20.535,20.535,0,0,1,1.657,2.048,1.272,1.272,0,0,1,.273.659,1.369,1.369,0,0,1-.622.967c-4.056,3.452-8.3,6.895-13.336,8.623a1.536,1.536,0,0,1-1.337.02,1.562,1.562,0,0,1-.409-.479,31.933,31.933,0,0,1-3.626-6.789c-.421-1.233-.689-2.512-1.012-3.774a44.588,44.588,0,0,0-3.265-8.787,2.37,2.37,0,0,1-.348-1.153c.054-.944,1.136-1.409,2.019-1.747a15.743,15.743,0,0,0,4.458-2.622c.51-.427,1.2-1.115,1.936-.963.64.132,1.219.9,1.671,1.323,2.733,2.545,5.3,5.26,7.807,8.028C293.566,369.491,294.938,371.045,296.309,372.6Z" transform="translate(-216.418 -276.712)" fill="#954ea5"/>
      <path id="Trazado_731127" data-name="Trazado 731127" d="M330.759,317.263a82.21,82.21,0,0,1,10.089,4.135.77.77,0,0,1,.5,1.026,50.458,50.458,0,0,1-1.664,6.034c-.49,1.528-.981,3.057-1.524,4.567a10.031,10.031,0,0,1-1.128,2.4,8.51,8.51,0,0,1-4.056,2.818,3.4,3.4,0,0,1-1.29.294c-1.1-.03-1.921-.985-2.636-1.826-4.027-4.738-9.459-8.313-12.61-13.674a2.262,2.262,0,0,1-.373-.971,2.1,2.1,0,0,1,.347-1.136c1.174-2.087,3.217-3.676,3.758-6.1.106-.476.134-1.1.636-1.346a1.773,1.773,0,0,1,1.32.115c1.342.494,2.626,1.2,3.939,1.767Q328.392,316.368,330.759,317.263Z" transform="translate(-249.385 -241.057)" fill="#f3429e"/>
      <path id="Trazado_731128" data-name="Trazado 731128" d="M341.06,264.191c4.8-.225,9.617-.262,14.414-.593a8.879,8.879,0,0,1,2.695.079,2.862,2.862,0,0,1,2.052,1.6,3.894,3.894,0,0,1,.206,1.063,52.654,52.654,0,0,1,.118,5.444q-.045,3.512-.09,7.024a4.769,4.769,0,0,1-.558,2.66,1.378,1.378,0,0,1-.619.535,1.8,1.8,0,0,1-1.122-.053,30.569,30.569,0,0,1-5.671-2.617,55.161,55.161,0,0,0-10.249-4.11,9.983,9.983,0,0,1-2.005-.723,3,3,0,0,1-1.437-1.517,4.236,4.236,0,0,1-.193-1.384q-.051-2.153.066-4.306c.041-.759-.135-2.3.617-2.8A3.612,3.612,0,0,1,341.06,264.191Z" transform="translate(-267.154 -201.717)" fill="#a00056"/>
      <g id="Grupo_986877" data-name="Grupo 986877" transform="translate(41.593 34.271)">
        <path id="Trazado_731129" data-name="Trazado 731129" d="M247.6,134.381a4.746,4.746,0,0,1,1.166,3.2c.181,1.918.358,4.021,1.708,5.4a8.258,8.258,0,0,0,2.493,1.535c.614.286,1.335.778,1.2,1.443a1.57,1.57,0,0,1-.614.811c-4.606,3.9-8.638,8.431-12.962,12.645a14.436,14.436,0,0,1-3.76,2.895,5.273,5.273,0,0,1-4.6.144,12.5,12.5,0,0,0-2.081-1.179c-1.419-.416-2.865.522-3.951,1.526a10.03,10.03,0,0,1-2.153,1.73,2.564,2.564,0,0,1-2.631-.035,2.668,2.668,0,0,1-.373-3.375,14.82,14.82,0,0,1,2.475-2.749,10.88,10.88,0,0,0,2.774-5.393c.155-.8.219-1.62.407-2.414.624-2.632,2.533-4.741,4.373-6.725,2.157-2.326,4.317-4.654,6.623-6.834,1.045-.988,2.127-1.938,3.195-2.9a3.512,3.512,0,0,1,2.3-1.132A7.015,7.015,0,0,1,247.6,134.381Z" transform="translate(-215.675 -132.963)" fill="#71d182"/>
        <path id="Trazado_731130" data-name="Trazado 731130" d="M197.83,308.671a24.668,24.668,0,0,0-.615,2.5,2.2,2.2,0,0,0-.006.993,2.258,2.258,0,0,0,1.117,1.165,4.359,4.359,0,0,0,2.578.8,3.358,3.358,0,0,0,2.711-2.734,8.109,8.109,0,0,0-.424-4.051,30.322,30.322,0,0,0-1.533-3.982c-.384-.821-.957-1.514-1.922-1.1a1.489,1.489,0,0,0-.959,1.245c-.1.639.018,1.3-.078,1.948A26.485,26.485,0,0,1,197.83,308.671Z" transform="translate(-197.154 -266.444)" fill="#71d182"/>
      </g>
      <path id="Trazado_731131" data-name="Trazado 731131" d="M328.745,96.9a9.62,9.62,0,0,0,1.4-1.427,4.08,4.08,0,0,1,1.121-1.284,1.885,1.885,0,0,1,1.707.032,4.66,4.66,0,0,1,1.362,1.121c1.98,2.173,3.448,4.809,5.657,6.748a12.948,12.948,0,0,1,1.716,1.6,5.34,5.34,0,0,1,.973,3.959,3.643,3.643,0,0,1-.526,1.582,4.939,4.939,0,0,1-.778.845l-2.2,2.04a30.17,30.17,0,0,1-3.284,2.771,1.166,1.166,0,0,1-.563.251,1.182,1.182,0,0,1-.549-.144,26.428,26.428,0,0,1-4.928-2.9,2.43,2.43,0,0,1-.614-.587,2.539,2.539,0,0,1-.3-.836,20.16,20.16,0,0,1-.69-4.667,2.41,2.41,0,0,0-.1-.94,2.138,2.138,0,0,0-.594-.729,4.208,4.208,0,0,0-2.775-1.432c-.51.019-2.448,1.022-2.752.4-.251-.512.984-1.325,1.286-1.59C325.137,100.12,326.937,98.5,328.745,96.9Z" transform="translate(-254.069 -67.946)" fill="#f4f4f4"/>
      <path id="Trazado_731132" data-name="Trazado 731132" d="M373.5,73.266a20.331,20.331,0,0,1,5.486,6.009,30.821,30.821,0,0,1,2.351,5.787,4.543,4.543,0,0,1,.328,1.824,1.559,1.559,0,0,1-1.049,1.4,2.308,2.308,0,0,1-1.551-.374,10.383,10.383,0,0,1-2.777-1.827,15.469,15.469,0,0,1-1.557-2.126c-1.424-2.069-3.328-3.772-4.758-5.837a20.781,20.781,0,0,0-2.333-3.213,23.572,23.572,0,0,1-1.949-1.781c-1.176-1.439-1.241-4.653,1.334-3.727A26.261,26.261,0,0,1,373.5,73.266Z" transform="translate(-287.924 -48.411)" fill="#bdbdb5"/>
      <path id="Trazado_731133" data-name="Trazado 731133" d="M412.342,15.77a7.9,7.9,0,0,1,2.2.389,7.589,7.589,0,0,1,2.81,2.267,8.349,8.349,0,0,1,1.839,2.808,8.485,8.485,0,0,1,.271,2.829,17.551,17.551,0,0,1-.715,5.337,5.27,5.27,0,0,1-1.224,2.1c-1.593,1.556-4.162,1.335-6.241,2.131-2.21.846-3.763,2.8-5.558,4.342a.866.866,0,0,1-.457.25c-.314.029-.551-.265-.737-.52a13.744,13.744,0,0,0-1.871-2.046c-.873-.793-1.819-1.5-2.669-2.321a29.028,29.028,0,0,1-3.056-3.665.463.463,0,0,1-.131-.343.437.437,0,0,1,.141-.213c1.6-1.576,4.379-1.85,5.414-3.842A8.076,8.076,0,0,0,402.947,23a12.594,12.594,0,0,1,2.992-6.031C407.511,15.215,410.178,15.6,412.342,15.77Z" transform="translate(-313.09 -6.098)" fill="#777973"/>
      <path id="Trazado_731134" data-name="Trazado 731134" d="M94.158,92.631a3.045,3.045,0,0,0-2.317-1.261,18.307,18.307,0,0,0-4.218.426c-1.707.186-3.437.213-5.152.244-3.329.06-6.663-.013-9.984.281-3.045.27-1.738,3.694-1.833,5.832a20.906,20.906,0,0,1-1.8,7.6c-4.546,10.16-17.57,12.681-27.525,10.708-5.185-1.027-9.91-2.971-13.129-7.405A21.622,21.622,0,0,1,24.169,93.8c.588-5.638,3.082-12.261,7.29-16.223C37.637,71.757,47.3,70.173,55.2,73a.454.454,0,0,0,.269.038.448.448,0,0,0,.218-.187c1.708-2.3,2.5-5.052,3.5-7.7,1.172-3.1,2.217-6.249,3.38-9.354.6-1.6,2.412-4.175,1.908-5.964-.491-1.742-3.093-1.816-4.655-2.183-3.919-.921-8.352-1.738-12.424-1.2-4.072-.535-8.5.282-12.424,1.2a42.076,42.076,0,0,0-13.733,5.407C12.882,58.458,6.281,67.523,3.089,76.9a65.3,65.3,0,0,0-2.8,15.522c-.026.309-.046.618-.069.927-.009.019-.013.036-.022.055H.22a69.784,69.784,0,0,0,.339,14.454A36.89,36.89,0,0,0,5.4,122.748a38.31,38.31,0,0,0,10.759,10.976,42.9,42.9,0,0,0,15.161,6.72,81.6,81.6,0,0,0,17.036,2.421c5.131.091,10.129-1.258,15.116-2.421a42.9,42.9,0,0,0,15.161-6.72A38.315,38.315,0,0,0,89.4,122.748a36.89,36.89,0,0,0,4.846-14.89,66.282,66.282,0,0,0,.551-9.989C94.764,96.086,95.051,93.966,94.158,92.631ZM47.774,48.655a59.125,59.125,0,0,1,13.042,1.607c.746.173,1.478.37,2.2.581-.642,1.454-1.27,2.915-1.85,4.4-1.6,4.089-2.947,8.265-4.653,12.312q-.668,1.583-1.329,3.17a24.758,24.758,0,0,0-7.137-1.088c.019-1.107.038-2.214.062-3.32.1-4.542-.228-9.073-.323-13.613C47.761,51.353,47.763,50,47.774,48.655ZM33.986,50.262a59.572,59.572,0,0,1,12.355-1.6c-.043,1.344-.07,2.688-.061,4.037.031,4.39.322,8.769.234,13.16q-.038,1.895-.068,3.791a30.932,30.932,0,0,0-7.41,1.175q-.567-1.441-1.131-2.882c-1.648-4.234-3.685-8.294-5.51-12.452-.624-1.422-1.211-2.858-1.791-4.3Q32.261,50.662,33.986,50.262ZM19.6,57.1a32.882,32.882,0,0,1,9.655-5.447c.551,1.481,1.124,2.955,1.742,4.416,1.709,4.043,3.655,7.977,5.255,12.067q.623,1.592,1.251,3.183a20.229,20.229,0,0,0-5.278,2.744c-.471.351-.921.727-1.358,1.116q-.881-.914-1.76-1.829c-3.142-3.282-6.577-6.254-9.854-9.4-1.157-1.109-2.282-2.249-3.4-3.394A44.036,44.036,0,0,1,19.6,57.1ZM14.89,61.6c1.078,1.161,2.169,2.311,3.3,3.427C21.316,68.1,24.618,71,27.661,74.162q1.023,1.064,2.049,2.125a26.006,26.006,0,0,0-4.618,6.678Q24,82.5,22.9,82.044C18.72,80.27,14.39,78.9,10.138,77.3c-1.365-.511-2.716-1.055-4.063-1.607A46.512,46.512,0,0,1,14.89,61.6ZM4.277,81.332a42.026,42.026,0,0,1,1.3-4.3c1.324.58,2.654,1.148,4,1.676,4.089,1.6,8.265,2.947,12.312,4.653q1.263.533,2.528,1.061a34.229,34.229,0,0,0-1.44,4.049,30.326,30.326,0,0,0-.814,3.7c-.383,0-.766-.01-1.148-.011-6.131-.018-12.265-.318-18.4-.533A69.62,69.62,0,0,1,4.277,81.332Zm-1.79,12.1c1.595.018,3.189.028,4.775.046,4.428.049,8.852.292,13.281.318.47,0,.941.011,1.412.016a24.7,24.7,0,0,0,.6,8.464C16.166,104.9,9.643,107.2,3.188,109.648A77.423,77.423,0,0,1,2.487,93.437ZM3.5,111.509c2.377-.905,4.729-1.881,7.076-2.824,4.11-1.65,8.289-3.12,12.39-4.792l.056-.023c.223.663.477,1.319.767,1.965a23.308,23.308,0,0,0,3.654,5.717c-5.184,5.1-10.625,9.947-15.89,14.961A30,30,0,0,1,3.5,111.509Zm17.57,22.365a43.727,43.727,0,0,1-8.215-6.067c2.252-2.063,4.413-4.234,6.586-6.359,3-2.938,6.124-5.754,9.126-8.693a19.937,19.937,0,0,0,6.728,4.432c.4.158.819.306,1.238.449-2.644,6.494-5.6,12.866-8.373,19.306A36.579,36.579,0,0,1,21.066,133.874Zm24.805,6.263a56.206,56.206,0,0,1-12.515-1.714c-1.159-.3-2.3-.605-3.424-.934,1.077-2.464,2.071-4.968,3.089-7.442,1.644-4,3.454-7.921,5.087-11.922a35.686,35.686,0,0,0,8.382,1.271C46.45,126.31,46.072,133.226,45.871,140.137Zm15.576-1.714a56.5,56.5,0,0,1-13.724,1.732c.071-2.516.07-5.038.1-7.541.049-4.4.288-8.8.316-13.2a33.417,33.417,0,0,0,8.822-1.246c2.6,6.432,4.907,12.99,7.389,19.469C63.392,137.912,62.427,138.171,61.447,138.423Zm12.29-4.549a37.4,37.4,0,0,1-7.619,3.24c-.979-2.627-2.057-5.221-3.1-7.81-1.549-3.859-2.946-7.778-4.494-11.637a22.233,22.233,0,0,0,7.9-4.67c4.985,5.1,9.748,10.429,14.672,15.587A44.324,44.324,0,0,1,73.737,133.874Zm8.694-6.529c-2.147-2.367-4.421-4.63-6.646-6.9-2.774-2.836-5.443-5.774-8.206-8.621.053-.06.109-.116.162-.176a20.631,20.631,0,0,0,4.318-8.261c6.46,2.633,12.8,5.574,19.207,8.332A30.4,30.4,0,0,1,82.43,127.345Zm9.156-17.506c-2.386-1.036-4.809-2-7.2-2.982-4.007-1.649-7.943-3.465-11.956-5.1a25.912,25.912,0,0,0,.228-8l.9.018c4.543.1,9.073-.228,13.613-.323,1.715-.036,3.428-.024,5.142,0A77.383,77.383,0,0,1,91.587,109.838Z" transform="translate(0 -30.297)"/>
      <path id="Trazado_731135" data-name="Trazado 731135" d="M274.36,10.555c-3.4-3-8.442-3.752-12.153-.808a7.652,7.652,0,0,0-3.056,5.634c-.178,2.309-.371,3.984-2.378,5.451a23.765,23.765,0,0,1-2.9,1.517c-.515-.347-1.043-.68-1.592-.988-1.528-.859-3.508-2.135-5.363-1.371-2.734,1.126-1.476,3.658.358,5.888-.836.775-1.894,1.42-2.748,2.152-1.117.956-2.264,1.876-3.351,2.867-2.595,2.369-5.162,4.748-7.811,7.056-2.123,1.849-4.212,3.775-6.255,5.712-1.919,1.819-4.618,3.951-5.434,6.591-.789,2.554,1.112,4.913-.651,7.236-1.441,1.9-4.159,2.666-4.92,5.168-1.331,4.379,3.5,5.825,6.26,3.054.8-.8,1.351-1.9,2.415-2.432,1.939-.966,2.974.755,4.413,1.657,1.8,1.127,3.176.289,4.742-.805,4.552-3.182,8.2-7.524,12.328-11.218,2.044-1.828,4.173-3.6,6.292-5.343,2.313-1.905,5.641-4.105,7.132-6.757a4.272,4.272,0,0,0,.393-.931c1.888,1.235,4.152,1.663,5.305-.489,1.006-1.878-.271-4.029-1.147-5.678-.164-.309-.335-.613-.51-.914a1.132,1.132,0,0,0,.094-.16c1.435-3.11,4.808-3.395,7.647-4.358a9.959,9.959,0,0,0,5.391-3.716C279.78,20.154,278.128,13.877,274.36,10.555ZM238.017,58c-1.745,1.622-3.787,4.317-6.069,5.178-2.442.921-4.091-2.548-6.679-2.08a5.911,5.911,0,0,0-2.707,1.675,17.715,17.715,0,0,1-3.239,2.589,1.458,1.458,0,0,1-.835.289c-1.154-.1-.726-1.913-.426-2.569a6.588,6.588,0,0,1,2.328-2.36,10.963,10.963,0,0,0,3.216-2.989,4.53,4.53,0,0,0,.523-2.785c-.234-2.529-1.01-3.824.867-6.046a96.309,96.309,0,0,1,8.2-7.91c1.842-1.719,3.728-3.386,5.587-5.086,1.925-.538,4.016-.929,5.092,1.293.793,1.638.045,3.87.616,5.649a6.7,6.7,0,0,0,5.253,4.475C245.755,50.8,241.913,54.378,238.017,58ZM256.54,41.293c-1.274,1.311-2.662,2.507-4.058,3.682-.373.314-.742.631-1.112.948a.97.97,0,0,0-.4-.273c-2.724-1.02-4.949-1.781-5.309-5.091-.168-1.542.1-3.368-.867-4.715a4.06,4.06,0,0,0-4.213-1.611c.238-.225.48-.446.716-.673,1.483-1.43,3-2.847,4.426-4.335.774-.807,1.661-1.537,2.385-2.392,1.139,1.242,2.305,2.293,2.8,2.8a70.326,70.326,0,0,1,5.611,6.528c.277.366.666.739.961,1.125q.106.174.23.35c.007.012.017.024.024.036C258.706,39.505,257.574,40.228,256.54,41.293Zm6.884-2.594c-.688.53-2.391-.457-3.58-1.444a6.95,6.95,0,0,0-.66-1.159,57.946,57.946,0,0,0-5.22-6.2c-1.75-1.9-3.774-3.584-5.36-5.618-.588-.753-1.354-2.091.3-2.415.723-.142,1.6.564,2.2.886a21.513,21.513,0,0,1,4.5,3.211,34.213,34.213,0,0,1,6.242,7.417C262.362,34.254,264.693,37.72,263.424,38.7Zm8.9-12.934c-2.164,1-4.783.943-6.841,2.118a9.825,9.825,0,0,0-3.025,2.921,31.455,31.455,0,0,0-3.636-4.292,38.608,38.608,0,0,0-3.5-3.116,4.447,4.447,0,0,0,2.474-.827,7.084,7.084,0,0,0,3.3-4.023,16.29,16.29,0,0,0,.232-3.166,5.536,5.536,0,0,1,2.29-4.038,7.22,7.22,0,0,1,7.922-.442C276.839,13.776,278.529,22.9,272.32,25.765Z" transform="translate(-170.336 0)"/>
      <path id="Trazado_731136" data-name="Trazado 731136" d="M192.175,302.537c-.487,2.8.444,5.89,3.539,6.575a4.14,4.14,0,0,0,5.253-4.187,20.144,20.144,0,0,0-1.306-5.189c-.519-1.551-1.041-3.574-2.311-4.674a.878.878,0,0,0-.214-.134.774.774,0,0,0-1.153.129C194.613,296.934,192.665,299.72,192.175,302.537Zm4.217-5.256c.6,1.585,1.3,3.129,1.754,4.781a10.443,10.443,0,0,1,.58,2.529c0,3.313-3.782,3.114-4.529.522C193.474,302.6,195.021,299.648,196.393,297.281Z" transform="translate(-151.537 -226.329)"/>
    </g>
  </g>
</svg>
