<svg xmlns="http://www.w3.org/2000/svg" width="321.892" height="49.276" viewBox="0 0 321.892 49.276">
  <g id="Grupo_987039" data-name="Grupo 987039" transform="translate(-386.608 -6827.461)">
    <line id="Línea_166" data-name="Línea 166" x2="196.119" transform="translate(512.381 6854.142)" fill="none" stroke="#9f0925" stroke-width="1"/>
    <path id="Trazado_732483" data-name="Trazado 732483" d="M8.766,8.308a2.839,2.839,0,0,1,.776-2.024,2.712,2.712,0,0,1,2.071-.823,2.72,2.72,0,0,1,2.071.818,2.835,2.835,0,0,1,.776,2.029v.728a2.816,2.816,0,0,1-.771,2.015,2.7,2.7,0,0,1-2.057.813,2.755,2.755,0,0,1-2.085-.813,2.8,2.8,0,0,1-.78-2.015Zm1.381.728a1.861,1.861,0,0,0,.383,1.187,1.319,1.319,0,0,0,1.1.487,1.28,1.28,0,0,0,1.069-.482,1.872,1.872,0,0,0,.378-1.192V8.308a1.9,1.9,0,0,0-.383-1.2,1.288,1.288,0,0,0-1.083-.5,1.285,1.285,0,0,0-1.088.5,1.916,1.916,0,0,0-.378,1.2Zm5.287,7.018a2.823,2.823,0,0,1,.776-2.019,2.72,2.72,0,0,1,2.071-.818,2.723,2.723,0,0,1,2.067.818,2.813,2.813,0,0,1,.78,2.019v.738a2.819,2.819,0,0,1-.776,2.024,2.7,2.7,0,0,1-2.052.813,2.755,2.755,0,0,1-2.085-.813,2.809,2.809,0,0,1-.78-2.024Zm1.381.738a1.876,1.876,0,0,0,.383,1.2,1.319,1.319,0,0,0,1.1.487,1.275,1.275,0,0,0,1.069-.487,1.891,1.891,0,0,0,.378-1.2v-.738a1.865,1.865,0,0,0-.388-1.192,1.433,1.433,0,0,0-2.161,0,1.881,1.881,0,0,0-.383,1.192Zm-4.7,1.6-1.031-.634L17.807,6.993l1.031.634Zm17.39-7.5h-.31a.874.874,0,0,1-.581.387c-.562,0-.949-.387-1.782-.387a2,2,0,0,0-2.208,2.073c0,1.9,2.518,2.867,2.518,4.455,0,.755-.271,1.724-1.414,1.724-1.22,0-2.014-1.3-2.014-2.518H23.4l-.484,3.022h.329c.232-.329.407-.407.581-.407a20.09,20.09,0,0,0,2.131.387A2.458,2.458,0,0,0,28.574,17.2c0-1.84-2.6-3.622-2.6-4.687a1,1,0,0,1,.988-1.123c1.085,0,1.782,1.085,1.782,2.324h.291Zm5.869,1.375-.058-.039.349-1.337-3.06.465.039.31a2.616,2.616,0,0,1,.542-.077c.581,0,.6.271.6.639l-2.266,8.988c-.232.891-.368,1.472-1.569,1.53l-.058.232h4.533l.058-.232h-.31c-.968,0-1.182-.407-1.182-.833a3.006,3.006,0,0,1,.1-.678l.465-1.937a1.725,1.725,0,0,0,1.182.368c2.789,0,4.92-3.273,4.92-5.772,0-1.956-.639-3-1.821-3a3.418,3.418,0,0,0-2.189,1.123Zm-.755,2.557c.387-1.666,1.395-2.847,2.421-2.847.446,0,.988.387.988,1.608,0,2.169-1.453,5.52-3.409,5.52a1.235,1.235,0,0,1-.891-.407Zm18.246,2.537c-.368.717-.872,1.027-1.2,1.027-.174,0-.291-.077-.291-.232a.972.972,0,0,1,.039-.232l1.182-4.474a4.6,4.6,0,0,0,.136-1.182c0-.872-.349-1.375-1.046-1.375a2.058,2.058,0,0,0-1.182.426,9.119,9.119,0,0,0-2.518,2.847h-.1l.194-.7a3.339,3.339,0,0,0,.174-1.007c0-.852-.349-1.569-1.065-1.569-.736,0-1.9.5-3.719,3.273h-.116l.852-3.273-3.041.465.039.271a4.749,4.749,0,0,1,.523-.039c.523,0,.639.252.639.6l-1.84,7.244h1.511l.678-2.615c.31-1.182,2.441-4.687,3.448-4.687.349,0,.446.349.446.736a3.812,3.812,0,0,1-.1.775L45.019,19.43h1.53l.659-2.615c.291-1.182,2.421-4.687,3.467-4.687.349,0,.465.349.465.736a2.412,2.412,0,0,1-.116.775l-1.085,4.281a2.953,2.953,0,0,0-.116.717c0,.755.329.949.755.949.91,0,1.918-.968,2.537-2.014ZM61.9,19.43H60.034V17.52H61.9Zm6.7-7.167-.058-.039.349-1.337-3.06.465.039.31a2.616,2.616,0,0,1,.542-.077c.581,0,.6.271.6.639L64.74,21.212c-.232.891-.368,1.472-1.569,1.53l-.058.232h4.533l.058-.232h-.31c-.968,0-1.182-.407-1.182-.833a3.006,3.006,0,0,1,.1-.678l.465-1.937a1.725,1.725,0,0,0,1.182.368c2.789,0,4.92-3.273,4.92-5.772,0-1.956-.639-3-1.821-3a3.418,3.418,0,0,0-2.189,1.123Zm-.755,2.557c.387-1.666,1.395-2.847,2.421-2.847.446,0,.988.387.988,1.608,0,2.169-1.453,5.52-3.409,5.52a1.235,1.235,0,0,1-.891-.407ZM80.2,17.261a3.09,3.09,0,0,1-2.441,1.24,2.09,2.09,0,0,1-2.189-2.073v-.542c2.3-.116,5.54-1.065,5.54-3.525,0-1.2-1.162-1.472-1.976-1.472-2.46,0-4.591,2.421-5.075,4.571a4.737,4.737,0,0,0-.116,1.162,2.735,2.735,0,0,0,2.654,3.022,4.858,4.858,0,0,0,3.874-2.131Zm-4.629-1.918c.562-1.646,1.724-3.874,3.157-3.874a.82.82,0,0,1,.852.833c0,1.7-1.821,3.041-3.835,3.041ZM89.34,10.888h-.31a.874.874,0,0,1-.581.387c-.562,0-.949-.387-1.782-.387a2,2,0,0,0-2.208,2.073c0,1.9,2.518,2.867,2.518,4.455,0,.755-.271,1.724-1.414,1.724-1.22,0-2.014-1.3-2.014-2.518h-.31l-.484,3.022h.329c.232-.329.407-.407.581-.407a20.09,20.09,0,0,0,2.131.387A2.458,2.458,0,0,0,88.41,17.2c0-1.84-2.6-3.622-2.6-4.687a1,1,0,0,1,.988-1.123c1.085,0,1.782,1.085,1.782,2.324h.291Zm9.452,2.983a2.681,2.681,0,0,0-2.847-2.983c-2.867,0-4.862,3.119-4.862,5.6,0,1.414.659,3.157,2.615,3.157C96.661,19.643,98.792,16.564,98.792,13.871Zm-1.569-.6c0,1.472-1.375,5.792-3.428,5.792-1.085,0-1.143-1.433-1.143-2.073,0-2.634,1.685-5.52,3.273-5.52C96.952,11.469,97.223,12.535,97.223,13.271ZM114.2,6.491l-3.022.465.077.291a3.917,3.917,0,0,1,.523-.058c.5,0,.639.136.639.387a.972.972,0,0,1-.039.232l-1.027,4.048h-.039c-.019-.465-.465-.968-1.569-.968-2.983,0-4.978,4.319-4.978,6.315,0,1.027.291,2.46,1.7,2.46.717,0,1.879-.232,3.312-2.034h.1a4.213,4.213,0,0,0-.194,1.24.72.72,0,0,0,.775.794c.91,0,1.937-1.162,2.518-2.034l-.213-.232c-.271.407-.814,1.085-1.2,1.085q-.291,0-.291-.174a.973.973,0,0,1,.039-.232Zm-3.177,6.353a7.117,7.117,0,0,1-.31,2.034c-.542,1.782-1.821,3.6-3.177,3.6-.542,0-1.085-.329-1.085-1.278,0-1.859,1.569-5.733,3.487-5.733C110.734,11.469,111.025,11.934,111.025,12.845Zm10.3,4.416a3.09,3.09,0,0,1-2.441,1.24,2.09,2.09,0,0,1-2.189-2.073v-.542c2.305-.116,5.54-1.065,5.54-3.525,0-1.2-1.162-1.472-1.976-1.472-2.46,0-4.591,2.421-5.075,4.571a4.737,4.737,0,0,0-.116,1.162,2.735,2.735,0,0,0,2.654,3.022,4.858,4.858,0,0,0,3.874-2.131ZM116.7,15.343c.562-1.646,1.724-3.874,3.157-3.874a.82.82,0,0,1,.852.833c0,1.7-1.821,3.041-3.835,3.041Zm11.6-8.852-3.041.446.058.291c.155-.019.387-.058.523-.058.445,0,.6.194.6.426a1.961,1.961,0,0,1-.058.465l-2.479,9.879a2.625,2.625,0,0,0-.116.7c0,.484.174.988.755.988,1.123,0,1.956-1.278,2.615-2.053l-.31-.232c-.174.31-.755,1.065-1.2,1.065a.229.229,0,0,1-.232-.252.968.968,0,0,1,.019-.213Zm13.143,4.4h-.31a.874.874,0,0,1-.581.387c-.562,0-.949-.387-1.782-.387a2,2,0,0,0-2.208,2.073c0,1.9,2.518,2.867,2.518,4.455,0,.755-.271,1.724-1.414,1.724-1.22,0-2.014-1.3-2.014-2.518h-.31l-.484,3.022h.329c.232-.329.407-.407.581-.407a20.09,20.09,0,0,0,2.131.387,2.458,2.458,0,0,0,2.615-2.421c0-1.84-2.6-3.622-2.6-4.687a1,1,0,0,1,.988-1.123c1.085,0,1.782,1.085,1.782,2.324h.291Zm9.569.252h-1.491l-.407,1.453A14.037,14.037,0,0,1,147,16.835c-.678.891-1.453,1.491-1.937,1.491-.349,0-.5-.252-.5-.659a2.035,2.035,0,0,1,.058-.465l1.627-6.315-3.041.5.058.291a2.233,2.233,0,0,1,.5-.058c.426,0,.639.213.639.446a2.863,2.863,0,0,1-.116.484l-1.143,4.474A4.4,4.4,0,0,0,143,18.171c0,.736.271,1.433,1.182,1.433a2.481,2.481,0,0,0,1.395-.542,32.847,32.847,0,0,0,2.654-3.022h.019l-.5,1.84a3.357,3.357,0,0,0-.077.717c0,.639.213,1.007.775,1.007,1.123,0,2.111-1.433,2.557-2.073l-.252-.213-.1.116c-.329.387-.7.891-1.1.891a.245.245,0,0,1-.271-.271.6.6,0,0,1,.019-.174Zm8.135-.252h-.31a.874.874,0,0,1-.581.387c-.562,0-.949-.387-1.782-.387a2,2,0,0,0-2.208,2.073c0,1.9,2.518,2.867,2.518,4.455,0,.755-.271,1.724-1.414,1.724-1.22,0-2.014-1.3-2.014-2.518h-.31l-.484,3.022h.329c.232-.329.407-.407.581-.407a20.092,20.092,0,0,0,2.131.387A2.458,2.458,0,0,0,158.22,17.2c0-1.84-2.6-3.622-2.6-4.687a1,1,0,0,1,.988-1.123c1.085,0,1.782,1.085,1.782,2.324h.291Zm6.45.058h-1.356l.6-2.5h-.252a4.416,4.416,0,0,1-3.428,2.673l-.1.562h1.491l-1.569,6.2a2.786,2.786,0,0,0-.1.717c0,.523.155,1.007.755,1.007,1.143,0,2.111-1.472,2.576-2.073l-.252-.213c-.717.968-1.162,1.007-1.162,1.007-.252,0-.31-.116-.31-.232a.823.823,0,0,1,.039-.213l1.511-6.2h1.356Zm3.971,3.312.891-3.37-3.041.446.039.291a4.316,4.316,0,0,1,.523-.058c.426,0,.639.116.639.368a1.756,1.756,0,0,1-.077.446l-1.782,7.051h1.491l.407-1.472c.1-.329,1.782-5.288,2.964-5.288.349,0,.155.736.91.736.794,0,1.259-.852,1.259-1.588a.835.835,0,0,0-.852-.93c-1.065,0-2,1.259-2.654,2.305-.213.349-.446.736-.62,1.085Zm13.656-3.119h-1.55l-.174.639h-.019c-.039-.426-.446-.891-1.278-.891-2.789,0-5.346,3.874-5.346,6.431,0,1.24.5,2.305,1.724,2.305.755,0,1.956-.252,3.351-2.034h.077a3.994,3.994,0,0,0-.213.968c0,.62.174,1.065.814,1.065.93,0,1.976-1.162,2.576-2.073l-.232-.232c-.755,1.007-1.046,1.046-1.24,1.046-.155,0-.271-.116-.271-.329a.615.615,0,0,1,.019-.213Zm-2.034,1.685a7.272,7.272,0,0,1-.291,1.937c-.542,1.84-1.9,3.68-3.235,3.68-.523,0-1.123-.252-1.123-1.278a6.807,6.807,0,0,1,.542-2.4c.659-1.627,1.821-3.312,3.138-3.312C180.96,11.45,181.193,12.031,181.193,12.825Zm8.1-1.879h-1.356l.6-2.5h-.252a4.416,4.416,0,0,1-3.428,2.673l-.1.562h1.491l-1.569,6.2a2.786,2.786,0,0,0-.1.717c0,.523.155,1.007.755,1.007,1.143,0,2.111-1.472,2.576-2.073l-.252-.213c-.717.968-1.162,1.007-1.162,1.007-.252,0-.31-.116-.31-.232a.823.823,0,0,1,.039-.213l1.511-6.2H189.1Zm9.065,2.925a2.681,2.681,0,0,0-2.847-2.983c-2.867,0-4.862,3.119-4.862,5.6,0,1.414.659,3.157,2.615,3.157C196.223,19.643,198.354,16.564,198.354,13.871Zm-1.569-.6c0,1.472-1.375,5.792-3.428,5.792-1.085,0-1.143-1.433-1.143-2.073,0-2.634,1.685-5.52,3.273-5.52C196.514,11.469,196.785,12.535,196.785,13.271Z" transform="translate(507.569 6822)" fill="#9f0925"/>
    <path id="Trazado_732485" data-name="Trazado 732485" d="M3.765,6.6l-.077.31h.368c1.182,0,1.511.31,1.511.717a2.1,2.1,0,0,1-.077.484L3.068,17.74c-.174.659-.562,1.2-2.053,1.2H.685l-.077.31H7.213l.077-.31h-.62c-1.143,0-1.491-.291-1.491-.755a1.759,1.759,0,0,1,.058-.446l1.085-4.319a.832.832,0,0,0,.232.039,8.34,8.34,0,0,0,1.433.1c3.951,0,5.52-1.956,5.52-3.855,0-1.433-1.2-3.1-4.494-3.1Zm4.068.775a7.8,7.8,0,0,1,.949-.058c1.84,0,2.421,1.027,2.421,2.189A3.331,3.331,0,0,1,7.678,12.84a5.272,5.272,0,0,1-1.162-.155Zm10.576,9.7a3.09,3.09,0,0,1-2.441,1.24,2.09,2.09,0,0,1-2.189-2.073v-.542c2.305-.116,5.54-1.065,5.54-3.525,0-1.2-1.162-1.472-1.976-1.472-2.46,0-4.591,2.421-5.075,4.571a4.737,4.737,0,0,0-.116,1.162,2.735,2.735,0,0,0,2.654,3.022,4.858,4.858,0,0,0,3.874-2.131Zm-4.629-1.918c.562-1.646,1.724-3.874,3.157-3.874a.82.82,0,0,1,.852.833c0,1.7-1.821,3.041-3.835,3.041Zm13.772-4.455h-.31a.874.874,0,0,1-.581.387c-.562,0-.949-.387-1.782-.387a2,2,0,0,0-2.208,2.073c0,1.9,2.518,2.867,2.518,4.455,0,.755-.271,1.724-1.414,1.724-1.22,0-2.014-1.3-2.014-2.518h-.31l-.484,3.022h.329c.232-.329.407-.407.581-.407a20.09,20.09,0,0,0,2.131.387,2.458,2.458,0,0,0,2.615-2.421c0-1.84-2.6-3.622-2.6-4.687a1,1,0,0,1,.988-1.123c1.085,0,1.782,1.085,1.782,2.324h.291ZM37,13.692a2.681,2.681,0,0,0-2.847-2.983c-2.867,0-4.862,3.119-4.862,5.6,0,1.414.659,3.157,2.615,3.157C34.873,19.464,37,16.384,37,13.692Zm-1.569-.6c0,1.472-1.375,5.792-3.428,5.792-1.085,0-1.143-1.433-1.143-2.073,0-2.634,1.685-5.52,3.273-5.52C35.164,11.29,35.435,12.355,35.435,13.091Zm11.671-1.007-.058-.039.349-1.337-3.06.465.039.31a2.616,2.616,0,0,1,.542-.077c.581,0,.6.271.6.639l-2.266,8.988c-.232.891-.368,1.472-1.569,1.53l-.058.232h4.533l.058-.232H45.9c-.968,0-1.182-.407-1.182-.833a3.006,3.006,0,0,1,.1-.678l.465-1.937a1.725,1.725,0,0,0,1.182.368c2.789,0,4.92-3.273,4.92-5.772,0-1.956-.639-3-1.821-3a3.418,3.418,0,0,0-2.189,1.123Zm-.755,2.557c.387-1.666,1.395-2.847,2.421-2.847.446,0,.988.387.988,1.608,0,2.169-1.453,5.52-3.409,5.52a1.235,1.235,0,0,1-.891-.407Zm8.716-.562.891-3.37-3.041.446.039.291a4.316,4.316,0,0,1,.523-.058c.426,0,.639.116.639.368a1.755,1.755,0,0,1-.077.446l-1.782,7.051H53.75l.407-1.472c.1-.329,1.782-5.288,2.964-5.288.349,0,.155.736.91.736.794,0,1.259-.852,1.259-1.588a.835.835,0,0,0-.852-.93c-1.065,0-2,1.259-2.654,2.305-.213.349-.446.736-.62,1.085Zm13-.387a2.681,2.681,0,0,0-2.847-2.983c-2.867,0-4.862,3.119-4.862,5.6,0,1.414.659,3.157,2.615,3.157C65.933,19.464,68.064,16.384,68.064,13.692Zm-1.569-.6c0,1.472-1.375,5.792-3.428,5.792-1.085,0-1.143-1.433-1.143-2.073,0-2.634,1.685-5.52,3.273-5.52C66.224,11.29,66.5,12.355,66.5,13.091ZM78.659,6.312l-3.022.465.077.291a3.916,3.916,0,0,1,.523-.058c.5,0,.639.136.639.387a.972.972,0,0,1-.039.232l-1.027,4.048h-.039c-.019-.465-.465-.968-1.569-.968-2.983,0-4.978,4.319-4.978,6.315,0,1.027.291,2.46,1.7,2.46.717,0,1.879-.232,3.312-2.034h.1a4.213,4.213,0,0,0-.194,1.24.72.72,0,0,0,.775.794c.91,0,1.937-1.162,2.518-2.034l-.213-.232c-.271.407-.814,1.085-1.2,1.085q-.291,0-.291-.174a.973.973,0,0,1,.039-.232Zm-3.177,6.353a7.117,7.117,0,0,1-.31,2.034c-.542,1.782-1.821,3.6-3.177,3.6-.542,0-1.085-.329-1.085-1.278,0-1.859,1.569-5.733,3.487-5.733C75.192,11.29,75.483,11.755,75.483,12.665Zm11.874-1.7H85.865l-.407,1.453a14.037,14.037,0,0,1-2.111,4.242c-.678.891-1.453,1.491-1.937,1.491-.349,0-.5-.252-.5-.659a2.034,2.034,0,0,1,.058-.465l1.627-6.315-3.041.5.058.291a2.233,2.233,0,0,1,.5-.058c.426,0,.639.213.639.446a2.862,2.862,0,0,1-.116.484l-1.143,4.474a4.4,4.4,0,0,0-.155,1.143c0,.736.271,1.433,1.182,1.433a2.481,2.481,0,0,0,1.395-.542,32.847,32.847,0,0,0,2.654-3.022h.019l-.5,1.84a3.356,3.356,0,0,0-.077.717c0,.639.213,1.007.775,1.007,1.123,0,2.111-1.433,2.557-2.073l-.252-.213-.1.116c-.329.387-.7.891-1.1.891a.245.245,0,0,1-.271-.271.6.6,0,0,1,.019-.174Zm7.612,6.14a3.949,3.949,0,0,1-2.751,1.3c-.872,0-1.821-.426-1.821-2.111,0-1.55,1.1-5.017,3.409-5.017.465,0,.659.174.659.407,0,.426-.562.659-.562,1.123a.72.72,0,0,0,.736.736c.736,0,1.046-.62,1.046-1.356,0-.949-.91-1.472-1.879-1.472-2.751,0-5.094,3.041-5.094,5.753,0,1.491.775,3,2.654,3A5.034,5.034,0,0,0,95.2,17.353Zm6.489-6.334H100.1l.6-2.5h-.252a4.416,4.416,0,0,1-3.428,2.673l-.1.562h1.491l-1.569,6.2a2.786,2.786,0,0,0-.1.717c0,.523.155,1.007.755,1.007,1.143,0,2.111-1.472,2.576-2.073l-.252-.213c-.717.968-1.162,1.007-1.162,1.007-.252,0-.31-.116-.31-.232A.824.824,0,0,1,98.4,17.7l1.511-6.2h1.356Zm9.065,2.925a2.681,2.681,0,0,0-2.847-2.983c-2.867,0-4.862,3.119-4.862,5.6,0,1.414.659,3.157,2.615,3.157C108.392,19.464,110.523,16.384,110.523,13.692Zm-1.569-.6c0,1.472-1.375,5.792-3.428,5.792-1.085,0-1.143-1.433-1.143-2.073,0-2.634,1.685-5.52,3.273-5.52C108.682,11.29,108.954,12.355,108.954,13.091Zm11.282-1.624h-7.888V9.916h7.888Zm0,3.934h-7.888V13.851h7.888Z" transform="translate(386 6841.549)" fill="#9f0925"/>
    <path id="Trazado_732484" data-name="Trazado 732484" d="M45.883,17.43H44.01V5.381l-3,.028V3.972l4.871-.511Zm14.026-4.861a5.434,5.434,0,0,1-1.187,3.7,4.422,4.422,0,0,1-6.384,0,5.406,5.406,0,0,1-1.2-3.7V8.521a5.442,5.442,0,0,1,1.187-3.689,4.4,4.4,0,0,1,6.384,0,5.414,5.414,0,0,1,1.2,3.689ZM58.045,8.133a3.756,3.756,0,0,0-.662-2.346,2.225,2.225,0,0,0-1.873-.861,2.189,2.189,0,0,0-1.854.861A3.8,3.8,0,0,0,53,8.133v4.814a3.779,3.779,0,0,0,.667,2.355,2.429,2.429,0,0,0,3.722,0,3.834,3.834,0,0,0,.653-2.36Zm12.768,4.436a5.434,5.434,0,0,1-1.187,3.7,4.422,4.422,0,0,1-6.384,0,5.407,5.407,0,0,1-1.2-3.7V8.521a5.442,5.442,0,0,1,1.187-3.689,4.4,4.4,0,0,1,6.384,0,5.414,5.414,0,0,1,1.2,3.689ZM68.95,8.133a3.756,3.756,0,0,0-.662-2.346,2.225,2.225,0,0,0-1.873-.861,2.189,2.189,0,0,0-1.854.861,3.8,3.8,0,0,0-.653,2.346v4.814a3.779,3.779,0,0,0,.667,2.355,2.429,2.429,0,0,0,3.722,0,3.834,3.834,0,0,0,.653-2.36Z" transform="translate(554.31 6859.108)" fill="#9f0925"/>
  </g>
</svg>
