<svg xmlns="http://www.w3.org/2000/svg" xmlns:xlink="http://www.w3.org/1999/xlink" width="295" height="216" viewBox="0 0 295 216">
  <defs>
    <clipPath id="clip-path">
      <rect id="Rectángulo_344840" data-name="Rectángulo 344840" width="221.504" height="189.73" fill="none"/>
    </clipPath>
    <clipPath id="clip-path-3">
      <rect id="Rectángulo_344825" data-name="Rectángulo 344825" width="95.57" height="6.545" fill="none"/>
    </clipPath>
    <clipPath id="clip-path-5">
      <rect id="Rectángulo_344828" data-name="Rectángulo 344828" width="81.088" height="4.063" fill="none"/>
    </clipPath>
    <clipPath id="clip-path-6">
      <rect id="Rectángulo_344838" data-name="Rectángulo 344838" width="60.724" height="3.857" fill="none"/>
    </clipPath>
  </defs>
  <g id="_36" data-name="36" transform="translate(-600 -12831)">
    <rect id="Rectángulo_344767" data-name="Rectángulo 344767" width="295" height="216" transform="translate(600 12831)" fill="#f5e6e9"/>
    <g id="Grupo_986894" data-name="Grupo 986894" transform="translate(637 12844)">
      <g id="Grupo_986893" data-name="Grupo 986893" clip-path="url(#clip-path)">
        <g id="Grupo_986884" data-name="Grupo 986884">
          <g id="Grupo_986883" data-name="Grupo 986883" clip-path="url(#clip-path)">
            <g id="Grupo_986882" data-name="Grupo 986882" transform="translate(70.932 171.88)" opacity="0.5">
              <g id="Grupo_986881" data-name="Grupo 986881">
                <g id="Grupo_986880" data-name="Grupo 986880" clip-path="url(#clip-path-3)">
                  <path id="Trazado_731137" data-name="Trazado 731137" d="M351.756,624.054c0,1.807-21.394,3.272-47.785,3.272s-47.785-1.465-47.785-3.272,21.394-3.272,47.785-3.272,47.785,1.465,47.785,3.272" transform="translate(-256.186 -620.782)" fill="#7da1b7"/>
                </g>
              </g>
            </g>
          </g>
        </g>
        <path id="Trazado_731138" data-name="Trazado 731138" d="M356.022,269.245,346.2,368.5H278.366l-9.82-99.253Z" transform="translate(-194.192 -194.697)" fill="#d3eff4"/>
        <path id="Trazado_731139" data-name="Trazado 731139" d="M366.91,440.737l-4.918,49.725H297.864l-4.918-49.725Z" transform="translate(-211.836 -318.707)" fill="#ffde55"/>
        <rect id="Rectángulo_344827" data-name="Rectángulo 344827" width="97.297" height="27.429" transform="translate(69.444 60.833)" fill="#e8f9fc"/>
        <g id="Grupo_986892" data-name="Grupo 986892">
          <g id="Grupo_986891" data-name="Grupo 986891" clip-path="url(#clip-path)">
            <path id="Trazado_731140" data-name="Trazado 731140" d="M522.2,346.217q-2.509,24.733-5.018,49.466l-.71,7c-.266,2.618,3.828,2.6,4.092,0l5.018-49.466q.355-3.5.71-7c.266-2.618-3.828-2.6-4.092,0" transform="translate(-373.463 -248.943)" fill="#fff"/>
            <g id="Grupo_986887" data-name="Grupo 986887" transform="translate(0 185.592)" opacity="0.5">
              <g id="Grupo_986886" data-name="Grupo 986886">
                <g id="Grupo_986885" data-name="Grupo 986885" clip-path="url(#clip-path-5)">
                  <path id="Trazado_731141" data-name="Trazado 731141" d="M81.088,672.336c0,1.122-18.152,2.032-40.544,2.032S0,673.459,0,672.336,18.152,670.3,40.544,670.3s40.544.91,40.544,2.031" transform="translate(0 -670.305)" fill="#7da1b7"/>
                </g>
              </g>
            </g>
            <path id="Trazado_731142" data-name="Trazado 731142" d="M158.722,297.908l12.385,56.164-21,3.909,5.74-63.076Z" transform="translate(-108.543 -213.253)" fill="#b0d6ce"/>
            <path id="Trazado_731143" data-name="Trazado 731143" d="M146.77,222.285c1.214-.323,4.4,1.714,6.064,2.307.312.107.82-.5.7-.81s.053-1.213-.1-1.676a16.645,16.645,0,0,1-.918-4.4,7.021,7.021,0,0,1,.173-2.122s-4.613-3.158-5.852,3.172a5.986,5.986,0,0,1-.066,3.53" transform="translate(-106.133 -155.323)" fill="#ffa29a"/>
            <path id="Trazado_731144" data-name="Trazado 731144" d="M156.525,222.963s.826,3.669,3.959,5.062l0-.013a16.661,16.661,0,0,1-.918-4.4Z" transform="translate(-113.187 -161.23)" fill="#ee7782"/>
            <path id="Trazado_731145" data-name="Trazado 731145" d="M135.166,187.245a16.076,16.076,0,0,0,5.909,7.282c1.967,2.254,5.225,2.68,6.783,1.225,2.608-2.433-1.6-7.745-2.3-11.8-.022-.116-.034-.241-.047-.371a11.124,11.124,0,0,0-3.824.347,18.6,18.6,0,0,0-6.522,3.323" transform="translate(-97.742 -132.722)" fill="#ffa29a"/>
            <path id="Trazado_731146" data-name="Trazado 731146" d="M136.6,176.168a1.289,1.289,0,0,0-2.1.1,1.7,1.7,0,0,0-.209,1.159,2.483,2.483,0,0,0,2.042,2.045,6.621,6.621,0,0,1-2.73,3.457,17.2,17.2,0,0,1-4.653-5.867,5.19,5.19,0,0,1-.294-3.587c.552-2.533,3.389-3.928,6.029-4.747a23.135,23.135,0,0,1,5.514-3.477c.622,1.43,1.717,3.516.8,4.78a4.591,4.591,0,0,1-2.536,1.7c-.781.209-.893,1.466-.991,2.269a4.811,4.811,0,0,1-.882,2.169" transform="translate(-92.906 -119.495)" fill="#ce4949"/>
            <path id="Trazado_731147" data-name="Trazado 731147" d="M221.206,635.317a38.33,38.33,0,0,0,2.317,10.646A87.185,87.185,0,0,0,238.7,641.74a3.233,3.233,0,0,0,1.237-.738,1.132,1.132,0,0,0,.2-1.334c-.355-.529-1.131-.478-1.764-.411A13.633,13.633,0,0,1,225.633,633a16.371,16.371,0,0,1-4.427,2.313" transform="translate(-159.959 -457.74)" fill="#16162b"/>
            <path id="Trazado_731148" data-name="Trazado 731148" d="M18.324,614.3a38.329,38.329,0,0,0-7.793,7.614,87.177,87.177,0,0,0,11.635,10.622,3.23,3.23,0,0,0,1.282.656,1.132,1.132,0,0,0,1.235-.541c.26-.581-.2-1.212-.588-1.713a13.634,13.634,0,0,1-1.461-14.114,16.363,16.363,0,0,1-4.31-2.524" transform="translate(-7.615 -444.212)" fill="#16162b"/>
            <path id="Trazado_731149" data-name="Trazado 731149" d="M55,372.97l-2.018,35.009L30.076,440.26a7.884,7.884,0,0,0,7.169,4.6h.1l25.961-30.43,6.668-26.67Z" transform="translate(-21.749 -269.703)" fill="#6f5f87"/>
            <path id="Trazado_731150" data-name="Trazado 731150" d="M119.721,370.22c.033.243.067.52.109.813.763,5.466,3.37,18.344,11.536,28.48.478.6.981,1.191,1.5,1.769l13.383,44.77.461.181a8.926,8.926,0,0,0,9.651-2.084s-12.839-42.12-18.028-73.929Z" transform="translate(-86.573 -267.715)" fill="#6f5f87"/>
            <path id="Trazado_731151" data-name="Trazado 731151" d="M126.884,406.581a46.957,46.957,0,0,0,3.649,9.749,46.223,46.223,0,0,0,5.871,9.193,8.442,8.442,0,0,1,1.719,2.6c2.3,5.708,3.732,11.912,5.573,17.788.176.56-.7.8-.877.242-1.843-5.884-3.19-12.257-5.614-17.919-.663-1.549-2-2.7-3.023-4.084a48.527,48.527,0,0,1-4.789-8.1,47.584,47.584,0,0,1-3.387-9.231c-.135-.57.742-.812.877-.242" transform="translate(-91.108 -293.773)" fill="#504268"/>
            <path id="Trazado_731152" data-name="Trazado 731152" d="M150.948,240.819l14.3,6.427,17.676-8.7a34.324,34.324,0,0,1,1.932,6.381l-14.592,8.408a11.684,11.684,0,0,1-7.839,1.387l-12.5-2.18Z" transform="translate(-108.409 -172.497)" fill="#b0d6ce"/>
            <path id="Trazado_731153" data-name="Trazado 731153" d="M120.344,315.974S104.416,323.83,88.65,320.7a132.708,132.708,0,0,0,6.831-45.192l-.516-9.313.018-.006c-.72-9.811,3.886-24.629,9.649-26.776a4.3,4.3,0,0,1,.6-.174l6.039,1.044s.24,1.055.612,3.394l1.439,12.276.87,7.454,2.261,19.292Z" transform="translate(-64.105 -172.999)" fill="#e1efed"/>
            <path id="Trazado_731154" data-name="Trazado 731154" d="M146.365,239.407c.009.03.018.065.027.095a24.56,24.56,0,0,0,7.228,4.171c-.376-2.341-.611-3.4-.611-3.4l-6.044-1.044a4.349,4.349,0,0,0-.6.176" transform="translate(-105.84 -172.993)" fill="#ffa29a"/>
            <path id="Trazado_731155" data-name="Trazado 731155" d="M142.123,298.93l1.61,1.144,9.125,6.5-.869-7.457-7.687-.147Z" transform="translate(-102.773 -216.163)" fill="#b0d6ce"/>
            <path id="Trazado_731156" data-name="Trazado 731156" d="M137.836,411.656a16.629,16.629,0,0,1-7.642,7.206c-.524.246-.067,1.022.454.777a17.429,17.429,0,0,0,7.964-7.529c.276-.509-.5-.964-.777-.454" transform="translate(-93.979 -297.517)" fill="#b0d6ce"/>
            <path id="Trazado_731157" data-name="Trazado 731157" d="M176.611,197.172l1.863,2.208-1.863.974Z" transform="translate(-127.712 -142.58)" fill="#ffa29a"/>
            <path id="Trazado_731158" data-name="Trazado 731158" d="M295.565,3.1,225.9,82.644l-3.55-3.1L292.015,0Z" transform="translate(-160.789 0)" fill="#f5fbfc"/>
            <path id="Trazado_731159" data-name="Trazado 731159" d="M242.108,223.674l-16.2,18.47-3.55-3.1,16.2-18.47Z" transform="translate(-160.789 -159.501)" fill="#4092b8"/>
            <path id="Trazado_731160" data-name="Trazado 731160" d="M229.528,244.049l.424.37,13.527-15.406-.424-.37Z" transform="translate(-165.977 -165.337)" fill="#e1efed"/>
            <path id="Trazado_731161" data-name="Trazado 731161" d="M232.591,246.724l.424.37,13.527-15.406-.424-.37Z" transform="translate(-168.192 -167.272)" fill="#e1efed"/>
            <path id="Trazado_731162" data-name="Trazado 731162" d="M249.179,233.994,235.653,249.4l.424.37L249.6,234.365Z" transform="translate(-170.406 -169.207)" fill="#e1efed"/>
            <rect id="Rectángulo_344829" data-name="Rectángulo 344829" width="4.71" height="4.71" transform="matrix(0.658, -0.753, 0.753, 0.658, 90.481, 46.637)" fill="#f3b773"/>
            <rect id="Rectángulo_344830" data-name="Rectángulo 344830" width="4.71" height="4.71" transform="matrix(0.658, -0.753, 0.753, 0.658, 95.187, 41.251)" fill="#f8f4c5"/>
            <rect id="Rectángulo_344831" data-name="Rectángulo 344831" width="4.71" height="4.71" transform="matrix(0.658, -0.753, 0.753, 0.658, 99.893, 35.865)" fill="#ffe800"/>
            <rect id="Rectángulo_344832" data-name="Rectángulo 344832" width="4.71" height="4.71" transform="matrix(0.658, -0.753, 0.753, 0.658, 104.599, 30.479)" fill="#ffe245"/>
            <rect id="Rectángulo_344833" data-name="Rectángulo 344833" width="4.71" height="4.71" transform="matrix(0.658, -0.753, 0.753, 0.658, 109.305, 25.093)" fill="#fff200"/>
            <rect id="Rectángulo_344834" data-name="Rectángulo 344834" width="4.71" height="4.71" transform="matrix(0.658, -0.753, 0.753, 0.658, 114.011, 19.707)" fill="#87b1eb"/>
            <rect id="Rectángulo_344835" data-name="Rectángulo 344835" width="4.71" height="4.71" transform="matrix(0.658, -0.753, 0.753, 0.658, 118.717, 14.321)" fill="#faf6f0"/>
            <rect id="Rectángulo_344836" data-name="Rectángulo 344836" width="4.71" height="4.71" transform="matrix(0.658, -0.753, 0.753, 0.658, 123.423, 8.935)" fill="#f0f7f4"/>
            <rect id="Rectángulo_344837" data-name="Rectángulo 344837" width="4.71" height="4.71" transform="matrix(0.658, -0.753, 0.753, 0.658, 128.129, 3.549)" fill="#fcf1d2"/>
            <path id="Trazado_731163" data-name="Trazado 731163" d="M260.077,240.215a2.261,2.261,0,0,1-.882.57,3.592,3.592,0,0,1-1.559.048c-.816-.09-4.228-.384-5.049-.48l-.462-2.171c.714-1.451,3.952-4.18,5.067-5.325a.207.207,0,0,1,.342.066c.3.732.108,1.163-.857,2.693q1.988-.378,3.976-.744a5.254,5.254,0,0,1-.576,5.343" transform="translate(-182.317 -168.339)" fill="#ffa29a"/>
            <path id="Trazado_731164" data-name="Trazado 731164" d="M136.448,248.951l14.3,6.427,17.676-8.7a34.326,34.326,0,0,1,1.932,6.381l-14.592,8.408a11.679,11.679,0,0,1-7.838,1.387l-12.5-2.18Z" transform="translate(-97.924 -178.377)" fill="#e1efed"/>
            <path id="Trazado_731165" data-name="Trazado 731165" d="M183.679,273.565a26.254,26.254,0,0,0,4.249-1.921c.5-.284,1.057.438.548.727a27.543,27.543,0,0,1-4.454,2.037c-.55.194-.9-.648-.342-.843" transform="translate(-132.619 -196.385)" fill="#b0d6ce"/>
            <path id="Trazado_731166" data-name="Trazado 731166" d="M167.157,193.144a3.578,3.578,0,0,0-1.856.819c-.251.25.178.6.427.348a2.961,2.961,0,0,1,1.492-.619c.342-.076.284-.623-.063-.547" transform="translate(-119.478 -139.662)" fill="#c94b5a"/>
            <path id="Trazado_731167" data-name="Trazado 731167" d="M169.541,197.9a.238.238,0,0,0-.269.2.783.783,0,0,0,.273.665.239.239,0,0,0,.331-.041.228.228,0,0,0,.047-.15.637.637,0,0,0-.383-.672" transform="translate(-122.402 -143.101)" fill="#343256"/>
            <g id="Grupo_986890" data-name="Grupo 986890" transform="translate(160.78 184.419)" opacity="0.5">
              <g id="Grupo_986889" data-name="Grupo 986889">
                <g id="Grupo_986888" data-name="Grupo 986888" clip-path="url(#clip-path-6)">
                  <path id="Trazado_731168" data-name="Trazado 731168" d="M641.413,668c0,1.065-13.594,1.928-30.362,1.928s-30.362-.863-30.362-1.928,13.594-1.928,30.362-1.928,30.362.863,30.362,1.928" transform="translate(-580.689 -666.07)" fill="#7da1b7"/>
                </g>
              </g>
            </g>
            <path id="Trazado_731169" data-name="Trazado 731169" d="M677.355,186.932a6.612,6.612,0,0,1,12.015,4.46,10.692,10.692,0,0,1-2.468,5.151,8.385,8.385,0,0,1,1.751,3.354,4.735,4.735,0,0,1-.609,3.636,5.825,5.825,0,0,1-4.057,2.161,7.418,7.418,0,0,1-2.976-.1,4.4,4.4,0,0,1-2.459-1.612c-1.02-1.422-.881-3.34-.7-5.08a7.394,7.394,0,0,1-3.953-5.712c-.239-2.4,2.138-4.242,3.454-6.26" transform="translate(-487.301 -133.138)" fill="#302323"/>
            <path id="Trazado_731170" data-name="Trazado 731170" d="M602.389,442.569a78.429,78.429,0,0,0,45.4,0l-24.771-40.03s-19.11,24.231-20.634,40.03" transform="translate(-435.601 -291.085)" fill="#c3ddd9"/>
            <path id="Trazado_731171" data-name="Trazado 731171" d="M740.325,630.009c.017-.122-2.692-7.058-2.685-7.243.03-.8,1.228-.995,2.219.639,1.954,3.22,3.975,1.1,4.042,2.477.261,5.346,1.755,9.638.352,11.542-.977,1.326-4.292,2.27-6.714,2.2s-1.109-.758,1.283-5.211a12.828,12.828,0,0,0,1.5-4.409" transform="translate(-532.399 -449.903)" fill="#16162b"/>
            <path id="Trazado_731172" data-name="Trazado 731172" d="M621.414,640.013a29.071,29.071,0,0,0-1.763-7.9,3.721,3.721,0,0,1-2.35.35,12.406,12.406,0,0,1-.085,4.169,5.622,5.622,0,0,1-2.315,3.5,7.748,7.748,0,0,1-2.247,1.093.473.473,0,0,0-.08.031c-1.355.546-3.142.708-4.634,1.945-.392.325-.085.987.42,1.052.706.09,1.434.155,2.174.2a30.448,30.448,0,0,0,10.958-1.068,25.519,25.519,0,0,0-.077-3.364" transform="translate(-439.486 -457.093)" fill="#16162b"/>
            <path id="Trazado_731173" data-name="Trazado 731173" d="M663.768,424.58a9.634,9.634,0,0,1-6.337,2.609c-11.526-25.651-18.543-44.617-20.937-60.564-4.03,15.244-4.486,30.832-3.858,49.216.146,4.155.356,8.117.6,11.759a8.574,8.574,0,0,1-3.893.916,8.946,8.946,0,0,1-1.926-.209,7.667,7.667,0,0,1-1.261-.387,91.916,91.916,0,0,1-2.02-10.953,245.982,245.982,0,0,1,.071-50.906c1.326-15.085,7.05-23.553,7.281-23.917v-.005l.005-.021,5.971-.136,2.815-.063,1.784-.042a23.387,23.387,0,0,1,4.307,7.162,36.9,36.9,0,0,1,2.244,9.265c1.271,20.855,13.324,62.927,15.15,66.277" transform="translate(-450.394 -247.218)" fill="#374d88"/>
            <path id="Trazado_731174" data-name="Trazado 731174" d="M678.589,228.847a5.964,5.964,0,0,0,3.732,1.119,5.6,5.6,0,0,0,3.462-1.479,26.459,26.459,0,0,1-.255-2.81c-.01-.218-.015-.435-.021-.652V225q-.008-.374,0-.748c0-.143.006-.286.011-.429a26.87,26.87,0,0,1,.228-2.921c.005-.069.016-.133.027-.2.042-.318.09-.636.148-.954a27.643,27.643,0,0,1,.742-3.144c-.562.2-1.124.408-1.675.642a.336.336,0,0,0-.042.021,11.769,11.769,0,0,0-3.345,2c-.08.652-.175,1.294-.3,1.935-.021.106-.043.212-.064.313-.075.377-.159.748-.249,1.119-.005.027-.016.058-.021.085-.069.281-.143.562-.223.838-.058.212-.117.414-.185.62-.005.011-.005.016-.011.027a25.342,25.342,0,0,1-1.961,4.633" transform="translate(-490.703 -156.636)" fill="#ffa59d"/>
            <path id="Trazado_731175" data-name="Trazado 731175" d="M672.047,253.192l-2.7,8.264a19.7,19.7,0,0,1-1.716,3.792,24.85,24.85,0,0,0-3.819,10.153,22.591,22.591,0,0,1-5.994.728,23.332,23.332,0,0,1-4.573-.467h-.007c-.033-.387-.067-.761-.1-1.135a52.1,52.1,0,0,1,.3-12.4c1.368-8.391,5.053-10.828,6.335-11.435.114-.047.22-.094.34-.14a.024.024,0,0,0,.02-.007c.02-.007.047-.02.067-.027h.02v-.007c.014,0,.027-.007.04-.007a8.425,8.425,0,0,1,1.362-.147c1.7-.053,3.164-.487,4.86-.387a.5.5,0,0,1,.1.007,4.57,4.57,0,0,1,.955.18,5.083,5.083,0,0,1,1.5.721c.748.521,1.822,1.315,3.01,2.316" transform="translate(-472.142 -180.747)" fill="#668cd9"/>
            <path id="Trazado_731176" data-name="Trazado 731176" d="M688.255,221.642c-.079.35,2.661,1.4,4.252,2.184a26.89,26.89,0,0,1,.228-2.921c.005-.069.016-.132.026-.2.042-.318.09-.636.148-.954a27.671,27.671,0,0,1,.742-3.144c-.562.2-1.124.408-1.675.642a.321.321,0,0,0-.043.021,14.122,14.122,0,0,0-3.287,2.089c-.085.657-.191,1.309-.323,1.961-.021.106-.042.212-.069.318" transform="translate(-497.692 -156.636)" fill="#dd6478"/>
            <path id="Trazado_731177" data-name="Trazado 731177" d="M685.85,203.093a14.768,14.768,0,0,1-.461,1.488c-.14.408-.287.821-.387,1.242a2.923,2.923,0,0,0-.093.481c-2.911,4.065-9.4,2.457-7.316-2a56.9,56.9,0,0,0,2.75-6.4,3.738,3.738,0,0,0,1.262.7c.113.04.187.06.187.06.267.087.547.154.808.24a4.854,4.854,0,0,1,2.3,1.655,4.709,4.709,0,0,1,.948,2.53" transform="translate(-489.69 -143.11)" fill="#ffa59d"/>
            <path id="Trazado_731178" data-name="Trazado 731178" d="M685.724,216.285c0,.04-.112.057-.255,0a.9.9,0,0,1-.476-.395.028.028,0,0,0-.008-.014.912.912,0,0,1-.119-.408.634.634,0,0,1,.085-.392c.028-.038.049-.05.072-.04a.05.05,0,0,1,.027.021,2.255,2.255,0,0,1,.069.3,1.443,1.443,0,0,0,.122.326.2.2,0,0,0,.02.039,1.455,1.455,0,0,0,.325.387c.089.081.15.133.137.174" transform="translate(-495.242 -155.499)" fill="#dd6478"/>
            <path id="Trazado_731179" data-name="Trazado 731179" d="M666.744,396.843A147.707,147.707,0,0,0,669.359,412c.075.333-.436.474-.511.141a149.2,149.2,0,0,1-2.633-15.3c-.04-.338.49-.335.53,0" transform="translate(-481.753 -286.783)" fill="#1c3259"/>
            <path id="Trazado_731180" data-name="Trazado 731180" d="M656.429,390.49a6.719,6.719,0,0,0,2.8,3.561c.287.182.021.641-.268.458a7.3,7.3,0,0,1-3.039-3.878c-.109-.324.4-.463.511-.141" transform="translate(-474.299 -282.24)" fill="#1c3259"/>
            <path id="Trazado_731181" data-name="Trazado 731181" d="M616.6,275.578c-2.784,11.956-5.113,28.5-4.833,49.913,0,0-5.848.894-9.379,7.79l14.8-77.456a16.85,16.85,0,0,1,6.408-4.232c.02-.007.113-.04.127-.04a4.56,4.56,0,0,1,1-.147s-4.3,7.8-8.12,24.172" transform="translate(-435.601 -181.798)" fill="#e1efed"/>
            <path id="Trazado_731182" data-name="Trazado 731182" d="M707.942,425.051q-5.3-16.836-8.989-34.115-1.809-8.507-3.213-17.089c-.856-5.224-1.539-10.482-2.614-15.668a56.026,56.026,0,0,0-5.355-15.576q.272-.05.544-.114c4.714,8.737,5.983,18.767,7.5,28.465q2.739,17.545,7.155,34.777,2.486,9.664,5.486,19.18c.1.325-.409.464-.51.139" transform="translate(-497.343 -247.662)" fill="#1c3259"/>
            <path id="Trazado_731183" data-name="Trazado 731183" d="M713.744,331.79c-5.14-6.449-15.006-7.784-15.006-7.784-3.959-14.573-5.14-29.479-5.14-42.1q0-2.123.04-4.159a174.439,174.439,0,0,1,2.744-28.392c6.2,4.252,3.638,14.507,3.638,14.507-.8,5.547-.38,12.476.714,19.766.347,2.3.761,4.646,1.222,6.989,3.979,20.207,11.635,40.74,11.789,41.175" transform="translate(-501.556 -180.313)" fill="#e1efed"/>
            <path id="Trazado_731184" data-name="Trazado 731184" d="M683.839,221.042a6.239,6.239,0,0,1-2.665-.557.242.242,0,0,0-.361.172c-.328,3.031,2.494,1.932,3.173.741.1-.172.058-.36-.146-.356" transform="translate(-492.293 -159.414)" fill="#fff"/>
            <path id="Trazado_731185" data-name="Trazado 731185" d="M682.83,248.946s-1.219,7.272,5.672-.4c0,0-1.994-1.449-5.672.4" transform="translate(-493.71 -179.338)" fill="#ffa59d"/>
            <path id="Trazado_731186" data-name="Trazado 731186" d="M648.637,252.081c-2.241.563-4.277.957-6.072,2.412-2.112,1.712-4.546,8.3-5.549,10.832,2,.719,3.756,1.622,5.758,2.341.845-4.2,3.581-11.955,5.863-15.585" transform="translate(-460.642 -182.286)" fill="#e1efed"/>
            <path id="Trazado_731187" data-name="Trazado 731187" d="M594.563,280.257H609.6l-3.728-21.4H590.834Z" transform="translate(-427.246 -187.187)" fill="#ffeef0"/>
            <path id="Trazado_731188" data-name="Trazado 731188" d="M592.73,282.671h15.036l-3.728-21.4H589Z" transform="translate(-425.921 -188.933)" fill="#3e3e63"/>
            <path id="Trazado_731189" data-name="Trazado 731189" d="M642.246,296.962s-.3-1.892-1.253-2.286l.165,1.859c-1.039-.353-1.89-.512-2.929-.865a1.174,1.174,0,0,0-.662-.089.786.786,0,0,0-.521.609,2.146,2.146,0,0,0,.03.837,19.932,19.932,0,0,0,.464,2.022,2.252,2.252,0,0,0,.663,1.215,2.193,2.193,0,0,0,1.056.36,13.989,13.989,0,0,0,4.063-.014c-.412-1.171-.664-2.475-1.076-3.646" transform="translate(-460.641 -213.087)" fill="#ffa59d"/>
            <path id="Trazado_731190" data-name="Trazado 731190" d="M674.936,258.685a35.353,35.353,0,0,1-5.319,14.076c-1.326,2.046-1.848,3.9-3.377,2.932l-.033-.017-12.16-7.421.361-2.832.154-1.238,10.754,3.592c2.338-5.545,3.609-8.73,3.064-14.72.6.071,1.111.126,1.573.176l-2.167-3.883c.2.022.391.05.583.077a8.139,8.139,0,0,1,6.568,9.257" transform="translate(-472.957 -180.311)" fill="#e1efed"/>
            <path id="Trazado_731191" data-name="Trazado 731191" d="M681.058,297.4l3.629,1.2a.221.221,0,0,0,.057.019l1.933.641c.253.084.361-.315.11-.4l-1.764-.585c.885-2.063,1.675-4.172,2.354-6.312.081-.254-.318-.362-.4-.11-.677,2.132-1.461,4.237-2.346,6.292L681.168,297c-.252-.084-.361.315-.11.4" transform="translate(-492.386 -210.943)" fill="#b0d6ce"/>
            <path id="Trazado_731192" data-name="Trazado 731192" d="M689.056,323.1c-.951,1.684-2.075,4.3-3.792,5.222-.951.509-.934.314-1.762-.16l-1.327-.76-2.986-1.71a.206.206,0,0,0-.209.356c1.548.887,3.09,1.786,4.645,2.661.412.231,1.044.736,1.589.612.69-.156,1.252-1.307,1.579-1.784.939-1.369,1.8-2.783,2.619-4.229a.206.206,0,0,0-.356-.208" transform="translate(-490.914 -233.566)" fill="#b0d6ce"/>
            <path id="Trazado_731193" data-name="Trazado 731193" d="M699.219,206.339a2.094,2.094,0,0,0-1.6-1.084c-.217-.013-.293.252-.043.387a4.61,4.61,0,0,1,1.422.987c.226.229.474.045.221-.29" transform="translate(-504.32 -148.424)" fill="#302323"/>
            <path id="Trazado_731194" data-name="Trazado 731194" d="M686.022,203.986a1.462,1.462,0,0,1,1.009.089c.2.073.271.319-.013.329a8.855,8.855,0,0,0-1.129.008c-.268.048-.259-.277.134-.425" transform="translate(-495.849 -147.465)" fill="#302323"/>
            <path id="Trazado_731195" data-name="Trazado 731195" d="M697.383,211.42a.212.212,0,0,1,.254.157.7.7,0,0,1-.195.611.214.214,0,0,1-.3-.012.206.206,0,0,1-.053-.13.57.57,0,0,1,.293-.626" transform="translate(-504.074 -152.876)" fill="#343256"/>
            <path id="Trazado_731196" data-name="Trazado 731196" d="M685.6,207.795a.212.212,0,0,1,.254.157.7.7,0,0,1-.195.612.214.214,0,0,1-.3-.013.2.2,0,0,1-.053-.13.569.569,0,0,1,.293-.626" transform="translate(-495.553 -150.255)" fill="#343256"/>
            <path id="Trazado_731197" data-name="Trazado 731197" d="M687.159,205.656a1.6,1.6,0,0,0-2.816-1.443.666.666,0,0,0-.318-.329.686.686,0,0,0-.419-.036,1.663,1.663,0,0,0-.056-.789,1.267,1.267,0,0,0-1.828-.754,1.72,1.72,0,0,0-.8.886,1.508,1.508,0,0,0,.675,2.008,1.245,1.245,0,0,0,.326.085,1.349,1.349,0,0,0,.769-.147,1.72,1.72,0,0,0,.8-.886c.019-.046.036-.093.051-.14a.522.522,0,0,1,.386-.011.545.545,0,0,1,.262.376,1.6,1.6,0,0,0,2.872,1.4c.356.157,1.584.771,1.607,1.786l.237-.006c-.027-1.164-1.353-1.826-1.749-2m-3.885-1.5a1.482,1.482,0,0,1-.688.765,1.062,1.062,0,0,1-.9.054,1.272,1.272,0,0,1-.546-1.7,1.484,1.484,0,0,1,.688-.765,1.113,1.113,0,0,1,.635-.122.98.98,0,0,1,.263.068,1.064,1.064,0,0,1,.6.671,1.483,1.483,0,0,1-.052,1.027m2.215,2.33A1.362,1.362,0,1,1,687,205.3a1.363,1.363,0,0,1-1.511,1.194" transform="translate(-492.292 -146.179)" fill="#343256"/>
            <path id="Trazado_731198" data-name="Trazado 731198" d="M703.929,217.861c.129-.274.331-.576.622-.628a.612.612,0,0,1,.624.414,1.937,1.937,0,0,1-.43,2.054,2.039,2.039,0,0,1-2.058.58c.367-.8.867-1.622,1.242-2.42" transform="translate(-508.129 -157.081)" fill="#ffa59d"/>
          </g>
        </g>
      </g>
    </g>
  </g>
</svg>
