<svg xmlns="http://www.w3.org/2000/svg" xmlns:xlink="http://www.w3.org/1999/xlink" width="295" height="190" viewBox="0 0 295 190">
  <defs>
    <clipPath id="clip-path">
      <path id="Trazado_731203" data-name="Trazado 731203" d="M5,0c2.761,0,5,2.8,5,2.8S7.761,5.6,5,5.6,0,2.8,0,2.8,2.239,0,5,0Z" transform="translate(876 5413)" fill="#fff"/>
    </clipPath>
  </defs>
  <g id="_50" data-name="50" transform="translate(3586 5482)">
    <path id="Trazado_732694" data-name="Trazado 732694" d="M0,0H295V190H0Z" transform="translate(-3586 -5482)" fill="#fff"/>
    <path id="Trazado_732695" data-name="Trazado 732695" d="M7.8,8.933H3.861V13H1.81V3.047h6.48V4.708H3.861v2.57H7.8Zm5.831,3.315a2.477,2.477,0,0,1-2.023.889,2.337,2.337,0,0,1-1.815-.684,2.918,2.918,0,0,1-.639-2V5.6h1.976v4.784q0,1.157,1.053,1.157a1.426,1.426,0,0,0,1.381-.7V5.6h1.982V13H13.684Zm6.809.889a3.631,3.631,0,0,1-2.649-1,3.548,3.548,0,0,1-1.022-2.659V9.288A4.468,4.468,0,0,1,17.2,7.3a3.161,3.161,0,0,1,1.22-1.354,3.425,3.425,0,0,1,1.8-.475,3.07,3.07,0,0,1,2.389.957,3.889,3.889,0,0,1,.872,2.714v.807H18.77a1.835,1.835,0,0,0,.578,1.162,1.746,1.746,0,0,0,1.22.438,2.132,2.132,0,0,0,1.784-.827l.971,1.087a2.966,2.966,0,0,1-1.2.981A3.947,3.947,0,0,1,20.438,13.137ZM20.212,7.06a1.234,1.234,0,0,0-.954.4,2.062,2.062,0,0,0-.468,1.14h2.748V8.44a1.471,1.471,0,0,0-.355-1.02A1.274,1.274,0,0,0,20.212,7.06ZM26.419,5.6l.062.854a2.582,2.582,0,0,1,2.126-.991,2.146,2.146,0,0,1,1.75.69,3.221,3.221,0,0,1,.588,2.064V13H28.969V8.27a1.282,1.282,0,0,0-.273-.913,1.224,1.224,0,0,0-.909-.284,1.359,1.359,0,0,0-1.251.711V13H24.56V5.6Zm8.388-1.818V5.6h1.265V7.053H34.807v3.691a.881.881,0,0,0,.157.588.79.79,0,0,0,.6.178,3.15,3.15,0,0,0,.581-.048v1.5a4.067,4.067,0,0,1-1.2.178,1.886,1.886,0,0,1-2.119-2.1V7.053h-1.08V5.6h1.08V3.785Zm5.77,9.352a3.631,3.631,0,0,1-2.649-1,3.548,3.548,0,0,1-1.022-2.659V9.288A4.468,4.468,0,0,1,37.336,7.3a3.161,3.161,0,0,1,1.22-1.354,3.425,3.425,0,0,1,1.8-.475,3.07,3.07,0,0,1,2.389.957,3.889,3.889,0,0,1,.872,2.714v.807h-4.71a1.835,1.835,0,0,0,.578,1.162,1.746,1.746,0,0,0,1.22.438,2.132,2.132,0,0,0,1.784-.827l.971,1.087a2.966,2.966,0,0,1-1.2.981A3.947,3.947,0,0,1,40.577,13.137ZM40.351,7.06a1.234,1.234,0,0,0-.954.4,2.062,2.062,0,0,0-.468,1.14h2.748V8.44a1.471,1.471,0,0,0-.355-1.02A1.274,1.274,0,0,0,40.351,7.06Zm7.567,2.188a4.457,4.457,0,0,1,.776-2.755,2.517,2.517,0,0,1,2.123-1.025,2.265,2.265,0,0,1,1.784.807V2.5h1.982V13H52.8l-.1-.786a2.325,2.325,0,0,1-1.9.923,2.511,2.511,0,0,1-2.1-1.029A4.6,4.6,0,0,1,47.918,9.247Zm1.976.147a2.92,2.92,0,0,0,.362,1.6,1.18,1.18,0,0,0,1.053.555A1.322,1.322,0,0,0,52.6,10.77V7.847a1.3,1.3,0,0,0-1.278-.774Q49.894,7.073,49.894,9.394Zm9.625,3.743a3.631,3.631,0,0,1-2.649-1,3.548,3.548,0,0,1-1.022-2.659V9.288A4.468,4.468,0,0,1,56.279,7.3,3.161,3.161,0,0,1,57.5,5.942a3.425,3.425,0,0,1,1.8-.475,3.07,3.07,0,0,1,2.389.957,3.889,3.889,0,0,1,.872,2.714v.807h-4.71a1.835,1.835,0,0,0,.578,1.162,1.746,1.746,0,0,0,1.22.438,2.132,2.132,0,0,0,1.784-.827L62.4,11.8a2.966,2.966,0,0,1-1.2.981A3.947,3.947,0,0,1,59.519,13.137ZM59.293,7.06a1.234,1.234,0,0,0-.954.4,2.062,2.062,0,0,0-.468,1.14H60.62V8.44a1.471,1.471,0,0,0-.355-1.02A1.274,1.274,0,0,0,59.293,7.06ZM69.253,13H67.271V2.5h1.982Zm6.057-.752a2.477,2.477,0,0,1-2.023.889,2.337,2.337,0,0,1-1.815-.684,2.918,2.918,0,0,1-.639-2V5.6h1.976v4.784q0,1.157,1.053,1.157a1.426,1.426,0,0,0,1.381-.7V5.6h1.982V13H75.365Zm5.674-.841H84.6V13H78.461V11.8l3.479-4.6H78.564V5.6h5.927V6.767Z" transform="translate(-3522.057 -5437.106)" fill="#12263f"/>
    <path id="Trazado_732696" data-name="Trazado 732696" d="M5.514,7.59a2.138,2.138,0,0,1-1.547.65,2.287,2.287,0,0,1-1.811-.776,3.068,3.068,0,0,1-.68-2.095,3.268,3.268,0,0,1,.366-1.538,2.686,2.686,0,0,1,1.022-1.09,2.837,2.837,0,0,1,1.477-.39,2.713,2.713,0,0,1,1.5.422,2.774,2.774,0,0,1,1.02,1.213A4.355,4.355,0,0,1,7.231,5.8v.627A4.935,4.935,0,0,1,6.17,9.775a4.01,4.01,0,0,1-3.006,1.3l-.416.006V9.67l.375-.006A2.165,2.165,0,0,0,5.514,7.59ZM4.383,6.945a1.184,1.184,0,0,0,.706-.211,1.409,1.409,0,0,0,.448-.51v-.7a2.328,2.328,0,0,0-.328-1.336,1.018,1.018,0,0,0-.879-.475.989.989,0,0,0-.838.466,1.981,1.981,0,0,0-.328,1.169A1.927,1.927,0,0,0,3.484,6.5,1.04,1.04,0,0,0,4.383,6.945Zm9.8.527a4.322,4.322,0,0,1-.732,2.707,2.557,2.557,0,0,1-2.145.938A2.574,2.574,0,0,1,9.17,10.2a4.2,4.2,0,0,1-.756-2.637V5.99a4.265,4.265,0,0,1,.741-2.713,2.576,2.576,0,0,1,2.136-.926,2.578,2.578,0,0,1,2.133.917A4.182,4.182,0,0,1,14.18,5.9ZM12.486,5.746A3.124,3.124,0,0,0,12.2,4.2a.98.98,0,0,0-.905-.484.963.963,0,0,0-.882.46,2.924,2.924,0,0,0-.3,1.44V7.693a3.279,3.279,0,0,0,.284,1.551.967.967,0,0,0,.911.507.951.951,0,0,0,.9-.487,3.2,3.2,0,0,0,.287-1.49Zm2.994-1.777a1.558,1.558,0,0,1,.475-1.143,1.531,1.531,0,0,1,1.119-.475,1.5,1.5,0,0,1,1.1.472,1.57,1.57,0,0,1,.466,1.146A1.531,1.531,0,0,1,18.179,5.1a1.519,1.519,0,0,1-1.1.46,1.561,1.561,0,0,1-1.113-.46A1.508,1.508,0,0,1,15.481,3.969Zm1.594.727a.684.684,0,0,0,.513-.208.715.715,0,0,0,.2-.519.758.758,0,0,0-.2-.527.662.662,0,0,0-.513-.223.69.69,0,0,0-.521.223.741.741,0,0,0-.211.527.7.7,0,0,0,.214.516A.711.711,0,0,0,17.074,4.7Z" transform="translate(-3442.622 -5347.688) rotate(-1)" fill="#12263f"/>
    <path id="Trazado_732697" data-name="Trazado 732697" d="M19.513,6.928a5.15,5.15,0,0,1-.445,2.209A3.354,3.354,0,0,1,17.793,10.6,3.766,3.766,0,0,1,14,10.607,3.387,3.387,0,0,1,12.71,9.151a5,5,0,0,1-.463-2.177V6.553A5.123,5.123,0,0,1,12.7,4.335a3.381,3.381,0,0,1,1.283-1.471,3.76,3.76,0,0,1,3.791,0,3.381,3.381,0,0,1,1.283,1.471,5.109,5.109,0,0,1,.454,2.212Zm-1.781-.387a3.59,3.59,0,0,0-.48-2.039,1.7,1.7,0,0,0-2.736-.009,3.549,3.549,0,0,0-.486,2.019v.416a3.635,3.635,0,0,0,.48,2.027,1.682,1.682,0,0,0,2.742.026,3.614,3.614,0,0,0,.48-2.024Zm8.66,1.348a3.839,3.839,0,0,1-.65,2.376,2.154,2.154,0,0,1-1.816.853,1.979,1.979,0,0,1-1.646-.791L22.2,11H20.679V2h1.693V5.229a1.929,1.929,0,0,1,1.541-.686,2.172,2.172,0,0,1,1.819.853,3.845,3.845,0,0,1,.659,2.4ZM24.7,7.766a2.522,2.522,0,0,0-.3-1.4,1.03,1.03,0,0,0-.908-.442,1.117,1.117,0,0,0-1.113.662v2.5a1.132,1.132,0,0,0,1.125.668,1.045,1.045,0,0,0,1.078-.809A4.171,4.171,0,0,0,24.7,7.766Zm6.17,1.482a.546.546,0,0,0-.308-.489,3.494,3.494,0,0,0-.987-.319q-2.262-.475-2.262-1.922a1.742,1.742,0,0,1,.7-1.409,2.825,2.825,0,0,1,1.831-.565,3.04,3.04,0,0,1,1.931.568A1.791,1.791,0,0,1,32.5,6.588H30.8a.819.819,0,0,0-.234-.6.992.992,0,0,0-.732-.237,1.013,1.013,0,0,0-.662.193.61.61,0,0,0-.234.492.522.522,0,0,0,.267.454,2.743,2.743,0,0,0,.9.3,7.346,7.346,0,0,1,1.066.284,1.752,1.752,0,0,1,1.342,1.705,1.654,1.654,0,0,1-.744,1.4,3.21,3.21,0,0,1-1.922.536,3.353,3.353,0,0,1-1.415-.284,2.374,2.374,0,0,1-.97-.779,1.811,1.811,0,0,1-.352-1.069h1.605a.884.884,0,0,0,.334.691,1.325,1.325,0,0,0,.832.24,1.226,1.226,0,0,0,.735-.185A.574.574,0,0,0,30.868,9.248Zm5.654,1.869a3.112,3.112,0,0,1-2.271-.855,3.041,3.041,0,0,1-.876-2.279V7.818a3.83,3.83,0,0,1,.369-1.708,2.709,2.709,0,0,1,1.046-1.16,2.936,2.936,0,0,1,1.544-.407,2.631,2.631,0,0,1,2.048.82,3.333,3.333,0,0,1,.747,2.326v.691H35.093a1.573,1.573,0,0,0,.5,1,1.5,1.5,0,0,0,1.046.375,1.828,1.828,0,0,0,1.529-.709L39,9.975a2.542,2.542,0,0,1-1.031.841A3.383,3.383,0,0,1,36.522,11.117Zm-.193-5.209a1.058,1.058,0,0,0-.817.341,1.768,1.768,0,0,0-.4.977h2.355V7.091a1.261,1.261,0,0,0-.3-.874A1.092,1.092,0,0,0,36.329,5.908Zm7.324.34a4.6,4.6,0,0,0-.609-.047,1.24,1.24,0,0,0-1.26.65V11H40.091V4.66h1.6l.047.756a1.569,1.569,0,0,1,1.412-.873,1.774,1.774,0,0,1,.527.076Zm3.293,2.684L48.124,4.66h1.77L47.755,11H46.138L44,4.66h1.77ZM54.224,11a1.88,1.88,0,0,1-.17-.568,2.049,2.049,0,0,1-1.6.686,2.251,2.251,0,0,1-1.544-.539A1.734,1.734,0,0,1,50.3,9.219a1.792,1.792,0,0,1,.747-1.547A3.686,3.686,0,0,1,53.2,7.127h.779V6.764a1.045,1.045,0,0,0-.226-.7.887.887,0,0,0-.712-.264A1.009,1.009,0,0,0,52.375,6a.7.7,0,0,0-.243.563H50.438a1.7,1.7,0,0,1,.34-1.02,2.246,2.246,0,0,1,.961-.735,3.5,3.5,0,0,1,1.395-.267,2.767,2.767,0,0,1,1.86.589,2.06,2.06,0,0,1,.688,1.655V9.535a3.031,3.031,0,0,0,.252,1.365V11Zm-1.4-1.178a1.458,1.458,0,0,0,.691-.167,1.1,1.1,0,0,0,.469-.448V8.117h-.633Q52.079,8.117,52,9l-.006.1a.678.678,0,0,0,.223.521A.865.865,0,0,0,52.823,9.822Zm3.9-2.039a3.821,3.821,0,0,1,.665-2.361A2.158,2.158,0,0,1,59.2,4.543a1.942,1.942,0,0,1,1.529.691V2h1.7v9H60.9l-.082-.674a1.993,1.993,0,0,1-1.629.791,2.152,2.152,0,0,1-1.8-.882A3.944,3.944,0,0,1,56.72,7.783Zm1.693.126a2.5,2.5,0,0,0,.311,1.367,1.012,1.012,0,0,0,.9.475,1.133,1.133,0,0,0,1.107-.663V6.583a1.117,1.117,0,0,0-1.1-.663Q58.413,5.92,58.413,7.909Zm5.068-.138a3.76,3.76,0,0,1,.363-1.682,2.659,2.659,0,0,1,1.046-1.143,3.051,3.051,0,0,1,1.585-.4,2.887,2.887,0,0,1,2.095.785,3.151,3.151,0,0,1,.905,2.133l.012.434a3.314,3.314,0,0,1-.814,2.341,3.157,3.157,0,0,1-4.374,0,3.372,3.372,0,0,1-.817-2.391Zm1.693.12a2.37,2.37,0,0,0,.34,1.382,1.221,1.221,0,0,0,1.934.006,2.593,2.593,0,0,0,.346-1.511A2.346,2.346,0,0,0,67.448,6.4a1.124,1.124,0,0,0-.973-.487,1.105,1.105,0,0,0-.961.484A2.637,2.637,0,0,0,65.175,7.892Zm8.918-1.644a4.6,4.6,0,0,0-.609-.047,1.24,1.24,0,0,0-1.26.65V11H70.53V4.66h1.6l.047.756a1.569,1.569,0,0,1,1.412-.873,1.774,1.774,0,0,1,.527.076Z" transform="translate(-3396.179 -5348.038)" fill="#12263f"/>
    <path id="Trazado_732698" data-name="Trazado 732698" d="M23.772,2.469l2.191,6.188,2.18-6.187h2.309V11H28.688V8.668l.176-4.025L26.562,11H25.354l-2.3-6.352.176,4.02V11H21.476V2.469Zm11.9,7.887a2.124,2.124,0,0,1-1.734.762,2,2,0,0,1-1.556-.586,2.5,2.5,0,0,1-.548-1.717V4.66h1.693v4.1q0,.991.9.991a1.223,1.223,0,0,0,1.184-.6V4.66h1.7V11H35.72Zm5.836.762a3.112,3.112,0,0,1-2.271-.855,3.041,3.041,0,0,1-.876-2.279V7.818a3.83,3.83,0,0,1,.369-1.708,2.709,2.709,0,0,1,1.046-1.16,2.936,2.936,0,0,1,1.544-.407,2.631,2.631,0,0,1,2.048.82,3.333,3.333,0,0,1,.747,2.326v.691H40.079a1.573,1.573,0,0,0,.5,1,1.5,1.5,0,0,0,1.046.375,1.828,1.828,0,0,0,1.529-.709l.832.932a2.542,2.542,0,0,1-1.031.841A3.383,3.383,0,0,1,41.509,11.117Zm-.193-5.209a1.058,1.058,0,0,0-.817.341,1.768,1.768,0,0,0-.4.977h2.355V7.091a1.261,1.261,0,0,0-.3-.874A1.092,1.092,0,0,0,41.315,5.908Zm7.2,3.34a.546.546,0,0,0-.308-.489,3.494,3.494,0,0,0-.987-.319q-2.262-.475-2.262-1.922a1.742,1.742,0,0,1,.7-1.409,2.825,2.825,0,0,1,1.831-.565,3.04,3.04,0,0,1,1.931.568,1.791,1.791,0,0,1,.724,1.477H48.446a.819.819,0,0,0-.234-.6.992.992,0,0,0-.732-.237,1.013,1.013,0,0,0-.662.193.61.61,0,0,0-.234.492.522.522,0,0,0,.267.454,2.743,2.743,0,0,0,.9.3,7.346,7.346,0,0,1,1.066.284,1.752,1.752,0,0,1,1.342,1.705,1.654,1.654,0,0,1-.744,1.4,3.21,3.21,0,0,1-1.922.536,3.353,3.353,0,0,1-1.415-.284,2.374,2.374,0,0,1-.97-.779,1.811,1.811,0,0,1-.352-1.069H46.36a.884.884,0,0,0,.334.691,1.325,1.325,0,0,0,.832.24,1.226,1.226,0,0,0,.735-.185A.574.574,0,0,0,48.511,9.248ZM53.274,3.1V4.66h1.084V5.9H53.274V9.066a.756.756,0,0,0,.135.5.677.677,0,0,0,.516.152,2.7,2.7,0,0,0,.5-.041v1.283a3.486,3.486,0,0,1-1.025.152,1.617,1.617,0,0,1-1.816-1.8V5.9h-.926V4.66h.926V3.1Zm5.59,3.146a4.6,4.6,0,0,0-.609-.047,1.24,1.24,0,0,0-1.26.65V11H55.3V4.66h1.6l.047.756a1.569,1.569,0,0,1,1.412-.873,1.774,1.774,0,0,1,.527.076ZM63.177,11a1.88,1.88,0,0,1-.17-.568,2.049,2.049,0,0,1-1.6.686,2.251,2.251,0,0,1-1.544-.539,1.734,1.734,0,0,1-.612-1.359A1.792,1.792,0,0,1,60,7.672a3.686,3.686,0,0,1,2.159-.545h.779V6.764a1.045,1.045,0,0,0-.226-.7A.887.887,0,0,0,62,5.8,1.009,1.009,0,0,0,61.328,6a.7.7,0,0,0-.243.563H59.392a1.7,1.7,0,0,1,.34-1.02,2.246,2.246,0,0,1,.961-.735,3.5,3.5,0,0,1,1.395-.267,2.767,2.767,0,0,1,1.86.589,2.06,2.06,0,0,1,.688,1.655V9.535a3.031,3.031,0,0,0,.252,1.365V11Zm-1.4-1.178a1.458,1.458,0,0,0,.691-.167,1.1,1.1,0,0,0,.469-.448V8.117H62.3q-1.271,0-1.354.879l-.006.1a.678.678,0,0,0,.223.521A.865.865,0,0,0,61.776,9.822Z" transform="matrix(1, 0, 0, 1, -3524.483, -5325.52)" fill="#12263f"/>
    <g id="Grupo_986898" data-name="Grupo 986898" transform="translate(-4793.038 1139.9) rotate(45)">
      <path id="Trazado_731200" data-name="Trazado 731200" d="M-3714.1-6244.74c5.385-8.556,11.034-8.33,12.771-26.4s-.215-39.012-23.026-41.016c-29.32-2.576-31.977,18.034-31.4,22.148a9.177,9.177,0,0,0,2.846,5.865l-10.8,18.492h10.8v23.623h17.521v14.266h21.284Z" transform="translate(3461.94 -3836.618) rotate(-45)" fill="#fcdada" stroke="#12263f" stroke-width="1"/>
      <path id="Trazado_731202" data-name="Trazado 731202" d="M5,0c2.761,0,5,2.8,5,2.8S7.761,5.6,5,5.6,0,2.8,0,2.8,2.239,0,5,0Z" transform="translate(-3635.999 -5629.841) rotate(-45)" fill="#fff"/>
      <g id="Enmascarar_grupo_550" data-name="Enmascarar grupo 550" transform="translate(-8082.993 -8837.984) rotate(-45)" clip-path="url(#clip-path)">
        <circle id="Elipse_5995" data-name="Elipse 5995" cx="2.5" cy="2.5" r="2.5" transform="translate(876 5413)" fill="#bad0eb"/>
        <circle id="Elipse_5996" data-name="Elipse 5996" cx="1.5" cy="1.5" r="1.5" transform="translate(875 5414)"/>
      </g>
    </g>
    <g id="Trazado_732699" data-name="Trazado 732699" transform="translate(-3507.622 -5325.531) rotate(-90)" fill="#9f0925">
      <path d="M 5.5 64.5 L 0.5 64.5 L 0.5 0.5 L 5.5 0.5 L 5.5 64.5 Z" stroke="none"/>
      <path d="M 1 1 L 1 64 L 5 64 L 5 1 L 1 1 M 0 0 L 6 0 L 6 65 L 0 65 L 0 0 Z" stroke="none" fill="#12263f"/>
    </g>
    <g id="Grupo_986896" data-name="Grupo 986896" transform="translate(-8769.196 -4587.818) rotate(-90)">
      <g id="Elipse_5990" data-name="Elipse 5990" transform="translate(849.298 5282.196)" fill="#ffd800" stroke="#12263f" stroke-width="1">
        <circle cx="8.459" cy="8.459" r="8.459" stroke="none"/>
        <circle cx="8.459" cy="8.459" r="7.959" fill="none"/>
      </g>
    </g>
    <path id="Trazado_731219" data-name="Trazado 731219" d="M-3636.741-5533.919s-6.652-5.06,1.5-11.911" transform="matrix(0.809, 0.588, -0.588, 0.809, -3737.809, 1288.255)" fill="none" stroke="#12263f" stroke-width="1"/>
    <path id="Trazado_732700" data-name="Trazado 732700" d="M0,0V111" transform="translate(-3475.977 -5325.852) rotate(-135)" fill="none" stroke="#12263f" stroke-width="1"/>
    <path id="Trazado_732701" data-name="Trazado 732701" d="M0,0V95" transform="translate(-3479.5 -5421.5)" fill="none" stroke="#12263f" stroke-width="1"/>
    <path id="Trazado_731221" data-name="Trazado 731221" d="M-3710.943-5084.531h124.92V-5173.3" transform="translate(167 -241)" fill="none" stroke="#12263f" stroke-width="1"/>
    <path id="Trazado_732702" data-name="Trazado 732702" d="M-.031-4.7,1.61-7.4H3.086L.667-3.739,3.162,0H1.7L-.01-2.769-1.719,0h-1.47l2.5-3.739L-3.114-7.4h1.463Z" transform="translate(-3401 -5357)" fill="#12263f"/>
    <path id="Trazado_732703" data-name="Trazado 732703" d="M-.031-4.7,1.61-7.4H3.086L.667-3.739,3.162,0H1.7L-.01-2.769-1.719,0h-1.47l2.5-3.739L-3.114-7.4h1.463Z" transform="translate(-3437 -5316)" fill="#12263f"/>
  </g>
</svg>
