<svg xmlns="http://www.w3.org/2000/svg" width="79" height="107.526" viewBox="0 0 79 107.526">
  <g id="_6" data-name="6" transform="translate(0 0.489)">
    <g id="Grupo_985825" data-name="Grupo 985825" transform="translate(0 -0.489)">
      <path id="Rectángulo_338972" data-name="Rectángulo 338972" d="M0,0H79a0,0,0,0,1,0,0V71.526a36,36,0,0,1-36,36H36a36,36,0,0,1-36-36V0A0,0,0,0,1,0,0Z" fill="#ff6e33"/>
    </g>
    <g id="textil" transform="translate(11 25.511)">
      <path id="Trazado_730054" data-name="Trazado 730054" d="M145.611,461.4H108.633v-3.343H148.54v.413A2.93,2.93,0,0,1,145.611,461.4Z" transform="translate(-96.723 -407.078)" fill="#fde21b"/>
      <g id="Grupo_986725" data-name="Grupo 986725" transform="translate(9.398 50.981)">
        <path id="Trazado_730055" data-name="Trazado 730055" d="M415.644,458.059v.414a2.93,2.93,0,0,1-2.93,2.93h3.134a2.93,2.93,0,0,0,2.93-2.93v-.414Z" transform="translate(-376.359 -458.059)" fill="#ffec76"/>
        <path id="Trazado_730056" data-name="Trazado 730056" d="M88.995,458.059v.414a2.93,2.93,0,0,1-2.93,2.93H89.2a2.93,2.93,0,0,0,2.93-2.93v-.414Z" transform="translate(-86.065 -458.059)" fill="#ffec76"/>
      </g>
      <rect id="Rectángulo_344558" data-name="Rectángulo 344558" width="41.376" height="3.078" transform="translate(6.895 53.906)" fill="#fde21b"/>
      <rect id="Rectángulo_344559" data-name="Rectángulo 344559" width="31.131" height="9.611" transform="translate(3.134 26.952)" fill="#ebc91a"/>
      <path id="Trazado_730057" data-name="Trazado 730057" d="M102.652,306.584v-6.63a3.343,3.343,0,0,0-3.343-3.343H61.7l3.343,2.507.209,9.193h37.609Z" transform="translate(-55.014 -263.599)" fill="#fde21b"/>
      <path id="Trazado_730058" data-name="Trazado 730058" d="M372.926,306.584v-6.63a3.343,3.343,0,0,0-3.343-3.343h-3.761a3.343,3.343,0,0,1,3.343,3.343v6.63l.209,1.727h3.761Z" transform="translate(-325.288 -263.599)" fill="#ffec76"/>
      <path id="Trazado_730059" data-name="Trazado 730059" d="M129.283,384.845h37.4a4.179,4.179,0,0,1,0,8.358h-37.4" transform="translate(-115.075 -342.013)" fill="#fde21b"/>
      <g id="Grupo_986726" data-name="Grupo 986726" transform="translate(6.686 33.012)">
        <path id="Trazado_730060" data-name="Trazado 730060" d="M421.94,384.845h-5.432a4.179,4.179,0,0,1,0,8.358h5.432a4.179,4.179,0,0,0,0-8.358Z" transform="translate(-377.019 -375.025)" fill="#ffec76"/>
        <path id="Trazado_730061" data-name="Trazado 730061" d="M136.592,384.845H131.16a4.179,4.179,0,0,1,0,8.358h5.432a4.179,4.179,0,0,0,0-8.358Z" transform="translate(-123.429 -375.025)" fill="#ffec76"/>
        <path id="Trazado_730062" data-name="Trazado 730062" d="M68.8,306.584v-6.63a3.343,3.343,0,0,0-3.343-3.343H61.7a3.343,3.343,0,0,1,3.343,3.343v6.63l.209,1.727h3.761Z" transform="translate(-61.7 -296.611)" fill="#ffec76"/>
      </g>
      <g id="Grupo_986727" data-name="Grupo 986727" transform="translate(3.342 33.012)">
        <circle id="Elipse_5959" data-name="Elipse 5959" cx="3.343" cy="3.343" r="3.343" fill="#e3f0fb"/>
        <circle id="Elipse_5960" data-name="Elipse 5960" cx="4.179" cy="4.179" r="4.179" transform="translate(6.686 9.82)" fill="#e3f0fb"/>
        <circle id="Elipse_5961" data-name="Elipse 5961" cx="2.507" cy="2.507" r="2.507" transform="translate(3.761 16.506)" fill="#e3f0fb"/>
      </g>
      <path id="Trazado_730063" data-name="Trazado 730063" d="M84.228,7.509H109.3a5.85,5.85,0,0,1,5.85,5.85V30.074a5.85,5.85,0,0,1-5.85,5.85H84.228" transform="translate(-75.035 -6.673)" fill="#fde21b"/>
      <path id="Trazado_730064" data-name="Trazado 730064" d="M279.061,7.509h-3.812a5.85,5.85,0,0,1,5.85,5.85V30.074a5.85,5.85,0,0,1-5.85,5.85h3.812a5.85,5.85,0,0,0,5.85-5.85V13.359A5.85,5.85,0,0,0,279.061,7.509Z" transform="translate(-244.796 -6.673)" fill="#ffec76"/>
      <path id="Trazado_730065" data-name="Trazado 730065" d="M33.32,11.9a5.853,5.853,0,0,1,5.666-4.388h0a5.85,5.85,0,0,1,5.85,5.85V30.074a5.85,5.85,0,0,1-5.85,5.85h0a5.853,5.853,0,0,1-5.542-3.97" transform="translate(-29.793 -6.673)" fill="#ebc91a"/>
      <path id="Trazado_730066" data-name="Trazado 730066" d="M89.917,7.509H86.105a5.85,5.85,0,0,1,5.85,5.85V30.074a5.85,5.85,0,0,1-5.85,5.85h3.812a5.85,5.85,0,0,0,5.85-5.85V13.359A5.85,5.85,0,0,0,89.917,7.509Z" transform="translate(-76.703 -6.673)" fill="#ffec76"/>
      <g id="Grupo_986728" data-name="Grupo 986728" transform="translate(2.507 5.015)">
        <path id="Trazado_730067" data-name="Trazado 730067" d="M24.154,45.055H30.84a1.671,1.671,0,0,1,1.671,1.671V63.441a1.671,1.671,0,0,1-1.671,1.671H24.154" transform="translate(-24.154 -45.055)" fill="#afc4d9"/>
        <path id="Trazado_730068" data-name="Trazado 730068" d="M356.435,45.055h3.134a1.672,1.672,0,0,1,1.671,1.671V63.441a1.672,1.672,0,0,1-1.671,1.671h-3.134" transform="translate(-319.453 -45.055)" fill="#afc4d9"/>
      </g>
      <path id="Trazado_730069" data-name="Trazado 730069" d="M10.807,45.055h0a1.671,1.671,0,0,1,1.671,1.671V63.441a1.671,1.671,0,0,1-1.671,1.671h0a1.671,1.671,0,0,1-1.671-1.671V46.726A1.671,1.671,0,0,1,10.807,45.055Z" transform="translate(-8.3 -40.04)" fill="#e3f0fb"/>
      <g id="Grupo_986729" data-name="Grupo 986729" transform="translate(6.685 7.73)">
        <rect id="Rectángulo_344560" data-name="Rectángulo 344560" width="1.671" height="1.671" fill="#fff"/>
        <rect id="Rectángulo_344561" data-name="Rectángulo 344561" width="1.671" height="1.671" transform="translate(0 6.686)" fill="#fff"/>
      </g>
      <rect id="Rectángulo_344562" data-name="Rectángulo 344562" width="1.671" height="1.671" transform="translate(5.85 35.52)"/>
      <path id="Trazado_730070" data-name="Trazado 730070" d="M58.249,47.011A5.02,5.02,0,0,0,53.235,42H50.1V36.355a4.184,4.184,0,0,0-4.179-4.179H36.729V30.033a6.7,6.7,0,0,0,5.361-4.125H44.25A2.51,2.51,0,0,0,46.758,23.4V6.686A2.51,2.51,0,0,0,44.25,4.179H42.089A6.7,6.7,0,0,0,35.893,0H10.82a6.684,6.684,0,0,0-6.2,4.179H4.134A2.51,2.51,0,0,0,1.627,6.686V23.4a2.51,2.51,0,0,0,2.507,2.507V36.355A4.176,4.176,0,0,0,10.82,39.7v7.733h.019a4.969,4.969,0,0,0,.27,1.257A3.347,3.347,0,0,0,7.9,52.026v4.959H9.567V54.919a3.321,3.321,0,0,0,1.671.45H49.22v1.616h1.671V55.369h.125a3.347,3.347,0,0,0,3.342-3.252l.047-.23A5.022,5.022,0,0,0,58.249,47.011Zm-9.82-10.656V42H15.835a4.994,4.994,0,0,0-3.343,1.281V36.355a4.156,4.156,0,0,0-.838-2.507H45.922A2.51,2.51,0,0,1,48.429,36.355ZM19.178,47.011a3.343,3.343,0,1,1-3.343-3.343A3.347,3.347,0,0,1,19.178,47.011ZM8.313,32.176a4.156,4.156,0,0,0-2.507.838V27.826a6.685,6.685,0,0,0,5.015,2.261H35.057v2.089ZM6.5,5.85H10.82a.837.837,0,0,1,.836.836V23.4a.837.837,0,0,1-.836.836H6.5a2.494,2.494,0,0,0,.144-.836V6.686A2.5,2.5,0,0,0,6.5,5.85Zm37.753,0a.837.837,0,0,1,.836.836V23.4a.837.837,0,0,1-.836.836H42.525a6.724,6.724,0,0,0,.054-.836V6.686a6.7,6.7,0,0,0-.054-.836H44.25ZM35.893,1.671a5.02,5.02,0,0,1,5.015,5.015V23.4a5.02,5.02,0,0,1-4.687,5,6.88,6.88,0,0,0,2.388-5.212V12.745H36.938V23.192a5.229,5.229,0,0,1-5.223,5.223H15.236A6.67,6.67,0,0,0,17.506,23.4V6.686a6.67,6.67,0,0,0-2.245-4.992,5.23,5.23,0,0,1,4.752,5.2V17.342h1.671V6.895a6.88,6.88,0,0,0-2.4-5.223h16.61Zm-25.073,0a5.02,5.02,0,0,1,5.015,5.015V23.4a5.016,5.016,0,0,1-9.359,2.507H10.82A2.51,2.51,0,0,0,13.328,23.4V6.686A2.51,2.51,0,0,0,10.82,4.179H6.476A5.014,5.014,0,0,1,10.82,1.671ZM3.3,23.4V6.686a.836.836,0,1,1,1.671,0V23.4a.836.836,0,0,1-1.671,0ZM8.313,38.862a2.507,2.507,0,1,1,2.507-2.507A2.51,2.51,0,0,1,8.313,38.862ZM9.567,52.026A1.671,1.671,0,1,1,11.238,53.7,1.673,1.673,0,0,1,9.567,52.026ZM51.017,53.7H14.131a3.321,3.321,0,0,0,.45-1.671c0-.054,0-.107,0-.16a5.008,5.008,0,0,0,1.258.16H52.688A1.673,1.673,0,0,1,51.017,53.7Zm2.218-3.343H19.568a5,5,0,0,0,0-6.686H53.235a3.343,3.343,0,0,1,0,6.686Z" transform="translate(-1.627)"/>
      <rect id="Rectángulo_344563" data-name="Rectángulo 344563" width="1.671" height="1.671" transform="translate(13.372 46.175)"/>
      <rect id="Rectángulo_344564" data-name="Rectángulo 344564" width="1.671" height="1.671" transform="translate(18.386 19.013)"/>
      <rect id="Rectángulo_344565" data-name="Rectángulo 344565" width="1.671" height="1.671" transform="translate(35.311 9.402)"/>
      <rect id="Rectángulo_344566" data-name="Rectángulo 344566" width="11.7" height="1.671" transform="translate(14.207 35.31)"/>
      <rect id="Rectángulo_344567" data-name="Rectángulo 344567" width="5.015" height="1.671" transform="translate(27.579 35.31)"/>
      <rect id="Rectángulo_344568" data-name="Rectángulo 344568" width="1.462" height="1.671" transform="translate(34.265 35.31)"/>
      <rect id="Rectángulo_344569" data-name="Rectángulo 344569" width="14.208" height="1.671" transform="translate(21.729 45.339)"/>
      <rect id="Rectángulo_344570" data-name="Rectángulo 344570" width="4.179" height="1.671" transform="translate(37.608 45.339)"/>
      <rect id="Rectángulo_344571" data-name="Rectángulo 344571" width="1.671" height="1.671" transform="translate(43.459 45.339)"/>
      <rect id="Rectángulo_344572" data-name="Rectángulo 344572" width="1.671" height="1.671" transform="translate(6.685 11.073)"/>
      <rect id="Rectángulo_344573" data-name="Rectángulo 344573" width="1.671" height="1.671" transform="translate(6.685 17.759)"/>
      <rect id="Rectángulo_344574" data-name="Rectángulo 344574" width="1.671" height="1.671" transform="translate(6.685 21.102)" fill="#fff"/>
    </g>
  </g>
</svg>
