<svg xmlns="http://www.w3.org/2000/svg" width="317" height="120" viewBox="0 0 317 120">
  <g id="_10" data-name="10" transform="translate(-950 -4803)">
    <g id="Rectángulo_344976" data-name="Rectángulo 344976" transform="translate(950 4839)" fill="none" stroke="#000" stroke-width="1">
      <rect width="43" height="46" stroke="none"/>
      <rect x="0.5" y="0.5" width="42" height="45" fill="none"/>
    </g>
    <g id="Rectángulo_345038" data-name="Rectángulo 345038" transform="translate(1039 4839)" fill="none" stroke="#000" stroke-width="1">
      <rect width="45" height="46" stroke="none"/>
      <rect x="0.5" y="0.5" width="44" height="45" fill="none"/>
    </g>
    <g id="Rectángulo_345052" data-name="Rectángulo 345052" transform="translate(1131 4803)" fill="none" stroke="#000" stroke-width="1">
      <rect width="136" height="120" stroke="none"/>
      <rect x="0.5" y="0.5" width="135" height="119" fill="none"/>
    </g>
    <rect id="Rectángulo_344977" data-name="Rectángulo 344977" width="4" height="7" transform="translate(951.518 4866.469) rotate(-30)" fill="#0e700f"/>
    <rect id="Rectángulo_344978" data-name="Rectángulo 344978" width="3" height="7" transform="translate(956.857 4874.167) rotate(43)" fill="#0e700f"/>
    <rect id="Rectángulo_344979" data-name="Rectángulo 344979" width="3" height="7" transform="translate(959.833 4876.066) rotate(-22)" fill="#0e700f"/>
    <rect id="Rectángulo_344980" data-name="Rectángulo 344980" width="3" height="7" transform="translate(968.058 4868.501) rotate(25)" fill="#0e700f"/>
    <rect id="Rectángulo_344981" data-name="Rectángulo 344981" width="3" height="7" transform="matrix(1, -0.017, 0.017, 1, 972.055, 4874.276)" fill="#0e700f"/>
    <rect id="Rectángulo_344984" data-name="Rectángulo 344984" width="3" height="7" transform="matrix(1, -0.017, 0.017, 1, 983.517, 4868.553)" fill="#0e700f"/>
    <rect id="Rectángulo_344985" data-name="Rectángulo 344985" width="1.75" height="7" transform="matrix(0.035, -0.999, 0.999, 0.035, 1052.924, 4846.756)" fill="#0e700f"/>
    <rect id="Rectángulo_344991" data-name="Rectángulo 344991" width="1.75" height="7" transform="translate(1051.703 4855.507)" fill="#0e700f"/>
    <rect id="Rectángulo_344992" data-name="Rectángulo 344992" width="1.75" height="7" transform="translate(1059.98 4850.507)" fill="#0e700f"/>
    <rect id="Rectángulo_344993" data-name="Rectángulo 344993" width="1.75" height="7" transform="translate(1079.98 4845.5)" fill="#0e700f"/>
    <rect id="Rectángulo_344994" data-name="Rectángulo 344994" width="1.75" height="7" transform="translate(1071.635 4846.003)" fill="#0e700f"/>
    <rect id="Rectángulo_344995" data-name="Rectángulo 344995" width="1.75" height="7" transform="translate(1076.635 4868.552)" fill="#0e700f"/>
    <rect id="Rectángulo_345006" data-name="Rectángulo 345006" width="1.75" height="7" transform="translate(1156.25 4882.552)" fill="#0e700f"/>
    <rect id="Rectángulo_345007" data-name="Rectángulo 345007" width="1.75" height="7" transform="translate(1172.25 4872.052)" fill="#0e700f"/>
    <rect id="Rectángulo_345008" data-name="Rectángulo 345008" width="1.75" height="7" transform="translate(1156.25 4844.804)" fill="#0e700f"/>
    <rect id="Rectángulo_345009" data-name="Rectángulo 345009" width="1.75" height="7" transform="translate(1168.25 4830.804)" fill="#0e700f"/>
    <rect id="Rectángulo_345010" data-name="Rectángulo 345010" width="1.75" height="7" transform="translate(1182.25 4808.804)" fill="#0e700f"/>
    <rect id="Rectángulo_345011" data-name="Rectángulo 345011" width="1.75" height="7" transform="translate(1195.25 4812.304)" fill="#0e700f"/>
    <rect id="Rectángulo_345012" data-name="Rectángulo 345012" width="1.75" height="7" transform="translate(1230 4808)" fill="#0e700f"/>
    <rect id="Rectángulo_345013" data-name="Rectángulo 345013" width="1.75" height="7" transform="translate(1257 4811.5)" fill="#0e700f"/>
    <rect id="Rectángulo_345014" data-name="Rectángulo 345014" width="1.75" height="7" transform="translate(1242 4853)" fill="#0e700f"/>
    <rect id="Rectángulo_345015" data-name="Rectángulo 345015" width="1.75" height="7" transform="translate(1197 4847)" fill="#0e700f"/>
    <rect id="Rectángulo_345016" data-name="Rectángulo 345016" width="1.75" height="7" transform="translate(1167.235 4851)" fill="#0e700f"/>
    <rect id="Rectángulo_345017" data-name="Rectángulo 345017" width="1.75" height="7" transform="translate(1144.235 4811.5)" fill="#0e700f"/>
    <rect id="Rectángulo_345018" data-name="Rectángulo 345018" width="1.75" height="7" transform="translate(1143.36 4910.5)" fill="#0e700f"/>
    <rect id="Rectángulo_345019" data-name="Rectángulo 345019" width="1.75" height="7" transform="translate(1228.25 4892)" fill="#0e700f"/>
    <rect id="Rectángulo_345020" data-name="Rectángulo 345020" width="1.75" height="7" transform="translate(1243.75 4895.5)" fill="#0e700f"/>
    <rect id="Rectángulo_345039" data-name="Rectángulo 345039" width="1.75" height="7" transform="translate(1219.967 4877.75)" fill="#0e700f"/>
    <rect id="Rectángulo_345042" data-name="Rectángulo 345042" width="1.75" height="7" transform="translate(1207.785 4874.453)" fill="#0e700f"/>
    <rect id="Rectángulo_345043" data-name="Rectángulo 345043" width="1.75" height="7" transform="translate(1172.5 4897.334)" fill="#0e700f"/>
    <rect id="Rectángulo_345051" data-name="Rectángulo 345051" width="1.75" height="7" transform="translate(1187.057 4892.473) rotate(47)" fill="#0e700f"/>
    <rect id="Rectángulo_345044" data-name="Rectángulo 345044" width="1.75" height="7" transform="translate(1177.125 4888.907)" fill="#0e700f"/>
    <rect id="Rectángulo_345037" data-name="Rectángulo 345037" width="1.75" height="7" transform="translate(1249.562 4905.5)" fill="#0e700f"/>
    <rect id="Rectángulo_344996" data-name="Rectángulo 344996" width="1.75" height="7" transform="translate(1056.105 4869.031)" fill="#0e700f"/>
    <rect id="Rectángulo_344997" data-name="Rectángulo 344997" width="1.75" height="7" transform="translate(1060.146 4873.51)" fill="#0e700f"/>
    <rect id="Rectángulo_344998" data-name="Rectángulo 344998" width="1.75" height="7" transform="translate(1040.924 4871.077) rotate(-38)" fill="#0e700f"/>
    <rect id="Rectángulo_345003" data-name="Rectángulo 345003" width="1.75" height="7" transform="matrix(-0.788, -0.616, 0.616, -0.788, 1049.27, 4881.046)" fill="#0e700f"/>
    <rect id="Rectángulo_345004" data-name="Rectángulo 345004" width="1.75" height="7" transform="matrix(-0.788, -0.616, 0.616, -0.788, 1070.36, 4880.307)" fill="#0e700f"/>
    <rect id="Rectángulo_345005" data-name="Rectángulo 345005" width="1.75" height="7" transform="matrix(-0.788, -0.616, 0.616, -0.788, 1062.234, 4848.304)" fill="#0e700f"/>
    <rect id="Rectángulo_345030" data-name="Rectángulo 345030" width="1.75" height="7" transform="matrix(-0.788, -0.616, 0.616, -0.788, 1252.69, 4833.297)" fill="#0e700f"/>
    <rect id="Rectángulo_345031" data-name="Rectángulo 345031" width="1.75" height="7" transform="matrix(-0.788, -0.616, 0.616, -0.788, 1219.69, 4833.297)" fill="#0e700f"/>
    <rect id="Rectángulo_345032" data-name="Rectángulo 345032" width="1.75" height="7" transform="matrix(-0.788, -0.616, 0.616, -0.788, 1176.535, 4830)" fill="#0e700f"/>
    <rect id="Rectángulo_345033" data-name="Rectángulo 345033" width="1.75" height="7" transform="matrix(-0.788, -0.616, 0.616, -0.788, 1184.504, 4851)" fill="#0e700f"/>
    <rect id="Rectángulo_345034" data-name="Rectángulo 345034" width="1.75" height="7" transform="matrix(-0.788, -0.616, 0.616, -0.788, 1140.801, 4902.5)" fill="#0e700f"/>
    <rect id="Rectángulo_345035" data-name="Rectángulo 345035" width="1.75" height="7" transform="matrix(-0.788, -0.616, 0.616, -0.788, 1257.285, 4917.093)" fill="#0e700f"/>
    <rect id="Rectángulo_344999" data-name="Rectángulo 344999" width="1.75" height="7" transform="translate(1044.236 4856.584) rotate(-38)" fill="#0e700f"/>
    <rect id="Rectángulo_345000" data-name="Rectángulo 345000" width="1.75" height="7" transform="translate(1044.453 4846.453) rotate(-38)" fill="#0e700f"/>
    <rect id="Rectángulo_345001" data-name="Rectángulo 345001" width="1.75" height="7" transform="translate(1064.514 4846.78) rotate(-38)" fill="#0e700f"/>
    <rect id="Rectángulo_345002" data-name="Rectángulo 345002" width="1.75" height="7" transform="translate(1075.873 4857.077) rotate(-38)" fill="#0e700f"/>
    <rect id="Rectángulo_345021" data-name="Rectángulo 345021" width="1.75" height="7" transform="translate(1139.422 4840.487) rotate(-38)" fill="#0e700f"/>
    <rect id="Rectángulo_345022" data-name="Rectángulo 345022" width="1.75" height="7" transform="translate(1162.422 4817.084) rotate(-38)" fill="#0e700f"/>
    <rect id="Rectángulo_345023" data-name="Rectángulo 345023" width="1.75" height="7" transform="translate(1190 4832.084) rotate(-38)" fill="#0e700f"/>
    <rect id="Rectángulo_345024" data-name="Rectángulo 345024" width="1.75" height="7" transform="translate(1192.406 4887.374) rotate(-38)" fill="#0e700f"/>
    <rect id="Rectángulo_345036" data-name="Rectángulo 345036" width="1.75" height="7" transform="translate(1237.656 4911.577) rotate(-38)" fill="#0e700f"/>
    <rect id="Rectángulo_345025" data-name="Rectángulo 345025" width="1.75" height="7" transform="translate(1138.547 4875.53) rotate(-38)" fill="#0e700f"/>
    <rect id="Rectángulo_345026" data-name="Rectángulo 345026" width="1.75" height="7" transform="translate(1182.25 4911.577) rotate(-38)" fill="#0e700f"/>
    <rect id="Rectángulo_345027" data-name="Rectángulo 345027" width="1.75" height="7" transform="translate(1204.312 4911.984) rotate(-38)" fill="#0e700f"/>
    <rect id="Rectángulo_345028" data-name="Rectángulo 345028" width="1.75" height="7" transform="translate(1249.312 4884.787) rotate(-38)" fill="#0e700f"/>
    <rect id="Rectángulo_345047" data-name="Rectángulo 345047" width="1.75" height="7" transform="matrix(-0.788, -0.616, 0.616, -0.788, 1214.565, 4879.328)" fill="#0e700f"/>
    <rect id="Rectángulo_345049" data-name="Rectángulo 345049" width="1.75" height="7" transform="matrix(-0.788, -0.616, 0.616, -0.788, 1195.688, 4884.296)" fill="#0e700f"/>
    <rect id="Rectángulo_345050" data-name="Rectángulo 345050" width="1.75" height="7" transform="matrix(-0.788, -0.616, 0.616, -0.788, 1185.69, 4890.196)" fill="#0e700f"/>
    <rect id="Rectángulo_345048" data-name="Rectángulo 345048" width="1.75" height="7" transform="matrix(-0.788, -0.616, 0.616, -0.788, 1229.379, 4879.325)" fill="#0e700f"/>
    <rect id="Rectángulo_345041" data-name="Rectángulo 345041" width="1.75" height="7" transform="matrix(-0.788, -0.616, 0.616, -0.788, 1238.719, 4882.146)" fill="#0e700f"/>
    <rect id="Rectángulo_345040" data-name="Rectángulo 345040" width="1.75" height="7" transform="translate(1225.368 4881.384) rotate(-38)" fill="#0e700f"/>
    <rect id="Rectángulo_345045" data-name="Rectángulo 345045" width="1.75" height="7" transform="translate(1199.998 4883.833) rotate(-38)" fill="#0e700f"/>
    <rect id="Rectángulo_345046" data-name="Rectángulo 345046" width="1.75" height="7" transform="translate(1166.812 4891.818) rotate(-38)" fill="#0e700f"/>
    <rect id="Rectángulo_345029" data-name="Rectángulo 345029" width="1.75" height="7" transform="translate(1251.312 4849.78) rotate(-38)" fill="#0e700f"/>
    <rect id="Rectángulo_344986" data-name="Rectángulo 344986" width="1.75" height="7" transform="matrix(0.035, -0.999, 0.999, 0.035, 1040.924, 4866.218)" fill="#0e700f"/>
    <rect id="Rectángulo_344987" data-name="Rectángulo 344987" width="1.75" height="7" transform="matrix(0.035, -0.999, 0.999, 0.035, 1049.924, 4866.218)" fill="#0e700f"/>
    <rect id="Rectángulo_344988" data-name="Rectángulo 344988" width="1.75" height="7" transform="matrix(0.035, -0.999, 0.999, 0.035, 1059.981, 4865.756)" fill="#0e700f"/>
    <rect id="Rectángulo_344989" data-name="Rectángulo 344989" width="1.75" height="7" transform="matrix(0.035, -0.999, 0.999, 0.035, 1067.038, 4860.756)" fill="#0e700f"/>
    <rect id="Rectángulo_344990" data-name="Rectángulo 344990" width="1.75" height="7" transform="matrix(0.035, -0.999, 0.999, 0.035, 1068.981, 4865.752)" fill="#0e700f"/>
    <rect id="Rectángulo_344982" data-name="Rectángulo 344982" width="3" height="7" transform="translate(974.324 4870.92) rotate(-97)" fill="#0e700f"/>
    <rect id="Rectángulo_344983" data-name="Rectángulo 344983" width="3" height="7" transform="translate(977.467 4879.811) rotate(-69)" fill="#0e700f"/>
    <path id="Trazado_732617" data-name="Trazado 732617" d="M.29-2.413a2.865,2.865,0,0,1,.5-1.771,1.618,1.618,0,0,1,1.365-.659A1.456,1.456,0,0,1,3.3-4.324V-6.75H4.575V0H3.428L3.366-.505A1.5,1.5,0,0,1,2.145.088,1.614,1.614,0,0,1,.8-.573,2.958,2.958,0,0,1,.29-2.413Zm1.27.095a1.877,1.877,0,0,0,.233,1.026.759.759,0,0,0,.677.357.85.85,0,0,0,.831-.5V-3.313a.838.838,0,0,0-.822-.5Q1.56-3.81,1.56-2.318ZM6.9,0H5.625V-4.755H6.9ZM5.55-5.985a.625.625,0,0,1,.191-.47.718.718,0,0,1,.521-.185.72.72,0,0,1,.519.185.622.622,0,0,1,.193.47.624.624,0,0,1-.2.475.722.722,0,0,1-.516.185.722.722,0,0,1-.516-.185A.624.624,0,0,1,5.55-5.985Zm4.97,4.671a.409.409,0,0,0-.231-.367,2.621,2.621,0,0,0-.74-.24q-1.7-.356-1.7-1.441a1.307,1.307,0,0,1,.525-1.057,2.118,2.118,0,0,1,1.373-.424,2.28,2.28,0,0,1,1.448.426,1.343,1.343,0,0,1,.543,1.107h-1.27a.615.615,0,0,0-.176-.45.744.744,0,0,0-.549-.178.76.76,0,0,0-.5.145.458.458,0,0,0-.176.369.391.391,0,0,0,.2.341,2.057,2.057,0,0,0,.675.224,5.51,5.51,0,0,1,.8.213,1.314,1.314,0,0,1,1.006,1.279A1.24,1.24,0,0,1,11.2-.314a2.408,2.408,0,0,1-1.441.4A2.515,2.515,0,0,1,8.695-.125,1.781,1.781,0,0,1,7.967-.71a1.358,1.358,0,0,1-.264-.8h1.2a.663.663,0,0,0,.25.519.994.994,0,0,0,.624.18.92.92,0,0,0,.552-.138A.431.431,0,0,0,10.521-1.314Zm1.854-1.107a2.82,2.82,0,0,1,.272-1.261,2,2,0,0,1,.784-.857,2.289,2.289,0,0,1,1.189-.3,2.165,2.165,0,0,1,1.571.589,2.363,2.363,0,0,1,.679,1.6l.009.325a2.485,2.485,0,0,1-.611,1.756,2.123,2.123,0,0,1-1.639.661,2.134,2.134,0,0,1-1.641-.659,2.529,2.529,0,0,1-.613-1.793Zm1.27.09A1.777,1.777,0,0,0,13.9-1.295a.841.841,0,0,0,.729.359.843.843,0,0,0,.721-.354,1.945,1.945,0,0,0,.259-1.133,1.76,1.76,0,0,0-.259-1.03.843.843,0,0,0-.729-.365.829.829,0,0,0-.721.363A1.978,1.978,0,0,0,13.645-2.331ZM19,0H17.728V-6.75H19ZM22.9-.483a1.593,1.593,0,0,1-1.3.571,1.5,1.5,0,0,1-1.167-.439,1.876,1.876,0,0,1-.411-1.288V-4.755h1.27V-1.68q0,.743.677.743a.917.917,0,0,0,.888-.449v-3.37h1.274V0h-1.2Zm4.166-.453a.833.833,0,0,0,.571-.193.677.677,0,0,0,.229-.514h1.191a1.629,1.629,0,0,1-.264.885,1.74,1.74,0,0,1-.71.624,2.221,2.221,0,0,1-1,.222A2.064,2.064,0,0,1,25.475-.56a2.565,2.565,0,0,1-.589-1.791v-.083a2.536,2.536,0,0,1,.584-1.753,2.04,2.04,0,0,1,1.6-.655,2,2,0,0,1,1.43.508,1.8,1.8,0,0,1,.547,1.351H27.861a.873.873,0,0,0-.229-.6.762.762,0,0,0-.58-.232.765.765,0,0,0-.67.323,1.875,1.875,0,0,0-.226,1.05v.132a1.9,1.9,0,0,0,.224,1.056A.775.775,0,0,0,27.062-.936ZM31.118,0H29.843V-4.755h1.274ZM29.769-5.985a.625.625,0,0,1,.191-.47.718.718,0,0,1,.521-.185A.72.72,0,0,1,31-6.456a.622.622,0,0,1,.193.47.624.624,0,0,1-.2.475.722.722,0,0,1-.516.185.722.722,0,0,1-.516-.185A.624.624,0,0,1,29.769-5.985Zm2.2,3.564a2.82,2.82,0,0,1,.272-1.261,2,2,0,0,1,.784-.857,2.289,2.289,0,0,1,1.189-.3,2.165,2.165,0,0,1,1.571.589,2.363,2.363,0,0,1,.679,1.6l.009.325a2.485,2.485,0,0,1-.611,1.756A2.123,2.123,0,0,1,34.22.088a2.134,2.134,0,0,1-1.641-.659,2.529,2.529,0,0,1-.613-1.793Zm1.27.09a1.777,1.777,0,0,0,.255,1.036.841.841,0,0,0,.729.359.843.843,0,0,0,.721-.354A1.945,1.945,0,0,0,35.2-2.424a1.76,1.76,0,0,0-.259-1.03.843.843,0,0,0-.729-.365.829.829,0,0,0-.721.363A1.978,1.978,0,0,0,33.236-2.331ZM34.462-6.75h1.384L34.629-5.388H33.6Zm3.959,2,.04.549a1.66,1.66,0,0,1,1.367-.637,1.38,1.38,0,0,1,1.125.444,2.071,2.071,0,0,1,.378,1.327V0h-1.27V-3.041a.824.824,0,0,0-.176-.587A.787.787,0,0,0,39.3-3.81a.874.874,0,0,0-.8.457V0h-1.27V-4.755Z" transform="translate(993 4856)"/>
    <path id="Trazado_732616" data-name="Trazado 732616" d="M2.008-5.924v1.169h.813v.932H2.008V-1.45a.567.567,0,0,0,.1.378A.508.508,0,0,0,2.5-.958,2.025,2.025,0,0,0,2.87-.989v.962A2.615,2.615,0,0,1,2.1.088,1.213,1.213,0,0,1,.738-1.261V-3.823H.044v-.932H.738V-5.924ZM5.717.088a2.334,2.334,0,0,1-1.7-.642,2.281,2.281,0,0,1-.657-1.709v-.123a2.872,2.872,0,0,1,.277-1.281,2.032,2.032,0,0,1,.784-.87,2.2,2.2,0,0,1,1.158-.305,1.973,1.973,0,0,1,1.536.615,2.5,2.5,0,0,1,.56,1.745v.519H4.645a1.18,1.18,0,0,0,.371.747A1.123,1.123,0,0,0,5.8-.936a1.371,1.371,0,0,0,1.147-.532l.624.7A1.907,1.907,0,0,1,6.8-.138,2.538,2.538,0,0,1,5.717.088ZM5.572-3.819a.794.794,0,0,0-.613.256,1.326,1.326,0,0,0-.3.733H6.425v-.1A.946.946,0,0,0,6.2-3.587.819.819,0,0,0,5.572-3.819Zm3.99-.936.04.549a1.66,1.66,0,0,1,1.367-.637,1.38,1.38,0,0,1,1.125.444,2.071,2.071,0,0,1,.378,1.327V0H11.2V-3.041a.824.824,0,0,0-.176-.587.787.787,0,0,0-.584-.182.874.874,0,0,0-.8.457V0H8.367V-4.755Zm2.522-1.938a1.23,1.23,0,0,1-.29.833.9.9,0,0,1-.708.336,1.073,1.073,0,0,1-.3-.037,1.99,1.99,0,0,1-.358-.16,1.932,1.932,0,0,0-.33-.152.806.806,0,0,0-.22-.029.352.352,0,0,0-.261.11.427.427,0,0,0-.108.312l-.738-.044a1.249,1.249,0,0,1,.288-.831A.888.888,0,0,1,9.769-6.7a.908.908,0,0,1,.248.033,2.734,2.734,0,0,1,.38.16,2.471,2.471,0,0,0,.365.154.832.832,0,0,0,.211.026.371.371,0,0,0,.266-.108.41.41,0,0,0,.112-.31ZM14.774,0H13.5V-4.755h1.274ZM13.425-5.985a.625.625,0,0,1,.191-.47.718.718,0,0,1,.521-.185.72.72,0,0,1,.519.185.622.622,0,0,1,.193.47.624.624,0,0,1-.2.475.722.722,0,0,1-.516.185.722.722,0,0,1-.516-.185A.624.624,0,0,1,13.425-5.985Zm2.2,3.573a2.865,2.865,0,0,1,.5-1.771,1.618,1.618,0,0,1,1.365-.659,1.456,1.456,0,0,1,1.147.519V-6.75h1.274V0H18.76L18.7-.505a1.5,1.5,0,0,1-1.222.593A1.614,1.614,0,0,1,16.13-.573,2.958,2.958,0,0,1,15.623-2.413Zm1.27.095a1.877,1.877,0,0,0,.233,1.026.759.759,0,0,0,.677.357.85.85,0,0,0,.831-.5V-3.313a.838.838,0,0,0-.822-.5Q16.893-3.81,16.893-2.318Zm3.8-.1a2.82,2.82,0,0,1,.272-1.261,2,2,0,0,1,.784-.857,2.289,2.289,0,0,1,1.189-.3,2.165,2.165,0,0,1,1.571.589,2.363,2.363,0,0,1,.679,1.6l.009.325a2.485,2.485,0,0,1-.611,1.756,2.123,2.123,0,0,1-1.639.661,2.134,2.134,0,0,1-1.641-.659,2.529,2.529,0,0,1-.613-1.793Zm1.27.09a1.777,1.777,0,0,0,.255,1.036.841.841,0,0,0,.729.359.843.843,0,0,0,.721-.354,1.945,1.945,0,0,0,.259-1.133,1.76,1.76,0,0,0-.259-1.03.843.843,0,0,0-.729-.365.829.829,0,0,0-.721.363A1.978,1.978,0,0,0,21.964-2.331Z" transform="translate(1095 4855)"/>
    <path id="Trazado_732613" data-name="Trazado 732613" d="M1.679-4.755l.04.532a1.671,1.671,0,0,1,1.367-.62,1.268,1.268,0,0,1,1.261.725,1.633,1.633,0,0,1,1.428-.725,1.418,1.418,0,0,1,1.151.45A2.07,2.07,0,0,1,7.3-3.037V0H6.029V-3.032a.905.905,0,0,0-.158-.591.7.7,0,0,0-.558-.187.793.793,0,0,0-.791.545L4.526,0H3.256V-3.028a.894.894,0,0,0-.163-.6A.708.708,0,0,0,2.54-3.81a.823.823,0,0,0-.782.448V0H.488V-4.755ZM9.62,0H8.345V-4.755H9.62ZM8.271-5.985a.625.625,0,0,1,.191-.47.718.718,0,0,1,.521-.185.72.72,0,0,1,.519.185.622.622,0,0,1,.193.47.624.624,0,0,1-.2.475.722.722,0,0,1-.516.185.722.722,0,0,1-.516-.185A.624.624,0,0,1,8.271-5.985Zm2.21,3.573A2.787,2.787,0,0,1,11-4.175a1.687,1.687,0,0,1,1.4-.668,1.48,1.48,0,0,1,1.217.536l.053-.448h1.151v4.6A2.032,2.032,0,0,1,14.544.927a1.82,1.82,0,0,1-.8.7,2.8,2.8,0,0,1-1.2.242,2.607,2.607,0,0,1-1.02-.209,1.809,1.809,0,0,1-.751-.538l.563-.773a1.488,1.488,0,0,0,1.151.532,1.089,1.089,0,0,0,.787-.27,1.014,1.014,0,0,0,.281-.767V-.409a1.469,1.469,0,0,1-1.156.5,1.683,1.683,0,0,1-1.386-.67,2.786,2.786,0,0,1-.53-1.778Zm1.27.095A1.735,1.735,0,0,0,12.01-1.3a.825.825,0,0,0,.712.367.882.882,0,0,0,.831-.436v-2a.88.88,0,0,0-.822-.436.83.83,0,0,0-.719.374A1.956,1.956,0,0,0,11.751-2.318Zm6.724-1.246a3.45,3.45,0,0,0-.457-.035.93.93,0,0,0-.945.488V0H15.8V-4.755H17l.035.567A1.177,1.177,0,0,1,18.1-4.843a1.331,1.331,0,0,1,.4.057ZM21.709,0a1.41,1.41,0,0,1-.127-.426,1.537,1.537,0,0,1-1.2.514,1.688,1.688,0,0,1-1.158-.4,1.3,1.3,0,0,1-.459-1.02,1.344,1.344,0,0,1,.56-1.16A2.765,2.765,0,0,1,20.944-2.9h.584v-.272A.784.784,0,0,0,21.36-3.7a.666.666,0,0,0-.534-.2.757.757,0,0,0-.5.154.523.523,0,0,0-.182.422H18.87a1.276,1.276,0,0,1,.255-.765,1.685,1.685,0,0,1,.721-.552,2.627,2.627,0,0,1,1.046-.2,2.075,2.075,0,0,1,1.4.442A1.545,1.545,0,0,1,22.8-3.16V-1.1a2.273,2.273,0,0,0,.189,1.024V0Zm-1.05-.883a1.094,1.094,0,0,0,.519-.125.823.823,0,0,0,.352-.336v-.817h-.475q-.954,0-1.015.659l0,.075a.508.508,0,0,0,.167.391A.649.649,0,0,0,20.659-.883Zm5.1-.053a.833.833,0,0,0,.571-.193.677.677,0,0,0,.229-.514h1.191a1.629,1.629,0,0,1-.264.885,1.74,1.74,0,0,1-.71.624,2.221,2.221,0,0,1-1,.222A2.064,2.064,0,0,1,24.17-.56a2.565,2.565,0,0,1-.589-1.791v-.083a2.536,2.536,0,0,1,.584-1.753,2.04,2.04,0,0,1,1.6-.655,2,2,0,0,1,1.43.508,1.8,1.8,0,0,1,.547,1.351H26.556a.873.873,0,0,0-.229-.6.762.762,0,0,0-.58-.232.765.765,0,0,0-.67.323,1.875,1.875,0,0,0-.226,1.05v.132a1.9,1.9,0,0,0,.224,1.056A.775.775,0,0,0,25.756-.936ZM29.813,0H28.538V-4.755h1.274ZM28.463-5.985a.625.625,0,0,1,.191-.47.718.718,0,0,1,.521-.185.72.72,0,0,1,.519.185.622.622,0,0,1,.193.47.624.624,0,0,1-.2.475.722.722,0,0,1-.516.185.722.722,0,0,1-.516-.185A.624.624,0,0,1,28.463-5.985Zm2.2,3.564a2.82,2.82,0,0,1,.272-1.261,2,2,0,0,1,.784-.857,2.289,2.289,0,0,1,1.189-.3,2.165,2.165,0,0,1,1.571.589,2.363,2.363,0,0,1,.679,1.6l.009.325a2.485,2.485,0,0,1-.611,1.756,2.123,2.123,0,0,1-1.639.661,2.134,2.134,0,0,1-1.641-.659,2.529,2.529,0,0,1-.613-1.793Zm1.27.09a1.777,1.777,0,0,0,.255,1.036.841.841,0,0,0,.729.359.843.843,0,0,0,.721-.354A1.945,1.945,0,0,0,33.9-2.424a1.76,1.76,0,0,0-.259-1.03.843.843,0,0,0-.729-.365.829.829,0,0,0-.721.363A1.978,1.978,0,0,0,31.931-2.331ZM33.157-6.75h1.384L33.324-5.388H32.291Zm3.959,2,.04.549a1.66,1.66,0,0,1,1.367-.637,1.38,1.38,0,0,1,1.125.444,2.071,2.071,0,0,1,.378,1.327V0h-1.27V-3.041a.824.824,0,0,0-.176-.587A.787.787,0,0,0,38-3.81a.874.874,0,0,0-.8.457V0h-1.27V-4.755Z" transform="translate(1190 4864)"/>
    <path id="Trazado_732615" data-name="Trazado 732615" d="M4.768-2.333a2.852,2.852,0,0,1-.5,1.76A1.6,1.6,0,0,1,2.922.088a1.481,1.481,0,0,1-1.165-.5V1.828H.488V-4.755H1.666l.044.466a1.493,1.493,0,0,1,1.2-.554,1.61,1.61,0,0,1,1.367.65A2.929,2.929,0,0,1,4.768-2.4ZM3.5-2.426A1.871,1.871,0,0,0,3.263-3.45a.766.766,0,0,0-.683-.36.832.832,0,0,0-.822.457v1.947a.846.846,0,0,0,.831.47Q3.5-.936,3.5-2.426ZM7.743.088a2.334,2.334,0,0,1-1.7-.642,2.281,2.281,0,0,1-.657-1.709v-.123A2.872,2.872,0,0,1,5.66-3.667a2.032,2.032,0,0,1,.784-.87A2.2,2.2,0,0,1,7.6-4.843a1.973,1.973,0,0,1,1.536.615A2.5,2.5,0,0,1,9.7-2.483v.519H6.671a1.18,1.18,0,0,0,.371.747,1.123,1.123,0,0,0,.784.281,1.371,1.371,0,0,0,1.147-.532l.624.7a1.907,1.907,0,0,1-.773.631A2.538,2.538,0,0,1,7.743.088ZM7.6-3.819a.794.794,0,0,0-.613.256,1.326,1.326,0,0,0-.3.733H8.451v-.1a.946.946,0,0,0-.229-.655A.819.819,0,0,0,7.6-3.819Zm3.99-.936.04.549a1.66,1.66,0,0,1,1.367-.637A1.38,1.38,0,0,1,14.12-4.4,2.071,2.071,0,0,1,14.5-3.072V0h-1.27V-3.041a.824.824,0,0,0-.176-.587.787.787,0,0,0-.584-.182.874.874,0,0,0-.8.457V0h-1.27V-4.755ZM17.648.088a2.334,2.334,0,0,1-1.7-.642,2.281,2.281,0,0,1-.657-1.709v-.123a2.872,2.872,0,0,1,.277-1.281,2.032,2.032,0,0,1,.784-.87,2.2,2.2,0,0,1,1.158-.305,1.973,1.973,0,0,1,1.536.615,2.5,2.5,0,0,1,.56,1.745v.519H16.576a1.18,1.18,0,0,0,.371.747,1.123,1.123,0,0,0,.784.281,1.371,1.371,0,0,0,1.147-.532l.624.7a1.907,1.907,0,0,1-.773.631A2.538,2.538,0,0,1,17.648.088ZM17.5-3.819a.794.794,0,0,0-.613.256,1.326,1.326,0,0,0-.3.733h1.767v-.1a.946.946,0,0,0-.229-.655A.819.819,0,0,0,17.5-3.819Zm4.342-2.1v1.169h.813v.932h-.813V-1.45a.567.567,0,0,0,.1.378.508.508,0,0,0,.387.114,2.025,2.025,0,0,0,.374-.031v.962a2.615,2.615,0,0,1-.769.114,1.213,1.213,0,0,1-1.362-1.349V-3.823h-.694v-.932h.694V-5.924Zm4.192,2.36a3.45,3.45,0,0,0-.457-.035.93.93,0,0,0-.945.488V0h-1.27V-4.755h1.2l.035.567a1.177,1.177,0,0,1,1.059-.655,1.331,1.331,0,0,1,.4.057ZM29.272,0a1.41,1.41,0,0,1-.127-.426,1.537,1.537,0,0,1-1.2.514,1.688,1.688,0,0,1-1.158-.4,1.3,1.3,0,0,1-.459-1.02,1.344,1.344,0,0,1,.56-1.16A2.765,2.765,0,0,1,28.507-2.9h.584v-.272a.784.784,0,0,0-.169-.527.666.666,0,0,0-.534-.2.757.757,0,0,0-.5.154.523.523,0,0,0-.182.422h-1.27a1.276,1.276,0,0,1,.255-.765,1.685,1.685,0,0,1,.721-.552,2.627,2.627,0,0,1,1.046-.2,2.075,2.075,0,0,1,1.4.442,1.545,1.545,0,0,1,.516,1.241V-1.1a2.273,2.273,0,0,0,.189,1.024V0Zm-1.05-.883a1.094,1.094,0,0,0,.519-.125.823.823,0,0,0,.352-.336v-.817h-.475q-.954,0-1.015.659l0,.075a.508.508,0,0,0,.167.391A.649.649,0,0,0,28.222-.883Zm5.1-.053a.833.833,0,0,0,.571-.193.677.677,0,0,0,.229-.514H35.31a1.629,1.629,0,0,1-.264.885,1.74,1.74,0,0,1-.71.624,2.221,2.221,0,0,1-1,.222A2.064,2.064,0,0,1,31.733-.56a2.565,2.565,0,0,1-.589-1.791v-.083a2.536,2.536,0,0,1,.584-1.753,2.04,2.04,0,0,1,1.6-.655,2,2,0,0,1,1.43.508,1.8,1.8,0,0,1,.547,1.351H34.119a.873.873,0,0,0-.229-.6.762.762,0,0,0-.58-.232.765.765,0,0,0-.67.323,1.875,1.875,0,0,0-.226,1.05v.132a1.9,1.9,0,0,0,.224,1.056A.775.775,0,0,0,33.319-.936ZM37.375,0H36.1V-4.755h1.274ZM36.026-5.985a.625.625,0,0,1,.191-.47.718.718,0,0,1,.521-.185.72.72,0,0,1,.519.185.622.622,0,0,1,.193.47.624.624,0,0,1-.2.475.722.722,0,0,1-.516.185.722.722,0,0,1-.516-.185A.624.624,0,0,1,36.026-5.985Zm2.2,3.564A2.82,2.82,0,0,1,38.5-3.683a2,2,0,0,1,.784-.857,2.289,2.289,0,0,1,1.189-.3,2.165,2.165,0,0,1,1.571.589,2.363,2.363,0,0,1,.679,1.6l.009.325a2.485,2.485,0,0,1-.611,1.756,2.123,2.123,0,0,1-1.639.661,2.134,2.134,0,0,1-1.641-.659,2.529,2.529,0,0,1-.613-1.793Zm1.27.09a1.777,1.777,0,0,0,.255,1.036.841.841,0,0,0,.729.359A.843.843,0,0,0,41.2-1.29a1.945,1.945,0,0,0,.259-1.133,1.76,1.76,0,0,0-.259-1.03.843.843,0,0,0-.729-.365.829.829,0,0,0-.721.363A1.978,1.978,0,0,0,39.494-2.331ZM40.72-6.75H42.1L40.887-5.388H39.854Zm3.959,2,.04.549a1.66,1.66,0,0,1,1.367-.637A1.38,1.38,0,0,1,47.21-4.4a2.071,2.071,0,0,1,.378,1.327V0h-1.27V-3.041a.824.824,0,0,0-.176-.587.787.787,0,0,0-.584-.182.874.874,0,0,0-.8.457V0h-1.27V-4.755Z" transform="translate(1188 4907)"/>
    <path id="Trazado_732499" data-name="Trazado 732499" d="M-7029.578-6787s49.858-25.1,50.7-25.118,27.8,1.5,27.8,1.5" transform="translate(8192 11700)" fill="none" stroke="#000" stroke-width="1"/>
    <g id="Grupo_987079" data-name="Grupo 987079">
      <g id="Elipse_6008" data-name="Elipse 6008" transform="translate(1156 4892)" fill="none" stroke="#000" stroke-width="1">
        <ellipse cx="6" cy="10.5" rx="6" ry="10.5" stroke="none"/>
        <ellipse cx="6" cy="10.5" rx="5.5" ry="10" fill="none"/>
      </g>
      <g id="Elipse_6009" data-name="Elipse 6009" transform="translate(1235 4869)" fill="none" stroke="#000" stroke-width="1">
        <ellipse cx="6" cy="10.5" rx="6" ry="10.5" stroke="none"/>
        <ellipse cx="6" cy="10.5" rx="5.5" ry="10" fill="none"/>
      </g>
      <path id="Trazado_732500" data-name="Trazado 732500" d="M-7029.578-6788.6s48.935-23.5,49.766-23.519,27.284,1.407,27.284,1.407" transform="translate(8191.578 11680.6)" fill="none" stroke="#000" stroke-width="1"/>
    </g>
    <path id="Polígono_9" data-name="Polígono 9" d="M3.5,0,7,6H0Z" transform="translate(1183.125 4880.51) rotate(180)" fill="#9f0925"/>
    <path id="Polígono_12" data-name="Polígono 12" d="M3.937,0,7.875,6.75H0Z" transform="translate(1127.25 4858.163) rotate(90)" fill="#1448d3"/>
    <path id="Polígono_13" data-name="Polígono 13" d="M3.937,0,7.875,6.75H0Z" transform="translate(1037.75 4858.163) rotate(90)" fill="#1448d3"/>
    <path id="Polígono_11" data-name="Polígono 11" d="M3.5,0,7,6H0Z" transform="translate(1260 4903) rotate(180)" fill="#9f0925"/>
    <path id="Polígono_14" data-name="Polígono 14" d="M3.5,0,7,6H0Z" transform="translate(1198.921 4819.47) rotate(-34)" fill="#9f0925"/>
    <path id="Polígono_10" data-name="Polígono 10" d="M3.5,0,7,6H0Z" transform="translate(1192.97 4883.892) rotate(-163)" fill="#9f0925"/>
    <line id="Línea_214" data-name="Línea 214" y2="38" transform="translate(1179.25 4838.213)" fill="none" stroke="#9f0925" stroke-width="2"/>
    <line id="Línea_218" data-name="Línea 218" x2="31.25" transform="translate(1091.25 4862)" fill="none" stroke="#1448d3" stroke-width="2"/>
    <line id="Línea_219" data-name="Línea 219" x2="31.25" transform="translate(999.75 4862)" fill="none" stroke="#1448d3" stroke-width="2"/>
    <line id="Línea_217" data-name="Línea 217" y2="38" transform="translate(1257.125 4859.849)" fill="none" stroke="#9f0925" stroke-width="2"/>
    <line id="Línea_215" data-name="Línea 215" x1="4.198" y2="12.797" transform="translate(1191.302 4865.5)" fill="none" stroke="#9f0925" stroke-width="2"/>
    <line id="Línea_216" data-name="Línea 216" x2="29.401" y2="46.196" transform="translate(1203.099 4819.304)" fill="none" stroke="#9f0925" stroke-width="2"/>
    <path id="Trazado_732614" data-name="Trazado 732614" d="M3.243,0a1.41,1.41,0,0,1-.127-.426,1.537,1.537,0,0,1-1.2.514,1.688,1.688,0,0,1-1.158-.4A1.3,1.3,0,0,1,.3-1.336,1.344,1.344,0,0,1,.859-2.5,2.765,2.765,0,0,1,2.479-2.9h.584v-.272A.784.784,0,0,0,2.894-3.7a.666.666,0,0,0-.534-.2.757.757,0,0,0-.5.154.523.523,0,0,0-.182.422H.4a1.276,1.276,0,0,1,.255-.765,1.685,1.685,0,0,1,.721-.552,2.627,2.627,0,0,1,1.046-.2,2.075,2.075,0,0,1,1.4.442A1.545,1.545,0,0,1,4.337-3.16V-1.1A2.273,2.273,0,0,0,4.526-.075V0ZM2.193-.883a1.094,1.094,0,0,0,.519-.125.823.823,0,0,0,.352-.336v-.817H2.588q-.954,0-1.015.659l0,.075a.508.508,0,0,0,.167.391A.649.649,0,0,0,2.193-.883ZM5.115-2.413a2.865,2.865,0,0,1,.5-1.771,1.618,1.618,0,0,1,1.365-.659,1.456,1.456,0,0,1,1.147.519V-6.75H9.4V0H8.253L8.191-.505A1.5,1.5,0,0,1,6.97.088,1.614,1.614,0,0,1,5.623-.573,2.958,2.958,0,0,1,5.115-2.413Zm1.27.095a1.877,1.877,0,0,0,.233,1.026.759.759,0,0,0,.677.357.85.85,0,0,0,.831-.5V-3.313a.838.838,0,0,0-.822-.5Q6.385-3.81,6.385-2.318Zm6.574,1a.409.409,0,0,0-.231-.367,2.621,2.621,0,0,0-.74-.24q-1.7-.356-1.7-1.441a1.307,1.307,0,0,1,.525-1.057,2.118,2.118,0,0,1,1.373-.424,2.28,2.28,0,0,1,1.448.426,1.343,1.343,0,0,1,.543,1.107h-1.27a.615.615,0,0,0-.176-.45.744.744,0,0,0-.549-.178.76.76,0,0,0-.5.145.458.458,0,0,0-.176.369.391.391,0,0,0,.2.341,2.057,2.057,0,0,0,.675.224,5.51,5.51,0,0,1,.8.213,1.314,1.314,0,0,1,1.006,1.279,1.24,1.24,0,0,1-.558,1.052,2.408,2.408,0,0,1-1.441.4,2.515,2.515,0,0,1-1.061-.213,1.781,1.781,0,0,1-.727-.584,1.358,1.358,0,0,1-.264-.8h1.2a.663.663,0,0,0,.25.519.994.994,0,0,0,.624.18.92.92,0,0,0,.552-.138A.431.431,0,0,0,12.959-1.314Zm1.854-1.107a2.82,2.82,0,0,1,.272-1.261,2,2,0,0,1,.784-.857,2.289,2.289,0,0,1,1.189-.3,2.165,2.165,0,0,1,1.571.589,2.363,2.363,0,0,1,.679,1.6l.009.325a2.485,2.485,0,0,1-.611,1.756,2.123,2.123,0,0,1-1.639.661,2.134,2.134,0,0,1-1.641-.659,2.529,2.529,0,0,1-.613-1.793Zm1.27.09a1.777,1.777,0,0,0,.255,1.036.841.841,0,0,0,.729.359.843.843,0,0,0,.721-.354,1.945,1.945,0,0,0,.259-1.133,1.76,1.76,0,0,0-.259-1.03.843.843,0,0,0-.729-.365.829.829,0,0,0-.721.363A1.978,1.978,0,0,0,16.084-2.331Zm6.688-1.233a3.45,3.45,0,0,0-.457-.035.93.93,0,0,0-.945.488V0H20.1V-4.755h1.2l.035.567a1.177,1.177,0,0,1,1.059-.655,1.331,1.331,0,0,1,.4.057Zm2.5,2.628a.833.833,0,0,0,.571-.193.677.677,0,0,0,.229-.514h1.191A1.629,1.629,0,0,1,27-.758a1.74,1.74,0,0,1-.71.624,2.221,2.221,0,0,1-1,.222A2.064,2.064,0,0,1,23.691-.56,2.565,2.565,0,0,1,23.1-2.351v-.083a2.536,2.536,0,0,1,.584-1.753,2.04,2.04,0,0,1,1.6-.655,2,2,0,0,1,1.43.508,1.8,1.8,0,0,1,.547,1.351H26.077a.873.873,0,0,0-.229-.6.762.762,0,0,0-.58-.232.765.765,0,0,0-.67.323,1.875,1.875,0,0,0-.226,1.05v.132A1.9,1.9,0,0,0,24.6-1.257.775.775,0,0,0,25.277-.936ZM29.333,0H28.059V-4.755h1.274ZM27.984-5.985a.625.625,0,0,1,.191-.47A.718.718,0,0,1,28.7-6.64a.72.72,0,0,1,.519.185.622.622,0,0,1,.193.47.624.624,0,0,1-.2.475.722.722,0,0,1-.516.185.722.722,0,0,1-.516-.185A.624.624,0,0,1,27.984-5.985Zm2.2,3.564a2.82,2.82,0,0,1,.272-1.261,2,2,0,0,1,.784-.857,2.289,2.289,0,0,1,1.189-.3A2.165,2.165,0,0,1,34-4.254a2.363,2.363,0,0,1,.679,1.6l.009.325a2.485,2.485,0,0,1-.611,1.756,2.123,2.123,0,0,1-1.639.661,2.134,2.134,0,0,1-1.641-.659,2.529,2.529,0,0,1-.613-1.793Zm1.27.09a1.777,1.777,0,0,0,.255,1.036.841.841,0,0,0,.729.359.843.843,0,0,0,.721-.354,1.945,1.945,0,0,0,.259-1.133,1.76,1.76,0,0,0-.259-1.03.843.843,0,0,0-.729-.365.829.829,0,0,0-.721.363A1.978,1.978,0,0,0,31.452-2.331ZM32.678-6.75h1.384L32.845-5.388H31.812Zm3.959,2,.04.549a1.66,1.66,0,0,1,1.367-.637,1.38,1.38,0,0,1,1.125.444,2.071,2.071,0,0,1,.378,1.327V0h-1.27V-3.041a.824.824,0,0,0-.176-.587.787.787,0,0,0-.584-.182.874.874,0,0,0-.8.457V0h-1.27V-4.755Z" transform="translate(1138 4868)"/>
    <path id="Trazado_732612" data-name="Trazado 732612" d="M4.768-2.333a2.852,2.852,0,0,1-.5,1.76A1.6,1.6,0,0,1,2.922.088a1.481,1.481,0,0,1-1.165-.5V1.828H.488V-4.755H1.666l.044.466a1.493,1.493,0,0,1,1.2-.554,1.61,1.61,0,0,1,1.367.65A2.929,2.929,0,0,1,4.768-2.4ZM3.5-2.426A1.871,1.871,0,0,0,3.263-3.45a.766.766,0,0,0-.683-.36.832.832,0,0,0-.822.457v1.947a.846.846,0,0,0,.831.47Q3.5-.936,3.5-2.426ZM8.227-3.564A3.45,3.45,0,0,0,7.77-3.6a.93.93,0,0,0-.945.488V0H5.555V-4.755h1.2l.035.567a1.177,1.177,0,0,1,1.059-.655,1.331,1.331,0,0,1,.4.057ZM10.942.088a2.334,2.334,0,0,1-1.7-.642,2.281,2.281,0,0,1-.657-1.709v-.123a2.872,2.872,0,0,1,.277-1.281,2.032,2.032,0,0,1,.784-.87A2.2,2.2,0,0,1,10.8-4.843a1.973,1.973,0,0,1,1.536.615,2.5,2.5,0,0,1,.56,1.745v.519H9.87a1.18,1.18,0,0,0,.371.747,1.123,1.123,0,0,0,.784.281,1.371,1.371,0,0,0,1.147-.532l.624.7a1.907,1.907,0,0,1-.773.631A2.538,2.538,0,0,1,10.942.088ZM10.8-3.819a.794.794,0,0,0-.613.256,1.326,1.326,0,0,0-.3.733H11.65v-.1a.946.946,0,0,0-.229-.655A.819.819,0,0,0,10.8-3.819ZM15.6-.936a.833.833,0,0,0,.571-.193.677.677,0,0,0,.229-.514h1.191a1.629,1.629,0,0,1-.264.885,1.74,1.74,0,0,1-.71.624,2.221,2.221,0,0,1-1,.222A2.064,2.064,0,0,1,14.01-.56a2.565,2.565,0,0,1-.589-1.791v-.083a2.536,2.536,0,0,1,.584-1.753,2.04,2.04,0,0,1,1.6-.655,2,2,0,0,1,1.43.508,1.8,1.8,0,0,1,.547,1.351H16.4a.873.873,0,0,0-.229-.6.762.762,0,0,0-.58-.232.765.765,0,0,0-.67.323,1.875,1.875,0,0,0-.226,1.05v.132a1.9,1.9,0,0,0,.224,1.056A.775.775,0,0,0,15.6-.936ZM19.652,0H18.378V-4.755h1.274ZM18.3-5.985a.625.625,0,0,1,.191-.47.718.718,0,0,1,.521-.185.72.72,0,0,1,.519.185.622.622,0,0,1,.193.47.624.624,0,0,1-.2.475.722.722,0,0,1-.516.185.722.722,0,0,1-.516-.185A.624.624,0,0,1,18.3-5.985Zm6.675,3.652a2.852,2.852,0,0,1-.5,1.76,1.6,1.6,0,0,1-1.347.661,1.481,1.481,0,0,1-1.165-.5V1.828H20.7V-4.755h1.178l.044.466a1.493,1.493,0,0,1,1.2-.554,1.61,1.61,0,0,1,1.367.65A2.929,2.929,0,0,1,24.979-2.4Zm-1.27-.092a1.871,1.871,0,0,0-.235-1.024.766.766,0,0,0-.683-.36.832.832,0,0,0-.822.457v1.947a.846.846,0,0,0,.831.47Q23.708-.936,23.708-2.426ZM27.105,0H25.831V-4.755h1.274ZM25.756-5.985a.625.625,0,0,1,.191-.47.718.718,0,0,1,.521-.185.72.72,0,0,1,.519.185.622.622,0,0,1,.193.47.624.624,0,0,1-.2.475.722.722,0,0,1-.516.185.722.722,0,0,1-.516-.185A.624.624,0,0,1,25.756-5.985Zm3.916.062v1.169h.813v.932h-.813V-1.45a.567.567,0,0,0,.1.378.508.508,0,0,0,.387.114,2.025,2.025,0,0,0,.374-.031v.962a2.615,2.615,0,0,1-.769.114A1.213,1.213,0,0,1,28.4-1.261V-3.823h-.694v-.932H28.4V-5.924ZM33.948,0a1.41,1.41,0,0,1-.127-.426,1.537,1.537,0,0,1-1.2.514,1.688,1.688,0,0,1-1.158-.4A1.3,1.3,0,0,1,31-1.336a1.344,1.344,0,0,1,.56-1.16A2.765,2.765,0,0,1,33.183-2.9h.584v-.272A.784.784,0,0,0,33.6-3.7a.666.666,0,0,0-.534-.2.757.757,0,0,0-.5.154.523.523,0,0,0-.182.422h-1.27a1.276,1.276,0,0,1,.255-.765,1.685,1.685,0,0,1,.721-.552,2.627,2.627,0,0,1,1.046-.2,2.075,2.075,0,0,1,1.4.442,1.545,1.545,0,0,1,.516,1.241V-1.1a2.273,2.273,0,0,0,.189,1.024V0ZM32.9-.883a1.094,1.094,0,0,0,.519-.125.823.823,0,0,0,.352-.336v-.817h-.475q-.954,0-1.015.659l0,.075a.508.508,0,0,0,.167.391A.649.649,0,0,0,32.9-.883ZM38-.936a.833.833,0,0,0,.571-.193.677.677,0,0,0,.229-.514h1.191a1.629,1.629,0,0,1-.264.885,1.74,1.74,0,0,1-.71.624,2.221,2.221,0,0,1-1,.222A2.064,2.064,0,0,1,36.409-.56a2.565,2.565,0,0,1-.589-1.791v-.083A2.536,2.536,0,0,1,36.4-4.188a2.04,2.04,0,0,1,1.6-.655,2,2,0,0,1,1.43.508,1.8,1.8,0,0,1,.547,1.351H38.795a.873.873,0,0,0-.229-.6.762.762,0,0,0-.58-.232.765.765,0,0,0-.67.323,1.875,1.875,0,0,0-.226,1.05v.132a1.9,1.9,0,0,0,.224,1.056A.775.775,0,0,0,38-.936ZM42.051,0H40.777V-4.755h1.274ZM40.7-5.985a.625.625,0,0,1,.191-.47.718.718,0,0,1,.521-.185.72.72,0,0,1,.519.185.622.622,0,0,1,.193.47.624.624,0,0,1-.2.475.722.722,0,0,1-.516.185.722.722,0,0,1-.516-.185A.624.624,0,0,1,40.7-5.985Zm2.2,3.564a2.82,2.82,0,0,1,.272-1.261,2,2,0,0,1,.784-.857,2.289,2.289,0,0,1,1.189-.3,2.165,2.165,0,0,1,1.571.589,2.363,2.363,0,0,1,.679,1.6l.009.325a2.485,2.485,0,0,1-.611,1.756,2.123,2.123,0,0,1-1.639.661,2.134,2.134,0,0,1-1.641-.659A2.529,2.529,0,0,1,42.9-2.364Zm1.27.09a1.777,1.777,0,0,0,.255,1.036.841.841,0,0,0,.729.359.843.843,0,0,0,.721-.354,1.945,1.945,0,0,0,.259-1.133,1.76,1.76,0,0,0-.259-1.03.843.843,0,0,0-.729-.365.829.829,0,0,0-.721.363A1.978,1.978,0,0,0,44.169-2.331ZM45.4-6.75H46.78L45.563-5.388H44.53Zm3.959,2,.04.549a1.66,1.66,0,0,1,1.367-.637,1.38,1.38,0,0,1,1.125.444,2.071,2.071,0,0,1,.378,1.327V0h-1.27V-3.041a.824.824,0,0,0-.176-.587.787.787,0,0,0-.584-.182.874.874,0,0,0-.8.457V0H48.16V-4.755Z" transform="translate(1210 4845)"/>
    <path id="Trazado_732611" data-name="Trazado 732611" d="M2.465-.936a.833.833,0,0,0,.571-.193.677.677,0,0,0,.229-.514H4.456a1.629,1.629,0,0,1-.264.885,1.74,1.74,0,0,1-.71.624,2.221,2.221,0,0,1-1,.222A2.064,2.064,0,0,1,.879-.56,2.565,2.565,0,0,1,.29-2.351v-.083A2.536,2.536,0,0,1,.875-4.188a2.04,2.04,0,0,1,1.6-.655,2,2,0,0,1,1.43.508,1.8,1.8,0,0,1,.547,1.351H3.265a.873.873,0,0,0-.229-.6.762.762,0,0,0-.58-.232.765.765,0,0,0-.67.323,1.875,1.875,0,0,0-.226,1.05v.132a1.9,1.9,0,0,0,.224,1.056A.775.775,0,0,0,2.465-.936ZM7.853-3.564A3.45,3.45,0,0,0,7.4-3.6a.93.93,0,0,0-.945.488V0H5.181V-4.755h1.2l.035.567a1.177,1.177,0,0,1,1.059-.655,1.331,1.331,0,0,1,.4.057ZM9.8,0H8.53V-4.755H9.8ZM8.455-5.985a.625.625,0,0,1,.191-.47.718.718,0,0,1,.521-.185.72.72,0,0,1,.519.185.622.622,0,0,1,.193.47.624.624,0,0,1-.2.475.722.722,0,0,1-.516.185.722.722,0,0,1-.516-.185A.624.624,0,0,1,8.455-5.985Zm4.97,4.671a.409.409,0,0,0-.231-.367,2.621,2.621,0,0,0-.74-.24q-1.7-.356-1.7-1.441a1.307,1.307,0,0,1,.525-1.057,2.118,2.118,0,0,1,1.373-.424,2.28,2.28,0,0,1,1.448.426,1.343,1.343,0,0,1,.543,1.107h-1.27a.615.615,0,0,0-.176-.45.744.744,0,0,0-.549-.178.76.76,0,0,0-.5.145.458.458,0,0,0-.176.369.391.391,0,0,0,.2.341,2.057,2.057,0,0,0,.675.224,5.51,5.51,0,0,1,.8.213A1.314,1.314,0,0,1,14.66-1.367,1.24,1.24,0,0,1,14.1-.314a2.408,2.408,0,0,1-1.441.4A2.515,2.515,0,0,1,11.6-.125a1.781,1.781,0,0,1-.727-.584,1.358,1.358,0,0,1-.264-.8h1.2a.663.663,0,0,0,.25.519.994.994,0,0,0,.624.18.92.92,0,0,0,.552-.138A.431.431,0,0,0,13.425-1.314ZM17-5.924v1.169h.813v.932H17V-1.45a.567.567,0,0,0,.1.378.508.508,0,0,0,.387.114,2.025,2.025,0,0,0,.374-.031v.962a2.615,2.615,0,0,1-.769.114,1.213,1.213,0,0,1-1.362-1.349V-3.823h-.694v-.932h.694V-5.924ZM21.274,0a1.41,1.41,0,0,1-.127-.426,1.537,1.537,0,0,1-1.2.514,1.688,1.688,0,0,1-1.158-.4,1.3,1.3,0,0,1-.459-1.02,1.344,1.344,0,0,1,.56-1.16A2.765,2.765,0,0,1,20.509-2.9h.584v-.272a.784.784,0,0,0-.169-.527.666.666,0,0,0-.534-.2.757.757,0,0,0-.5.154.523.523,0,0,0-.182.422h-1.27a1.276,1.276,0,0,1,.255-.765,1.685,1.685,0,0,1,.721-.552,2.627,2.627,0,0,1,1.046-.2,2.075,2.075,0,0,1,1.4.442,1.545,1.545,0,0,1,.516,1.241V-1.1a2.273,2.273,0,0,0,.189,1.024V0Zm-1.05-.883a1.094,1.094,0,0,0,.519-.125.823.823,0,0,0,.352-.336v-.817h-.475q-.954,0-1.015.659l0,.075a.508.508,0,0,0,.167.391A.649.649,0,0,0,20.224-.883ZM24.684,0H23.41V-6.75h1.274ZM27.07,0H25.8V-4.755H27.07ZM25.721-5.985a.625.625,0,0,1,.191-.47.718.718,0,0,1,.521-.185.72.72,0,0,1,.519.185.622.622,0,0,1,.193.47.624.624,0,0,1-.2.475.722.722,0,0,1-.516.185.722.722,0,0,1-.516-.185A.624.624,0,0,1,25.721-5.985Zm3.854,4.961H31.9V0H27.954V-.773L30.19-3.731H28.02V-4.755h3.81v.748ZM35.451,0a1.41,1.41,0,0,1-.127-.426,1.537,1.537,0,0,1-1.2.514,1.688,1.688,0,0,1-1.158-.4,1.3,1.3,0,0,1-.459-1.02,1.344,1.344,0,0,1,.56-1.16A2.765,2.765,0,0,1,34.686-2.9h.584v-.272A.784.784,0,0,0,35.1-3.7a.666.666,0,0,0-.534-.2.757.757,0,0,0-.5.154.523.523,0,0,0-.182.422h-1.27a1.276,1.276,0,0,1,.255-.765,1.685,1.685,0,0,1,.721-.552,2.627,2.627,0,0,1,1.046-.2,2.075,2.075,0,0,1,1.4.442,1.545,1.545,0,0,1,.516,1.241V-1.1a2.273,2.273,0,0,0,.189,1.024V0ZM34.4-.883a1.094,1.094,0,0,0,.519-.125.823.823,0,0,0,.352-.336v-.817H34.8q-.954,0-1.015.659l0,.075a.508.508,0,0,0,.167.391A.649.649,0,0,0,34.4-.883Zm5.1-.053a.833.833,0,0,0,.571-.193.677.677,0,0,0,.229-.514h1.191a1.629,1.629,0,0,1-.264.885,1.74,1.74,0,0,1-.71.624,2.221,2.221,0,0,1-1,.222A2.064,2.064,0,0,1,37.912-.56a2.565,2.565,0,0,1-.589-1.791v-.083a2.536,2.536,0,0,1,.584-1.753,2.04,2.04,0,0,1,1.6-.655,2,2,0,0,1,1.43.508,1.8,1.8,0,0,1,.547,1.351H40.3a.873.873,0,0,0-.229-.6.762.762,0,0,0-.58-.232.765.765,0,0,0-.67.323,1.875,1.875,0,0,0-.226,1.05v.132a1.9,1.9,0,0,0,.224,1.056A.775.775,0,0,0,39.5-.936ZM43.554,0H42.28V-4.755h1.274ZM42.205-5.985a.625.625,0,0,1,.191-.47.718.718,0,0,1,.521-.185.72.72,0,0,1,.519.185.622.622,0,0,1,.193.47.624.624,0,0,1-.2.475.722.722,0,0,1-.516.185.722.722,0,0,1-.516-.185A.624.624,0,0,1,42.205-5.985Zm2.2,3.564a2.82,2.82,0,0,1,.272-1.261,2,2,0,0,1,.784-.857,2.289,2.289,0,0,1,1.189-.3,2.165,2.165,0,0,1,1.571.589,2.363,2.363,0,0,1,.679,1.6l.009.325A2.485,2.485,0,0,1,48.3-.573a2.123,2.123,0,0,1-1.639.661,2.134,2.134,0,0,1-1.641-.659A2.529,2.529,0,0,1,44.4-2.364Zm1.27.09a1.777,1.777,0,0,0,.255,1.036.841.841,0,0,0,.729.359.843.843,0,0,0,.721-.354,1.945,1.945,0,0,0,.259-1.133,1.76,1.76,0,0,0-.259-1.03.843.843,0,0,0-.729-.365.829.829,0,0,0-.721.363A1.978,1.978,0,0,0,45.672-2.331ZM46.9-6.75h1.384L47.065-5.388H46.033Zm3.959,2,.04.549a1.66,1.66,0,0,1,1.367-.637,1.38,1.38,0,0,1,1.125.444,2.071,2.071,0,0,1,.378,1.327V0H52.5V-3.041a.824.824,0,0,0-.176-.587.787.787,0,0,0-.584-.182.874.874,0,0,0-.8.457V0h-1.27V-4.755Z" transform="translate(1205 4827)"/>
  </g>
</svg>
