<svg xmlns="http://www.w3.org/2000/svg" xmlns:xlink="http://www.w3.org/1999/xlink" width="118.494" height="112.823" viewBox="0 0 118.494 112.823">
  <defs>
    <linearGradient id="linear-gradient" x1="0.543" y1="0.773" x2="0.598" y2="0.07" gradientUnits="objectBoundingBox">
      <stop offset="0" stop-color="#dc5849"/>
      <stop offset="0.703" stop-color="#eca49b"/>
      <stop offset="1" stop-color="#fff"/>
    </linearGradient>
  </defs>
  <g id="Grupo_987066" data-name="Grupo 987066" transform="translate(13475 10188.5)">
    <rect id="Rectángulo_344580" data-name="Rectángulo 344580" width="118.494" height="112.823" rx="10" transform="translate(-13475 -10188.5)" fill="#ea526f"/>
    <g id="Grupo_986741" data-name="Grupo 986741" transform="translate(-2554.941 -12.731)">
      <g id="Grupo_986733" data-name="Grupo 986733" transform="translate(-10913.06 -10171.145)">
        <path id="Intersección_1" data-name="Intersección 1" d="M0,21.167,37.415,0,16.264,37.386A42.367,42.367,0,0,1,0,21.167Z" transform="translate(16.078 59.786) rotate(-14)" fill="#57a6d4"/>
        <path id="Intersección_4" data-name="Intersección 4" d="M0,21.167,37.415,0,16.264,37.386A42.367,42.367,0,0,1,0,21.167Z" transform="translate(42.57 86.942) rotate(-76)" fill="#d9e26e"/>
        <path id="Intersección_2" data-name="Intersección 2" d="M0,21.167,37.415,0,16.264,37.386A42.367,42.367,0,0,1,0,21.167Z" transform="translate(25.651 77.139) rotate(-45)" fill="#8ebe6e"/>
        <path id="Intersección_3" data-name="Intersección 3" d="M0,21.167,37.415,0,16.264,37.386A42.367,42.367,0,0,1,0,21.167Z" transform="translate(62.387 86.637) rotate(-107)" fill="#f8f072"/>
        <path id="Intersección_1-2" data-name="Intersección 1" d="M0,22.119,35.877,0,13.613,36.368A41.855,41.855,0,0,1,0,22.119Z" transform="translate(78.426 76.32) rotate(-137)" fill="#f1ce6d"/>
        <path id="Intersección_4-2" data-name="Intersección 4" d="M0,17.909,38.418,0,13.972,34.663A41.583,41.583,0,0,1,0,17.909Z" transform="translate(88.831 40.02) rotate(161)" fill="#e5784d"/>
        <path id="Intersección_2-2" data-name="Intersección 2" d="M0,19.326,37.323,0,13.358,35.251A41.907,41.907,0,0,1,0,19.326Z" transform="translate(88.796 59.864) rotate(-168)" fill="#f0af52"/>
        <path id="Intersección_3-2" data-name="Intersección 3" d="M10.739,33.368A41.4,41.4,0,0,1,0,19.188L39.034,0,15.2,36.7A43.005,43.005,0,0,1,10.739,33.368Z" transform="translate(79.209 25.03) rotate(133)" fill="url(#linear-gradient)"/>
        <path id="Intersección_1-3" data-name="Intersección 1" d="M0,16.218,37.415,37.386,16.264,0A42.367,42.367,0,0,0,0,16.218Z" transform="translate(5.616 75.469) rotate(-72)" fill="#6178b8"/>
        <path id="Intersección_4-3" data-name="Intersección 4" d="M0,16.218,37.415,37.386,16.264,0A42.367,42.367,0,0,0,0,16.218Z" transform="translate(9.437 21.882) rotate(-10)" fill="#8e58a5"/>
        <path id="Intersección_5" data-name="Intersección 5" d="M0,11.481A41.285,41.285,0,0,1,15.22,0L32.255,38.412Z" transform="matrix(0.985, 0.174, -0.174, 0.985, 27.136, 8.146)" fill="#bb3a5e"/>
        <path id="Intersección_2-3" data-name="Intersección 2" d="M0,16.218,37.415,37.386,16.264,0A42.367,42.367,0,0,0,0,16.218Z" transform="matrix(0.755, -0.656, 0.656, 0.755, 0, 48.047)" fill="#614fa0"/>
        <path id="Unión_3" data-name="Unión 3" d="M21.389,78.541l.028-.05A42.369,42.369,0,0,1,5.4,62.417l-.2.106A42.362,42.362,0,0,1,.056,40.415l-.056,0A42.362,42.362,0,0,1,7.128,18.578l.117.078a42.372,42.372,0,0,1,17.1-14.664l.044.092A41.276,41.276,0,0,1,42.523,0V.291a43.039,43.039,0,0,1,5.359.364A41.4,41.4,0,0,1,64.61,6.7l-.05.084a41.579,41.579,0,0,1,14.5,14.775l.325-.186a41.9,41.9,0,0,1,5.026,19.789l.571-.015a41.858,41.858,0,0,1-4.536,19.177L78.8,59.545l1.518.756A42.368,42.368,0,0,1,64.973,77.392l-.031-.048a42.366,42.366,0,0,1-21.263,6.582l0,.141c-.448.015-.9.022-1.344.022A42.374,42.374,0,0,1,21.389,78.541Zm1.648-.468a41.176,41.176,0,0,0,19.409,4.81L41.468,45.5Zm21.356,4.616a41.18,41.18,0,0,0,19.114-5.874L43.415,45.276ZM7.051,62.858A41.169,41.169,0,0,0,21.211,76.978L39.625,44.43ZM65.334,75.716a41.171,41.171,0,0,0,13.359-14.88L45.226,44.151ZM2.265,51.416A41.144,41.144,0,0,0,5.7,60.884l32.89-17.859L1.23,41.393A41.138,41.138,0,0,0,2.265,51.416Zm45.16-8.066L79.883,58.724a40.991,40.991,0,0,0,2.808-8.03,40.367,40.367,0,0,0,1.073-8.311Zm-.307-2.119,36.076-.866a40.7,40.7,0,0,0-4.3-17.325ZM3.2,29.378A41.124,41.124,0,0,0,1.27,39.263l37.39,1.632L7.476,20.254A41.132,41.132,0,0,0,3.2,29.378Zm42.615,10.33,31.741-18.32A40.373,40.373,0,0,0,64.259,8.01Zm-2.287-.027L62.965,7.1A40.21,40.21,0,0,0,47.724,1.85c-1.389-.182-2.795-.295-4.2-.337ZM15.419,11.227A41.133,41.133,0,0,0,8.673,18.7L39.882,39.361,23.783,5.608A41.1,41.1,0,0,0,15.419,11.227ZM33.232,2.243a40.294,40.294,0,0,0-7.664,2.62l15.7,31.985.051-35.631A39.943,39.943,0,0,0,33.232,2.243Z" transform="translate(0.865 21.073) rotate(-14)"/>
      </g>
      <path id="Elipse_5967_-_Contorno" data-name="Elipse 5967 - Contorno" d="M15.564.885A14.679,14.679,0,1,0,30.242,15.564,14.7,14.7,0,0,0,15.564.885m0-.885A15.564,15.564,0,1,1,0,15.564,15.564,15.564,0,0,1,15.564,0Z" transform="translate(-10876.082 -10135.442)"/>
      <g id="Elipse_5969" data-name="Elipse 5969" transform="translate(-10884.059 -10143.269)" fill="none" stroke="#000" stroke-width="1">
        <circle cx="23" cy="23" r="23" stroke="none"/>
        <circle cx="23" cy="23" r="22.5" fill="none"/>
      </g>
      <g id="Elipse_5970" data-name="Elipse 5970" transform="translate(-10891.059 -10150.269)" fill="none" stroke="#000" stroke-width="1">
        <circle cx="30" cy="30" r="30" stroke="none"/>
        <circle cx="30" cy="30" r="29.5" fill="none"/>
      </g>
      <g id="Elipse_5971" data-name="Elipse 5971" transform="translate(-10897.059 -10156.269)" fill="none" stroke="#000" stroke-width="1">
        <circle cx="36" cy="36" r="36" stroke="none"/>
        <circle cx="36" cy="36" r="35.5" fill="none"/>
      </g>
    </g>
  </g>
</svg>
