<svg xmlns="http://www.w3.org/2000/svg" xmlns:xlink="http://www.w3.org/1999/xlink" width="289.742" height="599.279" viewBox="0 0 289.742 599.279">
  <defs>
    <clipPath id="clip-path">
      <path id="Trazado_113926" data-name="Trazado 113926" d="M65.551,0A65.55,65.55,0,1,1,0,65.551,65.55,65.55,0,0,1,65.551,0Z" transform="translate(0 -0.001)" fill="#1448d3"/>
    </clipPath>
    <clipPath id="clip-path-2">
      <rect id="Rectángulo_344900" data-name="Rectángulo 344900" width="191.033" height="534.144" fill="none"/>
    </clipPath>
    <clipPath id="clip-path-4">
      <rect id="Rectángulo_344895" data-name="Rectángulo 344895" width="5.913" height="3.774" fill="none"/>
    </clipPath>
    <clipPath id="clip-path-5">
      <rect id="Rectángulo_344896" data-name="Rectángulo 344896" width="8.597" height="3.805" fill="none"/>
    </clipPath>
  </defs>
  <g id="_14" data-name="14" transform="translate(-180 -5376.721)">
    <g id="Grupo_986709" data-name="Grupo 986709" transform="translate(0 4048)">
      <g id="Grupo_985081" data-name="Grupo 985081" transform="translate(109.968 1425)">
        <path id="Rectángulo_33771" data-name="Rectángulo 33771" d="M128.633,0h0A128.633,128.633,0,0,1,257.265,128.633V549.169a0,0,0,0,1,0,0H0a0,0,0,0,1,0,0V128.633A128.633,128.633,0,0,1,128.633,0Z" transform="translate(80.032 -46.169)" fill="#0ce6ea"/>
        <g id="Grupo_80252" data-name="Grupo 80252" transform="translate(224.11 -96.279)">
          <g id="Grupo_80252-2" data-name="Grupo 80252" clip-path="url(#clip-path)">
            <path id="Trazado_113845" data-name="Trazado 113845" d="M0,1.725A1.725,1.725,0,1,1,1.725,3.449,1.725,1.725,0,0,1,0,1.725" transform="translate(127.65 -0.002)" fill="#1448d3"/>
            <path id="Trazado_113846" data-name="Trazado 113846" d="M10.076,1.725A1.725,1.725,0,1,1,11.8,3.449a1.725,1.725,0,0,1-1.725-1.725" transform="translate(101.617 -0.002)" fill="#1448d3"/>
            <path id="Trazado_113847" data-name="Trazado 113847" d="M20.151,1.725a1.725,1.725,0,1,1,1.725,1.725,1.725,1.725,0,0,1-1.725-1.725" transform="translate(75.586 -0.002)" fill="#1448d3"/>
            <path id="Trazado_113848" data-name="Trazado 113848" d="M30.225,1.725A1.725,1.725,0,1,1,31.95,3.449a1.725,1.725,0,0,1-1.725-1.725" transform="translate(49.556 -0.002)" fill="#1448d3"/>
            <path id="Trazado_113849" data-name="Trazado 113849" d="M40.3,1.725a1.725,1.725,0,1,1,1.725,1.725A1.725,1.725,0,0,1,40.3,1.725" transform="translate(23.524 -0.002)" fill="#1448d3"/>
            <path id="Trazado_113850" data-name="Trazado 113850" d="M50.376,1.725A1.725,1.725,0,1,1,52.1,3.449a1.725,1.725,0,0,1-1.725-1.725" transform="translate(-2.507 -0.002)" fill="#1448d3"/>
            <path id="Trazado_113851" data-name="Trazado 113851" d="M60.45,1.725a1.725,1.725,0,1,1,1.725,1.725A1.725,1.725,0,0,1,60.45,1.725" transform="translate(-28.538 -0.002)" fill="#1448d3"/>
            <path id="Trazado_113852" data-name="Trazado 113852" d="M70.526,1.725a1.725,1.725,0,1,1,1.725,1.725,1.725,1.725,0,0,1-1.725-1.725" transform="translate(-54.57 -0.002)" fill="#1448d3"/>
            <path id="Trazado_113853" data-name="Trazado 113853" d="M80.6,1.725a1.725,1.725,0,1,1,1.725,1.725A1.725,1.725,0,0,1,80.6,1.725" transform="translate(-80.6 -0.002)" fill="#1448d3"/>
            <path id="Trazado_113854" data-name="Trazado 113854" d="M0,11.8a1.725,1.725,0,1,1,1.725,1.725A1.725,1.725,0,0,1,0,11.8" transform="translate(127.65 5.88)" fill="#1448d3"/>
            <path id="Trazado_113855" data-name="Trazado 113855" d="M10.076,11.8A1.725,1.725,0,1,1,11.8,13.524,1.725,1.725,0,0,1,10.076,11.8" transform="translate(101.617 5.88)" fill="#1448d3"/>
            <path id="Trazado_113856" data-name="Trazado 113856" d="M20.151,11.8a1.725,1.725,0,1,1,1.725,1.725A1.725,1.725,0,0,1,20.151,11.8" transform="translate(75.586 5.88)" fill="#1448d3"/>
            <path id="Trazado_113857" data-name="Trazado 113857" d="M30.225,11.8a1.725,1.725,0,1,1,1.725,1.725A1.725,1.725,0,0,1,30.225,11.8" transform="translate(49.556 5.88)" fill="#1448d3"/>
            <path id="Trazado_113858" data-name="Trazado 113858" d="M40.3,11.8a1.725,1.725,0,1,1,1.725,1.725A1.725,1.725,0,0,1,40.3,11.8" transform="translate(23.524 5.88)" fill="#1448d3"/>
            <path id="Trazado_113859" data-name="Trazado 113859" d="M50.376,11.8A1.725,1.725,0,1,1,52.1,13.524,1.725,1.725,0,0,1,50.376,11.8" transform="translate(-2.507 5.88)" fill="#1448d3"/>
            <path id="Trazado_113860" data-name="Trazado 113860" d="M60.45,11.8a1.725,1.725,0,1,1,1.725,1.725A1.725,1.725,0,0,1,60.45,11.8" transform="translate(-28.538 5.88)" fill="#1448d3"/>
            <path id="Trazado_113861" data-name="Trazado 113861" d="M70.526,11.8a1.725,1.725,0,1,1,1.725,1.725A1.725,1.725,0,0,1,70.526,11.8" transform="translate(-54.57 5.88)" fill="#1448d3"/>
            <path id="Trazado_113862" data-name="Trazado 113862" d="M80.6,11.8a1.725,1.725,0,1,1,1.725,1.725A1.725,1.725,0,0,1,80.6,11.8" transform="translate(-80.6 5.88)" fill="#1448d3"/>
            <path id="Trazado_113863" data-name="Trazado 113863" d="M0,21.875A1.725,1.725,0,1,1,1.725,23.6,1.725,1.725,0,0,1,0,21.875" transform="translate(127.65 11.761)" fill="#1448d3"/>
            <path id="Trazado_113864" data-name="Trazado 113864" d="M10.076,21.875A1.725,1.725,0,1,1,11.8,23.6a1.725,1.725,0,0,1-1.725-1.725" transform="translate(101.617 11.761)" fill="#1448d3"/>
            <path id="Trazado_113865" data-name="Trazado 113865" d="M20.151,21.875A1.725,1.725,0,1,1,21.876,23.6a1.725,1.725,0,0,1-1.725-1.725" transform="translate(75.586 11.761)" fill="#1448d3"/>
            <path id="Trazado_113866" data-name="Trazado 113866" d="M30.225,21.875A1.725,1.725,0,1,1,31.95,23.6a1.725,1.725,0,0,1-1.725-1.725" transform="translate(49.556 11.761)" fill="#1448d3"/>
            <path id="Trazado_113867" data-name="Trazado 113867" d="M40.3,21.875A1.725,1.725,0,1,1,42.026,23.6,1.725,1.725,0,0,1,40.3,21.875" transform="translate(23.524 11.761)" fill="#1448d3"/>
            <path id="Trazado_113868" data-name="Trazado 113868" d="M50.376,21.875A1.725,1.725,0,1,1,52.1,23.6a1.725,1.725,0,0,1-1.725-1.725" transform="translate(-2.507 11.761)" fill="#1448d3"/>
            <path id="Trazado_113869" data-name="Trazado 113869" d="M60.45,21.875A1.725,1.725,0,1,1,62.175,23.6a1.725,1.725,0,0,1-1.725-1.725" transform="translate(-28.538 11.761)" fill="#1448d3"/>
            <path id="Trazado_113870" data-name="Trazado 113870" d="M70.526,21.875A1.725,1.725,0,1,1,72.251,23.6a1.725,1.725,0,0,1-1.725-1.725" transform="translate(-54.57 11.761)" fill="#1448d3"/>
            <path id="Trazado_113871" data-name="Trazado 113871" d="M80.6,21.875A1.725,1.725,0,1,1,82.325,23.6,1.725,1.725,0,0,1,80.6,21.875" transform="translate(-80.6 11.761)" fill="#1448d3"/>
            <path id="Trazado_113872" data-name="Trazado 113872" d="M0,31.95a1.725,1.725,0,1,1,1.725,1.725A1.725,1.725,0,0,1,0,31.95" transform="translate(127.65 17.642)" fill="#1448d3"/>
            <path id="Trazado_113873" data-name="Trazado 113873" d="M10.076,31.95A1.725,1.725,0,1,1,11.8,33.674a1.725,1.725,0,0,1-1.725-1.725" transform="translate(101.617 17.642)" fill="#1448d3"/>
            <path id="Trazado_113874" data-name="Trazado 113874" d="M20.151,31.95a1.725,1.725,0,1,1,1.725,1.725,1.725,1.725,0,0,1-1.725-1.725" transform="translate(75.586 17.642)" fill="#1448d3"/>
            <path id="Trazado_113875" data-name="Trazado 113875" d="M30.225,31.95a1.725,1.725,0,1,1,1.725,1.725,1.725,1.725,0,0,1-1.725-1.725" transform="translate(49.556 17.642)" fill="#1448d3"/>
            <path id="Trazado_113876" data-name="Trazado 113876" d="M40.3,31.95a1.725,1.725,0,1,1,1.725,1.725A1.725,1.725,0,0,1,40.3,31.95" transform="translate(23.524 17.642)" fill="#1448d3"/>
            <path id="Trazado_113877" data-name="Trazado 113877" d="M50.376,31.95A1.725,1.725,0,1,1,52.1,33.674a1.725,1.725,0,0,1-1.725-1.725" transform="translate(-2.507 17.642)" fill="#1448d3"/>
            <path id="Trazado_113878" data-name="Trazado 113878" d="M60.45,31.95a1.725,1.725,0,1,1,1.725,1.725A1.725,1.725,0,0,1,60.45,31.95" transform="translate(-28.538 17.642)" fill="#1448d3"/>
            <path id="Trazado_113879" data-name="Trazado 113879" d="M70.526,31.95a1.725,1.725,0,1,1,1.725,1.725,1.725,1.725,0,0,1-1.725-1.725" transform="translate(-54.57 17.642)" fill="#1448d3"/>
            <path id="Trazado_113880" data-name="Trazado 113880" d="M80.6,31.95a1.725,1.725,0,1,1,1.725,1.725A1.725,1.725,0,0,1,80.6,31.95" transform="translate(-80.6 17.642)" fill="#1448d3"/>
            <path id="Trazado_113881" data-name="Trazado 113881" d="M0,42.025a1.725,1.725,0,1,1,1.725,1.725A1.725,1.725,0,0,1,0,42.025" transform="translate(127.65 23.523)" fill="#1448d3"/>
            <path id="Trazado_113882" data-name="Trazado 113882" d="M10.076,42.025A1.725,1.725,0,1,1,11.8,43.749a1.725,1.725,0,0,1-1.725-1.725" transform="translate(101.617 23.523)" fill="#1448d3"/>
            <path id="Trazado_113883" data-name="Trazado 113883" d="M20.151,42.025a1.725,1.725,0,1,1,1.725,1.725,1.725,1.725,0,0,1-1.725-1.725" transform="translate(75.586 23.523)" fill="#1448d3"/>
            <path id="Trazado_113884" data-name="Trazado 113884" d="M30.225,42.025a1.725,1.725,0,1,1,1.725,1.725,1.725,1.725,0,0,1-1.725-1.725" transform="translate(49.556 23.523)" fill="#1448d3"/>
            <path id="Trazado_113885" data-name="Trazado 113885" d="M40.3,42.025a1.725,1.725,0,1,1,1.725,1.725A1.725,1.725,0,0,1,40.3,42.025" transform="translate(23.524 23.523)" fill="#1448d3"/>
            <path id="Trazado_113886" data-name="Trazado 113886" d="M50.376,42.025A1.725,1.725,0,1,1,52.1,43.749a1.725,1.725,0,0,1-1.725-1.725" transform="translate(-2.507 23.523)" fill="#1448d3"/>
            <path id="Trazado_113887" data-name="Trazado 113887" d="M60.45,42.025a1.725,1.725,0,1,1,1.725,1.725,1.725,1.725,0,0,1-1.725-1.725" transform="translate(-28.538 23.523)" fill="#1448d3"/>
            <path id="Trazado_113888" data-name="Trazado 113888" d="M70.526,42.025a1.725,1.725,0,1,1,1.725,1.725,1.725,1.725,0,0,1-1.725-1.725" transform="translate(-54.57 23.523)" fill="#1448d3"/>
            <path id="Trazado_113889" data-name="Trazado 113889" d="M80.6,42.025a1.725,1.725,0,1,1,1.725,1.725A1.725,1.725,0,0,1,80.6,42.025" transform="translate(-80.6 23.523)" fill="#1448d3"/>
            <path id="Trazado_113890" data-name="Trazado 113890" d="M0,52.1a1.725,1.725,0,1,1,1.725,1.725A1.725,1.725,0,0,1,0,52.1" transform="translate(127.65 29.405)" fill="#1448d3"/>
            <path id="Trazado_113891" data-name="Trazado 113891" d="M10.076,52.1A1.725,1.725,0,1,1,11.8,53.824,1.725,1.725,0,0,1,10.076,52.1" transform="translate(101.617 29.405)" fill="#1448d3"/>
            <path id="Trazado_113892" data-name="Trazado 113892" d="M20.151,52.1a1.725,1.725,0,1,1,1.725,1.725A1.725,1.725,0,0,1,20.151,52.1" transform="translate(75.586 29.405)" fill="#1448d3"/>
            <path id="Trazado_113893" data-name="Trazado 113893" d="M30.225,52.1a1.725,1.725,0,1,1,1.725,1.725A1.725,1.725,0,0,1,30.225,52.1" transform="translate(49.556 29.405)" fill="#1448d3"/>
            <path id="Trazado_113894" data-name="Trazado 113894" d="M40.3,52.1a1.725,1.725,0,1,1,1.725,1.725A1.725,1.725,0,0,1,40.3,52.1" transform="translate(23.524 29.405)" fill="#1448d3"/>
            <path id="Trazado_113895" data-name="Trazado 113895" d="M50.376,52.1A1.725,1.725,0,1,1,52.1,53.824,1.725,1.725,0,0,1,50.376,52.1" transform="translate(-2.507 29.405)" fill="#1448d3"/>
            <path id="Trazado_113896" data-name="Trazado 113896" d="M60.45,52.1a1.725,1.725,0,1,1,1.725,1.725A1.725,1.725,0,0,1,60.45,52.1" transform="translate(-28.538 29.405)" fill="#1448d3"/>
            <path id="Trazado_113897" data-name="Trazado 113897" d="M70.526,52.1a1.725,1.725,0,1,1,1.725,1.725A1.725,1.725,0,0,1,70.526,52.1" transform="translate(-54.57 29.405)" fill="#1448d3"/>
            <path id="Trazado_113898" data-name="Trazado 113898" d="M80.6,52.1a1.725,1.725,0,1,1,1.725,1.725A1.725,1.725,0,0,1,80.6,52.1" transform="translate(-80.6 29.405)" fill="#1448d3"/>
            <path id="Trazado_113899" data-name="Trazado 113899" d="M0,62.175A1.725,1.725,0,1,1,1.725,63.9,1.725,1.725,0,0,1,0,62.175" transform="translate(127.65 35.286)" fill="#1448d3"/>
            <path id="Trazado_113900" data-name="Trazado 113900" d="M10.076,62.175A1.725,1.725,0,1,1,11.8,63.9a1.725,1.725,0,0,1-1.725-1.725" transform="translate(101.617 35.286)" fill="#1448d3"/>
            <path id="Trazado_113901" data-name="Trazado 113901" d="M20.151,62.175A1.725,1.725,0,1,1,21.876,63.9a1.725,1.725,0,0,1-1.725-1.725" transform="translate(75.586 35.286)" fill="#1448d3"/>
            <path id="Trazado_113902" data-name="Trazado 113902" d="M30.225,62.175A1.725,1.725,0,1,1,31.95,63.9a1.725,1.725,0,0,1-1.725-1.725" transform="translate(49.556 35.286)" fill="#1448d3"/>
            <path id="Trazado_113903" data-name="Trazado 113903" d="M40.3,62.175A1.725,1.725,0,1,1,42.026,63.9,1.725,1.725,0,0,1,40.3,62.175" transform="translate(23.524 35.286)" fill="#1448d3"/>
            <path id="Trazado_113904" data-name="Trazado 113904" d="M50.376,62.175A1.725,1.725,0,1,1,52.1,63.9a1.725,1.725,0,0,1-1.725-1.725" transform="translate(-2.507 35.286)" fill="#1448d3"/>
            <path id="Trazado_113905" data-name="Trazado 113905" d="M60.45,62.175A1.725,1.725,0,1,1,62.175,63.9a1.725,1.725,0,0,1-1.725-1.725" transform="translate(-28.538 35.286)" fill="#1448d3"/>
            <path id="Trazado_113906" data-name="Trazado 113906" d="M70.526,62.175A1.725,1.725,0,1,1,72.251,63.9a1.725,1.725,0,0,1-1.725-1.725" transform="translate(-54.57 35.286)" fill="#1448d3"/>
            <path id="Trazado_113907" data-name="Trazado 113907" d="M80.6,62.175A1.725,1.725,0,1,1,82.325,63.9,1.725,1.725,0,0,1,80.6,62.175" transform="translate(-80.6 35.286)" fill="#1448d3"/>
            <path id="Trazado_113908" data-name="Trazado 113908" d="M0,72.251a1.725,1.725,0,1,1,1.725,1.725A1.725,1.725,0,0,1,0,72.251" transform="translate(127.65 41.168)" fill="#1448d3"/>
            <path id="Trazado_113909" data-name="Trazado 113909" d="M10.076,72.251A1.725,1.725,0,1,1,11.8,73.975a1.725,1.725,0,0,1-1.725-1.725" transform="translate(101.617 41.168)" fill="#1448d3"/>
            <path id="Trazado_113910" data-name="Trazado 113910" d="M20.151,72.251a1.725,1.725,0,1,1,1.725,1.725,1.725,1.725,0,0,1-1.725-1.725" transform="translate(75.586 41.168)" fill="#1448d3"/>
            <path id="Trazado_113911" data-name="Trazado 113911" d="M30.225,72.251a1.725,1.725,0,1,1,1.725,1.725,1.725,1.725,0,0,1-1.725-1.725" transform="translate(49.556 41.168)" fill="#1448d3"/>
            <path id="Trazado_113912" data-name="Trazado 113912" d="M40.3,72.251a1.725,1.725,0,1,1,1.725,1.725A1.725,1.725,0,0,1,40.3,72.251" transform="translate(23.524 41.168)" fill="#1448d3"/>
            <path id="Trazado_113913" data-name="Trazado 113913" d="M50.376,72.251A1.725,1.725,0,1,1,52.1,73.975a1.725,1.725,0,0,1-1.725-1.725" transform="translate(-2.507 41.168)" fill="#1448d3"/>
            <path id="Trazado_113914" data-name="Trazado 113914" d="M60.45,72.251a1.725,1.725,0,1,1,1.725,1.725,1.725,1.725,0,0,1-1.725-1.725" transform="translate(-28.538 41.168)" fill="#1448d3"/>
            <path id="Trazado_113915" data-name="Trazado 113915" d="M70.526,72.251a1.725,1.725,0,1,1,1.725,1.725,1.725,1.725,0,0,1-1.725-1.725" transform="translate(-54.57 41.168)" fill="#1448d3"/>
            <path id="Trazado_113916" data-name="Trazado 113916" d="M80.6,72.251a1.725,1.725,0,1,1,1.725,1.725A1.725,1.725,0,0,1,80.6,72.251" transform="translate(-80.6 41.168)" fill="#1448d3"/>
            <path id="Trazado_113917" data-name="Trazado 113917" d="M0,82.326A1.725,1.725,0,1,1,1.725,84.05,1.725,1.725,0,0,1,0,82.326" transform="translate(127.65 47.049)" fill="#1448d3"/>
            <path id="Trazado_113918" data-name="Trazado 113918" d="M10.076,82.326A1.725,1.725,0,1,1,11.8,84.05a1.725,1.725,0,0,1-1.725-1.725" transform="translate(101.617 47.049)" fill="#1448d3"/>
            <path id="Trazado_113919" data-name="Trazado 113919" d="M20.151,82.326a1.725,1.725,0,1,1,1.725,1.725,1.725,1.725,0,0,1-1.725-1.725" transform="translate(75.586 47.049)" fill="#1448d3"/>
            <path id="Trazado_113920" data-name="Trazado 113920" d="M30.225,82.326A1.725,1.725,0,1,1,31.95,84.05a1.725,1.725,0,0,1-1.725-1.725" transform="translate(49.556 47.049)" fill="#1448d3"/>
            <path id="Trazado_113921" data-name="Trazado 113921" d="M40.3,82.326a1.725,1.725,0,1,1,1.725,1.725A1.725,1.725,0,0,1,40.3,82.326" transform="translate(23.524 47.049)" fill="#1448d3"/>
            <path id="Trazado_113922" data-name="Trazado 113922" d="M50.376,82.326A1.725,1.725,0,1,1,52.1,84.05a1.725,1.725,0,0,1-1.725-1.725" transform="translate(-2.507 47.049)" fill="#1448d3"/>
            <path id="Trazado_113923" data-name="Trazado 113923" d="M60.45,82.326a1.725,1.725,0,1,1,1.725,1.725,1.725,1.725,0,0,1-1.725-1.725" transform="translate(-28.538 47.049)" fill="#1448d3"/>
            <path id="Trazado_113924" data-name="Trazado 113924" d="M70.526,82.326a1.725,1.725,0,1,1,1.725,1.725,1.725,1.725,0,0,1-1.725-1.725" transform="translate(-54.57 47.049)" fill="#1448d3"/>
            <path id="Trazado_113925" data-name="Trazado 113925" d="M80.6,82.326a1.725,1.725,0,1,1,1.725,1.725A1.725,1.725,0,0,1,80.6,82.326" transform="translate(-80.6 47.049)" fill="#1448d3"/>
          </g>
        </g>
      </g>
    </g>
    <g id="Grupo_986981" data-name="Grupo 986981">
      <g id="Grupo_986977" data-name="Grupo 986977" transform="translate(180 5441.855)">
        <g id="Grupo_986976" data-name="Grupo 986976" clip-path="url(#clip-path-2)">
          <path id="Trazado_731891" data-name="Trazado 731891" d="M45.271,314.3l-.71,16.582-16.87.32,1.215-15.589Z" transform="translate(7.99 90.686)" fill="#e09082"/>
          <g id="Grupo_986975" data-name="Grupo 986975">
            <g id="Grupo_986974" data-name="Grupo 986974" clip-path="url(#clip-path-2)">
              <path id="Trazado_731892" data-name="Trazado 731892" d="M24.727,347.592c0,.131,0,.259.006.383.013.582.037,1.106.062,1.554.059.986.131,1.593.131,1.593H57.674a17.959,17.959,0,0,0,.037-3.147c-.214-3.346-1.326-8.632-5.849-12.124-6.19-4.787-3.8-3.787-5.07-5.97-.143-.242-1.256-3.949-1.375-4.2-1.066-2.266-2.045-3.337-7.913-3.337-7.781,0-8.466,3.775-9.3,5.765a36.945,36.945,0,0,0-1.295,4.622c-.2.829-.393,1.712-.585,2.612-.479,2.256-.928,4.613-1.233,6.493a33.965,33.965,0,0,0-.367,5.761" transform="translate(7.133 93.006)" fill="#5c6bbc"/>
              <path id="Trazado_731893" data-name="Trazado 731893" d="M24.726,345.273c0,.131,0,.259.006.383.013.582.037,1.106.062,1.554a9.144,9.144,0,0,0,3.4-4.411c2.027-5.519-1.089-12.143-1.219-12.423l-.066.031c-.2.829-.393,1.712-.585,2.612.737,2.254,1.587,6.041.407,9.248a7.613,7.613,0,0,1-2.008,3.006" transform="translate(7.134 95.325)" fill="#2f277f"/>
              <path id="Trazado_731894" data-name="Trazado 731894" d="M24.731,342.234c.044,1.865.193,3.147.193,3.147H57.672a18.117,18.117,0,0,0,.037-3.147Z" transform="translate(7.136 98.747)" fill="#2f277f"/>
              <path id="Trazado_731895" data-name="Trazado 731895" d="M34.013,330.8a.985.985,0,0,0,.235-.03,16.2,16.2,0,0,1,7.592-.157.934.934,0,1,0,.5-1.8,17.949,17.949,0,0,0-8.557.149.934.934,0,0,0,.233,1.837" transform="translate(9.545 94.749)" fill="#fff"/>
              <path id="Trazado_731896" data-name="Trazado 731896" d="M33.6,327.876a.982.982,0,0,0,.235-.03,16.2,16.2,0,0,1,7.592-.157.934.934,0,0,0,.5-1.8,17.949,17.949,0,0,0-8.557.15.934.934,0,0,0,.233,1.837" transform="translate(9.424 93.904)" fill="#fff"/>
              <path id="Trazado_731897" data-name="Trazado 731897" d="M35.1,333.1a.982.982,0,0,0,.235-.03,16.329,16.329,0,0,1,7.593-.156.934.934,0,0,0,.5-1.8,17.959,17.959,0,0,0-8.557.148A.934.934,0,0,0,35.1,333.1" transform="translate(9.858 95.411)" fill="#fff"/>
              <path id="Trazado_731898" data-name="Trazado 731898" d="M36.377,335.711a.982.982,0,0,0,.235-.03,16.331,16.331,0,0,1,7.593-.156.934.934,0,0,0,.5-1.8,17.968,17.968,0,0,0-8.557.149.934.934,0,0,0,.233,1.837" transform="translate(10.227 96.165)" fill="#fff"/>
              <path id="Trazado_731899" data-name="Trazado 731899" d="M79.783,308.949v20.945l16.29,1.134,3.292-23.493Z" transform="translate(23.02 88.735)" fill="#e09082"/>
              <path id="Trazado_731900" data-name="Trazado 731900" d="M135.139,351.091l-58.264-.052a8.151,8.151,0,0,1-.763-3.237c-.359-4.929,1.218-12.793,1.992-17.751.094-.58.175-1.12.237-1.609a17.293,17.293,0,0,0,.177-2.024c0-4.049,3.585-3.352,3.585-3.352,5.89,5.787,12.574-2.877,16.47-.03,0,0,1.678,1.2,6.3,5.371s12.486,6.919,19.18,9.727c8.643,3.621,11.092,7.234,11.568,9.721a4.55,4.55,0,0,1-.482,3.236" transform="translate(21.946 93.037)" fill="#5c6bbc"/>
              <path id="Trazado_731901" data-name="Trazado 731901" d="M135.128,345.412l-58.264-.052a8.15,8.15,0,0,1-.763-3.237l59.508.053a4.55,4.55,0,0,1-.482,3.236" transform="translate(21.958 98.715)" fill="#2f277f"/>
              <path id="Trazado_731902" data-name="Trazado 731902" d="M82.363,349.7H80.632a12.788,12.788,0,0,0,3.14-9.326,16.431,16.431,0,0,0-6.124-11.665c.094-.58.174-1.12.237-1.609a17.854,17.854,0,0,1,7.275,13.206,14.143,14.143,0,0,1-2.8,9.4" transform="translate(22.404 94.38)" fill="#2f277f"/>
              <path id="Trazado_731903" data-name="Trazado 731903" d="M97.867,330.371a.961.961,0,0,1-.229-1.893l3.641-.9a.96.96,0,1,1,.46,1.863l-3.64.9a.962.962,0,0,1-.232.028" transform="translate(27.961 94.51)" fill="#fff"/>
              <path id="Trazado_731904" data-name="Trazado 731904" d="M95.292,328.181a.961.961,0,0,1-.229-1.893l3.64-.9a.96.96,0,1,1,.461,1.863l-3.64.9a1.031,1.031,0,0,1-.232.028" transform="translate(27.218 93.878)" fill="#fff"/>
              <path id="Trazado_731905" data-name="Trazado 731905" d="M100.69,332.015a.96.96,0,0,1-.228-1.893l3.64-.9a.96.96,0,1,1,.46,1.863l-3.64.9a.959.959,0,0,1-.232.028" transform="translate(28.776 94.984)" fill="#fff"/>
              <path id="Trazado_731906" data-name="Trazado 731906" d="M103.513,333.6a.96.96,0,0,1-.228-1.893l3.64-.9a.96.96,0,0,1,.461,1.863l-3.641.9a.951.951,0,0,1-.232.028" transform="translate(29.59 95.44)" fill="#fff"/>
              <path id="Trazado_731907" data-name="Trazado 731907" d="M106.592,335.058a.96.96,0,0,1-.228-1.892l3.64-.9a.96.96,0,1,1,.46,1.863l-3.64.9a.951.951,0,0,1-.232.028" transform="translate(30.479 95.862)" fill="#fff"/>
              <path id="Trazado_731908" data-name="Trazado 731908" d="M109.931,336.306a.96.96,0,0,1-.228-1.893l3.64-.9a.96.96,0,1,1,.46,1.863l-3.64.9a.962.962,0,0,1-.232.028" transform="translate(31.442 96.222)" fill="#fff"/>
              <path id="Trazado_731909" data-name="Trazado 731909" d="M88.238,290.836c-1.682,27.859-3.7,65.15-3.7,65.15l25.892-.316s11.9-46.261,19.211-108.024L94.222,159.753,53.772,178.1l41.56,81.452.146.034c-2.992,6.382-6.356,16.589-7.24,31.251" transform="translate(15.515 46.094)" fill="#9e4f2e"/>
              <path id="Trazado_731910" data-name="Trazado 731910" d="M78.991,306.154h25.527a.891.891,0,1,0,0-1.782H78.991a.891.891,0,0,0,0,1.782" transform="translate(22.535 87.822)" fill="#5f2418"/>
              <path id="Trazado_731911" data-name="Trazado 731911" d="M104.412,233.082a15.68,15.68,0,0,0,10.579-4.154.891.891,0,0,0-1.269-1.25,14.15,14.15,0,0,1-9.7,3.617.891.891,0,1,0-.052,1.781c.149,0,.3.006.446.006" transform="translate(29.748 65.617)" fill="#5f2418"/>
              <path id="Trazado_731912" data-name="Trazado 731912" d="M87.332,342.353a.89.89,0,0,0,.887-.821c.034-.414,3.286-41.531,3.827-55.5.533-13.816,7.441-33.177,7.512-33.372a.891.891,0,0,0-.052-.716c-9.243-17.525-37.393-74.345-37.677-74.917a.891.891,0,0,0-1.6.791c.282.568,28.081,56.679,37.517,74.611-.97,2.783-6.981,20.515-7.485,33.533-.539,13.939-3.788,55.019-3.822,55.433a.891.891,0,0,0,.818.959l.071,0" transform="translate(17.353 50.935)" fill="#5f2418"/>
              <path id="Trazado_731913" data-name="Trazado 731913" d="M28.48,361.313H49.856c3.815-35.826,12.479-97.475,12.479-97.475,7.211-23.533,1.982-104.205,1.982-104.205l-43.4-2.94s-.29,9.1,1.161,36.864c.968,18.541,6.31,54.008,7.146,69.935-6.136,17.484-4.71,31.314-4.336,49.16.417,19.894,3.586,48.662,3.586,48.662" transform="translate(6.03 45.211)" fill="#9e4f2e"/>
              <path id="Trazado_731914" data-name="Trazado 731914" d="M43.77,239.846a15.683,15.683,0,0,0,11.348.613.891.891,0,0,0-.635-1.665,14.147,14.147,0,0,1-10.33-.738.891.891,0,0,0-.786,1.6c.135.066.269.13.4.191" transform="translate(12.369 68.661)" fill="#5f2418"/>
              <path id="Trazado_731915" data-name="Trazado 731915" d="M48.265,310.806a.891.891,0,0,0-.119-1.778l-21.039,1.078a.891.891,0,1,0,.09,1.779l21.039-1.078h.028" transform="translate(7.577 89.165)" fill="#5f2418"/>
              <path id="Trazado_731916" data-name="Trazado 731916" d="M105.508,151.783s2.241,30.823-17.068,33.765c-13.539,2.062-47.484,1.174-62.766-8.386-10.875-6.8.3-37,.3-37Z" transform="translate(6.035 40.441)" fill="#9e4f2e"/>
              <path id="Trazado_731917" data-name="Trazado 731917" d="M89.438,171.653a.891.891,0,0,0,.213-1.756,10.521,10.521,0,0,1-6.105-4.668c-1.328-2.47-1.344-5.588-.045-9.27a.89.89,0,1,0-1.679-.593c-1.477,4.183-1.421,7.792.165,10.726a12.165,12.165,0,0,0,7.239,5.536.931.931,0,0,0,.213.026" transform="translate(23.3 44.657)" fill="#5f2418"/>
              <path id="Trazado_731918" data-name="Trazado 731918" d="M28,169.745a19.3,19.3,0,0,0,15.79-7.931,28.464,28.464,0,0,0,4.823-9.968.891.891,0,0,0-1.737-.394,27.159,27.159,0,0,1-4.536,9.325c-4.466,5.807-10.575,8.115-18.159,6.86a.891.891,0,0,0-.29,1.758,25.176,25.176,0,0,0,4.109.35" transform="translate(6.677 43.499)" fill="#5f2418"/>
              <path id="Trazado_731919" data-name="Trazado 731919" d="M28.8,183.221a9.336,9.336,0,0,1-1.885-.193,7.992,7.992,0,0,1-5.673-4.244c-5.454-10.187,4.485-34.869,4.911-35.914a1.052,1.052,0,0,1,1.948.792c-.1.247-10,24.809-5,34.129a5.906,5.906,0,0,0,4.239,3.176c6.85,1.4,12.625-7.463,16.263-15.14a113.488,113.488,0,0,0,6.457-17.806,1.052,1.052,0,0,1,2.038.522c-.378,1.474-9.046,34.678-23.293,34.678" transform="translate(5.659 41.034)" fill="#fff"/>
              <path id="Trazado_731920" data-name="Trazado 731920" d="M55.943,180.665a.884.884,0,0,0,.447-.121,46.418,46.418,0,0,0,15.805-16.835.891.891,0,0,0-1.568-.845A45.351,45.351,0,0,1,55.494,179a.891.891,0,0,0,.448,1.661" transform="translate(15.884 46.857)" fill="#5f2418"/>
              <path id="Trazado_731921" data-name="Trazado 731921" d="M31.969,348.962a.892.892,0,0,0,.622-.9c-.023-.4-2.314-40.014-3.822-54.442-1.49-14.241,5.027-37.556,5.092-37.789a.88.88,0,0,0,.03-.332c-2.437-23.9-5.631-78.705-5.662-79.255a.891.891,0,0,0-1.779.1c.032.55,3.212,55.143,5.652,79.166C31.464,257.8,25.523,279.7,27,293.805c1.505,14.387,3.792,53.96,3.815,54.358a.893.893,0,0,0,.941.839.907.907,0,0,0,.216-.04" transform="translate(7.631 50.61)" fill="#5f2418"/>
              <path id="Trazado_731922" data-name="Trazado 731922" d="M82.677,75.874l.825,4.177c.28,1.367.557,2.729.857,4.087.593,2.716,1.2,5.427,1.839,8.133,1.3,5.411,2.654,10.817,4.2,16.224s3.178,10.828,5.15,16.3c.984,2.743,2.042,5.5,3.263,8.33a65.657,65.657,0,0,0,4.565,8.9c.506.8,1.063,1.635,1.721,2.518a26.85,26.85,0,0,0,2.428,2.836,21,21,0,0,0,1.769,1.6,18.048,18.048,0,0,0,2.523,1.706,15.636,15.636,0,0,0,3.744,1.509,15.091,15.091,0,0,0,2.407.414l.314.027.223.01.441.017c.3.009.566,0,.845,0a18.364,18.364,0,0,0,5.208-.935,24.444,24.444,0,0,0,3.487-1.462,36.6,36.6,0,0,0,4.949-3.1,70.47,70.47,0,0,0,7.27-6.289c2.162-2.111,4.166-4.239,6.1-6.383s3.783-4.306,5.59-6.481,3.545-4.385,5.193-6.654,3.221-4.583,4.7-6.963q1.115-1.782,2.152-3.622c.349-.612.679-1.237,1.013-1.863.167-.313.332-.628.491-.95l.491-.992a7.913,7.913,0,0,0-12.053-9.673l-.354.287c-.479.387-1.009.843-1.5,1.282s-1.005.887-1.5,1.339q-1.479,1.355-2.924,2.737-2.89,2.76-5.67,5.573c-1.859,1.867-3.687,3.747-5.5,5.609s-3.658,3.672-5.51,5.416-3.717,3.417-5.574,4.949a49.807,49.807,0,0,1-5.368,3.94,12.448,12.448,0,0,1-2.033,1.063c-.218.079-.369.1-.286.049a3.057,3.057,0,0,1,1.215-.233c.111-.006.2-.005.338-.006l.187,0,.283.017a8.539,8.539,0,0,1,1.407.235,8.3,8.3,0,0,1,1.877.719,7.066,7.066,0,0,1,.859.542c.158.11.258.2.286.209.079.054-.019-.1-.14-.312s-.3-.535-.487-.9c-.374-.728-.79-1.647-1.194-2.631s-.82-2.051-1.213-3.157c-.79-2.212-1.531-4.572-2.227-6.985-1.383-4.84-2.639-9.882-3.8-14.978-1.143-5.1-2.242-10.264-3.247-15.456-.509-2.594-1.014-5.193-1.49-7.793l-.719-3.9-.674-3.818-.04-.224A13.587,13.587,0,0,0,82.627,75.6c.012.068.037.2.05.271" transform="translate(23.78 17.211)" fill="#b2aa7d"/>
              <path id="Trazado_731923" data-name="Trazado 731923" d="M112.656,113.132l-3.929,1.359c-.687.238-.277,1.291.408,1.054l3.927-1.359c.689-.238.278-1.291-.407-1.054" transform="translate(31.27 32.633)" fill="#1e1d12"/>
              <path id="Trazado_731924" data-name="Trazado 731924" d="M114.558,112.863a9.937,9.937,0,0,0-3.247,6.012.609.609,0,0,1-1.2-.193,11.246,11.246,0,0,1,3.724-6.8c.586-.519,1.308.461.725.977" transform="translate(31.768 32.241)" fill="#1e1d12"/>
              <path id="Trazado_731925" data-name="Trazado 731925" d="M21.884,182.7c.046.037.093.07.137.1.478.385.963.759,1.452,1.13.394.29.785.586,1.185.87a71.577,71.577,0,0,0,7.284,4.612,80.262,80.262,0,0,0,8.873,4.212q.843.338,1.7.661c.046.014.086.035.137.049q2.822,1.061,5.693,1.91,1.079.323,2.16.615a92.586,92.586,0,0,0,18.433,3.018c.53.032,1.058.063,1.585.084q2.366.108,4.688.084c.536,0,1.072-.005,1.6-.023a77.927,77.927,0,0,0,16.47-2.1c.64-.153,1.269-.318,1.893-.49,1.747-.483,3.429-1.031,5.032-1.643.072-.026.144-.053.214-.081a44.2,44.2,0,0,0,6.383-3c-.058-1.809-.122-3.821-.116-5.949,0-.2,0-.394,0-.6.009-1.91.035-3.918.081-5.985.253-11.571,1.018-24.981,1.62-33.325.009-.094.015-.186.021-.276v-.012c.075-1.018.148-1.96.214-2.806q.1-1.239.206-2.446l0-.012c.1-1.1.2-2.183.307-3.247q.265-2.714.589-5.275c.237-1.948.495-3.844.768-5.672.142-.983.3-1.948.448-2.893v-.006c.151-.948.308-1.875.47-2.788.075-.446.156-.893.237-1.334.041-.226.085-.452.125-.675q.344-1.855.707-3.626c4.586-22.374,10.971-33.552,12.2-40a11.159,11.159,0,0,0,.2-1.786,12.83,12.83,0,0,0-.2-2.725,10.2,10.2,0,0,0-.716-2.286c-2.072-4.572-7.289-6.5-12.2-9.386a.228.228,0,0,0-.026-.012c-.67-.4-1.336-.809-1.988-1.25-.276-.186-.549-.378-.818-.571s-.513-.38-.768-.582c-.322-.259-.647-.526-.959-.807a16.76,16.76,0,0,1-4.175-5.51.4.4,0,0,0-.028-.058c-.122-.269-.241-.551-.357-.838L80.8,45.056A31.316,31.316,0,0,1,75.164,47c-.211.058-.429.1-.646.162-.125.026-.255.058-.383.084-.821.183-1.711.354-2.67.5-.83.119-1.714.223-2.641.3-.3.023-.588.045-.892.058a43.577,43.577,0,0,1-5.34-.021,14.958,14.958,0,0,0-8.743,2.127,19.615,19.615,0,0,0-3.493,2.684C45.928,57.117,42.293,64.018,39.6,73.218c-1.667,5.716-3.3,11.2-4.844,16.528q-1.092,3.769-2.113,7.453c-.134.469-.262.935-.389,1.4-.008.04-.023.077-.031.116-.139.515-.282,1.028-.417,1.545-.955,3.524-1.844,6.994-2.658,10.449-1.213,5.148-2.25,10.244-3.053,15.377q-.443,2.822-.789,5.67c-1.153,9.531-4.658,41.491-3.426,50.944" transform="translate(6.24 13)" fill="#b2aa7d"/>
              <path id="Trazado_731926" data-name="Trazado 731926" d="M39.194,72.906A189.4,189.4,0,0,0,95.755,87.447a162.967,162.967,0,0,0,16.9.656.484.484,0,0,0,0-.966c-25.052.329-49.967-5.31-72.975-15.066-.566-.24-1.058.593-.487.835" transform="translate(11.236 20.783)" fill="#d9d2a9"/>
              <path id="Trazado_731927" data-name="Trazado 731927" d="M36.2,80.306A194.171,194.171,0,0,0,93.872,95.067a161.063,161.063,0,0,0,16.983.68.483.483,0,0,0,0-.966,180.968,180.968,0,0,1-58.233-9.347Q44.533,82.8,36.693,79.471c-.567-.24-1.059.593-.488.835" transform="translate(10.373 22.918)" fill="#d9d2a9"/>
              <path id="Trazado_731928" data-name="Trazado 731928" d="M109.335,101.608A201.094,201.094,0,0,1,49.9,93.377a155.707,155.707,0,0,1-16.174-5.786c-.567-.24-1.059.593-.488.835,18.783,7.953,39.169,12.151,59.463,13.63q8.3.607,16.635.521Z" transform="translate(9.517 25.261)" fill="#d9d2a9"/>
              <path id="Trazado_731929" data-name="Trazado 731929" d="M31.131,96.623C49.914,104.575,70.3,108.773,90.6,110.254q8.6.626,17.239.514a.484.484,0,0,0,0-.966,201.112,201.112,0,0,1-60.042-8.229,155.707,155.707,0,0,1-16.174-5.786c-.567-.24-1.059.593-.488.835" transform="translate(8.909 27.626)" fill="#d9d2a9"/>
              <path id="Trazado_731930" data-name="Trazado 731930" d="M91.428,110.892h0a.591.591,0,0,0,.334-.4c4.576-18.079,9-32.228,9.058-32.378a.583.583,0,0,0-.39-.728l-.012,0a.586.586,0,0,0-.723.379c-.045.152-4.482,14.33-9.075,32.441a.589.589,0,0,0,.808.684" transform="translate(26.142 22.322)" fill="#1e1d12"/>
              <path id="Trazado_731931" data-name="Trazado 731931" d="M25.511,172.281a.651.651,0,0,1-.5-.622,327.119,327.119,0,0,1,5.173-62.082c2.839-15.922,5.831-26.15,5.86-26.25A.652.652,0,1,1,37.3,83.7c-.03.1-3.006,10.273-5.832,26.132a325.767,325.767,0,0,0-5.15,61.807.652.652,0,0,1-.639.665.693.693,0,0,1-.164-.018" transform="translate(7.202 23.908)" fill="#d9d2a9"/>
              <path id="Trazado_731932" data-name="Trazado 731932" d="M86.511,69a28.111,28.111,0,0,1-12.322-1.88A51.452,51.452,0,0,1,60.732,59.5a.56.56,0,0,1-.1-.74.459.459,0,0,1,.679-.094A50.379,50.379,0,0,0,74.51,66.131c9.869,3.607,17.922,2.18,23.936-4.241a.462.462,0,0,1,.688.012.561.561,0,0,1,0,.746,19.5,19.5,0,0,1-12.455,6.336L86.511,69" transform="translate(17.467 16.896)" fill="#6a6440"/>
              <path id="Trazado_731933" data-name="Trazado 731933" d="M82.57,60.527c-5.251.508-11.8-3.417-12.156-3.636a.557.557,0,0,1-.195-.718.462.462,0,0,1,.66-.2c.11.067,11.045,6.624,15.367,1.719a.46.46,0,0,1,.687-.012.561.561,0,0,1,.021.745,6.447,6.447,0,0,1-4.384,2.1" transform="translate(20.244 16.131)" fill="#6a6440"/>
              <path id="Trazado_731934" data-name="Trazado 731934" d="M75.917,159.728a35.4,35.4,0,0,1-6.074-.262,50.445,50.445,0,0,1-15.991-5.119,75.644,75.644,0,0,1-16.014-10.835.56.56,0,0,1-.054-.743.458.458,0,0,1,.684-.054A74.567,74.567,0,0,0,54.275,153.4c8.485,4.228,21.088,8.092,32.95,2.493a.475.475,0,0,1,.64.274.542.542,0,0,1-.249.693,30.409,30.409,0,0,1-11.7,2.867" transform="translate(10.869 41.141)" fill="#6a6440"/>
              <path id="Trazado_731935" data-name="Trazado 731935" d="M71.991,156.288a35.351,35.351,0,0,1-5.528-2.532,50.405,50.405,0,0,1-12.881-10.77,75.551,75.551,0,0,1-10.748-16.072.56.56,0,0,1,.229-.709.459.459,0,0,1,.655.209A74.513,74.513,0,0,0,54.33,142.27C60.6,149.384,70.813,157.714,83.91,157a.474.474,0,0,1,.49.495.543.543,0,0,1-.491.549,30.423,30.423,0,0,1-11.918-1.755" transform="translate(12.345 36.397)" fill="#6a6440"/>
              <path id="Trazado_731936" data-name="Trazado 731936" d="M69.363,28.17s-6.306,2.876-6.083,5.851c.247,3.308,5.744.472,5.744.472s-5.073,2.239-3.891,4.663c.966,1.986,5.271-.482,5.271-.482s-1.8,3.394.385,4.444S76.809,37.3,76.809,37.3Z" transform="translate(18.257 8.128)" fill="#1e1d12"/>
              <path id="Trazado_731937" data-name="Trazado 731937" d="M90.973,29.01s3.068-5.363,7.471-3.038,1.21,17.957-7.6,15.542Z" transform="translate(26.211 7.325)" fill="#a8494a"/>
              <path id="Trazado_731938" data-name="Trazado 731938" d="M67.872,51.407s-1.618,1.719,6.355,6.582a18.438,18.438,0,0,0,13.188,1.925,17.044,17.044,0,0,0,2.055-.719c.334-7.189,2.594-11.289,3.188-12.251.091-.147.143-.222.143-.222L73.345,28.9Z" transform="translate(19.545 8.34)" fill="#e09082"/>
              <path id="Trazado_731939" data-name="Trazado 731939" d="M72.742,36.7S74.2,53.615,85.97,57.665a17.045,17.045,0,0,0,2.055-.719c.335-7.189,2.594-11.289,3.189-12.251Z" transform="translate(20.989 10.588)" fill="#1e1d12"/>
              <path id="Trazado_731940" data-name="Trazado 731940" d="M79.959,54.362c8.79,4.165,17.179,2.069,20.09-5.636.7-1.858,1.513-4.6,2.286-7.476l.023-.089c.164-.611.326-1.231.488-1.846q.176-.673.343-1.34c1.31-5.148,2.353-9.85,2.353-9.85C107.47,15,96.031,7.015,84.657,9.282S73.216,28.1,71.309,35.706s1.111,15.087,8.65,18.657" transform="translate(20.414 2.568)" fill="#e09082"/>
              <path id="Trazado_731941" data-name="Trazado 731941" d="M83.792,33.077s-1.358,4.664,2.406,6.248a4.189,4.189,0,0,0,5.5-2.044Z" transform="translate(24.108 9.544)" fill="#fff"/>
              <path id="Trazado_731942" data-name="Trazado 731942" d="M84.748,39.414a2.18,2.18,0,0,1-.923-1.12.367.367,0,0,1,.7-.222,1.49,1.49,0,0,0,1.376.934.367.367,0,1,1-.043.732,2.383,2.383,0,0,1-1.111-.325" transform="translate(24.182 10.912)" fill="#a8494a"/>
              <path id="Trazado_731943" data-name="Trazado 731943" d="M86.906,35.819a.547.547,0,0,1,.264-.966l3.621-.536-1.935-1.941a.55.55,0,0,1-.157-.43l.554-6.957a.547.547,0,0,1,1.091.086l-.535,6.706,2.524,2.532a.548.548,0,0,1-.308.928l-4.694.695a.548.548,0,0,1-.425-.116" transform="translate(25.017 7.065)" fill="#a8494a"/>
              <path id="Trazado_731944" data-name="Trazado 731944" d="M86.514,26.845c-.376.964-1.088,1.585-1.587,1.39s-.6-1.135-.224-2.1,1.086-1.586,1.587-1.39.6,1.134.224,2.1" transform="translate(24.374 7.13)" fill="#1e1d12"/>
              <path id="Trazado_731945" data-name="Trazado 731945" d="M83.661,24.715a.275.275,0,0,1,.168-.459c.126-.015,3.089-.347,4.309,2.032a.274.274,0,0,1-.487.25C86.6,24.495,83.922,24.8,83.895,24.8a.272.272,0,0,1-.233-.085" transform="translate(24.118 6.992)" fill="#1e1d12"/>
              <path id="Trazado_731946" data-name="Trazado 731946" d="M93.888,29.446c-.376.964-1.088,1.586-1.587,1.39s-.6-1.135-.224-2.1,1.086-1.586,1.587-1.39.6,1.134.224,2.1" transform="translate(26.502 7.88)" fill="#1e1d12"/>
              <path id="Trazado_731947" data-name="Trazado 731947" d="M91.181,27.316a.275.275,0,0,1,.168-.459c.126-.014,3.089-.347,4.309,2.032a.274.274,0,1,1-.487.25C94.123,27.1,91.442,27.4,91.415,27.4a.272.272,0,0,1-.233-.085" transform="translate(26.288 7.743)" fill="#1e1d12"/>
              <path id="Trazado_731948" data-name="Trazado 731948" d="M83.583,23.577c-2.761-.125-2.776-3.118-.035-3.965a7.18,7.18,0,0,1,3.8-.34c3.457.874,2.93,3.333.946,3.872a19.3,19.3,0,0,1-4.71.433" transform="translate(23.516 5.522)" fill="#1e1d12"/>
              <path id="Trazado_731949" data-name="Trazado 731949" d="M95.538,26.526c2.415,1.344,4-1.2,2.112-3.355A7.177,7.177,0,0,0,94.6,20.887c-3.4-1.073-4.244,1.3-2.837,2.8a19.228,19.228,0,0,0,3.779,2.843" transform="translate(26.288 5.949)" fill="#1e1d12"/>
              <g id="Grupo_986970" data-name="Grupo 986970" transform="translate(117.69 40.044)" opacity="0.5">
                <g id="Grupo_986969" data-name="Grupo 986969">
                  <g id="Grupo_986968" data-name="Grupo 986968" clip-path="url(#clip-path-4)">
                    <path id="Trazado_731950" data-name="Trazado 731950" d="M95.314,34.707a9.956,9.956,0,0,0,1.08.144c.008-.03.017-.057.024-.088.162-.611.325-1.231.487-1.848q.176-.671.344-1.339a10.781,10.781,0,0,0-1.294-.323c-2.368-.441-4.429-.026-4.608.926s1.6,2.086,3.966,2.527" transform="translate(-91.336 -31.077)" fill="#a8494a"/>
                  </g>
                </g>
              </g>
              <g id="Grupo_986973" data-name="Grupo 986973" transform="translate(97.879 34.396)" opacity="0.5">
                <g id="Grupo_986972" data-name="Grupo 986972">
                  <g id="Grupo_986971" data-name="Grupo 986971" clip-path="url(#clip-path-5)">
                    <path id="Trazado_731951" data-name="Trazado 731951" d="M75.974,27.8c-.178.954,1.6,2.085,3.965,2.526s4.431.026,4.608-.929-1.6-2.084-3.965-2.524-4.43-.026-4.608.928" transform="translate(-75.961 -26.694)" fill="#a8494a"/>
                  </g>
                </g>
              </g>
              <path id="Trazado_731952" data-name="Trazado 731952" d="M73.1,22.842a4.353,4.353,0,0,0,.021.49s1.9,1.319,1.828,5.689l2.8.617S79.7,26.5,80.091,20.621a5.007,5.007,0,0,1,.289-1.344c1.874-4.967,11.937-7.254,17.795-4.453a12.486,12.486,0,0,1,6.855,9.689,21.655,21.655,0,0,1-.4,5.056A15.93,15.93,0,0,0,104.2,16.1C99.772,7.058,86.648,4.016,79.47,10.095c-6.052,5.126-6.417,11.023-6.373,12.747" transform="translate(21.09 1.999)" fill="#1e1d12"/>
              <path id="Trazado_731953" data-name="Trazado 731953" d="M68.813,19.071c-.192,3.049,5.539,1.5,5.539,1.5s1.9,1.318,1.828,5.688l2.8.617s1.956-3.143,2.349-9.017a5.007,5.007,0,0,1,.289-1.344l-8.94.25c-1.243.147-3.784,1.059-3.863,2.309" transform="translate(19.854 4.764)" fill="#a8494a"/>
              <path id="Trazado_731954" data-name="Trazado 731954" d="M70.923,16.512s-2.269,2.658-2.109,2.559,9.87-1.569,12.458-.5a6.093,6.093,0,0,1,.345-2.06Z" transform="translate(19.853 4.764)" fill="#1e1d12"/>
              <path id="Trazado_731955" data-name="Trazado 731955" d="M82.671,13.612s4.873-.334,7.164.673c2.544,1.116,6.1,4.766,7.752,3.152,2.238-2.191,4.483,4.346,4.483,4.346s-.638-10.165-8.861-10.272-8-.83-10.538,2.1" transform="translate(23.854 3.276)" fill="#1e1d12"/>
              <path id="Trazado_731956" data-name="Trazado 731956" d="M77,22.9s-1.551-4.948-6.438-3.989-6.329,16.848,2.806,17.073Z" transform="translate(19.245 5.42)" fill="#e09082"/>
              <path id="Trazado_731957" data-name="Trazado 731957" d="M71.267,33.154A4.689,4.689,0,0,0,75.1,31.1a.459.459,0,0,0-.777-.487,3.763,3.763,0,0,1-3.053,1.621.459.459,0,1,0,0,.917" transform="translate(20.431 8.772)" fill="#a8494a"/>
              <path id="Trazado_731958" data-name="Trazado 731958" d="M72.549,29.184a.437.437,0,0,0,.093.006.427.427,0,0,0,.414-.441c-.006-.2-.2-4.951-4.056-6.632a.428.428,0,0,0-.343.785c3.366,1.468,3.542,5.831,3.543,5.874a.428.428,0,0,0,.349.407" transform="translate(19.736 6.372)" fill="#1e1d12"/>
              <path id="Trazado_731959" data-name="Trazado 731959" d="M69.084,26.267A.428.428,0,0,0,69.4,26.2c.01-.006,1.019-.675,2.18-1.3a.429.429,0,0,0-.408-.754c-1.2.648-2.2,1.317-2.246,1.345a.428.428,0,0,0,.158.777" transform="translate(19.832 6.952)" fill="#1e1d12"/>
              <path id="Trazado_731960" data-name="Trazado 731960" d="M83.727,34.174a6.148,6.148,0,1,1,7.4-4.559,6.156,6.156,0,0,1-7.4,4.559m2.621-11.021a5.181,5.181,0,1,0,3.841,6.239,5.186,5.186,0,0,0-3.841-6.239" transform="translate(22.795 6.361)" fill="#fff"/>
              <path id="Trazado_731961" data-name="Trazado 731961" d="M94.734,36.792a6.148,6.148,0,1,1,7.4-4.559,6.156,6.156,0,0,1-7.4,4.559m2.621-11.021A5.181,5.181,0,1,0,101.2,32.01a5.186,5.186,0,0,0-3.841-6.239" transform="translate(25.971 7.116)" fill="#fff"/>
              <path id="Trazado_731962" data-name="Trazado 731962" d="M74.282,21.076l.469.973a14.318,14.318,0,0,1,7.432,2.5l.539-.8a16.7,16.7,0,0,0-8.44-2.672" transform="translate(21.433 6.081)" fill="#fff"/>
              <path id="Trazado_731963" data-name="Trazado 731963" d="M88.354,28.082l-.387-.885a3.158,3.158,0,0,1,3.76.906l-.768.586a2.228,2.228,0,0,0-2.605-.607" transform="translate(25.382 7.77)" fill="#fff"/>
              <path id="Trazado_731964" data-name="Trazado 731964" d="M109.038,20.573s-1.117-.341-3.028-.805c-.293-.067-.606-.142-.937-.219-5.216-1.2-14.826-2.922-24.209-2.013-.329.032-.653.064-.979.106A35.7,35.7,0,0,0,68.9,20.573,17.655,17.655,0,0,1,71.635,7.88c.222-.316.46-.631.718-.941a17.251,17.251,0,0,1,5.631-4.378c.281-.14.57-.28.87-.411A25.029,25.029,0,0,1,82.234.922,23.46,23.46,0,0,1,85.821.181c.341-.045.683-.08,1.022-.11a21.429,21.429,0,0,1,8.476,1h0c.41.137.816.283,1.211.445a20.059,20.059,0,0,1,8,5.864A18.393,18.393,0,0,1,105.855,9.2l0,0a20.391,20.391,0,0,1,3.179,11.365" transform="translate(19.812 0)" fill="#5c6bbc"/>
              <path id="Trazado_731965" data-name="Trazado 731965" d="M78.777,17.053c0,.035-.01.073-.013.11-.075.612-1.044.615-.966,0v0A30.709,30.709,0,0,0,75.9,2.08c.28-.142.57-.281.87-.412a31.507,31.507,0,0,1,2.01,15.385" transform="translate(21.899 0.481)" fill="#2f277f"/>
              <path id="Trazado_731966" data-name="Trazado 731966" d="M85.278,16.1c-.086.615-1.018.35-.93-.258A27.559,27.559,0,0,0,81.979.166C82.32.12,82.662.086,83,.056A28.764,28.764,0,0,1,85.278,16.1" transform="translate(23.654 0.016)" fill="#2f277f"/>
              <path id="Trazado_731967" data-name="Trazado 731967" d="M92.522,16.727c-.071.612-1.037.618-.966,0A32.213,32.213,0,0,0,89.352.833c.408.135.816.283,1.211.445a32.923,32.923,0,0,1,1.959,15.45" transform="translate(25.781 0.24)" fill="#2f277f"/>
              <path id="Trazado_731968" data-name="Trazado 731968" d="M97.979,18.114c0,.023-.006.049-.01.071-.08.608-1.05.616-.966,0l.039-.29A35.915,35.915,0,0,0,96.5,5.729a18.393,18.393,0,0,1,1.327,1.822l0,0a36.456,36.456,0,0,1,.152,10.56" transform="translate(27.843 1.653)" fill="#2f277f"/>
              <path id="Trazado_731969" data-name="Trazado 731969" d="M71.806,17.337c-.189.589-1.124.335-.932-.258A18.158,18.158,0,0,0,71,6.327c.222-.316.46-.631.718-.941a19.117,19.117,0,0,1,.084,11.951" transform="translate(20.442 1.554)" fill="#2f277f"/>
              <path id="Trazado_731970" data-name="Trazado 731970" d="M69.523,11.918s-3.082,3.657-.477,9.526c0,0,8.276-5.44,22.508-4.119S107.8,23.562,107.8,23.562s4.121-3.264,1.327-10.179c0,0-18.551-10.415-39.6-1.465" transform="translate(19.62 2.391)" fill="#2f277f"/>
              <path id="Trazado_731971" data-name="Trazado 731971" d="M159.748,358.832H17.687a7.087,7.087,0,1,1,0-14.174H159.748a7.087,7.087,0,1,1,0,14.174" transform="translate(3.058 99.446)" fill="#1e1d12"/>
              <path id="Trazado_731972" data-name="Trazado 731972" d="M27.1,434.281,37,352.6a5.8,5.8,0,1,0-11.512-1.394L15.419,434.281Z" transform="translate(4.449 99.863)" fill="#1e1d12"/>
              <path id="Trazado_731973" data-name="Trazado 731973" d="M120.191,434.281h11.682l-10.067-83.076a5.8,5.8,0,1,0-11.512,1.394Z" transform="translate(31.811 99.863)" fill="#1e1d12"/>
              <path id="Trazado_731974" data-name="Trazado 731974" d="M145.66,407.77a3.066,3.066,0,0,1-.887-.131L24.262,371.225a3.06,3.06,0,0,1,1.77-5.859l120.512,36.413a3.061,3.061,0,0,1-.884,5.99" transform="translate(6.373 105.383)" fill="#1e1d12"/>
              <path id="Trazado_731975" data-name="Trazado 731975" d="M25.146,407.77a3.061,3.061,0,0,1-.884-5.99l120.512-36.413a3.06,3.06,0,0,1,1.77,5.859L26.033,407.638a3.072,3.072,0,0,1-.887.131" transform="translate(6.373 105.383)" fill="#1e1d12"/>
              <path id="Trazado_731976" data-name="Trazado 731976" d="M54.978,51.342l-3.415,2.545c-1.112.841-2.223,1.679-3.319,2.535-2.194,1.707-4.38,3.421-6.546,5.167-4.322,3.5-8.616,7.057-12.827,10.779s-8.4,7.535-12.492,11.677c-2.051,2.071-4.085,4.216-6.109,6.535a65.636,65.636,0,0,0-6.059,7.954c-.508.8-1.018,1.663-1.529,2.639a26.769,26.769,0,0,0-1.513,3.413,21.579,21.579,0,0,0-.684,2.286,18.182,18.182,0,0,0-.451,3.013,15.763,15.763,0,0,0,.253,4.029,15.177,15.177,0,0,0,.665,2.35l.113.3.084.206.177.4c.122.277.241.512.367.762a18.382,18.382,0,0,0,3.09,4.3A24.047,24.047,0,0,0,7.6,124.741a36.5,36.5,0,0,0,4.929,3.131,70.555,70.555,0,0,0,8.808,3.849c2.836,1.04,5.622,1.93,8.388,2.75s5.516,1.557,8.26,2.249,5.483,1.308,8.241,1.817,5.525.932,8.31,1.242q2.089.238,4.2.379c.7.052,1.41.081,2.118.111.354.017.71.03,1.068.034l1.108.015a7.912,7.912,0,0,0,3.531-15.045l-.412-.2c-.555-.265-1.194-.548-1.8-.8s-1.233-.524-1.853-.772c-1.241-.5-2.484-.99-3.73-1.459-2.488-.945-4.984-1.843-7.472-2.712s-4.97-1.711-7.432-2.546-4.89-1.716-7.261-2.635-4.686-1.883-6.869-2.9a49.521,49.521,0,0,1-5.869-3.145,12.36,12.36,0,0,1-1.835-1.376c-.166-.162-.254-.287-.169-.237a3.041,3.041,0,0,1,.734,1c.053.1.093.183.151.3l.076.17.108.264a8.777,8.777,0,0,1,.4,1.37,8.341,8.341,0,0,1,.157,2,6.8,6.8,0,0,1-.117,1.008c-.03.192-.071.321-.066.349-.014.094.08-.059.22-.262s.353-.5.6-.826c.5-.651,1.146-1.423,1.861-2.212s1.5-1.624,2.326-2.455c1.656-1.666,3.464-3.353,5.342-5.021,3.772-3.333,7.778-6.641,11.876-9.884,4.114-3.232,8.3-6.448,12.545-9.593,2.122-1.577,4.248-3.153,6.39-4.7l3.2-2.326,3.156-2.256L71,73.288A13.588,13.588,0,1,0,55.2,51.179c-.055.04-.166.121-.22.162" transform="translate(0 14.036)" fill="#b2aa7d"/>
              <path id="Trazado_731977" data-name="Trazado 731977" d="M27.27,99.331Q42.583,104.4,57.4,110.822c.564.246,1.058-.586.487-.834Q42.969,103.517,27.526,98.4c-.591-.2-.845.737-.256.932" transform="translate(7.772 28.384)" fill="#1e1d12"/>
              <path id="Trazado_731978" data-name="Trazado 731978" d="M23.909,116.259l25.987,6.09c.6.142.862-.79.256-.932l-25.987-6.09c-.6-.142-.863.79-.256.932" transform="translate(6.799 33.272)" fill="#1e1d12"/>
              <path id="Trazado_731979" data-name="Trazado 731979" d="M30.211,93.975a438.429,438.429,0,0,1,34.7-28.185c.5-.363.015-1.2-.488-.835a440.9,440.9,0,0,0-34.9,28.337c-.464.416.222,1.1.683.683" transform="translate(8.475 18.715)" fill="#1e1d12"/>
              <path id="Trazado_731980" data-name="Trazado 731980" d="M19.18,95.3l-2.92-2.957c-.512-.518-1.286.305-.774.822q1.459,1.481,2.92,2.958c.512.518,1.285-.307.774-.823" transform="translate(4.42 26.596)" fill="#1e1d12"/>
              <path id="Trazado_731981" data-name="Trazado 731981" d="M21.279,96.508a9.948,9.948,0,0,0-6.825-.339A.608.608,0,0,1,14.11,95a11.245,11.245,0,0,1,7.738.429c.723.305.148,1.379-.568,1.076" transform="translate(3.95 27.27)" fill="#1e1d12"/>
              <rect id="Rectángulo_344897" data-name="Rectángulo 344897" width="62.779" height="48.308" transform="matrix(0.809, -0.587, 0.587, 0.809, 52.326, 165.61)" fill="#1e1d12"/>
              <rect id="Rectángulo_344898" data-name="Rectángulo 344898" width="62.778" height="48.308" transform="translate(51.022 163.814) rotate(-35.974)" fill="#fff"/>
              <path id="Trazado_731982" data-name="Trazado 731982" d="M84.564,106.242s3.793-1.178,5.778,1.738c0,0,3.292-1.544,5.706.728a20.185,20.185,0,0,1,4.954,7.2c.787,2.142-1.433,4.453-1.433,4.453a6.674,6.674,0,0,1,1,3.543,4.149,4.149,0,0,1-1.4,2.457Z" transform="translate(24.4 30.587)" fill="#1e1d12"/>
              <path id="Trazado_731983" data-name="Trazado 731983" d="M42.77,114.715a8.7,8.7,0,0,0,6.931,9.86,21.348,21.348,0,0,1,6.791,2.518c4.344,2.857,8.682,7.437,11.285,8.26,3.839,1.213,1.979-2.711,1.682-3.166a60.163,60.163,0,0,0-5.23-6.476s7.419,4.8,9.361,7.684,5.064,3.163,4.791-.567-7.346-10.715-9.829-12.12c0,0,5.34,1.777,8.1,5.6s4.261,4.823,6,5.609,2.961-2.85-1.028-8.088a20.828,20.828,0,0,0-9.745-7.6A34.827,34.827,0,0,1,78.6,117.51c4.122,1.142,6.958,5.815,9.475,5.349,2.572-.478-.933-5.717-4.158-7.742s-5.4-3.77-10.2-4.6-9.41-1.452-12.4-1.258-13.718-.513-17,2.3a5.336,5.336,0,0,0-1.551,3.154" transform="translate(12.302 31.516)" fill="#e09082"/>
              <path id="Trazado_731984" data-name="Trazado 731984" d="M50.7,110.263s8.4-3.645,11.467-3.292,7.891-.746,7.828,1.332-6.03,3.272-6.03,3.272Z" transform="translate(14.628 30.858)" fill="#e09082"/>
            </g>
          </g>
        </g>
      </g>
      <g id="Grupo_986979" data-name="Grupo 986979" transform="translate(312.469 5430.5)">
        <g id="Grupo_986980" data-name="Grupo 986980">
          <path id="Trazado_731987" data-name="Trazado 731987" d="M114.794,211.328Z" transform="translate(-35.235 -70.195)" fill="#1e1d12"/>
          <path id="Trazado_731988" data-name="Trazado 731988" d="M146.035,175.654a135.971,135.971,0,0,1-22.4,8.1c-.442.119-.88.234-1.322.342a137.749,137.749,0,0,1-32.581,4.261h0q-.687.011-1.379.011a142.385,142.385,0,0,1-20.668-1.483c-.468-.063-.932-.134-1.4-.2a149.808,149.808,0,0,1-40.162-12.221q.83-3.193,1.7-6.211c.12-.415.238-.828.361-1.24A279,279,0,0,1,37.671,140.1c.2-.494.4-.981.6-1.467,6.009-14.676,11.66-26.344,14.449-38.464.077-.335.152-.665.219-.988.1-.442.186-.869.267-1.289v0a30.319,30.319,0,0,0,.543-11.032c-.063-.375-.138-.739-.227-1.092C52.6,81.951,50.5,79.18,47.73,75.681c-.237-.3-.48-.609-.731-.921a86.466,86.466,0,0,1-8.418-12.332,25.265,25.265,0,0,1-3.116-12.856q0-.574.033-1.148a34.81,34.81,0,0,1,.584-4.762c1.979-10.345,7.844-18.135,15.073-21,.361-.141.721-.271,1.085-.39h0a16.554,16.554,0,0,1,5.094-.809H69.973V4.2H104.51V21.459h12.637c.268,0,.535.007.8.022.4.019.8.052,1.2.1A17.724,17.724,0,0,1,126.7,24.42c.308.2.609.409.91.628,5.2,3.807,9.22,10.408,10.791,18.613,1.163,6.066.9,12.656-2.5,18.766a81.173,81.173,0,0,1-7.11,10.661c-.278.364-.557.717-.828,1.059-5.086,6.459-8.4,10.007-7.314,19.713.048.449.112.914.178,1.4.216,1.49.528,3.117.94,4.907.461,2,1,4.015,1.593,6.069v0c.126.427.252.855.383,1.286,1.609,5.323,3.618,10.861,5.81,16.708.142.371.283.747.423,1.122,1.531,4.067,3.139,8.28,4.758,12.678.142.383.283.769.42,1.155,2.269,6.2,4.535,12.752,6.6,19.75.1.353.208.71.312,1.067,1.449,4.985,2.794,10.193,3.964,15.653" transform="translate(-8.677 -1.397)" fill="#5c6bbc"/>
          <path id="Trazado_731989" data-name="Trazado 731989" d="M176.753,83.141c-.278.364-.557.717-.828,1.059a67.336,67.336,0,0,1-1.263-49.727c.308.2.609.409.91.628-.55,1.486-1.044,3-1.482,4.525a65.725,65.725,0,0,0,2.663,43.516" transform="translate(-56.638 -11.451)" fill="#8798fb"/>
          <path id="Trazado_731990" data-name="Trazado 731990" d="M134.456,132.439c-5.011-3.109-9.61-6.905-14.732-9.877-15.757-9.13-34.037-4.605-50.228.762q-1.064.351-2.121.709c-.063-.375-.138-.739-.226-1.092,11.7-3.908,23.569-7.652,36.027-6.62a42.284,42.284,0,0,1,19.928,7.02c3.778,2.47,7.366,5.275,11.174,7.7.048.449.112.914.178,1.4" transform="translate(-22.304 -38.58)" fill="#8798fb"/>
          <path id="Trazado_731991" data-name="Trazado 731991" d="M77.5,68.977A37.407,37.407,0,0,1,58.113,84.262c-.238-.3-.48-.609-.732-.922a35.694,35.694,0,0,0,7.864-3.711c10.5-6.6,17.061-18.272,16.125-30.76a36.093,36.093,0,0,0-7.121-18.829h1.4a37.241,37.241,0,0,1,2.143,3.38c6.174,11.021,6.523,24.746-.29,35.556" transform="translate(-19.06 -9.978)" fill="#8798fb"/>
          <path id="Trazado_731992" data-name="Trazado 731992" d="M56.563,53.106a15.891,15.891,0,0,1-16.452,5.45q0-.574.033-1.148A14.8,14.8,0,0,0,56.02,52c4.609-6.185,3.986-14.323-.219-20.359.36-.142.721-.271,1.085-.39h0c4.413,6.56,4.855,15.356-.327,21.852" transform="translate(-13.323 -10.381)" fill="#8798fb"/>
          <path id="Trazado_731993" data-name="Trazado 731993" d="M148.362,21.586a93.162,93.162,0,0,1-6.894,11.293c-4.083,5.717-10.91,15.66-19.242,13.577-7.336-1.839-8.216-11.374-8.142-17.559A53.058,53.058,0,0,1,120.618,4.2h1.252q-1.008,1.805-1.875,3.688a51.755,51.755,0,0,0-4.8,21.563c0,6.534,1.917,18.3,11.255,15.835,4.087-1.077,7.269-4.439,9.885-7.574a91.9,91.9,0,0,0,7.34-10.14q1.86-2.981,3.487-6.1c.405.019.8.052,1.2.1" transform="translate(-37.893 -1.397)" fill="#8798fb"/>
          <path id="Trazado_731994" data-name="Trazado 731994" d="M141.343,87.114a28.656,28.656,0,0,0-15.05-8.482c-4.679-.97-12.051-1.975-12.455,4.64-.337,5.513,3.946,10.559,8.307,13.357a31.82,31.82,0,0,0,9.149,3.793c2.727.715,5.773,1.535,8.614,1.1a5.849,5.849,0,0,0,5.144-5.2c.426-3.475-1.658-6.453-3.621-9.1-.422-.57-1.39-.015-.962.562,1.963,2.648,4.35,5.892,3.278,9.387-1.177,3.838-5.594,3.564-8.757,2.951-6.55-1.272-13.5-3.7-17.515-9.368-1.71-2.415-3.2-5.834-2.291-8.828,1.211-3.992,6.579-2.971,9.72-2.432a27.791,27.791,0,0,1,15.652,8.4c.5.521,1.282-.268.788-.788" transform="translate(-37.806 -25.885)" fill="#8798fb"/>
          <path id="Trazado_731995" data-name="Trazado 731995" d="M83.038,156.677a111.727,111.727,0,0,1-9.521,9.376,115.9,115.9,0,0,1-30.1,19.029c.2-.494.4-.98.6-1.467q4.447-1.978,8.715-4.335a114.569,114.569,0,0,0,19.082-13.22,112.009,112.009,0,0,0,8.376-7.942c2.741-2.878,7.069-6.772,6.233-11.2-.85-4.5-5.88-6.129-9.858-6.222a44.185,44.185,0,0,0-11.831,1.527,51.59,51.59,0,0,0-6.047,1.935c.1-.441.186-.869.267-1.289v0a52.816,52.816,0,0,1,9.68-2.6c6.185-1.04,17.845-1.857,18.941,6.872.471,3.748-2.192,6.936-4.532,9.535" transform="translate(-14.421 -46.384)" fill="#8798fb"/>
          <path id="Trazado_731996" data-name="Trazado 731996" d="M124.591,157.431c-7.4-2.229-15.077-2.93-22.447.252-10.2,4.4-14.171,16.054-20.407,24.427a97.641,97.641,0,0,1-20.869,20.545,100,100,0,0,1-32.2,15.508c.119-.416.238-.828.361-1.24a96.521,96.521,0,0,0,10.189-3.5A97.973,97.973,0,0,0,86.175,173.44c2.7-4.472,5.308-9.156,9.212-12.711a24.541,24.541,0,0,1,13.291-5.973,37.606,37.606,0,0,1,15.531,1.386v0c.126.427.252.855.383,1.286" transform="translate(-9.523 -51.305)" fill="#8798fb"/>
          <path id="Trazado_731997" data-name="Trazado 731997" d="M149.953,184.931c-6.646-1.229-14.075,1.865-19.138,6.312-7.187,6.318-12.321,14.958-17.592,22.848-5.394,8.072-10.776,16.188-17.08,23.591a95.552,95.552,0,0,1-8.484,8.789c-.468-.063-.933-.134-1.4-.205,13.272-11.815,22.261-27.676,32.383-42.129,5.041-7.2,10.639-14.985,18.93-18.651a21.706,21.706,0,0,1,11.957-1.676c.141.371.282.747.423,1.121" transform="translate(-28.652 -60.977)" fill="#8798fb"/>
          <path id="Trazado_731998" data-name="Trazado 731998" d="M191.212,226.56a28.882,28.882,0,0,1-7.173,1.976c-4.29.594-9.747-.174-9.97-5.557-.108-2.537.951-4.992,2.051-7.217a47.092,47.092,0,0,1,4.546-7.422,39.227,39.227,0,0,1,3.21-3.751c.141.383.282.769.42,1.155-.58.613-1.141,1.252-1.679,1.906-2.872,3.495-5.721,7.822-6.988,12.206-.809,2.8-.616,6.121,2.511,7.318,2.2.843,4.855.472,7.1.041a27.751,27.751,0,0,0,5.665-1.72c.1.353.208.709.312,1.066" transform="translate(-57.816 -67.956)" fill="#8798fb"/>
          <path id="Trazado_731999" data-name="Trazado 731999" d="M154.588,264.907c-.442.119-.88.234-1.322.342a20.185,20.185,0,0,0,.141-9.4c-.587-2.31-1.831-4.613-4.086-5.657-3.117-1.437-6.623.059-9.35,1.668a67.036,67.036,0,0,0-19.286,17.652h0c-.457.007-.918.011-1.378.011A71.788,71.788,0,0,1,136.8,252.586c2.6-1.78,5.438-3.588,8.628-4,5.219-.68,8.514,3.432,9.309,8.172a22.964,22.964,0,0,1-.145,8.154" transform="translate(-39.628 -82.544)" fill="#8798fb"/>
          <path id="Trazado_732000" data-name="Trazado 732000" d="M126.32,2.623c0,1.449-7.731,2.623-17.268,2.623S91.785,4.071,91.785,2.623,99.516,0,109.052,0,126.32,1.174,126.32,2.623" transform="translate(-30.487)" fill="#1e1d12"/>
          <path id="Trazado_732001" data-name="Trazado 732001" d="M173.382,125.259c1.9,8.069,3.456,14.385,3.456,14.385-14.557,8.462-30.347,8.339-46.663,2.15a241.761,241.761,0,0,0,10.6-69.431c0-16-6.6-34.877-6.6-34.877a24.161,24.161,0,0,1-1.448-11.923c4.565-2.977,5.677-6.223,6.336-11.437A114.109,114.109,0,0,0,151.612,21.6c.209.112.421.224.634.336q2,1.052,4.308,2.206a32.554,32.554,0,0,1,9.175,5.564q.243.207.49.423c.184.162.367.327.551.5l.025.022c.009.009.02.018.032.031a31.781,31.781,0,0,1,3.751,4.121l.005.007c.465.614.92,1.26,1.354,1.938.1.147.189.294.281.443a30.5,30.5,0,0,1,4.416,13.787,52.283,52.283,0,0,1-3.683,24.861v0q-.366.919-.743,1.8c-.926,2.168-1.868,4.157-2.693,6.06v0c-.176.4-.345.8-.51,1.2v0c-1.517,3.681-2.474,7.1-1.873,10.969.314,2.017.793,4.576,1.372,7.443.5,2.489,1.084,5.21,1.7,8.007.043.2.087.394.132.591h0c.948,4.3,1.971,8.755,2.922,12.8.041.18.083.361.125.54" transform="translate(-43.239 -4.692)" fill="#e09082"/>
          <path id="Trazado_732002" data-name="Trazado 732002" d="M216.784,103.589s-19.728,16.215-32.8,7.44a131.211,131.211,0,0,1-3.408-17.652c-.021-.166-.043-.334-.065-.5-1.758-13.693-2.578-33.562,2.527-54.038a74.392,74.392,0,0,1,5.3,5.977l.319.4a102.714,102.714,0,0,1,7.778,11.179l.307.514A86.255,86.255,0,0,1,204.3,73.194q.536,1.592,1.064,3.1c.083.244.168.484.252.725q1.618,4.608,3.1,8.415l.2.51a155.267,155.267,0,0,0,7.87,17.644" transform="translate(-59.511 -12.899)" fill="#e09082"/>
          <path id="Trazado_732003" data-name="Trazado 732003" d="M213.671,85.75c-5.847-4.162-11.121-9.668-10.131-17.272a11.681,11.681,0,0,1,.954-3.361l.307.514c-1.609,3.847-.779,8.488,1.421,12.077a25.727,25.727,0,0,0,7.2,7.318c.083.244.168.484.252.725" transform="translate(-67.568 -21.629)" fill="#edbbb4"/>
          <path id="Trazado_732004" data-name="Trazado 732004" d="M190.208,89.45c-.758,3.658-2.885,7.271-6.71,8.28a.25.25,0,0,1-.135-.481c4-1.055,5.934-5.041,6.523-8.829.664-4.259-.116-8.587-1.141-12.721-1.809-7.284-4.683-15.04-2.164-22.518a15.192,15.192,0,0,1,3.1-5.4l.319.4a14.775,14.775,0,0,0-3.008,5.365,23.686,23.686,0,0,0-.347,11.524c1.454,8.027,5.289,16.074,3.568,24.381" transform="translate(-60.847 -15.872)" fill="#edbbb4"/>
          <path id="Trazado_732005" data-name="Trazado 732005" d="M213.375,114.728c-.422,4.579,1.877,9.286,5.193,12.33.24.218-.114.574-.351.355-3.593-3.3-6.254-8.817-5.18-13.776a6.194,6.194,0,0,1,4.462-4.732,7.958,7.958,0,0,1,2.39-.3c.065.17.132.341.2.51a7.608,7.608,0,0,0-2.45.268,5.848,5.848,0,0,0-4.26,5.339" transform="translate(-70.682 -36.075)" fill="#edbbb4"/>
          <path id="Trazado_732006" data-name="Trazado 732006" d="M189.4,134.735a17.956,17.956,0,0,1,1.288-8.525c.862-2.07,2.232-4.715,4.757-4.932s4.45,1.75,5.325,3.915a14.38,14.38,0,0,1,.447,8.6c-.075.314-.559.184-.484-.13a14.252,14.252,0,0,0-.215-7.7c-.744-2.271-2.8-4.767-5.5-4.115-2.333.564-3.56,3.534-4.258,5.567a17.6,17.6,0,0,0-.862,7.316c.029.321-.472.323-.5,0" transform="translate(-62.886 -40.278)" fill="#edbbb4"/>
          <path id="Trazado_732007" data-name="Trazado 732007" d="M174.605,33.853c-.321.047-.645.075-.96.1a5.387,5.387,0,0,0-3.518,1.386c-4.159,4.054-.959,10.5-2.862,15.35a6.349,6.349,0,0,1-3.958,4.02,5.539,5.539,0,0,1-5.624-2.231,12.685,12.685,0,0,1-2.239-7.052,17.622,17.622,0,0,1,1.415-7.886c1.317-3.092,3.377-6.025,3.53-9.489a6.988,6.988,0,0,0-.391-2.73c.208.112.421.224.634.335a9.007,9.007,0,0,1-.02,4.363c-.6,2.62-2.052,4.917-3.135,7.35a17.319,17.319,0,0,0-1.511,8.353c.19,2.6.923,5.615,3,7.383a4.537,4.537,0,0,0,6.654-.536c3.472-4.191.655-10.016,2.4-14.751a6.175,6.175,0,0,1,4.226-4.183,17.089,17.089,0,0,1,1.873-.209c.162.139.325.279.49.423" transform="translate(-51.624 -8.412)" fill="#edbbb4"/>
          <path id="Trazado_732008" data-name="Trazado 732008" d="M151.256,90.627c.994-2.785,2.291-5.725,4.844-7.42,2.2-1.461,5.207-1.805,7.346-.051,2.112,1.732,2.778,4.736,2.539,7.345a11.921,11.921,0,0,1-13.154,10.852c-.318-.031-.324-.532,0-.5a11.57,11.57,0,0,0,12.348-8.585,9.449,9.449,0,0,0-.962-7.515c-1.65-2.465-4.68-2.825-7.2-1.5-2.849,1.491-4.246,4.631-5.275,7.51-.108.3-.593.174-.483-.13" transform="translate(-50.236 -27.228)" fill="#edbbb4"/>
          <path id="Trazado_732009" data-name="Trazado 732009" d="M182.94,146.931a14.686,14.686,0,0,0-4.359-.985c-3.438-.342-8.066-.444-9.863-4.007a4.637,4.637,0,0,1-.16-4.212c.779-1.458,2.4-1.942,3.893-2.3,1.935-.467,3.833-1.027,4.523-3.119a4.292,4.292,0,0,0,.031-2.647,5.843,5.843,0,0,0-2.1-2.559c-1.426-1.177-3.171-2.834-2.273-4.867.746-1.69,2.518-2.252,4.213-2.549.294-.05.587-.093.871-.134.318-.045.318.455,0,.5-.249.035-.523.078-.808.135-1.985.394-4.588,1.371-3.932,3.8.55,2.037,2.91,2.836,4.012,4.5a4.692,4.692,0,0,1-2.383,6.853c-1.624.622-3.659.6-4.995,1.833-1.418,1.309-1.149,3.5-.186,5,2.273,3.518,7.47,2.9,11.041,3.522a11.585,11.585,0,0,1,2.337.649c.043.2.087.394.132.591" transform="translate(-55.843 -39.708)" fill="#edbbb4"/>
          <path id="Trazado_732010" data-name="Trazado 732010" d="M152.859,122.759c4.066-.675,9.262-1.264,11.954,2.655a5.182,5.182,0,0,1,.365,5.2,7.027,7.027,0,0,1-4.618,3.636,14.888,14.888,0,0,1-8.022-.556.251.251,0,0,1,.13-.484c2.588.748,5.369,1.294,8.013.484,2.4-.735,4.536-2.75,4.543-5.4.007-2.375-1.926-4.221-4.026-5.005-2.619-.979-5.528-.485-8.2-.041-.315.052-.454-.429-.136-.482" transform="translate(-50.608 -40.613)" fill="#edbbb4"/>
          <path id="Trazado_732011" data-name="Trazado 732011" d="M157.318,154.153a5.57,5.57,0,0,1,5.862,1.929c1.242,1.535,1.845,4.026.358,5.613-1.4,1.493-3.914,1.555-5.758,1.055a5.428,5.428,0,0,1-4.135-4.263c-.36-2.444,1.475-3.881,3.674-4.334.315-.065.452.417.136.482a4.7,4.7,0,0,0-2.744,1.4,3.3,3.3,0,0,0-.292,3.37c.94,2.258,3.466,3.214,5.773,3.109a4.331,4.331,0,0,0,2.99-1.165,3.426,3.426,0,0,0,.4-3.614,5.184,5.184,0,0,0-6.129-3.094.251.251,0,0,1-.136-.482" transform="translate(-51.019 -51.132)" fill="#edbbb4"/>
          <path id="Trazado_732012" data-name="Trazado 732012" d="M154.782,197.246c.616-2.242,1.352-5.651-1.312-6.924-1.956-.934-3.485,1.519-5.428.934-1.633-.491-1.828-2.486-1.488-3.883a17.654,17.654,0,0,0,.879-3.349c.054-1.236-1.049-3.057-2.468-2.081-.266.183-.52-.249-.256-.431a1.9,1.9,0,0,1,2.216.1,2.763,2.763,0,0,1,1,2.545,29.988,29.988,0,0,1-.952,3.614c-.282,1.423.323,3.426,2.155,3,1.073-.249,1.949-1.043,3.066-1.163a2.99,2.99,0,0,1,2.335.837c1.979,1.82,1.36,4.643.733,6.925a.251.251,0,0,1-.484-.13" transform="translate(-48.029 -60.188)" fill="#edbbb4"/>
          <path id="Trazado_732013" data-name="Trazado 732013" d="M185.477,180.264a3.272,3.272,0,0,0-1.743,1.668c-.743,1.438-1.01,3.258-2.339,4.323-1.688,1.349-4.215.586-6.2.8a9.784,9.784,0,0,0-6.413,3.04,6.483,6.483,0,0,0-.956,7.318.25.25,0,0,1-.43.255,6.67,6.67,0,0,1-.111-6.161,8.569,8.569,0,0,1,5.046-4.322,12.838,12.838,0,0,1,3.644-.691c1.426-.072,3.017.3,4.378-.229,2.127-.833,2.167-3.613,3.354-5.267a3.4,3.4,0,0,1,1.644-1.278c.041.18.083.361.125.54" transform="translate(-55.334 -59.697)" fill="#edbbb4"/>
          <path id="Trazado_732014" data-name="Trazado 732014" d="M189.789,198.621c-1.86-1.088-4.019-1.965-6.2-1.419-2.082.521-3.715,2.537-2.957,4.72.106.305-.377.439-.482.136a4.155,4.155,0,0,1,2.555-5.092c2.492-1.024,5.144-.061,7.335,1.221a.251.251,0,0,1-.25.434" transform="translate(-59.77 -65.281)" fill="#edbbb4"/>
          <path id="Trazado_732015" data-name="Trazado 732015" d="M216.581,128.334c-2.456,3.209-6.43,5.161-10.134,6.53a40.81,40.81,0,0,1-12.813,2.593,19.266,19.266,0,0,1-6.024-.622.251.251,0,0,0-.133.484c3.807,1.121,8.059.709,11.9,0a38.359,38.359,0,0,0,12.843-4.634,16.976,16.976,0,0,0,4.791-4.1c.2-.256-.239-.506-.433-.253" transform="translate(-62.214 -42.592)" fill="#ad4651"/>
          <path id="Trazado_732016" data-name="Trazado 732016" d="M184.5,125.031q-2.314-17.183-5.028-34.31-.776-4.893-1.585-9.781c-.052-.317-.535-.182-.483.134q2.83,17.106,5.259,34.275.694,4.906,1.354,9.815c.043.319.526.183.483-.133" transform="translate(-58.923 -26.825)" fill="#1e1d12"/>
          <path id="Trazado_732017" data-name="Trazado 732017" d="M82.1,141.795c-16.316,6.19-32.107,6.311-46.663-2.15,0,0,1.565-6.336,3.465-14.424.041-.177.083-.355.124-.536.943-4.018,1.959-8.438,2.9-12.71.045-.2.088-.4.133-.6.618-2.813,1.2-5.552,1.708-8.056.58-2.866,1.06-5.428,1.373-7.444.61-3.927-.384-7.39-1.94-11.132h0q-.272-.656-.566-1.324h0c-.731-1.671-1.548-3.411-2.357-5.284l0-.005q-.4-.927-.8-1.9A52.377,52.377,0,0,1,35.646,50.98,30.473,30.473,0,0,1,40.11,37.115q.139-.222.28-.441c.409-.632.835-1.238,1.268-1.813a.077.077,0,0,0,.013-.017,31.787,31.787,0,0,1,3.787-4.162l.056-.055c.19-.175.376-.343.565-.509.162-.144.324-.282.484-.419a32.536,32.536,0,0,1,9.163-5.553q2.391-1.19,4.446-2.279c.216-.114.431-.227.641-.339a113.912,113.912,0,0,0,12.4-7.4c.658,5.214,1.772,8.46,6.335,11.437A24.134,24.134,0,0,1,78.1,37.487S71.5,56.368,71.5,72.364a241.789,241.789,0,0,0,10.6,69.431" transform="translate(-11.772 -4.692)" fill="#e09082"/>
          <path id="Trazado_732018" data-name="Trazado 732018" d="M49.67,169.541A37.911,37.911,0,0,0,67.823,171.6l-.241-.184a27.122,27.122,0,0,1,.411,5.316,13.431,13.431,0,0,1-.161,1.895,2.927,2.927,0,0,1-.2.886c-.021.037.166-.057.062.02a3.554,3.554,0,0,1-1.213.205,29.429,29.429,0,0,1-13.947-1.04,18.2,18.2,0,0,1-2.475-1.093,1.178,1.178,0,0,1-.748-.814,7.076,7.076,0,0,1-.238-1.314,17,17,0,0,1,.9-6.109.251.251,0,0,0-.483-.133c-.689,2.392-1.355,5.093-.7,7.569a1.546,1.546,0,0,0,.457.92,7.918,7.918,0,0,0,1.692.871,20.623,20.623,0,0,0,3,1.067,30.98,30.98,0,0,0,11.525.706c.809-.091,1.622-.194,2.419-.364a.251.251,0,0,0,.175-.175c.811-2.687.48-5.818,0-8.547a.25.25,0,0,0-.242-.184,37.6,37.6,0,0,1-18.02-2.039c-.3-.113-.433.371-.133.483" transform="translate(-16.119 -56.149)" fill="#ad4651"/>
          <path id="Trazado_732019" data-name="Trazado 732019" d="M175.274,169.059a37.588,37.588,0,0,1-18.02,2.039.249.249,0,0,0-.241.184c-.48,2.728-.812,5.86,0,8.546a.249.249,0,0,0,.174.175,31.264,31.264,0,0,0,6.749.587,29.326,29.326,0,0,0,6.242-.691,21.411,21.411,0,0,0,3.313-1.033c.449-.183.892-.381,1.324-.6a3.453,3.453,0,0,0,1.219-.731,3.882,3.882,0,0,0,.406-1.547,9.922,9.922,0,0,0,.062-2.153,22.628,22.628,0,0,0-.92-4.6.251.251,0,0,0-.483.133,19.29,19.29,0,0,1,.933,5.306,5.815,5.815,0,0,1-.343,2.355c-.286.606-1.338.927-1.927,1.185a24.046,24.046,0,0,1-8.419,1.835,35.161,35.161,0,0,1-6.216-.238,12.877,12.877,0,0,1-1.581-.245c-.054-.013-.178-.008-.222-.043.164.132-.029-.62-.042-.691a10.851,10.851,0,0,1-.146-1.1,24.81,24.81,0,0,1,.36-6.318l-.242.184a37.911,37.911,0,0,0,18.153-2.057c.3-.111.17-.6-.133-.483" transform="translate(-51.99 -56.149)" fill="#ad4651"/>
          <path id="Trazado_732020" data-name="Trazado 732020" d="M36.27,92.854c-.02.168-.041.334-.065.5A130.9,130.9,0,0,1,32.8,111.028C19.728,119.8,0,103.588,0,103.588A155.188,155.188,0,0,0,7.869,85.951c.065-.17.132-.341.2-.513q1.458-3.765,3.065-8.31c.083-.24.169-.481.254-.725q.543-1.56,1.1-3.21a86.291,86.291,0,0,1,7.622-16.4q.15-.258.305-.511a102.4,102.4,0,0,1,7.766-11.138l.317-.4a74.1,74.1,0,0,1,5.247-5.912c5.1,20.467,4.286,40.328,2.529,54.02" transform="translate(0 -12.899)" fill="#e09082"/>
          <path id="Trazado_732021" data-name="Trazado 732021" d="M16.667,85.806c.083-.24.169-.481.254-.725a25.955,25.955,0,0,0,7.348-7.426c2.222-3.622,3.045-8.318,1.374-12.186q.15-.258.306-.511a11.681,11.681,0,0,1,1,3.467c1,7.67-4.376,13.2-10.283,17.381" transform="translate(-5.536 -21.576)" fill="#edbbb4"/>
          <path id="Trazado_732022" data-name="Trazado 732022" d="M48.457,97.7c-3.823-1.008-5.95-4.621-6.708-8.28-1.721-8.306,2.114-16.353,3.568-24.381a23.7,23.7,0,0,0-.349-11.524,14.724,14.724,0,0,0-3.067-5.43c.106-.134.214-.265.317-.4a15.183,15.183,0,0,1,3.157,5.461c2.518,7.478-.357,15.233-2.164,22.518-1.025,4.134-1.8,8.462-1.142,12.721.591,3.788,2.528,7.774,6.525,8.829a.25.25,0,0,1-.137.481" transform="translate(-13.722 -15.84)" fill="#edbbb4"/>
          <path id="Trazado_732023" data-name="Trazado 732023" d="M18.608,114.728c.417,4.545-1.843,9.214-5.118,12.259h.7v.024c3.375-3.332,5.789-8.61,4.757-13.373a6.2,6.2,0,0,0-4.463-4.732,8,8,0,0,0-2.5-.293c-.065.172-.132.343-.2.513a7.63,7.63,0,0,1,2.565.262,5.852,5.852,0,0,1,4.261,5.339" transform="translate(-3.914 -36.075)" fill="#edbbb4"/>
          <path id="Trazado_732024" data-name="Trazado 732024" d="M40.127,134.735a17.956,17.956,0,0,0-1.288-8.525c-.862-2.07-2.232-4.715-4.757-4.932s-4.45,1.75-5.325,3.915a14.38,14.38,0,0,0-.447,8.6c.075.314.559.184.484-.13a14.252,14.252,0,0,1,.215-7.7c.744-2.271,2.8-4.767,5.5-4.115,2.333.564,3.56,3.534,4.258,5.567a17.6,17.6,0,0,1,.862,7.316c-.029.321.472.323.5,0" transform="translate(-9.255 -40.278)" fill="#edbbb4"/>
          <path id="Trazado_732025" data-name="Trazado 732025" d="M70.628,45.392a12.7,12.7,0,0,1-2.239,7.052,5.541,5.541,0,0,1-5.625,2.231,6.344,6.344,0,0,1-3.957-4.02c-1.905-4.849,1.3-11.3-2.862-15.35a5.4,5.4,0,0,0-3.518-1.386c-.349-.032-.707-.063-1.06-.118.162-.144.324-.282.484-.419.671.073,1.362.087,1.979.22a6.176,6.176,0,0,1,4.224,4.183c1.748,4.735-1.071,10.56,2.4,14.751a4.534,4.534,0,0,0,6.652.536c2.074-1.768,2.8-4.778,3-7.382a17.346,17.346,0,0,0-1.513-8.353c-1.082-2.432-2.53-4.73-3.134-7.35a8.971,8.971,0,0,1,0-4.436l.642-.339a7,7,0,0,0-.419,2.807c.152,3.464,2.214,6.4,3.531,9.49a17.645,17.645,0,0,1,1.414,7.885" transform="translate(-17.062 -8.374)" fill="#edbbb4"/>
          <path id="Trazado_732026" data-name="Trazado 732026" d="M77.051,90.627c-1-2.785-2.292-5.725-4.845-7.42-2.2-1.461-5.207-1.805-7.346-.051-2.112,1.732-2.778,4.736-2.539,7.345a11.922,11.922,0,0,0,13.154,10.852c.318-.031.324-.532,0-.5a11.571,11.571,0,0,1-12.348-8.585,9.454,9.454,0,0,1,.962-7.515c1.65-2.465,4.68-2.825,7.2-1.5,2.849,1.491,4.247,4.631,5.276,7.51.108.3.592.174.484-.13" transform="translate(-20.685 -27.228)" fill="#edbbb4"/>
          <path id="Trazado_732027" data-name="Trazado 732027" d="M59.513,141.939c-1.8,3.563-6.425,3.665-9.863,4.007a14.332,14.332,0,0,0-4.488,1.043c.045-.2.089-.4.132-.6a11.569,11.569,0,0,1,2.466-.7c3.572-.619,8.769,0,11.041-3.521.963-1.491,1.232-3.686-.186-5-1.337-1.236-3.371-1.211-5-1.833a4.692,4.692,0,0,1-2.381-6.854c1.1-1.664,3.461-2.464,4.012-4.5.67-2.477-2.045-3.444-4.044-3.823-.247-.045-.481-.083-.7-.114-.314-.045-.315-.546,0-.5.249.035.5.071.76.115,1.728.291,3.56.841,4.324,2.568.9,2.034-.847,3.69-2.273,4.867a5.835,5.835,0,0,0-2.1,2.56,4.3,4.3,0,0,0,.03,2.646c.689,2.092,2.589,2.651,4.525,3.119,1.5.363,3.113.847,3.892,2.3a4.643,4.643,0,0,1-.158,4.212" transform="translate(-15.001 -39.708)" fill="#edbbb4"/>
          <path id="Trazado_732028" data-name="Trazado 732028" d="M76.167,122.759c-4.066-.675-9.262-1.264-11.954,2.655a5.182,5.182,0,0,0-.365,5.2,7.027,7.027,0,0,0,4.618,3.636,14.888,14.888,0,0,0,8.022-.556.251.251,0,0,0-.13-.484c-2.588.748-5.37,1.294-8.013.484-2.4-.735-4.536-2.75-4.543-5.4-.007-2.375,1.926-4.221,4.026-5.005,2.619-.979,5.528-.485,8.2-.041.315.052.454-.429.136-.482" transform="translate(-21.032 -40.613)" fill="#edbbb4"/>
          <path id="Trazado_732029" data-name="Trazado 732029" d="M72.967,154.153a5.569,5.569,0,0,0-5.862,1.929c-1.242,1.535-1.845,4.026-.359,5.613,1.4,1.493,3.914,1.555,5.759,1.055a5.428,5.428,0,0,0,4.135-4.263c.36-2.444-1.475-3.881-3.674-4.334-.315-.065-.452.417-.136.482a4.705,4.705,0,0,1,2.744,1.4,3.3,3.3,0,0,1,.292,3.37c-.94,2.258-3.466,3.214-5.773,3.109a4.331,4.331,0,0,1-2.99-1.165,3.426,3.426,0,0,1-.4-3.614,5.183,5.183,0,0,1,6.129-3.094.251.251,0,0,0,.136-.482" transform="translate(-21.88 -51.132)" fill="#edbbb4"/>
          <path id="Trazado_732030" data-name="Trazado 732030" d="M75.273,197.246c-.616-2.242-1.352-5.651,1.312-6.924,1.956-.934,3.485,1.519,5.428.934,1.633-.491,1.828-2.486,1.488-3.883a17.654,17.654,0,0,1-.879-3.349c-.054-1.236,1.049-3.057,2.468-2.081.266.183.52-.249.256-.431a1.9,1.9,0,0,0-2.216.1,2.763,2.763,0,0,0-1,2.545,29.984,29.984,0,0,0,.952,3.614c.282,1.423-.323,3.426-2.155,3-1.073-.249-1.949-1.043-3.066-1.163a2.99,2.99,0,0,0-2.335.837c-1.979,1.82-1.36,4.643-.733,6.925a.251.251,0,0,0,.484-.13" transform="translate(-24.639 -60.188)" fill="#edbbb4"/>
          <path id="Trazado_732031" data-name="Trazado 732031" d="M58.819,197.656a.25.25,0,0,1-.431-.255,6.489,6.489,0,0,0-.955-7.318,9.79,9.79,0,0,0-6.415-3.04c-1.982-.219-4.51.544-6.2-.8-1.33-1.065-1.6-2.885-2.339-4.323a3.242,3.242,0,0,0-1.851-1.706c.041-.177.083-.356.125-.536a3.357,3.357,0,0,1,1.752,1.312c1.185,1.654,1.227,4.434,3.353,5.267,1.362.533,2.954.157,4.379.229a12.852,12.852,0,0,1,3.645.691,8.577,8.577,0,0,1,5.046,4.322,6.68,6.68,0,0,1-.11,6.161" transform="translate(-13.496 -59.68)" fill="#edbbb4"/>
          <path id="Trazado_732032" data-name="Trazado 732032" d="M40.792,198.621c1.86-1.088,4.018-1.965,6.2-1.419,2.081.521,3.715,2.537,2.957,4.72-.106.305.377.439.482.136a4.155,4.155,0,0,0-2.555-5.092c-2.492-1.024-5.144-.061-7.335,1.221a.251.251,0,0,0,.25.434" transform="translate(-13.426 -65.281)" fill="#edbbb4"/>
          <path id="Trazado_732033" data-name="Trazado 732033" d="M4.34,128.458c2.466,3.223,6.356,5.194,10.068,6.614A42.163,42.163,0,0,0,27.963,137.9a19.711,19.711,0,0,0,6.2-.63.251.251,0,0,0-.133-.483c-3.726,1.1-7.917.675-11.675-.018a39.381,39.381,0,0,1-12.587-4.432,16.734,16.734,0,0,1-5-4.136c-.194-.253-.628,0-.433.252" transform="translate(-1.425 -42.55)" fill="#ad4651"/>
          <path id="Trazado_732034" data-name="Trazado 732034" d="M49.048,125.164q2.314-17.183,5.028-34.31.776-4.893,1.585-9.781c.052-.315-.431-.451-.483-.133q-2.83,17.106-5.26,34.275-.693,4.906-1.354,9.815c-.043.315.44.451.483.133" transform="translate(-16.13 -26.825)" fill="#1e1d12"/>
          <path id="Trazado_732035" data-name="Trazado 732035" d="M147.1,19.928a14.312,14.312,0,0,1-8.393,11.5c-.295.13-.04.562.252.432A14.805,14.805,0,0,0,147.6,19.928c.033-.321-.468-.318-.5,0" transform="translate(-46.03 -6.54)" fill="#ad4651"/>
          <path id="Trazado_732036" data-name="Trazado 732036" d="M138.124,37.545a164.963,164.963,0,0,1,8.7,42.861,162.753,162.753,0,0,1-2.914,43.5,159.178,159.178,0,0,1-6.741,23.507.256.256,0,0,0,.175.308,40.689,40.689,0,0,0,8.28,2.144,53.6,53.6,0,0,0,19.291-.17,48.736,48.736,0,0,0,13.211-4.675c.286-.15.033-.582-.252-.432a51.369,51.369,0,0,1-37.764,3.516,27.531,27.531,0,0,1-2.631-.866l.174.308a160.541,160.541,0,0,0,9.481-42.636,164.783,164.783,0,0,0-2.2-43.541,165.142,165.142,0,0,0-6.33-23.953c-.1-.3-.588-.173-.483.133" transform="translate(-45.559 -12.37)" fill="#ad4651"/>
          <path id="Trazado_732037" data-name="Trazado 732037" d="M83.273,19.928a14.805,14.805,0,0,0,8.641,11.937c.292.129.547-.3.252-.432a14.312,14.312,0,0,1-8.393-11.5c-.032-.318-.534-.321-.5,0" transform="translate(-27.659 -6.54)" fill="#ad4651"/>
          <path id="Trazado_732038" data-name="Trazado 732038" d="M76.321,37.412A165.47,165.47,0,0,0,67.61,80.257a163.316,163.316,0,0,0,2.861,43.483,159.14,159.14,0,0,0,6.8,23.8l.175-.309a40,40,0,0,1-7.821,2.064,52.971,52.971,0,0,1-19.345-.062,48.339,48.339,0,0,1-13.23-4.652c-.285-.15-.539.283-.253.433a51.892,51.892,0,0,0,37.979,3.616,28.311,28.311,0,0,0,2.8-.914.255.255,0,0,0,.175-.309,160.069,160.069,0,0,1-9.475-42.652A164.318,164.318,0,0,1,76.8,37.545c.106-.305-.378-.436-.483-.133" transform="translate(-12.181 -12.37)" fill="#ad4651"/>
        </g>
      </g>
    </g>
  </g>
</svg>
