<svg xmlns="http://www.w3.org/2000/svg" xmlns:xlink="http://www.w3.org/1999/xlink" width="295" height="183" viewBox="0 0 295 183">
  <defs>
    <clipPath id="clip-path">
      <rect id="Rectángulo_344915" data-name="Rectángulo 344915" width="197.019" height="161.261" fill="none"/>
    </clipPath>
    <clipPath id="clip-path-2">
      <rect id="Rectángulo_344914" data-name="Rectángulo 344914" width="197.018" height="161.261" fill="none"/>
    </clipPath>
    <clipPath id="clip-path-3">
      <rect id="Rectángulo_344902" data-name="Rectángulo 344902" width="4.635" height="1.37" fill="none"/>
    </clipPath>
    <clipPath id="clip-path-4">
      <rect id="Rectángulo_344903" data-name="Rectángulo 344903" width="3.238" height="0.619" fill="none"/>
    </clipPath>
    <clipPath id="clip-path-5">
      <rect id="Rectángulo_344904" data-name="Rectángulo 344904" width="0.786" height="0.1" fill="none"/>
    </clipPath>
    <clipPath id="clip-path-6">
      <rect id="Rectángulo_344905" data-name="Rectángulo 344905" width="1.062" height="0.219" fill="none"/>
    </clipPath>
    <clipPath id="clip-path-7">
      <rect id="Rectángulo_344906" data-name="Rectángulo 344906" width="1.666" height="6.838" fill="none"/>
    </clipPath>
    <clipPath id="clip-path-8">
      <rect id="Rectángulo_344907" data-name="Rectángulo 344907" width="3.329" height="6.359" fill="none"/>
    </clipPath>
    <clipPath id="clip-path-9">
      <rect id="Rectángulo_344910" data-name="Rectángulo 344910" width="26.711" height="16.539" fill="none"/>
    </clipPath>
    <clipPath id="clip-path-10">
      <rect id="Rectángulo_344913" data-name="Rectángulo 344913" width="20.921" height="13.413" fill="none"/>
    </clipPath>
  </defs>
  <g id="_15" data-name="15" transform="translate(-600 -6229)">
    <rect id="Rectángulo_344863" data-name="Rectángulo 344863" width="295" height="183" transform="translate(600 6229)" fill="#fee7dd"/>
    <g id="Grupo_987010" data-name="Grupo 987010" transform="translate(649 6240)">
      <g id="Grupo_987009" data-name="Grupo 987009" clip-path="url(#clip-path)">
        <g id="Grupo_987008" data-name="Grupo 987008" transform="translate(0 0)">
          <g id="Grupo_987007" data-name="Grupo 987007" clip-path="url(#clip-path-2)">
            <path id="Trazado_732039" data-name="Trazado 732039" d="M1682.884,42.462c.067-2.815.951-5.578.863-8.393-.165-5.264-3.669-9.919-4.2-15.159-.265-2.595.214-5.206.188-7.814s-.679-5.416-2.682-7.087-5.605-1.465-6.721.892c-.782,1.651-.125,3.623.789,5.2,1.085,1.876,2.516,3.529,3.668,5.366,4.042,6.447-.66,14.343,1.837,21.331.8,2.232,2.3,4.173,2.994,6.439a19.551,19.551,0,0,1,.359,7.212q-.274,3.673-.548,7.347c-.18,2.415-.339,4.958.7,7.144s3.737,3.784,5.934,2.765a4.55,4.55,0,0,0,2.373-3.442,10.125,10.125,0,0,0-.427-4.3c-1.629-5.9-5.273-11.391-5.127-17.508" transform="translate(-1516.654 -2.649)" fill="#ff8040"/>
            <path id="Trazado_732040" data-name="Trazado 732040" d="M1738.352,45.258c.067-2.815.951-5.578.863-8.393-.165-5.264-3.669-9.919-4.2-15.159-.265-2.595.214-5.206.188-7.814s-.679-5.416-2.682-7.087a4.613,4.613,0,0,0-1.461-.81,4.04,4.04,0,0,1,1.521,1.526,8.1,8.1,0,0,1,.578,4.288c-.252,3.209-1.167,6.421-.659,9.6.879,5.493,5.876,10.031,5.458,15.579-.2,2.6-1.6,4.973-2.042,7.546a15.368,15.368,0,0,0,1.313,8.425c1.107,2.66,2.617,5.132,3.857,7.732a7.891,7.891,0,0,1,1.034,4.8,3.128,3.128,0,0,1-.881,1.7,3.716,3.716,0,0,1-2.7.8,6.364,6.364,0,0,1-3.279-1.093,7.429,7.429,0,0,0,.341.847c1.043,2.185,3.737,3.784,5.934,2.765a4.549,4.549,0,0,0,2.373-3.442,10.125,10.125,0,0,0-.426-4.3c-1.629-5.9-5.273-11.391-5.127-17.508" transform="translate(-1572.122 -5.445)" fill="#f96335"/>
            <path id="Trazado_732041" data-name="Trazado 732041" d="M1684.922,19.111a20.186,20.186,0,0,0-.017-4.011,2.992,2.992,0,0,0-4.032-2.472c-1.946.566-3.1,1.979-2.342,4.011,1.028,2.77,3.509,4.686,4.276,7.581.007.027.053.022.049-.007-.221-1.739-1.3-3.063-2.269-4.464a11.888,11.888,0,0,1-1.542-2.831,3.365,3.365,0,0,1-.2-2.166,2.652,2.652,0,0,1,1.8-1.468c1.447-.545,2.951-.351,3.578,1.239a9.191,9.191,0,0,1,.3,3.45,22.711,22.711,0,0,0,.519,6.1.156.156,0,0,0,.3-.083,17.911,17.911,0,0,1-.423-4.884" transform="translate(-1524.208 -11.322)" fill="#ff9f57"/>
            <path id="Trazado_732042" data-name="Trazado 732042" d="M1696.886,35.02c-.115-1.137-.071-2.291-.284-3.418-.248-1.312-1.109-3.15-2.763-2.882s-1.3,1.927-.86,3.05c.848,2.154,2.37,3.954,3.165,6.139a.03.03,0,0,0,.058-.016,14.728,14.728,0,0,0-1.64-3.683c-.344-.613-.7-1.222-1-1.86a6.9,6.9,0,0,1-.532-1.381c-.194-.962.242-2.182,1.5-1.863,2.01.509,1.845,3.728,1.952,5.272a16.225,16.225,0,0,0,1.045,4.781c.069.177.355.106.291-.08a17.852,17.852,0,0,1-.933-4.059" transform="translate(-1537.207 -26.059)" fill="#ff9f57"/>
            <path id="Trazado_732043" data-name="Trazado 732043" d="M1711.2,51.269c-1.145.084.745,4.659,1.526,6.426l-.136-.693c-.234-.653-.471-1.3-.694-1.961-.186-.55-.38-1.106-.524-1.669a6.674,6.674,0,0,1-.245-1.3q.6-.03.581.471a6.684,6.684,0,0,1,.352,1.779l.352,1.779q.09.451.177.9c.154.428.306.857.45,1.289.007.021-.027.036-.037.016-.051-.107-.149-.323-.277-.611.129.655.259,1.309.4,1.962.036.172.294.1.261-.072-.362-1.931-.762-3.855-1.145-5.781-.078-.393-.213-2.6-1.038-2.535" transform="translate(-1553.762 -46.561)" fill="#ff9f57"/>
            <path id="Trazado_732044" data-name="Trazado 732044" d="M1730.02,114.423c.127.288.226.5.277.611.01.02.044.006.037-.016-.144-.432-.3-.86-.45-1.288l.136.693" transform="translate(-1571.058 -103.289)" fill="#ff9f57"/>
            <path id="Trazado_732045" data-name="Trazado 732045" d="M1741.106,230.182a40.548,40.548,0,0,1,.469-10.692c0-.006-.009-.007-.01,0a38.36,38.36,0,0,0-.694,10.931c.435,3.444,2.083,6.825,3.648,9.887.043.085.19.026.156-.066-1.268-3.362-3.077-6.447-3.569-10.059" transform="translate(-1580.884 -199.335)" fill="#ff9f57"/>
            <path id="Trazado_732046" data-name="Trazado 732046" d="M1752.4,210.613a18.9,18.9,0,0,0-.569-5.285c0-.019-.032-.011-.029.008a27.292,27.292,0,0,1,.324,6.159,26.141,26.141,0,0,0,.167,5.444,43.12,43.12,0,0,0,3.123,11c.032.074.149.021.128-.054-1.039-3.839-2.536-7.474-3.053-11.452a31.831,31.831,0,0,1-.092-5.824" transform="translate(-1590.961 -186.467)" fill="#ff9f57"/>
            <path id="Trazado_732047" data-name="Trazado 732047" d="M1757.495,211.5c-.015-.042-.08-.025-.068.019a71.94,71.94,0,0,1,2.043,9.156c.486,3.262.505,6.485.674,9.765a.151.151,0,0,0,.3,0,42.215,42.215,0,0,0-.584-9.4,50.167,50.167,0,0,0-2.367-9.538" transform="translate(-1596.071 -192.062)" fill="#ff9f57"/>
            <path id="Trazado_732048" data-name="Trazado 732048" d="M1792.909,302.563c.97,3.8.466,7.533.193,11.369-.007.095.152.118.168.023.606-3.752.894-7.748-.3-11.408a.03.03,0,0,0-.058.016" transform="translate(-1628.295 -274.75)" fill="#ff9f57"/>
            <path id="Trazado_732049" data-name="Trazado 732049" d="M1767.924,210.05c-.01-.021-.043-.006-.037.016a30.4,30.4,0,0,0,2.094,5.41c.065.124.278.039.229-.1-.654-1.808-1.5-3.575-2.287-5.329" transform="translate(-1605.572 -190.756)" fill="#ff9f57"/>
            <path id="Trazado_732050" data-name="Trazado 732050" d="M1784.187,484.953c.019-.206-.3-.2-.322,0-.292,3.209,1.028,6.122,2.386,8.945,1.1,2.285,4.067,7.509,1.189,9.58-1.691,1.217-3.837.047-4.711-1.581a9.323,9.323,0,0,1-.676-5.208,50.8,50.8,0,0,0-.077-10.437c-.005-.037-.063-.04-.06,0a61.083,61.083,0,0,1,.117,6.851,52.969,52.969,0,0,0-.358,6.195c.187,2.557,1.9,5.633,4.915,5.015,3.287-.673,2.32-4.873,1.505-7.062-1.509-4.056-4.322-7.762-3.909-12.3" transform="translate(-1618.065 -440.288)" fill="#ff9f57"/>
            <path id="Trazado_732051" data-name="Trazado 732051" d="M1791.906,486.507a.141.141,0,0,0-.281,0,19.077,19.077,0,0,0,.906,6.636,57.467,57.467,0,0,1,2.033,7.1,1.672,1.672,0,0,1,.038.672q.24.831-.77.665c-.846.191-.858.193-1.268-.468a5.21,5.21,0,0,1-.6-1.582,27.6,27.6,0,0,1-.477-3.884c-.224-2.668-.312-5.346-.476-8.018a.04.04,0,0,0-.08,0,82.622,82.622,0,0,0,.38,10.544c.141,1.23.8,4.922,2.809,4.351,2.122-.6.254-4.781-.1-5.938a37.542,37.542,0,0,1-2.112-10.076" transform="translate(-1626.482 -441.717)" fill="#ff9f57"/>
            <path id="Trazado_732052" data-name="Trazado 732052" d="M1795.711,505.2c.225,1.48.416,2.964.54,4.456.041.486.322,1.085-.241.628a1.384,1.384,0,0,1-.5-1.045,18.142,18.142,0,0,1-.223-2.187c-.2-2.917-.392-5.832-.658-8.744,0-.044-.072-.046-.07,0,.113,2.918.294,5.83.478,8.744.057.9-.042,4.233,1.444,4.09a.136.136,0,0,0,.134-.134q-.242-2.946-.684-5.87c-.022-.147-.245-.084-.223.061" transform="translate(-1629.798 -452.523)" fill="#ff9f57"/>
            <path id="Trazado_732053" data-name="Trazado 732053" d="M1727.463,118.627a1.926,1.926,0,0,0-1.31-.9,3.267,3.267,0,0,0-2.062.073c-2.047.849-1.039,2.853-.682,4.423a46.884,46.884,0,0,1,.976,6.138,2.7,2.7,0,0,1,4.35-.892,32.515,32.515,0,0,1-1.106-7.8,2.48,2.48,0,0,0-.165-1.042" transform="translate(-1564.664 -106.8)" fill="#ffddb0"/>
            <path id="Trazado_732054" data-name="Trazado 732054" d="M1763.608,121.078a1.681,1.681,0,0,0-.948-.782,11.811,11.811,0,0,0,0,1.228c.058,1.632.19,3.277.4,4.9a26.564,26.564,0,0,0,.5,2.811,2.727,2.727,0,0,1,1.327.688,32.527,32.527,0,0,1-1.106-7.8,2.482,2.482,0,0,0-.165-1.042" transform="translate(-1600.809 -109.252)" fill="#ffcd9f"/>
            <path id="Trazado_732055" data-name="Trazado 732055" d="M1727.1,123.686c-1.257.117-1.69,1.322-1.7,2.431a.03.03,0,0,0,.059.008c.2-.933.685-1.848,1.75-1.9a2.166,2.166,0,0,1,2.4,1.465c.03.119.211.069.184-.051a2.532,2.532,0,0,0-2.695-1.949" transform="translate(-1566.985 -112.32)" fill="#ff8040"/>
            <path id="Trazado_732056" data-name="Trazado 732056" d="M1739.886,205a.025.025,0,0,0,.046.019c.8-1.148,2.446-2.036,3.652-.816.1.106.306-.037.213-.164a2.185,2.185,0,0,0-3.911.961" transform="translate(-1580.142 -184.49)" fill="#ff8040"/>
            <path id="Trazado_732057" data-name="Trazado 732057" d="M1742.034,155.228a.488.488,0,0,0-.259.036.855.855,0,0,0-.532.763.588.588,0,0,0-.848-.508.567.567,0,0,0-.21.723,1.319,1.319,0,0,0,.438.411,3.361,3.361,0,0,1,1.005,1.174c.132-.619.528-1.151.7-1.76a.976.976,0,0,0,.035-.5.447.447,0,0,0-.329-.343" transform="translate(-1580.364 -140.971)" fill="#ff8040"/>
            <path id="Trazado_732058" data-name="Trazado 732058" d="M1768.6,403.676a1.927,1.927,0,0,0-1.282-.939,3.268,3.268,0,0,0-2.064.01c-2.072.786-1.126,2.82-.817,4.4a46.9,46.9,0,0,1,.787,6.165,2.7,2.7,0,0,1,4.375-.758,32.51,32.51,0,0,1-.867-7.831,2.483,2.483,0,0,0-.133-1.046" transform="translate(-1602.002 -365.614)" fill="#ffddb0"/>
            <path id="Trazado_732059" data-name="Trazado 732059" d="M1805.051,406.547a1.683,1.683,0,0,0-.923-.811,11.64,11.64,0,0,0-.039,1.228c.008,1.633.089,3.281.245,4.907a26.567,26.567,0,0,0,.412,2.825,2.723,2.723,0,0,1,1.3.729,32.511,32.511,0,0,1-.867-7.831,2.483,2.483,0,0,0-.133-1.046" transform="translate(-1638.449 -368.485)" fill="#ffcd9f"/>
            <path id="Trazado_732060" data-name="Trazado 732060" d="M1767.953,408.6c-1.256.082-1.721,1.276-1.764,2.379a.03.03,0,0,0,.059.008c.228-.929.752-1.83,1.815-1.849a2.163,2.163,0,0,1,2.347,1.541c.027.121.207.069.184-.051a2.528,2.528,0,0,0-2.641-2.028" transform="translate(-1604.03 -371.079)" fill="#ff8040"/>
            <path id="Trazado_732061" data-name="Trazado 732061" d="M1778.424,490.358a.025.025,0,0,0,.046.019c.834-1.125,2.511-1.955,3.678-.7.1.111.3-.036.213-.164a2.186,2.186,0,0,0-3.937.845" transform="translate(-1615.141 -443.708)" fill="#ff8040"/>
            <path id="Trazado_732062" data-name="Trazado 732062" d="M1782.426,440.573a.487.487,0,0,0-.259.028.856.856,0,0,0-.555.746.588.588,0,0,0-.832-.534.567.567,0,0,0-.232.716,1.319,1.319,0,0,0,.425.425,3.359,3.359,0,0,1,.969,1.2c.151-.615.563-1.134.754-1.738a.977.977,0,0,0,.05-.5.447.447,0,0,0-.319-.353" transform="translate(-1617.026 -400.116)" fill="#ff8040"/>
            <path id="Trazado_732063" data-name="Trazado 732063" d="M1089.509,74.163c-4.807-3.786-11-6.052-14.5-11.067-1.614-2.308-2.539-5.057-4.278-7.272-3.251-4.143-8.833-5.817-12.368-9.721-1.751-1.933-2.913-4.321-4.478-6.407s-3.756-3.961-6.359-4.12-5.383,2.141-4.886,4.7c.348,1.793,2.045,2.993,3.719,3.725,1.985.869,4.118,1.353,6.133,2.15,7.076,2.8,7.966,11.946,14.118,16.1,1.965,1.325,4.323,2,6.227,3.413a19.556,19.556,0,0,1,4.562,5.6l3.911,6.244c1.286,2.052,2.665,4.195,4.8,5.337s5.252.834,6.419-1.288a4.548,4.548,0,0,0-.128-4.179,10.121,10.121,0,0,0-2.889-3.209" transform="translate(-946.856 -32.303)" fill="#b352ff"/>
            <path id="Trazado_732064" data-name="Trazado 732064" d="M1122.021,74.164c-4.807-3.786-11-6.052-14.5-11.067-1.614-2.308-2.539-5.057-4.278-7.272-3.252-4.143-8.833-5.817-12.368-9.721-1.751-1.933-2.913-4.321-4.478-6.407s-3.756-3.961-6.359-4.12a4.613,4.613,0,0,0-1.657.213,4.039,4.039,0,0,1,2.129.328,8.108,8.108,0,0,1,3.006,3.112c1.7,2.734,2.864,5.865,5.157,8.124,3.963,3.9,10.677,4.6,13.627,9.316,1.385,2.215,1.661,4.951,2.826,7.289a15.369,15.369,0,0,0,6.049,6.01c2.468,1.487,5.149,2.583,7.688,3.944a7.888,7.888,0,0,1,3.678,3.255,3.128,3.128,0,0,1,.3,1.889,3.716,3.716,0,0,1-1.7,2.241,6.363,6.363,0,0,1-3.29,1.062,7.4,7.4,0,0,0,.776.48c2.135,1.143,5.252.834,6.418-1.288a4.548,4.548,0,0,0-.128-4.179,10.121,10.121,0,0,0-2.889-3.208" transform="translate(-979.368 -32.304)" fill="#9d44f2"/>
            <path id="Trazado_732065" data-name="Trazado 732065" d="M1059.5,45.756c-1.451-1.6-3.492-1.8-4.918-.056-1.314,1.6-1.486,3.537.387,4.75,2.472,1.6,5.616,1.687,7.931,3.572.025.02.058-.011.036-.036-1.2-1.277-2.877-1.7-4.484-2.254a10.649,10.649,0,0,1-3.373-1.706c-1.246-1.029-1.216-2.321-.354-3.613.833-1.247,2.181-1.933,3.587-1.055a9.9,9.9,0,0,1,2.424,2.821,21.561,21.561,0,0,0,3.871,4.391c.154.124.376-.092.22-.22-2.262-1.854-3.406-4.474-5.328-6.595" transform="translate(-956.843 -40.391)" fill="#c87bff"/>
            <path id="Trazado_732066" data-name="Trazado 732066" d="M1073.51,69.2c-.773-.845-1.42-1.807-2.248-2.6-.988-.947-2.8-2.013-4.029-.8-1.127,1.115-.033,2.24.959,2.89,1.985,1.3,4.351,1.845,6.332,3.164.028.019.063-.025.036-.047a15.422,15.422,0,0,0-3.666-2.07,21.627,21.627,0,0,1-2.063-1.013,5.092,5.092,0,0,1-1.215-.847c-1.09-1.236.109-2.372,1.347-2.211,1.714.223,2.871,2.133,3.905,3.336a15.772,15.772,0,0,0,3.524,3.047c.165.105.31-.151.152-.26a17.529,17.529,0,0,1-3.036-2.59" transform="translate(-968.813 -59.267)" fill="#c87bff"/>
            <path id="Trazado_732067" data-name="Trazado 732067" d="M1141.255,125.453l.535.491c.275.155.479.266.569.314a.02.02,0,0,0,.02-.035c-.372-.262-.748-.517-1.124-.771" transform="translate(-1036.473 -113.935)" fill="#c87bff"/>
            <path id="Trazado_732068" data-name="Trazado 732068" d="M1093.237,84.48c-.275-.251-1.783-2.022-2.366-1.424-.823.844,3.43,3.354,5.066,4.273l-.535-.491c-.579-.39-1.161-.777-1.734-1.177-.549-.384-1.11-.772-1.622-1.2a6.461,6.461,0,0,1-.555-.513q.442-.416.715-.032a5.921,5.921,0,0,1,1.17,1.071l1.338,1.224.688.631c.377.254.753.509,1.125.771a.02.02,0,0,1-.02.035c-.09-.049-.294-.16-.569-.314q.725.664,1.456,1.322c.13.116.32-.072.192-.192-1.436-1.341-2.9-2.654-4.348-3.979" transform="translate(-990.62 -75.319)" fill="#c87bff"/>
            <path id="Trazado_732069" data-name="Trazado 732069" d="M1235.014,213.519c-3.141-2.041-6.528-3.505-9.125-6.292a42.068,42.068,0,0,1-5.656-8.581.005.005,0,0,0-.009,0,41.142,41.142,0,0,0,5.49,8.751c2.456,2.778,5.939,4.625,9.214,6.265a.085.085,0,0,0,.086-.148" transform="translate(-1108.19 -180.406)" fill="#c87bff"/>
            <path id="Trazado_732070" data-name="Trazado 732070" d="M1220.857,195.183a28.092,28.092,0,0,1-3.752-4.742,19.742,19.742,0,0,0-3.834-4.3c-.014-.013-.035.007-.021.021a30.33,30.33,0,0,1,4.142,5.135,25.552,25.552,0,0,0,3.418,4.214,43.647,43.647,0,0,0,8.74,6.718c.067.039.149-.059.085-.11-2.932-2.332-6.105-4.273-8.777-6.936" transform="translate(-1101.853 -169.047)" fill="#c87bff"/>
            <path id="Trazado_732071" data-name="Trazado 732071" d="M1229.006,193.7a49.962,49.962,0,0,0-7.415-6.135c-.038-.026-.07.034-.036.061a71.377,71.377,0,0,1,7.36,6.461c2.214,2.258,4.042,4.76,6.05,7.186.11.133.325-.039.237-.183a41.46,41.46,0,0,0-6.2-7.39" transform="translate(-1109.387 -170.336)" fill="#c87bff"/>
            <path id="Trazado_732072" data-name="Trazado 732072" d="M1304.06,239.944c-.028-.02-.063.026-.036.047,3.029,2.473,4.831,5.8,6.889,9.04a.085.085,0,0,0,.147-.086c-1.717-3.372-3.878-6.776-7-9" transform="translate(-1184.289 -217.91)" fill="#c87bff"/>
            <path id="Trazado_732073" data-name="Trazado 732073" d="M1234.055,183.288c-1.581-1.076-3.318-1.987-4.983-2.927-.023-.013-.04.02-.02.035a29.146,29.146,0,0,0,4.876,3.109.126.126,0,0,0,.127-.217" transform="translate(-1116.201 -163.8)" fill="#c87bff"/>
            <path id="Trazado_732074" data-name="Trazado 732074" d="M1425.669,385.391c-3.524-2.214-7.8-3.579-10.053-7.338a.161.161,0,0,0-.278.162c1.5,2.5,3.953,4.049,6.465,5.4,2.373,1.275,8.591,3.825,7.417,7.43-.731,2.243-3.512,2.268-5.21,1.263a10.936,10.936,0,0,1-3.429-3.976,46.921,46.921,0,0,0-5.987-7.939c-.027-.029-.068.013-.043.043a60.555,60.555,0,0,1,4.2,5.525c1.063,1.6,1.92,3.366,3.12,4.867,1.661,2.077,5.122,3.845,7.234,1.281,2.179-2.645-1.442-5.462-3.44-6.717" transform="translate(-1284.67 -343.274)" fill="#c87bff"/>
            <path id="Trazado_732075" data-name="Trazado 732075" d="M1428.737,392.7c-1.071-.959-2.248-1.807-3.4-2.66a34.39,34.39,0,0,1-7.036-6.4c-.1-.127-.3.036-.221.17,2.38,3.882,6.684,6.069,10.064,8.943.191.162.391.322.569.5l.448.514-.578,1.509c-.58.28-1.8-.6-2.245-.952a21.476,21.476,0,0,1-2.752-2.832c-1.837-2.085-3.555-4.272-5.335-6.406-.029-.035-.09.011-.063.049a85.134,85.134,0,0,0,6.456,8.167c.777.845,4.2,3.98,5.1,1.64.345-.9-.39-1.691-1-2.238" transform="translate(-1287.863 -348.375)" fill="#c87bff"/>
            <path id="Trazado_732076" data-name="Trazado 732076" d="M1426.533,401.352a.116.116,0,0,0-.163.163c1.066,1.066,2.106,2.157,3.1,3.293a4.848,4.848,0,0,1,.59.686c-.252.563-1.1-.3-1.284-.456a13.291,13.291,0,0,1-1.366-1.454c-1.989-2.332-3.95-4.683-5.983-6.977-.03-.035-.077.015-.05.05,1.823,2.287,3.7,4.529,5.574,6.771.577.689,2.462,3.422,3.589,2.411a.136.136,0,0,0,0-.189q-1.929-2.217-4.005-4.3" transform="translate(-1290.867 -360.184)" fill="#c87bff"/>
            <path id="Trazado_732077" data-name="Trazado 732077" d="M1150.71,111.231a2.484,2.484,0,0,0-.75-.742,1.928,1.928,0,0,0-1.589.052,3.267,3.267,0,0,0-1.618,1.281c-1.146,1.9.853,2.914,2.071,3.967a46.892,46.892,0,0,1,4.423,4.366,2.7,2.7,0,0,1,2.976-3.3,32.517,32.517,0,0,1-5.513-5.629" transform="translate(-1041.156 -100.209)" fill="#ffddb0"/>
            <path id="Trazado_732078" data-name="Trazado 732078" d="M1173.675,111.23a2.482,2.482,0,0,0-.75-.741,1.682,1.682,0,0,0-1.227-.068,11.746,11.746,0,0,0,.727.99c1.014,1.28,2.095,2.527,3.22,3.711a26.513,26.513,0,0,0,2.067,1.97,2.725,2.725,0,0,1,1.477-.232,32.515,32.515,0,0,1-5.513-5.629" transform="translate(-1064.121 -100.208)" fill="#ffcd9f"/>
            <path id="Trazado_732079" data-name="Trazado 732079" d="M1153.021,118.863c-1.042.829-.729,2.1-.036,3.052a.03.03,0,0,0,.052-.03,2,2,0,0,1,.441-2.678,2.1,2.1,0,0,1,2.636-.138c.093.078.228-.053.135-.135a2.525,2.525,0,0,0-3.228-.071" transform="translate(-1046.548 -107.453)" fill="#c87bff"/>
            <path id="Trazado_732080" data-name="Trazado 732080" d="M1214.824,172.967a2.186,2.186,0,0,0-2.562,3.1c.01.023.048.011.047-.013a2.86,2.86,0,0,1,.561-2.058,2.21,2.21,0,0,1,1.881-.769.136.136,0,0,0,.072-.262" transform="translate(-1100.772 -156.979)" fill="#c87bff"/>
            <path id="Trazado_732081" data-name="Trazado 732081" d="M1179.56,140.3a.447.447,0,0,0-.469-.081.486.486,0,0,0-.187.182.855.855,0,0,0,.023.93.588.588,0,0,0-.984.093.567.567,0,0,0,.259.707,1.319,1.319,0,0,0,.6.072,3.36,3.36,0,0,1,1.505.351c-.26-.577-.257-1.24-.479-1.833a.977.977,0,0,0-.266-.42" transform="translate(-1069.756 -127.316)" fill="#b352ff"/>
            <path id="Trazado_732082" data-name="Trazado 732082" d="M1352.638,316.7a2.484,2.484,0,0,0-.727-.764,1.927,1.927,0,0,0-1.589,0,3.268,3.268,0,0,0-1.656,1.231c-1.2,1.861.763,2.939,1.949,4.028a46.938,46.938,0,0,1,4.287,4.5,2.7,2.7,0,0,1,3.075-3.2,32.509,32.509,0,0,1-5.338-5.8" transform="translate(-1224.499 -286.777)" fill="#ffddb0"/>
            <path id="Trazado_732083" data-name="Trazado 732083" d="M1376.351,316.7a2.481,2.481,0,0,0-.727-.764,1.681,1.681,0,0,0-1.224-.106,11.8,11.8,0,0,0,.7,1.012c.974,1.311,2.016,2.59,3.1,3.808a26.586,26.586,0,0,0,2.006,2.032,2.725,2.725,0,0,1,1.483-.186,32.514,32.514,0,0,1-5.338-5.8" transform="translate(-1248.212 -286.777)" fill="#ffcd9f"/>
            <path id="Trazado_732084" data-name="Trazado 732084" d="M1354.854,324.24c-1.037.8-.745,2.074-.094,3.025.018.026.069.01.055-.023a2.111,2.111,0,0,1,.224-2.456,2.229,2.229,0,0,1,2.937-.268c.091.081.225-.05.135-.135a2.53,2.53,0,0,0-3.257-.143" transform="translate(-1229.841 -293.994)" fill="#c87bff"/>
            <path id="Trazado_732085" data-name="Trazado 732085" d="M1414.914,380.12a2.186,2.186,0,0,0-2.653,3.018.025.025,0,0,0,.049-.007,2.853,2.853,0,0,1,.63-2.045,2.21,2.21,0,0,1,1.9-.7.136.136,0,0,0,.072-.261" transform="translate(-1282.435 -345.093)" fill="#c87bff"/>
            <path id="Trazado_732086" data-name="Trazado 732086" d="M1380.93,346.184a.447.447,0,0,0-.466-.1.486.486,0,0,0-.193.176.856.856,0,0,0-.005.93.588.588,0,0,0-.986.063.568.568,0,0,0,.237.715,1.318,1.318,0,0,0,.594.09,3.358,3.358,0,0,1,1.494.4c-.243-.584-.218-1.248-.422-1.846a.978.978,0,0,0-.253-.428" transform="translate(-1252.601 -314.285)" fill="#b352ff"/>
            <path id="Trazado_732087" data-name="Trazado 732087" d="M1298.83,9.164c-2.125.424-4.151,1.247-6.26,1.746-7.4,1.753-13.368-5.239-20.788-5.123-2.37.037-4.69.832-7.06.763a19.552,19.552,0,0,1-6.944-1.981L1251,1.687c-2.229-.948-4.586-1.915-6.991-1.631s-4.785,2.321-4.527,4.729a4.549,4.549,0,0,0,2.5,3.355,10.123,10.123,0,0,0,4.205.979c6.109.355,12.482-1.328,18.227.778,2.644.969,4.976,2.7,7.669,3.517,5.037,1.538,10.573-.283,15.706.9,2.542.584,4.861,1.877,7.338,2.693s5.347,1.1,7.573-.259,3.191-4.836,1.318-6.651c-1.312-1.272-3.39-1.285-5.182-.927" transform="translate(-1125.662 -0.005)" fill="#ffc431"/>
            <path id="Trazado_732088" data-name="Trazado 732088" d="M1297.753,15.737c-2.957-1.271-5.7-3.171-8.877-3.712-5.484-.935-11.389,2.336-16.506.155-2.4-1.024-4.2-3.11-6.488-4.361a15.369,15.369,0,0,0-8.4-1.468c-2.875.193-5.7.827-8.562,1.164a7.891,7.891,0,0,1-4.879-.565,3.13,3.13,0,0,1-1.323-1.38,3.715,3.715,0,0,1,.113-2.811,6.362,6.362,0,0,1,2.09-2.753,7.413,7.413,0,0,0-.911.05c-2.4.285-4.784,2.321-4.527,4.729a4.549,4.549,0,0,0,2.5,3.355,10.126,10.126,0,0,0,4.206.979c6.108.355,12.482-1.328,18.227.778,2.644.969,4.976,2.7,7.669,3.517,5.037,1.538,10.573-.283,15.706.9,2.542.584,4.861,1.877,7.338,2.693s5.347,1.1,7.573-.259a4.618,4.618,0,0,0,1.237-1.123,4.04,4.04,0,0,1-1.934.949,8.108,8.108,0,0,1-4.246-.833" transform="translate(-1125.664 -0.006)" fill="#ffa329"/>
            <path id="Trazado_732089" data-name="Trazado 732089" d="M1816.472,105.879c-2.866.2-5.444,1.794-8.353,1.594a.025.025,0,0,0-.007.049c1.866.381,3.587-.354,5.367-.829a10.186,10.186,0,0,1,3.21-.426c1.83.111,2.577,1.31,2.5,3.089a2.469,2.469,0,0,1-2.672,2.594,11.53,11.53,0,0,1-3.18-.892,22.127,22.127,0,0,0-5.805-1.42c-.2-.013-.2.3,0,.311a17.083,17.083,0,0,1,4.487,1.073,23.568,23.568,0,0,0,4.018,1.364,2.968,2.968,0,0,0,3.671-2.817c.189-2.2-.889-3.854-3.23-3.689" transform="translate(-1641.437 -96.148)" fill="#ff9f57"/>
            <path id="Trazado_732090" data-name="Trazado 732090" d="M1814.8,119.279c-2.485-.02-4.849.971-7.334,1.031a.03.03,0,0,0,0,.06,15.688,15.688,0,0,0,4.232-.409,17.9,17.9,0,0,1,2.682-.366,3.845,3.845,0,0,1,1.322.065c1.712.653.582,2.325-.423,2.683-1.581.563-3.462-.31-4.995-.685a15.847,15.847,0,0,0-4.454-.439.151.151,0,0,0,0,.3,17.549,17.549,0,0,1,4.144.425,31.251,31.251,0,0,0,3.487.852c1.283.151,3.147-.131,3.442-1.679.267-1.4-.977-1.831-2.1-1.84" transform="translate(-1639.903 -108.328)" fill="#ff9f57"/>
            <path id="Trazado_732091" data-name="Trazado 732091" d="M1811.361,130.734l.706.095c.813-.013,1.626-.033,2.439-.025.567.006,1.142.006,1.707.06a5.311,5.311,0,0,1,1.078.188q-.2.59-.721.376a7.5,7.5,0,0,1-1.8-.239l-1.8-.239-.909-.122c-.452.007-.9.014-1.357.011a.02.02,0,0,1,0-.04c.1-.011.332-.036.651-.066-.66-.088-1.32-.175-1.981-.256-.15-.018-.187.245-.036.266,1.807.258,3.619.483,5.429.721.5.066,2.961.752,3.171-.1.286-1.16-4.7-.807-6.583-.632" transform="translate(-1643.135 -118.498)" fill="#ff9f57"/>
            <path id="Trazado_732092" data-name="Trazado 732092" d="M1824.981,133.338c-.025,0-.026.04,0,.04.453,0,.905,0,1.357-.011l-.706-.095c-.32.03-.552.054-.651.066" transform="translate(-1657.407 -121.036)" fill="#ff9f57"/>
            <path id="Trazado_732093" data-name="Trazado 732093" d="M1518.3,70.5c-3.452-.726-7.2-.251-10.655.252-.1.014-.072.171.023.168,3.633-.119,7.152-.845,10.773-.125a40.813,40.813,0,0,1,9.866,3.866c.006,0,.011-.006.005-.009A38.684,38.684,0,0,0,1518.3,70.5" transform="translate(-1369.169 -63.686)" fill="#ff9f57"/>
            <path id="Trazado_732094" data-name="Trazado 732094" d="M1516.345,84.334a26.245,26.245,0,0,0-5.356-1.621,43.329,43.329,0,0,0-11.256-.555.07.07,0,0,0,0,.141c3.968.251,7.885,0,11.818.791A29.5,29.5,0,0,1,1516.9,84.8a19.156,19.156,0,0,0,5.387,1.244c.017,0,.021-.027,0-.03a27.532,27.532,0,0,1-5.946-1.677" transform="translate(-1361.977 -74.487)" fill="#ff9f57"/>
            <path id="Trazado_732095" data-name="Trazado 732095" d="M1550.312,93.956a71.64,71.64,0,0,1-9.735-1.087c-3.1-.584-6.035-1.578-9.061-2.43-.159-.045-.276.206-.116.275a42.252,42.252,0,0,0,9.308,2.518,50.161,50.161,0,0,0,9.6.793.035.035,0,0,0,0-.07" transform="translate(-1390.729 -82.132)" fill="#ff9f57"/>
            <path id="Trazado_732096" data-name="Trazado 732096" d="M1532.405,98.658c-3.9-.3-7.287-1.983-10.83-3.477-.089-.038-.15.111-.066.156,3.352,1.78,7.052,3.337,10.9,3.381a.03.03,0,0,0,0-.06" transform="translate(-1381.779 -86.437)" fill="#ff9f57"/>
            <path id="Trazado_732097" data-name="Trazado 732097" d="M1672.231,139.14c-.141.022-.106.25.033.247,1.919-.045,3.859-.268,5.77-.451a.02.02,0,0,0,0-.04,31.1,31.1,0,0,0-5.8.244" transform="translate(-1518.617 -126.115)" fill="#ff9f57"/>
            <path id="Trazado_732098" data-name="Trazado 732098" d="M1272.35,17.979c-2.861-1.277-5.938-1.033-8.971-.668-2.556.308-9.117,1.594-9.816-2.2-.369-2,1.448-3.449,3.249-3.693a10.185,10.185,0,0,1,5.352,1.216,48.025,48.025,0,0,0,9.535,3.123.03.03,0,0,0,.016-.058,62.34,62.34,0,0,1-6.1-1.931c-1.934-.734-3.781-1.773-5.762-2.377-2.5-.763-6.141-.382-6.712,2.745-.595,3.253,3.41,3.9,5.739,3.883,4.448-.026,9.028-1.677,13.311.235.187.084.351-.193.162-.277" transform="translate(-1138.03 -10.042)" fill="#ff9f57"/>
            <path id="Trazado_732099" data-name="Trazado 732099" d="M1305.8,36.294c-4.291-1.844-9.069-1.083-13.588-1.6a2.686,2.686,0,0,1-1.368-.436q-.866-.226-.215-.915.019-.657.592-.727a3.8,3.8,0,0,1,1.983-.214,26.45,26.45,0,0,1,3.975.814c2.6.645,5.156,1.423,7.736,2.126a.04.04,0,0,0,.021-.078c-1.632-.58-15.105-5.884-15.123-1.73,0,.868.847,1.322,1.576,1.478a24.415,24.415,0,0,0,4.306.3,36.55,36.55,0,0,1,10,1.238c.149.046.257-.193.108-.257" transform="translate(-1171.387 -29.022)" fill="#ff9f57"/>
            <path id="Trazado_732100" data-name="Trazado 732100" d="M1328.4,41.775c-2.725-.81-5.465-1.556-8.209-2.3-.853-.231-4.206-1.507-4.561,0a.136.136,0,0,0,.093.165q2.852.715,5.746,1.235c.145.026.208-.2.061-.223-1.41-.251-2.814-.532-4.2-.875a4.861,4.861,0,0,1-1.1-.279c-.248-.457.6-.412.788-.408a11.638,11.638,0,0,1,2.647.5c2.9.763,5.8,1.547,8.714,2.25a.035.035,0,0,0,.019-.068" transform="translate(-1194.832 -35.193)" fill="#ff9f57"/>
            <path id="Trazado_732101" data-name="Trazado 732101" d="M1722.848,105.612a46.913,46.913,0,0,1-6.125-1.051,2.7,2.7,0,0,1-.555,4.405,32.514,32.514,0,0,1,7.742,1.462,2.487,2.487,0,0,0,1.04.179,1.928,1.928,0,0,0,1.273-.952,3.268,3.268,0,0,0,.594-1.976c-.145-2.211-2.367-1.9-3.969-2.068" transform="translate(-1558.602 -94.961)" fill="#ffddb0"/>
            <path id="Trazado_732102" data-name="Trazado 732102" d="M1720.073,141.7a26.566,26.566,0,0,0-2.822-.433,2.725,2.725,0,0,1-1.079,1.035,32.516,32.516,0,0,1,7.742,1.462,2.484,2.484,0,0,0,1.04.179A1.683,1.683,0,0,0,1726,143.3a11.764,11.764,0,0,0-1.163-.4c-1.564-.47-3.164-.874-4.764-1.2" transform="translate(-1558.605 -128.302)" fill="#ffcd9f"/>
            <path id="Trazado_732103" data-name="Trazado 732103" d="M1796.547,118.274c-.033-.011-.052.038-.023.055a2.014,2.014,0,0,1,1.2,2.388,2.133,2.133,0,0,1-2.122,1.682c-.123-.01-.12.178,0,.191a2.53,2.53,0,0,0,2.687-1.832c.351-1.266-.649-2.1-1.737-2.484" transform="translate(-1630.655 -107.414)" fill="#ff8040"/>
            <path id="Trazado_732104" data-name="Trazado 732104" d="M1727.908,108.451c-.02-.012-.05.014-.034.034.829,1.132,1.139,2.978-.408,3.729-.139.067-.041.293.1.248a2.187,2.187,0,0,0,.338-4.011" transform="translate(-1568.801 -98.491)" fill="#ff8040"/>
            <path id="Trazado_732105" data-name="Trazado 732105" d="M1767.29,127.605a1.317,1.317,0,0,0-.53.283,3.361,3.361,0,0,1-1.435.574c.543.324.92.87,1.441,1.229a.978.978,0,0,0,.459.193.447.447,0,0,0,.431-.2.488.488,0,0,0,.049-.256.855.855,0,0,0-.551-.749.588.588,0,0,0,.754-.639.567.567,0,0,0-.617-.432" transform="translate(-1603.245 -115.885)" fill="#ff8040"/>
            <path id="Trazado_732106" data-name="Trazado 732106" d="M1439.653,50.372a46.91,46.91,0,0,1-6.09-1.238,2.7,2.7,0,0,1-.69,4.386,32.514,32.514,0,0,1,7.694,1.7,2.485,2.485,0,0,0,1.034.211,1.927,1.927,0,0,0,1.3-.912,3.266,3.266,0,0,0,.654-1.957c-.077-2.215-2.307-1.973-3.9-2.189" transform="translate(-1301.317 -44.623)" fill="#ffddb0"/>
            <path id="Trazado_732107" data-name="Trazado 732107" d="M1436.795,86.521a26.57,26.57,0,0,0-2.808-.519,2.724,2.724,0,0,1-1.11,1,32.527,32.527,0,0,1,7.694,1.7,2.482,2.482,0,0,0,1.033.211,1.682,1.682,0,0,0,1.065-.614,11.76,11.76,0,0,0-1.15-.431c-1.549-.518-3.135-.971-4.724-1.347" transform="translate(-1301.32 -78.106)" fill="#ffcd9f"/>
            <path id="Trazado_732108" data-name="Trazado 732108" d="M1512.961,65.428c-.033-.013-.051.037-.023.055A2,2,0,0,1,1514.017,68a2.091,2.091,0,0,1-2.134,1.524c-.106-.012-.132.173-.026.188a2.526,2.526,0,0,0,2.728-1.649c.459-1.29-.5-2.2-1.625-2.632" transform="translate(-1372.988 -59.419)" fill="#ff8040"/>
            <path id="Trazado_732109" data-name="Trazado 732109" d="M1444.764,53.342c-.021-.013-.049.014-.034.034.8,1.161,1.048,3.011-.526,3.716-.142.064-.04.288.1.248a2.187,2.187,0,0,0,.456-4" transform="translate(-1311.546 -48.442)" fill="#ff8040"/>
            <path id="Trazado_732110" data-name="Trazado 732110" d="M1484.475,74.163a1.316,1.316,0,0,0-.539.266,3.359,3.359,0,0,1-1.452.529c.533.34.893.9,1.4,1.273a.979.979,0,0,0,.453.207.447.447,0,0,0,.437-.188.487.487,0,0,0,.057-.255.856.856,0,0,0-.528-.766.588.588,0,0,0,.773-.616.567.567,0,0,0-.6-.45" transform="translate(-1346.373 -67.352)" fill="#ff8040"/>
            <path id="Trazado_732111" data-name="Trazado 732111" d="M196.355,322.824c-1.014-6.523-5.017-12.171-7.326-18.362-2.3-6.161-2.893-12.791-3.47-19.335q-1.212-13.752-2.423-27.5c-4.291,1.751-9.134.326-13.607-.824-29.549-7.594-61.46-2.053-89.864,9.386,3.143,2.565,4.836,6.485,5.528,10.429s.491,7.983.471,11.99c-.1,20.883,9.279,41.87,3.81,62.653,5.662,1.161,8.434,7.222,12.764,10.926,5.89,5.037,14.658,5.506,22.415,4.044s15.143-4.562,22.941-5.788c6.611-1.04,13.349-.706,20.025-1.142,12.086-.789,23.854-4.087,35.513-7.365a29.773,29.773,0,0,1-6.463-16.526c-.282-4.189.331-8.434-.314-12.581" transform="translate(-72.35 -230.05)" fill="#effefe"/>
            <path id="Trazado_732112" data-name="Trazado 732112" d="M196.832,335.2a47.662,47.662,0,0,0-21.017-8.908c-2.5-.393-5.932-2-4.877-4.3a3.611,3.611,0,0,1,2.26-1.641c7.38-2.552,15.415-.083,23.03,1.645l.131.029c-1.241-6.108-4.955-11.495-7.146-17.37-2.3-6.161-2.893-12.791-3.47-19.335l-1.089-12.358c-3.506-1.093-8.125.718-12.16.883a3.336,3.336,0,0,1-2.021-.4c-1.932-1.3-.151-4.265,1.648-5.748q5.574-4.6,11.272-9.04-.037-.419-.074-.838c-4.291,1.752-9.134.326-13.607-.824q-.686-.176-1.373-.343a17.248,17.248,0,0,0-3.173,3.276c-1.175,1.6-3.472,3.532-4.688,1.963a2.671,2.671,0,0,1-.222-2.247,17.381,17.381,0,0,1,1.776-4.321c-20.057-3.611-40.948-1.6-60.906,3.859a10.551,10.551,0,0,0,1.953,6.029c1.018,1.392,2.394,2.511,3.281,3.991s1.141,3.576-.074,4.8c-1.406,1.415-3.808.853-5.576-.071-3.58-1.87-6.51-4.777-9.943-6.906a17.338,17.338,0,0,0-6.311-2.434q-2.318.869-4.608,1.79c3.143,2.565,4.835,6.485,5.528,10.429s.491,7.983.472,11.991c-.1,20.883,9.279,41.87,3.81,62.653,5.662,1.161,8.434,7.222,12.764,10.926,4.2,3.594,9.869,4.861,15.588,4.762a22.535,22.535,0,0,0,1.279-3.505c.988-3.63,1.108-7.443,1.945-11.111s2.589-7.391,5.84-9.284c.8,7.766-2.373,15.725-3.52,23.4q.646-.1,1.284-.221c3.23-.609,6.394-1.5,9.552-2.425a49.017,49.017,0,0,0,1.488-9.222c.23-3.318,1.405-7.8,4.723-7.56,2.532.181,3.726,3.15,4.349,5.611l2.01,7.948c.273-.048.545-.1.819-.141,6.457-1.016,13.033-.723,19.556-1.115a54.816,54.816,0,0,0-2.633-12.93c-1.256-3.762-2.725-8.469.126-11.226,1.675-1.62,4.339-1.813,6.563-1.117a22.011,22.011,0,0,1,6.018,3.49,120.031,120.031,0,0,0,21.452,12.246,12.63,12.63,0,0,0,3.627,1.055,29.768,29.768,0,0,1-5.634-15.436c-.009-.132-.014-.265-.022-.4" transform="translate(-72.518 -230.224)" fill="#d9fbfc"/>
            <path id="Trazado_732113" data-name="Trazado 732113" d="M103.785,820c-2.02,2.257-3.954,7.135-5.858,9.491a2.947,2.947,0,0,1-.736-3.187c.337-1.111,2.011-4.987,2.486-6.535.143-.467,6.32-2.989,6.322-3.478,0-.382-2.427-1.3-2.511-1.67-.439-1.93-2.84-1.992-3.279-3.922-2.028,1.059-4.919,1.765-6.947,2.825a1.557,1.557,0,0,0-1.031,1.174l-2.317,7.427c-.374,1.2-.762,2.392-1.121,3.594a10.833,10.833,0,0,1-.667,2.5,13.74,13.74,0,0,0-1.048,11.493,9.486,9.486,0,0,0,1.881,3.143,9.859,9.859,0,0,0,3.4,2.257,13.368,13.368,0,0,0,12.056-.736,11.1,11.1,0,0,0,5.193-10.658c-.6-4.178-3.747-10.042-5.826-13.717" transform="translate(-78.343 -736.267)" fill="#ffbc8a"/>
            <path id="Trazado_732114" data-name="Trazado 732114" d="M240.922,278.246a47.359,47.359,0,1,0,43.918,50.565,47.359,47.359,0,0,0-43.918-50.565" transform="translate(-172.771 -252.592)" fill="#effefe"/>
            <path id="Trazado_732115" data-name="Trazado 732115" d="M394.405,453.012A47.356,47.356,0,0,1,314,483.495a47.356,47.356,0,1,0,69.873-63.722,47.191,47.191,0,0,1,10.532,33.239" transform="translate(-285.172 -381.233)" fill="#ccf5ff"/>
            <rect id="Rectángulo_344901" data-name="Rectángulo 344901" width="2.305" height="19.855" transform="translate(58.794 19.461) rotate(-85.976)" fill="#a06137"/>
            <path id="Trazado_732116" data-name="Trazado 732116" d="M216.056,238.946l-.38,5.4a45.121,45.121,0,1,1-6.917-.487l.38-5.4a50.519,50.519,0,1,0,6.917.487" transform="translate(-143.983 -216.566)" fill="#ffa35f"/>
            <path id="Trazado_732117" data-name="Trazado 732117" d="M672.836,154l-.4-.028a1.488,1.488,0,0,0-1.589,1.38l-.69,9.808,3.369.237.69-9.808a1.488,1.488,0,0,0-1.38-1.589" transform="translate(-608.628 -139.833)" fill="#ffa35f"/>
            <path id="Trazado_732118" data-name="Trazado 732118" d="M785.208,161.907l-.4-.028a1.488,1.488,0,0,0-1.589,1.38l-.69,9.808,3.368.237.69-9.808a1.488,1.488,0,0,0-1.38-1.589" transform="translate(-710.683 -147.014)" fill="#ffa35f"/>
            <path id="Trazado_732119" data-name="Trazado 732119" d="M781,280.4l-.143,2.031a44.988,44.988,0,0,1,28.1,15.819A45.046,45.046,0,0,0,781,280.4" transform="translate(-709.165 -254.655)" fill="#ef9050"/>
            <path id="Trazado_732120" data-name="Trazado 732120" d="M353.889,472.05a50.519,50.519,0,0,1-89.344,28.627,50.516,50.516,0,1,0,79.769-61.931,50.307,50.307,0,0,1,9.575,33.3" transform="translate(-240.256 -398.464)" fill="#ef9050"/>
            <path id="Trazado_732121" data-name="Trazado 732121" d="M243.224,177.012c-.437,2.035-1.1,1.973-1.1,1.973a45.121,45.121,0,0,0-34.4,73.963,45.12,45.12,0,0,1,36.237-71.593l.812-11.714c-.672,0-1.136,5.43-1.553,7.371" transform="translate(-179.189 -154.066)" fill="#ef9050"/>
            <path id="Trazado_732122" data-name="Trazado 732122" d="M640.529,186.922l-.162,2.3,2.248.158-.825-2.369Z" transform="translate(-581.574 -169.761)" fill="#7a4b2b"/>
            <path id="Trazado_732123" data-name="Trazado 732123" d="M711.332,191.9l-.162,2.3,2.248.158-.825-2.369Z" transform="translate(-645.876 -174.285)" fill="#7a4b2b"/>
            <path id="Trazado_732124" data-name="Trazado 732124" d="M823.707,199.81l-.162,2.3,2.248.158-.825-2.369Z" transform="translate(-747.933 -181.466)" fill="#7a4b2b"/>
            <path id="Trazado_732125" data-name="Trazado 732125" d="M589.8,172.724l-.116,1.649a1.33,1.33,0,0,0,1.233,1.42l4.016.283.3-4.3-4.016-.283a1.33,1.33,0,0,0-1.42,1.233" transform="translate(-535.54 -155.743)" fill="#ff6b64"/>
            <path id="Trazado_732126" data-name="Trazado 732126" d="M589.725,193.938l-.06.848a1.33,1.33,0,0,0,1.233,1.42l4.016.283.06-.848-4.016-.283a1.33,1.33,0,0,1-1.233-1.42" transform="translate(-535.523 -176.132)" fill="#e8554d"/>
            <g id="Grupo_986985" data-name="Grupo 986985" transform="translate(54.635 16.265)" opacity="0.2">
              <g id="Grupo_986984" data-name="Grupo 986984">
                <g id="Grupo_986983" data-name="Grupo 986983" clip-path="url(#clip-path-3)">
                  <path id="Trazado_732127" data-name="Trazado 732127" d="M599.392,177.275q-1.342-.087-2.687-.106c-.721-.01-1.393-.138-1.6.743a.6.6,0,0,0,.01.409.478.478,0,0,0,.557.184,2.351,2.351,0,0,0,.556-.3,3.411,3.411,0,0,1,2.192-.343,3.1,3.1,0,0,0,.656.047.8.8,0,0,0,.575-.28.236.236,0,0,0,.058-.176c-.022-.128-.185-.165-.315-.173" transform="translate(-595.074 -177.157)" fill="#fff"/>
                </g>
              </g>
            </g>
            <path id="Trazado_732128" data-name="Trazado 732128" d="M249.92,332.261a63.922,63.922,0,0,0-7.873,8.511,42.548,42.548,0,0,0-5.306,9.261,43.1,43.1,0,0,0-1.8,27.461,49.137,49.137,0,0,1,20.619-46.038,33.7,33.7,0,0,1,6.862-3.8,37,37,0,0,1,7.617-1.978,66.256,66.256,0,0,1,22.245.134c-5.381-2.11-11.378-1.984-16.928-2.126-12.683-.324-24.195,7.515-25.436,8.571" transform="translate(-212.058 -293.963)" fill="#fff"/>
            <path id="Trazado_732129" data-name="Trazado 732129" d="M462.346,602.551h-.006c-.093,0-.187,0-.28-.006a10.73,10.73,0,0,1-1.19-.1.764.764,0,0,1,.22-1.512,9.233,9.233,0,0,0,1.019.09q.121,0,.243,0a.764.764,0,0,1-.006,1.528m2.27-.219a.764.764,0,0,1-.15-1.513,10.571,10.571,0,0,0,1.234-.328.764.764,0,1,1,.482,1.45,12.127,12.127,0,0,1-1.414.376.768.768,0,0,1-.152.015m-5.83-.5a.76.76,0,0,1-.308-.065,7.472,7.472,0,0,1-1.327-.751.764.764,0,0,1,.888-1.244,5.958,5.958,0,0,0,1.055.6.764.764,0,0,1-.309,1.463m9.236-.788a.764.764,0,0,1-.384-1.425,9.975,9.975,0,0,0,1.058-.707.764.764,0,0,1,.929,1.213,11.508,11.508,0,0,1-1.221.816.759.759,0,0,1-.383.1m14.211-1.113h-.124q-.229,0-.459-.011a.764.764,0,0,1,.061-1.527q.206.009.412.01h.11c.255,0,.514-.008.77-.024a.764.764,0,0,1,.1,1.525c-.288.018-.58.027-.867.027m-2.814-.31a.766.766,0,0,1-.179-.021,9.423,9.423,0,0,1-1.418-.457.764.764,0,1,1,.586-1.411,7.943,7.943,0,0,0,1.189.382.764.764,0,0,1-.177,1.507m5.888-.062a.764.764,0,0,1-.183-1.506,10.763,10.763,0,0,0,1.222-.38.764.764,0,1,1,.541,1.429,12.266,12.266,0,0,1-1.4.434.767.767,0,0,1-.185.023m-29.264-.056a.764.764,0,0,1-.653-.366,6.71,6.71,0,0,1-.646-1.4.764.764,0,1,1,1.451-.478,5.191,5.191,0,0,0,.5,1.083.764.764,0,0,1-.651,1.163m14.763-.8a.764.764,0,0,1-.587-1.252,9.551,9.551,0,0,0,.744-1.028.764.764,0,1,1,1.295.812,11.093,11.093,0,0,1-.863,1.192.762.762,0,0,1-.588.276m17.838-.6a.764.764,0,0,1-.433-1.395,7.1,7.1,0,0,0,.956-.782.764.764,0,0,1,1.07,1.091,8.651,8.651,0,0,1-1.163.952.762.762,0,0,1-.431.134M476.186,598a.761.761,0,0,1-.514-.2,7.4,7.4,0,0,1-1.015-1.14.764.764,0,1,1,1.239-.9,5.839,5.839,0,0,0,.8.9.764.764,0,0,1-.514,1.33m-21.056-1.986h-.006a.764.764,0,0,1-.758-.77,9.05,9.05,0,0,1,.137-1.49.764.764,0,1,1,1.505.264,7.518,7.518,0,0,0-.114,1.238.764.764,0,0,1-.764.758m17.474-.469a.764.764,0,0,1-.72-1.021,9.749,9.749,0,0,0,.349-1.222,6,6,0,0,0,1.322-1.133.764.764,0,0,1,.946.521c.131.453.267.855.415,1.232a.764.764,0,0,1-1.415.577c-.055.181-.114.361-.177.538a.764.764,0,0,1-.72.507m18.433-.142a.764.764,0,0,1-.686-1.1c.03-.061.059-.123.087-.186a5.987,5.987,0,0,0,.329-.953.764.764,0,1,1,1.481.377,7.54,7.54,0,0,1-.413,1.2c-.035.079-.072.158-.11.236a.765.765,0,0,1-.687.429m-35.1-2.927a.765.765,0,0,1-.693-1.087,9.216,9.216,0,0,1,.737-1.3.764.764,0,0,1,1.263.86,7.7,7.7,0,0,0-.614,1.084.764.764,0,0,1-.693.442m17.267-.518a.764.764,0,0,1-.764-.752c0-.287-.024-.577-.056-.861a.764.764,0,0,1,1.508-.24l.086.42a.762.762,0,0,1-.018.382c0,.092.007.183.008.274a.764.764,0,0,1-.752.776h-.012m18.536-.106a.764.764,0,0,1-.763-.744,10.347,10.347,0,0,0-.115-1.27.764.764,0,0,1,1.511-.228,11.915,11.915,0,0,1,.132,1.459.764.764,0,0,1-.744.784h-.02m-33.608-2.266a.764.764,0,0,1-.5-1.338,10.869,10.869,0,0,1,1.171-.9.764.764,0,1,1,.844,1.274,9.4,9.4,0,0,0-1.006.769.761.761,0,0,1-.5.19m32.95-1.317a.765.765,0,0,1-.725-.522,12.028,12.028,0,0,0-.473-1.2.764.764,0,0,1,1.389-.637,13.486,13.486,0,0,1,.533,1.352.765.765,0,0,1-.725,1.007m-29.832-.556a.765.765,0,0,1-.73-.993c-.318-.046-.623-.1-.922-.155a.764.764,0,0,1,.288-1.5c.413.079.839.146,1.3.2a.765.765,0,0,1,.666.674q.264-.076.53-.138a1.209,1.209,0,0,0,1.031-.345c.453.026.907.046,1.359.066a.764.764,0,0,1-.066,1.527c-.46-.02-.92-.04-1.38-.067a.771.771,0,0,1-.13-.019.761.761,0,0,1-.466.326,9.431,9.431,0,0,0-1.212.371.763.763,0,0,1-.271.05m-3.711-1.728a.765.765,0,0,1-.261-.046,12.374,12.374,0,0,1-1.342-.577.764.764,0,1,1,.687-1.365,10.794,10.794,0,0,0,1.176.505.764.764,0,0,1-.261,1.483m31.9-.966a.763.763,0,0,1-.619-.316,9.024,9.024,0,0,0-.809-.97.764.764,0,0,1,1.1-1.061,10.52,10.52,0,0,1,.947,1.134.764.764,0,0,1-.618,1.212m-35.063-.825a.761.761,0,0,1-.494-.182,8.7,8.7,0,0,1-1.058-1.065.764.764,0,1,1,1.175-.978,7.16,7.16,0,0,0,.872.877.764.764,0,0,1-.495,1.347m32.39-1.629a.76.76,0,0,1-.373-.1,5.871,5.871,0,0,0-1.11-.482,2.385,2.385,0,0,1,.866-2.081c.46-.145.873-.286,1.262-.43a.764.764,0,1,1,.531,1.433c-.239.088-.485.176-.745.263a.764.764,0,0,1-.432,1.4m-34.5-1.308a.765.765,0,0,1-.718-.5,7.192,7.192,0,0,1-.366-1.488.764.764,0,0,1,1.515-.2,5.625,5.625,0,0,0,.288,1.17.765.765,0,0,1-.718,1.025m37.5-1.225a.764.764,0,0,1-.358-1.44,11.676,11.676,0,0,0,1.1-.661.764.764,0,1,1,.859,1.264,13.243,13.243,0,0,1-1.248.748.764.764,0,0,1-.357.089m2.9-2.194a.764.764,0,0,1-.571-1.272,7.483,7.483,0,0,0,.745-.994.764.764,0,1,1,1.3.811,8.961,8.961,0,0,1-.9,1.2.762.762,0,0,1-.571.257m-40.584-.175a.764.764,0,0,1-.737-.968,5.514,5.514,0,0,1,.635-1.453.764.764,0,1,1,1.3.81,3.994,3.994,0,0,0-.459,1.051.764.764,0,0,1-.736.56m12.5-.936a.764.764,0,0,1-.535-1.309c-.018-.044-.041-.1-.071-.155-.016-.033-.032-.065-.049-.1a.764.764,0,1,1,1.349-.719c.025.047.05.1.073.144a2.375,2.375,0,0,1,.295,1.03,1.071,1.071,0,0,1-.937,1.1.793.793,0,0,1-.125.01m-2.2-.553a.763.763,0,0,1-.28-.054,12.073,12.073,0,0,1-1.319-.632.764.764,0,0,1,.728-1.344,10.653,10.653,0,0,0,1.152.554.764.764,0,0,1-.281,1.475m-8.111-1.322a.764.764,0,0,1-.382-1.427,6.158,6.158,0,0,1,1.442-.6.764.764,0,1,1,.4,1.474,4.643,4.643,0,0,0-1.085.449.759.759,0,0,1-.38.1m40.126-.2a.764.764,0,0,1-.741-.952,5.262,5.262,0,0,0,.164-1.183.764.764,0,0,1,1.528.031,6.772,6.772,0,0,1-.211,1.527.764.764,0,0,1-.74.576m-35.279-.121a.76.76,0,0,1-.295-.059l-.03-.012a4.5,4.5,0,0,0-1.1-.292.764.764,0,0,1,.206-1.514,6.017,6.017,0,0,1,1.472.392l.04.017a.764.764,0,0,1-.3,1.469m4.132-.8a.764.764,0,0,1-.606-.3,6.651,6.651,0,0,1-.816-1.312.764.764,0,1,1,1.393-.629,5.067,5.067,0,0,0,.634,1.008.764.764,0,0,1-.605,1.23m13.551-1.5a.764.764,0,0,1-.741-.953c.065-.256.13-.515.193-.775a.833.833,0,0,1,1.465.782c-.076.156-.146.315-.211.471a.765.765,0,0,1-.707.474m17.339-1.158a.764.764,0,0,1-.7-.453,5.443,5.443,0,0,0-.612-1.032.672.672,0,0,0-.863-.959,8.606,8.606,0,0,0-.977-.792.764.764,0,1,1,.873-1.254,10.125,10.125,0,0,1,1.151.933.869.869,0,0,0,1.04,1.159,6.973,6.973,0,0,1,.783,1.323.764.764,0,0,1-.7,1.075m-32.263-.688a.765.765,0,0,1-.753-.64,9.411,9.411,0,0,1-.125-1.487.764.764,0,0,1,.762-.766h0a.764.764,0,0,1,.764.762,7.848,7.848,0,0,0,.1,1.243.764.764,0,0,1-.63.878.785.785,0,0,1-.125.01m16.384-.587a.764.764,0,0,1-.746-.6.775.775,0,0,1-.181,0,.764.764,0,0,1-.659-.857,10.221,10.221,0,0,0,.092-1.272.764.764,0,0,1,.764-.76h0a.764.764,0,0,1,.76.769c0,.264-.013.533-.036.812q.206-.213.424-.414a.764.764,0,1,1,1.037,1.123,9.278,9.278,0,0,0-.869.92.763.763,0,0,1-.591.279m2.781-2.344a.764.764,0,0,1-.38-1.428,10.585,10.585,0,0,1,1.331-.641.764.764,0,1,1,.565,1.42,9.01,9.01,0,0,0-1.138.548.761.761,0,0,1-.378.1m8.373-.554a.764.764,0,0,1-.28-.054,9.379,9.379,0,0,0-1.207-.384.764.764,0,1,1,.363-1.484,10.9,10.9,0,0,1,1.4.446.764.764,0,0,1-.281,1.475m-27.336-.135a.765.765,0,0,1-.735-.976,9.139,9.139,0,0,1,.531-1.4.764.764,0,0,1,1.379.658,7.593,7.593,0,0,0-.442,1.163.765.765,0,0,1-.734.552m22.4-.484a.764.764,0,0,1-.1-1.522,10.337,10.337,0,0,1,1.364-.09h.113a.764.764,0,0,1-.008,1.528h-.105a8.767,8.767,0,0,0-1.161.077.78.78,0,0,1-.1.007m-7.275-.694a.765.765,0,0,1-.726-.526q-.053-.163-.119-.323a4.8,4.8,0,0,0-.383-.746.764.764,0,0,1,1.294-.814,6.352,6.352,0,0,1,.505.985q.085.209.155.421a.765.765,0,0,1-.726,1m-13.385-2a.764.764,0,0,1-.572-1.271,8.4,8.4,0,0,1,1.094-1.035.764.764,0,1,1,.945,1.2,6.886,6.886,0,0,0-.895.847.762.762,0,0,1-.573.258m11.256-.9a.761.761,0,0,1-.46-.154,6.877,6.877,0,0,0-1.047-.649.764.764,0,0,1,.688-1.365,8.425,8.425,0,0,1,1.28.793.764.764,0,0,1-.461,1.374m-8.272-1.149a.764.764,0,0,1-.262-1.482,8.99,8.99,0,0,1,1.445-.392.764.764,0,0,1,.278,1.5,7.5,7.5,0,0,0-1.2.324.761.761,0,0,1-.262.047m4.957-.319a.765.765,0,0,1-.157-.016,8.351,8.351,0,0,0-1.244-.164.764.764,0,1,1,.085-1.526,9.873,9.873,0,0,1,1.472.195.764.764,0,0,1-.156,1.512" transform="translate(-409.752 -508.142)" fill="#f76c28"/>
            <path id="Trazado_732130" data-name="Trazado 732130" d="M439.5,600.021a.759.759,0,0,1-.354-.088,10.387,10.387,0,0,1-1.259-.777.764.764,0,1,1,.9-1.239,8.859,8.859,0,0,0,1.073.662.764.764,0,0,1-.355,1.441m-2.8-2.3a.763.763,0,0,1-.614-.309,6.291,6.291,0,0,1-.771-1.353.764.764,0,0,1,1.414-.581,4.763,4.763,0,0,0,.584,1.023.764.764,0,0,1-.613,1.22m-1.015-3.425-.067,0a.764.764,0,0,1-.7-.827,6.075,6.075,0,0,1,.337-1.528.764.764,0,1,1,1.438.517,4.537,4.537,0,0,0-.253,1.142.764.764,0,0,1-.76.7m11.456-2.053a.764.764,0,0,1-.687-.429l-.172-.352a.758.758,0,0,1-.064-.191q-.06-.113-.127-.224a.764.764,0,0,1,1.3-.8,5.155,5.155,0,0,1,.469.977.765.765,0,0,1-.72,1.02m-9.971-1.213a.764.764,0,0,1-.556-1.289,6.98,6.98,0,0,1,1.174-.993.764.764,0,1,1,.854,1.267,5.451,5.451,0,0,0-.916.774.763.763,0,0,1-.556.24m7.967-1.219a.761.761,0,0,1-.406-.117,4.452,4.452,0,0,0-.636-.331c-.139-.059-.284-.111-.429-.157a.764.764,0,1,1,.455-1.459c.191.06.382.129.566.207a6,6,0,0,1,.855.445.764.764,0,0,1-.407,1.412m-4.851-.6a.764.764,0,0,1-.2-1.5l.142-.036a7.738,7.738,0,0,1,1.356-.211.764.764,0,1,1,.1,1.525,6.22,6.22,0,0,0-1.086.169l-.117.03a.767.767,0,0,1-.2.026" transform="translate(-394.989 -533.517)" fill="#f76c28"/>
            <path id="Trazado_732131" data-name="Trazado 732131" d="M722.3,538.81a.765.765,0,0,1-.688-1.1,3.577,3.577,0,0,0,.2-.519.764.764,0,0,1,1.463.443,5.16,5.16,0,0,1-.288.739.765.765,0,0,1-.689.432m.37-2.89a.765.765,0,0,1-.752-.634,4.473,4.473,0,0,0-.347-1.115.764.764,0,1,1,1.387-.641,6,6,0,0,1,.465,1.5.765.765,0,0,1-.754.894m-11.707-.093a.764.764,0,0,1-.759-.684,2.6,2.6,0,0,1-.015-.274,3.065,3.065,0,0,1,.414-1.492.764.764,0,1,1,1.336.742,1.56,1.56,0,0,0-.221.75,1.073,1.073,0,0,0,.006.113.764.764,0,0,1-.679.84.782.782,0,0,1-.081,0m1.869-2.961a.764.764,0,0,1-.454-1.379,8.387,8.387,0,0,1,1.288-.782.764.764,0,1,1,.672,1.373,6.866,6.866,0,0,0-1.053.639.76.76,0,0,1-.453.149m8.048-.046a.76.76,0,0,1-.489-.178,5.042,5.042,0,0,0-1-.647.764.764,0,0,1,.678-1.37,6.563,6.563,0,0,1,1.3.844.764.764,0,0,1-.49,1.351m-4.7-1.329a.764.764,0,0,1-.1-1.522,6.986,6.986,0,0,1,1.535-.034.764.764,0,0,1-.136,1.522,5.471,5.471,0,0,0-1.2.027.8.8,0,0,1-.1.007" transform="translate(-644.982 -481.256)" fill="#f76c28"/>
            <path id="Trazado_732132" data-name="Trazado 732132" d="M896.389,744.78a4.6,4.6,0,0,1-1.092-.13.764.764,0,0,1,.364-1.484,3.156,3.156,0,0,0,1.1.065.764.764,0,1,1,.168,1.519,4.923,4.923,0,0,1-.535.03m2.557-.851a.764.764,0,0,1-.44-1.39,5.263,5.263,0,0,0,.89-.8.764.764,0,0,1,1.138,1.02,6.784,6.784,0,0,1-1.15,1.028.76.76,0,0,1-.438.139m2.228-2.838a.765.765,0,0,1-.705-1.058,6.62,6.62,0,0,0,.363-1.172.764.764,0,0,1,1.5.317,8.172,8.172,0,0,1-.448,1.443.764.764,0,0,1-.706.471m.542-3.581a.764.764,0,0,1-.76-.7,6.84,6.84,0,0,0-.216-1.212.764.764,0,1,1,1.474-.4,8.366,8.366,0,0,1,.266,1.483.764.764,0,0,1-.695.828c-.023,0-.045,0-.067,0m-1.184-3.417a.763.763,0,0,1-.634-.337q-.049-.072-.1-.142a5,5,0,0,0-.675-.759.764.764,0,0,1,1.032-1.127,6.527,6.527,0,0,1,.881.991c.043.06.086.121.128.184a.764.764,0,0,1-.633,1.191m-2.865-2.142a.766.766,0,0,1-.182-.022,2.388,2.388,0,0,0-1.031-.032.764.764,0,0,1-.295-1.5,3.924,3.924,0,0,1,1.688.047.764.764,0,0,1-.181,1.507" transform="translate(-812.568 -663.274)" fill="#f76c28"/>
            <path id="Trazado_732133" data-name="Trazado 732133" d="M399.121,803.5h-.043a7.93,7.93,0,0,1-1.347-.209l-.139-.033a.764.764,0,1,1,.354-1.487l.131.031a6.411,6.411,0,0,0,1.086.172.764.764,0,0,1-.042,1.527m-3.517-.942a.761.761,0,0,1-.333-.077,5.745,5.745,0,0,1-1.317-.86.764.764,0,1,1,1.01-1.147,4.264,4.264,0,0,0,.973.631.764.764,0,0,1-.333,1.452m-2.377-2.639a.764.764,0,0,1-.722-.514,6.9,6.9,0,0,1-.3-1.207q-.022-.146-.039-.291a.764.764,0,1,1,1.518-.176c.009.078.02.156.032.233a5.4,5.4,0,0,0,.23.939.764.764,0,0,1-.722,1.015m-.192-3.608a.764.764,0,0,1-.749-.921,8.042,8.042,0,0,1,.447-1.445.764.764,0,1,1,1.411.587,6.538,6.538,0,0,0-.362,1.171.764.764,0,0,1-.747.608m1.605-3.239a.764.764,0,0,1-.573-1.269,7.9,7.9,0,0,1,1.108-1.035.764.764,0,1,1,.932,1.211,6.348,6.348,0,0,0-.893.834.763.763,0,0,1-.574.259m3-2.024a.764.764,0,0,1-.255-1.485,7.759,7.759,0,0,1,1.474-.366.764.764,0,1,1,.22,1.512A6.22,6.22,0,0,0,397.9,791a.765.765,0,0,1-.256.044" transform="translate(-356.158 -716.731)" fill="#f76c28"/>
            <path id="Trazado_732134" data-name="Trazado 732134" d="M619.617,1001.371H619.6a10.787,10.787,0,0,1-1.468-.141.764.764,0,1,1,.251-1.508,9.255,9.255,0,0,0,1.259.121.764.764,0,0,1-.02,1.528m2.273-.182a.764.764,0,0,1-.127-1.518,8.787,8.787,0,0,0,1.206-.315.764.764,0,0,1,.5,1.446,10.305,10.305,0,0,1-1.432.373.757.757,0,0,1-.142.013m-5.821-.6a.767.767,0,0,1-.313-.067,8.668,8.668,0,0,1-1.312-.733.764.764,0,1,1,.86-1.263,7.1,7.1,0,0,0,1.079.6.764.764,0,0,1-.314,1.461m9.151-.817a.764.764,0,0,1-.48-1.359,4.375,4.375,0,0,0,.4-.369,4.484,4.484,0,0,0,.4-.476.764.764,0,0,1,1.239.9,6.029,6.029,0,0,1-.534.64,5.933,5.933,0,0,1-.546.5.761.761,0,0,1-.479.17m-12-1.417a.763.763,0,0,1-.607-.3,7.967,7.967,0,0,1-.8-1.285.764.764,0,0,1,1.368-.681,6.417,6.417,0,0,0,.648,1.038.764.764,0,0,1-.606,1.228m13.892-1.637a.765.765,0,0,1-.736-.97,9.736,9.736,0,0,0,.255-1.245.764.764,0,1,1,1.513.216,11.228,11.228,0,0,1-.3,1.44.765.765,0,0,1-.736.559m-15.268-1.7a.764.764,0,0,1-.759-.682,6.605,6.605,0,0,1-.038-.708,6.387,6.387,0,0,1,.056-.843.764.764,0,0,1,1.515.2,4.835,4.835,0,0,0-.042.64,5.09,5.09,0,0,0,.029.544.764.764,0,0,1-.678.842.777.777,0,0,1-.083,0m15.716-1.918h-.023a.764.764,0,0,1-.742-.786c.007-.234.011-.466.016-.7a.764.764,0,1,1,1.528.026c0,.236-.009.475-.016.714a.764.764,0,0,1-.764.742" transform="translate(-554.949 -899.889)" fill="#f76c28"/>
            <path id="Trazado_732135" data-name="Trazado 732135" d="M622.778,722.989a7.005,7.005,0,1,0,6.5,7.479,7,7,0,0,0-6.5-7.479" transform="translate(-558.79 -656.594)" fill="#ffc81a"/>
            <path id="Trazado_732136" data-name="Trazado 732136" d="M645.541,761.624a42.522,42.522,0,0,0-5.717,3.874,60.132,60.132,0,0,0-5.1,4c-.078.07.025.206.113.146,1.9-1.3,3.718-2.7,5.6-4.015,1.761-1.232,3.739-2.28,5.4-3.627.227-.184-.062-.5-.3-.383" transform="translate(-576.42 -691.675)" fill="#ffea2c"/>
            <path id="Trazado_732137" data-name="Trazado 732137" d="M635.634,748.264c-3.772,2.606-7.512,5.2-11.013,8.168-.092.078.033.243.13.169a128.434,128.434,0,0,1,11.179-7.829c.326-.2.013-.721-.3-.507" transform="translate(-567.244 -679.518)" fill="#ffea2c"/>
            <path id="Trazado_732138" data-name="Trazado 732138" d="M631.894,739.748a12.659,12.659,0,0,0-2.719,1.565c-.99.644-1.969,1.31-2.916,2.015a51.389,51.389,0,0,0-5.092,4.337c-.061.059.028.142.091.091,1.822-1.481,3.69-2.912,5.6-4.273.843-.6,1.69-1.191,2.556-1.757a19.073,19.073,0,0,0,2.617-1.739.144.144,0,0,0-.139-.24" transform="translate(-564.116 -671.823)" fill="#ffea2c"/>
            <path id="Trazado_732139" data-name="Trazado 732139" d="M627.093,728.93a44.379,44.379,0,0,0-10.192,7.741.05.05,0,0,0,.071.071,69.4,69.4,0,0,1,10.345-7.428.222.222,0,0,0-.224-.384" transform="translate(-560.248 -661.977)" fill="#ffea2c"/>
            <path id="Trazado_732140" data-name="Trazado 732140" d="M625.352,728.974a21.643,21.643,0,0,0-4.233,2.609,21.917,21.917,0,0,0-3.83,3.165c-.056.064.016.175.1.124,1.368-.89,2.6-2,3.943-2.932s2.854-1.672,4.157-2.652c.14-.105.065-.394-.133-.314" transform="translate(-560.596 -662.033)" fill="#ffea2c"/>
            <path id="Trazado_732141" data-name="Trazado 732141" d="M629.171,728.5a19.787,19.787,0,0,0-6.087,4.074c-.083.075.03.228.122.158,1.939-1.493,4.077-2.583,6.087-3.944.139-.094.057-.352-.121-.288" transform="translate(-565.85 -661.602)" fill="#ffea2c"/>
            <path id="Trazado_732142" data-name="Trazado 732142" d="M641.151,725.7a6.6,6.6,0,0,0-1.946,1.017,14.924,14.924,0,0,0-1.756,1.32c-.056.049.016.136.078.1.669-.375,1.322-.779,1.98-1.172a9.384,9.384,0,0,0,1.735-1.109.094.094,0,0,0-.091-.156" transform="translate(-578.904 -659.073)" fill="#ffea2c"/>
            <path id="Trazado_732143" data-name="Trazado 732143" d="M652.16,773.835c-3.46,2.705-7.373,4.881-10.959,7.422-.1.068-.011.222.094.161,2-1.174,3.956-2.421,5.915-3.666,1.731-1.1,3.841-2.119,5.274-3.593.212-.218-.1-.5-.324-.324" transform="translate(-582.292 -702.737)" fill="#ffea2c"/>
            <path id="Trazado_732144" data-name="Trazado 732144" d="M658.888,787.244c-1.807,1.071-3.482,2.407-5.253,3.547s-3.613,2.192-5.427,3.278a.086.086,0,0,0,.087.148,62.934,62.934,0,0,0,5.716-3.231,37.23,37.23,0,0,0,5.067-3.495c.135-.12-.039-.338-.191-.247" transform="translate(-588.656 -714.946)" fill="#ffea2c"/>
            <path id="Trazado_732145" data-name="Trazado 732145" d="M670.5,800.1c-1.559.989-3.032,2.123-4.581,3.133s-3.2,1.893-4.693,2.969a.093.093,0,0,0,.094.161,37.952,37.952,0,0,0,4.974-2.928,46.907,46.907,0,0,0,4.414-3.064c.151-.125-.045-.374-.208-.27" transform="translate(-600.481 -726.619)" fill="#ffea2c"/>
            <path id="Trazado_732146" data-name="Trazado 732146" d="M684.31,810.841c-1.574.874-3.043,1.963-4.55,2.947a48.986,48.986,0,0,0-4.145,2.756c-.075.061.021.156.1.124a37.643,37.643,0,0,0,4.682-2.731,43.813,43.813,0,0,0,4.169-2.769c.189-.151-.052-.437-.252-.326" transform="translate(-613.56 -736.373)" fill="#ffea2c"/>
            <path id="Trazado_732147" data-name="Trazado 732147" d="M697.946,837.6a31.9,31.9,0,0,0-5.34,3.3.093.093,0,0,0,.094.161,51.7,51.7,0,0,0,5.4-3.206.151.151,0,0,0-.152-.26" transform="translate(-628.978 -760.681)" fill="#ffea2c"/>
            <path id="Trazado_732148" data-name="Trazado 732148" d="M716.411,848.849a11.589,11.589,0,0,0-3.275,1.942.093.093,0,0,0,.094.161,20.967,20.967,0,0,0,3.313-1.875c.109-.087-.009-.265-.132-.228" transform="translate(-647.624 -770.909)" fill="#ffea2c"/>
            <path id="Trazado_732149" data-name="Trazado 732149" d="M658.449,718.242c-.2-.023-.287.1-.419.228l.785.207c-.045-.116-.085-.232-.126-.348a.552.552,0,0,0-.24-.087" transform="translate(-597.614 -652.296)" fill="#ffc81a"/>
            <path id="Trazado_732150" data-name="Trazado 732150" d="M648.854,636.951c.041.116.082.232.126.348l-.785-.207c.131-.124.22-.251.419-.228a.55.55,0,0,1,.24.087c-.965-2.715-.983-5.476-1.362-8.309,0-.008-.013-.011-.015,0a18.971,18.971,0,0,0,.6,8.909.476.476,0,0,0,.859.112l.067-.125a.429.429,0,0,0-.146-.586" transform="translate(-587.78 -570.919)" fill="#ffc81a"/>
            <path id="Trazado_732151" data-name="Trazado 732151" d="M505.864,781.314a40.137,40.137,0,0,0-10.473-2.19.108.108,0,0,0-.029.211c3.427.946,6.886,1.724,10.246,2.905.581.2.844-.735.255-.926" transform="translate(-449.813 -707.591)" fill="#ffc81a"/>
            <path id="Trazado_732152" data-name="Trazado 732152" d="M763.6,690.743a22.236,22.236,0,0,0-5.263,2.722,24.754,24.754,0,0,0-2.159,1.685c-.4.349-1.058.746-1.093,1.326a.452.452,0,0,0,.45.45l.078-.008a.441.441,0,0,0,.424-.512.223.223,0,0,0-.052.07l-.3-.392-.447.182.032-.046a.414.414,0,0,1,.746.1l.014.052c0,.012,0,.024.006.036.166-.184.686-.652.715-.681q.43-.434.878-.849a20.8,20.8,0,0,1,2-1.617,27.29,27.29,0,0,1,4.033-2.371.079.079,0,0,0-.061-.144" transform="translate(-685.755 -627.32)" fill="#ffc81a"/>
            <path id="Trazado_732153" data-name="Trazado 732153" d="M761.325,748.535l.042-.017-.074-.024.032.042" transform="translate(-691.397 -679.772)" fill="#ffc81a"/>
            <path id="Trazado_732154" data-name="Trazado 732154" d="M757.545,748.628a.414.414,0,0,0-.746-.1l-.032.046.447-.182-.032-.042.074.024-.042.017.3.393a.221.221,0,0,1,.052-.07c0-.012,0-.024-.006-.037s-.009-.034-.014-.052" transform="translate(-687.285 -679.632)" fill="#ffc81a"/>
            <path id="Trazado_732155" data-name="Trazado 732155" d="M555.891,870.209a14.469,14.469,0,0,1-3.909,5.572,27.676,27.676,0,0,1-5.262,4.149c-.076.042-.021.144.055.131a6.862,6.862,0,0,0,2.846-1.544c.971-.721,1.929-1.46,2.832-2.266a17.813,17.813,0,0,0,4.381-5.645.514.514,0,1,0-.943-.4" transform="translate(-496.491 -789.984)" fill="#ffc81a"/>
            <path id="Trazado_732156" data-name="Trazado 732156" d="M753.1,862.915c-2.651-1.2-6.624-3.286-7.122-6.495-.112-.723-1.338-.425-1.119.309.968,3.239,5.157,5.5,8.17,6.356.1.028.17-.126.072-.17" transform="translate(-676.448 -777.414)" fill="#ffc81a"/>
            <path id="Trazado_732157" data-name="Trazado 732157" d="M488.8,644a13.991,13.991,0,0,0-3.959-2.437.007.007,0,0,0-.007.012c1.178,1.148,2.657,2,3.925,3.053a32.664,32.664,0,0,0,3.478,3.07.159.159,0,0,0,.216-.216c-.775-1.406-2.4-2.513-3.652-3.483" transform="translate(-440.32 -582.664)" fill="#ffc81a"/>
            <path id="Trazado_732158" data-name="Trazado 732158" d="M533.867,634.9c-.042-.087-.188-.026-.157.066a18.266,18.266,0,0,0,2.244,5c.1.137.366.066.3-.127a45.163,45.163,0,0,0-2.388-4.939" transform="translate(-484.704 -576.575)" fill="#ffc81a"/>
            <path id="Trazado_732159" data-name="Trazado 732159" d="M491.918,680.923c-.008,0-.009.012,0,.014.931.3,1.868.567,2.8.854a17.27,17.27,0,0,1,2.838,1.368.223.223,0,0,0,.269-.349c-1.321-1.575-4.02-1.7-5.907-1.888" transform="translate(-446.748 -618.406)" fill="#ffc81a"/>
            <path id="Trazado_732160" data-name="Trazado 732160" d="M753.293,570.011c-1.488,1.266-3.487,3.545-3.547,5.6a.2.2,0,0,0,.374.1c.563-.92.9-1.963,1.464-2.893s1.261-1.79,1.788-2.745a.05.05,0,0,0-.079-.061" transform="translate(-680.91 -517.665)" fill="#ffc81a"/>
            <path id="Trazado_732161" data-name="Trazado 732161" d="M749.433,575.67a10.2,10.2,0,0,0-.695,3.939.115.115,0,0,0,.225.03,12.374,12.374,0,0,0,.54-3.96c0-.041-.059-.047-.07-.01" transform="translate(-679.972 -522.794)" fill="#ffc81a"/>
            <path id="Trazado_732162" data-name="Trazado 732162" d="M768.016,595.656c-1.145.427-2.687,1.282-3.119,2.5-.053.149.129.261.253.194a7.129,7.129,0,0,0,1.418-1.238c.486-.458,1.022-.873,1.547-1.286.078-.062-.007-.2-.1-.168" transform="translate(-694.661 -540.963)" fill="#ffc81a"/>
            <path id="Trazado_732163" data-name="Trazado 732163" d="M861.787,796.87c-1.307-.122-2.638-.044-3.952-.135s-2.6-.283-3.9-.379c-.009,0-.01.012,0,.015a16.872,16.872,0,0,0,7.918.949c.273-.042.177-.428-.061-.45" transform="translate(-775.524 -723.24)" fill="#ffc81a"/>
            <path id="Trazado_732164" data-name="Trazado 732164" d="M872.935,775.295c-1.93.534-3.786,1.225-5.759,1.62-.117.023-.093.223.029.211a15.934,15.934,0,0,0,5.863-1.517.173.173,0,0,0-.133-.314" transform="translate(-787.489 -704.107)" fill="#ffc81a"/>
            <path id="Trazado_732165" data-name="Trazado 732165" d="M868.934,811.981a.029.029,0,0,0-.029.049c1.4.878,2.242,2.246,3.333,3.433a.151.151,0,0,0,.236-.182,8.167,8.167,0,0,0-3.541-3.3" transform="translate(-789.116 -737.428)" fill="#ffc81a"/>
            <path id="Trazado_732166" data-name="Trazado 732166" d="M695.411,964.312c0-.094-.133-.089-.143,0-.26,2.345-.588,4.949.278,7.21a.186.186,0,0,0,.359-.1,39.97,39.97,0,0,1-.494-7.111" transform="translate(-631.175 -875.714)" fill="#ffc81a"/>
            <path id="Trazado_732167" data-name="Trazado 732167" d="M667.539,981.477c-.115,1.939-1.64,3.315-1.98,5.169a.172.172,0,0,0,.331.091c.618-1.741,1.856-3.352,1.82-5.261a.086.086,0,0,0-.172,0" transform="translate(-604.449 -891.289)" fill="#ffc81a"/>
            <path id="Trazado_732168" data-name="Trazado 732168" d="M706.84,983.811a9.049,9.049,0,0,1-1.673-1.791.014.014,0,0,0-.027.007c-.09.753.693,1.5,1.157,2a6.032,6.032,0,0,0,2.194,1.691c.244.086.411-.249.244-.419-.555-.563-1.291-.973-1.895-1.49" transform="translate(-640.392 -891.852)" fill="#ffc81a"/>
            <path id="Trazado_732169" data-name="Trazado 732169" d="M438.872,857.119c-2.582.42-5.125,1.047-7.721,1.417-.056.008-.043.1.013.1a33.349,33.349,0,0,0,7.795-1.2.165.165,0,0,0-.088-.318" transform="translate(-391.533 -778.423)" fill="#ffc81a"/>
            <path id="Trazado_732170" data-name="Trazado 732170" d="M458.27,839.6a27.3,27.3,0,0,1-5.707-.836c-.053-.015-.092.068-.039.092a11.662,11.662,0,0,0,5.746,1.116.186.186,0,0,0,0-.372" transform="translate(-410.954 -761.755)" fill="#ffc81a"/>
            <path id="Trazado_732171" data-name="Trazado 732171" d="M478.526,866.584a9.532,9.532,0,0,0-3.684,3.3c-.1.136.128.315.236.182a13.136,13.136,0,0,1,1.686-1.735c.617-.522,1.336-.909,1.944-1.437.136-.118-.008-.378-.181-.311" transform="translate(-431.222 -787.011)" fill="#ffc81a"/>
            <path id="Trazado_732172" data-name="Trazado 732172" d="M912.46,907.137a6.244,6.244,0,0,0-4.573-1.242.014.014,0,0,0,0,.029,6.5,6.5,0,0,1,5.811,3.1,4.133,4.133,0,0,1-.644,5.339,3.926,3.926,0,0,1-5.352-.271,3,3,0,0,1-.931-2.9,1.62,1.62,0,0,1,1.689-1.073,1.685,1.685,0,0,1,1.616,1.1q-.013,1.584-1.121,1.414c.1-.262-.334-.39-.428-.118l-.042.121a.215.215,0,0,0,.056.213,1.251,1.251,0,0,0,1.787-.426,1.735,1.735,0,0,0-.408-2.181,2.456,2.456,0,0,0-2.8-.2,2.333,2.333,0,0,0-.753,2.525,4.3,4.3,0,0,0,8.406-1.735,6.16,6.16,0,0,0-2.312-3.695" transform="translate(-823.07 -822.716)" fill="#8da35f"/>
            <path id="Trazado_732173" data-name="Trazado 732173" d="M1019.554,733.795a.151.151,0,0,0,.3.04l.007-.017a.322.322,0,0,0-.3-.023" transform="translate(-925.946 -666.399)" fill="#8da35f"/>
            <path id="Trazado_732174" data-name="Trazado 732174" d="M952.772,672.485c-3.892-1.8-7.349,1.224-9.25,4.363a.008.008,0,0,0,.013.008c1.322-2.086,3.373-4.135,5.9-4.539,3.009-.48,6.081,1.712,5.939,4.908-.128,2.9-3.484,4.857-5.944,3.115-1.67-1.183-2.007-3.881.167-4.729a2.218,2.218,0,0,1,2.729.575,1.4,1.4,0,0,1-.455,1.8.788.788,0,0,1-.964-.2.345.345,0,0,0-.108-.114l-.007.017a.151.151,0,0,1-.3-.04.322.322,0,0,1,.3.023l.019-.046a.164.164,0,0,0-.075-.185l-.076-.039a.185.185,0,0,0-.248.065c-.412.691.845,1.064,1.314,1a1.545,1.545,0,0,0,1.016-2.355,2.576,2.576,0,0,0-3.3-.859,2.771,2.771,0,0,0-1.634,3.508c.926,2.893,4.724,3.363,6.693,1.294,2.278-2.394,1.111-6.253-1.739-7.571" transform="translate(-856.894 -610.253)" fill="#8da35f"/>
            <path id="Trazado_732175" data-name="Trazado 732175" d="M681.688,408.892c-4.259,2.591-3.138,8.243-.506,11.537.025.032.079-.01.056-.043-1.547-2.292-2.613-5.2-1.707-7.944.895-2.714,3.98-4.9,6.789-3.363a4.5,4.5,0,0,1,2.261,2.977c.4,1.961-1.415,3.544-3.294,3.545-1.791,0-3.465-1.779-2.631-3.555a1.922,1.922,0,0,1,2.123-1.179,2.125,2.125,0,0,1,.738.295,1.152,1.152,0,0,1,.616.861q.453.832-.913.442c.306-.188.025-.672-.282-.482a1.028,1.028,0,0,0,.542,1.925c1.3-.012,1.564-1.609,1.011-2.516-1.714-2.81-5.649.12-4.3,2.866,1.618,3.3,7.357,1.728,6.937-1.935a4.891,4.891,0,0,0-7.436-3.431" transform="translate(-616.519 -370.694)" fill="#8da35f"/>
            <path id="Trazado_732176" data-name="Trazado 732176" d="M432.541,761.573a.008.008,0,0,0,0-.015.008.008,0,0,0,0,.015" transform="translate(-392.822 -691.638)" fill="#8da35f"/>
            <path id="Trazado_732177" data-name="Trazado 732177" d="M319.373,656.038c-2.79.087-5.71-.133-8.063-1.791-2.3-1.62-4.133-4.983-1.745-7.354,2.561-2.544,6.551-.246,6.991,2.906a2.387,2.387,0,0,1-.883,2.628,2.553,2.553,0,0,1-2.585-.207c-.6-.339-1.791-1.334-1.61-2.2a1.624,1.624,0,0,1,1.024-1.192,1.351,1.351,0,0,1,.744,0q.8.026.384,1.191c-.221-.14-.4.159-.26.338.623.781,1.694-.063,1.451-.934-.341-1.221-2.1-1.477-3.048-.88-2.83,1.784,1.686,5.576,4.03,4.453,1.491-.714,1.489-2.637,1.088-4.021a4.947,4.947,0,0,0-3.4-3.431,4.248,4.248,0,0,0-5.187,5.532c1.653,4.4,6.892,5.611,11.073,5.063.062-.008.067-.1,0-.1" transform="translate(-279.74 -586.129)" fill="#8da35f"/>
            <path id="Trazado_732178" data-name="Trazado 732178" d="M473.507,1049.3a7.228,7.228,0,0,1-3.718,6.581c-2.23,1.177-6.407,1.433-7.065-1.752a4.02,4.02,0,0,1,1.4-4.048,3.255,3.255,0,0,1,3.966,0,2.745,2.745,0,0,1,.444,3.764,2.069,2.069,0,0,1-2.564.578,1.913,1.913,0,0,1-.735-1.017.941.941,0,0,1,.12-.932q.179-.992.979.113c-.359.114-.205.682.156.566a.988.988,0,0,0-.054-1.929c-1.183-.3-1.96,1.026-1.827,2.044a2.3,2.3,0,0,0,2.85,1.908,2.933,2.933,0,0,0,2.2-3.172c-.3-3.376-4.7-4.086-6.6-1.562a4.623,4.623,0,0,0-.527,4.516,3.969,3.969,0,0,0,3.642,2.129,7.262,7.262,0,0,0,7.449-7.787c0-.073-.116-.074-.115,0" transform="translate(-419.735 -952.621)" fill="#8da35f"/>
            <path id="Trazado_732179" data-name="Trazado 732179" d="M36.648,1211a10.122,10.122,0,0,0-3.546-1.921,22.538,22.538,0,0,0-11.9-.427,11.2,11.2,0,0,0-6.143,3.06c-2.646,2.963-.692,5.953.049,9.181a19.38,19.38,0,0,1-.923,11.6c-2.155,5.26-8.356,7.6-13.924,11.436-2.4,5.231,12.5,16.716,18.753,14.091,5.588-6.524,10.386-10.934,14.454-18.5,3.5-6.514,6.655-13.613,6.2-20.994-.169-2.77-.952-5.679-3.024-7.526" transform="translate(0 -1097.146)" fill="#ffd0a6"/>
            <path id="Trazado_732180" data-name="Trazado 732180" d="M27.243,573.141c-1.857,3.578-3.328,6.247-6.191,10.793a13.694,13.694,0,0,0-.969,1.938,14.265,14.265,0,0,0-.823,1.309q-2.239,3.9-4.082,8.01a7.247,7.247,0,0,0-.755,2.465,7.536,7.536,0,0,0,.134,1.624l1.231,7.892a37.307,37.307,0,0,0,1.624,7.224,12.521,12.521,0,0,0,4.239,5.953,5.9,5.9,0,0,0,4.574,1.192,4.356,4.356,0,0,0,3.317-4.118,8.482,8.482,0,0,0-.97-3.383,43.864,43.864,0,0,1-2.776-7.892c-.676-2.81-2.049-5.669-2.515-8.49a14.263,14.263,0,0,0,2.432-6.222c.083-.471.644-2.766,1.007-4.065a20.713,20.713,0,0,0,2.256-4.8c.913-2.948.426-4,1.13-7,.606-2.587-2.212-3.682-2.864-2.426" transform="translate(-13.092 -520.047)" fill="#ffd0a6"/>
            <path id="Trazado_732181" data-name="Trazado 732181" d="M82.989,611.474c-.469-.323-.962-.616-1.418-.955-.286-.889-.545-1.8-.776-2.761-.676-2.81-2.049-5.669-2.515-8.49a14.266,14.266,0,0,0,2.432-6.222c.083-.471.644-2.766,1.007-4.065a20.716,20.716,0,0,0,2.256-4.8c.913-2.948.426-4,1.13-7.005A2.315,2.315,0,0,0,83.9,574.4a3.4,3.4,0,0,1,.27.388,6.84,6.84,0,0,1,.657,3.356A12.187,12.187,0,0,1,83.3,583.1a8.735,8.735,0,0,1-3.075,3.647c.127,4.67-2.453,8.963-5.247,12.709a90.284,90.284,0,0,1,4.928,11.87c2.3,1.566,4.858,1.994,5.835,2.769a12.058,12.058,0,0,0-2.748-2.621" transform="translate(-68.09 -521.659)" fill="#ffb380"/>
            <path id="Trazado_732182" data-name="Trazado 732182" d="M148.476,978.585c-2.389-1.285-2.106-1.746-4.219-3.446-1.718-1.382-3.423-3.108-5.624-3.252a3.767,3.767,0,0,0,.529.859,6.385,6.385,0,0,0,.744.478,13.194,13.194,0,0,1,2.215,1.548,16.065,16.065,0,0,1,3.256,4.316.826.826,0,0,0,.787.534c1.718.267,4,5.056,4.161,6.326.28-2.176-2.128-5.185-1.848-7.361" transform="translate(-125.899 -882.656)" fill="#ffb380"/>
            <path id="Trazado_732183" data-name="Trazado 732183" d="M130.614,542.252a20.719,20.719,0,0,0-3.95,6.259c-.173.429-.773,1.839.149,1.852.641.01,1.267-1.062,1.546-1.522,1.214-2,3.294-7.055,2.255-6.589" transform="translate(-114.715 -492.44)" fill="#f75b37"/>
            <path id="Trazado_732184" data-name="Trazado 732184" d="M1347.773,718.664a13.751,13.751,0,0,0-6.131,2.55,9.882,9.882,0,0,0-2.72,2.332c-1.591,2.189-.786,4.708,2.151,3.854l10.649-3.095a2.657,2.657,0,0,0,1.716-1.039,2.022,2.022,0,0,0-.066-1.749c-.9-2.048-3.371-3.045-5.6-2.853" transform="translate(-1215.263 -652.661)" fill="#ffbc8a"/>
            <path id="Trazado_732185" data-name="Trazado 732185" d="M1484.6,663.085c-.683-.759-1.563-1.574-2.57-1.4a3.2,3.2,0,0,1-.869.148,1.547,1.547,0,0,1-.772-.417,8.357,8.357,0,0,0-2.9-1.863,2.468,2.468,0,0,0-2.964,1.131c.209-.512-2.5-1.719-2.847-1.827a5.48,5.48,0,0,0-3.745.011c-1.755.876-1.33,2.586-.457,4.023,1.321,2.175,3.706,3.779,5.5,5.548a60.361,60.361,0,0,1,6.173,6.994c2.023,2.735,3.736,5.693,5.849,8.359a18.688,18.688,0,0,0,7.9,6.249,4.568,4.568,0,0,0,3.506.131c1.421-.687,1.98-2.45,1.965-4.028-.026-2.743,1.6-3.561.245-5.943-3.138-5.5-9.779-12.4-14.014-17.111" transform="translate(-1332.062 -598.065)" fill="#ffbc8a"/>
            <path id="Trazado_732186" data-name="Trazado 732186" d="M1325.407,589.674q-5.729-5.662-11.645-11.13a30.868,30.868,0,0,0-5.737-4.494,31.885,31.885,0,0,0-5.347-2.184,33.88,33.88,0,0,0-9.56-2.24,3.321,3.321,0,0,0-1.566.223,1.3,1.3,0,0,0-.791,1.267,1.854,1.854,0,0,0,1.018,1.175c3.108,1.89,6.814,2.622,9.906,4.538a29.785,29.785,0,0,1,5.342,4.625l7.391,7.5-1.759-.384c-.424,2.062.912,4.067,2.39,5.566a44.4,44.4,0,0,0,6.927,5.383c2.963,2,6.006,4.043,9.477,4.9a11.069,11.069,0,0,0,4.94.182,1.262,1.262,0,0,0,.786-.4c.326-.441.022-1.056-.289-1.508a92.429,92.429,0,0,0-11.483-13.027" transform="translate(-1172.244 -517.321)" fill="#ffd0a6"/>
            <path id="Trazado_732187" data-name="Trazado 732187" d="M1509.384,843.086a53.762,53.762,0,0,0-4.827-5.644,8.355,8.355,0,0,0-3.434-2.258c-3.134-.877-10.024.23-8.675,4.589,1.285,4.154,3.653,7.509.965,11.838-1.677,2.7-4.722,4.486-5.855,7.455a8.775,8.775,0,0,0,1.355,7.943,20.243,20.243,0,0,0,6.324,5.413,61.151,61.151,0,0,0,14.411,6.385,19.1,19.1,0,0,0,8.481.965c2.832-.472,5.6-2.25,6.524-4.967.748-2.193.218-4.606-.49-6.812-2.962-9.243-8.834-17.235-14.78-24.906" transform="translate(-1350.573 -758.25)" fill="#ffd0a6"/>
            <path id="Trazado_732188" data-name="Trazado 732188" d="M1325.6,851.855l-2.473-3.131a2.245,2.245,0,0,0-1.027-.863c-.717-.213-1.42.314-2.018.764-3.782,2.844-9.351,3.6-13.264.944-3.072-2.089-4.6-5.755-5.886-9.242a10.7,10.7,0,0,0-1.865-3.61,3.121,3.121,0,0,0-5.7,1.645,10.321,10.321,0,0,0,.3,3.61c.527,2.589,1.054,5.182,1.794,7.718a17.775,17.775,0,0,0,2.332,5.31,21.828,21.828,0,0,0,4.8,4.52c4.09,3.136,9.35,8.1,13.477,11.188,1.473,1.1,1.678-.187,3.277.624,1.783.9,3.216,2.631,5.272,2.947a5.222,5.222,0,0,0,3.2-.647c3.7-1.973,4.963-6.9,4-10.977s-3.628-7.511-6.225-10.8" transform="translate(-1174.558 -758.687)" fill="#ffd0a6"/>
            <path id="Trazado_732189" data-name="Trazado 732189" d="M1300.625,653.29c-5.049.787-7.761,9.242-11.676,12.526-.888.745-2.27,2.316-1.227,3.519.92,1.06,3.149.453,4.19-.05a14.209,14.209,0,0,0,3.491-2.7l4.693-4.491c6,2.662,9.195,8.948,11.718,15,.141.338,1.325.059,1.627.266a1.769,1.769,0,0,0,.752.241c3.328.5,8.507-.778,11.4-2.493-3.8-8.912-22.2-22.248-24.971-21.816" transform="translate(-1169.153 -593.301)" fill="#ffd0a6"/>
            <path id="Trazado_732190" data-name="Trazado 732190" d="M1644.465,997.8c-4.051-6.887-8.949-13.388-15.218-18.341-1.433-1.132-3.059-2.223-4.886-2.246-2.214-.028-4.113,1.506-5.718,3.032a18.7,18.7,0,0,0-3.9,4.768c-1.937,3.731-1.544,8.193-1.1,12.373.233,2.2.568,4.591,2.122,6.291,1.186,1.3,3.067,1.784,4.555,2.682a32.061,32.061,0,0,1,9.574,9.244,65.607,65.607,0,0,1,7.58,15.85,11.43,11.43,0,0,0,2.121,4.161,8.118,8.118,0,0,0,4.655,2.2,12.979,12.979,0,0,0,8.888-1.571,10.146,10.146,0,0,0,4.839-7.466c.322-3.352-1.234-6.564-2.706-9.592-3.494-7.185-6.756-14.5-10.807-21.387" transform="translate(-1465.161 -887.492)" fill="#ffd0a6"/>
            <path id="Trazado_732191" data-name="Trazado 732191" d="M1663.374,865.866c-2.677-5.8-4.609-12.832-8.386-17.98-.914-1.246-2.955-1.116-4.19-2.045s-7.228-1.923-8.766-1.783c-5.525.505-.291,7.582.168,11.405.779,6.494,4.019,12.431,7.679,17.851a41.412,41.412,0,0,0,6.132,7.478,18.5,18.5,0,0,0,8.392,4.622,4.028,4.028,0,0,0,3.206-.325c1.353-.97,1.266-2.985.937-4.617a66.5,66.5,0,0,0-5.172-14.608" transform="translate(-1488.989 -766.552)" fill="#ffd0a6"/>
            <path id="Trazado_732192" data-name="Trazado 732192" d="M1421.574,654.446a3.083,3.083,0,0,0-2.038-.735c-.718.129-1.2,1.167-1.728,1.282,2.243-.493,4.427.9,6.285,2.245,5.513,4,10.588,9.226,15.911,13.477a88.777,88.777,0,0,0-18.431-16.269" transform="translate(-1287.636 -593.673)" fill="#ffbc8a"/>
            <path id="Trazado_732193" data-name="Trazado 732193" d="M1580.807,680.289l-7.24-8.587a20.665,20.665,0,0,0-2.007-2.163c-.608-.541-2.994-2.22-3.458-.645-.286.969,2.646,2.665,3.347,3.273a72.044,72.044,0,0,1,7.571,7.759c1.32,1.551,2.593,3.142,3.837,4.754a15.644,15.644,0,0,0,1.888,2.17c.136.122.324.245.487.162.22-.112.138-.443.02-.66a37.043,37.043,0,0,0-4.445-6.063" transform="translate(-1424.112 -606.884)" fill="#ffd0a6"/>
            <path id="Trazado_732194" data-name="Trazado 732194" d="M1650.563,709.975,1644.772,703c-1-1.2-2-2.407-3.045-3.569-.871-.967-2-2.579-3.216-3.1-2-.848-.25,1.309.217,1.858q1.607,1.891,3.176,3.814,1.809,2.219,3.567,4.479c2.264,2.912,4.509,5.923,7.5,8.084.4,0,.382-.62.195-.977a21.456,21.456,0,0,0-2.6-3.617" transform="translate(-1487.224 -632.224)" fill="#ffd0a6"/>
            <path id="Trazado_732195" data-name="Trazado 732195" d="M1290.769,566.32a10.082,10.082,0,0,0-3.747-.958,10.875,10.875,0,0,0-1.874-.167c-.924,0-1.89.3-1.772.856a.6.6,0,0,0,.271.319,2.7,2.7,0,0,0,1.456.509c1.773.08,3.676.732,5.417.386.259-.052.57-.17.6-.432.024-.217-.167-.394-.35-.513" transform="translate(-1165.536 -513.303)" fill="#f9644b"/>
            <path id="Trazado_732196" data-name="Trazado 732196" d="M1266.5,774.634l-2.451,2.872a5.126,5.126,0,0,0-1.156,1.834.2.2,0,0,0,0,.151.175.175,0,0,0,.134.076.9.9,0,0,0,.634-.244,24.329,24.329,0,0,0,4.147-3.52,4.434,4.434,0,0,0,.85-1.3,1.3,1.3,0,0,0,.045-.963c-.578-1.356-1.861.694-2.2,1.094" transform="translate(-1146.933 -702.104)" fill="#f9644b"/>
            <path id="Trazado_732197" data-name="Trazado 732197" d="M1378.07,1015.931a1.862,1.862,0,0,0-.172.236c.063-.076.117-.156.172-.236" transform="translate(-1251.389 -922.656)" fill="#ffbc8a"/>
            <path id="Trazado_732198" data-name="Trazado 732198" d="M1347.906,852.045a8.94,8.94,0,0,1-4.67-3.167,26.618,26.618,0,0,1-2.962-4.907l-2.893-5.68c-.474-.931-3.078-3.127-2.226-1.118.647,1.527,1.687,2.8,2.22,4.472l1.676,5.254c.624,1.957,1.182,4.286.046,5.942a2.847,2.847,0,0,1,2.543-.79,17.529,17.529,0,0,1,2.926.93,9.789,9.789,0,0,0,8.279-1.125,11.211,11.211,0,0,1-4.938.191" transform="translate(-1212.416 -759.565)" fill="#ffbc8a"/>
            <path id="Trazado_732199" data-name="Trazado 732199" d="M1498.05,1175.985a13.259,13.259,0,0,1-.311-6.014,8.082,8.082,0,0,1-5.416,1.124,21.348,21.348,0,0,1-5.411-1.56c-6.037-2.386-11.884-4.341-17.354-8.586,1.769,1.731,3.63,3.226,5.474,4.763a42.718,42.718,0,0,0,7.141,5.232c2.817,1.5,5.935,2.376,8.719,3.935a26.951,26.951,0,0,1,8.837,8.518,80.507,80.507,0,0,1,5.89,10.88,61.462,61.462,0,0,0-5.434-13.416,27.88,27.88,0,0,1-2.136-4.877" transform="translate(-1334.635 -1054.36)" fill="#ffbc8a"/>
            <g id="Grupo_986988" data-name="Grupo 986988" transform="translate(118.46 52.202)" opacity="0.46">
              <g id="Grupo_986987" data-name="Grupo 986987">
                <g id="Grupo_986986" data-name="Grupo 986986" clip-path="url(#clip-path-4)">
                  <path id="Trazado_732200" data-name="Trazado 732200" d="M1290.508,568.587c-.6.2-.091.649.334.6a12.675,12.675,0,0,1,2.629-.012l-1.635-.282c-.263-.045-1.08-.392-1.329-.308" transform="translate(-1290.233 -568.573)" fill="#fff"/>
                </g>
              </g>
            </g>
            <g id="Grupo_986991" data-name="Grupo 986991" transform="translate(121.698 52.805)" opacity="0.46">
              <g id="Grupo_986990" data-name="Grupo 986990">
                <g id="Grupo_986989" data-name="Grupo 986989" clip-path="url(#clip-path-5)">
                  <path id="Trazado_732201" data-name="Trazado 732201" d="M1325.705,575.175c.07.012.308.035.584.066-.26-.042-.522-.074-.785-.1l.2.035" transform="translate(-1325.504 -575.14)" fill="#fff"/>
                </g>
              </g>
            </g>
            <g id="Grupo_986994" data-name="Grupo 986994" transform="translate(122.484 52.905)" opacity="0.46">
              <g id="Grupo_986993" data-name="Grupo 986993">
                <g id="Grupo_986992" data-name="Grupo 986992" clip-path="url(#clip-path-6)">
                  <path id="Trazado_732202" data-name="Trazado 732202" d="M1335.118,576.45a2.993,2.993,0,0,0-1.062-.218c.357.058.711.13,1.062.218" transform="translate(-1334.057 -576.232)" fill="#fff"/>
                </g>
              </g>
            </g>
            <path id="Trazado_732203" data-name="Trazado 732203" d="M1170.341,812.745c-8.791-1.047-20.418-2.295-20.569-1.724,0,0,11.88,1.8,20.7,3.019,5.1.7,9.086,1.941,9.388.623.334-1.458-4.147-1.278-9.516-1.918m8.6,1.976a.77.77,0,0,1-.42,0q-2.156-.283-4.275-.746a.179.179,0,0,1-.148-.1.283.283,0,0,1,.267-.141,21.04,21.04,0,0,1,4.645.5.228.228,0,0,1,.152.072c.142.18-.109.369-.221.416" transform="translate(-1044.208 -736.429)" fill="#aec4d1"/>
            <path id="Trazado_732204" data-name="Trazado 732204" d="M1418.978,845.446a.768.768,0,0,1-.419,0q-2.124-.279-4.211-.733h0a.283.283,0,0,0-.267.141.179.179,0,0,0,.148.1q2.119.463,4.275.746a.769.769,0,0,0,.419,0c.106-.044.334-.215.242-.385a.575.575,0,0,1-.184.132" transform="translate(-1284.246 -767.153)" fill="#8fa1aa"/>
            <path id="Trazado_732205" data-name="Trazado 732205" d="M1170.341,812.746c-8.791-1.047-20.418-2.295-20.569-1.724l.745.113c2.79-.058,12.3.975,19.766,1.865,5.2.619,9.564.47,9.533,1.784a.605.605,0,0,0,.041-.119c.334-1.458-4.147-1.278-9.516-1.918" transform="translate(-1044.208 -736.43)" fill="#8fa1aa"/>
            <path id="Trazado_732206" data-name="Trazado 732206" d="M1290.467,831.19c-.9-1.058-2.7-1.912-2.828.138a19.163,19.163,0,0,0,.464,5.556,2.913,2.913,0,0,0,.6,1.366,1.913,1.913,0,0,0,2.436.127,2.954,2.954,0,0,0,1.106-2.321,6.821,6.821,0,0,0-.55-2.589,7.636,7.636,0,0,0-1.233-2.276" transform="translate(-1169.382 -753.867)" fill="#f9644b"/>
            <g id="Grupo_986997" data-name="Grupo 986997" transform="translate(118.659 77.145)" opacity="0.46">
              <g id="Grupo_986996" data-name="Grupo 986996">
                <g id="Grupo_986995" data-name="Grupo 986995" clip-path="url(#clip-path-7)">
                  <path id="Trazado_732207" data-name="Trazado 732207" d="M1292.971,840.266c-.721.162-.568,1.663-.525,2.187q.1,1.191.308,2.369a4.689,4.689,0,0,0,.872,2.267,10.687,10.687,0,0,1-.5-3.276,2.091,2.091,0,0,1,.069-.818.714.714,0,0,1,.6-.5.349.349,0,0,0,.22-.04.26.26,0,0,0,.049-.239c-.07-.5-.263-2.137-1.091-1.95" transform="translate(-1292.402 -840.251)" fill="#fff"/>
                </g>
              </g>
            </g>
            <path id="Trazado_732208" data-name="Trazado 732208" d="M1480.618,837.756a12.937,12.937,0,0,0-2.889-.175c-1.141-.03-2.283-.069-3.418-.195a15.4,15.4,0,0,1-6.1-1.945c-3.564-2.063-6.208-5.316-8.656-8.553-2.026-2.68-4.114-6.4-7.388-7.706a5.7,5.7,0,0,0-7.1,2.454c-.093.186.152.411.305.236a6.252,6.252,0,0,1,4.621-2.349,6.555,6.555,0,0,1,4.674,2.427c2.629,2.774,4.618,6.114,7.129,9a22.045,22.045,0,0,0,7.834,6.082,17.2,17.2,0,0,0,5.13,1.192c1.061.1,2.128.129,3.193.156a11.562,11.562,0,0,0,2.66-.051.3.3,0,0,0,0-.567" transform="translate(-1312.376 -743.607)" fill="#f76c28"/>
            <path id="Trazado_732209" data-name="Trazado 732209" d="M1502.142,861.295c-5.164-2.071-10.226-1.052-15.329.618-5.121,1.677-10.879,3.448-16.16,1.367-4.814-1.9-7.778-6.556-11.722-9.67a34.759,34.759,0,0,0-7.409-4.258c-2.49-1.126-7.047-3.394-5.66-6.867.07-.175-.227-.3-.307-.13-2.1,4.538,4.957,7.081,7.84,8.513a28.709,28.709,0,0,1,6.746,4.671c1.766,1.638,3.358,3.455,5.148,5.069a16.769,16.769,0,0,0,5.75,3.6,17.12,17.12,0,0,0,7.646.58c5.428-.684,10.4-3.5,15.865-3.867a16.5,16.5,0,0,1,9.305,2.147c2.827,1.629,5.576,4.5,4.523,8.031a.447.447,0,0,0,.861.237c1.419-4.824-3.136-8.45-7.1-10.039" transform="translate(-1312.486 -764.943)" fill="#f76c28"/>
            <path id="Trazado_732210" data-name="Trazado 732210" d="M1442.25,853.025l1.116.142.061-.323-1.054-.164Z" transform="translate(-1309.833 -774.394)" fill="#aec4d1"/>
            <path id="Trazado_732211" data-name="Trazado 732211" d="M1441.542,849.967l1.132.178.039-.255-1.041-.162Z" transform="translate(-1309.189 -771.712)" fill="#8fa1aa"/>
            <path id="Trazado_732212" data-name="Trazado 732212" d="M164.909,56.1a1.54,1.54,0,0,0-2.111-.533l-.243.145a1.54,1.54,0,0,1-2.111-.533,1.54,1.54,0,0,0-2.111-.533L139.166,66.089a1.54,1.54,0,0,0-.533,2.111,1.54,1.54,0,0,1-.533,2.111l-.164.1a1.54,1.54,0,0,0-.533,2.111l1.941,3.252.028.047a1.54,1.54,0,0,0,2.111.533l.164-.1a1.54,1.54,0,0,1,2.111.533L144,77.2l.049.082a1.54,1.54,0,0,0,2.111.533l19.166-11.439a1.54,1.54,0,0,0,.533-2.111l-.293-.491a1.54,1.54,0,0,1,.533-2.111l.243-.145a1.54,1.54,0,0,0,.533-2.111Z" transform="translate(-124.59 -49.435)" fill="#ffe7b3"/>
            <path id="Trazado_732213" data-name="Trazado 732213" d="M356.8,835.362c-.057-1.419.059-2.84.057-4.26,0-1.715-1.731-4.175-2.4-1.4a32.97,32.97,0,0,0-.353,6.57c-.061,2.295-.068,4.592.028,6.885a53.6,53.6,0,0,0,2.119,13.478,8.893,8.893,0,0,0,1.735,3.494,9.949,9.949,0,0,0,2.811,1.919l2.909,1.53a144.018,144.018,0,0,1-6.4-24.173,31,31,0,0,1-.5-4.042" transform="translate(-321.55 -752.387)" fill="#bbedff"/>
            <path id="Trazado_732214" data-name="Trazado 732214" d="M67.734,947.684C63.9,939.634,57.558,933.933,48.79,932.29a35.919,35.919,0,0,0-3.112-4.223,16.981,16.981,0,0,0-3.4-2.666L37.3,922.136a7.209,7.209,0,0,0-2.454-1.194,2.718,2.718,0,0,0-2.869,1.285c-.76,1.034-.373,2.041-.256,3.383a69.757,69.757,0,0,1,.209,8.89,8.267,8.267,0,0,0,.093,2.179,7.348,7.348,0,0,0,.559,1.469c3.541,7.527,8.592,14.361,11.227,22.25a21.025,21.025,0,0,0,1.984,4.91c2.186,3.37,6.683,4.724,10.64,4.02a13.766,13.766,0,0,0,9.287-6.419c1.673-2.81,2.272-6.111,2.8-9.336a11.037,11.037,0,0,0,.217-2.661,9.361,9.361,0,0,0-1.008-3.227" transform="translate(-28.625 -836.334)" fill="#ffd0a6"/>
            <path id="Trazado_732215" data-name="Trazado 732215" d="M237.545,833.484a35.7,35.7,0,0,1-2.106-10.445c-.264-5.4.7-10.816.252-16.2-.154-1.855-.615-5.075-3.229-4.584a4.618,4.618,0,0,0-2.292,1.378c-2.889,2.849-4.042,7.011-4.581,11.031s-.591,8.14-1.79,12.014c-.628,2.028-1.572,4-1.678,6.12-.142,2.828,1.231,5.511,2.832,7.847a21.413,21.413,0,0,0,8.885,7.909c1.515.646,3.375,1,4.729.063.788-.546,1.091,2.58,1.421,1.68,1.811-4.943.5-8.464-.118-10.591s-1.567-4.139-2.324-6.22" transform="translate(-201.719 -728.55)" fill="#ffd0a6"/>
            <path id="Trazado_732216" data-name="Trazado 732216" d="M349.325,822.457a.793.793,0,0,0-.974.438c-.165.6.726,1.656.851,2.277a30.673,30.673,0,0,1,.2,8.226c-.117,1.553-.288,3.1-.462,4.647a1.511,1.511,0,0,0,.817.043c.527-4.749,1.054-9.563.338-14.287-.076-.5-.214-1.17-.773-1.345" transform="translate(-316.349 -746.915)" fill="#ffb380"/>
            <path id="Trazado_732217" data-name="Trazado 732217" d="M368.364,945.942a4.583,4.583,0,0,0-.01-1.529c-.005.51,0,1.019.01,1.529" transform="translate(-334.532 -857.704)" fill="#ffb380"/>
            <path id="Trazado_732218" data-name="Trazado 732218" d="M355.663,978.989a49.373,49.373,0,0,1-3.774-17.922c-.117.948-.376,1.972-.429,2.741-.094,1.357-.249,2.723-.284,4.09a33.1,33.1,0,0,0,.978,8.885c.863,3.441,2.285,6.769,2.6,10.3s-.771,7.509-3.8,9.354c1.47.4,3.711.548,4.2,4.694.177,1.513-3.97,14.432-4.936,16.513.339.116,3.222-6.812,3.561-6.7,2.09-4.969,3.629-8.774,4.535-14.087a28.775,28.775,0,0,0-2.644-17.875" transform="translate(-318.057 -872.829)" fill="#ffb380"/>
            <path id="Trazado_732219" data-name="Trazado 732219" d="M311.615,982.065a9.14,9.14,0,0,1-4.121.9l3.618.02a3.54,3.54,0,0,1,1.166.137,1.2,1.2,0,0,1,.8.8,5.948,5.948,0,0,0,0-2.25c-.293-.662-1.022.169-1.46.391" transform="translate(-279.262 -891.316)" fill="#ffb380"/>
            <path id="Trazado_732220" data-name="Trazado 732220" d="M311.847,788.369a8.065,8.065,0,0,0-1.873,2.95,7.789,7.789,0,0,0-.7,2.767,3.409,3.409,0,0,0,.989,2.6,2.214,2.214,0,0,0,2.646.3,3.367,3.367,0,0,0,1.15-2.132,19.376,19.376,0,0,0,.488-4.307,3.405,3.405,0,0,0-.392-1.868,1.57,1.57,0,0,0-2.3-.31" transform="translate(-280.874 -715.651)" fill="#f75b37"/>
            <g id="Grupo_987000" data-name="Grupo 987000" transform="translate(29.178 73.089)" opacity="0.46">
              <g id="Grupo_986999" data-name="Grupo 986999">
                <g id="Grupo_986998" data-name="Grupo 986998" clip-path="url(#clip-path-8)">
                  <path id="Trazado_732221" data-name="Trazado 732221" d="M319.414,796.773a7.021,7.021,0,0,0-1.514,5.655,7.634,7.634,0,0,1,.449-1.983,4.956,4.956,0,0,1,1.72-2.685,7.837,7.837,0,0,0,.681-.433.912.912,0,0,0,.377-.683c-.016-1.179-1.407-.235-1.713.13" transform="translate(-317.798 -796.069)" fill="#fff"/>
                </g>
              </g>
            </g>
            <path id="Trazado_732222" data-name="Trazado 732222" d="M427.893,1197.85a.806.806,0,0,0-.231-.216c0-.236-1.473-.94-1.7-1.062-.429-.234-.977-.578-1.142.02a7.29,7.29,0,0,0,.483,2.277l.457,2.157a8.3,8.3,0,0,1,.266,2.265,15.85,15.85,0,0,1,4.381,1.969c-1.027-2.329-2.176-4.478-2.423-7.038a.842.842,0,0,0-.094-.371" transform="translate(-385.795 -1086.427)" fill="#db8346"/>
            <rect id="Rectángulo_344908" data-name="Rectángulo 344908" width="32.033" height="6.921" transform="matrix(0.859, -0.512, 0.512, 0.859, 9.119, 20.05)" fill="#dadeea"/>
            <rect id="Rectángulo_344909" data-name="Rectángulo 344909" width="32.033" height="1.594" transform="translate(11.849 24.624) rotate(-30.828)" fill="#d0d3dd"/>
            <g id="Grupo_987003" data-name="Grupo 987003" transform="translate(10.177 5.216)" opacity="0.34">
              <g id="Grupo_987002" data-name="Grupo 987002">
                <g id="Grupo_987001" data-name="Grupo 987001" clip-path="url(#clip-path-9)">
                  <path id="Trazado_732223" data-name="Trazado 732223" d="M136.255,56.837a3.138,3.138,0,0,0-1.177.51c-.859.535-1.677,1.134-2.5,1.722q-4.6,3.282-9.456,6.179t-9.9,5.454c-.584.3-1.986.678-2.3,1.3-.3.591.347,1.323.933,1.358a2.764,2.764,0,0,0,1.718-.753,133.48,133.48,0,0,1,17.179-10.958,27.424,27.424,0,0,1,4.717-2.118,4.3,4.3,0,0,0,1.587-.708,1.244,1.244,0,0,0,.348-1.56,1.187,1.187,0,0,0-1.15-.424" transform="translate(-110.848 -56.823)" fill="#fff"/>
                </g>
              </g>
            </g>
            <rect id="Rectángulo_344911" data-name="Rectángulo 344911" width="25.4" height="13.652" transform="matrix(0.859, -0.513, 0.513, 0.859, 10.349, 15.73)" fill="#f76159"/>
            <path id="Trazado_732224" data-name="Trazado 732224" d="M178.154,69.586A31.7,31.7,0,0,1,166.3,77.657l2.078,3.481,21.81-13.017-5.377-9.008c-1.114,3.98-3.736,7.486-6.654,10.474" transform="translate(-151.028 -53.685)" fill="#f7554d"/>
            <rect id="Rectángulo_344912" data-name="Rectángulo 344912" width="25.4" height="1.636" transform="translate(16.508 26.048) rotate(-30.831)" fill="#e84a46"/>
            <path id="Trazado_732225" data-name="Trazado 732225" d="M131.767,175.964q-1.2-1.183-2.507-2.253c-1.477-1.211-3.125-2.648-5.03-3.083-.033-.007-.048.046-.016.057a15.96,15.96,0,0,1,5.086,3.383q1.218,1.047,2.342,2.2a10.44,10.44,0,0,0,1.868,1.916c.07.04.144-.049.118-.115a7.474,7.474,0,0,0-1.859-2.1" transform="translate(-112.793 -154.962)" fill="#ff7f6e"/>
            <path id="Trazado_732226" data-name="Trazado 732226" d="M148.723,167.9a29.758,29.758,0,0,0-5.327-3.109c-.021-.01-.034.022-.014.033a36.9,36.9,0,0,1,5.319,3.3q1.187.886,2.29,1.878c.763.687,1.439,1.469,2.2,2.148.072.063.174-.042.118-.116a22.417,22.417,0,0,0-4.591-4.131" transform="translate(-130.208 -149.658)" fill="#ff7f6e"/>
            <path id="Trazado_732227" data-name="Trazado 732227" d="M164.31,160.353A28.09,28.09,0,0,0,158.651,157c-.035-.016-.057.037-.024.055a37.129,37.129,0,0,1,5.635,3.552,51.807,51.807,0,0,1,4.7,4.408c.073.073.184-.046.126-.124a23.8,23.8,0,0,0-4.775-4.536" transform="translate(-144.048 -142.583)" fill="#ff7f6e"/>
            <path id="Trazado_732228" data-name="Trazado 732228" d="M240.888,118.635a17.523,17.523,0,0,0-4.978-3.067c-.012,0-.024.013-.012.02a42.143,42.143,0,0,1,4.751,3.164,34.022,34.022,0,0,1,4.115,4.261.066.066,0,0,0,.1-.079,19.061,19.061,0,0,0-3.98-4.3" transform="translate(-214.235 -104.957)" fill="#ff7f6e"/>
            <path id="Trazado_732229" data-name="Trazado 732229" d="M252.534,111.222a29.76,29.76,0,0,0-4.841-3.046c-.036-.018-.071.039-.036.061,1.618,1,3.2,2.036,4.716,3.191s2.848,2.506,4.293,3.748c.066.057.164-.04.109-.108a24.842,24.842,0,0,0-4.241-3.846" transform="translate(-224.906 -98.241)" fill="#ff7f6e"/>
            <path id="Trazado_732230" data-name="Trazado 732230" d="M273.233,96.838a24.49,24.49,0,0,0-5.4-3.1.03.03,0,0,0-.023.055,37.416,37.416,0,0,1,5.35,3.333,49.407,49.407,0,0,1,4.467,4.134c.079.077.2-.048.134-.133a21.893,21.893,0,0,0-4.529-4.285" transform="translate(-243.207 -85.126)" fill="#ff7f6e"/>
            <path id="Trazado_732231" data-name="Trazado 732231" d="M164.838,198.077c-.014-.088-.161-.1-.165,0a15.765,15.765,0,0,0,1.38,6.3.012.012,0,0,0,.022-.009,26.615,26.615,0,0,1-.84-3.226c-.2-1.017-.24-2.046-.4-3.066" transform="translate(-149.549 -179.826)" fill="#ff7f6e"/>
            <path id="Trazado_732232" data-name="Trazado 732232" d="M178.075,213.365c-.228-1.069-.348-2.155-.56-3.225a.1.1,0,0,0-.189.021,22.462,22.462,0,0,0,.659,3.607,9.7,9.7,0,0,0,1.074,3.016c.014.022.054,0,.041-.023a12.208,12.208,0,0,1-1.025-3.4" transform="translate(-161.045 -190.773)" fill="#ff7f6e"/>
            <path id="Trazado_732233" data-name="Trazado 732233" d="M195.406,234.384c-.132-.675-.106-1.36-.216-2.033a.072.072,0,0,0-.141,0,7.361,7.361,0,0,0,.987,4.23c.01.02.042.008.033-.013a11.688,11.688,0,0,1-.664-2.181" transform="translate(-177.097 -210.963)" fill="#ff7f6e"/>
            <path id="Trazado_732234" data-name="Trazado 732234" d="M184.247,141.162a8.6,8.6,0,0,0-.4,2.644c0,.03.043.038.047.007.125-.879.339-1.739.487-2.612.013-.078-.109-.116-.136-.039" transform="translate(-166.969 -128.163)" fill="#ff7f6e"/>
            <path id="Trazado_732235" data-name="Trazado 732235" d="M197.461,135.83a10.051,10.051,0,0,0-.635,3.891c0,.047.08.049.083,0a20.028,20.028,0,0,1,.688-3.853c.019-.08-.106-.112-.136-.039" transform="translate(-178.755 -123.322)" fill="#ff7f6e"/>
            <path id="Trazado_732236" data-name="Trazado 732236" d="M213.008,127.875a11.593,11.593,0,0,0-1.034,5.359c0,.04.069.041.071,0a21.548,21.548,0,0,1,1.083-5.309.065.065,0,0,0-.12-.051" transform="translate(-192.509 -116.1)" fill="#ff7f6e"/>
            <path id="Trazado_732237" data-name="Trazado 732237" d="M245.923,141.28a13.382,13.382,0,0,0-1.283,6.218c0,.027.047.028.047,0a17.193,17.193,0,0,1,1.367-6.163.071.071,0,0,0-.131-.056" transform="translate(-222.175 -128.272)" fill="#ff7f6e"/>
            <path id="Trazado_732238" data-name="Trazado 732238" d="M258.2,150.755a14.863,14.863,0,0,0-2.084,6.656.054.054,0,0,0,.106.016,22.406,22.406,0,0,1,.824-3.48c.351-1.076.849-2.074,1.286-3.114.033-.078-.083-.153-.132-.078" transform="translate(-232.604 -136.885)" fill="#ff7f6e"/>
            <path id="Trazado_732239" data-name="Trazado 732239" d="M274.155,155.194a19.468,19.468,0,0,0-2.311,7.618.042.042,0,0,0,.082.012,21.671,21.671,0,0,1,2.491-7.518c.089-.16-.176-.274-.262-.112" transform="translate(-246.885 -140.875)" fill="#ff7f6e"/>
            <path id="Trazado_732240" data-name="Trazado 732240" d="M305.525,65.174a14.636,14.636,0,0,0-1.4,4.021c-.006.026.037.039.045.013.423-1.359,1.034-2.631,1.532-3.959a.1.1,0,0,0-.175-.075" transform="translate(-276.199 -59.142)" fill="#ff7f6e"/>
            <path id="Trazado_732241" data-name="Trazado 732241" d="M314.893,62.839a15.461,15.461,0,0,0-1.68,5.06c0,.026.038.039.046.013.51-1.713,1.2-3.322,1.831-4.988a.107.107,0,0,0-.2-.084" transform="translate(-284.456 -57.016)" fill="#ff7f6e"/>
            <path id="Trazado_732242" data-name="Trazado 732242" d="M328.333,58.093a11.587,11.587,0,0,0-1.537,3.041,8.024,8.024,0,0,0-.731,3.091.024.024,0,0,0,.046.007,11.44,11.44,0,0,0,.462-1.55c.158-.519.332-1.037.527-1.544.394-1.025.959-1.945,1.416-2.937a.108.108,0,0,0-.183-.108" transform="translate(-296.121 -52.724)" fill="#ff7f6e"/>
            <path id="Trazado_732243" data-name="Trazado 732243" d="M334.056,104.574c-.005,0-.014,0-.008.008.693.719,1.439,1.382,2.147,2.085.816.81,1.56,1.684,2.329,2.537a.1.1,0,0,0,.161-.123,17.316,17.316,0,0,0-4.628-4.507" transform="translate(-303.376 -94.973)" fill="#ff7f6e"/>
            <path id="Trazado_732244" data-name="Trazado 732244" d="M338.779,93.292c-.025-.02-.05.016-.029.038,1.656,1.669,3.267,3.364,4.876,5.077.046.049.127-.008.085-.065a27.537,27.537,0,0,0-4.932-5.05" transform="translate(-307.641 -84.722)" fill="#ff7f6e"/>
            <path id="Trazado_732245" data-name="Trazado 732245" d="M346.223,78.188c-.01-.008-.026.006-.017.017a20.952,20.952,0,0,0,3.157,2.888c.074.057.153-.051.088-.113a31.658,31.658,0,0,0-3.228-2.791" transform="translate(-314.418 -71.008)" fill="#ff7f6e"/>
            <path id="Trazado_732246" data-name="Trazado 732246" d="M274.981,79.749c-.058-.035-.125.048-.066.084a13.306,13.306,0,0,0,1.753.98c.048.02.095-.052.048-.081-.56-.355-1.166-.641-1.735-.983" transform="translate(-249.654 -72.42)" fill="#ff7f6e"/>
            <path id="Trazado_732247" data-name="Trazado 732247" d="M286.847,72.659c-.029-.015-.059.033-.03.051.609.375,1.148.838,1.738,1.236.052.035.134-.032.084-.083a6.935,6.935,0,0,0-1.792-1.2" transform="translate(-260.473 -65.986)" fill="#ff7f6e"/>
            <path id="Trazado_732248" data-name="Trazado 732248" d="M140.27,170.168c-.018-.007-.036.02-.018.031,1.216.733,2.461,1.421,3.652,2.2,1.214.792,2.234,1.8,3.4,2.648.067.049.172-.041.109-.108a21.1,21.1,0,0,0-7.141-4.768" transform="translate(-127.369 -154.544)" fill="#ff917b"/>
            <path id="Trazado_732249" data-name="Trazado 732249" d="M162.2,167.31a18.718,18.718,0,0,0-3.359-1.853c-.006,0-.012.006-.006.01,1.087.733,2.24,1.367,3.342,2.079s2.173,1.494,3.283,2.206c.089.057.189-.066.1-.131-1.084-.817-2.223-1.573-3.362-2.31" transform="translate(-144.246 -150.266)" fill="#ff917b"/>
            <path id="Trazado_732250" data-name="Trazado 732250" d="M206.3,134.21a7.826,7.826,0,0,0-.931,3.526.018.018,0,0,0,.034,0c.333-1.166.612-2.333,1.007-3.484a.059.059,0,0,0-.109-.047" transform="translate(-186.514 -121.857)" fill="#ff917b"/>
            <path id="Trazado_732251" data-name="Trazado 732251" d="M190.4,134.047a7.948,7.948,0,0,0-.815,2.9c0,.019.028.03.034.01.281-.96.613-1.9.912-2.855a.071.071,0,0,0-.131-.056" transform="translate(-172.18 -121.703)" fill="#ff917b"/>
            <path id="Trazado_732252" data-name="Trazado 732252" d="M220.926,122.612a12.648,12.648,0,0,0-1.144,2.842,13.634,13.634,0,0,0-.654,2.988c0,.031.046.05.057.016.3-.962.523-1.944.841-2.9s.786-1.869,1.1-2.827c.039-.118-.127-.243-.2-.12" transform="translate(-199.009 -111.309)" fill="#ff917b"/>
            <path id="Trazado_732253" data-name="Trazado 732253" d="M242.309,111.959c-.012-.006-.023.012-.012.02,1.6,1.23,3.3,2.4,4.964,3.535a.054.054,0,0,0,.066-.084,22.735,22.735,0,0,0-5.017-3.471" transform="translate(-220.047 -101.679)" fill="#ff917b"/>
            <path id="Trazado_732254" data-name="Trazado 732254" d="M256.93,107.028c-.012-.006-.024.013-.012.02,1.965,1.24,3.887,2.5,5.732,3.917.031.023.065-.022.037-.047a24.5,24.5,0,0,0-5.757-3.89" transform="translate(-233.325 -97.201)" fill="#ff917b"/>
            <path id="Trazado_732255" data-name="Trazado 732255" d="M267,101.437a17.865,17.865,0,0,0-3.937-2.239c-.012,0-.023.012-.012.02,1.207.885,2.572,1.552,3.809,2.4s2.375,1.851,3.6,2.717c.057.04.146-.035.092-.091A21.523,21.523,0,0,0,267,101.437" transform="translate(-238.895 -90.09)" fill="#ff917b"/>
            <path id="Trazado_732256" data-name="Trazado 732256" d="M311.166,52.67a26.875,26.875,0,0,0-2.206,5.411c0,.008.009.013.012,0,.7-1.819,1.578-3.563,2.3-5.369a.06.06,0,0,0-.109-.047" transform="translate(-280.593 -47.805)" fill="#ff917b"/>
            <path id="Trazado_732257" data-name="Trazado 732257" d="M303.458,46.6a12.682,12.682,0,0,0-2.415,5.036c0,.006.009.01.011,0a30.324,30.324,0,0,1,2.515-4.974c.039-.067-.066-.119-.112-.066" transform="translate(-273.404 -42.299)" fill="#ff917b"/>
            <path id="Trazado_732258" data-name="Trazado 732258" d="M321.838,48.616a10.989,10.989,0,0,0-1.47,2.989,19.227,19.227,0,0,0-.9,3.2c-.009.046.059.053.071.01a26.91,26.91,0,0,1,1.093-3.225c.406-.978,1-1.89,1.378-2.872a.1.1,0,0,0-.173-.1" transform="translate(-290.137 -44.118)" fill="#ff917b"/>
            <path id="Trazado_732259" data-name="Trazado 732259" d="M128.027,180.042c-.012-.007-.023.012-.012.02,1.2.845,2.349,1.79,3.577,2.6a.054.054,0,0,0,.066-.085,16.327,16.327,0,0,0-3.63-2.534" transform="translate(-116.258 -163.511)" fill="#ff917b"/>
            <path id="Trazado_732260" data-name="Trazado 732260" d="M134.592,197.338a.024.024,0,0,0-.024.041,17.729,17.729,0,0,0,2.219,1.62c.116.065.185-.105.108-.183a8.169,8.169,0,0,0-2.3-1.478" transform="translate(-122.205 -179.219)" fill="#ff917b"/>
            <g id="Grupo_987006" data-name="Grupo 987006" transform="translate(12.148 5.126)" opacity="0.16">
              <g id="Grupo_987005" data-name="Grupo 987005">
                <g id="Grupo_987004" data-name="Grupo 987004" clip-path="url(#clip-path-10)">
                  <path id="Trazado_732261" data-name="Trazado 732261" d="M151.967,55.852a2.97,2.97,0,0,0-1.177.457c-.8.468-1.548,1.019-2.3,1.556a81.725,81.725,0,0,1-12.6,7.352c-1.137.534-3.147,1.283-3.534,2.656a1.074,1.074,0,0,0,.62,1.272c.752.352,1.494-.2,2.06-.644a36.986,36.986,0,0,1,3.171-2.273c4.56-2.871,10-4.341,14.084-7.852a3.1,3.1,0,0,0,.792-.9,1.062,1.062,0,0,0-1.112-1.621" transform="translate(-132.311 -55.844)" fill="#fff"/>
                </g>
              </g>
            </g>
          </g>
        </g>
      </g>
    </g>
  </g>
</svg>
