<svg xmlns="http://www.w3.org/2000/svg" width="148" height="144" viewBox="0 0 148 144">
  <g id="Grupo_986871" data-name="Grupo 986871" transform="translate(-1144 -6052)">
    <g id="Rectángulo_344724" data-name="Rectángulo 344724" transform="translate(1144 6052)" fill="none" stroke="#ff6e33" stroke-width="3">
      <rect width="148" height="144" rx="16" stroke="none"/>
      <rect x="1.5" y="1.5" width="145" height="141" rx="14.5" fill="none"/>
    </g>
    <g id="ropa" transform="translate(1146 6065)">
      <path id="Trazado_731095" data-name="Trazado 731095" d="M204.882,220.891h-78.9a2.486,2.486,0,0,1-2.486-2.486V144.147a2.709,2.709,0,0,1,2.046-2.626l20.262-5.107a14.186,14.186,0,0,1,3.467-.43h32.317a14.186,14.186,0,0,1,3.467.43l20.262,5.107a2.709,2.709,0,0,1,2.046,2.626v74.259A2.486,2.486,0,0,1,204.882,220.891Z" transform="translate(-81.962 -104.652)" fill="#fedba6"/>
      <path id="Trazado_731096" data-name="Trazado 731096" d="M262.779,141.521l-20.262-5.107a14.187,14.187,0,0,0-3.467-.43H206.733a14.187,14.187,0,0,0-3.467.43L198.16,137.7a14.17,14.17,0,0,1,1.658-.1h32.317a14.186,14.186,0,0,1,3.467.43l20.262,5.107a2.709,2.709,0,0,1,2.046,2.626v74.259a2.477,2.477,0,0,1-.159.867h4.588a2.486,2.486,0,0,0,2.486-2.486V144.148A2.709,2.709,0,0,0,262.779,141.521Z" transform="translate(-139.42 -104.652)" fill="#fece85"/>
      <rect id="Rectángulo_344815" data-name="Rectángulo 344815" width="11.059" height="9.523" transform="translate(114.346 87.017)" fill="#f9f3f1"/>
      <rect id="Rectángulo_344816" data-name="Rectángulo 344816" width="6.912" height="9.523" transform="translate(118.494 87.016)" fill="#f3eae6"/>
      <rect id="Rectángulo_344817" data-name="Rectángulo 344817" width="11.059" height="9.523" transform="translate(114.346 62.994)" fill="#f9f3f1"/>
      <rect id="Rectángulo_344818" data-name="Rectángulo 344818" width="6.912" height="9.523" transform="translate(118.494 62.994)" fill="#f3eae6"/>
      <path id="Trazado_731097" data-name="Trazado 731097" d="M156.882,172.258h-78.9a2.486,2.486,0,0,1-2.486-2.486V95.514a2.709,2.709,0,0,1,2.046-2.626L97.808,87.78a14.186,14.186,0,0,1,3.467-.43h32.317a14.186,14.186,0,0,1,3.467.43l20.262,5.107a2.708,2.708,0,0,1,2.046,2.626v74.259A2.486,2.486,0,0,1,156.882,172.258Z" transform="translate(-45.021 -67.224)" fill="#fe93bb"/>
      <path id="Trazado_731098" data-name="Trazado 731098" d="M214.779,92.888l-20.262-5.107a14.187,14.187,0,0,0-3.467-.43H158.733a14.186,14.186,0,0,0-3.467.43l-5.106,1.287a14.17,14.17,0,0,1,1.658-.1h32.317a14.186,14.186,0,0,1,3.467.43l20.262,5.107a2.709,2.709,0,0,1,2.046,2.626v74.259a2.477,2.477,0,0,1-.159.867h4.588a2.486,2.486,0,0,0,2.486-2.486V95.515A2.709,2.709,0,0,0,214.779,92.888Z" transform="translate(-102.479 -67.225)" fill="#fe76a8"/>
      <path id="Trazado_731099" data-name="Trazado 731099" d="M105.882,126.424h-78.9a2.486,2.486,0,0,1-2.486-2.486V49.68a2.709,2.709,0,0,1,2.046-2.626l20.262-5.107a14.186,14.186,0,0,1,3.467-.43H82.593a14.186,14.186,0,0,1,3.467.43l20.262,5.107a2.708,2.708,0,0,1,2.046,2.626v74.259A2.486,2.486,0,0,1,105.882,126.424Z" transform="translate(-5.772 -31.95)" fill="#d9b1ee"/>
      <path id="Trazado_731100" data-name="Trazado 731100" d="M163.779,47.053l-20.262-5.107a14.186,14.186,0,0,0-3.467-.43H107.733a14.186,14.186,0,0,0-3.467.43L99.16,43.233a14.173,14.173,0,0,1,1.658-.1h32.317a14.186,14.186,0,0,1,3.467.43l20.262,5.107A2.709,2.709,0,0,1,158.91,51.3v74.259a2.477,2.477,0,0,1-.159.867h4.588a2.486,2.486,0,0,0,2.486-2.486V49.68A2.709,2.709,0,0,0,163.779,47.053Z" transform="translate(-63.23 -31.95)" fill="#cb97e7"/>
      <path id="Trazado_731101" data-name="Trazado 731101" d="M197.467,72.464h-5.032a.942.942,0,0,1-.942-.942V49.451h6.915V71.523A.942.942,0,0,1,197.467,72.464Z" transform="translate(-134.289 -38.057)" fill="#f3eae6"/>
      <g id="Grupo_986868" data-name="Grupo 986868" transform="translate(36.693 1.728)">
        <path id="Trazado_731102" data-name="Trazado 731102" d="M126.44,17.288,109.385,7.681a1.4,1.4,0,0,0-1.88.48l-4.833,7.854a1.359,1.359,0,0,0,.557,1.931l14.84,7.3a2.228,2.228,0,0,0,2.748-.636Z" transform="translate(-102.471 -7.5)" fill="#f9f3f1"/>
        <path id="Trazado_731103" data-name="Trazado 731103" d="M206.5,17.288l17.054-9.607a1.4,1.4,0,0,1,1.88.48l4.833,7.854a1.359,1.359,0,0,1-.557,1.931l-14.84,7.3a2.228,2.228,0,0,1-2.748-.636Z" transform="translate(-182.531 -7.5)" fill="#f9f3f1"/>
        <path id="Trazado_731104" data-name="Trazado 731104" d="M246.409,16.016l-4.833-7.854a1.4,1.4,0,0,0-1.88-.48l-3.959,2.23,3.756,6.1a1.359,1.359,0,0,1-.557,1.931l-11.461,5.641.788,1.027a2.229,2.229,0,0,0,2.748.636l14.84-7.3A1.359,1.359,0,0,0,246.409,16.016Z" transform="translate(-198.673 -7.5)" fill="#f3eae6"/>
      </g>
      <path id="Trazado_731105" data-name="Trazado 731105" d="M265.52,203.472H254.256a5.479,5.479,0,0,1-5.479-5.479V179.21a1.543,1.543,0,0,1,1.543-1.543h19.136A1.543,1.543,0,0,1,271,179.21v18.784A5.478,5.478,0,0,1,265.52,203.472Z" transform="translate(-178.374 -136.731)" fill="#f9f3f1"/>
      <path id="Trazado_731106" data-name="Trazado 731106" d="M302.292,177.666H295.38a1.543,1.543,0,0,1,1.543,1.543v18.784a5.479,5.479,0,0,1-5.479,5.479h6.912a5.479,5.479,0,0,0,5.479-5.479V179.209A1.543,1.543,0,0,0,302.292,177.666Z" transform="translate(-211.211 -136.731)" fill="#f3eae6"/>
      <rect id="Rectángulo_344819" data-name="Rectángulo 344819" width="22.221" height="6.682" transform="translate(70.403 48.385)" fill="#fedba6"/>
      <rect id="Rectángulo_344820" data-name="Rectángulo 344820" width="6.912" height="6.682" transform="translate(85.712 48.385)" fill="#fece85"/>
      <g id="Grupo_986870" data-name="Grupo 986870" transform="translate(17 0)">
        <path id="Trazado_731107" data-name="Trazado 731107" d="M186.26,464.206H120.214A4.219,4.219,0,0,1,116,459.992v-8.367a1.728,1.728,0,0,1,3.456,0v8.367a.759.759,0,0,0,.758.758H186.26a1.728,1.728,0,1,1,0,3.456Z" transform="translate(-93.19 -346.238)"/>
        <path id="Trazado_731108" data-name="Trazado 731108" d="M443.28,228h-4.62a1.728,1.728,0,1,1,0-3.456h4.62a.759.759,0,0,0,.758-.758V149.528a.979.979,0,0,0-.741-.951l-8.72-2.2a1.728,1.728,0,0,1,.845-3.351l8.719,2.2a4.432,4.432,0,0,1,3.352,4.3v74.259A4.219,4.219,0,0,1,443.28,228Z" transform="translate(-337.361 -110.033)"/>
        <path id="Trazado_731109" data-name="Trazado 731109" d="M151.11,178.8h-78.9A4.219,4.219,0,0,1,68,174.586v-7.771a1.728,1.728,0,0,1,3.456,0v7.771a.759.759,0,0,0,.758.758h78.9a.759.759,0,0,0,.758-.758V100.328a.979.979,0,0,0-.741-.951l-9.393-2.368a1.728,1.728,0,1,1,.845-3.351l9.393,2.368a4.431,4.431,0,0,1,3.352,4.3v74.259A4.219,4.219,0,0,1,151.11,178.8Z" transform="translate(-56.249 -72.038)"/>
        <path id="Trazado_731110" data-name="Trazado 731110" d="M18.728,59.893A1.728,1.728,0,0,1,17,58.165V49.21a4.432,4.432,0,0,1,3.352-4.3l15.669-3.95a1.728,1.728,0,0,1,.845,3.351L21.2,48.259a.98.98,0,0,0-.741.951v8.955A1.728,1.728,0,0,1,18.728,59.893Z" transform="translate(-17 -31.48)"/>
        <path id="Trazado_731111" data-name="Trazado 731111" d="M100.11,127.783h-78.9A4.219,4.219,0,0,1,17,123.569V66.252a1.728,1.728,0,1,1,3.456,0v57.317a.759.759,0,0,0,.758.758h78.9a.759.759,0,0,0,.758-.758V49.31a.979.979,0,0,0-.741-.951L84.577,44.44a1.728,1.728,0,0,1,.845-3.351l15.549,3.919a4.431,4.431,0,0,1,3.352,4.3v74.259A4.219,4.219,0,0,1,100.11,127.783Z" transform="translate(-17 -31.581)"/>
        <g id="Grupo_986869" data-name="Grupo 986869" transform="translate(17.966 0)">
          <path id="Trazado_731112" data-name="Trazado 731112" d="M113.286,21.436h0a3.981,3.981,0,0,1-1.748-.407l-14.84-7.3a3.087,3.087,0,0,1-1.266-4.388l4.833-7.854A3.1,3.1,0,0,1,102.928,0a3.137,3.137,0,0,1,1.537.4l17.054,9.607a1.728,1.728,0,0,1,.523,2.557l-5.621,7.327A3.972,3.972,0,0,1,113.286,21.436ZM98.588,10.8l14.476,7.125.222.052a.488.488,0,0,0,.392-.189l4.409-5.747L103.04,3.568Z" transform="translate(-94.974 0)"/>
          <path id="Trazado_731113" data-name="Trazado 731113" d="M208.112,21.436a3.972,3.972,0,0,1-3.134-1.542l-5.621-7.327a1.728,1.728,0,0,1,.523-2.557L216.934.4a3.137,3.137,0,0,1,1.537-.4,3.1,3.1,0,0,1,2.663,1.483l4.833,7.854a3.087,3.087,0,0,1-1.266,4.388l-14.84,7.3A3.981,3.981,0,0,1,208.112,21.436Zm-4.8-9.4,4.412,5.751a.505.505,0,0,0,.614.137L222.811,10.8l-4.475-7.271Z" transform="translate(-175.032 0)"/>
        </g>
        <path id="Trazado_731114" data-name="Trazado 731114" d="M191.695,84.427h-5.032a2.673,2.673,0,0,1-2.67-2.67V64.478a1.728,1.728,0,1,1,3.456,0V80.971h3.459V64.536a1.728,1.728,0,0,1,3.456,0V81.758A2.673,2.673,0,0,1,191.695,84.427Z" transform="translate(-145.517 -48.292)"/>
        <path id="Trazado_731115" data-name="Trazado 731115" d="M259.748,199.428H248.484a7.215,7.215,0,0,1-7.207-7.207V173.438a3.274,3.274,0,0,1,3.271-3.271h19.136a3.274,3.274,0,0,1,3.271,3.271v18.784a7.206,7.206,0,0,1-7.206,7.207Zm-15.015-25.805v18.6a3.755,3.755,0,0,0,3.751,3.751h11.264a3.75,3.75,0,0,0,3.75-3.75v-18.6Z" transform="translate(-189.602 -130.96)"/>
        <path id="Rectángulo_344821" data-name="Rectángulo 344821" d="M-5.772-7.5H16.449a1.728,1.728,0,0,1,1.728,1.728V.91a1.728,1.728,0,0,1-1.728,1.728H-5.772A1.728,1.728,0,0,1-7.5.91V-5.772A1.728,1.728,0,0,1-5.772-7.5ZM14.721-4.044H-4.044V-.818H14.721Z" transform="translate(59.175 54.157)"/>
        <path id="Línea_203" data-name="Línea 203" d="M3.88-4.018h0l-9.651-.026A1.728,1.728,0,0,1-7.5-5.777,1.728,1.728,0,0,1-5.767-7.5l9.651.026A1.728,1.728,0,0,1,5.608-5.742,1.728,1.728,0,0,1,3.88-4.018Z" transform="translate(103.745 92.788)"/>
        <path id="Línea_204" data-name="Línea 204" d="M3.88-4.018h0l-9.651-.026A1.728,1.728,0,0,1-7.5-5.777,1.728,1.728,0,0,1-5.767-7.5l9.651.026A1.728,1.728,0,0,1,5.608-5.742,1.728,1.728,0,0,1,3.88-4.018Z" transform="translate(103.745 78.277)"/>
        <path id="Línea_205" data-name="Línea 205" d="M3.88-4.018h0l-9.651-.026A1.728,1.728,0,0,1-7.5-5.777,1.728,1.728,0,0,1-5.767-7.5l9.651.026A1.728,1.728,0,0,1,5.608-5.742,1.728,1.728,0,0,1,3.88-4.018Z" transform="translate(103.745 68.753)"/>
        <path id="Línea_206" data-name="Línea 206" d="M3.88-4.018h0l-9.651-.026A1.728,1.728,0,0,1-7.5-5.777,1.728,1.728,0,0,1-5.767-7.5l9.651.026A1.728,1.728,0,0,1,5.608-5.742,1.728,1.728,0,0,1,3.88-4.018Z" transform="translate(103.745 102.299)"/>
      </g>
    </g>
  </g>
</svg>
