<svg xmlns="http://www.w3.org/2000/svg" width="148" height="144" viewBox="0 0 148 144">
  <g id="Grupo_986875" data-name="Grupo 986875" transform="translate(8497 5648)">
    <g id="Rectángulo_344725" data-name="Rectángulo 344725" transform="translate(-8497 -5648)" fill="none" stroke="#ff6e33" stroke-width="3">
      <rect width="148" height="144" rx="16" stroke="none"/>
      <rect x="1.5" y="1.5" width="145" height="141" rx="14.5" fill="none"/>
    </g>
    <g id="ph-meter_2_" data-name="ph-meter (2)" transform="translate(-8578.88 -5639)">
      <rect id="Rectángulo_344821" data-name="Rectángulo 344821" width="14.761" height="24.251" transform="translate(148.053 98.98)" fill="#439ee8"/>
      <rect id="Rectángulo_344822" data-name="Rectángulo 344822" width="5.799" height="24.251" transform="translate(148.053 98.98)" fill="#5293c4"/>
      <g id="Grupo_986872" data-name="Grupo 986872" transform="translate(124.857 1.977)">
        <path id="Trazado_731107" data-name="Trazado 731107" d="M130.964,8.084V63.966l18.979,15.816v30.577h23.2V79.782l18.979-15.816V8.084Z" transform="translate(-130.964 -8.084)" fill="#5cc4e0"/>
        <path id="Trazado_731108" data-name="Trazado 731108" d="M130.964,8.084V63.966l18.979,15.816v30.577h23.2V79.782l18.979-15.816V8.084Z" transform="translate(-130.964 -8.084)" fill="#5cc4e0"/>
      </g>
      <path id="Trazado_731109" data-name="Trazado 731109" d="M138.345,63.966V8.084h-7.381V63.966l18.979,15.816v30.577h7.381V79.782Z" transform="translate(-6.107 -6.107)" fill="#439ee8"/>
      <rect id="Rectángulo_344823" data-name="Rectángulo 344823" width="44.284" height="36.903" transform="translate(133.292 11.466)" fill="#e0dddf"/>
      <rect id="Rectángulo_344824" data-name="Rectángulo 344824" width="40.066" height="32.686" transform="translate(133.292 15.684)" fill="#fff"/>
      <g id="Grupo_986873" data-name="Grupo 986873" transform="translate(140.673 54.696)">
        <circle id="Elipse_5988" data-name="Elipse 5988" cx="4.745" cy="4.745" r="4.745" transform="translate(20.033)" fill="#faec8e"/>
        <circle id="Elipse_5989" data-name="Elipse 5989" cx="4.745" cy="4.745" r="4.745" transform="translate(0)" fill="#faec8e"/>
      </g>
      <g id="Grupo_986874" data-name="Grupo 986874" transform="translate(138.696 17.924)">
        <path id="Trazado_731110" data-name="Trazado 731110" d="M271.168,73.3a1.977,1.977,0,0,0-1.977,1.977v7.512h-8.7V75.274a1.977,1.977,0,0,0-3.954,0V95.307a1.977,1.977,0,0,0,3.954,0V86.74h8.7v8.567a1.977,1.977,0,1,0,3.954,0V75.274A1.977,1.977,0,0,0,271.168,73.3Z" transform="translate(-239.669 -73.297)" fill="#ff675c"/>
        <path id="Trazado_731111" data-name="Trazado 731111" d="M200.075,73.3H189.531a1.977,1.977,0,0,0-1.977,1.977V95.307a1.977,1.977,0,0,0,3.954,0V86.74h8.567a1.977,1.977,0,0,0,1.977-1.977V75.274A1.977,1.977,0,0,0,200.075,73.3ZM198.1,82.786h-6.59V77.251h6.59Z" transform="translate(-187.554 -73.297)" fill="#ff675c"/>
      </g>
      <path id="Trazado_731112" data-name="Trazado 731112" d="M186.011,0H124.857a1.977,1.977,0,0,0-1.977,1.977v13.18a1.977,1.977,0,1,0,3.954,0V3.954h57.2V56.933L166.316,71.7H144.552L126.834,56.933V24.119a1.977,1.977,0,1,0-3.954,0v33.74a1.977,1.977,0,0,0,.711,1.519L141.859,74.6v29.651a1.977,1.977,0,0,0,1.977,1.977h2.241v17a1.977,1.977,0,0,0,1.977,1.977h14.761a1.977,1.977,0,0,0,1.977-1.977v-17h2.241a1.977,1.977,0,0,0,1.977-1.977V74.6l18.268-15.223a1.977,1.977,0,0,0,.711-1.519V1.977A1.976,1.976,0,0,0,186.011,0ZM160.838,121.254H150.03V106.229h10.807Zm-15.025-18.979V75.652h19.242v26.623Z"/>
      <path id="Trazado_731113" data-name="Trazado 731113" d="M205.611,77.684v-36.9a1.977,1.977,0,0,0-1.977-1.977H159.35a1.977,1.977,0,0,0-1.977,1.977v36.9a1.977,1.977,0,0,0,1.977,1.977h44.284A1.976,1.976,0,0,0,205.611,77.684Zm-3.954-1.977h-40.33V42.758h40.33V75.707Z" transform="translate(-26.058 -29.315)"/>
      <path id="Trazado_731114" data-name="Trazado 731114" d="M187.554,222.3a6.722,6.722,0,1,0,6.722-6.722A6.729,6.729,0,0,0,187.554,222.3Zm9.489,0a2.768,2.768,0,1,1-2.768-2.768A2.771,2.771,0,0,1,197.043,222.3Z" transform="translate(-48.858 -162.86)"/>
      <path id="Trazado_731115" data-name="Trazado 731115" d="M269.474,222.3a6.722,6.722,0,1,0,6.722-6.722A6.729,6.729,0,0,0,269.474,222.3Zm9.489,0a2.768,2.768,0,1,1-2.768-2.768A2.771,2.771,0,0,1,278.963,222.3Z" transform="translate(-110.745 -162.86)"/>
    </g>
  </g>
</svg>
