<svg xmlns="http://www.w3.org/2000/svg" width="118.494" height="112.823" viewBox="0 0 118.494 112.823">
  <g id="Grupo_987071" data-name="Grupo 987071" transform="translate(13035 9800.5)">
    <rect id="Rectángulo_344585" data-name="Rectángulo 344585" width="118.494" height="112.823" rx="10" transform="translate(-13035 -9800.5)" fill="#ea526f"/>
    <g id="Grupo_986747" data-name="Grupo 986747" transform="translate(-2114.188 382.145)">
      <g id="Grupo_986733" data-name="Grupo 986733" transform="translate(-10912.644 -10171.145)">
        <path id="Intersección_1" data-name="Intersección 1" d="M0,12.172,21.515,0,9.352,21.5A24.362,24.362,0,0,1,0,12.172Z" transform="translate(9.245 34.378) rotate(-14)" fill="#fff"/>
        <path id="Intersección_4" data-name="Intersección 4" d="M0,12.172,21.515,0,9.352,21.5A24.362,24.362,0,0,1,0,12.172Z" transform="translate(24.479 49.994) rotate(-76)" fill="#fff"/>
        <path id="Intersección_2" data-name="Intersección 2" d="M0,12.172,21.515,0,9.352,21.5A24.362,24.362,0,0,1,0,12.172Z" transform="translate(14.75 44.357) rotate(-45)" fill="#fff"/>
        <path id="Intersección_3" data-name="Intersección 3" d="M0,12.172,21.515,0,9.352,21.5A24.362,24.362,0,0,1,0,12.172Z" transform="translate(35.874 49.819) rotate(-107)" fill="red"/>
        <path id="Intersección_1-2" data-name="Intersección 1" d="M0,12.719,20.631,0,7.828,20.913A24.068,24.068,0,0,1,0,12.719Z" transform="translate(45.097 43.886) rotate(-137)" fill="#fff"/>
        <path id="Intersección_4-2" data-name="Intersección 4" d="M0,10.3,22.091,0,8.034,19.932A23.911,23.911,0,0,1,0,10.3Z" transform="translate(51.08 23.013) rotate(161)" fill="#fff"/>
        <path id="Intersección_2-2" data-name="Intersección 2" d="M0,11.113,21.462,0,7.681,20.27A24.1,24.1,0,0,1,0,11.113Z" transform="translate(51.06 34.423) rotate(-168)" fill="#fff"/>
        <path id="Intersección_3-2" data-name="Intersección 3" d="M6.175,19.187A23.808,23.808,0,0,1,0,11.034L22.446,0,8.741,21.1A24.734,24.734,0,0,1,6.175,19.187Z" transform="translate(45.547 14.393) rotate(133)" fill="blue"/>
        <path id="Intersección_1-3" data-name="Intersección 1" d="M0,9.326,21.515,21.5,9.352,0A24.362,24.362,0,0,0,0,9.326Z" transform="translate(3.229 43.397) rotate(-72)" fill="#ffd800"/>
        <path id="Intersección_4-3" data-name="Intersección 4" d="M0,9.326,21.515,21.5,9.352,0A24.362,24.362,0,0,0,0,9.326Z" transform="translate(5.427 12.583) rotate(-10)" fill="#fff"/>
        <path id="Intersección_5" data-name="Intersección 5" d="M0,6.6A23.74,23.74,0,0,1,8.752,0l9.8,22.088Z" transform="matrix(0.985, 0.174, -0.174, 0.985, 15.604, 4.684)" fill="#fff"/>
        <path id="Intersección_2-3" data-name="Intersección 2" d="M0,9.326,21.515,21.5,9.352,0A24.362,24.362,0,0,0,0,9.326Z" transform="matrix(0.755, -0.656, 0.656, 0.755, 0, 27.628)" fill="#fff"/>
        <path id="Unión_3" data-name="Unión 3" d="M12.3,45.163l.016-.028a24.363,24.363,0,0,1-9.21-9.243l-.113.061A24.359,24.359,0,0,1,.032,23.24H0A24.36,24.36,0,0,1,4.1,10.683l.067.045A24.365,24.365,0,0,1,14,2.3l.025.053A23.735,23.735,0,0,1,24.452,0V.168a24.748,24.748,0,0,1,3.081.21,23.808,23.808,0,0,1,9.62,3.475l-.029.048a23.909,23.909,0,0,1,8.337,8.5l.187-.107a24.1,24.1,0,0,1,2.89,11.379l.328-.009a24.069,24.069,0,0,1-2.608,11.027l-.945-.447.873.435A24.363,24.363,0,0,1,37.361,44.5l-.018-.028A24.361,24.361,0,0,1,25.117,48.26l0,.081c-.257.008-.516.012-.773.012A24.366,24.366,0,0,1,12.3,45.163Zm.948-.269A23.677,23.677,0,0,0,24.408,47.66l-.563-21.5Zm12.28,2.654a23.68,23.68,0,0,0,10.991-3.378L24.965,26.035ZM4.055,36.145A23.674,23.674,0,0,0,12.2,44.264L22.785,25.548Zm33.514,7.394a23.675,23.675,0,0,0,7.682-8.556L26.006,25.388ZM1.3,29.566A23.659,23.659,0,0,0,3.278,35.01L22.191,24.741.707,23.8A23.656,23.656,0,0,0,1.3,29.566Zm25.968-4.638,18.664,8.841a23.571,23.571,0,0,0,1.615-4.617,23.212,23.212,0,0,0,.617-4.779Zm-.177-1.219,20.745-.5a23.4,23.4,0,0,0-2.473-9.962ZM1.84,16.893A23.648,23.648,0,0,0,.73,22.577l21.5.938L4.3,11.646A23.652,23.652,0,0,0,1.84,16.893Zm24.5,5.94L44.6,12.3a23.215,23.215,0,0,0-7.647-7.692Zm-1.315-.015L36.207,4.085a23.122,23.122,0,0,0-8.764-3.021c-.8-.1-1.607-.169-2.413-.194ZM8.867,6.456a23.652,23.652,0,0,0-3.879,4.3L22.933,22.634,13.676,3.225A23.635,23.635,0,0,0,8.867,6.456ZM19.109,1.29A23.17,23.17,0,0,0,14.7,2.8l9.027,18.392L23.758.7A22.969,22.969,0,0,0,19.109,1.29Z" transform="translate(0.497 12.118) rotate(-14)"/>
      </g>
      <circle id="Elipse_5967" data-name="Elipse 5967" cx="14.854" cy="14.854" r="14.854" transform="translate(-10897.35 -10156.528)" fill="#fff"/>
      <path id="Elipse_5967_-_Contorno" data-name="Elipse 5967 - Contorno" d="M14.906.848A14.058,14.058,0,1,0,28.964,14.906,14.074,14.074,0,0,0,14.906.848m0-.848A14.906,14.906,0,1,1,0,14.906,14.906,14.906,0,0,1,14.906,0Z" transform="translate(-10897.576 -10156.571)"/>
    </g>
    <g id="Grupo_986748" data-name="Grupo 986748" transform="translate(-2072.356 411.924)">
      <g id="Grupo_986733-2" data-name="Grupo 986733" transform="translate(-10912.644 -10171.145)">
        <path id="Intersección_1-4" data-name="Intersección 1" d="M0,12.172,21.514,0,9.352,21.5A24.362,24.362,0,0,1,0,12.172Z" transform="translate(9.245 34.378) rotate(-14)" fill="#fff"/>
        <path id="Intersección_4-4" data-name="Intersección 4" d="M0,12.172,21.514,0,9.352,21.5A24.362,24.362,0,0,1,0,12.172Z" transform="translate(24.479 49.994) rotate(-76)" fill="#f28f08"/>
        <path id="Intersección_2-4" data-name="Intersección 2" d="M0,12.172,21.514,0,9.352,21.5A24.362,24.362,0,0,1,0,12.172Z" transform="translate(14.75 44.357) rotate(-45)" fill="#fff"/>
        <path id="Intersección_3-3" data-name="Intersección 3" d="M0,12.172,21.514,0,9.352,21.5A24.362,24.362,0,0,1,0,12.172Z" transform="translate(35.874 49.819) rotate(-107)" fill="#fff"/>
        <path id="Intersección_1-5" data-name="Intersección 1" d="M0,12.719,20.631,0,7.828,20.913A24.068,24.068,0,0,1,0,12.719Z" transform="translate(45.097 43.886) rotate(-137)" fill="#fff"/>
        <path id="Intersección_4-5" data-name="Intersección 4" d="M0,10.3,22.091,0,8.034,19.932A23.911,23.911,0,0,1,0,10.3Z" transform="translate(51.08 23.013) rotate(161)" fill="#7745ff"/>
        <path id="Intersección_2-5" data-name="Intersección 2" d="M0,11.113,21.462,0,7.681,20.27A24.1,24.1,0,0,1,0,11.113Z" transform="translate(51.06 34.423) rotate(-168)" fill="#fff"/>
        <path id="Intersección_3-4" data-name="Intersección 3" d="M6.175,19.187A23.808,23.808,0,0,1,0,11.034L22.446,0,8.741,21.1A24.734,24.734,0,0,1,6.175,19.187Z" transform="translate(45.547 14.393) rotate(133)" fill="#fff"/>
        <path id="Intersección_1-6" data-name="Intersección 1" d="M0,9.326,21.514,21.5,9.352,0A24.362,24.362,0,0,0,0,9.326Z" transform="translate(3.229 43.397) rotate(-72)" fill="#fff"/>
        <path id="Intersección_4-6" data-name="Intersección 4" d="M0,9.326,21.515,21.5,9.352,0A24.362,24.362,0,0,0,0,9.326Z" transform="translate(5.427 12.583) rotate(-10)" fill="#fff"/>
        <path id="Intersección_5-2" data-name="Intersección 5" d="M0,6.6A23.74,23.74,0,0,1,8.752,0l9.8,22.088Z" transform="matrix(0.985, 0.174, -0.174, 0.985, 15.604, 4.684)" fill="#fff"/>
        <path id="Intersección_2-6" data-name="Intersección 2" d="M0,9.326,21.515,21.5,9.352,0A24.362,24.362,0,0,0,0,9.326Z" transform="matrix(0.755, -0.656, 0.656, 0.755, 0, 27.628)" fill="#4dea13"/>
        <path id="Unión_3-2" data-name="Unión 3" d="M12.3,45.163l.016-.028a24.363,24.363,0,0,1-9.21-9.243l-.113.061A24.359,24.359,0,0,1,.032,23.24H0A24.36,24.36,0,0,1,4.1,10.683l.067.045A24.365,24.365,0,0,1,14,2.3l.025.053A23.735,23.735,0,0,1,24.452,0V.168a24.748,24.748,0,0,1,3.081.21,23.808,23.808,0,0,1,9.62,3.475l-.029.048a23.909,23.909,0,0,1,8.337,8.5l.187-.107a24.1,24.1,0,0,1,2.89,11.379l.328-.009a24.069,24.069,0,0,1-2.608,11.027l-.945-.447.873.435A24.363,24.363,0,0,1,37.361,44.5l-.018-.028A24.361,24.361,0,0,1,25.117,48.26l0,.081c-.257.008-.516.012-.773.012A24.366,24.366,0,0,1,12.3,45.163Zm.948-.269A23.677,23.677,0,0,0,24.408,47.66l-.563-21.5Zm12.28,2.654a23.68,23.68,0,0,0,10.991-3.378L24.965,26.035ZM4.055,36.145A23.674,23.674,0,0,0,12.2,44.264L22.785,25.548Zm33.514,7.394a23.675,23.675,0,0,0,7.682-8.556L26.006,25.388ZM1.3,29.566A23.659,23.659,0,0,0,3.278,35.01L22.191,24.741.707,23.8A23.656,23.656,0,0,0,1.3,29.566Zm25.968-4.638,18.664,8.84a23.571,23.571,0,0,0,1.615-4.617,23.212,23.212,0,0,0,.617-4.779Zm-.177-1.219,20.745-.5a23.4,23.4,0,0,0-2.473-9.962ZM1.84,16.893A23.648,23.648,0,0,0,.73,22.577l21.5.938L4.3,11.646A23.652,23.652,0,0,0,1.84,16.893Zm24.5,5.94L44.6,12.3a23.215,23.215,0,0,0-7.647-7.692Zm-1.315-.015L36.207,4.085a23.122,23.122,0,0,0-8.764-3.021c-.8-.1-1.607-.169-2.413-.194ZM8.867,6.456a23.652,23.652,0,0,0-3.879,4.3L22.933,22.634,13.676,3.225A23.635,23.635,0,0,0,8.867,6.456ZM19.109,1.29A23.17,23.17,0,0,0,14.7,2.8l9.027,18.392L23.758.7A22.969,22.969,0,0,0,19.109,1.29Z" transform="translate(0.497 12.118) rotate(-14)"/>
      </g>
      <circle id="Elipse_5967-2" data-name="Elipse 5967" cx="14.854" cy="14.854" r="14.854" transform="translate(-10897.35 -10156.528)" fill="#fff"/>
      <path id="Elipse_5967_-_Contorno-2" data-name="Elipse 5967 - Contorno" d="M14.906.848A14.058,14.058,0,1,0,28.964,14.906,14.074,14.074,0,0,0,14.906.848m0-.848A14.906,14.906,0,1,1,0,14.906,14.906,14.906,0,0,1,14.906,0Z" transform="translate(-10897.576 -10156.571)"/>
    </g>
  </g>
</svg>
