<svg xmlns="http://www.w3.org/2000/svg" xmlns:xlink="http://www.w3.org/1999/xlink" width="148" height="144" viewBox="0 0 148 144">
  <defs>
    <clipPath id="clip-path">
      <path id="path6453" d="M0-682.665H104.251v104.251H0Z" transform="translate(0 682.665)"/>
    </clipPath>
  </defs>
  <g id="Grupo_986876" data-name="Grupo 986876" transform="translate(8497 5283)">
    <g id="Rectángulo_344727" data-name="Rectángulo 344727" transform="translate(-8497 -5283)" fill="none" stroke="#ff6e33" stroke-width="3">
      <rect width="148" height="144" rx="16" stroke="none"/>
      <rect x="1.5" y="1.5" width="145" height="141" rx="14.5" fill="none"/>
    </g>
    <g id="g6447" transform="translate(-8475 -4580.335)">
      <g id="g6449" transform="translate(0 -682.665)">
        <g id="g6451" clip-path="url(#clip-path)">
          <g id="g6457" transform="translate(2.036 71.984)">
            <path id="path6459" d="M-555.82-59.121a14.864,14.864,0,0,1-6.838-3.9,23.13,23.13,0,0,0-32.674,0,14.976,14.976,0,0,1-21.156,0,23.13,23.13,0,0,0-32.674,0,14.864,14.864,0,0,1-6.838,3.9v8.312a22.978,22.978,0,0,0,12.6-6.453,14.977,14.977,0,0,1,21.156,0,23.13,23.13,0,0,0,32.674,0,14.976,14.976,0,0,1,21.156,0,22.977,22.977,0,0,0,12.6,6.452Z" transform="translate(655.998 69.776)" fill="#b2f0bf"/>
          </g>
          <g id="g6461" transform="translate(2.036 42.508)">
            <path id="path6463" d="M-555.82-1.684a22.977,22.977,0,0,0-12.6,6.453,14.977,14.977,0,0,1-21.156,0,23.13,23.13,0,0,0-32.674,0,14.977,14.977,0,0,1-21.156,0A22.976,22.976,0,0,0-656-1.684V6.629a14.864,14.864,0,0,1,6.838,3.9,23.13,23.13,0,0,0,32.674,0,14.976,14.976,0,0,1,21.156,0,23.13,23.13,0,0,0,32.674,0,14.865,14.865,0,0,1,6.838-3.9Z" transform="translate(655.998 1.987)" fill="#b2f0bf"/>
          </g>
          <g id="g6465" transform="translate(2.036 13.031)">
            <path id="path6467" d="M-555.82-59.121a14.864,14.864,0,0,1-6.838-3.9,23.13,23.13,0,0,0-32.674,0,14.976,14.976,0,0,1-21.156,0,23.13,23.13,0,0,0-32.674,0,14.864,14.864,0,0,1-6.838,3.9v8.312a22.978,22.978,0,0,0,12.6-6.453,14.977,14.977,0,0,1,21.156,0,23.13,23.13,0,0,0,32.674,0,14.976,14.976,0,0,1,21.156,0,22.977,22.977,0,0,0,12.6,6.452Z" transform="translate(655.998 69.776)" fill="#b2f0bf"/>
          </g>
          <path id="path6469" d="M146.366-617.729h-8.144v-51.6h8.144Z" transform="translate(-117.114 671.368)" fill="#36d28f"/>
          <path id="path6471" d="M146.366-238.271h-8.144v-40.542h8.144Z" transform="translate(-117.114 340.486)" fill="#36d28f"/>
          <path id="path6473" d="M498.809-238.271h-8.144v-40.542h8.144Z" transform="translate(-415.735 340.486)" fill="#36d28f"/>
          <path id="path6475" d="M322.982-425.782h-8.144v-51.6h8.144Z" transform="translate(-266.758 508.733)" fill="#36d28f"/>
          <path id="path6477" d="M322.982-647.206h-8.144v-22.126h8.144Z" transform="translate(-266.758 671.368)" fill="#36d28f"/>
          <path id="path6479" d="M322.982-71.919h-8.144V-82.478h8.144Z" transform="translate(-266.758 174.134)" fill="#36d28f"/>
          <path id="path6481" d="M498.809-617.729h-8.144v-51.6h8.144Z" transform="translate(-415.735 671.368)" fill="#36d28f"/>
          <g id="g6483" transform="translate(27.217 0)">
            <path id="path6485" d="M-11.3,40.854a2.036,2.036,0,0,1-2.036-2.036V-11.3A2.036,2.036,0,0,1-11.3-13.333,2.036,2.036,0,0,1-9.261-11.3V38.818A2.036,2.036,0,0,1-11.3,40.854Z" transform="translate(13.333 13.333)"/>
          </g>
          <g id="g6487" transform="translate(19.072 0)">
            <path id="path6489" d="M-11.3-158.383a2.036,2.036,0,0,1-2.036-2.036V-187.3a2.036,2.036,0,0,1,2.036-2.036A2.036,2.036,0,0,1-9.261-187.3v26.877A2.036,2.036,0,0,1-11.3-158.383Z" transform="translate(13.333 189.333)"/>
          </g>
          <g id="g6491" transform="translate(21.108 37.058)">
            <path id="path6493"/>
          </g>
          <g id="g6495" transform="translate(19.072 43.166)">
            <path id="path6497" d="M-11.3-47.815a2.036,2.036,0,0,1-2.036-2.036V-56.8A2.036,2.036,0,0,1-11.3-58.836,2.036,2.036,0,0,1-9.261-56.8v6.949A2.036,2.036,0,0,1-11.3-47.815Z" transform="translate(13.333 58.836)"/>
          </g>
          <g id="g6499" transform="translate(54.162 0)">
            <path id="path6501" d="M-11.3,11.37a2.036,2.036,0,0,1-2.036-2.036V-11.3A2.036,2.036,0,0,1-11.3-13.333,2.036,2.036,0,0,1-9.261-11.3V9.334A2.036,2.036,0,0,1-11.3,11.37Z" transform="translate(13.333 13.333)"/>
          </g>
          <g id="g6503" transform="translate(46.017 0)">
            <path id="path6505" d="M-11.3-123.727a2.036,2.036,0,0,1-2.036-2.036v-20.631A2.036,2.036,0,0,1-11.3-148.43a2.036,2.036,0,0,1,2.036,2.036v20.631A2.036,2.036,0,0,1-11.3-123.727Z" transform="translate(13.333 148.43)"/>
          </g>
          <g id="g6507" transform="translate(81.039 0)">
            <path id="path6509" d="M-11.3,41a2.036,2.036,0,0,1-2.036-2.036V-11.3A2.036,2.036,0,0,1-11.3-13.333,2.036,2.036,0,0,1-9.261-11.3V38.962A2.036,2.036,0,0,1-11.3,41Z" transform="translate(13.333 13.333)"/>
          </g>
          <g id="g6511" transform="translate(72.894 0)">
            <path id="path6513" d="M-11.3-288.112a2.036,2.036,0,0,1-2.036-2.036v-50.259a2.036,2.036,0,0,1,2.036-2.036,2.036,2.036,0,0,1,2.036,2.036v50.259A2.036,2.036,0,0,1-11.3-288.112Z" transform="translate(13.333 342.443)"/>
          </g>
          <g id="g6515" transform="translate(54.621 40.775)">
            <path id="path6517" d="M-287.236,1.563a16.941,16.941,0,0,1-12.018-4.97A20.938,20.938,0,0,0-310.015-9.16a2.036,2.036,0,0,1-1.6-2.394,2.036,2.036,0,0,1,2.394-1.6,25,25,0,0,1,12.848,6.868,12.939,12.939,0,0,0,18.277,0,24.94,24.94,0,0,1,13.709-7.023,2.036,2.036,0,0,1,2.337,1.683,2.036,2.036,0,0,1-1.683,2.337,20.892,20.892,0,0,0-11.484,5.883A16.946,16.946,0,0,1-287.236,1.563Z" transform="translate(311.655 13.335)"/>
          </g>
          <g id="g6519" transform="translate(54.321 49.087)">
            <path id="path6521" d="M11.382.528A25.061,25.061,0,0,1-6.394-6.823a12.911,12.911,0,0,0-5.479-3.254A2.036,2.036,0,0,1-13.254-12.6a2.036,2.036,0,0,1,2.527-1.381A17,17,0,0,1-3.515-9.7a21.092,21.092,0,0,0,29.794,0,16.957,16.957,0,0,1,7.771-4.432,2.036,2.036,0,0,1,2.478,1.466,2.036,2.036,0,0,1-1.466,2.478,12.883,12.883,0,0,0-5.9,3.367A25.063,25.063,0,0,1,11.382.528Z" transform="translate(13.337 14.199)"/>
          </g>
          <g id="g6523" transform="translate(0 49.087)">
            <path id="path6525" d="M11.874,1.391A25.061,25.061,0,0,1-5.9-5.96a12.882,12.882,0,0,0-5.9-3.367,2.036,2.036,0,0,1-1.466-2.478,2.036,2.036,0,0,1,2.478-1.466A16.957,16.957,0,0,1-3.022-8.84a21.092,21.092,0,0,0,29.794,0,16.981,16.981,0,0,1,7.394-4.335,2.036,2.036,0,0,1,2.511,1.409,2.036,2.036,0,0,1-1.409,2.511,12.9,12.9,0,0,0-5.617,3.294A25.062,25.062,0,0,1,11.874,1.391Z" transform="translate(13.337 13.337)"/>
          </g>
          <g id="g6527" transform="translate(0 40.775)">
            <path id="path6529" d="M-289.456,1.2a16.942,16.942,0,0,1-12.018-4.97,20.89,20.89,0,0,0-11.484-5.883,2.036,2.036,0,0,1-1.683-2.337,2.036,2.036,0,0,1,2.337-1.683,24.939,24.939,0,0,1,13.709,7.023,12.939,12.939,0,0,0,18.277,0,24.965,24.965,0,0,1,13.348-6.962,2.036,2.036,0,0,1,2.361,1.649A2.036,2.036,0,0,1-266.257-9.6a20.913,20.913,0,0,0-11.181,5.832A16.945,16.945,0,0,1-289.456,1.2Z" transform="translate(314.667 13.698)"/>
          </g>
          <g id="g6531" transform="translate(0 19.705)">
            <path id="path6533" d="M-11.3-66.177a2.037,2.037,0,0,1-2.007-1.709,2.036,2.036,0,0,1,1.683-2.337A20.892,20.892,0,0,0-.142-76.106a16.987,16.987,0,0,1,7.36-4.324,2.036,2.036,0,0,1,2.514,1.4,2.036,2.036,0,0,1-1.4,2.514,12.905,12.905,0,0,0-5.591,3.286A24.94,24.94,0,0,1-10.972-66.2,2.051,2.051,0,0,1-11.3-66.177Z" transform="translate(13.335 80.509)"/>
          </g>
          <g id="g6535" transform="translate(0 11.359)">
            <path id="path6537" d="M-136.193,1.029A2.037,2.037,0,0,1-138.164-.5,2.036,2.036,0,0,1-136.7-2.98a12.885,12.885,0,0,0,5.9-3.367A24.967,24.967,0,0,1-117.478-13.3a2.036,2.036,0,0,1,2.363,1.645,2.036,2.036,0,0,1-1.645,2.363,20.914,20.914,0,0,0-11.154,5.828A16.96,16.96,0,0,1-135.685.965,2.04,2.04,0,0,1-136.193,1.029Z" transform="translate(138.228 13.336)"/>
          </g>
          <g id="g6539" transform="translate(27.215 11.348)">
            <path id="path6541" d="M-287.567,1.439h0a16.882,16.882,0,0,1-12.018-4.971A20.908,20.908,0,0,0-310.794-9.37a2.036,2.036,0,0,1-1.652-2.359,2.036,2.036,0,0,1,2.359-1.652,24.961,24.961,0,0,1,13.382,6.968,12.836,12.836,0,0,0,9.138,3.778,12.835,12.835,0,0,0,9.138-3.778,24.967,24.967,0,0,1,13.312-6.956,2.036,2.036,0,0,1,2.363,1.645A2.036,2.036,0,0,1-264.4-9.359a20.913,20.913,0,0,0-11.15,5.827A16.881,16.881,0,0,1-287.567,1.439Z" transform="translate(312.477 13.412)"/>
          </g>
          <g id="g6543" transform="translate(81.039 11.347)">
            <path id="path6545" d="M-117.49-66.429a2.039,2.039,0,0,1-.508-.064,16.957,16.957,0,0,1-7.771-4.432,20.909,20.909,0,0,0-11.215-5.838,2.036,2.036,0,0,1-1.653-2.358,2.036,2.036,0,0,1,2.358-1.653,24.961,24.961,0,0,1,13.389,6.969,12.882,12.882,0,0,0,5.9,3.367,2.036,2.036,0,0,1,1.466,2.478A2.037,2.037,0,0,1-117.49-66.429Z" transform="translate(138.667 80.806)"/>
          </g>
          <g id="g6547" transform="translate(81.039 19.686)">
            <path id="path6549" d="M7.842,1.013a2.051,2.051,0,0,1-.33-.027A24.94,24.94,0,0,1-6.2-6.036a12.9,12.9,0,0,0-5.649-3.3,2.036,2.036,0,0,1-1.416-2.508,2.036,2.036,0,0,1,2.508-1.416A16.98,16.98,0,0,1-3.317-8.915,20.891,20.891,0,0,0,8.166-3.033,2.036,2.036,0,0,1,9.849-.7,2.037,2.037,0,0,1,7.842,1.013Z" transform="translate(13.337 13.337)"/>
          </g>
          <g id="g6551" transform="translate(27.216 19.688)">
            <path id="path6553" d="M11.573,1.314A25.061,25.061,0,0,1-6.2-6.038a12.9,12.9,0,0,0-5.643-3.3,2.036,2.036,0,0,1-1.414-2.508,2.036,2.036,0,0,1,2.508-1.414A16.981,16.981,0,0,1-3.324-8.917a21.092,21.092,0,0,0,29.794,0,16.992,16.992,0,0,1,7.262-4.3,2.036,2.036,0,0,1,2.523,1.389A2.036,2.036,0,0,1,34.866-9.3,12.909,12.909,0,0,0,29.35-6.038,25.063,25.063,0,0,1,11.573,1.314Z" transform="translate(13.337 13.337)"/>
          </g>
          <g id="g6555" transform="translate(27.217 59.637)">
            <path id="path6557" d="M-11.3,31.281a2.036,2.036,0,0,1-2.036-2.036V-11.3A2.036,2.036,0,0,1-11.3-13.333,2.036,2.036,0,0,1-9.261-11.3V29.245A2.036,2.036,0,0,1-11.3,31.281Z" transform="translate(13.333 13.333)"/>
          </g>
          <g id="g6559" transform="translate(19.072 59.637)">
            <path id="path6561" d="M-11.3-234.2a2.036,2.036,0,0,1-2.036-2.036v-40.542a2.036,2.036,0,0,1,2.036-2.036,2.036,2.036,0,0,1,2.036,2.036v40.542A2.036,2.036,0,0,1-11.3-234.2Z" transform="translate(13.333 278.813)"/>
          </g>
          <g id="g6563" transform="translate(54.162 30.267)">
            <path id="path6565" d="M-11.3,40.433A2.036,2.036,0,0,1-13.333,38.4V-11.3A2.036,2.036,0,0,1-11.3-13.333,2.036,2.036,0,0,1-9.261-11.3V38.4A2.036,2.036,0,0,1-11.3,40.433Z" transform="translate(13.333 13.333)"/>
          </g>
          <g id="g6567" transform="translate(46.017 30.267)">
            <path id="path6569" d="M-11.3-284.978a2.036,2.036,0,0,1-2.036-2.036v-49.694a2.036,2.036,0,0,1,2.036-2.036,2.036,2.036,0,0,1,2.036,2.036v49.694A2.036,2.036,0,0,1-11.3-284.978Z" transform="translate(13.333 338.745)"/>
          </g>
          <g id="g6571" transform="translate(83.075 102.215)">
            <path id="path6573"/>
          </g>
          <g id="g6575" transform="translate(81.039 59.743)">
            <path id="path6577" d="M-11.3,23.03a2.036,2.036,0,0,1-2.036-2.036V-11.3A2.036,2.036,0,0,1-11.3-13.333,2.036,2.036,0,0,1-9.261-11.3V20.994A2.036,2.036,0,0,1-11.3,23.03Z" transform="translate(13.333 13.333)"/>
          </g>
          <g id="g6579" transform="translate(72.894 59.743)">
            <path id="path6581" d="M-11.3-233.61a2.036,2.036,0,0,1-2.036-2.036v-40.436a2.036,2.036,0,0,1,2.036-2.036,2.036,2.036,0,0,1,2.036,2.036v40.436A2.036,2.036,0,0,1-11.3-233.61Z" transform="translate(13.333 278.118)"/>
          </g>
          <g id="g6583" transform="translate(0 78.657)">
            <path id="path6585" d="M-11.3-66.177a2.037,2.037,0,0,1-2.007-1.709,2.036,2.036,0,0,1,1.683-2.337A20.892,20.892,0,0,0-.142-76.106a16.987,16.987,0,0,1,7.36-4.324,2.036,2.036,0,0,1,2.514,1.4,2.036,2.036,0,0,1-1.4,2.514,12.905,12.905,0,0,0-5.591,3.286A24.94,24.94,0,0,1-10.972-66.2,2.051,2.051,0,0,1-11.3-66.177Z" transform="translate(13.335 80.509)"/>
          </g>
          <g id="g6587" transform="translate(0 70.312)">
            <path id="path6589" d="M-136.193,1.029A2.037,2.037,0,0,1-138.164-.5,2.036,2.036,0,0,1-136.7-2.98a12.885,12.885,0,0,0,5.9-3.367A24.967,24.967,0,0,1-117.478-13.3a2.036,2.036,0,0,1,2.363,1.645,2.036,2.036,0,0,1-1.645,2.363,20.914,20.914,0,0,0-11.154,5.828A16.96,16.96,0,0,1-135.685.965,2.04,2.04,0,0,1-136.193,1.029Z" transform="translate(138.228 13.336)"/>
          </g>
          <g id="g6591" transform="translate(27.215 70.301)">
            <path id="path6593" d="M-287.567,1.439h0a16.882,16.882,0,0,1-12.018-4.971A20.908,20.908,0,0,0-310.794-9.37a2.036,2.036,0,0,1-1.652-2.359,2.036,2.036,0,0,1,2.359-1.652,24.961,24.961,0,0,1,13.382,6.968,12.836,12.836,0,0,0,9.138,3.778,12.835,12.835,0,0,0,9.138-3.778,24.967,24.967,0,0,1,13.312-6.956,2.036,2.036,0,0,1,2.363,1.645A2.036,2.036,0,0,1-264.4-9.359a20.913,20.913,0,0,0-11.15,5.827A16.881,16.881,0,0,1-287.567,1.439Z" transform="translate(312.477 13.412)"/>
          </g>
          <g id="g6595" transform="translate(81.039 70.3)">
            <path id="path6597" d="M-117.49-66.429a2.039,2.039,0,0,1-.508-.064,16.957,16.957,0,0,1-7.771-4.432,20.909,20.909,0,0,0-11.215-5.838,2.036,2.036,0,0,1-1.653-2.358,2.036,2.036,0,0,1,2.358-1.653,24.961,24.961,0,0,1,13.389,6.969,12.882,12.882,0,0,0,5.9,3.367,2.036,2.036,0,0,1,1.466,2.478A2.037,2.037,0,0,1-117.49-66.429Z" transform="translate(138.667 80.806)"/>
          </g>
          <g id="g6599" transform="translate(81.039 78.639)">
            <path id="path6601" d="M7.842,1.013a2.051,2.051,0,0,1-.33-.027A24.94,24.94,0,0,1-6.2-6.036a12.9,12.9,0,0,0-5.649-3.3,2.036,2.036,0,0,1-1.416-2.508,2.036,2.036,0,0,1,2.508-1.416A16.98,16.98,0,0,1-3.317-8.915,20.891,20.891,0,0,0,8.166-3.033,2.036,2.036,0,0,1,9.849-.7,2.037,2.037,0,0,1,7.842,1.013Z" transform="translate(13.337 13.337)"/>
          </g>
          <g id="g6603" transform="translate(27.216 78.64)">
            <path id="path6605" d="M11.573,1.314A25.061,25.061,0,0,1-6.2-6.038a12.9,12.9,0,0,0-5.643-3.3,2.036,2.036,0,0,1-1.414-2.508,2.036,2.036,0,0,1,2.508-1.414A16.982,16.982,0,0,1-3.324-8.917a21.092,21.092,0,0,0,29.794,0,16.99,16.99,0,0,1,7.25-4.293,2.036,2.036,0,0,1,2.524,1.387A2.036,2.036,0,0,1,34.857-9.3,12.907,12.907,0,0,0,29.35-6.038,25.063,25.063,0,0,1,11.573,1.314Z" transform="translate(13.337 13.337)"/>
          </g>
          <g id="g6607" transform="translate(54.162 89.219)">
            <path id="path6609" d="M-11.3,1.7A2.036,2.036,0,0,1-13.333-.338V-11.3A2.036,2.036,0,0,1-11.3-13.333,2.036,2.036,0,0,1-9.261-11.3V-.338A2.036,2.036,0,0,1-11.3,1.7Z" transform="translate(13.333 13.333)"/>
          </g>
          <g id="g6611" transform="translate(46.017 89.219)">
            <path id="path6613" d="M-11.3-70.067A2.036,2.036,0,0,1-13.333-72.1V-83.062A2.036,2.036,0,0,1-11.3-85.1a2.036,2.036,0,0,1,2.036,2.036V-72.1A2.036,2.036,0,0,1-11.3-70.067Z" transform="translate(13.333 85.098)"/>
          </g>
        </g>
      </g>
    </g>
  </g>
</svg>
