<svg xmlns="http://www.w3.org/2000/svg" xmlns:xlink="http://www.w3.org/1999/xlink" width="395" height="195" viewBox="0 0 395 195">
  <defs>
    <clipPath id="clip-path">
      <rect id="Rectángulo_344529" data-name="Rectángulo 344529" width="395" height="195" rx="13" transform="translate(905 2117)" fill="#fff"/>
    </clipPath>
  </defs>
  <g id="Grupo_987078" data-name="Grupo 987078" transform="translate(-905 -2113)">
    <g id="Enmascarar_grupo_524" data-name="Enmascarar grupo 524" transform="translate(0 -4)" clip-path="url(#clip-path)">
      <g id="Rectángulo_344975" data-name="Rectángulo 344975" transform="translate(834 2082)" fill="#fff" stroke="#707070" stroke-width="1">
        <rect width="486" height="265" stroke="none"/>
        <rect x="0.5" y="0.5" width="485" height="264" fill="none"/>
      </g>
    </g>
    <g id="Grupo_987077" data-name="Grupo 987077" transform="translate(11918.644 12285.145)">
      <g id="Grupo_986733" data-name="Grupo 986733" transform="translate(-10912.644 -10171.145)">
        <path id="Intersección_1" data-name="Intersección 1" d="M0,39.56,69.926,0,30.4,69.872A79.181,79.181,0,0,1,0,39.56Z" transform="translate(30.049 111.736) rotate(-14)" fill="#57a6d4"/>
        <path id="Intersección_4" data-name="Intersección 4" d="M0,39.56,69.926,0,30.4,69.872A79.181,79.181,0,0,1,0,39.56Z" transform="translate(79.56 162.488) rotate(-76)" fill="#d9e26e"/>
        <path id="Intersección_2" data-name="Intersección 2" d="M0,39.56,69.926,0,30.4,69.872A79.181,79.181,0,0,1,0,39.56Z" transform="translate(47.94 144.168) rotate(-45)" fill="#8ebe6e"/>
        <path id="Intersección_3" data-name="Intersección 3" d="M0,39.56,69.926,0,30.4,69.872A79.181,79.181,0,0,1,0,39.56Z" transform="translate(116.597 161.919) rotate(-107)" fill="#f8f072"/>
        <path id="Intersección_1-2" data-name="Intersección 1" d="M0,41.34,67.053,0,25.441,67.969A78.225,78.225,0,0,1,0,41.34Z" transform="translate(146.574 142.638) rotate(-137)" fill="#f1ce6d"/>
        <path id="Intersección_4-2" data-name="Intersección 4" d="M0,33.47,71.8,0,26.112,64.783A77.715,77.715,0,0,1,0,33.47Z" transform="translate(166.02 74.795) rotate(161)" fill="#e5784d"/>
        <path id="Intersección_2-2" data-name="Intersección 2" d="M0,36.119,69.755,0,24.965,65.881A78.322,78.322,0,0,1,0,36.119Z" transform="translate(165.954 111.882) rotate(-168)" fill="#f0af52"/>
        <path id="Intersección_3-2" data-name="Intersección 3" d="M20.07,62.361A77.379,77.379,0,0,1,0,35.861L72.952,0,28.408,68.59A80.39,80.39,0,0,1,20.07,62.361Z" transform="translate(148.036 46.779) rotate(133)" fill="#dc5849"/>
        <path id="Intersección_1-3" data-name="Intersección 1" d="M0,30.311l69.926,39.56L30.4,0A79.18,79.18,0,0,0,0,30.311Z" transform="translate(10.495 141.047) rotate(-72)" fill="#6178b8"/>
        <path id="Intersección_4-3" data-name="Intersección 4" d="M0,30.311l69.926,39.56L30.4,0A79.181,79.181,0,0,0,0,30.311Z" transform="translate(17.637 40.896) rotate(-10)" fill="#8e58a5"/>
        <path id="Intersección_5" data-name="Intersección 5" d="M0,21.458A77.159,77.159,0,0,1,28.445,0L60.283,71.789Z" transform="matrix(0.985, 0.174, -0.174, 0.985, 50.715, 15.224)" fill="#bb3a5e"/>
        <path id="Intersección_2-3" data-name="Intersección 2" d="M0,30.311l69.926,39.56L30.4,0A79.18,79.18,0,0,0,0,30.311Z" transform="matrix(0.755, -0.656, 0.656, 0.755, 0, 89.797)" fill="#614fa0"/>
        <path id="Unión_3" data-name="Unión 3" d="M39.975,146.788l.052-.093a79.185,79.185,0,0,1-29.934-30.042l-.367.2A79.171,79.171,0,0,1,.106,75.533l-.106,0A79.173,79.173,0,0,1,13.322,34.722l.219.146A79.19,79.19,0,0,1,45.5,7.461l.082.172A77.142,77.142,0,0,1,79.473,0V.545a80.436,80.436,0,0,1,10.015.681,77.381,77.381,0,0,1,31.265,11.293l-.094.157a77.708,77.708,0,0,1,27.1,27.614l.607-.347a78.315,78.315,0,0,1,9.393,36.984l1.066-.028a78.229,78.229,0,0,1-8.477,35.84l-3.071-1.454,2.837,1.414a79.184,79.184,0,0,1-28.68,31.941l-.058-.09a79.179,79.179,0,0,1-39.738,12.3l.006.263c-.837.027-1.676.04-2.511.04A79.193,79.193,0,0,1,39.975,146.788Zm3.081-.874A76.955,76.955,0,0,0,79.33,154.9L77.5,85.037Zm39.913,8.626a76.963,76.963,0,0,0,35.724-10.978L81.14,84.618ZM13.178,117.478a76.943,76.943,0,0,0,26.463,26.388l34.415-60.83ZM122.1,141.509A76.946,76.946,0,0,0,147.073,113.7L84.524,82.516ZM4.233,96.094a76.9,76.9,0,0,0,6.421,17.694L72.123,80.411,2.3,77.361A76.884,76.884,0,0,0,4.233,96.094Zm84.4-15.075L149.3,109.752a76.609,76.609,0,0,0,5.248-15.007,75.443,75.443,0,0,0,2.006-15.533Zm-.574-3.961,67.424-1.618a76.067,76.067,0,0,0-8.038-32.379ZM5.982,54.9A76.858,76.858,0,0,0,2.373,73.379l69.879,3.049L13.973,37.853A76.873,76.873,0,0,0,5.982,54.9ZM85.627,74.211l59.323-34.239a75.454,75.454,0,0,0-24.854-25Zm-4.274-.05,36.325-60.883a75.149,75.149,0,0,0-28.484-9.82c-2.6-.34-5.223-.551-7.842-.629ZM28.818,20.982A76.875,76.875,0,0,0,16.209,34.958L74.537,73.563,44.449,10.481A76.817,76.817,0,0,0,28.818,20.982ZM62.108,4.191a75.307,75.307,0,0,0-14.324,4.9L77.123,68.866l.1-66.593A74.651,74.651,0,0,0,62.108,4.191Z" transform="translate(1.616 39.385) rotate(-14)"/>
      </g>
      <circle id="Elipse_5967" data-name="Elipse 5967" cx="48.279" cy="48.279" r="48.279" transform="translate(-10862.935 -10123.64)" fill="#fff"/>
      <path id="Elipse_5967_-_Contorno" data-name="Elipse 5967 - Contorno" d="M48.447,2.755A45.692,45.692,0,1,0,94.138,48.447,45.743,45.743,0,0,0,48.447,2.755m0-2.755A48.447,48.447,0,1,1,0,48.447,48.447,48.447,0,0,1,48.447,0Z" transform="translate(-10863.672 -10123.778)"/>
    </g>
    <circle id="Elipse_6004" data-name="Elipse 6004" cx="5.5" cy="5.5" r="5.5" transform="translate(1159 2205)"/>
    <circle id="Elipse_6005" data-name="Elipse 6005" cx="5.5" cy="5.5" r="5.5" transform="translate(1098 2146)"/>
    <circle id="Elipse_6006" data-name="Elipse 6006" cx="5.5" cy="5.5" r="5.5" transform="translate(1037 2202)"/>
    <circle id="Elipse_6007" data-name="Elipse 6007" cx="5.5" cy="5.5" r="5.5" transform="translate(1098 2264)"/>
    <path id="Trazado_732497" data-name="Trazado 732497" d="M-11650.5-9549.5l-61.072,56.681,61.072,61.857,60.821-58.267Z" transform="translate(12754 11700)" fill="none" stroke="#000" stroke-width="3"/>
  </g>
</svg>
