<svg xmlns="http://www.w3.org/2000/svg" xmlns:xlink="http://www.w3.org/1999/xlink" width="85" height="92" viewBox="0 0 85 92">
  <defs>
    <clipPath id="clip-path">
      <path id="path1905" d="M0-682.665H69.929v69.929H0Z" transform="translate(0 682.665)"/>
    </clipPath>
  </defs>
  <g id="_22" data-name="22" transform="translate(-599 -8710)">
    <rect id="Rectángulo_338875" data-name="Rectángulo 338875" width="85" height="92" rx="10" transform="translate(599 8710)" fill="#ff6e33"/>
    <g id="g1887" transform="translate(606 9403.665)">
      <g id="g1889" transform="translate(39.383 -678.815)">
        <path id="path1891" d="M-4.91-7.951H-8.976A1.024,1.024,0,0,1-10-8.976,1.024,1.024,0,0,1-8.976-10H-4.91A1.024,1.024,0,0,1-3.885-8.976,1.024,1.024,0,0,1-4.91-7.951Z" transform="translate(10 10)"/>
      </g>
      <g id="g1893" transform="translate(28.486 -678.815)">
        <path id="path1895" d="M-2.89-7.951H-8.976A1.024,1.024,0,0,1-10-8.976,1.024,1.024,0,0,1-8.976-10H-2.89A1.024,1.024,0,0,1-1.866-8.976,1.024,1.024,0,0,1-2.89-7.951Z" transform="translate(10 10)"/>
      </g>
      <g id="g1897" transform="translate(19.609 -678.815)">
        <path id="path1899" d="M-4.91-7.951H-8.976A1.024,1.024,0,0,1-10-8.976,1.024,1.024,0,0,1-8.976-10H-4.91A1.024,1.024,0,0,1-3.885-8.976,1.024,1.024,0,0,1-4.91-7.951Z" transform="translate(10 10)"/>
      </g>
      <g id="g1901" transform="translate(0 -682.665)">
        <g id="g1903" clip-path="url(#clip-path)">
          <g id="g1909" transform="translate(35.596 1.024)">
            <path id="path1911" d="M-42.16-121.84h-4.812v-11.5a2.406,2.406,0,0,1,2.406-2.406,2.406,2.406,0,0,1,2.406,2.406Z" transform="translate(46.972 135.745)" fill="#fbc980"/>
          </g>
          <g id="g1913" transform="translate(24.699 1.024)">
            <path id="path1915" d="M-42.16-121.84h-4.812v-11.5a2.406,2.406,0,0,1,2.406-2.406,2.406,2.406,0,0,1,2.406,2.406Z" transform="translate(46.972 135.745)" fill="#fbc980"/>
          </g>
          <g id="g1917" transform="translate(2.511 8.821)">
            <path id="path1919" d="M-526.47-263.235a30.042,30.042,0,0,1-30.042,30.042,30.042,30.042,0,0,1-30.042-30.042,30.042,30.042,0,0,1,30.042-30.042,30.042,30.042,0,0,1,30.042,30.042" transform="translate(586.555 293.277)" fill="#f9bc66"/>
          </g>
          <g id="g1921" transform="translate(7.408 13.717)">
            <path id="path1923" d="M-440.664-220.332a25.146,25.146,0,0,1-25.146,25.146,25.146,25.146,0,0,1-25.146-25.146,25.146,25.146,0,0,1,25.146-25.146,25.146,25.146,0,0,1,25.146,25.146" transform="translate(490.955 245.478)" fill="#f1faff"/>
          </g>
          <g id="g1925" transform="translate(28.092 13.717)">
            <path id="path1927" d="M-39.094,0a25.3,25.3,0,0,0-4.462.395A25.153,25.153,0,0,1-22.872,25.146,25.153,25.153,0,0,1-43.556,49.9a25.3,25.3,0,0,0,4.462.395A25.146,25.146,0,0,0-13.949,25.146,25.146,25.146,0,0,0-39.094,0" transform="translate(43.556)" fill="#dcf5ff"/>
          </g>
          <g id="g1929" transform="translate(27.915 22.604)">
            <path id="path1931" d="M-40.639-95.191a5.367,5.367,0,0,1,2.7.725A18.369,18.369,0,0,0-36-101.416a4.638,4.638,0,0,0-4.638-4.638,4.638,4.638,0,0,0-4.638,4.638,18.369,18.369,0,0,0,1.937,6.951,5.367,5.367,0,0,1,2.7-.725" transform="translate(45.277 106.054)" fill="#ff79b3"/>
          </g>
          <g id="g1933" transform="translate(27.915 43.532)">
            <path id="path1935" d="M-40.639-6.356a5.367,5.367,0,0,1-2.7-.725A18.369,18.369,0,0,0-45.277-.13a4.638,4.638,0,0,0,4.638,4.638A4.638,4.638,0,0,0-36-.13a18.369,18.369,0,0,0-1.937-6.951,5.367,5.367,0,0,1-2.7.725" transform="translate(45.277 7.081)" fill="#ff79b3"/>
          </g>
          <g id="g1937" transform="translate(37.223 34.225)">
            <path id="path1939" d="M-60.906,0a18.365,18.365,0,0,0-6.951,1.938,5.368,5.368,0,0,1,.725,2.7,5.367,5.367,0,0,1-.725,2.7,18.365,18.365,0,0,0,6.951,1.938,4.638,4.638,0,0,0,4.638-4.638A4.638,4.638,0,0,0-60.906,0" transform="translate(67.857)" fill="#ff79b3"/>
          </g>
          <g id="g1941" transform="translate(35.253 26.008)">
            <path id="path1943" d="M-77.08-11.9a4.638,4.638,0,0,0-6.559,0c-.1.1-.209.219-.319.348a19.246,19.246,0,0,1-1.918,6.478,5.421,5.421,0,0,1,1.97,1.97,19.242,19.242,0,0,1,6.478-1.918c.129-.11.246-.218.348-.319a4.638,4.638,0,0,0,0-6.559" transform="translate(85.877 13.261)" fill="#fca2cd"/>
          </g>
          <g id="g1945" transform="translate(19.698 26.008)">
            <path id="path1947" d="M-88.984-71.719A19.24,19.24,0,0,1-90.9-78.2c-.11-.129-.218-.247-.319-.348a4.638,4.638,0,0,0-6.559,0,4.638,4.638,0,0,0,0,6.559c.1.1.219.209.348.319a19.244,19.244,0,0,1,6.478,1.918,5.42,5.42,0,0,1,1.97-1.97" transform="translate(99.139 79.903)" fill="#fca2cd"/>
          </g>
          <g id="g1949" transform="translate(35.253 41.563)">
            <path id="path1951" d="M-77.08-19.608c-.1-.1-.219-.209-.348-.319a19.239,19.239,0,0,1-6.478-1.918,5.42,5.42,0,0,1-1.97,1.97A19.246,19.246,0,0,1-83.959-13.4c.11.129.218.247.319.348a4.638,4.638,0,0,0,6.559,0,4.638,4.638,0,0,0,0-6.559" transform="translate(85.877 21.845)" fill="#fca2cd"/>
          </g>
          <g id="g1953" transform="translate(19.698 41.563)">
            <path id="path1955" d="M-71.719,0A19.24,19.24,0,0,1-78.2,1.918c-.129.11-.247.218-.348.319a4.638,4.638,0,0,0,0,6.559,4.638,4.638,0,0,0,6.559,0c.1-.1.209-.22.319-.348A19.243,19.243,0,0,1-69.749,1.97,5.418,5.418,0,0,1-71.719,0" transform="translate(79.904)" fill="#fca2cd"/>
          </g>
          <g id="g1957" transform="translate(27.158 33.468)">
            <path id="path1959" d="M-94.546-47.273a5.4,5.4,0,0,1-5.4,5.395,5.4,5.4,0,0,1-5.4-5.395,5.4,5.4,0,0,1,5.4-5.4,5.4,5.4,0,0,1,5.4,5.4" transform="translate(105.336 52.668)" fill="#ffdaea"/>
          </g>
          <g id="g1961" transform="translate(16.295 34.225)">
            <path id="path1963" d="M-95.191-40.64a5.367,5.367,0,0,1,.725-2.7,18.367,18.367,0,0,0-6.951-1.938,4.638,4.638,0,0,0-4.638,4.638A4.638,4.638,0,0,0-101.416-36a18.369,18.369,0,0,0,6.951-1.937,5.367,5.367,0,0,1-.725-2.7" transform="translate(106.054 45.279)" fill="#ff79b3"/>
          </g>
          <g id="g1965" transform="translate(46.988 11.701)">
            <path id="path1967" d="M-123.309,3.761a1.021,1.021,0,0,1-.724-.3,1.024,1.024,0,0,1,0-1.449L-112.321-9.7a1.024,1.024,0,0,1,1.449,0,1.024,1.024,0,0,1,0,1.449L-122.584,3.46A1.021,1.021,0,0,1-123.309,3.761Z" transform="translate(124.333 10)"/>
          </g>
          <g id="g1969" transform="translate(57.773 5.031)">
            <path id="path1971" d="M-6.431-78.083h0a2.506,2.506,0,0,1,0-3.544L-1.8-86.26a2.506,2.506,0,0,1,3.544,0,2.506,2.506,0,0,1,0,3.544l-4.634,4.633a2.506,2.506,0,0,1-3.544,0" transform="translate(7.165 86.994)" fill="#97e4f9"/>
          </g>
          <g id="g1973" transform="translate(1.487 7.796)">
            <path id="path1975" d="M-514.436-75.754A31.1,31.1,0,0,1-545.5-106.82a31.1,31.1,0,0,1,31.066-31.066,30.785,30.785,0,0,1,18.837,6.36,1.024,1.024,0,0,1,.193,1.436,1.024,1.024,0,0,1-1.436.193,28.753,28.753,0,0,0-17.594-5.94,29.051,29.051,0,0,0-29.018,29.018A29.051,29.051,0,0,0-514.436-77.8a29.051,29.051,0,0,0,29.018-29.018,28.859,28.859,0,0,0-5.051-16.364,1.024,1.024,0,0,1,.267-1.424,1.024,1.024,0,0,1,1.424.267,30.9,30.9,0,0,1,5.408,17.52A31.1,31.1,0,0,1-514.436-75.754Z" transform="translate(545.503 137.886)"/>
          </g>
          <g id="g1977" transform="translate(6.383 12.693)">
            <path id="path1979" d="M-436.475-71.4a26.2,26.2,0,0,1-26.17-26.17,26.2,26.2,0,0,1,26.17-26.17,25.985,25.985,0,0,1,15.258,4.906,1.024,1.024,0,0,1,.234,1.43,1.024,1.024,0,0,1-1.43.234,23.948,23.948,0,0,0-14.062-4.521A24.149,24.149,0,0,0-460.6-97.567a24.149,24.149,0,0,0,24.121,24.121,24.149,24.149,0,0,0,24.121-24.121,24.042,24.042,0,0,0-3.764-12.944,1.024,1.024,0,0,1,.313-1.414,1.024,1.024,0,0,1,1.414.313,26.087,26.087,0,0,1,4.085,14.045A26.2,26.2,0,0,1-436.475-71.4Z" transform="translate(462.646 123.737)"/>
          </g>
          <g id="g1981" transform="translate(56.748 4.007)">
            <path id="path1983" d="M-13.635-85.3a3.507,3.507,0,0,1-2.5-1.034,3.507,3.507,0,0,1-1.034-2.5,3.507,3.507,0,0,1,1.034-2.5L-11.5-95.96A3.507,3.507,0,0,1-9-96.994,3.507,3.507,0,0,1-6.5-95.96a3.507,3.507,0,0,1,1.034,2.5,3.507,3.507,0,0,1-1.034,2.5l-4.634,4.634A3.507,3.507,0,0,1-13.635-85.3ZM-9-94.945a1.472,1.472,0,0,0-1.048.434l-4.633,4.634a1.472,1.472,0,0,0-.434,1.047,1.472,1.472,0,0,0,.434,1.048,1.472,1.472,0,0,0,1.048.434,1.472,1.472,0,0,0,1.048-.434l4.634-4.634a1.483,1.483,0,0,0,0-2.1A1.472,1.472,0,0,0-9-94.945Z" transform="translate(17.165 96.994)"/>
          </g>
          <g id="g1985" transform="translate(34.572 0)">
            <path id="path1987" d="M-51.136-85.374A1.024,1.024,0,0,1-52.16-86.4v-6.43a1.383,1.383,0,0,0-1.382-1.381,1.383,1.383,0,0,0-1.381,1.381v5.543a1.024,1.024,0,0,1-1.024,1.024,1.024,1.024,0,0,1-1.024-1.024v-5.543a3.434,3.434,0,0,1,3.43-3.43,3.434,3.434,0,0,1,3.43,3.43v6.43A1.024,1.024,0,0,1-51.136-85.374Z" transform="translate(56.972 96.258)"/>
          </g>
          <g id="g1989" transform="translate(23.675 0)">
            <path id="path1991" d="M-55.948-76.715a1.024,1.024,0,0,1-1.024-1.024v-6.43a3.434,3.434,0,0,1,3.43-3.43,3.434,3.434,0,0,1,3.43,3.43v5.543A1.024,1.024,0,0,1-51.136-77.6a1.024,1.024,0,0,1-1.024-1.024V-84.17a1.383,1.383,0,0,0-1.382-1.382,1.383,1.383,0,0,0-1.381,1.382v6.43A1.024,1.024,0,0,1-55.948-76.715Z" transform="translate(56.972 87.6)"/>
          </g>
          <g id="g1993" transform="translate(26.891 21.58)">
            <path id="path1995" d="M-73.279-109.5a1.02,1.02,0,0,1-.474-.117A1.024,1.024,0,0,1-74.186-111a17.516,17.516,0,0,0,1.821-6.476,3.618,3.618,0,0,0-3.614-3.614,3.618,3.618,0,0,0-3.614,3.614A17.516,17.516,0,0,0-77.772-111a1.024,1.024,0,0,1-.433,1.382,1.024,1.024,0,0,1-1.382-.433,19.312,19.312,0,0,1-2.054-7.426,5.669,5.669,0,0,1,5.662-5.662,5.669,5.669,0,0,1,5.662,5.662,19.313,19.313,0,0,1-2.054,7.426A1.024,1.024,0,0,1-73.279-109.5Z" transform="translate(81.641 123.136)"/>
          </g>
          <g id="g1997" transform="translate(26.891 42.508)">
            <path id="path1999" d="M-23.252,3.636a5.669,5.669,0,0,1-5.662-5.662,19.314,19.314,0,0,1,2.054-7.426,1.024,1.024,0,0,1,1.382-.433A1.024,1.024,0,0,1-25.045-8.5a17.518,17.518,0,0,0-1.821,6.476,3.618,3.618,0,0,0,3.614,3.614,3.618,3.618,0,0,0,3.614-3.614A17.517,17.517,0,0,0-21.459-8.5a1.024,1.024,0,0,1,.433-1.382,1.024,1.024,0,0,1,1.382.433A19.313,19.313,0,0,1-17.59-2.026,5.669,5.669,0,0,1-23.252,3.636Z" transform="translate(28.915 10.002)"/>
          </g>
          <g id="g2001" transform="translate(36.198 33.2)">
            <path id="path2003" d="M-2.026-70.316A19.31,19.31,0,0,1-9.452-72.37a1.024,1.024,0,0,1-.433-1.382A1.024,1.024,0,0,1-8.5-74.186a17.514,17.514,0,0,0,6.476,1.821,3.618,3.618,0,0,0,3.614-3.614,3.618,3.618,0,0,0-3.614-3.614A17.514,17.514,0,0,0-8.5-77.771,1.024,1.024,0,0,1-9.885-78.2a1.024,1.024,0,0,1,.433-1.382,19.31,19.31,0,0,1,7.426-2.054,5.669,5.669,0,0,1,5.662,5.662A5.669,5.669,0,0,1-2.026-70.316Z" transform="translate(10.002 81.641)"/>
          </g>
          <g id="g2005" transform="translate(15.27 33.2)">
            <path id="path2007" d="M-117.473-17.59a5.669,5.669,0,0,1-5.662-5.662,5.669,5.669,0,0,1,5.662-5.662,19.312,19.312,0,0,1,7.426,2.054,1.024,1.024,0,0,1,.433,1.382,1.024,1.024,0,0,1-1.382.433,17.516,17.516,0,0,0-6.477-1.821,3.618,3.618,0,0,0-3.614,3.614,3.618,3.618,0,0,0,3.614,3.614A17.518,17.518,0,0,0-111-21.459a1.024,1.024,0,0,1,1.382.433,1.024,1.024,0,0,1-.433,1.382A19.314,19.314,0,0,1-117.473-17.59Z" transform="translate(123.136 28.915)"/>
          </g>
          <g id="g2009" transform="translate(36.147 24.983)">
            <path id="path2011" d="M-66.2-80.127a1.022,1.022,0,0,1-.777-.356,1.024,1.024,0,0,1,.108-1.445c.108-.093.207-.182.292-.267a3.59,3.59,0,0,0,1.058-2.555,3.59,3.59,0,0,0-1.058-2.555,3.59,3.59,0,0,0-2.555-1.059,3.59,3.59,0,0,0-2.555,1.058c-.085.085-.174.184-.267.292A1.024,1.024,0,0,1-73.4-86.9a1.024,1.024,0,0,1-.109-1.445c.129-.15.254-.286.372-.4a5.625,5.625,0,0,1,4-1.659,5.625,5.625,0,0,1,4,1.659,5.625,5.625,0,0,1,1.659,4,5.625,5.625,0,0,1-1.659,4c-.118.118-.255.243-.4.371A1.02,1.02,0,0,1-66.2-80.127Z" transform="translate(73.753 90.412)"/>
          </g>
          <g id="g2013" transform="translate(18.674 24.986)">
            <path id="path2015" d="M-87.682-16.351a1.02,1.02,0,0,1-.667-.247c-.15-.129-.287-.254-.405-.372a5.625,5.625,0,0,1-1.659-4,5.625,5.625,0,0,1,1.659-4,5.669,5.669,0,0,1,8.008,0c.118.118.243.255.372.4a1.024,1.024,0,0,1-.109,1.445,1.024,1.024,0,0,1-1.445-.109c-.092-.108-.182-.207-.267-.292a3.618,3.618,0,0,0-5.11,0,3.59,3.59,0,0,0-1.058,2.555,3.59,3.59,0,0,0,1.058,2.555c.085.085.184.174.291.267a1.024,1.024,0,0,1,.11,1.444A1.022,1.022,0,0,1-87.682-16.351Z" transform="translate(90.412 26.634)"/>
          </g>
          <g id="g2017" transform="translate(36.147 42.456)">
            <path id="path2019" d="M-5.377-63.47a5.645,5.645,0,0,1-4-1.656c-.118-.118-.243-.255-.372-.4a1.024,1.024,0,0,1,.109-1.445,1.024,1.024,0,0,1,1.445.109c.092.108.182.207.267.292a3.618,3.618,0,0,0,5.11,0A3.59,3.59,0,0,0-1.763-69.13a3.59,3.59,0,0,0-1.058-2.555c-.085-.085-.184-.175-.292-.267A1.024,1.024,0,0,1-3.222-73.4a1.024,1.024,0,0,1,1.445-.109c.15.129.287.254.405.372a5.625,5.625,0,0,1,1.658,4,5.625,5.625,0,0,1-1.659,4A5.645,5.645,0,0,1-5.377-63.47Z" transform="translate(10 73.753)"/>
          </g>
          <g id="g2021" transform="translate(18.676 42.456)">
            <path id="path2023" d="M-20.975.283a5.643,5.643,0,0,1-4-1.656,5.669,5.669,0,0,1,0-8.008c.118-.118.255-.243.4-.372a1.024,1.024,0,0,1,1.445.109A1.024,1.024,0,0,1-23.238-8.2c-.108.093-.207.182-.292.267a3.618,3.618,0,0,0,0,5.111,3.618,3.618,0,0,0,5.111,0c.085-.085.175-.184.267-.292a1.024,1.024,0,0,1,1.445-.109A1.024,1.024,0,0,1-16.6-1.777c-.129.149-.254.286-.372.4A5.646,5.646,0,0,1-20.975.283Z" transform="translate(26.634 10)"/>
          </g>
          <g id="g2025" transform="translate(26.134 32.443)">
            <path id="path2027" d="M-108.916-49.829a6.427,6.427,0,0,1-6.419-6.419,6.427,6.427,0,0,1,6.419-6.419,6.427,6.427,0,0,1,6.419,6.419A6.427,6.427,0,0,1-108.916-49.829Zm0-10.79a4.376,4.376,0,0,0-4.371,4.371,4.376,4.376,0,0,0,4.371,4.371,4.376,4.376,0,0,0,4.371-4.371A4.376,4.376,0,0,0-108.916-60.619Z" transform="translate(115.336 62.668)"/>
          </g>
        </g>
      </g>
    </g>
  </g>
</svg>
