<svg xmlns="http://www.w3.org/2000/svg" width="85" height="92" viewBox="0 0 85 92">
  <g id="_23" data-name="23" transform="translate(-600 -8710)">
    <g id="Grupo_986951" data-name="Grupo 986951" transform="translate(223 6073)">
      <rect id="Rect치ngulo_338875" data-name="Rect치ngulo 338875" width="85" height="92" rx="10" transform="translate(377 2637)" fill="#ff6e33"/>
      <g id="Rect치ngulo_344916" data-name="Rect치ngulo 344916" transform="translate(390 2649)" fill="#fff" stroke="#000" stroke-linecap="round" stroke-linejoin="round" stroke-width="2">
        <rect width="59" height="68" stroke="none"/>
        <rect x="1" y="1" width="57" height="66" fill="none"/>
      </g>
    </g>
    <g id="Layer_x0020_1" transform="translate(607.84 8720.662)">
      <g id="_319620264" transform="translate(10.16 11.338)">
        <g id="Grupo_987014" data-name="Grupo 987014" transform="translate(0 3.262)">
          <path id="_319622736" d="M59.351,32.187H10.7a.543.543,0,1,1,0-1.086H59.351a.543.543,0,1,1,0,1.086Z" transform="translate(-10.16 -27.943)" fill="#1865c1" fill-rule="evenodd"/>
          <path id="_319622664" d="M59.351,64.124H10.7a.543.543,0,0,1,0-1.086H59.351a.543.543,0,0,1,0,1.086Z" transform="translate(-10.16 -49.503)" fill="#1865c1" fill-rule="evenodd"/>
          <path id="_319622184" d="M28.879,28.782a.543.543,0,0,1-.432-.871l4.784-6.317a.543.543,0,0,1,.866.656l-4.784,6.317A.542.542,0,0,1,28.879,28.782Z" transform="translate(-22.431 -21.379)" fill="#1865c1" fill-rule="evenodd"/>
          <path id="_319622784" d="M33.664,28.782a.542.542,0,0,1-.433-.215L28.446,22.25a.543.543,0,1,1,.866-.655L34.1,27.911a.543.543,0,0,1-.432.871Z" transform="translate(-22.431 -21.379)" fill="#1865c1" fill-rule="evenodd"/>
          <path id="_319622568" d="M61.764,28.782a.543.543,0,0,1-.432-.871l4.784-6.317a.543.543,0,0,1,.866.656L62.2,28.567A.542.542,0,0,1,61.764,28.782Z" transform="translate(-44.632 -21.379)" fill="#1865c1" fill-rule="evenodd"/>
          <path id="_319622640" d="M66.549,28.782a.543.543,0,0,1-.433-.215L61.332,22.25a.543.543,0,1,1,.866-.655l4.784,6.317a.543.543,0,0,1-.432.871Z" transform="translate(-44.632 -21.379)" fill="#1865c1" fill-rule="evenodd"/>
          <path id="_319622304" d="M94.65,28.782a.543.543,0,0,1-.432-.871L99,21.595a.543.543,0,0,1,.866.656l-4.784,6.317A.542.542,0,0,1,94.65,28.782Z" transform="translate(-66.833 -21.379)" fill="#1865c1" fill-rule="evenodd"/>
          <path id="_319621560" d="M99.435,28.782A.542.542,0,0,1,99,28.567L94.217,22.25a.543.543,0,0,1,.866-.655l4.784,6.317a.543.543,0,0,1-.432.871Z" transform="translate(-66.833 -21.379)" fill="#1865c1" fill-rule="evenodd"/>
          <path id="_319621416" d="M127.535,28.782a.543.543,0,0,1-.432-.871l4.784-6.317a.543.543,0,0,1,.866.656l-4.784,6.317A.542.542,0,0,1,127.535,28.782Z" transform="translate(-89.034 -21.379)" fill="#1865c1" fill-rule="evenodd"/>
          <path id="_319621920" d="M132.321,28.782a.542.542,0,0,1-.433-.215L127.1,22.25a.543.543,0,1,1,.866-.655l4.784,6.317a.543.543,0,0,1-.432.871Z" transform="translate(-89.035 -21.379)" fill="#1865c1" fill-rule="evenodd"/>
          <path id="_319622160" d="M28.879,60.979a.543.543,0,0,1-.432-.871l4.784-6.317a.543.543,0,1,1,.866.656l-4.784,6.317A.542.542,0,0,1,28.879,60.979Z" transform="translate(-22.431 -43.116)" fill="#1865c1" fill-rule="evenodd"/>
          <path id="_319621776" d="M33.664,60.979a.542.542,0,0,1-.433-.215l-4.784-6.317a.543.543,0,1,1,.866-.656L34.1,60.109a.543.543,0,0,1-.432.871Z" transform="translate(-22.431 -43.116)" fill="#1865c1" fill-rule="evenodd"/>
          <path id="_319622088" d="M61.764,60.979a.543.543,0,0,1-.432-.871l4.784-6.317a.543.543,0,0,1,.866.656L62.2,60.764A.542.542,0,0,1,61.764,60.979Z" transform="translate(-44.632 -43.116)" fill="#1865c1" fill-rule="evenodd"/>
          <path id="_319621440" d="M66.549,60.979a.542.542,0,0,1-.433-.215l-4.784-6.317a.543.543,0,1,1,.866-.656l4.784,6.317a.543.543,0,0,1-.432.871Z" transform="translate(-44.632 -43.116)" fill="#1865c1" fill-rule="evenodd"/>
          <path id="_319621872" d="M94.65,60.979a.543.543,0,0,1-.432-.871L99,53.792a.543.543,0,0,1,.866.656l-4.784,6.317A.542.542,0,0,1,94.65,60.979Z" transform="translate(-66.833 -43.116)" fill="#1865c1" fill-rule="evenodd"/>
          <path id="_319621632" d="M99.435,60.979A.542.542,0,0,1,99,60.764l-4.784-6.317a.543.543,0,1,1,.866-.656l4.784,6.317a.543.543,0,0,1-.432.871Z" transform="translate(-66.833 -43.116)" fill="#1865c1" fill-rule="evenodd"/>
          <path id="_319621992" d="M127.535,60.979a.543.543,0,0,1-.432-.871l4.784-6.317a.543.543,0,0,1,.866.656l-4.784,6.317A.542.542,0,0,1,127.535,60.979Z" transform="translate(-89.034 -43.116)" fill="#1865c1" fill-rule="evenodd"/>
          <path id="_319621704" d="M132.321,60.979a.542.542,0,0,1-.433-.215L127.1,54.447a.543.543,0,1,1,.866-.656l4.784,6.317a.543.543,0,0,1-.432.871Z" transform="translate(-89.035 -43.116)" fill="#1865c1" fill-rule="evenodd"/>
        </g>
        <path id="_319621224" d="M11.246,107.466H58.808V83.887H11.246Zm48.105,1.086H10.7a.543.543,0,0,1-.543-.543V83.344A.543.543,0,0,1,10.7,82.8H59.351a.543.543,0,0,1,.543.543v24.665a.543.543,0,0,1-.543.543Z" transform="translate(-10.16 -59.583)" fill="#db4437" fill-rule="evenodd"/>
        <path id="_319621200" d="M135.482,151.26a.543.543,0,0,1-.543-.543v-4.111a.543.543,0,1,1,1.086,0v4.111a.543.543,0,0,1-.543.543Z" transform="translate(-94.399 -102.291)" fill="#db4437" fill-rule="evenodd"/>
        <path id="_319621008" d="M110.527,92.108a.543.543,0,0,1-.543-.543V83.344a.543.543,0,0,1,1.086,0v8.221A.543.543,0,0,1,110.527,92.108Z" transform="translate(-77.552 -59.583)" fill="#db4437" fill-rule="evenodd"/>
        <path id="_319620912" d="M85.571,125.635a.543.543,0,0,1-.543-.543V108.649a.543.543,0,1,1,1.086,0v16.443A.543.543,0,0,1,85.571,125.635Z" transform="translate(-60.704 -76.666)" fill="#db4437" fill-rule="evenodd"/>
        <path id="_319621152" d="M60.615,108.552a.543.543,0,0,1-.543-.543V83.344a.543.543,0,0,1,1.086,0v24.665a.543.543,0,0,1-.543.543Z" transform="translate(-43.856 -59.583)" fill="#db4437" fill-rule="evenodd"/>
        <path id="_319620696" d="M35.659,142.718a.543.543,0,0,1-.543-.543v-8.222a.543.543,0,1,1,1.086,0v8.222a.543.543,0,0,1-.543.543Z" transform="translate(-27.008 -93.75)" fill="#db4437" fill-rule="evenodd"/>
        <path id="_319621056" d="M59.351,96.54H10.7a.543.543,0,0,1,0-1.086H59.351a.543.543,0,0,1,0,1.086Z" transform="translate(-10.16 -68.125)" fill="#db4437" fill-rule="evenodd"/>
        <path id="_319620720" d="M59.351,109.192H10.7a.543.543,0,1,1,0-1.086H59.351a.543.543,0,0,1,0,1.086Z" transform="translate(-10.16 -76.666)" fill="#db4437" fill-rule="evenodd"/>
        <path id="_319620936" d="M59.351,121.844H10.7a.543.543,0,0,1,0-1.086H59.351a.543.543,0,0,1,0,1.086Z" transform="translate(-10.16 -85.208)" fill="#db4437" fill-rule="evenodd"/>
        <path id="_319620768" d="M59.351,134.5H10.7a.543.543,0,1,1,0-1.086H59.351a.543.543,0,0,1,0,1.086Z" transform="translate(-10.16 -93.75)" fill="#db4437" fill-rule="evenodd"/>
        <path id="_319620504" d="M59.351,147.149H10.7a.543.543,0,1,1,0-1.086H59.351a.543.543,0,0,1,0,1.086Z" transform="translate(-10.16 -102.291)" fill="#db4437" fill-rule="evenodd"/>
        <path id="_319620456" d="M135.482,92.109a.543.543,0,0,1-.543-.543V83.344a.543.543,0,0,1,1.086,0v8.221A.543.543,0,0,1,135.482,92.109Z" transform="translate(-94.399 -59.583)" fill="#db4437" fill-rule="evenodd"/>
        <path id="_319620216" d="M135.482,125.955a.543.543,0,0,1-.543-.543V121.3a.543.543,0,0,1,1.086,0v4.111a.543.543,0,0,1-.543.543Z" transform="translate(-94.399 -85.208)" fill="#db4437" fill-rule="evenodd"/>
        <path id="_319619928" d="M110.527,113.3a.543.543,0,0,1-.543-.543v-4.111a.543.543,0,0,1,1.086,0v4.111a.543.543,0,0,1-.543.543Z" transform="translate(-77.552 -76.667)" fill="#db4437" fill-rule="evenodd"/>
        <path id="_319620144" d="M35.659,113.3a.543.543,0,0,1-.543-.543v-4.111a.543.543,0,0,1,1.086,0v4.111a.543.543,0,0,1-.543.543Z" transform="translate(-27.008 -76.667)" fill="#db4437" fill-rule="evenodd"/>
        <path id="_319620528" d="M110.527,138.607a.543.543,0,0,1-.543-.543v-4.111a.543.543,0,0,1,1.086,0v4.111A.543.543,0,0,1,110.527,138.607Z" transform="translate(-77.552 -93.75)" fill="#db4437" fill-rule="evenodd"/>
        <path id="_319620360" d="M160.438,35.642a.543.543,0,0,1-.543-.543V11.881a.543.543,0,0,1,1.086,0V35.1a.543.543,0,0,1-.543.543Z" transform="translate(-111.247 -11.338)" fill="#db4437" fill-rule="evenodd"/>
        <path id="_319620336" d="M10.7,35.642a.543.543,0,0,1-.543-.543V11.881a.543.543,0,0,1,1.086,0V35.1A.543.543,0,0,1,10.7,35.642Z" transform="translate(-10.16 -11.338)" fill="#db4437" fill-rule="evenodd"/>
      </g>
    </g>
  </g>
</svg>
