<svg xmlns="http://www.w3.org/2000/svg" width="425" height="46.301" viewBox="0 0 425 46.301">
  <g id="Grupo_987040" data-name="Grupo 987040" transform="translate(-337.558 -7292.602)">
    <line id="Línea_167" data-name="Línea 167" x2="198.448" transform="translate(564.11 7315.752)" fill="none" stroke="#9f0925" stroke-width="1"/>
    <path id="Trazado_732487" data-name="Trazado 732487" d="M9.263,6.783l-3.077.451.059.294c.157-.02.392-.059.529-.059.451,0,.608.2.608.431a1.985,1.985,0,0,1-.059.47l-2.509,10a2.656,2.656,0,0,0-.118.706c0,.49.176,1,.764,1,1.137,0,1.98-1.294,2.646-2.078l-.314-.235c-.176.314-.764,1.078-1.215,1.078a.231.231,0,0,1-.235-.255.98.98,0,0,1,.02-.216Zm9.369,7.468a2.713,2.713,0,0,0-2.881-3.018c-2.9,0-4.92,3.156-4.92,5.664,0,1.431.666,3.195,2.646,3.195C16.476,20.091,18.632,16.975,18.632,14.251Zm-1.588-.608c0,1.49-1.392,5.86-3.469,5.86-1.1,0-1.156-1.45-1.156-2.1,0-2.666,1.705-5.586,3.312-5.586C16.77,11.82,17.044,12.9,17.044,13.643Zm11.133,4.351-.255-.216c-.274.333-.745,1.039-1.215,1.039a.284.284,0,0,1-.294-.274.492.492,0,0,1,.02-.2l1.156-4.528a5.749,5.749,0,0,0,.216-1.372c0-.647-.235-1.215-1.1-1.215-1.176,0-2.352,1.294-3.136,2.274a13.164,13.164,0,0,1-1.1,1.431h-.059l1-3.7-3.116.451.039.294a3.925,3.925,0,0,1,.549-.059c.529,0,.588.274.588.627l-1.862,7.33h1.509l.647-2.43A11.929,11.929,0,0,1,23.1,15.054c.608-.921,1.842-2.607,2.587-2.607.353,0,.47.372.47.745a3.975,3.975,0,0,1-.137.823L24.9,18.347a3.275,3.275,0,0,0-.137.784c0,.451.176.9.8.9,1.019,0,1.96-1.254,2.509-1.921Zm10.231-6.213h-2.47a2.493,2.493,0,0,0-1.725-.549,3.246,3.246,0,0,0-3.41,3.1,2.138,2.138,0,0,0,1.842,2.136v.078a1.809,1.809,0,0,0-1.666,1.705,1.083,1.083,0,0,0,.47.921c-1.215.392-2.293.98-2.293,2.117s.98,2.254,3.606,2.254c2.92,0,4.214-1.568,4.214-2.96,0-2.45-4.567-1.666-4.567-2.9,0-.49.568-.98,1.725-1.137a2.922,2.922,0,0,0,2.764-2.9,1.3,1.3,0,0,0-.333-.98h1.588Zm-3.058,1.254c0,1.1-.49,3.1-1.882,3.1-.862,0-1.1-.686-1.1-1.588,0-1.333.862-2.724,1.921-2.724C35.155,11.82,35.351,12.31,35.351,13.035Zm.255,8.193c0,.862-.706,1.764-2.489,1.764-1.862,0-2.724-.98-2.724-1.9a1.965,1.965,0,0,1,.941-1.411c.157-.118.353-.216.51-.314C33.018,19.8,35.606,19.7,35.606,21.228Zm7.84-12.446A1,1,0,0,0,42.5,7.8a.961.961,0,0,0-.941.98.886.886,0,0,0,.941.9A.921.921,0,0,0,43.445,8.782Zm-.588,2.45-3.1.431.059.314a2.314,2.314,0,0,1,.549-.078c.451,0,.608.1.608.431a.842.842,0,0,1-.039.235c-1.548,6.017-1.548,6.39-1.548,6.625,0,.529.235.9.784.9.96,0,1.94-1.176,2.626-2.058l-.255-.2c-.706.764-.823,1-1.254,1-.137,0-.255-.059-.255-.2a1.49,1.49,0,0,1,.02-.274Zm7.193.059H48.679l.608-2.528h-.255a4.469,4.469,0,0,1-3.469,2.7l-.1.568h1.509l-1.588,6.272a2.819,2.819,0,0,0-.1.725c0,.529.157,1.019.764,1.019,1.156,0,2.136-1.49,2.607-2.1l-.255-.216c-.725.98-1.176,1.019-1.176,1.019-.255,0-.314-.118-.314-.235a.834.834,0,0,1,.039-.216l1.529-6.272h1.372Zm9.29.2H57.832l-.412,1.47a14.2,14.2,0,0,1-2.136,4.292c-.686.9-1.47,1.509-1.96,1.509-.353,0-.51-.255-.51-.666a2.058,2.058,0,0,1,.059-.47l1.646-6.39-3.077.51.059.294a2.26,2.26,0,0,1,.51-.059c.431,0,.647.216.647.451a2.9,2.9,0,0,1-.118.49l-1.156,4.528a4.452,4.452,0,0,0-.157,1.156c0,.745.274,1.45,1.2,1.45a2.511,2.511,0,0,0,1.411-.549,33.238,33.238,0,0,0,2.685-3.058h.02l-.51,1.862a3.4,3.4,0,0,0-.078.725c0,.647.216,1.019.784,1.019,1.137,0,2.136-1.45,2.587-2.1l-.255-.216-.1.118c-.333.392-.706.9-1.117.9a.248.248,0,0,1-.274-.274.6.6,0,0,1,.02-.176Zm10.917-4.7-3.058.47.078.294a3.963,3.963,0,0,1,.529-.059c.51,0,.647.137.647.392a.984.984,0,0,1-.039.235l-1.039,4.1h-.039c-.02-.47-.47-.98-1.588-.98-3.018,0-5.037,4.371-5.037,6.39,0,1.039.294,2.489,1.725,2.489.725,0,1.9-.235,3.352-2.058h.1a4.263,4.263,0,0,0-.2,1.254.729.729,0,0,0,.784.8c.921,0,1.96-1.176,2.548-2.058l-.216-.235c-.274.412-.823,1.1-1.215,1.1q-.294,0-.294-.176a.984.984,0,0,1,.039-.235Zm-3.214,6.429a7.2,7.2,0,0,1-.314,2.058c-.549,1.8-1.842,3.646-3.214,3.646-.549,0-1.1-.333-1.1-1.294,0-1.882,1.588-5.8,3.528-5.8C66.75,11.82,67.044,12.291,67.044,13.212ZM85.556,6.783l-3.058.47.078.294a3.963,3.963,0,0,1,.529-.059c.51,0,.647.137.647.392a.984.984,0,0,1-.039.235l-1.039,4.1h-.039c-.02-.47-.47-.98-1.588-.98-3.018,0-5.037,4.371-5.037,6.39,0,1.039.294,2.489,1.725,2.489.725,0,1.9-.235,3.352-2.058h.1a4.263,4.263,0,0,0-.2,1.254.729.729,0,0,0,.784.8c.921,0,1.96-1.176,2.548-2.058l-.216-.235c-.274.412-.823,1.1-1.215,1.1q-.294,0-.294-.176a.984.984,0,0,1,.039-.235Zm-3.214,6.429a7.2,7.2,0,0,1-.314,2.058c-.549,1.8-1.842,3.646-3.214,3.646-.549,0-1.1-.333-1.1-1.294,0-1.882,1.588-5.8,3.528-5.8C82.048,11.82,82.342,12.291,82.342,13.212ZM92.769,17.68a3.126,3.126,0,0,1-2.47,1.254,2.115,2.115,0,0,1-2.215-2.1v-.549c2.332-.118,5.606-1.078,5.606-3.567,0-1.215-1.176-1.49-2-1.49-2.489,0-4.645,2.45-5.135,4.626a4.793,4.793,0,0,0-.118,1.176,2.768,2.768,0,0,0,2.685,3.058,4.916,4.916,0,0,0,3.92-2.156Zm-4.684-1.94c.568-1.666,1.744-3.92,3.195-3.92a.829.829,0,0,1,.862.843c0,1.725-1.842,3.077-3.881,3.077Zm18.278,1.96a4,4,0,0,1-2.783,1.313c-.882,0-1.842-.431-1.842-2.136,0-1.568,1.117-5.076,3.45-5.076.47,0,.666.176.666.412,0,.431-.568.666-.568,1.137a.729.729,0,0,0,.745.745c.745,0,1.058-.627,1.058-1.372,0-.96-.921-1.49-1.9-1.49-2.783,0-5.155,3.077-5.155,5.821,0,1.509.784,3.038,2.685,3.038a5.093,5.093,0,0,0,3.881-2.136Zm9.722-6.213h-1.509l-.412,1.47a14.2,14.2,0,0,1-2.136,4.292c-.686.9-1.47,1.509-1.96,1.509-.353,0-.51-.255-.51-.666a2.058,2.058,0,0,1,.059-.47l1.646-6.39-3.077.51.059.294a2.26,2.26,0,0,1,.51-.059c.431,0,.647.216.647.451a2.9,2.9,0,0,1-.118.49l-1.156,4.528a4.452,4.452,0,0,0-.157,1.156c0,.745.274,1.45,1.2,1.45a2.511,2.511,0,0,0,1.411-.549,33.239,33.239,0,0,0,2.685-3.058h.02l-.51,1.862a3.4,3.4,0,0,0-.078.725c0,.647.216,1.019.784,1.019,1.137,0,2.136-1.45,2.587-2.1l-.255-.216-.1.118c-.333.392-.706.9-1.117.9a.248.248,0,0,1-.274-.274.6.6,0,0,1,.02-.176Zm7.7,6.194a3.126,3.126,0,0,1-2.47,1.254,2.115,2.115,0,0,1-2.215-2.1v-.549c2.332-.118,5.606-1.078,5.606-3.567,0-1.215-1.176-1.49-2-1.49-2.489,0-4.645,2.45-5.135,4.626a4.793,4.793,0,0,0-.118,1.176,2.768,2.768,0,0,0,2.685,3.058,4.916,4.916,0,0,0,3.92-2.156ZM119.1,15.74c.568-1.666,1.744-3.92,3.195-3.92a.829.829,0,0,1,.862.843c0,1.725-1.842,3.077-3.881,3.077Zm9.722-1.1.9-3.41-3.077.451.039.294a4.367,4.367,0,0,1,.529-.059c.431,0,.647.118.647.372a1.776,1.776,0,0,1-.078.451l-1.8,7.134h1.509l.412-1.49c.1-.333,1.8-5.351,3-5.351.353,0,.157.745.921.745.8,0,1.274-.862,1.274-1.607a.845.845,0,0,0-.862-.941c-1.078,0-2.019,1.274-2.685,2.332-.216.353-.451.745-.627,1.1Zm14.9-7.86-3.058.47.078.294a3.963,3.963,0,0,1,.529-.059c.51,0,.647.137.647.392a.984.984,0,0,1-.039.235l-1.039,4.1H140.8c-.02-.47-.47-.98-1.588-.98-3.018,0-5.037,4.371-5.037,6.39,0,1.039.294,2.489,1.725,2.489.725,0,1.9-.235,3.352-2.058h.1a4.263,4.263,0,0,0-.2,1.254.729.729,0,0,0,.784.8c.921,0,1.96-1.176,2.548-2.058l-.216-.235c-.274.412-.823,1.1-1.215,1.1q-.294,0-.294-.176a.984.984,0,0,1,.039-.235Zm-3.214,6.429a7.2,7.2,0,0,1-.314,2.058c-.549,1.8-1.842,3.646-3.214,3.646-.549,0-1.1-.333-1.1-1.294,0-1.882,1.588-5.8,3.528-5.8C140.211,11.82,140.505,12.291,140.505,13.212Zm12.564-1.725H151.5l-.176.647h-.02c-.039-.431-.451-.9-1.294-.9-2.822,0-5.41,3.92-5.41,6.507,0,1.254.51,2.332,1.744,2.332.764,0,1.98-.255,3.391-2.058h.078a4.042,4.042,0,0,0-.216.98c0,.627.176,1.078.823,1.078.941,0,2-1.176,2.607-2.1l-.235-.235c-.764,1.019-1.058,1.058-1.254,1.058-.157,0-.274-.118-.274-.333a.622.622,0,0,1,.02-.216Zm-2.058,1.705a7.358,7.358,0,0,1-.294,1.96c-.549,1.862-1.921,3.724-3.273,3.724-.529,0-1.137-.255-1.137-1.294a6.888,6.888,0,0,1,.549-2.43c.666-1.646,1.842-3.352,3.175-3.352C150.776,11.8,151.011,12.389,151.011,13.192Zm8.78,1.028a12.81,12.81,0,0,1,1.522-6.441,8.808,8.808,0,0,1,3.2-3.56l.057.01.364,1.11a8.165,8.165,0,0,0-2.283,3.283,14.137,14.137,0,0,0-.971,5.579v.124a14.2,14.2,0,0,0,.967,5.579,8.881,8.881,0,0,0,2.287,3.369l-.364,1.034h-.057a8.811,8.811,0,0,1-3.2-3.555,12.8,12.8,0,0,1-1.522-6.446ZM178.1,17.778c-.372.725-.882,1.039-1.215,1.039-.176,0-.294-.078-.294-.235a.983.983,0,0,1,.039-.235l1.2-4.528a4.656,4.656,0,0,0,.137-1.2c0-.882-.353-1.392-1.058-1.392a2.082,2.082,0,0,0-1.2.431,9.227,9.227,0,0,0-2.548,2.881h-.1l.2-.706a3.379,3.379,0,0,0,.176-1.019c0-.862-.353-1.588-1.078-1.588-.745,0-1.921.51-3.763,3.312h-.118l.862-3.312-3.077.47.039.274a4.805,4.805,0,0,1,.529-.039c.529,0,.647.255.647.608l-1.862,7.33h1.529l.686-2.646c.314-1.2,2.47-4.743,3.489-4.743.353,0,.451.353.451.745a3.857,3.857,0,0,1-.1.784l-1.509,5.86h1.548l.666-2.646c.294-1.2,2.45-4.743,3.508-4.743.353,0,.47.353.47.745a2.44,2.44,0,0,1-.118.784l-1.1,4.332a2.988,2.988,0,0,0-.118.725c0,.764.333.96.764.96.921,0,1.94-.98,2.568-2.038Zm6.039-3.473a12.772,12.772,0,0,1-1.526,6.446,8.874,8.874,0,0,1-3.192,3.555h-.057L179,23.273a8.15,8.15,0,0,0,2.273-3.307,14.392,14.392,0,0,0,.981-5.642V14.2a13.909,13.909,0,0,0-1.01-5.584A9.227,9.227,0,0,0,179,5.252l.364-1.034h.057a8.87,8.87,0,0,1,3.192,3.56,12.778,12.778,0,0,1,1.526,6.441Z" transform="translate(565.779 7288.383)" fill="#9f0925"/>
    <path id="Trazado_732486" data-name="Trazado 732486" d="M73.769-9.923H62.029l-.9,3.508h.314A3.49,3.49,0,0,1,64.792-9.2h1.784L63.969,1.347c-.157.666-.549,1.215-2.078,1.215h-.353l-.078.314h6.448l.078-.314h-.412c-1.176,0-1.49-.314-1.49-.725a2.173,2.173,0,0,1,.1-.49L68.79-9.2h1.921c.8,0,1.94.1,1.94,1.392a12.146,12.146,0,0,1-.1,1.392h.314Zm2.685,1.705a1,1,0,0,0-.941-.98.961.961,0,0,0-.941.98.886.886,0,0,0,.941.9A.921.921,0,0,0,76.454-8.218Zm-.588,2.45-3.1.431.059.314a2.313,2.313,0,0,1,.549-.078c.451,0,.608.1.608.431a.843.843,0,0,1-.039.235C72.4,1.582,72.4,1.954,72.4,2.19c0,.529.235.9.784.9.96,0,1.94-1.176,2.626-2.058l-.255-.2c-.706.764-.823,1-1.254,1-.137,0-.255-.059-.255-.2a1.49,1.49,0,0,1,.02-.274ZM84.627.68a3.126,3.126,0,0,1-2.47,1.254,2.114,2.114,0,0,1-2.215-2.1V-.711c2.332-.118,5.606-1.078,5.606-3.567,0-1.215-1.176-1.49-2-1.49-2.489,0-4.645,2.45-5.135,4.626A4.793,4.793,0,0,0,78.3.034a2.768,2.768,0,0,0,2.685,3.058A4.916,4.916,0,0,0,84.9.935ZM79.943-1.26c.568-1.666,1.744-3.92,3.195-3.92A.829.829,0,0,1,84-4.337c0,1.725-1.842,3.077-3.881,3.077ZM99.307.778c-.372.725-.882,1.039-1.215,1.039-.176,0-.294-.078-.294-.235a.984.984,0,0,1,.039-.235l1.2-4.528a4.657,4.657,0,0,0,.137-1.2c0-.882-.353-1.392-1.058-1.392a2.082,2.082,0,0,0-1.2.431,9.227,9.227,0,0,0-2.548,2.881h-.1l.2-.706a3.378,3.378,0,0,0,.176-1.019c0-.862-.353-1.588-1.078-1.588-.745,0-1.921.51-3.763,3.312h-.118l.862-3.312-3.077.47.039.274a4.805,4.805,0,0,1,.529-.039c.529,0,.647.255.647.608l-1.862,7.33h1.529L89.037.23c.314-1.2,2.47-4.743,3.489-4.743.353,0,.451.353.451.745a3.857,3.857,0,0,1-.1.784l-1.509,5.86h1.548L93.584.23c.294-1.2,2.45-4.743,3.508-4.743.353,0,.47.353.47.745a2.44,2.44,0,0,1-.118.784l-1.1,4.332a2.989,2.989,0,0,0-.118.725c0,.764.333.96.764.96.921,0,1.94-.98,2.568-2.038Zm5.8-5.155-.059-.039.353-1.352-3.1.47.039.314a2.647,2.647,0,0,1,.549-.078c.588,0,.608.274.608.647l-2.293,9.094c-.235.9-.372,1.49-1.588,1.548l-.059.235h4.586l.059-.235h-.314c-.98,0-1.2-.412-1.2-.843a3.041,3.041,0,0,1,.1-.686l.47-1.96a1.745,1.745,0,0,0,1.2.372c2.822,0,4.978-3.312,4.978-5.841,0-1.98-.647-3.038-1.842-3.038a3.458,3.458,0,0,0-2.215,1.137Zm-.764,2.587c.392-1.686,1.411-2.881,2.45-2.881.451,0,1,.392,1,1.627,0,2.2-1.47,5.586-3.45,5.586a1.25,1.25,0,0,1-.9-.412Zm13.975-.96a2.713,2.713,0,0,0-2.881-3.018c-2.9,0-4.92,3.156-4.92,5.664,0,1.431.666,3.195,2.646,3.195C116.163,3.091,118.319-.025,118.319-2.749Zm-1.588-.608c0,1.49-1.392,5.86-3.469,5.86-1.1,0-1.156-1.45-1.156-2.1,0-2.666,1.705-5.586,3.312-5.586C116.457-5.18,116.732-4.1,116.732-3.357Zm11.81-1.019-.059-.039.353-1.352-3.1.47.039.314a2.647,2.647,0,0,1,.549-.078c.588,0,.608.274.608.647l-2.293,9.094c-.235.9-.372,1.49-1.588,1.548l-.059.235h4.586l.059-.235h-.314c-.98,0-1.2-.412-1.2-.843a3.041,3.041,0,0,1,.1-.686l.47-1.96a1.745,1.745,0,0,0,1.2.372c2.822,0,4.978-3.312,4.978-5.841,0-1.98-.647-3.038-1.842-3.038a3.458,3.458,0,0,0-2.215,1.137Zm-.764,2.587c.392-1.686,1.411-2.881,2.45-2.881.451,0,1,.392,1,1.627,0,2.2-1.47,5.586-3.45,5.586a1.25,1.25,0,0,1-.9-.412Zm13.975-.96a2.713,2.713,0,0,0-2.881-3.018c-2.9,0-4.92,3.156-4.92,5.664,0,1.431.666,3.195,2.646,3.195C139.6,3.091,141.752-.025,141.752-2.749Zm-1.588-.608c0,1.49-1.392,5.86-3.469,5.86-1.1,0-1.156-1.45-1.156-2.1,0-2.666,1.705-5.586,3.312-5.586C139.89-5.18,140.164-4.1,140.164-3.357Zm5.41,1,.9-3.41-3.077.451.039.294a4.367,4.367,0,0,1,.529-.059c.431,0,.647.118.647.372a1.776,1.776,0,0,1-.078.451l-1.8,7.134h1.509l.412-1.49c.1-.333,1.8-5.351,3-5.351.353,0,.157.745.921.745.8,0,1.274-.862,1.274-1.607a.845.845,0,0,0-.862-.941c-1.078,0-2.019,1.274-2.685,2.332-.216.353-.451.745-.627,1.1Zm14.279-3.665-.078-.078a18.547,18.547,0,0,1-3.058.823v.294c.255,0,1.117,0,1.117.392a2.173,2.173,0,0,1-.1.49L156.6.014a4.239,4.239,0,0,0-.176,1.215c0,1.431,1.019,1.823,2.274,1.823a4.936,4.936,0,0,0,3.8-2.038,9.625,9.625,0,0,0,1.9-5.488c0-.627-.1-1.627-.921-1.627-.568,0-1.058.157-1.058.823,0,.862,1.2.686,1.2,2.136a4.662,4.662,0,0,1-.294,1.45c-.627,1.764-2,3.979-4.116,3.979A1.145,1.145,0,0,1,158.03.994a2.2,2.2,0,0,1,.078-.627Zm13.779.51h-1.509l-.412,1.47A14.2,14.2,0,0,1,169.574.249c-.686.9-1.47,1.509-1.96,1.509-.353,0-.51-.255-.51-.666a2.058,2.058,0,0,1,.059-.47l1.646-6.39-3.077.51.059.294a2.26,2.26,0,0,1,.51-.059c.431,0,.647.216.647.451a2.9,2.9,0,0,1-.118.49L165.674.445a4.452,4.452,0,0,0-.157,1.156c0,.745.274,1.45,1.2,1.45a2.511,2.511,0,0,0,1.411-.549,33.238,33.238,0,0,0,2.685-3.058h.02l-.51,1.862a3.4,3.4,0,0,0-.078.725c0,.647.216,1.019.784,1.019,1.137,0,2.136-1.45,2.587-2.1l-.255-.216-.1.118c-.333.392-.706.9-1.117.9a.248.248,0,0,1-.274-.274.6.6,0,0,1,.02-.176Zm7.7,6.194a3.126,3.126,0,0,1-2.47,1.254,2.115,2.115,0,0,1-2.215-2.1V-.711c2.332-.118,5.606-1.078,5.606-3.567,0-1.215-1.176-1.49-2-1.49-2.489,0-4.645,2.45-5.135,4.626A4.794,4.794,0,0,0,175,.034a2.768,2.768,0,0,0,2.685,3.058,4.916,4.916,0,0,0,3.92-2.156ZM176.65-1.26c.568-1.666,1.744-3.92,3.195-3.92a.829.829,0,0,1,.862.843c0,1.725-1.842,3.077-3.881,3.077Zm11.74-8.957-3.077.451.059.294c.157-.02.392-.059.529-.059.451,0,.608.2.608.431a1.984,1.984,0,0,1-.059.47l-2.509,10a2.657,2.657,0,0,0-.118.706c0,.49.176,1,.764,1,1.137,0,1.98-1.294,2.646-2.078L186.92.759c-.176.314-.764,1.078-1.215,1.078a.231.231,0,0,1-.235-.255.979.979,0,0,1,.02-.216Zm6.331,4.508h-1.372l.608-2.528H193.7a4.469,4.469,0,0,1-3.469,2.7l-.1.568h1.509l-1.588,6.272a2.819,2.819,0,0,0-.1.725c0,.529.157,1.019.764,1.019,1.156,0,2.136-1.49,2.607-2.1l-.255-.216c-.725.98-1.176,1.019-1.176,1.019-.255,0-.314-.118-.314-.235a.833.833,0,0,1,.039-.216l1.529-6.272h1.372Zm9.839.2h-1.568l-.176.647h-.02c-.039-.431-.451-.9-1.294-.9-2.822,0-5.41,3.92-5.41,6.507,0,1.254.51,2.332,1.744,2.332.764,0,1.98-.255,3.391-2.058h.078a4.041,4.041,0,0,0-.216.98c0,.627.176,1.078.823,1.078.941,0,2-1.176,2.607-2.1l-.235-.235c-.764,1.019-1.058,1.058-1.254,1.058-.157,0-.274-.118-.274-.333a.623.623,0,0,1,.02-.216ZM202.5-3.808a7.358,7.358,0,0,1-.294,1.96c-.549,1.862-1.921,3.724-3.273,3.724-.529,0-1.137-.255-1.137-1.294a6.888,6.888,0,0,1,.549-2.43c.666-1.646,1.842-3.352,3.175-3.352C202.267-5.2,202.5-4.611,202.5-3.808Zm8.78,1.028A12.81,12.81,0,0,1,212.8-9.221a8.808,8.808,0,0,1,3.2-3.56l.057.01.364,1.11a8.165,8.165,0,0,0-2.283,3.283,14.137,14.137,0,0,0-.971,5.579v.124a14.2,14.2,0,0,0,.967,5.579,8.882,8.882,0,0,0,2.287,3.369l-.364,1.034H216a8.812,8.812,0,0,1-3.2-3.555,12.8,12.8,0,0,1-1.522-6.446ZM234.462.778c-.372.725-.882,1.039-1.215,1.039-.176,0-.294-.078-.294-.235a.983.983,0,0,1,.039-.235l1.2-4.528a4.656,4.656,0,0,0,.137-1.2c0-.882-.353-1.392-1.058-1.392a2.082,2.082,0,0,0-1.2.431,9.227,9.227,0,0,0-2.548,2.881h-.1l.2-.706A3.379,3.379,0,0,0,229.8-4.18c0-.862-.353-1.588-1.078-1.588-.745,0-1.921.51-3.763,3.312h-.118l.862-3.312-3.077.47.039.274a4.806,4.806,0,0,1,.529-.039c.529,0,.647.255.647.608l-1.862,7.33h1.529L224.191.23c.314-1.2,2.47-4.743,3.489-4.743.353,0,.451.353.451.745a3.857,3.857,0,0,1-.1.784l-1.509,5.86h1.548L228.739.23c.294-1.2,2.45-4.743,3.508-4.743.353,0,.47.353.47.745a2.44,2.44,0,0,1-.118.784l-1.1,4.332a2.988,2.988,0,0,0-.118.725c0,.764.333.96.764.96.921,0,1.94-.98,2.568-2.038Zm5.88-9a1,1,0,0,0-.941-.98.961.961,0,0,0-.941.98.886.886,0,0,0,.941.9A.921.921,0,0,0,240.342-8.218Zm-.588,2.45-3.1.431.059.314a2.314,2.314,0,0,1,.549-.078c.451,0,.608.1.608.431a.842.842,0,0,1-.039.235c-1.548,6.017-1.548,6.39-1.548,6.625,0,.529.235.9.784.9.96,0,1.94-1.176,2.626-2.058l-.255-.2c-.706.764-.823,1-1.254,1-.137,0-.255-.059-.255-.2a1.49,1.49,0,0,1,.02-.274Zm10.8,6.762L250.3.778c-.274.333-.745,1.039-1.215,1.039a.284.284,0,0,1-.294-.274.491.491,0,0,1,.02-.2l1.156-4.528a5.748,5.748,0,0,0,.216-1.372c0-.647-.235-1.215-1.1-1.215-1.176,0-2.352,1.294-3.136,2.274a13.166,13.166,0,0,1-1.1,1.431h-.059l1-3.7-3.116.451.039.294a3.924,3.924,0,0,1,.549-.059c.529,0,.588.274.588.627l-1.862,7.33H243.5l.647-2.43a11.928,11.928,0,0,1,1.333-2.391c.608-.921,1.842-2.607,2.587-2.607.353,0,.47.372.47.745a3.974,3.974,0,0,1-.137.823L247.28,1.347a3.274,3.274,0,0,0-.137.784c0,.451.176.9.8.9,1.019,0,1.96-1.254,2.509-1.921Zm5.785-3.688a12.771,12.771,0,0,1-1.526,6.446,8.874,8.874,0,0,1-3.192,3.555h-.057L251.2,6.273a8.15,8.15,0,0,0,2.273-3.307,14.392,14.392,0,0,0,.981-5.642V-2.8a13.908,13.908,0,0,0-1.01-5.584,9.227,9.227,0,0,0-2.244-3.364l.364-1.034h.057a8.87,8.87,0,0,1,3.192,3.56,12.778,12.778,0,0,1,1.526,6.441Z" transform="translate(504.602 7331.596)" fill="#9f0925"/>
    <path id="Trazado_732488" data-name="Trazado 732488" d="M-76.722-10.394h-4.724l-.078.314h.392c.745,0,1.019.137,1.019.431a2.939,2.939,0,0,1-.745,1.45l-5.488,7.174-.078-.02V-8.708c0-.647.1-1.372,1.372-1.372h.372l.078-.314h-5.762l-.078.314c1.2,0,1.94.47,1.94,1.607V2.718h.47l8.644-11.29A3.491,3.491,0,0,1-76.8-10.08ZM-73.233.21A3.126,3.126,0,0,1-75.7,1.464a2.114,2.114,0,0,1-2.215-2.1v-.549c2.332-.118,5.606-1.078,5.606-3.567,0-1.215-1.176-1.49-2-1.49-2.489,0-4.645,2.45-5.135,4.626a4.793,4.793,0,0,0-.118,1.176A2.768,2.768,0,0,0-76.879,2.62,4.916,4.916,0,0,0-72.959.464Zm-4.684-1.94c.568-1.666,1.744-3.92,3.195-3.92a.829.829,0,0,1,.862.843c0,1.725-1.842,3.077-3.881,3.077Zm11.74-8.957-3.077.451.059.294c.157-.02.392-.059.529-.059.451,0,.608.2.608.431a1.984,1.984,0,0,1-.059.47L-70.626.9a2.656,2.656,0,0,0-.118.706c0,.49.176,1,.764,1,1.137,0,1.98-1.294,2.646-2.078l-.314-.235c-.176.314-.764,1.078-1.215,1.078a.231.231,0,0,1-.235-.255A.98.98,0,0,1-69.078.9Zm9.369,7.468a2.713,2.713,0,0,0-2.881-3.018c-2.9,0-4.92,3.156-4.92,5.664,0,1.431.666,3.195,2.646,3.195C-58.964,2.62-56.808-.5-56.808-3.22ZM-58.4-3.828c0,1.49-1.392,5.86-3.469,5.86-1.1,0-1.156-1.45-1.156-2.1,0-2.666,1.705-5.586,3.312-5.586C-58.67-5.651-58.4-4.573-58.4-3.828ZM-49.3.229a4,4,0,0,1-2.783,1.313c-.882,0-1.842-.431-1.842-2.136,0-1.568,1.117-5.076,3.45-5.076.47,0,.666.176.666.412,0,.431-.568.666-.568,1.137a.729.729,0,0,0,.745.745c.745,0,1.058-.627,1.058-1.372,0-.96-.921-1.49-1.9-1.49-2.783,0-5.155,3.077-5.155,5.821,0,1.509.784,3.038,2.685,3.038A5.093,5.093,0,0,0-49.066.484Zm6.056-8.918a1,1,0,0,0-.941-.98.961.961,0,0,0-.941.98.886.886,0,0,0,.941.9A.921.921,0,0,0-43.245-8.689Zm-.588,2.45-3.1.431.059.314a2.314,2.314,0,0,1,.549-.078c.451,0,.608.1.608.431a.842.842,0,0,1-.039.235C-47.3,1.111-47.3,1.484-47.3,1.719c0,.529.235.9.784.9.96,0,1.94-1.176,2.626-2.058l-.255-.2c-.706.764-.823,1-1.254,1-.137,0-.255-.059-.255-.2A1.49,1.49,0,0,1-45.636.9Zm11.976-4.449-3.058.47.078.294a3.963,3.963,0,0,1,.529-.059c.51,0,.647.137.647.392a.984.984,0,0,1-.039.235l-1.039,4.1h-.039c-.02-.47-.47-.98-1.588-.98-3.018,0-5.037,4.371-5.037,6.39,0,1.039.294,2.489,1.725,2.489.725,0,1.9-.235,3.352-2.058h.1a4.263,4.263,0,0,0-.2,1.254.729.729,0,0,0,.784.8c.921,0,1.96-1.176,2.548-2.058l-.216-.235c-.274.412-.823,1.1-1.215,1.1q-.294,0-.294-.176a.984.984,0,0,1,.039-.235Zm-3.214,6.429A7.2,7.2,0,0,1-35.386-2.2c-.549,1.8-1.842,3.646-3.214,3.646-.549,0-1.1-.333-1.1-1.294,0-1.882,1.588-5.8,3.528-5.8C-35.366-5.651-35.072-5.18-35.072-4.259Zm12.564-1.725h-1.568l-.176.647h-.02c-.039-.431-.451-.9-1.294-.9-2.822,0-5.41,3.92-5.41,6.507,0,1.254.51,2.332,1.744,2.332.764,0,1.98-.255,3.391-2.058h.078a4.042,4.042,0,0,0-.216.98c0,.627.176,1.078.823,1.078.941,0,2-1.176,2.607-2.1l-.235-.235c-.764,1.019-1.058,1.058-1.254,1.058-.157,0-.274-.118-.274-.333a.622.622,0,0,1,.02-.216Zm-2.058,1.705a7.358,7.358,0,0,1-.294,1.96c-.549,1.862-1.921,3.724-3.273,3.724-.529,0-1.137-.255-1.137-1.294a6.888,6.888,0,0,1,.549-2.43c.666-1.646,1.842-3.352,3.175-3.352C-24.8-5.67-24.567-5.082-24.567-4.279Zm12.975-6.409-3.058.47.078.294a3.963,3.963,0,0,1,.529-.059c.51,0,.647.137.647.392a.984.984,0,0,1-.039.235l-1.039,4.1h-.039c-.02-.47-.47-.98-1.588-.98-3.018,0-5.037,4.371-5.037,6.39,0,1.039.294,2.489,1.725,2.489.725,0,1.9-.235,3.352-2.058h.1a4.263,4.263,0,0,0-.2,1.254.729.729,0,0,0,.784.8c.921,0,1.96-1.176,2.548-2.058l-.216-.235c-.274.412-.823,1.1-1.215,1.1q-.294,0-.294-.176a.984.984,0,0,1,.039-.235Zm-3.214,6.429A7.2,7.2,0,0,1-15.119-2.2c-.549,1.8-1.842,3.646-3.214,3.646-.549,0-1.1-.333-1.1-1.294,0-1.882,1.588-5.8,3.528-5.8C-15.1-5.651-14.806-5.18-14.806-4.259ZM3.707-10.688l-3.058.47.078.294a3.963,3.963,0,0,1,.529-.059c.51,0,.647.137.647.392a.984.984,0,0,1-.039.235L.826-5.259H.787c-.02-.47-.47-.98-1.588-.98-3.018,0-5.037,4.371-5.037,6.39,0,1.039.294,2.489,1.725,2.489.725,0,1.9-.235,3.352-2.058h.1a4.263,4.263,0,0,0-.2,1.254.729.729,0,0,0,.784.8c.921,0,1.96-1.176,2.548-2.058L2.257.347c-.274.412-.823,1.1-1.215,1.1q-.294,0-.294-.176a.984.984,0,0,1,.039-.235ZM.493-4.259A7.2,7.2,0,0,1,.179-2.2C-.37-.4-1.663,1.444-3.035,1.444c-.549,0-1.1-.333-1.1-1.294,0-1.882,1.588-5.8,3.528-5.8C.2-5.651.493-5.18.493-4.259ZM10.92.21A3.126,3.126,0,0,1,8.45,1.464a2.114,2.114,0,0,1-2.215-2.1v-.549C8.568-1.3,11.841-2.26,11.841-4.749c0-1.215-1.176-1.49-2-1.49-2.489,0-4.645,2.45-5.135,4.626A4.793,4.793,0,0,0,4.589-.437,2.768,2.768,0,0,0,7.274,2.62,4.916,4.916,0,0,0,11.194.464ZM6.235-1.731C6.8-3.4,7.98-5.651,9.43-5.651a.829.829,0,0,1,.862.843c0,1.725-1.842,3.077-3.881,3.077Zm16.612-8.957-3.077.451.059.294c.157-.02.392-.059.529-.059.451,0,.608.2.608.431a1.985,1.985,0,0,1-.059.47L18.4.9a2.656,2.656,0,0,0-.118.706c0,.49.176,1,.764,1,1.137,0,1.98-1.294,2.646-2.078L21.377.288C21.2.6,20.613,1.366,20.162,1.366a.231.231,0,0,1-.235-.255A.98.98,0,0,1,19.946.9Zm10.035,4.7H31.314l-.176.647h-.02c-.039-.431-.451-.9-1.294-.9-2.822,0-5.41,3.92-5.41,6.507,0,1.254.51,2.332,1.744,2.332.764,0,1.98-.255,3.391-2.058h.078a4.042,4.042,0,0,0-.216.98c0,.627.176,1.078.823,1.078.941,0,2-1.176,2.607-2.1L32.608.268c-.764,1.019-1.058,1.058-1.254,1.058-.157,0-.274-.118-.274-.333A.622.622,0,0,1,31.1.778ZM30.824-4.279a7.358,7.358,0,0,1-.294,1.96c-.549,1.862-1.921,3.724-3.273,3.724-.529,0-1.137-.255-1.137-1.294a6.888,6.888,0,0,1,.549-2.43c.666-1.646,1.842-3.352,3.175-3.352C30.589-5.67,30.824-5.082,30.824-4.279ZM45.456.229a4,4,0,0,1-2.783,1.313c-.882,0-1.842-.431-1.842-2.136,0-1.568,1.117-5.076,3.45-5.076.47,0,.666.176.666.412,0,.431-.568.666-.568,1.137a.729.729,0,0,0,.745.745c.745,0,1.058-.627,1.058-1.372,0-.96-.921-1.49-1.9-1.49-2.783,0-5.155,3.077-5.155,5.821,0,1.509.784,3.038,2.685,3.038A5.093,5.093,0,0,0,45.691.484Zm9.722-6.213H53.668l-.412,1.47A14.2,14.2,0,0,1,51.12-.222c-.686.9-1.47,1.509-1.96,1.509-.353,0-.51-.255-.51-.666a2.058,2.058,0,0,1,.059-.47l1.646-6.39-3.077.51.059.294a2.26,2.26,0,0,1,.51-.059c.431,0,.647.216.647.451a2.9,2.9,0,0,1-.118.49L47.22-.026a4.452,4.452,0,0,0-.157,1.156c0,.745.274,1.45,1.2,1.45a2.511,2.511,0,0,0,1.411-.549,33.237,33.237,0,0,0,2.685-3.058h.02L51.865.837a3.4,3.4,0,0,0-.078.725c0,.647.216,1.019.784,1.019,1.137,0,2.136-1.45,2.587-2.1L54.9.268l-.1.118c-.333.392-.706.9-1.117.9a.248.248,0,0,1-.274-.274.6.6,0,0,1,.02-.176ZM62.88.21a3.126,3.126,0,0,1-2.47,1.254A2.114,2.114,0,0,1,58.2-.633v-.549C60.528-1.3,63.8-2.26,63.8-4.749c0-1.215-1.176-1.49-2-1.49-2.489,0-4.645,2.45-5.135,4.626A4.793,4.793,0,0,0,56.55-.437,2.768,2.768,0,0,0,59.235,2.62,4.916,4.916,0,0,0,63.155.464ZM58.2-1.731c.568-1.666,1.744-3.92,3.195-3.92a.829.829,0,0,1,.862.843c0,1.725-1.842,3.077-3.881,3.077Zm9.722-1.1.9-3.41-3.077.451.039.294a4.367,4.367,0,0,1,.529-.059c.431,0,.647.118.647.372a1.776,1.776,0,0,1-.078.451L65.075,2.4h1.509L67,.915c.1-.333,1.8-5.351,3-5.351.353,0,.157.745.921.745.8,0,1.274-.862,1.274-1.607a.845.845,0,0,0-.862-.941c-1.078,0-2.019,1.274-2.685,2.332-.216.353-.451.745-.627,1.1Zm14.9-7.86-3.058.47.078.294a3.963,3.963,0,0,1,.529-.059c.51,0,.647.137.647.392a.984.984,0,0,1-.039.235l-1.039,4.1h-.039c-.02-.47-.47-.98-1.588-.98-3.018,0-5.037,4.371-5.037,6.39,0,1.039.294,2.489,1.725,2.489.725,0,1.9-.235,3.352-2.058h.1a4.263,4.263,0,0,0-.2,1.254.729.729,0,0,0,.784.8c.921,0,1.96-1.176,2.548-2.058L81.363.347c-.274.412-.823,1.1-1.215,1.1q-.294,0-.294-.176a.984.984,0,0,1,.039-.235ZM79.6-4.259A7.2,7.2,0,0,1,79.285-2.2c-.549,1.8-1.842,3.646-3.214,3.646-.549,0-1.1-.333-1.1-1.294,0-1.882,1.588-5.8,3.528-5.8C79.3-5.651,79.6-5.18,79.6-4.259ZM92.162-5.984H90.594l-.176.647H90.4c-.039-.431-.451-.9-1.294-.9-2.822,0-5.41,3.92-5.41,6.507,0,1.254.51,2.332,1.744,2.332.764,0,1.98-.255,3.391-2.058h.078a4.042,4.042,0,0,0-.216.98c0,.627.176,1.078.823,1.078.941,0,2-1.176,2.607-2.1L91.888.268c-.764,1.019-1.058,1.058-1.254,1.058-.157,0-.274-.118-.274-.333a.623.623,0,0,1,.02-.216ZM90.1-4.279a7.358,7.358,0,0,1-.294,1.96c-.549,1.862-1.921,3.724-3.273,3.724-.529,0-1.137-.255-1.137-1.294a6.888,6.888,0,0,1,.549-2.43c.666-1.646,1.842-3.352,3.175-3.352C89.869-5.67,90.1-5.082,90.1-4.279ZM110.695.308c-.372.725-.882,1.039-1.215,1.039-.176,0-.294-.078-.294-.235a.984.984,0,0,1,.039-.235l1.2-4.528a4.657,4.657,0,0,0,.137-1.2c0-.882-.353-1.392-1.058-1.392a2.082,2.082,0,0,0-1.2.431,9.227,9.227,0,0,0-2.548,2.881h-.1l.2-.706a3.378,3.378,0,0,0,.176-1.019c0-.862-.353-1.588-1.078-1.588-.745,0-1.921.51-3.763,3.312h-.118l.862-3.312-3.077.47.039.274a4.806,4.806,0,0,1,.529-.039c.529,0,.647.255.647.608L98.21,2.4h1.529l.686-2.646c.314-1.2,2.47-4.743,3.489-4.743.353,0,.451.353.451.745a3.856,3.856,0,0,1-.1.784L102.757,2.4h1.548l.666-2.646c.294-1.2,2.45-4.743,3.508-4.743.353,0,.47.353.47.745a2.44,2.44,0,0,1-.118.784l-1.1,4.332a2.989,2.989,0,0,0-.118.725c0,.764.333.96.764.96.921,0,1.94-.98,2.568-2.038Zm15.15-5.779h-7.982v-1.57h7.982Zm0,3.981h-7.982V-3.06h7.982Z" transform="translate(428 7319.737)" fill="#9f0925"/>
  </g>
</svg>
