<svg xmlns="http://www.w3.org/2000/svg" width="85" height="92" viewBox="0 0 85 92">
  <g id="_24" data-name="24" transform="translate(-377 -2637)">
    <rect id="Rectángulo_338875" data-name="Rectángulo 338875" width="85" height="92" rx="10" transform="translate(377 2637)" fill="#ff6e33"/>
    <circle id="Elipse_5997" data-name="Elipse 5997" cx="23" cy="23" r="23" transform="translate(397 2662)" fill="#f5a816"/>
    <circle id="Elipse_5998" data-name="Elipse 5998" cx="18" cy="18" r="18" transform="translate(401 2667)" fill="#fff"/>
    <g id="Grupo_987017" data-name="Grupo 987017" transform="translate(-3 0.541)">
      <g id="bordado_1_" data-name="bordado (1)" transform="translate(391.033 2651.527)">
        <path id="Trazado_732275" data-name="Trazado 732275" d="M45.066,31.885a14.858,14.858,0,0,1,.095,1.671,14.69,14.69,0,0,1-.081,1.54.983.983,0,0,0,.874,1.081,1,1,0,0,0,.1.006.983.983,0,0,0,.977-.88,16.626,16.626,0,0,0,.092-1.747,16.847,16.847,0,0,0-.107-1.893.983.983,0,0,0-1.954.222Z"/>
        <path id="Trazado_732276" data-name="Trazado 732276" d="M18.81,38.859A.983.983,0,1,0,17,39.633,15.669,15.669,0,0,0,18.823,42.8.983.983,0,1,0,20.4,41.628a13.705,13.705,0,0,1-1.592-2.769Z"/>
        <path id="Trazado_732277" data-name="Trazado 732277" d="M17.788,35l0-.023a13.988,13.988,0,0,1-.088-1.56,13.76,13.76,0,0,1,.1-1.637.983.983,0,0,0-1.952-.235,15.727,15.727,0,0,0-.112,1.872,15.925,15.925,0,0,0,.1,1.775l0,.043a.983.983,0,0,0,.975.866,1,1,0,0,0,.119-.007A.983.983,0,0,0,17.788,35Z"/>
        <path id="Trazado_732278" data-name="Trazado 732278" d="M44.076,28a.983.983,0,1,0,1.82-.744,15.786,15.786,0,0,0-1.761-3.2.983.983,0,1,0-1.6,1.143,13.812,13.812,0,0,1,1.54,2.8Z"/>
        <path id="Trazado_732279" data-name="Trazado 732279" d="M32.991,47.113h0a13.882,13.882,0,0,1-3.155-.01.983.983,0,0,0-.231,1.953,15.746,15.746,0,0,0,1.847.109,15.95,15.95,0,0,0,1.78-.1l.042-.006.021,0a.983.983,0,0,0-.3-1.944Z"/>
        <path id="Trazado_732280" data-name="Trazado 732280" d="M22.04,46.029A15.786,15.786,0,0,0,25.2,47.865a.983.983,0,1,0,.785-1.8,13.822,13.822,0,0,1-2.763-1.607.983.983,0,1,0-1.179,1.574Z"/>
        <path id="Trazado_732281" data-name="Trazado 732281" d="M18.884,23.987a15.8,15.8,0,0,0-1.841,3.154.983.983,0,1,0,1.8.788,13.819,13.819,0,0,1,1.611-2.761.983.983,0,1,0-1.572-1.181Z"/>
        <path id="Trazado_732282" data-name="Trazado 732282" d="M22.7,22.549a.978.978,0,0,0,.584-.193,13.7,13.7,0,0,1,2.772-1.588.983.983,0,1,0-.771-1.809,15.672,15.672,0,0,0-3.17,1.816.983.983,0,0,0,.586,1.774Z"/>
        <path id="Trazado_732283" data-name="Trazado 732283" d="M29.9,19.755a17.643,17.643,0,0,1,3.223.055.969.969,0,0,0,.111.006.983.983,0,0,0,.109-1.96,19.567,19.567,0,0,0-3.6-.061l-.036,0h0a.983.983,0,0,0,.2,1.957Z"/>
        <path id="Trazado_732284" data-name="Trazado 732284" d="M42.734,43.111a.983.983,0,0,0,1.376-.2,14.939,14.939,0,0,0,1.807-3.188.983.983,0,1,0-1.816-.754,12.98,12.98,0,0,1-1.569,2.768.983.983,0,0,0,.2,1.376Z"/>
        <path id="Trazado_732285" data-name="Trazado 732285" d="M39.7,44.507a14.032,14.032,0,0,1-2.8,1.54.983.983,0,1,0,.749,1.818,16,16,0,0,0,3.2-1.757.983.983,0,1,0-1.142-1.6Z"/>
        <path id="Trazado_732288" data-name="Trazado 732288" d="M34.216,38.36v-2.3L33.372,33.4v-2.2l.845-1.179h1.25l1.57-1.1,1.576,1.1V33.4l-1.576.841,1.576,1.814v2.3H37.036l-1.57.953Z" fill="#9f0925"/>
        <path id="Trazado_732289" data-name="Trazado 732289" d="M37.767,38.36v-2.3l.845-2.656v-2.2l-.845-1.179h-1.25l-1.57-1.1-1.576,1.1V33.4l1.576.841-1.576,1.814v2.3h1.576l1.57.953Z" transform="translate(-8.966)" fill="#9f0925"/>
        <path id="Trazado_732286" data-name="Trazado 732286" d="M28.07,28a3.388,3.388,0,0,0-4.744,4.744l1.281,1.708-.619.929a3.1,3.1,0,0,0,2.577,4.816c.073,0,.147,0,.22-.008a3.1,3.1,0,0,0,2.259-1.231l.813-1.085a2.941,2.941,0,0,0,3.238-.014l.824,1.1a3.1,3.1,0,0,0,2.259,1.231q.11.008.22.008a3.1,3.1,0,0,0,2.577-4.816l-.619-.929,1.281-1.708A3.388,3.388,0,0,0,34.894,28l-1.462,1.1v-.171a2.358,2.358,0,0,1,.7-1.679.983.983,0,0,0-1.391-1.391,4.307,4.307,0,0,0-1.252,2.662h-.038a4.307,4.307,0,0,0-1.252-2.662A.983.983,0,0,0,28.8,27.245a2.358,2.358,0,0,1,.7,1.679v.146L28.07,28Zm-.6,9.777a1.131,1.131,0,0,1-1.705.121,1.134,1.134,0,0,1-.142-1.428l1.005-1.507a.983.983,0,0,0-.031-1.135l-1.7-2.265a1.422,1.422,0,0,1,1.99-1.99l1.693,1.269a2.949,2.949,0,0,0-.067.625V35.4a2.94,2.94,0,0,0,.118.825l-1.163,1.55Zm6.882-6.913,1.721-1.291a1.422,1.422,0,0,1,1.99,1.99l-1.7,2.265a.983.983,0,0,0-.031,1.135l1.005,1.507A1.135,1.135,0,0,1,37.2,37.9a1.131,1.131,0,0,1-1.705-.121l-1.187-1.583a2.941,2.941,0,0,0,.109-.794V31.466a2.95,2.95,0,0,0-.063-.6Zm-3.871.6a.983.983,0,1,1,1.967,0V35.4a.983.983,0,0,1-1.967,0Z"/>
        <rect id="Rectángulo_344917" data-name="Rectángulo 344917" width="4" height="8" transform="translate(28.967 6.932)" fill="#f5a828"/>
        <rect id="Rectángulo_344918" data-name="Rectángulo 344918" width="4" height="4" transform="translate(36.967 4.932)" fill="#f5a828"/>
        <path id="Trazado_732287" data-name="Trazado 732287" d="M58.1,4.329h0L48.56,12.138a2.982,2.982,0,0,0,.149,4.732,1.51,1.51,0,0,1-.139.3,23.531,23.531,0,0,0-14.154-7.157V7.866H35.4V8.85a.983.983,0,0,0,.983.983h3.933A.983.983,0,0,0,41.3,8.85V4.917a.983.983,0,0,0-.983-.983H36.382a.983.983,0,0,0-.983.983V5.9H25.566a.983.983,0,0,0,0,1.967h2.95v2.149A23.586,23.586,0,0,0,13.767,49.024c0,.006,0,.012,0,.018v3.564a3.442,3.442,0,1,1-6.883,0V46.215A3.938,3.938,0,0,0,2.95,42.282a.983.983,0,1,0,0,1.967,1.969,1.969,0,0,1,1.967,1.967v6.391a5.408,5.408,0,1,0,10.816,0v-1.6A23.593,23.593,0,0,0,49.89,18.686a3.5,3.5,0,0,0,.706-1.257,2.972,2.972,0,0,0,2.165-1.091l7.809-9.544A1.752,1.752,0,0,0,58.1,4.329ZM37.365,5.9h1.967V7.866H37.365ZM34.416,12a21.552,21.552,0,0,1,11.862,5.667l-.428-.143a3.485,3.485,0,0,0-2.61.16,19.51,19.51,0,0,0-8.824-3.7ZM30.482,7.866h1.967V14.75H30.482Zm-1.936,8.106a.983.983,0,0,0,.953.744h3.933a.983.983,0,0,0,.952-.743,17.55,17.55,0,0,1,7.37,3.059,3.523,3.523,0,0,0-.269.548,1.527,1.527,0,0,1-2.245.739l-2.33-1.483A.983.983,0,0,0,35.854,20.5l2.33,1.483a3.494,3.494,0,0,0,5.133-1.685,17.693,17.693,0,1,1-14.771-4.321ZM53.1,33.432A21.632,21.632,0,1,1,28.516,12v1.987a19.682,19.682,0,1,0,16.706,5.4l.006,0,.929.31a3.5,3.5,0,0,0,2.06.045A21.574,21.574,0,0,1,53.1,33.432Zm-1.86-18.339a1.02,1.02,0,0,1-.191.179l.066-.329a.982.982,0,0,0-1.56-.973,1.017,1.017,0,0,1,.252-.309l7.88-6.447-6.447,7.88Zm8.111-9.241h0Z"/>
      </g>
    </g>
  </g>
</svg>
