<svg xmlns="http://www.w3.org/2000/svg" width="85" height="92" viewBox="0 0 85 92">
  <g id="_25" data-name="25" transform="translate(-600 -9196)">
    <g id="Grupo_986954" data-name="Grupo 986954" transform="translate(223 6559)">
      <rect id="Rectángulo_338875" data-name="Rectángulo 338875" width="85" height="92" rx="10" transform="translate(377 2637)" fill="#ff6e33"/>
      <circle id="Elipse_6000" data-name="Elipse 6000" cx="36" cy="36" r="36" transform="translate(382 2651)" fill="#fff"/>
      <circle id="Elipse_6001" data-name="Elipse 6001" cx="26" cy="26" r="26" transform="translate(392 2661)" fill="#0ce6ea"/>
      <path id="Trazado_732317" data-name="Trazado 732317" d="M431.611,2678.159l13.351-32.879s4.912-3.043,7.347,0,1.255,5.552,0,6.663C450.056,2653.938,431.611,2678.159,431.611,2678.159Z" fill="#707070"/>
      <g id="Layer_x0020_1" transform="translate(380.647 2643)">
        <g id="_318583712" transform="translate(1.353 0)">
          <path id="_318586832" d="M46.821,1.749l-.1,0a4.088,4.088,0,0,0-3.543,2.667C40.522,10.259,38.018,16.332,35.6,22.2c-1.438,3.488-2.906,7.046-4.418,10.59,2.312-3.082,4.66-6.131,6.96-9.12,3.875-5.034,7.882-10.239,11.622-15.465a4.082,4.082,0,0,0,.532-4.393A4.024,4.024,0,0,0,46.82,1.749h0ZM27.191,40.573a.874.874,0,0,1-.8-1.236c2.658-5.853,5.162-11.926,7.585-17.8S38.916,9.565,41.585,3.685a5.624,5.624,0,0,1,10.247-.7,5.821,5.821,0,0,1-.643,6.232c-3.763,5.26-7.78,10.477-11.664,15.523S31.643,34.98,27.9,40.207a.878.878,0,0,1-.712.366Z" transform="translate(19.809 0)" fill-rule="evenodd"/>
          <path id="_318586592" d="M39.265,3.643a1.143,1.143,0,0,0-.518.167A3.335,3.335,0,0,0,37.57,5.05c-.656,1.134-.547,2.123-.27,2.283s1.188-.24,1.842-1.375a3.334,3.334,0,0,0,.486-1.64.789.789,0,0,0-.217-.643.3.3,0,0,0-.148-.033ZM37.434,9.111a2,2,0,0,1-1.007-.263c-1.291-.745-1.454-2.8-.372-4.672a5.057,5.057,0,0,1,1.84-1.894,2.394,2.394,0,0,1,2.392-.121h0a2.4,2.4,0,0,1,1.091,2.132,5.061,5.061,0,0,1-.72,2.54,4.088,4.088,0,0,1-3.224,2.278Z" transform="translate(27.458 1.607)" fill-rule="evenodd"/>
          <path id="_318586112" d="M37.236,76.275A35.883,35.883,0,1,1,58.807,11.716a.874.874,0,0,1-1.053,1.4A33.831,33.831,0,0,0,37.235,6.258a34.139,34.139,0,1,0,25.031,10.93A.875.875,0,0,1,63.549,16,35.881,35.881,0,0,1,37.236,76.275Z" transform="translate(-1.353 3.823)" fill-rule="evenodd"/>
          <path id="_318586088" d="M33.276,63.683A27.251,27.251,0,1,1,51.459,16.136a.875.875,0,1,1-1.168,1.3,25.481,25.481,0,1,0,2.623,2.725.874.874,0,1,1,1.346-1.116A27.251,27.251,0,0,1,33.275,63.684Z" transform="translate(2.607 7.783)" fill-rule="evenodd"/>
          <path id="_318585872" d="M23.165,22.855a3.466,3.466,0,1,0,3.466,3.466,3.471,3.471,0,0,0-3.466-3.466Zm0,8.681a5.215,5.215,0,1,1,5.215-5.215,5.22,5.22,0,0,1-5.215,5.215Z" transform="translate(12.718 17.893)" fill-rule="evenodd"/>
          <path id="_318585800" d="M26.736,35.923a.874.874,0,0,1,.807,1.208c-2.936,7.115-2.155,11.906-.079,13.5a2.26,2.26,0,0,0,2.882,0c2.077-1.592,2.856-6.382-.08-13.5a.875.875,0,0,1,1.5-.867c4.693,6.1,9.232,7.82,11.649,6.818a2.26,2.26,0,0,0,1.441-2.5c-.341-2.594-4.1-5.666-11.728-6.68a.874.874,0,0,1,0-1.734c7.735-1.029,11.119-4.066,11.666-6.354a2.285,2.285,0,0,0-.885-2.553.878.878,0,0,1-.379-.7.87.87,0,0,1-.776.236c-2.358-.448-6.487,1.158-10.988,7.009a.874.874,0,0,1-1.5-.867c2.935-7.115,2.155-11.906.078-13.5a2.258,2.258,0,0,0-2.882,0c-2.077,1.591-2.858,6.383.079,13.5a.874.874,0,0,1-1.5.867c-4.694-6.1-9.232-7.821-11.649-6.818a2.261,2.261,0,0,0-1.441,2.5c.341,2.594,4.1,5.666,11.73,6.68a.875.875,0,0,1,0,1.734c-7.631,1.015-11.389,4.086-11.73,6.68a2.262,2.262,0,0,0,1.441,2.5c2.418,1,6.957-.717,11.649-6.818a.876.876,0,0,1,.695-.341Zm2.17,16.969a4.1,4.1,0,0,1-2.505-.875c-2.085-1.6-3.439-5.342-1.889-11.367C20.07,45,16.148,45.7,13.724,44.7a4.024,4.024,0,0,1-2.506-4.34c.343-2.6,2.907-5.649,8.9-7.32-5.991-1.671-8.556-4.715-8.9-7.319a4.024,4.024,0,0,1,2.506-4.34c2.425-1.006,6.345-.306,10.788,4.047-1.55-6.025-.2-9.769,1.889-11.367a4.021,4.021,0,0,1,5.009,0c2.088,1.6,3.441,5.352,1.884,11.39,3.4-3.312,6.9-4.912,9.789-4.364a.874.874,0,0,1,.71.836.875.875,0,0,1,1.109-.1,4.058,4.058,0,0,1,1.6,4.4c-.291,1.219-1.751,4.861-8.795,6.816,5.984,1.671,8.549,4.714,8.89,7.317A4.024,4.024,0,0,1,44.087,44.7C41.663,45.7,37.742,45,33.3,40.651c1.551,6.024.2,9.768-1.889,11.366a4.1,4.1,0,0,1-2.5.875Z" transform="translate(6.977 11.177)" fill-rule="evenodd"/>
          <path id="_318585848" d="M21.174,24.468a.875.875,0,0,1-.875-.874V20.078a.874.874,0,1,1,1.748,0v3.516a.875.875,0,0,1-.875.875Z" transform="translate(14.709 16.28)" fill-rule="evenodd"/>
          <path id="_318586064" d="M23.209,24.837a.874.874,0,0,1-.437-1.631l3.044-1.759a.875.875,0,1,1,.874,1.515L23.647,24.72a.879.879,0,0,1-.438.117Z" transform="translate(16.433 18.082)" fill-rule="evenodd"/>
          <path id="_318585704" d="M26.254,28.137a.875.875,0,0,1-.438-.117l-3.045-1.758a.875.875,0,0,1,.875-1.515l3.045,1.758a.875.875,0,0,1-.438,1.632Z" transform="translate(16.433 20.88)" fill-rule="evenodd"/>
          <path id="_318585608" d="M21.174,31.07A.875.875,0,0,1,20.3,30.2V26.68a.874.874,0,1,1,1.748,0V30.2a.874.874,0,0,1-.874.875Z" transform="translate(14.709 21.876)" fill-rule="evenodd"/>
          <path id="_318585584" d="M17.494,28.137a.874.874,0,0,1-.439-1.632L20.1,24.748a.874.874,0,0,1,.874,1.515L17.929,28.02a.867.867,0,0,1-.436.118Z" transform="translate(11.587 20.88)" fill-rule="evenodd"/>
          <path id="_318585920" d="M20.536,24.837a.867.867,0,0,1-.436-.117l-3.045-1.758a.874.874,0,1,1,.874-1.515l3.047,1.758a.875.875,0,0,1-.439,1.632Z" transform="translate(11.587 18.082)" fill-rule="evenodd"/>
          <path id="_318585152" d="M24.3,8.667l-.064,0a30.506,30.506,0,0,0-4.166,0,.874.874,0,0,1-.115-1.745,32.274,32.274,0,0,1,4.407,0A.874.874,0,0,1,24.3,8.667Z" transform="translate(13.726 5.803)" fill-rule="evenodd"/>
          <path id="_318585032" d="M28.484,10.007a.876.876,0,0,1-.288-.048,30.388,30.388,0,0,0-4.022-1.078.874.874,0,1,1,.341-1.715,32.272,32.272,0,0,1,4.255,1.141.874.874,0,0,1-.285,1.7Z" transform="translate(17.395 6.061)" fill-rule="evenodd"/>
          <path id="_318585224" d="M32.167,12.417a.869.869,0,0,1-.491-.151,30.306,30.306,0,0,0-3.609-2.082.875.875,0,1,1,.774-1.569,32.063,32.063,0,0,1,3.814,2.2.874.874,0,0,1-.489,1.6Z" transform="translate(20.881 7.227)" fill-rule="evenodd"/>
          <path id="_318585296" d="M37.088,19.626a.875.875,0,0,1-.787-.493,30.351,30.351,0,0,0-2.082-3.607.874.874,0,1,1,1.454-.972,32.481,32.481,0,0,1,2.2,3.816.875.875,0,0,1-.406,1.168.862.862,0,0,1-.38.088Z" transform="translate(26.383 12.009)" fill-rule="evenodd"/>
          <path id="_318584816" d="M37.989,23.935a.874.874,0,0,1-.858-.709A30.3,30.3,0,0,0,36.052,19.2a.874.874,0,1,1,1.656-.562,32.255,32.255,0,0,1,1.14,4.256.874.874,0,0,1-.86,1.039Z" transform="translate(28.024 15.299)" fill-rule="evenodd"/>
          <path id="_318585368" d="M37.746,28.33l-.064,0a.875.875,0,0,1-.809-.935,30.5,30.5,0,0,0,0-4.166.874.874,0,1,1,1.745-.114,32.173,32.173,0,0,1,0,4.406.875.875,0,0,1-.872.811Z" transform="translate(28.757 18.901)" fill-rule="evenodd"/>
          <path id="_318584936" d="M36.882,32.513a.875.875,0,0,1-.827-1.161,30.376,30.376,0,0,0,1.079-4.024.874.874,0,1,1,1.714.341,32.14,32.14,0,0,1-1.14,4.255.875.875,0,0,1-.825.588Z" transform="translate(28.023 22.571)" fill-rule="evenodd"/>
          <path id="_318585440" d="M34.944,36.2a.867.867,0,0,1-.489-.15.876.876,0,0,1-.235-1.215A30.465,30.465,0,0,0,36.3,31.225.874.874,0,1,1,37.871,32a32.078,32.078,0,0,1-2.2,3.815.875.875,0,0,1-.725.384Z" transform="translate(26.383 26.057)" fill-rule="evenodd"/>
          <path id="_318585080" d="M32.072,39.133A.874.874,0,0,1,31.5,37.6a30.546,30.546,0,0,0,2.945-2.945A.874.874,0,1,1,35.759,35.8a32.206,32.206,0,0,1-3.115,3.115.869.869,0,0,1-.572.213Z" transform="translate(23.947 29.123)" fill-rule="evenodd"/>
          <path id="_318584888" d="M28.456,41.119a.875.875,0,0,1-.383-1.661,30.509,30.509,0,0,0,3.609-2.083.874.874,0,0,1,.971,1.454,32.239,32.239,0,0,1-3.816,2.2.856.856,0,0,1-.38.088Z" transform="translate(20.881 31.559)" fill-rule="evenodd"/>
          <path id="_318585536" d="M24.343,42.02a.874.874,0,0,1-.164-1.733A30.675,30.675,0,0,0,28.2,39.209a.874.874,0,0,1,.561,1.656A32.316,32.316,0,0,1,24.508,42a.9.9,0,0,1-.166.016Z" transform="translate(17.395 33.199)" fill-rule="evenodd"/>
          <path id="_318584024" d="M22.106,41.849c-.738,0-1.457-.025-2.155-.075a.874.874,0,1,1,.128-1.744,30.507,30.507,0,0,0,4.164,0,.874.874,0,1,1,.115,1.745C23.593,41.824,22.84,41.849,22.106,41.849Z" transform="translate(13.726 33.932)" fill-rule="evenodd"/>
          <path id="_318584384" d="M19.907,42.02A.908.908,0,0,1,19.733,42a32.273,32.273,0,0,1-4.255-1.141.875.875,0,0,1,.574-1.652,30.513,30.513,0,0,0,4.024,1.078.874.874,0,0,1-.169,1.732Z" transform="translate(10.123 33.199)" fill-rule="evenodd"/>
          <path id="_318584528" d="M15.595,41.119a.877.877,0,0,1-.386-.09,32.325,32.325,0,0,1-3.815-2.2.875.875,0,1,1,.982-1.448,30.561,30.561,0,0,0,3.607,2.082.875.875,0,0,1-.388,1.659Z" transform="translate(6.834 31.559)" fill-rule="evenodd"/>
          <path id="_318584696" d="M11.666,39.133a.872.872,0,0,1-.576-.217A32.318,32.318,0,0,1,7.975,35.8.874.874,0,0,1,9.3,34.656,30.673,30.673,0,0,0,12.243,37.6a.875.875,0,0,1-.577,1.532Z" transform="translate(4.081 29.123)" fill-rule="evenodd"/>
          <path id="_318584648" d="M8.387,36.2a.871.871,0,0,1-.727-.389,32.29,32.29,0,0,1-2.2-3.815.875.875,0,1,1,1.574-.763,30.214,30.214,0,0,0,2.082,3.607.874.874,0,0,1-.242,1.213.862.862,0,0,1-.484.148Z" transform="translate(2.052 26.057)" fill-rule="evenodd"/>
          <path id="_318584192" d="M5.977,32.513a.876.876,0,0,1-.829-.593,32.32,32.32,0,0,1-1.139-4.256.874.874,0,1,1,1.716-.33A30.91,30.91,0,0,0,6.8,31.358a.875.875,0,0,1-.827,1.155Z" transform="translate(0.885 22.571)" fill-rule="evenodd"/>
          <path id="_318584312" d="M4.635,28.33a.872.872,0,0,1-.871-.817,32.407,32.407,0,0,1,0-4.405.874.874,0,1,1,1.743.126,30.3,30.3,0,0,0,0,4.165.875.875,0,0,1-.816.93H4.635Z" transform="translate(0.628 18.901)" fill-rule="evenodd"/>
          <path id="_318584264" d="M4.868,23.935a.883.883,0,0,1-.171-.017A.874.874,0,0,1,4.01,22.89a32.4,32.4,0,0,1,1.14-4.256.874.874,0,0,1,1.652.574,30.727,30.727,0,0,0-1.077,4.023A.875.875,0,0,1,4.868,23.935Z" transform="translate(0.885 15.299)" fill-rule="evenodd"/>
          <path id="_318584144" d="M6.243,19.626a.874.874,0,0,1-.784-1.261,32.294,32.294,0,0,1,2.2-3.815.875.875,0,0,1,1.448.981,30.524,30.524,0,0,0-2.082,3.607.876.876,0,0,1-.785.488Z" transform="translate(2.051 12.009)" fill-rule="evenodd"/>
          <path id="_318584168" d="M8.637,15.7a.874.874,0,0,1-.658-1.451,32.378,32.378,0,0,1,3.115-3.115.874.874,0,1,1,1.144,1.322A30.77,30.77,0,0,0,9.294,15.4a.874.874,0,0,1-.657.3Z" transform="translate(4.08 9.256)" fill-rule="evenodd"/>
          <path id="_318583496" d="M11.886,12.417a.874.874,0,0,1-.487-1.6,32.285,32.285,0,0,1,3.814-2.2.874.874,0,0,1,.763,1.573,30.533,30.533,0,0,0-3.607,2.083.872.872,0,0,1-.484.148Z" transform="translate(6.834 7.227)" fill-rule="evenodd"/>
          <path id="_318583280" d="M15.767,10.008a.875.875,0,0,1-.283-1.7,32.2,32.2,0,0,1,4.255-1.14.874.874,0,1,1,.33,1.717,30.47,30.47,0,0,0-4.022,1.079.873.873,0,0,1-.28.047Z" transform="translate(10.123 6.061)" fill-rule="evenodd"/>
          <path id="_318583640" d="M24.365,9.142A.875.875,0,0,1,23.9,7.524C32.442,2.239,39.465.533,44.779,2.453a.875.875,0,0,1-.6,1.645c-4.786-1.73-11.3-.076-19.36,4.913a.871.871,0,0,1-.459.131Z" transform="translate(17.411 1.432)" fill-rule="evenodd"/>
          <path id="_318583448" d="M46.425,30.306A.868.868,0,0,1,46,30.195c-4.943-2.759-4.545-6.614-4.122-10.7.472-4.559,1.007-9.726-5.809-15.174A.874.874,0,0,1,37.16,2.96C44.723,9,44.109,14.923,43.617,19.68c-.408,3.942-.7,6.791,3.233,8.988a.874.874,0,0,1-.426,1.638Z" transform="translate(27.798 2.347)" fill-rule="evenodd"/>
        </g>
      </g>
    </g>
  </g>
</svg>
