<svg xmlns="http://www.w3.org/2000/svg" width="382.133" height="44.702" viewBox="0 0 382.133 44.702">
  <g id="Grupo_987094" data-name="Grupo 987094" transform="translate(-589 -7951.836)">
    <g id="Grupo_987041" data-name="Grupo 987041" transform="translate(589 7951.836)">
      <line id="Línea_168" data-name="Línea 168" x2="96.97" transform="translate(222.148 22.344)" fill="none" stroke="#9f0925" stroke-width="1"/>
      <path id="Trazado_732491" data-name="Trazado 732491" d="M-27.879-5.469a2.159,2.159,0,0,0,1.744-.613,2.609,2.609,0,0,0,.51-1.716,2.419,2.419,0,0,0-.556-1.66,2.084,2.084,0,0,0-1.651-.631A2.463,2.463,0,0,0-29.6-9.43a2.178,2.178,0,0,0-.7,1.651H-32.05l-.028-.056a3.254,3.254,0,0,1,1.16-2.619,4.441,4.441,0,0,1,3.086-1.085,4.313,4.313,0,0,1,2.974.959,3.581,3.581,0,0,1,1.076,2.82,3.172,3.172,0,0,1-.5,1.74,3.373,3.373,0,0,1-1.4,1.225,3.218,3.218,0,0,1,1.567,1.249,3.667,3.667,0,0,1,.538,2.025A3.738,3.738,0,0,1-24.76,1.41a4.426,4.426,0,0,1-3.072,1.062A4.865,4.865,0,0,1-30.9,1.447,3.137,3.137,0,0,1-32.172-1.26l.019-.056h1.758A2.21,2.21,0,0,0-29.679.353a2.576,2.576,0,0,0,1.847.678,2.291,2.291,0,0,0,1.768-.7,2.571,2.571,0,0,0,.645-1.819A2.722,2.722,0,0,0-26.013-3.4a2.443,2.443,0,0,0-1.866-.636h-1.515V-5.469Zm13.721,3.161h1.88v1.44h-1.88V2.275h-1.833V-.867h-5.846V-1.906l5.733-9.437h1.945Zm-5.705,0h3.872V-8.7l-.056-.009-.178.468Zm9.774-1.468.786-7.566h6.818v1.637H-7.752l-.44,3.919a4.2,4.2,0,0,1,.973-.538A3.421,3.421,0,0,1-6-6.545a3.708,3.708,0,0,1,2.96,1.183,4.779,4.779,0,0,1,1.071,3.3,4.79,4.79,0,0,1-1.1,3.292,4.048,4.048,0,0,1-3.2,1.244,4.389,4.389,0,0,1-2.881-.945,3.269,3.269,0,0,1-1.1-2.778l.019-.056h1.665A2.274,2.274,0,0,0-7.934.419a2.3,2.3,0,0,0,1.66.613A2.173,2.173,0,0,0-4.459.208a3.563,3.563,0,0,0,.645-2.254,3.245,3.245,0,0,0-.65-2.1,2.2,2.2,0,0,0-1.81-.8,2.893,2.893,0,0,0-1.571.327,1.914,1.914,0,0,0-.72,1.01Zm26.684,4c-.364.709-.862,1.015-1.188,1.015-.172,0-.287-.077-.287-.23a.961.961,0,0,1,.038-.23l1.168-4.425a4.551,4.551,0,0,0,.134-1.168c0-.862-.345-1.36-1.034-1.36a2.035,2.035,0,0,0-1.168.421,9.017,9.017,0,0,0-2.49,2.816h-.1l.192-.69a3.3,3.3,0,0,0,.172-1c0-.843-.345-1.552-1.054-1.552-.728,0-1.877.5-3.678,3.237H7.189l.843-3.237-3.007.46.038.268a4.7,4.7,0,0,1,.517-.038c.517,0,.632.249.632.594L4.392,2.275H5.886l.67-2.586c.306-1.168,2.413-4.635,3.41-4.635.345,0,.441.345.441.728a3.769,3.769,0,0,1-.1.766L8.836,2.275H10.35L11-.311c.287-1.168,2.394-4.635,3.429-4.635.345,0,.46.345.46.728a2.385,2.385,0,0,1-.115.766L13.7.781a2.921,2.921,0,0,0-.115.709c0,.747.326.939.747.939.9,0,1.9-.958,2.509-1.992Z" transform="translate(278.298 11.539)" fill="#9f0925"/>
      <path id="Trazado_732489" data-name="Trazado 732489" d="M-41.866,2.275h-1.852V-9.64l-2.965.028v-1.422l4.817-.505Zm7.492,0h-1.843V.386h1.843Zm11.635,0h-8.455V1.012l4.274-5.1a12.841,12.841,0,0,0,1.548-2.2,3.676,3.676,0,0,0,.407-1.651,2.2,2.2,0,0,0-.552-1.548,1.963,1.963,0,0,0-1.525-.6,2.284,2.284,0,0,0-1.838.739,2.737,2.737,0,0,0-.631,1.843h-1.777l-.019-.056a3.673,3.673,0,0,1,1.113-2.82,4.269,4.269,0,0,1,3.152-1.155,3.963,3.963,0,0,1,2.871,1.01A3.464,3.464,0,0,1-23.123-7.92a4.162,4.162,0,0,1-.594,2.1,23.479,23.479,0,0,1-1.81,2.581L-28.959.788l.019.047h6.2Zm6.921-13.814a8,8,0,0,1,1.59.159,5.744,5.744,0,0,1,1.3.4l-.393,1.412a6.881,6.881,0,0,0-1.122-.379,5.8,5.8,0,0,0-1.375-.145A2.466,2.466,0,0,0-17.9-9a4.57,4.57,0,0,0-.8,2.768V-5.17a4.166,4.166,0,0,1,1.351-.9A4.3,4.3,0,0,1-15.669-6.4a3.5,3.5,0,0,1,2.782,1.178,4.551,4.551,0,0,1,1.024,3.1,4.753,4.753,0,0,1-1.146,3.344A3.99,3.99,0,0,1-16.1,2.471a4.053,4.053,0,0,1-3.161-1.436,5.707,5.707,0,0,1-1.272-3.924V-6.021a5.8,5.8,0,0,1,1.361-3.956A4.276,4.276,0,0,1-15.819-11.539Zm-.44,6.519a2.87,2.87,0,0,0-1.492.369,2.472,2.472,0,0,0-.949,1v.945A4.466,4.466,0,0,0-17.946.026,2.241,2.241,0,0,0-16.1,1.031,2.045,2.045,0,0,0-14.327.157,3.843,3.843,0,0,0-13.7-2.121a3.153,3.153,0,0,0-.669-2.114A2.34,2.34,0,0,0-16.258-5.02Zm15.17-4.873A20.243,20.243,0,0,0-4.577-4.478,14.509,14.509,0,0,0-5.484.788V2.275H-7.326V.788A13.17,13.17,0,0,1-6.19-4.772,24.363,24.363,0,0,1-2.9-9.893h-7.22v-1.45h9.035ZM17.29.226c-.364.709-.862,1.015-1.188,1.015-.172,0-.287-.077-.287-.23a.961.961,0,0,1,.038-.23l1.168-4.425a4.551,4.551,0,0,0,.134-1.168c0-.862-.345-1.36-1.034-1.36a2.035,2.035,0,0,0-1.168.421,9.018,9.018,0,0,0-2.49,2.816h-.1l.192-.69a3.3,3.3,0,0,0,.172-1c0-.843-.345-1.552-1.054-1.552-.728,0-1.877.5-3.678,3.237H7.886l.843-3.237-3.007.46.038.268a4.7,4.7,0,0,1,.517-.038c.517,0,.632.249.632.594L5.089,2.275H6.583l.67-2.586c.306-1.168,2.413-4.635,3.41-4.635.345,0,.441.345.441.728a3.769,3.769,0,0,1-.1.766L9.533,2.275h1.513L11.7-.311c.287-1.168,2.394-4.635,3.429-4.635.345,0,.46.345.46.728a2.385,2.385,0,0,1-.115.766L14.4.781a2.921,2.921,0,0,0-.115.709c0,.747.326.939.747.939.9,0,1.9-.958,2.509-1.992Zm5.746-8.792a.98.98,0,0,0-.919-.958.939.939,0,0,0-.919.958.866.866,0,0,0,.919.881A.9.9,0,0,0,23.037-8.566Zm-.575,2.394-3.026.421.057.306a2.261,2.261,0,0,1,.536-.077c.441,0,.594.1.594.421a.823.823,0,0,1-.038.23c-1.513,5.88-1.513,6.244-1.513,6.474,0,.517.23.881.766.881.939,0,1.9-1.149,2.567-2.011L22.156.283c-.69.747-.8.977-1.226.977-.134,0-.249-.057-.249-.192A1.456,1.456,0,0,1,20.7.8ZM33.016.436,32.767.226C32.5.551,32.04,1.241,31.58,1.241a.278.278,0,0,1-.287-.268.48.48,0,0,1,.019-.192l1.13-4.425a5.619,5.619,0,0,0,.211-1.341c0-.632-.23-1.188-1.073-1.188-1.149,0-2.3,1.264-3.065,2.222a12.865,12.865,0,0,1-1.073,1.4h-.057l.977-3.62-3.046.441.038.287a3.836,3.836,0,0,1,.536-.057c.517,0,.575.268.575.613l-1.82,7.164h1.475L26.753-.1a11.659,11.659,0,0,1,1.3-2.337c.594-.9,1.8-2.548,2.528-2.548.345,0,.46.364.46.728a3.885,3.885,0,0,1-.134.8L29.818.781a3.2,3.2,0,0,0-.134.766c0,.441.172.881.785.881,1,0,1.915-1.226,2.452-1.877Z" transform="translate(277.466 42.216)" fill="#9f0925"/>
      <path id="Trazado_732490" data-name="Trazado 732490" d="M-75.045-10.4h-4.616l-.077.306h.383c.728,0,1,.134,1,.421a2.872,2.872,0,0,1-.728,1.417L-84.45-1.245l-.077-.019V-8.753c0-.632.1-1.341,1.341-1.341h.364l.077-.306h-5.631l-.077.306c1.168,0,1.9.46,1.9,1.571V2.414h.46L-77.65-8.619a3.412,3.412,0,0,1,2.528-1.475Zm3.41,10.363a3.055,3.055,0,0,1-2.413,1.226,2.066,2.066,0,0,1-2.164-2.05V-1.4c2.279-.115,5.478-1.054,5.478-3.486,0-1.188-1.149-1.456-1.954-1.456-2.433,0-4.54,2.394-5.019,4.52A4.684,4.684,0,0,0-77.823-.67,2.7,2.7,0,0,0-75.2,2.318,4.8,4.8,0,0,0-71.367.211Zm-4.578-1.9c.555-1.628,1.7-3.831,3.122-3.831a.811.811,0,0,1,.843.824c0,1.686-1.8,3.007-3.793,3.007Zm11.474-8.754-3.007.441.057.287c.153-.019.383-.057.517-.057.441,0,.594.192.594.421a1.939,1.939,0,0,1-.057.46L-69.088.632a2.6,2.6,0,0,0-.115.69c0,.479.172.977.747.977,1.111,0,1.935-1.264,2.586-2.03l-.306-.23c-.172.306-.747,1.054-1.188,1.054a.226.226,0,0,1-.23-.249.958.958,0,0,1,.019-.211Zm9.156,7.3A2.652,2.652,0,0,0-58.4-6.34c-2.835,0-4.808,3.084-4.808,5.536,0,1.4.651,3.122,2.586,3.122C-57.691,2.318-55.584-.728-55.584-3.39Zm-1.552-.594c0,1.456-1.36,5.727-3.39,5.727-1.073,0-1.13-1.417-1.13-2.05,0-2.605,1.666-5.459,3.237-5.459C-57.4-5.765-57.136-4.712-57.136-3.984Zm8.888,3.965a3.906,3.906,0,0,1-2.72,1.283c-.862,0-1.8-.421-1.8-2.088,0-1.532,1.092-4.961,3.371-4.961.46,0,.651.172.651.4,0,.421-.555.651-.555,1.111a.712.712,0,0,0,.728.728c.728,0,1.034-.613,1.034-1.341,0-.939-.9-1.456-1.858-1.456-2.72,0-5.038,3.007-5.038,5.689,0,1.475.766,2.969,2.624,2.969A4.978,4.978,0,0,0-48.018.23Zm5.919-8.715a.98.98,0,0,0-.919-.958.939.939,0,0,0-.919.958.866.866,0,0,0,.919.881A.9.9,0,0,0-42.329-8.734ZM-42.9-6.34l-3.026.421.057.306a2.261,2.261,0,0,1,.536-.077c.441,0,.594.1.594.421a.823.823,0,0,1-.038.23c-1.513,5.88-1.513,6.244-1.513,6.474,0,.517.23.881.766.881.939,0,1.9-1.149,2.567-2.011L-43.21.115c-.69.747-.8.977-1.226.977-.134,0-.249-.057-.249-.192a1.457,1.457,0,0,1,.019-.268Zm11.7-4.348-2.988.46.077.287A3.873,3.873,0,0,1-33.595-10c.5,0,.632.134.632.383a.962.962,0,0,1-.038.23l-1.015,4h-.038c-.019-.46-.46-.958-1.552-.958-2.95,0-4.923,4.271-4.923,6.244,0,1.015.287,2.433,1.686,2.433.709,0,1.858-.23,3.275-2.011h.1a4.166,4.166,0,0,0-.192,1.226.712.712,0,0,0,.766.785c.9,0,1.915-1.149,2.49-2.011L-32.618.1c-.268.4-.8,1.073-1.188,1.073q-.287,0-.287-.172a.961.961,0,0,1,.038-.23Zm-3.141,6.283a7.038,7.038,0,0,1-.306,2.011c-.536,1.762-1.8,3.563-3.141,3.563-.536,0-1.073-.326-1.073-1.264,0-1.839,1.552-5.67,3.448-5.67C-34.629-5.765-34.342-5.306-34.342-4.405Zm12.278-1.686H-23.6l-.172.632h-.019c-.038-.421-.441-.881-1.264-.881-2.758,0-5.287,3.831-5.287,6.359,0,1.226.5,2.279,1.7,2.279.747,0,1.935-.249,3.314-2.011h.077a3.95,3.95,0,0,0-.211.958c0,.613.172,1.054.8,1.054C-23.73,2.3-22.7,1.15-22.1.249l-.23-.23c-.747,1-1.034,1.034-1.226,1.034-.153,0-.268-.115-.268-.326a.608.608,0,0,1,.019-.211Zm-2.011,1.666a7.19,7.19,0,0,1-.287,1.915c-.536,1.82-1.877,3.639-3.2,3.639-.517,0-1.111-.249-1.111-1.264a6.731,6.731,0,0,1,.536-2.375c.651-1.609,1.8-3.275,3.1-3.275C-24.3-5.784-24.075-5.21-24.075-4.424Zm12.68-6.264-2.988.46.077.287A3.873,3.873,0,0,1-13.789-10c.5,0,.632.134.632.383a.961.961,0,0,1-.038.23l-1.015,4h-.038c-.019-.46-.46-.958-1.552-.958-2.95,0-4.923,4.271-4.923,6.244,0,1.015.287,2.433,1.686,2.433.709,0,1.858-.23,3.275-2.011h.1a4.166,4.166,0,0,0-.192,1.226.712.712,0,0,0,.766.785c.9,0,1.915-1.149,2.49-2.011L-12.812.1c-.268.4-.8,1.073-1.188,1.073q-.287,0-.287-.172a.961.961,0,0,1,.038-.23Zm-3.141,6.283a7.038,7.038,0,0,1-.306,2.011c-.536,1.762-1.8,3.563-3.141,3.563-.536,0-1.073-.326-1.073-1.264,0-1.839,1.552-5.67,3.448-5.67C-14.823-5.765-14.536-5.306-14.536-4.405ZM3.557-10.688l-2.988.46.077.287A3.873,3.873,0,0,1,1.162-10c.5,0,.632.134.632.383a.961.961,0,0,1-.038.23l-1.015,4H.7C.683-5.842.243-6.34-.849-6.34-3.8-6.34-5.772-2.068-5.772-.1c0,1.015.287,2.433,1.686,2.433.709,0,1.858-.23,3.275-2.011h.1A4.166,4.166,0,0,0-.907,1.552a.712.712,0,0,0,.766.785c.9,0,1.915-1.149,2.49-2.011L2.139.1c-.268.4-.8,1.073-1.188,1.073Q.664,1.169.664,1A.961.961,0,0,1,.7.766ZM.415-4.405A7.038,7.038,0,0,1,.109-2.394c-.536,1.762-1.8,3.563-3.141,3.563-.536,0-1.073-.326-1.073-1.264,0-1.839,1.552-5.67,3.448-5.67C.128-5.765.415-5.306.415-4.405ZM10.605-.038A3.055,3.055,0,0,1,8.192,1.188,2.066,2.066,0,0,1,6.027-.862V-1.4c2.279-.115,5.478-1.054,5.478-3.486,0-1.188-1.149-1.456-1.954-1.456-2.433,0-4.54,2.394-5.019,4.52A4.684,4.684,0,0,0,4.418-.67,2.7,2.7,0,0,0,7.043,2.318,4.8,4.8,0,0,0,10.874.211Zm-4.578-1.9c.555-1.628,1.7-3.831,3.122-3.831a.811.811,0,0,1,.843.824c0,1.686-1.8,3.007-3.793,3.007Zm16.234-8.754-3.007.441.057.287c.153-.019.383-.057.517-.057.441,0,.594.192.594.421a1.939,1.939,0,0,1-.057.46L17.914.632a2.6,2.6,0,0,0-.115.69c0,.479.172.977.747.977,1.111,0,1.935-1.264,2.586-2.03l-.306-.23c-.172.306-.747,1.054-1.188,1.054a.226.226,0,0,1-.23-.249.957.957,0,0,1,.019-.211Zm9.807,4.6H30.536l-.172.632h-.019c-.038-.421-.441-.881-1.264-.881-2.758,0-5.287,3.831-5.287,6.359,0,1.226.5,2.279,1.7,2.279.747,0,1.935-.249,3.314-2.011h.077a3.95,3.95,0,0,0-.211.958c0,.613.172,1.054.8,1.054.919,0,1.954-1.149,2.548-2.05L31.8.019c-.747,1-1.034,1.034-1.226,1.034-.153,0-.268-.115-.268-.326a.608.608,0,0,1,.019-.211ZM30.058-4.424a7.191,7.191,0,0,1-.287,1.915c-.536,1.82-1.877,3.639-3.2,3.639-.517,0-1.111-.249-1.111-1.264A6.731,6.731,0,0,1,26-2.509c.651-1.609,1.8-3.275,3.1-3.275C29.828-5.784,30.058-5.21,30.058-4.424Zm14.3,4.406a3.906,3.906,0,0,1-2.72,1.283c-.862,0-1.8-.421-1.8-2.088,0-1.532,1.092-4.961,3.371-4.961.46,0,.651.172.651.4,0,.421-.555.651-.555,1.111a.712.712,0,0,0,.728.728c.728,0,1.034-.613,1.034-1.341,0-.939-.9-1.456-1.858-1.456-2.72,0-5.038,3.007-5.038,5.689,0,1.475.766,2.969,2.624,2.969A4.978,4.978,0,0,0,44.587.23Zm9.5-6.072H52.383l-.4,1.437A13.881,13.881,0,0,1,49.893-.459c-.67.881-1.437,1.475-1.915,1.475-.345,0-.5-.249-.5-.651a2.011,2.011,0,0,1,.057-.46L49.146-6.34l-3.007.5.057.287a2.208,2.208,0,0,1,.5-.057c.421,0,.632.211.632.441a2.83,2.83,0,0,1-.115.479L46.081-.268a4.351,4.351,0,0,0-.153,1.13c0,.728.268,1.417,1.168,1.417a2.454,2.454,0,0,0,1.379-.536A32.484,32.484,0,0,0,51.1-1.245h.019l-.5,1.82a3.319,3.319,0,0,0-.077.709c0,.632.211,1,.766,1C52.421,2.28,53.4.862,53.839.23L53.59.019l-.1.115c-.326.383-.69.881-1.092.881a.242.242,0,0,1-.268-.268.591.591,0,0,1,.019-.172ZM61.386-.038a3.055,3.055,0,0,1-2.413,1.226,2.066,2.066,0,0,1-2.164-2.05V-1.4c2.279-.115,5.478-1.054,5.478-3.486,0-1.188-1.149-1.456-1.954-1.456-2.433,0-4.54,2.394-5.019,4.52A4.684,4.684,0,0,0,55.2-.67a2.7,2.7,0,0,0,2.624,2.988A4.8,4.8,0,0,0,61.654.211Zm-4.578-1.9c.555-1.628,1.7-3.831,3.122-3.831a.811.811,0,0,1,.843.824c0,1.686-1.8,3.007-3.793,3.007Zm9.5-1.073.881-3.333L64.182-5.9l.038.287a4.268,4.268,0,0,1,.517-.057c.421,0,.632.115.632.364a1.736,1.736,0,0,1-.077.441L63.531,2.107h1.475l.4-1.456c.1-.326,1.762-5.229,2.931-5.229.345,0,.153.728.9.728.785,0,1.245-.843,1.245-1.571a.826.826,0,0,0-.843-.919c-1.054,0-1.973,1.245-2.624,2.279-.211.345-.441.728-.613,1.073Zm14.558-7.681-2.988.46.077.287A3.873,3.873,0,0,1,78.472-10c.5,0,.632.134.632.383a.961.961,0,0,1-.038.23l-1.015,4h-.038c-.019-.46-.46-.958-1.552-.958-2.95,0-4.923,4.271-4.923,6.244,0,1.015.287,2.433,1.686,2.433.709,0,1.858-.23,3.275-2.011h.1A4.166,4.166,0,0,0,76.4,1.552a.712.712,0,0,0,.766.785c.9,0,1.915-1.149,2.49-2.011L79.448.1c-.268.4-.8,1.073-1.188,1.073q-.287,0-.287-.172a.961.961,0,0,1,.038-.23ZM77.724-4.405a7.038,7.038,0,0,1-.306,2.011c-.536,1.762-1.8,3.563-3.141,3.563C73.74,1.169,73.2.843,73.2-.1c0-1.839,1.552-5.67,3.448-5.67C77.437-5.765,77.724-5.306,77.724-4.405ZM90-6.091H88.47l-.172.632h-.019c-.038-.421-.441-.881-1.264-.881-2.758,0-5.287,3.831-5.287,6.359,0,1.226.5,2.279,1.7,2.279.747,0,1.935-.249,3.314-2.011h.077a3.95,3.95,0,0,0-.211.958c0,.613.172,1.054.8,1.054.919,0,1.954-1.149,2.548-2.05l-.23-.23c-.747,1-1.034,1.034-1.226,1.034-.153,0-.268-.115-.268-.326A.608.608,0,0,1,88.26.517ZM87.991-4.424A7.19,7.19,0,0,1,87.7-2.509c-.536,1.82-1.877,3.639-3.2,3.639-.517,0-1.111-.249-1.111-1.264a6.731,6.731,0,0,1,.536-2.375c.651-1.609,1.8-3.275,3.1-3.275C87.762-5.784,87.991-5.21,87.991-4.424ZM108.114.058c-.364.709-.862,1.015-1.188,1.015-.172,0-.287-.077-.287-.23a.961.961,0,0,1,.038-.23l1.168-4.425a4.551,4.551,0,0,0,.134-1.168c0-.862-.345-1.36-1.034-1.36a2.035,2.035,0,0,0-1.168.421,9.018,9.018,0,0,0-2.49,2.816h-.1l.192-.69a3.3,3.3,0,0,0,.172-1c0-.843-.345-1.552-1.053-1.552-.728,0-1.877.5-3.678,3.237h-.115l.843-3.237-3.007.46.038.268A4.7,4.7,0,0,1,97.1-5.65c.517,0,.632.249.632.594l-1.82,7.164h1.494l.67-2.586c.306-1.168,2.413-4.635,3.41-4.635.345,0,.441.345.441.728a3.769,3.769,0,0,1-.1.766l-1.475,5.727h1.513l.651-2.586c.287-1.168,2.394-4.635,3.429-4.635.345,0,.46.345.46.728a2.385,2.385,0,0,1-.115.766L105.222.613a2.921,2.921,0,0,0-.115.709c0,.747.326.939.747.939.9,0,1.9-.958,2.509-1.992ZM122.92-5.59h-7.8V-7.124h7.8Zm0,3.891h-7.8V-3.233h7.8Z" transform="translate(88.453 26.481)" fill="#9f0925"/>
      <path id="Trazado_732492" data-name="Trazado 732492" d="M-15.11-5.422h-7.8V-6.956h7.8Zm0,3.891h-7.8V-3.065h7.8ZM-3.69,2.275h-8.455V1.012l4.274-5.1a12.841,12.841,0,0,0,1.548-2.2,3.676,3.676,0,0,0,.407-1.651,2.2,2.2,0,0,0-.552-1.548,1.963,1.963,0,0,0-1.525-.6A2.284,2.284,0,0,0-9.83-9.35a2.737,2.737,0,0,0-.631,1.843h-1.777l-.019-.056a3.673,3.673,0,0,1,1.113-2.82,4.269,4.269,0,0,1,3.152-1.155,3.963,3.963,0,0,1,2.871,1.01A3.464,3.464,0,0,1-4.074-7.92a4.162,4.162,0,0,1-.594,2.1,23.479,23.479,0,0,1-1.81,2.581L-9.91.788l.019.047h6.2ZM7.178-9.893A20.243,20.243,0,0,0,3.689-4.478,14.509,14.509,0,0,0,2.782.788V2.275H.94V.788a13.17,13.17,0,0,1,1.136-5.56A24.363,24.363,0,0,1,5.363-9.893h-7.22v-1.45H7.178Zm10.7,12.168H9.423V1.012l4.274-5.1a12.841,12.841,0,0,0,1.548-2.2,3.676,3.676,0,0,0,.407-1.651A2.2,2.2,0,0,0,15.1-9.486a1.963,1.963,0,0,0-1.525-.6,2.284,2.284,0,0,0-1.838.739,2.737,2.737,0,0,0-.631,1.843H9.329L9.31-7.564a3.673,3.673,0,0,1,1.113-2.82,4.269,4.269,0,0,1,3.152-1.155,3.963,3.963,0,0,1,2.871,1.01A3.464,3.464,0,0,1,17.494-7.92a4.162,4.162,0,0,1-.594,2.1,23.479,23.479,0,0,1-1.81,2.581L11.658.788l.019.047h6.2Zm3.872-.449-1.4,2.862H19.252l.655-2.955V.208H21.75Zm9.184-4.134h1.88v1.44h-1.88V2.275H29.1V-.867H23.255V-1.906l5.733-9.437h1.945Zm-5.705,0H29.1V-8.7l-.056-.009-.178.468Z" transform="translate(349.318 25.989)" fill="#9f0925"/>
    </g>
  </g>
</svg>
