<svg xmlns="http://www.w3.org/2000/svg" width="85" height="92" viewBox="0 0 85 92">
  <g id="_26" data-name="26" transform="translate(-377 -2637)">
    <rect id="Rectángulo_338875" data-name="Rectángulo 338875" width="85" height="92" rx="10" transform="translate(377 2637)" fill="#ff6e33"/>
    <g id="bordado-" transform="translate(387 2646.838)">
      <g id="Grupo_987028" data-name="Grupo 987028" transform="translate(0.956 5.118)">
        <g id="Grupo_987018" data-name="Grupo 987018" transform="translate(0.001 0)">
          <path id="Trazado_732290" data-name="Trazado 732290" d="M60.758,64.914a31.2,31.2,0,1,1-4.231-47.669l2.682-2.682a1.8,1.8,0,0,1,2.547,2.547l-7.109,7.109-1.526-1.526L50.374,25.44l5.813,5.813,2.747-2.747L57.327,26.9l7.109-7.109a1.8,1.8,0,0,1,2.547,2.547L64.3,25.018A31.207,31.207,0,0,1,60.758,64.914Z" transform="translate(-7.494 -11.651)" fill="#ffd064"/>
        </g>
        <g id="Grupo_987019" data-name="Grupo 987019" transform="translate(0 0)">
          <path id="Trazado_732291" data-name="Trazado 732291" d="M19.036,64.913a31.09,31.09,0,0,0,20.858,9.114,31.2,31.2,0,1,1,0-62.354,31.2,31.2,0,0,0-20.862,53.24Z" transform="translate(-7.489 -11.65)" fill="#ffc250"/>
        </g>
        <circle id="Elipse_5999" data-name="Elipse 5999" cx="26.479" cy="26.479" r="26.479" transform="translate(4.723 4.722)" fill="#f6f9f9"/>
        <path id="Trazado_732292" data-name="Trazado 732292" d="M72.723,101.519q-.877.059-1.77.059a26.479,26.479,0,1,1,0-52.958q.893,0,1.77.059a26.479,26.479,0,0,0,0,52.841Z" transform="translate(-39.75 -43.899)" fill="#d5dff4"/>
        <g id="Grupo_987020" data-name="Grupo 987020" transform="translate(39.698 38.815)">
          <path id="Trazado_732293" data-name="Trazado 732293" d="M318.923,316.165a1.915,1.915,0,0,1,2.709,0l3.784,3.784a1.916,1.916,0,0,1-2.709,2.709l-3.783-3.784A1.915,1.915,0,0,1,318.923,316.165Z" transform="translate(-318.361 -315.604)" fill="#dd5790"/>
          <path id="Trazado_732294" data-name="Trazado 732294" d="M325.414,316.165a1.916,1.916,0,0,1,0,2.709l-3.784,3.784a1.915,1.915,0,1,1-2.709-2.709l3.783-3.784A1.915,1.915,0,0,1,325.414,316.165Z" transform="translate(-318.36 -315.604)" fill="#df75a5"/>
        </g>
        <g id="Grupo_987021" data-name="Grupo 987021" transform="translate(39.698 18.859)">
          <path id="Trazado_732295" data-name="Trazado 732295" d="M318.923,159.892a1.915,1.915,0,0,1,2.709,0l3.784,3.784a1.916,1.916,0,0,1-2.709,2.709l-3.783-3.784A1.915,1.915,0,0,1,318.923,159.892Z" transform="translate(-318.361 -159.331)" fill="#78c2a4"/>
          <path id="Trazado_732296" data-name="Trazado 732296" d="M325.414,159.892a1.916,1.916,0,0,1,0,2.709l-3.784,3.784a1.915,1.915,0,1,1-2.709-2.709l3.783-3.784A1.916,1.916,0,0,1,325.414,159.892Z" transform="translate(-318.36 -159.331)" fill="#95d6a4"/>
        </g>
        <g id="Grupo_987022" data-name="Grupo 987022" transform="translate(29.762 38.815)">
          <path id="Trazado_732297" data-name="Trazado 732297" d="M241.109,316.165a1.915,1.915,0,0,1,2.709,0l3.783,3.784a1.915,1.915,0,1,1-2.709,2.709l-3.784-3.784A1.915,1.915,0,0,1,241.109,316.165Z" transform="translate(-240.547 -315.604)" fill="#dd5790"/>
          <path id="Trazado_732298" data-name="Trazado 732298" d="M247.6,316.165a1.915,1.915,0,0,1,0,2.709l-3.783,3.784a1.915,1.915,0,1,1-2.709-2.709l3.784-3.784A1.915,1.915,0,0,1,247.6,316.165Z" transform="translate(-240.547 -315.604)" fill="#df75a5"/>
        </g>
        <g id="Grupo_987023" data-name="Grupo 987023" transform="translate(29.762 28.826)">
          <path id="Trazado_732299" data-name="Trazado 732299" d="M241.109,237.944a1.915,1.915,0,0,1,2.709,0l3.783,3.783a1.915,1.915,0,1,1-2.709,2.709l-3.784-3.783A1.915,1.915,0,0,1,241.109,237.944Z" transform="translate(-240.547 -237.383)" fill="#dd5790"/>
          <path id="Trazado_732300" data-name="Trazado 732300" d="M247.6,237.944a1.915,1.915,0,0,1,0,2.709l-3.783,3.783a1.915,1.915,0,0,1-2.709-2.709l3.784-3.783A1.915,1.915,0,0,1,247.6,237.944Z" transform="translate(-240.547 -237.382)" fill="#df75a5"/>
        </g>
        <g id="Grupo_987024" data-name="Grupo 987024" transform="translate(39.798 28.826)">
          <path id="Trazado_732301" data-name="Trazado 732301" d="M319.7,237.944a1.915,1.915,0,0,1,2.709,0l3.784,3.783a1.916,1.916,0,1,1-2.709,2.709l-3.783-3.783A1.915,1.915,0,0,1,319.7,237.944Z" transform="translate(-319.142 -237.383)" fill="#dd5790"/>
          <path id="Trazado_732302" data-name="Trazado 732302" d="M326.2,237.944a1.916,1.916,0,0,1,0,2.709l-3.784,3.783a1.915,1.915,0,0,1-2.709-2.709l3.783-3.783A1.916,1.916,0,0,1,326.2,237.944Z" transform="translate(-319.142 -237.382)" fill="#df75a5"/>
        </g>
        <g id="Grupo_987025" data-name="Grupo 987025" transform="translate(19.825 38.815)">
          <path id="Trazado_732303" data-name="Trazado 732303" d="M163.295,316.165a1.915,1.915,0,0,1,2.709,0l3.784,3.784a1.915,1.915,0,1,1-2.709,2.709l-3.784-3.784A1.915,1.915,0,0,1,163.295,316.165Z" transform="translate(-162.733 -315.604)" fill="#dd5790"/>
          <path id="Trazado_732304" data-name="Trazado 732304" d="M169.787,316.165a1.915,1.915,0,0,1,0,2.709L166,322.657a1.915,1.915,0,0,1-2.709-2.709l3.784-3.784A1.915,1.915,0,0,1,169.787,316.165Z" transform="translate(-162.733 -315.604)" fill="#df75a5"/>
        </g>
        <g id="Grupo_987026" data-name="Grupo 987026" transform="translate(1.641 4.173)">
          <path id="Trazado_732305" data-name="Trazado 732305" d="M34.011,52.106l-11.94-7.6a1.12,1.12,0,0,0-1.546,1.546l7.6,11.941a4.265,4.265,0,1,0,5.888-5.888Z" transform="translate(-20.341 -44.325)" fill="#c3d5ef"/>
          <path id="Trazado_732306" data-name="Trazado 732306" d="M34.737,61.013a4.257,4.257,0,0,1-6.613-.726l-7.6-11.94a1.094,1.094,0,0,1,.153-1.393c-.136.136-.066.48.312.929l8.9,10.637c.2.242.415.472.631.689C32.142,60.829,34.057,61.693,34.737,61.013Z" transform="translate(-20.342 -46.618)" fill="#b7c8ea"/>
        </g>
        <path id="Trazado_732307" data-name="Trazado 732307" d="M113.716,119.812a1.724,1.724,0,0,1-1.219-2.943l2.58-2.58a2.825,2.825,0,0,0-4-4l-3.111,3.111a7.269,7.269,0,0,1-10.28,0l-2.874-2.874a1.724,1.724,0,0,1,2.438-2.438l2.874,2.874a3.821,3.821,0,0,0,5.4,0l3.111-3.111a6.273,6.273,0,0,1,8.871,8.871l-2.58,2.58A1.718,1.718,0,0,1,113.716,119.812Z" transform="translate(-83.224 -93.97)" fill="#95d6a4"/>
        <g id="Grupo_987027" data-name="Grupo 987027" transform="translate(11.316 13.907)">
          <path id="Trazado_732308" data-name="Trazado 732308" d="M116.871,123.171a2.828,2.828,0,0,1,0,4l1.1-1.1a2.825,2.825,0,0,0-4-4l-3.111,3.111a7.269,7.269,0,0,1-10.28,0L97.714,122.3a1.723,1.723,0,0,1-.419-1.753,1.722,1.722,0,0,0-.685,2.857l2.874,2.874a7.269,7.269,0,0,0,10.28,0l3.111-3.111A2.828,2.828,0,0,1,116.871,123.171Z" transform="translate(-96.105 -120.552)" fill="#78c2a4"/>
          <path id="Trazado_732309" data-name="Trazado 732309" d="M236.169,186.342a1.724,1.724,0,0,1,0-2.438l-1.1,1.1a1.724,1.724,0,0,0,2.438,2.438l1.1-1.1a1.724,1.724,0,0,1-2.438,0Z" transform="translate(-216.879 -175.814)" fill="#78c2a4"/>
        </g>
      </g>
      <g id="Grupo_987029" data-name="Grupo 987029" transform="translate(0 4.162)">
        <path id="Trazado_732310" data-name="Trazado 732310" d="M61.127,21.42a.958.958,0,0,0,1.354,0L65.1,18.8a.958.958,0,0,0-1.354-1.354l-.632.632-1.8-1.8a2.759,2.759,0,0,0-3.882-3.882l-1.345-1.345a2.759,2.759,0,0,0-2.137-4.5h0a2.742,2.742,0,0,0-1.951.809L49.873,9.476A32.171,32.171,0,0,0,10.68,12.382L4.842,8.667a2.04,2.04,0,0,0-2.584.282,2.042,2.042,0,0,0-.286,2.586l3.94,6.192A32.17,32.17,0,0,0,43.389,66.462a.958.958,0,1,0-.667-1.8A30.254,30.254,0,0,1,7.029,19.481L8.693,22.1a27.438,27.438,0,1,0,44.778-3.055l5.106-5.106a.843.843,0,1,1,1.191,1.194l-2.68,2.68a.958.958,0,0,0-.108,1.226A30.275,30.275,0,0,1,46.11,63.162a.958.958,0,1,0,.884,1.7A32.178,32.178,0,0,0,59,18.6l.963-.963,1.794,1.794-.632.632a.958.958,0,0,0,0,1.355ZM50.885,16.267l3.854-3.854,1.326,1.326L52.21,17.592Q51.57,16.908,50.885,16.267ZM30.065,6.149A30.311,30.311,0,0,1,49.441,11.5a.958.958,0,0,0,1.226-.108l2.682-2.682a.839.839,0,0,1,.6-.248h0a.843.843,0,0,1,.6,1.44l-5.106,5.106a27.434,27.434,0,0,0-34.589.027l-2.484-1.581A30.29,30.29,0,0,1,30.065,6.149ZM3.611,10.3a.139.139,0,0,1,.2-.022l11.94,7.6a3.308,3.308,0,0,1,1.486,2.259l-1.575-1.575a2.682,2.682,0,0,0-3.792,3.792l1.577,1.578a3.29,3.29,0,0,1-2.262-1.488l-7.6-11.939a.142.142,0,0,1,.022-.2ZM32.158,61.84A25.526,25.526,0,0,1,9.866,23.888a5.22,5.22,0,0,0,5.423,1.839,8.173,8.173,0,0,0,3.412,1.7.958.958,0,0,0,.43-1.866,6.281,6.281,0,0,1-3.03-1.686L13.226,21a.766.766,0,0,1,1.083-1.083l2.873,2.873a4.777,4.777,0,0,0,6.759,0l3.111-3.111A5.316,5.316,0,0,1,34.571,27.2L31.989,29.78a.766.766,0,0,1-1.082-1.085l2.58-2.58a3.783,3.783,0,0,0-5.349-5.35l-3.112,3.112a6.311,6.311,0,0,1-2.657,1.588.958.958,0,1,0,.545,1.836,8.233,8.233,0,0,0,3.467-2.07l3.112-3.112a1.867,1.867,0,0,1,2.64,2.641l-2.58,2.58a2.682,2.682,0,1,0,3.792,3.793l2.581-2.58A7.231,7.231,0,0,0,25.7,18.327l-3.111,3.111a2.857,2.857,0,0,1-3.522.413,5.236,5.236,0,0,0-2.283-5.587l-.224-.143a25.522,25.522,0,0,1,32.31.9,25.929,25.929,0,0,1,2.584,2.584A25.522,25.522,0,0,1,32.158,61.84Z" transform="translate(0 -4.162)"/>
        <path id="Trazado_732311" data-name="Trazado 732311" d="M319.55,308.946a2.868,2.868,0,0,0-3.924-.127,2.87,2.87,0,0,0-4.05,4.05,2.87,2.87,0,0,0,4.05,4.05,2.87,2.87,0,0,0,4.05-4.05,2.867,2.867,0,0,0-.127-3.924Zm-6.493,1.354a.96.96,0,0,1,1.2-.125l-1.325,1.325A.961.961,0,0,1,313.057,310.3Zm.678,5.418a.958.958,0,0,1-.677-1.635l3.783-3.784a.958.958,0,1,1,1.354,1.354l-3.783,3.784A.952.952,0,0,1,313.735,315.719Zm4.461-.281a.958.958,0,0,1-1.2.125l1.325-1.325A.96.96,0,0,1,318.2,315.438Z" transform="translate(-271.165 -269.29)"/>
        <path id="Trazado_732312" data-name="Trazado 732312" d="M311.7,160.518a2.868,2.868,0,0,0,3.923.127,2.87,2.87,0,0,0,4.051-4.051,2.87,2.87,0,0,0-4.05-4.05,2.87,2.87,0,0,0-4.051,4.051,2.867,2.867,0,0,0,.127,3.923Zm6.494-1.354a.962.962,0,0,1-1.2.126l1.326-1.326A.961.961,0,0,1,318.2,159.164Zm-.678-5.418a.958.958,0,0,1,.677,1.635l-3.783,3.783a.958.958,0,1,1-1.354-1.354l3.783-3.783A.951.951,0,0,1,317.517,153.745Zm-4.462.281a.962.962,0,0,1,1.2-.126l-1.326,1.326A.961.961,0,0,1,313.055,154.026Z" transform="translate(-271.163 -132.973)"/>
        <path id="Trazado_732313" data-name="Trazado 732313" d="M241.735,308.946a2.868,2.868,0,0,0-3.924-.126,2.869,2.869,0,0,0-4.049,4.049,2.87,2.87,0,0,0,4.05,4.05,2.869,2.869,0,0,0,4.049-4.049A2.875,2.875,0,0,0,241.735,308.946Zm-6.492,1.354a.959.959,0,0,1,1.2-.125l-1.325,1.325A.959.959,0,0,1,235.242,310.3Zm0,5.138a.957.957,0,0,1,0-1.354l3.783-3.784a.958.958,0,1,1,1.354,1.354l-3.784,3.784A.959.959,0,0,1,235.242,315.438Zm5.138,0a.959.959,0,0,1-1.2.125l1.325-1.325A.959.959,0,0,1,240.38,315.438Z" transform="translate(-203.286 -269.29)"/>
        <path id="Trazado_732314" data-name="Trazado 732314" d="M241.756,230.725a2.868,2.868,0,0,0-3.924-.126,2.869,2.869,0,0,0-4.049,4.05,2.87,2.87,0,0,0,4.05,4.05,2.87,2.87,0,0,0,4.05-4.05,2.875,2.875,0,0,0-.127-3.923Zm-6.492,1.355a.959.959,0,0,1,1.2-.125l-1.325,1.325A.959.959,0,0,1,235.264,232.079Zm0,5.138a.959.959,0,0,1,0-1.355l3.784-3.783a.958.958,0,1,1,1.354,1.354l-3.784,3.783A.959.959,0,0,1,235.264,237.217Zm5.138,0a.959.959,0,0,1-1.2.125l1.325-1.325a.957.957,0,0,1-.125,1.2Z" transform="translate(-203.308 -201.058)"/>
        <path id="Trazado_732315" data-name="Trazado 732315" d="M320.351,230.725a2.868,2.868,0,0,0-3.924-.127,2.87,2.87,0,0,0-4.05,4.05,2.87,2.87,0,0,0,4.05,4.05,2.87,2.87,0,0,0,4.05-4.05A2.875,2.875,0,0,0,320.351,230.725Zm-6.493,1.355a.96.96,0,0,1,1.2-.125l-1.325,1.325A.961.961,0,0,1,313.858,232.079Zm0,5.138a.959.959,0,0,1,0-1.355l3.784-3.783A.958.958,0,1,1,319,233.433l-3.783,3.783A.959.959,0,0,1,313.859,237.217Zm5.138,0a.96.96,0,0,1-1.2.125l1.325-1.325A.96.96,0,0,1,319,237.217Z" transform="translate(-271.866 -201.058)"/>
        <path id="Trazado_732316" data-name="Trazado 732316" d="M163.942,308.965a2.875,2.875,0,0,0-3.923-.127,2.87,2.87,0,0,0-4.05,4.05,2.87,2.87,0,0,0,4.05,4.05,2.87,2.87,0,0,0,4.05-4.05,2.868,2.868,0,0,0-.127-3.924Zm-6.493,1.355a.96.96,0,0,1,1.2-.125l-1.325,1.325A.961.961,0,0,1,157.449,310.32Zm.678,5.418a.958.958,0,0,1-.677-1.635l3.784-3.783a.958.958,0,1,1,1.354,1.354l-3.783,3.784A.952.952,0,0,1,158.127,315.738Zm4.461-.281a.96.96,0,0,1-1.2.125l1.325-1.325A.96.96,0,0,1,162.588,315.458Z" transform="translate(-135.43 -269.31)"/>
      </g>
    </g>
  </g>
</svg>
