<svg xmlns="http://www.w3.org/2000/svg" width="76" height="76" viewBox="0 0 76 76">
  <g id="Grupo_987098" data-name="Grupo 987098" transform="translate(-460 -9814)">
    <rect id="Rectángulo_345060" data-name="Rectángulo 345060" width="76" height="76" transform="translate(460 9814)" fill="none"/>
    <g id="bordado_2_" data-name="bordado (2)" transform="translate(467 9821)">
      <path id="Trazado_732550" data-name="Trazado 732550" d="M20.952,2H61.859V0H20.952a8.99,8.99,0,0,0-8.98,8.98v3.991a3,3,0,0,0,2.993,2.993h7.982v2H18.957a2,2,0,0,0-2,2v2a2,2,0,0,0,2,2h3.991v3.991a2,2,0,0,0-2,2v2a2,2,0,0,0,2,2v2.136C9.594,36.985,0,42.309,0,48.889c0,7.273,11.833,12.971,26.939,12.971s26.939-5.7,26.939-12.971c0-6.58-9.594-11.9-22.948-12.83V33.923a2,2,0,0,0,2-2h3.991v2h2V27.937h-2v2H32.925a2,2,0,0,0-2-2V23.946h3.991a2,2,0,0,0,2-2v-2a2,2,0,0,0-2-2H30.93v-2h3.991a3,3,0,0,0,2.993-2.993v-1H61.859v-2H29.932v-2a2,2,0,0,0-2-2h-2a2,2,0,0,0-2,2v2h-2v-2a2,2,0,0,0-2-2h-2a2,2,0,0,0-2,2v2h-2v-1A6.992,6.992,0,0,1,20.952,2Zm30.93,46.893c0,5.949-11.423,10.975-24.943,10.975a51.552,51.552,0,0,1-10.08-.975c.11-.058.225-.1.333-.166l4.71-2.747a4.2,4.2,0,0,0,1.468.139,1.134,1.134,0,0,1,.984.406,3.455,3.455,0,0,0,2.585,1.347,3.455,3.455,0,0,0,2.585-1.347,1.126,1.126,0,0,1,.984-.407,3.155,3.155,0,0,0,3.657-3.656,1.143,1.143,0,0,1,.407-.984c.017-.015.029-.032.046-.047a6.984,6.984,0,0,0,5.292,2.449h6.984v-1A6.992,6.992,0,0,0,39.909,45.9H34.266a1.163,1.163,0,0,1-.1-.576,3.463,3.463,0,0,0-.876-2.781,2.878,2.878,0,0,0-1-.645l-.726,1.859a.885.885,0,0,1,.312.2,1.62,1.62,0,0,1,.3,1.213,3.135,3.135,0,0,0,1.1,2.658,1.2,1.2,0,0,1,0,2.135,3.136,3.136,0,0,0-1.1,2.659,1.625,1.625,0,0,1-.3,1.212,1.616,1.616,0,0,1-1.211.3,3.132,3.132,0,0,0-2.66,1.1,1.622,1.622,0,0,1-1.068.647,1.622,1.622,0,0,1-1.068-.647,3.154,3.154,0,0,0-2.659-1.1,1.61,1.61,0,0,1-1.211-.3,1.62,1.62,0,0,1-.3-1.213,3.135,3.135,0,0,0-1.1-2.658,1.2,1.2,0,0,1,0-2.135,3.136,3.136,0,0,0,1.1-2.659A1.625,1.625,0,0,1,22,43.95a.894.894,0,0,1,.312-.2l-.726-1.859a2.878,2.878,0,0,0-1,.645,3.389,3.389,0,0,0-.874,2.56l-3.521-2.052a8.376,8.376,0,0,0-4.22-1.142A3.991,3.991,0,1,0,15.964,45.9h-2a2,2,0,1,1-2-2,6.39,6.39,0,0,1,3.216.87l3.575,2.085a3.19,3.19,0,0,0-.8,2.033,3.462,3.462,0,0,0,1.347,2.586,1.146,1.146,0,0,1,.407.983,3.781,3.781,0,0,0,.447,2.223L16.186,57a6.4,6.4,0,0,1-3.216.869c-.075,0-.146-.012-.217-.019-.249-.078-.5-.156-.741-.237a1.991,1.991,0,1,1,2.954-1.739h2a3.991,3.991,0,1,0-7.982,0,4.163,4.163,0,0,0,.039.56C4.7,54.449,2,51.779,2,48.889c0-5.3,9.125-9.955,20.952-10.818v1.839a2,2,0,0,0,2,2h1V44a4.989,4.989,0,1,0,2,0V41.9h1a2,2,0,0,0,2-2V38.071c11.827.863,20.953,5.519,20.953,10.818Zm-16.171-1h4.2A5,5,0,0,1,44.8,51.882H39.909a4.993,4.993,0,0,1-4.122-2.194,2.792,2.792,0,0,0,.131-.8,2.837,2.837,0,0,0-.208-1Zm-7.774-1.812a2.993,2.993,0,1,1-2,0v3.807h2Zm1-6.17H24.943V33.923h3.991Zm2-7.982H22.948v-2H30.93Zm-2-3.991H24.943V23.946h3.991Zm5.986-5.986H18.957v-2H34.921Zm-5.986-3.991H24.943v-2h3.991ZM25.941,7.982h2v2h-2Zm-7.982,0h2v2h-2Zm17.959,3.991v1a1,1,0,0,1-1,1H14.966a1,1,0,0,1-1-1v-1Z" fill="#9f0925"/>
    </g>
  </g>
</svg>
