<svg xmlns="http://www.w3.org/2000/svg" xmlns:xlink="http://www.w3.org/1999/xlink" width="275.178" height="599.279" viewBox="0 0 275.178 599.279">
  <defs>
    <clipPath id="clip-path">
      <path id="Trazado_113926" data-name="Trazado 113926" d="M65.551,0A65.55,65.55,0,1,1,0,65.551,65.55,65.55,0,0,1,65.551,0Z" transform="translate(0 -0.001)" fill="#1448d3"/>
    </clipPath>
    <clipPath id="clip-path-2">
      <rect id="Rectángulo_344520" data-name="Rectángulo 344520" width="179.293" height="208.357" fill="none"/>
    </clipPath>
    <clipPath id="clip-path-4">
      <rect id="Rectángulo_344515" data-name="Rectángulo 344515" width="27.555" height="43.633" fill="none"/>
    </clipPath>
    <clipPath id="clip-path-5">
      <rect id="Rectángulo_344516" data-name="Rectángulo 344516" width="22.998" height="44.617" fill="none"/>
    </clipPath>
    <clipPath id="clip-path-6">
      <rect id="Rectángulo_344517" data-name="Rectángulo 344517" width="5.72" height="49.51" fill="none"/>
    </clipPath>
    <clipPath id="clip-path-7">
      <rect id="Rectángulo_344518" data-name="Rectángulo 344518" width="3.385" height="50.798" fill="none"/>
    </clipPath>
    <clipPath id="clip-path-8">
      <rect id="Rectángulo_344509" data-name="Rectángulo 344509" width="197.048" height="463.139" fill="none"/>
    </clipPath>
    <clipPath id="clip-path-10">
      <rect id="Rectángulo_344505" data-name="Rectángulo 344505" width="13.56" height="21.046" fill="none"/>
    </clipPath>
    <clipPath id="clip-path-11">
      <rect id="Rectángulo_344506" data-name="Rectángulo 344506" width="45.364" height="30.657" fill="none"/>
    </clipPath>
    <clipPath id="clip-path-12">
      <rect id="Rectángulo_344507" data-name="Rectángulo 344507" width="45.365" height="30.657" fill="none"/>
    </clipPath>
  </defs>
  <g id="_3" data-name="3" transform="translate(-190 -1328.721)">
    <g id="Grupo_985081" data-name="Grupo 985081" transform="translate(109.968 1425)">
      <path id="Rectángulo_33771" data-name="Rectángulo 33771" d="M128.633,0h0A128.633,128.633,0,0,1,257.265,128.633V549.169a0,0,0,0,1,0,0H0a0,0,0,0,1,0,0V128.633A128.633,128.633,0,0,1,128.633,0Z" transform="translate(80.032 -46.169)" fill="#0ce6ea"/>
      <g id="Grupo_80252" data-name="Grupo 80252" transform="translate(224.11 -96.279)">
        <g id="Grupo_80252-2" data-name="Grupo 80252" clip-path="url(#clip-path)">
          <path id="Trazado_113845" data-name="Trazado 113845" d="M0,1.725A1.725,1.725,0,1,1,1.725,3.449,1.725,1.725,0,0,1,0,1.725" transform="translate(127.65 -0.002)" fill="#1448d3"/>
          <path id="Trazado_113846" data-name="Trazado 113846" d="M10.076,1.725A1.725,1.725,0,1,1,11.8,3.449a1.725,1.725,0,0,1-1.725-1.725" transform="translate(101.617 -0.002)" fill="#1448d3"/>
          <path id="Trazado_113847" data-name="Trazado 113847" d="M20.151,1.725a1.725,1.725,0,1,1,1.725,1.725,1.725,1.725,0,0,1-1.725-1.725" transform="translate(75.586 -0.002)" fill="#1448d3"/>
          <path id="Trazado_113848" data-name="Trazado 113848" d="M30.225,1.725A1.725,1.725,0,1,1,31.95,3.449a1.725,1.725,0,0,1-1.725-1.725" transform="translate(49.556 -0.002)" fill="#1448d3"/>
          <path id="Trazado_113849" data-name="Trazado 113849" d="M40.3,1.725a1.725,1.725,0,1,1,1.725,1.725A1.725,1.725,0,0,1,40.3,1.725" transform="translate(23.524 -0.002)" fill="#1448d3"/>
          <path id="Trazado_113850" data-name="Trazado 113850" d="M50.376,1.725A1.725,1.725,0,1,1,52.1,3.449a1.725,1.725,0,0,1-1.725-1.725" transform="translate(-2.507 -0.002)" fill="#1448d3"/>
          <path id="Trazado_113851" data-name="Trazado 113851" d="M60.45,1.725a1.725,1.725,0,1,1,1.725,1.725A1.725,1.725,0,0,1,60.45,1.725" transform="translate(-28.538 -0.002)" fill="#1448d3"/>
          <path id="Trazado_113852" data-name="Trazado 113852" d="M70.526,1.725a1.725,1.725,0,1,1,1.725,1.725,1.725,1.725,0,0,1-1.725-1.725" transform="translate(-54.57 -0.002)" fill="#1448d3"/>
          <path id="Trazado_113853" data-name="Trazado 113853" d="M80.6,1.725a1.725,1.725,0,1,1,1.725,1.725A1.725,1.725,0,0,1,80.6,1.725" transform="translate(-80.6 -0.002)" fill="#1448d3"/>
          <path id="Trazado_113854" data-name="Trazado 113854" d="M0,11.8a1.725,1.725,0,1,1,1.725,1.725A1.725,1.725,0,0,1,0,11.8" transform="translate(127.65 5.88)" fill="#1448d3"/>
          <path id="Trazado_113855" data-name="Trazado 113855" d="M10.076,11.8A1.725,1.725,0,1,1,11.8,13.524,1.725,1.725,0,0,1,10.076,11.8" transform="translate(101.617 5.88)" fill="#1448d3"/>
          <path id="Trazado_113856" data-name="Trazado 113856" d="M20.151,11.8a1.725,1.725,0,1,1,1.725,1.725A1.725,1.725,0,0,1,20.151,11.8" transform="translate(75.586 5.88)" fill="#1448d3"/>
          <path id="Trazado_113857" data-name="Trazado 113857" d="M30.225,11.8a1.725,1.725,0,1,1,1.725,1.725A1.725,1.725,0,0,1,30.225,11.8" transform="translate(49.556 5.88)" fill="#1448d3"/>
          <path id="Trazado_113858" data-name="Trazado 113858" d="M40.3,11.8a1.725,1.725,0,1,1,1.725,1.725A1.725,1.725,0,0,1,40.3,11.8" transform="translate(23.524 5.88)" fill="#1448d3"/>
          <path id="Trazado_113859" data-name="Trazado 113859" d="M50.376,11.8A1.725,1.725,0,1,1,52.1,13.524,1.725,1.725,0,0,1,50.376,11.8" transform="translate(-2.507 5.88)" fill="#1448d3"/>
          <path id="Trazado_113860" data-name="Trazado 113860" d="M60.45,11.8a1.725,1.725,0,1,1,1.725,1.725A1.725,1.725,0,0,1,60.45,11.8" transform="translate(-28.538 5.88)" fill="#1448d3"/>
          <path id="Trazado_113861" data-name="Trazado 113861" d="M70.526,11.8a1.725,1.725,0,1,1,1.725,1.725A1.725,1.725,0,0,1,70.526,11.8" transform="translate(-54.57 5.88)" fill="#1448d3"/>
          <path id="Trazado_113862" data-name="Trazado 113862" d="M80.6,11.8a1.725,1.725,0,1,1,1.725,1.725A1.725,1.725,0,0,1,80.6,11.8" transform="translate(-80.6 5.88)" fill="#1448d3"/>
          <path id="Trazado_113863" data-name="Trazado 113863" d="M0,21.875A1.725,1.725,0,1,1,1.725,23.6,1.725,1.725,0,0,1,0,21.875" transform="translate(127.65 11.761)" fill="#1448d3"/>
          <path id="Trazado_113864" data-name="Trazado 113864" d="M10.076,21.875A1.725,1.725,0,1,1,11.8,23.6a1.725,1.725,0,0,1-1.725-1.725" transform="translate(101.617 11.761)" fill="#1448d3"/>
          <path id="Trazado_113865" data-name="Trazado 113865" d="M20.151,21.875A1.725,1.725,0,1,1,21.876,23.6a1.725,1.725,0,0,1-1.725-1.725" transform="translate(75.586 11.761)" fill="#1448d3"/>
          <path id="Trazado_113866" data-name="Trazado 113866" d="M30.225,21.875A1.725,1.725,0,1,1,31.95,23.6a1.725,1.725,0,0,1-1.725-1.725" transform="translate(49.556 11.761)" fill="#1448d3"/>
          <path id="Trazado_113867" data-name="Trazado 113867" d="M40.3,21.875A1.725,1.725,0,1,1,42.026,23.6,1.725,1.725,0,0,1,40.3,21.875" transform="translate(23.524 11.761)" fill="#1448d3"/>
          <path id="Trazado_113868" data-name="Trazado 113868" d="M50.376,21.875A1.725,1.725,0,1,1,52.1,23.6a1.725,1.725,0,0,1-1.725-1.725" transform="translate(-2.507 11.761)" fill="#1448d3"/>
          <path id="Trazado_113869" data-name="Trazado 113869" d="M60.45,21.875A1.725,1.725,0,1,1,62.175,23.6a1.725,1.725,0,0,1-1.725-1.725" transform="translate(-28.538 11.761)" fill="#1448d3"/>
          <path id="Trazado_113870" data-name="Trazado 113870" d="M70.526,21.875A1.725,1.725,0,1,1,72.251,23.6a1.725,1.725,0,0,1-1.725-1.725" transform="translate(-54.57 11.761)" fill="#1448d3"/>
          <path id="Trazado_113871" data-name="Trazado 113871" d="M80.6,21.875A1.725,1.725,0,1,1,82.325,23.6,1.725,1.725,0,0,1,80.6,21.875" transform="translate(-80.6 11.761)" fill="#1448d3"/>
          <path id="Trazado_113872" data-name="Trazado 113872" d="M0,31.95a1.725,1.725,0,1,1,1.725,1.725A1.725,1.725,0,0,1,0,31.95" transform="translate(127.65 17.642)" fill="#1448d3"/>
          <path id="Trazado_113873" data-name="Trazado 113873" d="M10.076,31.95A1.725,1.725,0,1,1,11.8,33.674a1.725,1.725,0,0,1-1.725-1.725" transform="translate(101.617 17.642)" fill="#1448d3"/>
          <path id="Trazado_113874" data-name="Trazado 113874" d="M20.151,31.95a1.725,1.725,0,1,1,1.725,1.725,1.725,1.725,0,0,1-1.725-1.725" transform="translate(75.586 17.642)" fill="#1448d3"/>
          <path id="Trazado_113875" data-name="Trazado 113875" d="M30.225,31.95a1.725,1.725,0,1,1,1.725,1.725,1.725,1.725,0,0,1-1.725-1.725" transform="translate(49.556 17.642)" fill="#1448d3"/>
          <path id="Trazado_113876" data-name="Trazado 113876" d="M40.3,31.95a1.725,1.725,0,1,1,1.725,1.725A1.725,1.725,0,0,1,40.3,31.95" transform="translate(23.524 17.642)" fill="#1448d3"/>
          <path id="Trazado_113877" data-name="Trazado 113877" d="M50.376,31.95A1.725,1.725,0,1,1,52.1,33.674a1.725,1.725,0,0,1-1.725-1.725" transform="translate(-2.507 17.642)" fill="#1448d3"/>
          <path id="Trazado_113878" data-name="Trazado 113878" d="M60.45,31.95a1.725,1.725,0,1,1,1.725,1.725A1.725,1.725,0,0,1,60.45,31.95" transform="translate(-28.538 17.642)" fill="#1448d3"/>
          <path id="Trazado_113879" data-name="Trazado 113879" d="M70.526,31.95a1.725,1.725,0,1,1,1.725,1.725,1.725,1.725,0,0,1-1.725-1.725" transform="translate(-54.57 17.642)" fill="#1448d3"/>
          <path id="Trazado_113880" data-name="Trazado 113880" d="M80.6,31.95a1.725,1.725,0,1,1,1.725,1.725A1.725,1.725,0,0,1,80.6,31.95" transform="translate(-80.6 17.642)" fill="#1448d3"/>
          <path id="Trazado_113881" data-name="Trazado 113881" d="M0,42.025a1.725,1.725,0,1,1,1.725,1.725A1.725,1.725,0,0,1,0,42.025" transform="translate(127.65 23.523)" fill="#1448d3"/>
          <path id="Trazado_113882" data-name="Trazado 113882" d="M10.076,42.025A1.725,1.725,0,1,1,11.8,43.749a1.725,1.725,0,0,1-1.725-1.725" transform="translate(101.617 23.523)" fill="#1448d3"/>
          <path id="Trazado_113883" data-name="Trazado 113883" d="M20.151,42.025a1.725,1.725,0,1,1,1.725,1.725,1.725,1.725,0,0,1-1.725-1.725" transform="translate(75.586 23.523)" fill="#1448d3"/>
          <path id="Trazado_113884" data-name="Trazado 113884" d="M30.225,42.025a1.725,1.725,0,1,1,1.725,1.725,1.725,1.725,0,0,1-1.725-1.725" transform="translate(49.556 23.523)" fill="#1448d3"/>
          <path id="Trazado_113885" data-name="Trazado 113885" d="M40.3,42.025a1.725,1.725,0,1,1,1.725,1.725A1.725,1.725,0,0,1,40.3,42.025" transform="translate(23.524 23.523)" fill="#1448d3"/>
          <path id="Trazado_113886" data-name="Trazado 113886" d="M50.376,42.025A1.725,1.725,0,1,1,52.1,43.749a1.725,1.725,0,0,1-1.725-1.725" transform="translate(-2.507 23.523)" fill="#1448d3"/>
          <path id="Trazado_113887" data-name="Trazado 113887" d="M60.45,42.025a1.725,1.725,0,1,1,1.725,1.725,1.725,1.725,0,0,1-1.725-1.725" transform="translate(-28.538 23.523)" fill="#1448d3"/>
          <path id="Trazado_113888" data-name="Trazado 113888" d="M70.526,42.025a1.725,1.725,0,1,1,1.725,1.725,1.725,1.725,0,0,1-1.725-1.725" transform="translate(-54.57 23.523)" fill="#1448d3"/>
          <path id="Trazado_113889" data-name="Trazado 113889" d="M80.6,42.025a1.725,1.725,0,1,1,1.725,1.725A1.725,1.725,0,0,1,80.6,42.025" transform="translate(-80.6 23.523)" fill="#1448d3"/>
          <path id="Trazado_113890" data-name="Trazado 113890" d="M0,52.1a1.725,1.725,0,1,1,1.725,1.725A1.725,1.725,0,0,1,0,52.1" transform="translate(127.65 29.405)" fill="#1448d3"/>
          <path id="Trazado_113891" data-name="Trazado 113891" d="M10.076,52.1A1.725,1.725,0,1,1,11.8,53.824,1.725,1.725,0,0,1,10.076,52.1" transform="translate(101.617 29.405)" fill="#1448d3"/>
          <path id="Trazado_113892" data-name="Trazado 113892" d="M20.151,52.1a1.725,1.725,0,1,1,1.725,1.725A1.725,1.725,0,0,1,20.151,52.1" transform="translate(75.586 29.405)" fill="#1448d3"/>
          <path id="Trazado_113893" data-name="Trazado 113893" d="M30.225,52.1a1.725,1.725,0,1,1,1.725,1.725A1.725,1.725,0,0,1,30.225,52.1" transform="translate(49.556 29.405)" fill="#1448d3"/>
          <path id="Trazado_113894" data-name="Trazado 113894" d="M40.3,52.1a1.725,1.725,0,1,1,1.725,1.725A1.725,1.725,0,0,1,40.3,52.1" transform="translate(23.524 29.405)" fill="#1448d3"/>
          <path id="Trazado_113895" data-name="Trazado 113895" d="M50.376,52.1A1.725,1.725,0,1,1,52.1,53.824,1.725,1.725,0,0,1,50.376,52.1" transform="translate(-2.507 29.405)" fill="#1448d3"/>
          <path id="Trazado_113896" data-name="Trazado 113896" d="M60.45,52.1a1.725,1.725,0,1,1,1.725,1.725A1.725,1.725,0,0,1,60.45,52.1" transform="translate(-28.538 29.405)" fill="#1448d3"/>
          <path id="Trazado_113897" data-name="Trazado 113897" d="M70.526,52.1a1.725,1.725,0,1,1,1.725,1.725A1.725,1.725,0,0,1,70.526,52.1" transform="translate(-54.57 29.405)" fill="#1448d3"/>
          <path id="Trazado_113898" data-name="Trazado 113898" d="M80.6,52.1a1.725,1.725,0,1,1,1.725,1.725A1.725,1.725,0,0,1,80.6,52.1" transform="translate(-80.6 29.405)" fill="#1448d3"/>
          <path id="Trazado_113899" data-name="Trazado 113899" d="M0,62.175A1.725,1.725,0,1,1,1.725,63.9,1.725,1.725,0,0,1,0,62.175" transform="translate(127.65 35.286)" fill="#1448d3"/>
          <path id="Trazado_113900" data-name="Trazado 113900" d="M10.076,62.175A1.725,1.725,0,1,1,11.8,63.9a1.725,1.725,0,0,1-1.725-1.725" transform="translate(101.617 35.286)" fill="#1448d3"/>
          <path id="Trazado_113901" data-name="Trazado 113901" d="M20.151,62.175A1.725,1.725,0,1,1,21.876,63.9a1.725,1.725,0,0,1-1.725-1.725" transform="translate(75.586 35.286)" fill="#1448d3"/>
          <path id="Trazado_113902" data-name="Trazado 113902" d="M30.225,62.175A1.725,1.725,0,1,1,31.95,63.9a1.725,1.725,0,0,1-1.725-1.725" transform="translate(49.556 35.286)" fill="#1448d3"/>
          <path id="Trazado_113903" data-name="Trazado 113903" d="M40.3,62.175A1.725,1.725,0,1,1,42.026,63.9,1.725,1.725,0,0,1,40.3,62.175" transform="translate(23.524 35.286)" fill="#1448d3"/>
          <path id="Trazado_113904" data-name="Trazado 113904" d="M50.376,62.175A1.725,1.725,0,1,1,52.1,63.9a1.725,1.725,0,0,1-1.725-1.725" transform="translate(-2.507 35.286)" fill="#1448d3"/>
          <path id="Trazado_113905" data-name="Trazado 113905" d="M60.45,62.175A1.725,1.725,0,1,1,62.175,63.9a1.725,1.725,0,0,1-1.725-1.725" transform="translate(-28.538 35.286)" fill="#1448d3"/>
          <path id="Trazado_113906" data-name="Trazado 113906" d="M70.526,62.175A1.725,1.725,0,1,1,72.251,63.9a1.725,1.725,0,0,1-1.725-1.725" transform="translate(-54.57 35.286)" fill="#1448d3"/>
          <path id="Trazado_113907" data-name="Trazado 113907" d="M80.6,62.175A1.725,1.725,0,1,1,82.325,63.9,1.725,1.725,0,0,1,80.6,62.175" transform="translate(-80.6 35.286)" fill="#1448d3"/>
          <path id="Trazado_113908" data-name="Trazado 113908" d="M0,72.251a1.725,1.725,0,1,1,1.725,1.725A1.725,1.725,0,0,1,0,72.251" transform="translate(127.65 41.168)" fill="#1448d3"/>
          <path id="Trazado_113909" data-name="Trazado 113909" d="M10.076,72.251A1.725,1.725,0,1,1,11.8,73.975a1.725,1.725,0,0,1-1.725-1.725" transform="translate(101.617 41.168)" fill="#1448d3"/>
          <path id="Trazado_113910" data-name="Trazado 113910" d="M20.151,72.251a1.725,1.725,0,1,1,1.725,1.725,1.725,1.725,0,0,1-1.725-1.725" transform="translate(75.586 41.168)" fill="#1448d3"/>
          <path id="Trazado_113911" data-name="Trazado 113911" d="M30.225,72.251a1.725,1.725,0,1,1,1.725,1.725,1.725,1.725,0,0,1-1.725-1.725" transform="translate(49.556 41.168)" fill="#1448d3"/>
          <path id="Trazado_113912" data-name="Trazado 113912" d="M40.3,72.251a1.725,1.725,0,1,1,1.725,1.725A1.725,1.725,0,0,1,40.3,72.251" transform="translate(23.524 41.168)" fill="#1448d3"/>
          <path id="Trazado_113913" data-name="Trazado 113913" d="M50.376,72.251A1.725,1.725,0,1,1,52.1,73.975a1.725,1.725,0,0,1-1.725-1.725" transform="translate(-2.507 41.168)" fill="#1448d3"/>
          <path id="Trazado_113914" data-name="Trazado 113914" d="M60.45,72.251a1.725,1.725,0,1,1,1.725,1.725,1.725,1.725,0,0,1-1.725-1.725" transform="translate(-28.538 41.168)" fill="#1448d3"/>
          <path id="Trazado_113915" data-name="Trazado 113915" d="M70.526,72.251a1.725,1.725,0,1,1,1.725,1.725,1.725,1.725,0,0,1-1.725-1.725" transform="translate(-54.57 41.168)" fill="#1448d3"/>
          <path id="Trazado_113916" data-name="Trazado 113916" d="M80.6,72.251a1.725,1.725,0,1,1,1.725,1.725A1.725,1.725,0,0,1,80.6,72.251" transform="translate(-80.6 41.168)" fill="#1448d3"/>
          <path id="Trazado_113917" data-name="Trazado 113917" d="M0,82.326A1.725,1.725,0,1,1,1.725,84.05,1.725,1.725,0,0,1,0,82.326" transform="translate(127.65 47.049)" fill="#1448d3"/>
          <path id="Trazado_113918" data-name="Trazado 113918" d="M10.076,82.326A1.725,1.725,0,1,1,11.8,84.05a1.725,1.725,0,0,1-1.725-1.725" transform="translate(101.617 47.049)" fill="#1448d3"/>
          <path id="Trazado_113919" data-name="Trazado 113919" d="M20.151,82.326a1.725,1.725,0,1,1,1.725,1.725,1.725,1.725,0,0,1-1.725-1.725" transform="translate(75.586 47.049)" fill="#1448d3"/>
          <path id="Trazado_113920" data-name="Trazado 113920" d="M30.225,82.326A1.725,1.725,0,1,1,31.95,84.05a1.725,1.725,0,0,1-1.725-1.725" transform="translate(49.556 47.049)" fill="#1448d3"/>
          <path id="Trazado_113921" data-name="Trazado 113921" d="M40.3,82.326a1.725,1.725,0,1,1,1.725,1.725A1.725,1.725,0,0,1,40.3,82.326" transform="translate(23.524 47.049)" fill="#1448d3"/>
          <path id="Trazado_113922" data-name="Trazado 113922" d="M50.376,82.326A1.725,1.725,0,1,1,52.1,84.05a1.725,1.725,0,0,1-1.725-1.725" transform="translate(-2.507 47.049)" fill="#1448d3"/>
          <path id="Trazado_113923" data-name="Trazado 113923" d="M60.45,82.326a1.725,1.725,0,1,1,1.725,1.725,1.725,1.725,0,0,1-1.725-1.725" transform="translate(-28.538 47.049)" fill="#1448d3"/>
          <path id="Trazado_113924" data-name="Trazado 113924" d="M70.526,82.326a1.725,1.725,0,1,1,1.725,1.725,1.725,1.725,0,0,1-1.725-1.725" transform="translate(-54.57 47.049)" fill="#1448d3"/>
          <path id="Trazado_113925" data-name="Trazado 113925" d="M80.6,82.326a1.725,1.725,0,1,1,1.725,1.725A1.725,1.725,0,0,1,80.6,82.326" transform="translate(-80.6 47.049)" fill="#1448d3"/>
        </g>
      </g>
    </g>
    <g id="Grupo_986707" data-name="Grupo 986707" transform="translate(238 1353)">
      <g id="Grupo_986668" data-name="Grupo 986668" clip-path="url(#clip-path-2)">
        <rect id="Rectángulo_344510" data-name="Rectángulo 344510" width="130.628" height="171.059" transform="translate(13.454 32.749) rotate(-8.398)" fill="#e5c3d1"/>
        <rect id="Rectángulo_344511" data-name="Rectángulo 344511" width="178.092" height="135.999" transform="translate(0 171.384) rotate(-74.225)" fill="#f5e7ed"/>
        <g id="Grupo_986667" data-name="Grupo 986667">
          <g id="Grupo_986666" data-name="Grupo 986666" clip-path="url(#clip-path-2)">
            <path id="Trazado_730036" data-name="Trazado 730036" d="M127.553,128.783l-17.882-5.051L91.788,118.68S54.663,173.058,54.045,173.5s38.492,10.874,38.492,10.874,38.784,11.578,38.492,10.874-3.478-66.469-3.478-66.469" transform="translate(-14.501 -31.847)" fill="#ef798a"/>
            <path id="Trazado_730037" data-name="Trazado 730037" d="M161.316,51.84l-10-2.826L131.331,76.89l-2.445-34.212-10-2.825L107.71,92.15,125.592,97.2l17.882,5.051Z" transform="translate(-28.903 -10.694)" fill="#ef798a"/>
            <rect id="Rectángulo_344512" data-name="Rectángulo 344512" width="2.851" height="116.516" transform="matrix(0.272, -0.962, 0.962, 0.272, 17.161, 150.129)" fill="#e5c3d1"/>
            <rect id="Rectángulo_344513" data-name="Rectángulo 344513" width="2.851" height="116.516" transform="matrix(0.272, -0.962, 0.962, 0.272, 15.605, 155.637)" fill="#e5c3d1"/>
            <rect id="Rectángulo_344514" data-name="Rectángulo 344514" width="2.85" height="116.516" transform="matrix(0.272, -0.962, 0.962, 0.272, 14.049, 161.145)" fill="#e5c3d1"/>
            <path id="Trazado_730038" data-name="Trazado 730038" d="M132.929,42.663l2.5,42.1L160.71,50.511l-2.628-.742L138.1,77.643l-2.445-34.211Z" transform="translate(-35.67 -11.448)" fill="#eb3059"/>
            <path id="Trazado_730039" data-name="Trazado 730039" d="M140.545,128.783l-35.765-10.1-2.326,3.405L140.745,132.9Z" transform="translate(-27.493 -31.847)" fill="#eb3059"/>
            <g id="Grupo_986656" data-name="Grupo 986656" transform="translate(50.902 102.452)" style="mix-blend-mode: multiply;isolation: isolate">
              <g id="Grupo_986655" data-name="Grupo 986655">
                <g id="Grupo_986654" data-name="Grupo 986654" clip-path="url(#clip-path-4)">
                  <path id="Trazado_730040" data-name="Trazado 730040" d="M97.125,140.027,69.57,182.716l3.393.944Z" transform="translate(-69.57 -140.027)" fill="#ef798a"/>
                </g>
              </g>
            </g>
            <g id="Grupo_986659" data-name="Grupo 986659" transform="translate(66.273 105.506)" style="mix-blend-mode: multiply;isolation: isolate">
              <g id="Grupo_986658" data-name="Grupo 986658">
                <g id="Grupo_986657" data-name="Grupo 986657" clip-path="url(#clip-path-5)">
                  <path id="Trazado_730041" data-name="Trazado 730041" d="M113.577,144.2l-23,43.977,2.316.639Z" transform="translate(-90.579 -144.202)" fill="#ef798a"/>
                </g>
              </g>
            </g>
            <g id="Grupo_986662" data-name="Grupo 986662" transform="translate(90.356 107.429)" style="mix-blend-mode: multiply;isolation: isolate">
              <g id="Grupo_986661" data-name="Grupo 986661">
                <g id="Grupo_986660" data-name="Grupo 986660" clip-path="url(#clip-path-6)">
                  <path id="Trazado_730042" data-name="Trazado 730042" d="M129.215,146.83,125.8,196.34l-2.308-.667Z" transform="translate(-123.495 -146.83)" fill="#ef798a"/>
                </g>
              </g>
            </g>
            <g id="Grupo_986665" data-name="Grupo 986665" transform="translate(102.823 109.967)" style="mix-blend-mode: multiply;isolation: isolate">
              <g id="Grupo_986664" data-name="Grupo 986664">
                <g id="Grupo_986663" data-name="Grupo 986663" clip-path="url(#clip-path-7)">
                  <path id="Trazado_730043" data-name="Trazado 730043" d="M142.773,150.3l1.145,50.8-3.385-.971Z" transform="translate(-140.534 -150.299)" fill="#ef798a"/>
                </g>
              </g>
            </g>
            <path id="Trazado_730044" data-name="Trazado 730044" d="M104.522,37.915l-7.8,34.106-31.3,40.664s-2.006-7.026-1.752-7.84,40.855-66.93,40.855-66.93" transform="translate(-17.079 -10.174)" fill="#ef798a"/>
            <path id="Trazado_730045" data-name="Trazado 730045" d="M180.18,56.676,169.071,89.853l5.529,51.016s5.373-4.951,5.58-5.779,0-78.414,0-78.414" transform="translate(-45.369 -15.209)" fill="#ef798a"/>
          </g>
        </g>
      </g>
    </g>
    <g id="Grupo_986708" data-name="Grupo 986708" transform="translate(229 1464.86)">
      <g id="Grupo_986652" data-name="Grupo 986652" clip-path="url(#clip-path-8)">
        <g id="Grupo_986651" data-name="Grupo 986651">
          <g id="Grupo_986650" data-name="Grupo 986650" clip-path="url(#clip-path-8)">
            <path id="Trazado_729992" data-name="Trazado 729992" d="M46.824,101.661q-.2.808-.447,1.605a9.553,9.553,0,1,1-9.71,14.668,3.2,3.2,0,0,0-.313.556l-.817,1.766a12.069,12.069,0,1,0,11.287-18.6" transform="translate(102.235 4.447)" fill="#7d82b8"/>
            <path id="Trazado_729993" data-name="Trazado 729993" d="M82.889,142.583a41.474,41.474,0,0,0,10.433,10.092,27.9,27.9,0,0,0,13.18,4.985,18.471,18.471,0,0,0,8.231-1.236,12.493,12.493,0,0,0,3.031,5.125s-7.22,14.074-19.508,15.157-24.521-9.383-19.468-16.6c2.031-2.9,3.3-10.035,4.1-17.522" transform="translate(-1.733 6.237)" fill="#f7a9a8"/>
            <path id="Trazado_729994" data-name="Trazado 729994" d="M104.139,158.626a27.893,27.893,0,0,1-13.18-4.986,41.452,41.452,0,0,1-10.433-10.091c1.183-11.129,1.313-23.047,1.313-23.047l29.617,13.5s-.673,12.6,0,19.127a19.217,19.217,0,0,0,.914,4.257,18.471,18.471,0,0,1-8.231,1.236" transform="translate(0.631 5.271)" fill="#f78783"/>
            <path id="Trazado_729995" data-name="Trazado 729995" d="M90.735,34.916C65.848,35.166,37.331,52.106,41.22,83s21.258,67.512,46.923,68.01,53.664-46.088,47.96-83.456S90.735,34.916,90.735,34.916" transform="translate(17.549 1.519)" fill="#f7a9a8"/>
            <path id="Trazado_729996" data-name="Trazado 729996" d="M144.532,81a19.684,19.684,0,0,1,3.443,7.094c1.083,3.707,1.627,7.7.61,11.426s-3.85,7.126-7.619,7.977c-3.6.814-7.427-.816-10.025-3.436s-4.138-6.1-5.292-9.6a18.2,18.2,0,0,1-1.165-6.546c.5-9.931,13.769-14.528,20.048-6.912" transform="translate(-81.991 3.377)" fill="#f7a9a8"/>
            <g id="Grupo_986643" data-name="Grupo 986643" transform="translate(48.17 85.415)" opacity="0.5" style="mix-blend-mode: multiply;isolation: isolate">
              <g id="Grupo_986642" data-name="Grupo 986642" transform="translate(0)">
                <g id="Grupo_986641" data-name="Grupo 986641" clip-path="url(#clip-path-10)">
                  <path id="Trazado_729997" data-name="Trazado 729997" d="M143.207,99.538c-2.048.613-4.251-.807-5.3-2.669a3.234,3.234,0,0,1-.509-1.882,2.706,2.706,0,0,1,2.339-2.181,6,6,0,0,1,3.329.646,26.532,26.532,0,0,0-1.28-6.116,8.934,8.934,0,0,0-3.846-4.777,5.444,5.444,0,0,0-5.9.3c-1.513,1.224-2.051,3.285-2.248,5.222,0,0-.693,2.043.963,6.248s3.886,8.664,7.559,8.556a5.5,5.5,0,0,0,4.894-3.341" transform="translate(-129.647 -81.835)" fill="#f7a9a8"/>
                </g>
              </g>
            </g>
            <path id="Trazado_729998" data-name="Trazado 729998" d="M129.127,88.093a12.1,12.1,0,0,1,.85-2.921,4.755,4.755,0,0,1,7.23-2.044,8.825,8.825,0,0,1,3.409,4.532,28.2,28.2,0,0,1,1.227,5.881l.786-.585a6.079,6.079,0,0,0-4.054-.53,3.413,3.413,0,0,0-1.766,1.259,2.546,2.546,0,0,0-.4,2.145,5.681,5.681,0,0,0,2.4,3.141,4.182,4.182,0,0,0,3.725.584,4.162,4.162,0,0,1-3.462-.952,5.552,5.552,0,0,1-1.932-2.934,2.042,2.042,0,0,1,1.7-2.286,5.105,5.105,0,0,1,3.321.6l.914.43-.128-1.015a26.065,26.065,0,0,0-1.255-6.141,9.426,9.426,0,0,0-3.977-5.011,5.913,5.913,0,0,0-6.282.168,5.265,5.265,0,0,0-1.813,2.619,10.176,10.176,0,0,0-.5,3.06" transform="translate(-80.813 3.562)" fill="#613f75"/>
            <path id="Trazado_729999" data-name="Trazado 729999" d="M73.032,85a51.046,51.046,0,0,0,.992,8.676,57.215,57.215,0,0,0,5.952,16.416c.18.309.267.556.2.686a1.43,1.43,0,0,1-.678.509l-1.931.986c-1.272.692-2.561,1.354-3.828,2.078,1.359-.507,2.7-1.077,4.051-1.617l2.01-.861a1.956,1.956,0,0,0,1.031-.77,1.13,1.13,0,0,0,.083-.787,2.833,2.833,0,0,0-.223-.591c-1.221-2.614-2.379-5.253-3.34-7.969-1-2.7-1.821-5.464-2.547-8.257-.368-1.4-.686-2.806-.963-4.224-.326-1.412-.539-2.844-.808-4.275" transform="translate(39.874 3.718)" fill="#613f75"/>
            <path id="Trazado_730000" data-name="Trazado 730000" d="M68.27,119.691c.464.04.925.072,1.378.093a23.563,23.563,0,0,0,12.328-3.008s-4.189,5.794-9.76,7.371a16.118,16.118,0,0,0-3.047-3.745c-.286-.253-.589-.486-.9-.711" transform="translate(43.817 5.108)" fill="#613f75"/>
            <path id="Trazado_730001" data-name="Trazado 730001" d="M77.621,116.777a77.968,77.968,0,0,0,14.132,2.915c.31.224.613.458.9.71a16.136,16.136,0,0,1,3.047,3.745,9.748,9.748,0,0,1-3.125.4c-7.06-.324-14.953-7.769-14.953-7.769" transform="translate(20.333 5.108)" fill="#ef555e"/>
            <path id="Trazado_730002" data-name="Trazado 730002" d="M53.9,73.8c13.767,0,23.5,5.98,23.641,9.456a11.254,11.254,0,0,1-.071,1.47c-3.609-3.088-8.341-4.764-13.03-5.774-7.407-1.6-15.4-1.75-22.3,1.378A36.388,36.388,0,0,0,32.1,87.53c-.158-1.017-.262-1.988-.316-2.886C31.62,81.884,40.131,73.8,53.9,73.8" transform="translate(86.33 3.228)" fill="#613f75"/>
            <g id="Grupo_986646" data-name="Grupo 986646" transform="translate(118.434 81.064)" opacity="0.3" style="mix-blend-mode: overlay;isolation: isolate">
              <g id="Grupo_986645" data-name="Grupo 986645" transform="translate(0)">
                <g id="Grupo_986644" data-name="Grupo 986644" clip-path="url(#clip-path-11)">
                  <path id="Trazado_730003" data-name="Trazado 730003" d="M64.19,78.78c4.69,1.01,9.421,2.686,13.031,5.774-.6,5.98-5.045,23.77-21.832,23.77-16.629,0-22.179-12.227-23.533-20.964a36.4,36.4,0,0,1,10.032-7.2c6.9-3.128,14.894-2.974,22.3-1.378" transform="translate(-31.856 -77.667)" fill="#fff"/>
                </g>
              </g>
            </g>
            <path id="Trazado_730004" data-name="Trazado 730004" d="M108.27,73.8c-13.767,0-23.5,5.98-23.641,9.456a11.447,11.447,0,0,0,.071,1.47c3.609-3.088,8.341-4.764,13.03-5.774,7.407-1.6,15.4-1.75,22.3,1.378a36.388,36.388,0,0,1,10.032,7.2c.158-1.017.262-1.988.316-2.886.168-2.76-8.344-10.847-22.111-10.847" transform="translate(-21.662 3.228)" fill="#613f75"/>
            <g id="Grupo_986649" data-name="Grupo 986649" transform="translate(63.038 81.064)" opacity="0.3" style="mix-blend-mode: overlay;isolation: isolate">
              <g id="Grupo_986648" data-name="Grupo 986648">
                <g id="Grupo_986647" data-name="Grupo 986647" clip-path="url(#clip-path-12)">
                  <path id="Trazado_730005" data-name="Trazado 730005" d="M97.961,78.78c-4.69,1.01-9.422,2.686-13.031,5.774.6,5.98,5.045,23.77,21.832,23.77,16.629,0,22.179-12.227,23.533-20.964a36.4,36.4,0,0,0-10.032-7.2c-6.9-3.128-14.894-2.974-22.3-1.378" transform="translate(-84.93 -77.667)" fill="#fff"/>
                </g>
              </g>
            </g>
            <path id="Trazado_730006" data-name="Trazado 730006" d="M86.182,89.659a16.638,16.638,0,0,0-11.5.607" transform="translate(32.922 3.889)" fill="none" stroke="#5c3a75" stroke-miterlimit="10" stroke-width="1"/>
            <path id="Trazado_730007" data-name="Trazado 730007" d="M92.971,113.27c0,2.011,2.739,3.642,6.116,3.642s6.117-1.63,6.117-3.642-2.739-3.642-6.117-3.642-6.116,1.63-6.116,3.642" transform="translate(-5.194 4.796)" fill="#f38d8b"/>
            <path id="Trazado_730008" data-name="Trazado 730008" d="M58.846,113.27c0,2.011,2.739,3.642,6.116,3.642s6.117-1.63,6.117-3.642-2.739-3.642-6.117-3.642-6.116,1.63-6.116,3.642" transform="translate(64.549 4.796)" fill="#f38d8b"/>
            <path id="Trazado_730009" data-name="Trazado 730009" d="M88.688,83.117a25.588,25.588,0,0,1,4.137-4.39,17.953,17.953,0,0,1,4.947-2.972,10.793,10.793,0,0,1,2.71-.619l2.7-.294a24.778,24.778,0,0,1,5.794.08l.158-.27a8.251,8.251,0,0,0-5.958-2.941,8.855,8.855,0,0,0-3.385.4,18.662,18.662,0,0,0-3.085,1.374,17.448,17.448,0,0,0-4.99,4.133,22.923,22.923,0,0,0-3.3,5.338Z" transform="translate(-4.375 3.136)" fill="#604075"/>
            <path id="Trazado_730010" data-name="Trazado 730010" d="M73.333,82.958a22.891,22.891,0,0,0-3.3-5.338,17.429,17.429,0,0,0-4.989-4.133,18.572,18.572,0,0,0-3.085-1.373,8.835,8.835,0,0,0-3.385-.4,8.255,8.255,0,0,0-5.958,2.941l.159.27a24.777,24.777,0,0,1,5.794-.08l2.7.3a10.745,10.745,0,0,1,2.71.618,17.917,17.917,0,0,1,4.947,2.973,25.664,25.664,0,0,1,4.137,4.389Z" transform="translate(68.798 3.136)" fill="#604075"/>
            <path id="Trazado_730011" data-name="Trazado 730011" d="M131.394,101.661q.2.808.447,1.605a9.553,9.553,0,1,0,9.71,14.668,3.2,3.2,0,0,1,.313.556l.817,1.766a12.069,12.069,0,1,1-11.287-18.6" transform="translate(-71.399 4.447)" fill="#7d82b8"/>
            <path id="Trazado_730012" data-name="Trazado 730012" d="M95.413,16.462a5.839,5.839,0,0,1-.838.526,9.885,9.885,0,0,1,.838-.526" transform="translate(2.923 0.72)" fill="#613f75"/>
            <path id="Trazado_730013" data-name="Trazado 730013" d="M23.621,59.6c.6-12.094,9.237-14.469,9.237-14.469s-6.911-14.252,2.16-21.379S64.6,20.732,73.889,14.468,83.175,0,83.175,0s3.024,5.83.864,11.014a14.2,14.2,0,0,1-4.56,6.17,9.7,9.7,0,0,0-.839.525,5.843,5.843,0,0,0,.839-.525c2.235-1.274,9.032-4.358,20.973-3.146,14.9,1.511,20.947,8.853,20.947,8.853s17.06,2.376,23.539,11.446a57.793,57.793,0,0,1,8.638,18.572L145.8,46.214s4.89,9.6,1.066,16.853a12.1,12.1,0,0,0-3.861-3.311c-3.659-1.96-8.065-1.952-11.916-3.5-6.507-2.622-10.532-9.254-16.615-12.748-8.025-4.609-18.025-3.026-27.119-1.3-4.061.769-8.186,1.558-11.866,3.44a29.133,29.133,0,0,1,9.531-10.517A58.551,58.551,0,0,0,64.6,42.772c-2,1.216-4.052,2.717-4.757,4.947a52.881,52.881,0,0,1,1.9-11.841,17.755,17.755,0,0,1,6.8-9.631c-6.363,1.958-12.879,4.949-16.43,10.58A30.91,30.91,0,0,0,49.05,44.1a195.713,195.713,0,0,0-6.177,25.329c-2.356-6.751-2.54-14.634,1.241-20.7-6.291,3.727-9.667,11.136-10.362,18.415-.576,6.029.419,14.919,1.677,21.853l-5.512.291S23.022,71.7,23.621,59.6" transform="translate(18.857)" fill="#593270"/>
            <path id="Trazado_730014" data-name="Trazado 730014" d="M30.179,66.043c.7-7.278,4.072-14.688,10.362-18.414-3.781,6.068-3.6,13.952-1.241,20.7A195.712,195.712,0,0,1,45.477,43a30.84,30.84,0,0,1,3.06-7.276C52.088,30.1,58.6,27.1,64.967,25.147a17.749,17.749,0,0,0-6.8,9.63,52.841,52.841,0,0,0-1.9,11.842c.706-2.232,2.759-3.731,4.757-4.947a58.5,58.5,0,0,1,20.423-7.648A29.139,29.139,0,0,0,71.917,44.54c3.68-1.881,7.805-2.671,11.866-3.44,9.093-1.721,19.093-3.3,27.119,1.306,6.083,3.493,10.109,10.125,16.615,12.747,3.851,1.552,8.256,1.544,11.916,3.5a12.1,12.1,0,0,1,3.861,3.311,11.569,11.569,0,0,1-.634,1.071c-4.967,7.343-10.924,20.97-10.88,20.324s-.559-15.392-.559-15.392-12.963,2.843-26.136-.613S78.307,54.4,78.307,54.4l9.286,11.878S74.42,65.2,64.485,62.389a77.385,77.385,0,0,1-18.571-8.422,52.367,52.367,0,0,1,.215,18.356,110.713,110.713,0,0,1-3.642,15.01L31.856,87.9C30.6,80.962,29.6,72.073,30.179,66.043" transform="translate(22.43 1.1)" fill="#613f75"/>
            <path id="Trazado_730015" data-name="Trazado 730015" d="M35.645,338.968c-1.851,1.58-4.3,3.155-6.554,2.229a6.119,6.119,0,0,1-2.707-2.767c-5.09-8.7-3.958-19.629-1.632-29.434,2.941-12.4,12.247-31.734,28.408-25.087,13.6,5.593,4.026,25.481-.709,34.21a73.543,73.543,0,0,1-16.805,20.849" transform="translate(113.106 12.36)" fill="#f7a9a8"/>
            <path id="Trazado_730016" data-name="Trazado 730016" d="M88.024,159.371a255.41,255.41,0,0,1-32.015,21.823c-17.253,9.732-25.216,25.216-19.907,54.415s14.6,80.515,14.6,80.515L10.967,454.471l185.6,1.7-33.181-133.3S192.3,239.342,172.5,207.25C157.64,183.157,127,160.814,127,160.814Z" transform="translate(-10.967 6.971)" fill="#613f75"/>
            <path id="Trazado_730017" data-name="Trazado 730017" d="M158.132,316.3s-21.727,4.207-52.245,3.84-60.443-10.585-60.443-10.585l-4.236,9.669s32.321,8.637,63.208,8.27a378.746,378.746,0,0,0,55.331-4.7Z" transform="translate(-5.711 13.541)" fill="#7d82b8"/>
            <path id="Trazado_730018" data-name="Trazado 730018" d="M76.227,154.035s5.752,3.234,15.649,3.179A141.868,141.868,0,0,0,110,155.923l8.617,9.845a25.582,25.582,0,0,1-24.539,9.271c-16.167-2.609-21.813-14.006-21.813-14.006L74.06,159.6Z" transform="translate(2.996 6.738)" fill="#7d82b8"/>
            <path id="Trazado_730019" data-name="Trazado 730019" d="M124.9,143.318c-1.532-1.01-3.244-1.741-4.707-2.848a9.419,9.419,0,0,0,.721,9.612,11.81,11.81,0,0,0,4.548,3.623c1.132.541,4.123,1.993,5.4,1.45,1.538-.655.6-2.343.132-3.772a15.474,15.474,0,0,0-6.088-8.064" transform="translate(-59.083 6.145)" fill="#7d82b8"/>
            <path id="Trazado_730020" data-name="Trazado 730020" d="M124.578,156.458c-1.79.406-3.5,1.136-5.315,1.426a9.424,9.424,0,0,0,7.437,6.133,11.8,11.8,0,0,0,5.761-.773c1.174-.444,4.292-1.595,4.781-2.889.592-1.565-1.274-2.057-2.631-2.706a15.471,15.471,0,0,0-10.034-1.19" transform="translate(-64.787 6.828)" fill="#7d82b8"/>
            <path id="Trazado_730021" data-name="Trazado 730021" d="M112.539,156.335a3.262,3.262,0,1,0,4.023-2.258,3.262,3.262,0,0,0-4.023,2.258" transform="translate(-39.228 6.735)" fill="#613f75"/>
            <path id="Trazado_730022" data-name="Trazado 730022" d="M113.079,156.335a3.262,3.262,0,1,0,4.023-2.258,3.262,3.262,0,0,0-4.023,2.258" transform="translate(-40.331 6.735)" fill="#7d82b8"/>
            <path id="Trazado_730023" data-name="Trazado 730023" d="M77.174,157.03a13.458,13.458,0,0,0,4.212,2.338c1.5.593,3.033,1.092,4.581,1.546a57.9,57.9,0,0,0,9.49,1.861,44.141,44.141,0,0,0,9.689.191,41.968,41.968,0,0,0,4.78-.834,13.477,13.477,0,0,0,4.372-2.07,15.633,15.633,0,0,1-4.492,1.534,44.741,44.741,0,0,1-4.734.512,53.693,53.693,0,0,1-9.5-.364,83.443,83.443,0,0,1-9.41-1.585q-2.33-.534-4.613-1.256a14.833,14.833,0,0,1-4.375-1.874" transform="translate(2.201 6.869)" fill="#613f75"/>
            <path id="Trazado_730024" data-name="Trazado 730024" d="M72.135,158.578c.57.834,1.169,1.648,1.809,2.433a18.37,18.37,0,0,0,2.074,2.251,45.435,45.435,0,0,0,4.954,3.542,38.178,38.178,0,0,0,11.268,4.644,29.574,29.574,0,0,0,3.018.541,15.752,15.752,0,0,0,3.1.156,27.328,27.328,0,0,0,6.05-1.023,43.2,43.2,0,0,0,5.723-2.095c.923-.424,1.823-.9,2.7-1.4a10.47,10.47,0,0,0,2.434-1.809,20.568,20.568,0,0,1-5.341,2.721,42.431,42.431,0,0,1-5.727,1.774,29.245,29.245,0,0,1-5.872.868,25.645,25.645,0,0,1-5.86-.729,40.423,40.423,0,0,1-11.1-4.32,45.582,45.582,0,0,1-5.032-3.268,32.759,32.759,0,0,1-4.2-4.282" transform="translate(6.493 6.937)" fill="#613f75"/>
            <path id="Trazado_730025" data-name="Trazado 730025" d="M152.825,268.611c-2.689-9.679-4.878-18.433-6.022-24.819-4.939-27.579,10.7-46.032,21.265-55.01l11.238,66.136a47.308,47.308,0,0,0-26.481,13.694" transform="translate(-134.501 8.258)" fill="#604075"/>
            <path id="Trazado_730026" data-name="Trazado 730026" d="M128.566,252.145l6.953,40.924S165.886,255.6,166.6,255.124s7.656,17.477,7.656,17.477-5.068,14.952-18.634,35.025c-15.8,23.387-30.2,32.657-30.2,32.657s-14.421-42.327-23.342-74.444a47.3,47.3,0,0,1,26.481-13.694" transform="translate(-83.76 11.03)" fill="#f7a9a8"/>
            <path id="Trazado_730027" data-name="Trazado 730027" d="M152.423,291.136a42.954,42.954,0,0,0-13.343,16.741c2.129-2.908,4.2-5.792,6.427-8.565,2.205-2.793,4.555-5.454,6.916-8.176" transform="translate(-100.539 12.735)" fill="#604075"/>
            <path id="Trazado_730028" data-name="Trazado 730028" d="M87.46,305.37H3.147L24.237,194.834H108.55Z" transform="translate(85.214 8.523)" fill="#e5c3d1"/>
            <path id="Trazado_730029" data-name="Trazado 730029" d="M84.763,305.37H.449L21.54,194.834h84.313Z" transform="translate(90.726 8.523)" fill="#7d82b8"/>
            <path id="Trazado_730030" data-name="Trazado 730030" d="M19.54,195.187H62.112l.882-4.622c.4-2.089-1.145-3.781-3.449-3.781H25.313a5.049,5.049,0,0,0-4.891,3.781Z" transform="translate(113.597 8.171)" fill="#ef798a"/>
            <path id="Trazado_730031" data-name="Trazado 730031" d="M65.228,273.672a4.805,4.805,0,0,1,3.453-2.375,15.4,15.4,0,0,1,4.326-.009c7.771.67,15.835.552,23.042-2.426a3.333,3.333,0,0,0,1.454-.95,1.23,1.23,0,0,0-.02-1.6,1.809,1.809,0,0,0-1.064-.342l-20.06-2.034c9.8-.115,19.906-1.267,28.475-6.032.843-.47,1.786-1.474,1.192-2.236a1.589,1.589,0,0,0-1.1-.475,19.5,19.5,0,0,0-5.668.5,76.362,76.362,0,0,1-22.486.582c3.937-.32,7.874-.641,11.8-1.095a50.746,50.746,0,0,0,10.871-2.191,59.408,59.408,0,0,0,11.076-5.693c.748-.454,1.585-1.419.977-2.048a1.447,1.447,0,0,0-1.147-.276,49.862,49.862,0,0,0-6.585.972l-21.55,4.172a7.765,7.765,0,0,1-4.38-.005,62.93,62.93,0,0,0,28.839-9.72c1.593-1.022,3.317-2.464,3.19-4.351-4.62.017-9.049,1.674-13.5,2.929-8.2,2.313-13.255,3.38-21.763,2.981l1.882-9.866s-11.709-.553-14.937,6.93S57.29,256,57.29,256Z" transform="translate(25.552 10.152)" fill="#f7a9a8"/>
            <path id="Trazado_730032" data-name="Trazado 730032" d="M29.883,271.265c-6,.708-12.229.553-17.795-2.426a2.626,2.626,0,0,1-1.123-.95,1.514,1.514,0,0,1,.016-1.6,1.2,1.2,0,0,1,.821-.342l15.492-2.034c-7.572-.115-15.373-1.267-21.992-6.032-.651-.47-1.379-1.474-.922-2.236a1.116,1.116,0,0,1,.853-.474,11.762,11.762,0,0,1,4.377.5,45.742,45.742,0,0,0,17.366.582c-3.04-.32-6.081-.641-9.111-1.095a31.51,31.51,0,0,1-8.395-2.191,43.2,43.2,0,0,1-8.555-5.693c-.578-.454-1.225-1.42-.755-2.048a.934.934,0,0,1,.886-.276,30.4,30.4,0,0,1,5.085.972L22.776,250.1a4.7,4.7,0,0,0,3.383-.005,41.754,41.754,0,0,1-22.272-9.72c-1.23-1.022-2.561-2.464-2.463-4.351,3.569.017,6.989,1.674,10.423,2.929,6.332,2.313,11.681,3.682,18.252,3.284l1.821-9.543s4.324-1.179,6.817,6.3,1.74,31.02-8.853,32.27" transform="translate(157.123 10.176)" fill="#f7a9a8"/>
            <path id="Trazado_730033" data-name="Trazado 730033" d="M145.863,210.389c.4,3.668.923,7.317,1.457,10.962s1.127,7.282,1.732,10.917c.628,3.63,1.26,7.259,1.97,10.876l1.07,5.423c.393,1.8.753,3.609,1.177,5.406-.191-1.836-.45-3.66-.673-5.491l-.782-5.472c-.524-3.648-1.127-7.282-1.734-10.915-.629-3.63-1.26-7.26-1.972-10.876s-1.415-7.233-2.245-10.829" transform="translate(-108.464 9.203)" fill="#7d82b8"/>
            <path id="Trazado_730034" data-name="Trazado 730034" d="M60.875,90.65c0,2.82,1.621,5.106,3.62,5.106s3.619-2.286,3.619-5.106-1.62-5.1-3.619-5.1-3.62,2.286-3.62,5.1" transform="translate(65.397 3.742)" fill="#613f75"/>
            <path id="Trazado_730035" data-name="Trazado 730035" d="M97.272,90.65c0,2.82,1.621,5.106,3.62,5.106s3.619-2.286,3.619-5.106-1.62-5.1-3.619-5.1-3.62,2.286-3.62,5.1" transform="translate(-8.989 3.742)" fill="#613f75"/>
          </g>
        </g>
      </g>
    </g>
  </g>
</svg>
