<svg xmlns="http://www.w3.org/2000/svg" width="76" height="76" viewBox="0 0 76 76">
  <g id="Grupo_987100" data-name="Grupo 987100" transform="translate(-5009 1886)">
    <g id="bordado_3_" data-name="bordado (3)" transform="translate(5001 -1893.955)">
      <path id="Trazado_732566" data-name="Trazado 732566" d="M153.663,202.269a3.066,3.066,0,0,0-.548-.067,3.02,3.02,0,0,0-1.773-2.531l-2.357-1.071a3.031,3.031,0,0,0-2.907.212,3.062,3.062,0,0,0-.435.34,3.021,3.021,0,0,0-3.043-.536l-2.424.909a3.031,3.031,0,0,0-1.906,2.205,3.065,3.065,0,0,0-.067.548,3.021,3.021,0,0,0-2.531,1.773l-1.071,2.357a3.032,3.032,0,0,0,.212,2.907,3.062,3.062,0,0,0,.34.435,3.01,3.01,0,0,0-.188.241,3.044,3.044,0,0,0-.348,2.8l.909,2.424a3.031,3.031,0,0,0,2.205,1.906,3.064,3.064,0,0,0,.548.067,3.022,3.022,0,0,0,1.773,2.531l2.357,1.071a3.043,3.043,0,0,0,3.342-.552,3.04,3.04,0,0,0,3.043.536l2.424-.909a3.031,3.031,0,0,0,1.906-2.205,3.069,3.069,0,0,0,.067-.548,3.023,3.023,0,0,0,2.531-1.773l1.071-2.357a3.042,3.042,0,0,0-.552-3.342,3.013,3.013,0,0,0,.188-.241,3.044,3.044,0,0,0,.348-2.8l-.909-2.424a3.031,3.031,0,0,0-2.205-1.906Zm-1.361,2.257a1.014,1.014,0,0,1,1.667.361l.909,2.424a1.014,1.014,0,0,1-.95,1.371h-4.3a4.036,4.036,0,0,0-.435-1.045Zm-5.59-3.061v-.1a1.014,1.014,0,0,1,1.434-.924l2.357,1.071a1.014,1.014,0,0,1,.3,1.641l-3.043,3.043a4.036,4.036,0,0,0-1.046-.434Zm-6.459.694a1,1,0,0,1,.635-.735l2.424-.909a1.014,1.014,0,0,1,1.371.95v4.3a4.035,4.035,0,0,0-1.045.435l-3.043-3.043-.067-.067A1,1,0,0,1,140.253,202.159Zm-3.805,5.088,1.071-2.357a1.014,1.014,0,0,1,1.64-.3l3.043,3.043a4.036,4.036,0,0,0-.434,1.046h-4.4a1.014,1.014,0,0,1-.924-1.434Zm2.645,7.619a1.014,1.014,0,0,1-1.667-.361l-.909-2.424a1.014,1.014,0,0,1,.95-1.371h4.3a4.036,4.036,0,0,0,.435,1.045Zm5.59,3.061v.1a1.014,1.014,0,0,1-1.434.923l-2.357-1.071a1.014,1.014,0,0,1-.3-1.641l3.043-3.043a4.036,4.036,0,0,0,1.046.434Zm1.014-6.2a2.029,2.029,0,1,1,2.029-2.029A2.029,2.029,0,0,1,145.7,211.725Zm5.444,5.508a1,1,0,0,1-.635.735l-2.424.908a1.014,1.014,0,0,1-1.371-.95v-4.3a4.036,4.036,0,0,0,1.045-.435l3.043,3.043h0l.066.066A1,1,0,0,1,151.141,217.233Zm3.805-5.088-1.071,2.357a1.014,1.014,0,0,1-1.64.3l-3.043-3.043a4.036,4.036,0,0,0,.434-1.046h4.4a1.014,1.014,0,0,1,.924,1.434Z" transform="translate(-103.322 -159.245)" fill="#9f0925"/>
      <path id="Trazado_732567" data-name="Trazado 732567" d="M76.1,40.337c-1.262-.315-2.893-1-3.5-2.455-.541-1.306-.168-3.093,1.078-5.169A11.453,11.453,0,0,0,74.7,23.622l.437-.437a3.047,3.047,0,0,0,0-4.3l-.174-.174a3.047,3.047,0,0,0-4.3,0l-1.3,1.3c-1.6-.056-2.739-.446-3.293-1.138a2.107,2.107,0,0,1-.38-1.661,1.014,1.014,0,1,0-1.971-.483,4.152,4.152,0,0,0,.739,3.375,5.058,5.058,0,0,0,3.079,1.732l-.508.508c-.023.023-.045.048-.066.073h0l0,0,0,0-6.944,8.431a26.3,26.3,0,0,0-13.573-6.464V22.047h2.2a3.043,3.043,0,1,0,0-2.029h-2.2V19A1.014,1.014,0,0,0,44.4,19v1.014H40.346V19a1.014,1.014,0,0,0-2.029,0v1.014H36.288a1.014,1.014,0,0,0-2.029,0H32.231a1.014,1.014,0,1,0,0,2.029H34.26a1.014,1.014,0,1,0,2.029,0h2.029v2.341A26.4,26.4,0,1,0,62.9,33.908l8.518-7.015,0,0,0,0h0a.928.928,0,0,0,.073-.066l1.558-1.558a9.653,9.653,0,0,1-1.116,6.405c-1.612,2.687-2.02,5.038-1.212,6.989.734,1.771,2.421,3.032,4.879,3.647a1.014,1.014,0,1,0,.492-1.968ZM51.5,20.019a1.014,1.014,0,1,1-1.014,1.014A1.014,1.014,0,0,1,51.5,20.019ZM40.346,22.047H44.4v2.106q-1-.077-2.029-.077t-2.029.077Zm26.375,28.4a24.374,24.374,0,1,1-8.006-18.032l-1.291,1.568a22.344,22.344,0,1,0,2.344,2.5L61.334,35.2a24.229,24.229,0,0,1,5.387,15.254Zm-13.9-9.427a1.014,1.014,0,0,0,1.362.066L58.2,37.775a20.325,20.325,0,1,1-2.071-2.22L52.75,39.662A1.014,1.014,0,0,0,52.816,41.024Zm8.749-8.646-.1-.107,6.343-7.7,1.463,1.463Zm9.213-7.708L69.17,23.062l.994-.994a2.781,2.781,0,0,1,2.059,1.159Zm1.039-4.256.273-.273a1.015,1.015,0,0,1,1.434,0l.174.174a1.016,1.016,0,0,1,0,1.435l-.034.034A4.814,4.814,0,0,0,71.818,20.414Z" fill="#9f0925"/>
    </g>
    <rect id="Rectángulo_345060" data-name="Rectángulo 345060" width="76" height="76" transform="translate(5009 -1886)" fill="none"/>
  </g>
</svg>
