<svg xmlns="http://www.w3.org/2000/svg" width="76" height="76" viewBox="0 0 76 76">
  <g id="Grupo_987102" data-name="Grupo 987102" transform="translate(-5324 1886)">
    <rect id="Rectángulo_345061" data-name="Rectángulo 345061" width="76" height="76" transform="translate(5324 -1886)" fill="none"/>
    <g id="variante-de-girasol-con-borde-de-hojas" transform="translate(5302.303 -1945.241)">
      <g id="Grupo_987101" data-name="Grupo 987101" transform="translate(0 74.241)">
        <path id="Trazado_732568" data-name="Trazado 732568" d="M119.666,92.651a7.466,7.466,0,0,0-7.456-7.457,7.354,7.354,0,0,0-2.945.613,1.05,1.05,0,0,0-.46.251,7.474,7.474,0,0,0-3.193,3.2.175.175,0,0,1-.022.016,1.046,1.046,0,0,0-.281.6,7.312,7.312,0,0,0,0,5.588,1.06,1.06,0,0,0,.281.574c0,.008.012.008.018.015a7.477,7.477,0,0,0,3.282,3.25,1.04,1.04,0,0,0,.343.189,7.447,7.447,0,0,0,10.431-6.834Zm-4.683-4.492a5.311,5.311,0,0,1,1.688,1.661l-1.3,1.294-1.674-1.672Zm-1.146,4.487-1.672,1.672-1.67-1.672,1.67-1.669Zm-1.628-5.289c.162,0,.317.036.472.049l-.513.515-.507-.507A5.391,5.391,0,0,1,112.209,87.356Zm-2.826.835,1.255,1.257-1.672,1.672-1.247-1.247A5.36,5.36,0,0,1,109.383,88.191Zm-2.422,4.939a4.505,4.505,0,0,1-.049-.479c0-.167.034-.317.049-.486l.48.481Zm2.416,3.978a5.306,5.306,0,0,1-1.656-1.678l1.25-1.257,1.671,1.672Zm2.832.838a5.263,5.263,0,0,1-.559-.057l.515-.51.521.518A4.362,4.362,0,0,1,112.209,97.946Zm2.779-.808L113.7,95.845l1.674-1.672,1.3,1.305A5.231,5.231,0,0,1,114.988,97.138Zm1.909-4.492.553-.554a2.7,2.7,0,0,1,0,1.113Z" transform="translate(-52.377 -79.718)" fill="#9f0925"/>
        <path id="Trazado_732569" data-name="Trazado 732569" d="M87,107.881c4.776,0,3.156-1.331-1.695-1.992,0,0-.286,1.65,2.392.92a23.015,23.015,0,0,0-.021-6.77c1.334-.211,3.148-.876,3.3-3.783a5.066,5.066,0,0,0-.058-.927,4.088,4.088,0,0,1,.883-3.2,1.079,1.079,0,0,0-.03-1.1,1.191,1.191,0,0,0-1.012-.561,6.108,6.108,0,0,0-2.785.712c-.094-.2-.19-.385-.28-.554a1.907,1.907,0,0,1-.338-1.67,1.078,1.078,0,0,0-.293-1.069,1.063,1.063,0,0,0-1.083-.246,5.7,5.7,0,0,0-2.077,1.293,4.3,4.3,0,0,0-1.313,2.87,7.4,7.4,0,0,0-2.844.144,1.082,1.082,0,0,0-.382,1.814c1.479,1.363,1.582,2.128,1.677,2.867a5.775,5.775,0,0,0,.182.909c.614,1.89,1.8,2.858,3.541,2.858h0a7.455,7.455,0,0,0,.743-.076A14.139,14.139,0,0,1,74.3,116.538a11.031,11.031,0,0,1-7.767-1.331,8.518,8.518,0,0,0,1.1.076,9.329,9.329,0,0,0,1.787-.171,10.87,10.87,0,0,0,6.863-4.5,10.357,10.357,0,0,0,1.732-4.7,4.283,4.283,0,0,0,2.463-2.847c.232-1.335-.448-2.689-2.152-4.145a6.286,6.286,0,0,1-2.049-2.626,1.094,1.094,0,0,0-.963-.723,1.109,1.109,0,0,0-1.033.618c-.259.546-2.474,5.453-.736,8.211a3.611,3.611,0,0,0,2.307,1.558,8.3,8.3,0,0,1-1.344,3.43,8.722,8.722,0,0,1-5.505,3.6A6.7,6.7,0,0,1,64,112.039a6.333,6.333,0,0,1-2.344-2.716,11.864,11.864,0,0,1-.47-1.542.116.116,0,0,1-.005-.024,5.058,5.058,0,0,1,4.076-5.677,3.916,3.916,0,0,1,2.919.549A3.65,3.65,0,0,1,69.794,105a2.848,2.848,0,0,1-2.292,3.3,1.083,1.083,0,0,0,.429,2.124,5.015,5.015,0,0,0,3.987-5.838,5.817,5.817,0,0,0-2.568-3.76,6.026,6.026,0,0,0-4.514-.854,7.3,7.3,0,0,0-3.9,2.173v-2a3.277,3.277,0,0,0,.642.084A3.351,3.351,0,0,0,63.2,99.8a3.307,3.307,0,0,0,1.3-1.292,3.352,3.352,0,0,0,1.84-.006,3.378,3.378,0,0,0,2.33-2.436A3.35,3.35,0,0,0,71.11,91.9a3.328,3.328,0,0,0,1.3-1.3,3.4,3.4,0,0,0,.411-1.626,3.368,3.368,0,0,0-.5-1.744,3.315,3.315,0,0,0,.49-1.744,3.254,3.254,0,0,0-.416-1.631,3.32,3.32,0,0,0-1.292-1.293,3.356,3.356,0,0,0-2.441-4.172,3.342,3.342,0,0,0-2.331-2.432,3.464,3.464,0,0,0-1.84-.006A3.326,3.326,0,0,0,63.2,74.655a3.4,3.4,0,0,0-3.375.07,3.413,3.413,0,0,0-3.37-.07,3.294,3.294,0,0,0-1.3,1.293,3.369,3.369,0,0,0-3.28.853,3.324,3.324,0,0,0-.891,1.588,3.355,3.355,0,0,0-2.441,4.171,3.337,3.337,0,0,0-1.214,4.66,3.338,3.338,0,0,0-.494,1.749,3.414,3.414,0,0,0,.417,1.628,3.331,3.331,0,0,0,1.293,1.293,3.381,3.381,0,0,0,0,1.84,3.344,3.344,0,0,0,2.433,2.326,3.355,3.355,0,0,0,2.332,2.435,3.435,3.435,0,0,0,1.84.006,3.252,3.252,0,0,0,3.614,1.6v2.077a7.316,7.316,0,0,0-3.936-2.213,6.118,6.118,0,0,0-4.516.852,5.784,5.784,0,0,0-2.565,3.767,5.007,5.007,0,0,0,3.988,5.83,1.078,1.078,0,1,0,.43-2.112,2.855,2.855,0,0,1-2.295-3.3,3.666,3.666,0,0,1,1.625-2.367,3.94,3.94,0,0,1,2.919-.549,5.057,5.057,0,0,1,4.076,5.682c0,.005-.006.013-.006.018A10.816,10.816,0,0,1,58,109.366a6.626,6.626,0,0,1-7.346,3.623,8.713,8.713,0,0,1-5.5-3.6,8.267,8.267,0,0,1-1.342-3.43,3.6,3.6,0,0,0,2.305-1.561c1.734-2.755-.482-7.654-.742-8.21a1.149,1.149,0,0,0-1.031-.618,1.072,1.072,0,0,0-.961.727A6.549,6.549,0,0,1,41.2,99.036c-1.569,1.334-2.246,2.689-2.014,4.024a4.273,4.273,0,0,0,2.462,2.848,10.338,10.338,0,0,0,1.729,4.7,10.815,10.815,0,0,0,6.86,4.5,8.913,8.913,0,0,0,1.777.176,9.462,9.462,0,0,0,1.139-.1,11.081,11.081,0,0,1-7.794,1.355A14.145,14.145,0,0,1,34.148,100.32a5.416,5.416,0,0,0,.746.071c1.741,0,2.929-.957,3.542-2.861a5.173,5.173,0,0,0,.178-.9,4.077,4.077,0,0,1,1.68-2.867,1.079,1.079,0,0,0-.378-1.814,7.315,7.315,0,0,0-2.844-.142,4.3,4.3,0,0,0-1.314-2.871,5.619,5.619,0,0,0-2.079-1.292A1.077,1.077,0,0,0,32.3,88.958a1.925,1.925,0,0,1-.337,1.672c-.093.167-.19.354-.281.55a6.523,6.523,0,0,0-2.986-.709,1.081,1.081,0,0,0-.834,1.66,4.082,4.082,0,0,1,.879,3.2,5.529,5.529,0,0,0-.056.927c.146,2.911,1.963,3.575,3.3,3.786-.3,1.908.143,8.333.937,9.528.073.111,3.445,4.557,3.445,4.557a.7.7,0,0,0,.145-.032,16.256,16.256,0,0,0,8.419,4.535,13.293,13.293,0,0,0,13.845-5.932v6a1.079,1.079,0,0,0,2.158,0v-5.943A13.332,13.332,0,0,0,72.13,118.9a12.931,12.931,0,0,0,2.61-.258,16.215,16.215,0,0,0,8.437-4.551,1.16,1.16,0,0,0,.232.048A13.687,13.687,0,0,0,87,107.881Zm-2.236-9.657c-.53,0-1.081-.1-1.488-1.355a3.4,3.4,0,0,1-.094-.535,5.484,5.484,0,0,0-.8-2.365,3.657,3.657,0,0,1,.968.394,1.081,1.081,0,0,0,1.569-1.278,2.428,2.428,0,0,1,.385-2.518,6.881,6.881,0,0,0,.485,1.06,4.072,4.072,0,0,1,.538,1.437,1.094,1.094,0,0,0,.722.872,1.061,1.061,0,0,0,1.1-.251,3.669,3.669,0,0,1,.791-.586,5.457,5.457,0,0,0-.169,2.49,2.784,2.784,0,0,1,.048.542c-.079,1.582-.739,1.715-2.1,1.846l-.936.125A5.511,5.511,0,0,1,84.765,98.224Zm-9.4,5.013c-.559-.885-.335-2.584.114-4.1a11.682,11.682,0,0,0,1.582,1.529c.918.781,1.371,1.5,1.286,2.009a1.256,1.256,0,0,1-.358.606c-.026-.195-.019-.4-.055-.6a1.08,1.08,0,0,0-2.117.427c.037.2.032.4.058.593A1.477,1.477,0,0,1,75.365,103.238Zm-32.389-1.411a1.08,1.08,0,0,0-1.269.849c-.043.19-.03.4-.056.6a1.279,1.279,0,0,1-.36-.6c-.089-.511.368-1.229,1.418-2.119a10.988,10.988,0,0,0,1.448-1.419c.422,1.439.706,3.169.116,4.1a1.343,1.343,0,0,1-.507.448c.025-.195.02-.393.056-.588A1.076,1.076,0,0,0,42.976,101.827ZM32.924,97.985c-1.362-.132-2.02-.263-2.1-1.847a3.23,3.23,0,0,1,.044-.542,5.4,5.4,0,0,0-.164-2.489,3.7,3.7,0,0,1,.788.585,1.079,1.079,0,0,0,1.823-.624,4.108,4.108,0,0,1,.542-1.437,6.637,6.637,0,0,0,.479-1.047,2.369,2.369,0,0,1,.391,2.5A1.081,1.081,0,0,0,36.3,94.365a4.043,4.043,0,0,1,.964-.394,5.511,5.511,0,0,0-.8,2.365,2.879,2.879,0,0,1-.1.535c-.4,1.252-.953,1.355-1.483,1.355a5.664,5.664,0,0,1-1.021-.116Zm27.714-.369a1.079,1.079,0,0,0-.83-.391,1.093,1.093,0,0,0-.834.391,1.194,1.194,0,0,1-2.112-.731,1.083,1.083,0,0,0-1.827-.746,1.179,1.179,0,0,1-1.653-.019,1.185,1.185,0,0,1-.346-.956,1.172,1.172,0,0,0-.389-.822c-.416-.455-1.3-.255-1.744-.7a1.106,1.106,0,0,1-.3-.507,1.191,1.191,0,0,1,.281-1.145,1.082,1.082,0,0,0-.75-1.826,1.181,1.181,0,0,1-1.007-.609,1.232,1.232,0,0,1-.154-.59,1.2,1.2,0,0,1,.435-.923,1.072,1.072,0,0,0,.391-.837,1.091,1.091,0,0,0-.395-.832,1.185,1.185,0,0,1-.281-1.488,1.178,1.178,0,0,1,1.01-.617,1.079,1.079,0,0,0,.752-1.817,1.217,1.217,0,0,1-.281-1.155,1.188,1.188,0,0,1,.3-.507,1.553,1.553,0,0,1,.964-.35,1.077,1.077,0,0,0,1.166-1.17,1.18,1.18,0,0,1,.343-.956,1.091,1.091,0,0,1,.507-.3,1.2,1.2,0,0,1,1.148.281,1.1,1.1,0,0,0,1.155.208,1.081,1.081,0,0,0,.667-.958,1.186,1.186,0,0,1,.616-1.012,1.221,1.221,0,0,1,1.5.284,1.075,1.075,0,0,0,.832.392h0a1.086,1.086,0,0,0,.828-.395,1.194,1.194,0,0,1,2.109.729,1.081,1.081,0,0,0,1.816.755,1.2,1.2,0,0,1,1.666.02,1.2,1.2,0,0,1,.343.955,1.165,1.165,0,0,0,.385.823c.422.465,1.311.26,1.748.7a1.15,1.15,0,0,1,.3.507,1.2,1.2,0,0,1-.28,1.158,1.08,1.08,0,0,0,.757,1.818,1.209,1.209,0,0,1,1.01.618,1.159,1.159,0,0,1,.148.58,1.191,1.191,0,0,1-.433.917,1.064,1.064,0,0,0-.39.838,1.086,1.086,0,0,0,.393.832,1.183,1.183,0,0,1,.432.918,1.246,1.246,0,0,1-.145.578,1.2,1.2,0,0,1-1.012.617,1.08,1.08,0,0,0-.755,1.824,1.192,1.192,0,0,1,.28,1.149,1.124,1.124,0,0,1-.3.508,1.159,1.159,0,0,1-.954.343,1.115,1.115,0,0,0-.865.311,1.1,1.1,0,0,0-.311.861,1.157,1.157,0,0,1-.348.956,1.045,1.045,0,0,1-.507.3,1.2,1.2,0,0,1-1.149-.276,1.055,1.055,0,0,0-1.153-.216,1.082,1.082,0,0,0-.67.958,1.194,1.194,0,0,1-2.112.728Z" transform="translate(0 -74.241)" fill="#9f0925"/>
      </g>
    </g>
  </g>
</svg>
