<svg xmlns="http://www.w3.org/2000/svg" width="76" height="76" viewBox="0 0 76 76">
  <g id="Grupo_987105" data-name="Grupo 987105" transform="translate(-5962 1886)">
    <rect id="Rectángulo_345063" data-name="Rectángulo 345063" width="76" height="76" transform="translate(5962 -1886)" fill="none"/>
    <g id="bordado_5_" data-name="bordado (5)" transform="translate(5938.173 -1910)">
      <path id="Trazado_732570" data-name="Trazado 732570" d="M45.353,76.363a3.181,3.181,0,1,0-3.182-3.182A3.185,3.185,0,0,0,45.353,76.363Zm0-4.242a1.06,1.06,0,1,1-1.061,1.06A1.061,1.061,0,0,1,45.353,72.121Z" transform="translate(-9.072 -29.395)" fill="#9f0925"/>
      <path id="Trazado_732571" data-name="Trazado 732571" d="M106.483,58.992a1.06,1.06,0,0,0,1.5,0l.841-.841.841.841a1.06,1.06,0,0,0,1.5-1.5l-.841-.841.841-.841a1.06,1.06,0,0,0-1.5-1.5l-.841.841-.841-.841a1.06,1.06,0,1,0-1.5,1.5l.841.841-.841.841A1.06,1.06,0,0,0,106.483,58.992Z" transform="translate(-56.105 -17.637)" fill="#9f0925"/>
      <path id="Trazado_732572" data-name="Trazado 732572" d="M193.917,78.027a1.134,1.134,0,1,0,1.134-1.134A1.134,1.134,0,0,0,193.917,78.027Z" transform="translate(-120.586 -34.46)" fill="#9f0925"/>
      <path id="Trazado_732573" data-name="Trazado 732573" d="M92.488,91.509H79.179a1.54,1.54,0,0,1-1.538-1.538V86.684a3.663,3.663,0,0,0-3.659-3.659H70.2V67.118h.012v-.812l1.283.8a1.062,1.062,0,0,0,1.3-.142L79.51,60.4a1.061,1.061,0,0,0,.026-1.49L69.912,48.835a1.056,1.056,0,0,0-.471-.286,54.558,54.558,0,0,0-6.647-1.53V42.2a2.654,2.654,0,0,1,2.651-2.651h3.182A4.777,4.777,0,0,0,73.4,34.772a2.654,2.654,0,0,1,2.651-2.651h5.3a2.645,2.645,0,0,1,2.621,2.349,2.939,2.939,0,0,0-1.142.726,3.06,3.06,0,0,0-.851,2.272l2.025,44.543a1.061,1.061,0,0,0,2.119,0L88.149,37.47A3.059,3.059,0,0,0,87.3,35.2a2.943,2.943,0,0,0-1.2-.745A4.764,4.764,0,0,0,81.353,30h-5.3a4.777,4.777,0,0,0-4.772,4.772,2.654,2.654,0,0,1-2.651,2.651H65.445A4.777,4.777,0,0,0,60.673,42.2v4.59l-12.281-.012h0a1.189,1.189,0,0,0-.134.008,48.77,48.77,0,0,0-8.047,1.769,1.066,1.066,0,0,0-.467.285L30.12,58.912a1.06,1.06,0,0,0,.026,1.49l6.707,6.562a1.056,1.056,0,0,0,1.3.141L39.45,66.3v9.3H36.812a4.772,4.772,0,1,0,0,9.545H39.45V89.88a3.639,3.639,0,0,0,3.635,3.634H66.571A3.638,3.638,0,0,0,70.2,89.88V85.146h3.777a1.54,1.54,0,0,1,1.538,1.538v3.287a3.663,3.663,0,0,0,3.659,3.659H92.488a1.06,1.06,0,1,0,0-2.121Zm-7.424-32.9L84.1,37.373a.946.946,0,0,1,.9-1c.021,0,.04.012.062.012s.04-.011.062-.012a.946.946,0,0,1,.9,1ZM71.916,64.865l-1.7-1.061V52.227l7.061,7.393ZM59.867,48.906a5.384,5.384,0,0,1-10.19-.01ZM37.741,64.865,32.378,59.62l7.085-7.42V63.79Zm3.843-14.5a46.714,46.714,0,0,1,5.926-1.334,7.43,7.43,0,0,0,7.264,5.637,7.537,7.537,0,0,0,5.9-2.831V65.227a4.965,4.965,0,0,0-5.728-.13,4.986,4.986,0,0,0-2.783-.846,5.11,5.11,0,0,0-5.067,5.141c0,2.326,2.332,4.631,4.378,6.209h-9.9ZM54.945,75.43c-2.41-1.476-5.729-4.154-5.729-6.037a2.987,2.987,0,0,1,2.946-3.02,2.892,2.892,0,0,1,2.039.844,1.06,1.06,0,0,0,1.487,0,2.892,2.892,0,0,1,2.038-.844,2.987,2.987,0,0,1,2.946,3.02c0,1.883-3.319,4.561-5.728,6.037Zm-18.133,7.6a2.651,2.651,0,1,1,0-5.3H39.45v5.3ZM68.084,89.88a1.514,1.514,0,0,1-1.513,1.513H43.085a1.515,1.515,0,0,1-1.514-1.513V84.147c0-.021.012-.04.012-.062s-.011-.04-.012-.062v-6.3H54.945a1.066,1.066,0,0,0,.525-.139c.75-.428,7.324-4.287,7.324-8.191V49.164a51.842,51.842,0,0,1,5.3,1.214Z" transform="translate(0)" fill="#9f0925"/>
    </g>
  </g>
</svg>
