<svg xmlns="http://www.w3.org/2000/svg" xmlns:xlink="http://www.w3.org/1999/xlink" width="88.815" height="107.526" viewBox="0 0 88.815 107.526">
  <defs>
    <clipPath id="clip-path">
      <path id="path4890" d="M0-682.665H88.815v88.815H0Z" transform="translate(0 682.665)"/>
    </clipPath>
  </defs>
  <g id="_34" data-name="34" transform="translate(-359.092 -11158)">
    <g id="Grupo_986824" data-name="Grupo 986824" transform="translate(364 11158.489)">
      <g id="Grupo_985825" data-name="Grupo 985825" transform="translate(0 -0.489)">
        <path id="Rectángulo_338972" data-name="Rectángulo 338972" d="M0,0H79a0,0,0,0,1,0,0V71.526a36,36,0,0,1-36,36H36a36,36,0,0,1-36-36V0A0,0,0,0,1,0,0Z" fill="#0ce6ea"/>
      </g>
    </g>
    <g id="g4884" transform="translate(359.092 11850.021)">
      <g id="g4886" transform="translate(0 -682.665)">
        <g id="g4888" transform="translate(0 0)" clip-path="url(#clip-path)">
          <g id="g4894" transform="translate(1.301 53.509)">
            <path id="path4896" d="M-382,0c11.913,0,17.037,1.578,17.037,3.945,0,4.576-8.711,1.578-8.711,6,0,4.272,20.5,1.42,20.752,6.154.157,2.9-5.372,3.572-12.682,3.787-8.134.239-17.549-.947-17.678,2.84-.133,3.942,8.2,1.5,8.2,6.073,0,7.025-41.885,6.867-41.885,0,0-4.576,8.332-2.131,8.2-6.073-.128-3.787-9.543-2.6-17.678-2.84-7.31-.215-12.839-.884-12.682-3.787.256-4.734,20.752-1.882,20.752-6.154,0-4.419-8.711-1.42-8.711-6,0-2.367,5.124-3.945,17.037-3.945Z" transform="translate(439.135)" fill="#baeefc"/>
          </g>
          <g id="g4898" transform="translate(41.722 73.393)">
            <path id="path4900" d="M-103.165-18.984c.073-2.161,3.172-2.7,7.33-2.814-6.7-.057-12.95-.266-13.054,2.814-.133,3.942,8.2,1.5,8.2,6.073,0,3.171-8.537,4.879-17.9,5.166,11.285.344,23.627-1.353,23.627-5.166,0-4.576-8.332-2.131-8.2-6.073" transform="translate(118.594 21.824)" fill="#a2e1f8"/>
          </g>
          <g id="g4902" transform="translate(52.708 53.509)">
            <path id="path4904" d="M-93.949-66.473c0-4.419,8.711-1.42,8.711-6,0-2.367-5.124-3.945-17.037-3.945H-108c11.913,0,17.037,1.578,17.037,3.945,0,4.576-8.711,1.578-8.711,6,0,4.272,20.5,1.42,20.752,6.154.157,2.9-5.372,3.572-12.682,3.787l-.466.012c2.033.018,4.152.048,6.191-.012,7.31-.215,12.839-.884,12.682-3.787-.256-4.734-20.752-1.882-20.752-6.154" transform="translate(108 76.414)" fill="#a2e1f8"/>
          </g>
          <g id="g4906" transform="translate(30.196 20.906)">
            <path id="path4908" d="M-95.025,0l-12.289,21.286A14.19,14.19,0,0,0-95.025,42.572,14.19,14.19,0,0,0-82.736,21.286Z" transform="translate(109.237)" fill="#82d5f2"/>
          </g>
          <g id="g4910" transform="translate(52.985 7.372)">
            <path id="path4912" d="M-42.4,0l-5.483,9.5a6.332,6.332,0,0,0,5.483,9.5,6.332,6.332,0,0,0,5.483-9.5Z" transform="translate(48.739)" fill="#baeefc"/>
          </g>
          <g id="g4914" transform="translate(30.957 1.301)">
            <path id="path4916" d="M-29.62,0l-3.831,6.635A4.423,4.423,0,0,0-29.62,13.27a4.423,4.423,0,0,0,3.831-6.635Z" transform="translate(34.05)" fill="#82d5f2"/>
          </g>
          <g id="g4918" transform="translate(0 52.208)">
            <path id="path4920" d="M-530.577-126.219a72.407,72.407,0,0,1-14.788-1.34c-5.136-1.128-7.633-2.82-7.633-5.17,0-3.417,3.245-4.125,5.393-4.594,2.278-.5,2.829-.779,2.807-1.435-.056-1.668-6.275-1.609-10.815-1.565-1.844.018-3.75.036-5.6-.019-6.69-.2-11.209-.724-13.065-2.741a3.242,3.242,0,0,1-.878-2.417c.193-3.561,5.951-4.021,12.047-4.507,2.864-.229,8.2-.654,8.711-1.607-.008-.859-.61-1.167-3.226-1.617-2.187-.376-5.493-.945-5.493-4.349,0-3.579,5.827-5.246,18.338-5.246a1.3,1.3,0,0,1,1.3,1.3,1.3,1.3,0,0,1-1.3,1.3c-15.308,0-15.736,2.618-15.736,2.644,0,.985.623,1.319,3.332,1.785,2.142.368,5.378.925,5.378,4.211s-5.143,3.7-11.1,4.171c-2.869.229-9.586.765-9.656,2.054a.637.637,0,0,0,.195.515c1.486,1.615,8.562,1.823,11.226,1.9,1.8.053,3.68.035,5.5.018,7.136-.068,13.3-.127,13.441,4.079.1,2.985-2.762,3.61-4.853,4.066-2.51.548-3.345.921-3.345,2.051,0,1.4,6.623,3.908,19.82,3.908,12.532,0,19.463-2.311,19.463-3.908,0-1.13-.835-1.5-3.345-2.051-2.09-.456-4.953-1.081-4.852-4.066.142-4.206,6.3-4.148,13.441-4.079,1.819.017,3.7.035,5.5-.018a1.3,1.3,0,0,1,1.339,1.262,1.3,1.3,0,0,1-1.262,1.339c-1.85.054-3.757.036-5.6.019-4.54-.043-10.759-.1-10.815,1.565-.022.657.529.938,2.806,1.435,2.147.469,5.393,1.177,5.393,4.594C-508.512-126.688-525.4-126.219-530.577-126.219Z" transform="translate(575.163 162.826)"/>
          </g>
          <g id="g4922" transform="translate(57.132 52.208)">
            <path id="path4924" d="M14.4,12.036a1.3,1.3,0,0,1-.166-2.591c3.128-.406,4.9-1.126,4.849-1.978-.07-1.289-6.545-1.806-9.656-2.054-5.955-.475-11.1-.885-11.1-4.17S1.563-2.6,3.7-2.969c2.709-.466,3.332-.8,3.332-1.785C7.037-4.78,6.609-7.4-8.7-7.4A1.3,1.3,0,0,1-10-8.7,1.3,1.3,0,0,1-8.7-10C3.812-10,9.639-8.333,9.639-4.754c0,3.4-3.306,3.973-5.493,4.349C1.53.046.928.353.928,1.243c.507.923,5.838,1.348,8.7,1.577,6.1.486,11.855.946,12.048,4.507.2,3.751-5.112,4.44-7.113,4.7A1.313,1.313,0,0,1,14.4,12.036Z" transform="translate(10 10)"/>
          </g>
          <g id="g4926" transform="translate(28.891 19.605)">
            <path id="path4928" d="M-52.571-53.466a15.334,15.334,0,0,1-13.416-7.746,15.334,15.334,0,0,1,0-15.492l5.631-9.754a1.3,1.3,0,0,1,1.777-.476,1.3,1.3,0,0,1,.476,1.777L-63.733-75.4a12.758,12.758,0,0,0,0,12.89,12.758,12.758,0,0,0,11.163,6.445,12.758,12.758,0,0,0,11.163-6.445,12.758,12.758,0,0,0,0-12.89L-52.571-94.737-54.5-91.4a1.3,1.3,0,0,1-1.777.476A1.3,1.3,0,0,1-56.75-92.7l3.053-5.287a1.3,1.3,0,0,1,1.127-.651,1.3,1.3,0,0,1,1.127.651L-39.155-76.7a15.334,15.334,0,0,1,0,15.492A15.334,15.334,0,0,1-52.571-53.466Z" transform="translate(68.087 98.64)"/>
          </g>
          <g id="g4930" transform="translate(43.107 52.479)">
            <path id="path4932" d="M-68.519-2.906a1.3,1.3,0,0,1-1.3-1.3,1.3,1.3,0,0,1,1.3-1.3,7.608,7.608,0,0,0,6.656-3.843,1.3,1.3,0,0,1,1.777-.476A1.3,1.3,0,0,1-59.61-8.05,10.183,10.183,0,0,1-68.519-2.906Z" transform="translate(69.82 10.002)"/>
          </g>
          <g id="g4934" transform="translate(51.681 6.071)">
            <path id="path4936" d="M-51.116-10a1.3,1.3,0,0,1,1.127.65l5.483,9.5a7.555,7.555,0,0,1,0,7.633,7.555,7.555,0,0,1-6.61,3.816,7.555,7.555,0,0,1-6.61-3.816,7.555,7.555,0,0,1,0-7.633l5.483-9.5A1.3,1.3,0,0,1-51.116-10Zm0,18.995a4.979,4.979,0,0,0,4.357-2.515,4.979,4.979,0,0,0,0-5.031L-51.116-6.1l-4.357,7.546a4.979,4.979,0,0,0,0,5.031A4.979,4.979,0,0,0-51.116,8.995Z" transform="translate(58.76 10)"/>
          </g>
          <g id="g4938" transform="translate(29.654 0)">
            <path id="path4940" d="M-38.336-10a1.3,1.3,0,0,1,1.127.651l3.831,6.635a5.666,5.666,0,0,1,0,5.724,5.666,5.666,0,0,1-4.957,2.862A5.666,5.666,0,0,1-43.293,3.01a5.666,5.666,0,0,1,0-5.724l3.831-6.635A1.3,1.3,0,0,1-38.336-10Zm0,13.27a3.091,3.091,0,0,0,2.7-1.561,3.091,3.091,0,0,0,0-3.122l-2.7-4.684-2.7,4.684a3.091,3.091,0,0,0,0,3.122A3.091,3.091,0,0,0-38.336,3.27Z" transform="translate(44.069 10)"/>
          </g>
        </g>
      </g>
    </g>
  </g>
</svg>
