<svg xmlns="http://www.w3.org/2000/svg" width="76" height="76" viewBox="0 0 76 76">
  <g id="Grupo_987107" data-name="Grupo 987107" transform="translate(-6277 1886)">
    <rect id="Rectángulo_345064" data-name="Rectángulo 345064" width="76" height="76" transform="translate(6277 -1886)" fill="none"/>
    <g id="_x32_0_Embroidery" transform="translate(6271.587 -1925.589)">
      <g id="Grupo_987106" data-name="Grupo 987106" transform="translate(12.413 51.589)">
        <path id="Trazado_732574" data-name="Trazado 732574" d="M71.218,71.858V65.744a2.2,2.2,0,0,0-2.193-2.194,2.166,2.166,0,0,0-1.538.647,1.632,1.632,0,0,1-2.244,0,1.606,1.606,0,0,1,0-2.25l.94-.94A3.442,3.442,0,1,0,61.254,56.2l-3.93,4.137a25.659,25.659,0,1,0,.927,1.119L62.3,57.2a2,2,0,1,1,2.864,2.788l-.947.947a3.055,3.055,0,0,0,0,4.286,3.108,3.108,0,0,0,4.288,0,.721.721,0,0,1,.517-.224.743.743,0,0,1,.75.75v6.139c-1.3.509-2.239,2.3-2.239,4.505s.94,4,2.239,4.505V93.459a.722.722,0,0,0,1.443,0V80.921c1.329-.478,2.3-2.292,2.3-4.532S72.547,72.336,71.218,71.858Zm-8.965,5.368a24.241,24.241,0,1,1-5.927-15.834L54.5,63.308a21.458,21.458,0,1,0,.906,1.142l1.836-1.933a24.059,24.059,0,0,1,5.006,14.709ZM38.418,73l-2.342,2.342L33.734,73l2.342-2.342ZM37.1,69.642,39.439,67.3l2.342,2.342-2.342,2.342Zm0,6.725,2.342-2.342,2.339,2.339-2.342,2.342Zm1.319,3.36-2.342,2.342-2.339-2.34,2.342-2.342Zm-3.36-3.36-2.342,2.342-2.342-2.342,2.342-2.342ZM31.693,79.73l-2.342,2.342L27.009,79.73l2.342-2.342Zm1.02,1.021,2.339,2.34-2.342,2.342-2.339-2.34Zm3.36,3.36,2.345,2.345L36.076,88.8l-2.345-2.345Zm1.021-1.021,2.342-2.342,2.345,2.345-2.342,2.342Zm3.363-3.363L42.8,77.385l2.345,2.345L42.8,82.072Zm3.362-3.363,2.342-2.342,2.345,2.345L46.164,78.71ZM42.8,75.344,40.459,73,42.8,70.663,45.14,73Zm1.024-5.7L45.9,67.561a.722.722,0,1,0-1.021-1.021L42.8,68.622,40.459,66.28,42.541,64.2a.722.722,0,0,0-1.021-1.021l-2.081,2.081-1.994-1.994a.722.722,0,1,0-1.021,1.021l1.994,1.994-2.342,2.342-1.994-1.994a.722.722,0,0,0-1.021,1.021l1.994,1.994-2.342,2.342L30.72,69.99A.722.722,0,0,0,29.7,71.011L31.693,73l-2.342,2.342-1.994-1.994a.722.722,0,0,0-1.021,1.021l1.994,1.994-2.342,2.342-1.994-1.994a.722.722,0,0,0-1.021,1.021l1.994,1.994-2.082,2.082a.722.722,0,1,0,1.021,1.021l2.082-2.082,2.342,2.342-2.082,2.082a.722.722,0,0,0,1.021,1.021l2.082-2.082,2.34,2.34-2.08,2.08a.722.722,0,0,0,1.021,1.021l2.08-2.08,2.345,2.345L32.974,91.9a.722.722,0,1,0,1.021,1.021l2.082-2.082,1.994,1.994a.722.722,0,0,0,1.021-1.021L37.1,89.818l2.342-2.342,1.994,1.994a.722.722,0,0,0,1.021-1.021l-1.994-1.994L42.8,84.113,44.8,86.107a.722.722,0,0,0,1.021-1.021l-1.994-1.994,2.342-2.342,1.994,1.994a.722.722,0,1,0,1.021-1.021L47.185,79.73l2.342-2.342,1.994,1.994a.722.722,0,0,0,1.021-1.021l-1.994-1.994,2.081-2.081a.722.722,0,0,0-1.021-1.021l-2.081,2.081L47.182,73l2.1-2.1,5.112-5.381A19.8,19.8,0,1,1,53.5,64.36L48.243,69.9l-2.082,2.082Zm26.7,9.969c-.73,0-1.545-1.378-1.545-3.222a4.539,4.539,0,0,1,.8-2.755v1.211a.722.722,0,0,0,1.443,0V73.572a4.419,4.419,0,0,1,.852,2.817C72.07,78.233,71.254,79.611,70.524,79.611Z" transform="translate(-12.413 -51.589)" fill="#9f0925"/>
      </g>
    </g>
  </g>
</svg>
