<svg xmlns="http://www.w3.org/2000/svg" width="76" height="76" viewBox="0 0 76 76">
  <g id="Grupo_987108" data-name="Grupo 987108" transform="translate(-6592 1886)">
    <rect id="Rectángulo_345065" data-name="Rectángulo 345065" width="76" height="76" transform="translate(6592 -1886)" fill="none"/>
    <g id="bordado_7_" data-name="bordado (7)" transform="translate(6583 -1907.985)">
      <path id="Trazado_732575" data-name="Trazado 732575" d="M366.605,251.651a15.518,15.518,0,0,1,.1,1.746,15.343,15.343,0,0,1-.085,1.609,1.027,1.027,0,0,0,.913,1.13,1.039,1.039,0,0,0,.11.006,1.027,1.027,0,0,0,1.02-.919,17.367,17.367,0,0,0,.1-1.825,17.6,17.6,0,0,0-.112-1.978,1.027,1.027,0,1,0-2.041.232Z" transform="translate(-305.585 -190.466)" fill="#9f0925"/>
      <path id="Trazado_732576" data-name="Trazado 732576" d="M139.651,311.919a1.027,1.027,0,1,0-1.888.809,16.368,16.368,0,0,0,1.9,3.309,1.027,1.027,0,1,0,1.65-1.224,14.317,14.317,0,0,1-1.663-2.893Z" transform="translate(-106.057 -243.45)" fill="#9f0925"/>
      <path id="Trazado_732577" data-name="Trazado 732577" d="M130.139,254.091l0-.024a14.611,14.611,0,0,1-.092-1.629,14.374,14.374,0,0,1,.1-1.71,1.027,1.027,0,1,0-2.039-.245,16.426,16.426,0,0,0-.117,1.955,16.634,16.634,0,0,0,.1,1.854l.005.045a1.027,1.027,0,0,0,1.018.9,1.039,1.039,0,0,0,.124-.008,1.027,1.027,0,0,0,.9-1.143Z" transform="translate(-97.612 -189.657)" fill="#9f0925"/>
      <path id="Trazado_732578" data-name="Trazado 732578" d="M346.373,196.928a1.027,1.027,0,1,0,1.9-.777,16.49,16.49,0,0,0-1.839-3.343A1.027,1.027,0,1,0,344.764,194,14.428,14.428,0,0,1,346.373,196.928Z" transform="translate(-286.386 -139.8)" fill="#9f0925"/>
      <path id="Trazado_732579" data-name="Trazado 732579" d="M238.215,383.194h0a14.5,14.5,0,0,1-3.3-.01,1.027,1.027,0,1,0-.242,2.04,16.443,16.443,0,0,0,1.929.114,16.662,16.662,0,0,0,1.86-.1l.044-.006.022,0a1.027,1.027,0,1,0-.312-2.03Z" transform="translate(-189.807 -306.102)" fill="#9f0925"/>
      <path id="Trazado_732580" data-name="Trazado 732580" d="M176.524,361.933a16.49,16.49,0,0,0,3.3,1.918,1.027,1.027,0,0,0,.82-1.884,14.438,14.438,0,0,1-2.887-1.679,1.027,1.027,0,0,0-1.231,1.645Z" transform="translate(-139.555 -285.973)" fill="#9f0925"/>
      <path id="Trazado_732581" data-name="Trazado 732581" d="M139.995,192.37a16.5,16.5,0,0,0-1.923,3.295,1.027,1.027,0,1,0,1.882.823,14.435,14.435,0,0,1,1.683-2.884,1.027,1.027,0,0,0-1.643-1.234Z" transform="translate(-106.324 -139.436)" fill="#9f0925"/>
      <path id="Trazado_732582" data-name="Trazado 732582" d="M177.732,157.437a1.022,1.022,0,0,0,.61-.2,14.313,14.313,0,0,1,2.9-1.658,1.027,1.027,0,0,0-.806-1.89,16.371,16.371,0,0,0-3.312,1.9,1.027,1.027,0,0,0,.612,1.853Z" transform="translate(-140.071 -106.005)" fill="#9f0925"/>
      <path id="Trazado_732583" data-name="Trazado 732583" d="M235.63,146.435a18.43,18.43,0,0,1,3.367.057,1.013,1.013,0,0,0,.116.007,1.027,1.027,0,0,0,.114-2.048,20.439,20.439,0,0,0-3.761-.064l-.038,0h0a1.027,1.027,0,0,0,.2,2.044Z" transform="translate(-190.452 -97.921)" fill="#9f0925"/>
      <path id="Trazado_732584" data-name="Trazado 732584" d="M344.868,317.056a1.027,1.027,0,0,0,1.437-.211,15.606,15.606,0,0,0,1.888-3.33,1.027,1.027,0,1,0-1.9-.788,13.559,13.559,0,0,1-1.639,2.891,1.027,1.027,0,0,0,.211,1.437Z" transform="translate(-286.283 -244.146)" fill="#9f0925"/>
      <path id="Trazado_732585" data-name="Trazado 732585" d="M298.765,360.812a14.658,14.658,0,0,1-2.928,1.609,1.027,1.027,0,1,0,.782,1.9,16.72,16.72,0,0,0,3.339-1.836,1.027,1.027,0,1,0-1.192-1.673Z" transform="translate(-243.353 -286.442)" fill="#9f0925"/>
      <path id="Trazado_732586" data-name="Trazado 732586" d="M189.969,210.54a3.539,3.539,0,0,0-4.955,4.955l1.338,1.784-.647.97a3.236,3.236,0,0,0,2.692,5.031c.076,0,.153,0,.23-.008a3.235,3.235,0,0,0,2.36-1.286l.85-1.133a3.072,3.072,0,0,0,3.382-.015l.861,1.148a3.234,3.234,0,0,0,2.359,1.286q.115.008.23.008a3.236,3.236,0,0,0,2.692-5.031l-.647-.97,1.338-1.784a3.539,3.539,0,0,0-4.955-4.955l-1.527,1.145v-.178a2.463,2.463,0,0,1,.726-1.753,1.027,1.027,0,0,0-1.453-1.453,4.5,4.5,0,0,0-1.308,2.781h-.04a4.5,4.5,0,0,0-1.308-2.781,1.027,1.027,0,0,0-1.453,1.453,2.463,2.463,0,0,1,.726,1.753v.152l-1.492-1.119Zm-.626,10.213a1.182,1.182,0,0,1-1.781.127,1.185,1.185,0,0,1-.148-1.491l1.05-1.575a1.027,1.027,0,0,0-.033-1.186l-1.774-2.365a1.485,1.485,0,0,1,2.079-2.079l1.768,1.326a3.081,3.081,0,0,0-.07.653v4.109a3.071,3.071,0,0,0,.124.862l-1.215,1.62Zm7.188-7.222,1.8-1.348a1.485,1.485,0,0,1,2.079,2.079l-1.774,2.365a1.027,1.027,0,0,0-.033,1.186l1.05,1.575a1.185,1.185,0,0,1-.148,1.491,1.182,1.182,0,0,1-1.781-.127l-1.24-1.653a3.072,3.072,0,0,0,.114-.829v-4.109a3.082,3.082,0,0,0-.065-.631Zm-4.043.631a1.027,1.027,0,0,1,2.054,0v4.109a1.027,1.027,0,0,1-2.054,0Z" transform="translate(-146.701 -153.417)" fill="#9f0925"/>
      <path id="Trazado_732587" data-name="Trazado 732587" d="M74.64,32.4h0l-9.97,8.157a3.115,3.115,0,0,0,.155,4.943,1.577,1.577,0,0,1-.145.317A24.58,24.58,0,0,0,49.9,38.341V36.1h1.027v1.027A1.027,1.027,0,0,0,51.95,38.15h4.109a1.027,1.027,0,0,0,1.027-1.027V33.014a1.027,1.027,0,0,0-1.027-1.027H51.95a1.027,1.027,0,0,0-1.027,1.027v1.027H40.651a1.027,1.027,0,1,0,0,2.054h3.081v2.245A24.638,24.638,0,0,0,28.327,79.088c0,.006,0,.012,0,.019V82.83a3.595,3.595,0,1,1-7.19,0V76.154a4.113,4.113,0,0,0-4.109-4.109,1.027,1.027,0,1,0,0,2.054,2.057,2.057,0,0,1,2.054,2.054V82.83a5.649,5.649,0,0,0,11.3,0V81.158A24.644,24.644,0,0,0,66.059,47.4a3.652,3.652,0,0,0,.737-1.313,3.1,3.1,0,0,0,2.261-1.139l8.157-9.97A1.83,1.83,0,0,0,74.64,32.4ZM52.977,34.041h2.054V36.1H52.977ZM49.9,40.414a22.512,22.512,0,0,1,12.391,5.919l-.447-.149a3.64,3.64,0,0,0-2.727.167A20.38,20.38,0,0,0,49.9,42.488ZM45.787,36.1h2.054v7.19H45.787Zm-2.022,8.467a1.027,1.027,0,0,0,1,.777h4.109a1.027,1.027,0,0,0,.995-.776,18.332,18.332,0,0,1,7.7,3.2,3.681,3.681,0,0,0-.281.573,1.6,1.6,0,0,1-2.345.771L52.5,47.555a1.027,1.027,0,1,0-1.1,1.733l2.434,1.549a3.649,3.649,0,0,0,5.362-1.76,18.481,18.481,0,1,1-15.43-4.514ZM69.411,62.8A22.6,22.6,0,1,1,43.733,40.414v2.075a20.56,20.56,0,1,0,17.451,5.642l.006,0,.97.323a3.651,3.651,0,0,0,2.152.047,22.536,22.536,0,0,1,5.1,14.3ZM67.468,43.644a1.066,1.066,0,0,1-.2.187l.069-.344a1.026,1.026,0,0,0-1.629-1.017,1.062,1.062,0,0,1,.264-.323L74.2,35.413l-6.735,8.231Zm8.473-9.653h0Z" fill="#9f0925"/>
    </g>
  </g>
</svg>
