<svg xmlns="http://www.w3.org/2000/svg" width="76" height="76" viewBox="0 0 76 76">
  <g id="Grupo_987109" data-name="Grupo 987109" transform="translate(-6915 1886)">
    <rect id="Rectángulo_345066" data-name="Rectángulo 345066" width="76" height="76" transform="translate(6915 -1886)" fill="none"/>
    <g id="bordado_8_" data-name="bordado (8)" transform="translate(6923.093 -1877.5)">
      <path id="Trazado_732588" data-name="Trazado 732588" d="M24.549,51.387A21.636,21.636,0,0,0,35.3,48.532a.472.472,0,1,0-.47-.82A20.7,20.7,0,1,1,45.245,29.745a.472.472,0,1,0,.945,0A21.676,21.676,0,0,0,30.566,8.962V7.757h3.652a.472.472,0,0,0,.472-.472V5a.472.472,0,0,0-.472-.472H30.565A2.049,2.049,0,0,0,28.519,2.5H20.566A2.049,2.049,0,0,0,18.52,4.528H14.878A.472.472,0,0,0,14.406,5V7.284a.472.472,0,0,0,.472.472h3.641V8.965a21.639,21.639,0,0,0,6.029,42.421ZM30.572,5.473h3.174V6.812H30.572ZM15.351,6.812V5.473h3.168V6.812Zm4.113-2.264a1.1,1.1,0,0,1,1.1-1.1h7.953a1.1,1.1,0,0,1,1.1,1.1V8.711a21.527,21.527,0,0,0-10.157,0V4.547Z" fill="#9f0925"/>
      <path id="Trazado_732589" data-name="Trazado 732589" d="M58.969,78.943a.473.473,0,0,0,.6-.294,17.46,17.46,0,1,0-5.411,7.806.472.472,0,1,0-.6-.729,16.458,16.458,0,1,1,5.119-7.384.472.472,0,0,0,.294.6Z" transform="translate(-18.511 -43.247)" fill="#9f0925"/>
      <path id="Trazado_732590" data-name="Trazado 732590" d="M109.829,20.135a.472.472,0,0,0-.472-.472h-5.039a.472.472,0,0,0,0,.945h5.039A.473.473,0,0,0,109.829,20.135Z" transform="translate(-82.295 -13.993)" fill="#9f0925"/>
      <path id="Trazado_732591" data-name="Trazado 732591" d="M85.463,89.537a.472.472,0,0,0,.668,0l.984-.984.984.984a.472.472,0,0,0,.668-.668l-.984-.984.984-.984a.472.472,0,0,0-.668-.668l-.984.984-.984-.984a.472.472,0,1,0-.668.668l.984.984-.984.984A.473.473,0,0,0,85.463,89.537Z" transform="translate(-67.194 -68.155)" fill="#9f0925"/>
      <path id="Trazado_732592" data-name="Trazado 732592" d="M85.463,114.069a.472.472,0,0,0,.668,0l.984-.984.984.984a.472.472,0,1,0,.668-.668l-.984-.984.984-.984a.472.472,0,0,0-.668-.668l-.984.984-.984-.984a.472.472,0,0,0-.668.668l.984.984-.984.984A.473.473,0,0,0,85.463,114.069Z" transform="translate(-67.194 -88.156)" fill="#9f0925"/>
      <path id="Trazado_732593" data-name="Trazado 732593" d="M85.464,139.126a.472.472,0,0,0,.668,0l.984-.984.984.984a.472.472,0,0,0,.668-.668l-.984-.984.984-.984a.472.472,0,1,0-.668-.668l-.984.984-.984-.984a.472.472,0,0,0-.668.668l.984.984-.984.984A.472.472,0,0,0,85.464,139.126Z" transform="translate(-67.196 -108.584)" fill="#9f0925"/>
      <path id="Trazado_732594" data-name="Trazado 732594" d="M110.519,114.069a.472.472,0,0,0,.668,0l.984-.984.984.984a.472.472,0,1,0,.668-.668l-.984-.984.984-.984a.472.472,0,0,0-.668-.668l-.984.984-.984-.984a.472.472,0,0,0-.668.668l.984.984-.984.984A.473.473,0,0,0,110.519,114.069Z" transform="translate(-87.622 -88.156)" fill="#9f0925"/>
      <path id="Trazado_732595" data-name="Trazado 732595" d="M63.712,110.765a.472.472,0,0,0-.668,0l-.984.984-.984-.984a.472.472,0,0,0-.668.668l.984.984-.984.984a.472.472,0,1,0,.668.668l.984-.984.984.984a.472.472,0,1,0,.668-.668l-.984-.984.984-.984A.472.472,0,0,0,63.712,110.765Z" transform="translate(-46.768 -88.156)" fill="#9f0925"/>
      <path id="Trazado_732596" data-name="Trazado 732596" d="M63.713,135.821a.472.472,0,0,0-.668,0l-.984.984-.984-.984a.472.472,0,0,0-.668.668l.984.984-.984.984a.472.472,0,1,0,.668.668l.984-.984.984.984a.472.472,0,0,0,.668-.668l-.984-.984.984-.984A.472.472,0,0,0,63.713,135.821Z" transform="translate(-46.769 -108.584)" fill="#9f0925"/>
      <path id="Trazado_732597" data-name="Trazado 732597" d="M135.576,89.275a.472.472,0,0,0,.668,0l.984-.984.984.984a.472.472,0,0,0,.668-.668l-.984-.984.984-.984a.472.472,0,1,0-.668-.668l-.984.984-.984-.984a.472.472,0,1,0-.668.668l.984.984-.984.984A.472.472,0,0,0,135.576,89.275Z" transform="translate(-108.052 -67.941)" fill="#9f0925"/>
      <path id="Trazado_732598" data-name="Trazado 732598" d="M135.575,113.807a.472.472,0,0,0,.668,0l.984-.984.984.984a.472.472,0,1,0,.668-.668l-.984-.984.984-.984a.472.472,0,0,0-.668-.668l-.984.984-.984-.984a.472.472,0,0,0-.668.668l.984.984-.984.984A.473.473,0,0,0,135.575,113.807Z" transform="translate(-108.05 -87.942)" fill="#9f0925"/>
      <path id="Trazado_732599" data-name="Trazado 732599" d="M135.576,138.863a.472.472,0,0,0,.668,0l.984-.984.984.984a.472.472,0,0,0,.668-.668l-.984-.984.984-.984a.472.472,0,1,0-.668-.668l-.984.984-.984-.984a.472.472,0,1,0-.668.668l.984.984-.984.984A.472.472,0,0,0,135.576,138.863Z" transform="translate(-108.052 -108.37)" fill="#9f0925"/>
      <path id="Trazado_732600" data-name="Trazado 732600" d="M163.937,110.765a.472.472,0,0,0-.668,0l-.984.984-.984-.984a.472.472,0,0,0-.668.668l.984.984-.984.984a.472.472,0,1,0,.668.668l.984-.984.984.984a.472.472,0,0,0,.668-.668l-.984-.984.984-.984A.472.472,0,0,0,163.937,110.765Z" transform="translate(-128.481 -88.156)" fill="#9f0925"/>
      <path id="Trazado_732601" data-name="Trazado 732601" d="M163.938,135.821a.472.472,0,0,0-.668,0l-.984.984-.984-.984a.472.472,0,0,0-.668.668l.984.984-.984.984a.472.472,0,1,0,.668.668l.984-.984.984.984a.472.472,0,0,0,.668-.668l-.984-.984.984-.984A.472.472,0,0,0,163.938,135.821Z" transform="translate(-128.482 -108.584)" fill="#9f0925"/>
      <path id="Trazado_732602" data-name="Trazado 732602" d="M115.041,135.821a.472.472,0,0,0-.668,0l-.984.984-.984-.984a.472.472,0,0,0-.668.668l.984.984-.984.984a.472.472,0,1,0,.668.668l.984-.984.984.984a.472.472,0,0,0,.668-.668l-.984-.984.984-.984A.472.472,0,0,0,115.041,135.821Z" transform="translate(-88.616 -108.584)" fill="#9f0925"/>
      <path id="Trazado_732603" data-name="Trazado 732603" d="M115.041,160.353a.472.472,0,0,0-.668,0l-.984.984-.984-.984a.472.472,0,0,0-.668.668l.984.984-.984.984a.472.472,0,1,0,.668.668l.984-.984.984.984a.472.472,0,1,0,.668-.668l-.984-.984.984-.984A.472.472,0,0,0,115.041,160.353Z" transform="translate(-88.616 -128.585)" fill="#9f0925"/>
      <path id="Trazado_732604" data-name="Trazado 732604" d="M115.041,185.409a.472.472,0,0,0-.668,0l-.984.984-.984-.984a.472.472,0,1,0-.668.668l.984.984-.984.984a.472.472,0,1,0,.668.668l.984-.984.984.984a.472.472,0,1,0,.668-.668l-.984-.984.984-.984a.472.472,0,0,0,0-.668Z" transform="translate(-88.616 -149.013)" fill="#9f0925"/>
      <path id="Trazado_732605" data-name="Trazado 732605" d="M140.1,160.353a.472.472,0,0,0-.668,0l-.984.984-.984-.984a.472.472,0,0,0-.668.668l.984.984-.984.984a.472.472,0,1,0,.668.668l.984-.984.984.984a.472.472,0,0,0,.668-.668l-.984-.984.984-.984A.472.472,0,0,0,140.1,160.353Z" transform="translate(-109.045 -128.585)" fill="#9f0925"/>
      <path id="Trazado_732606" data-name="Trazado 732606" d="M89.985,160.353a.472.472,0,0,0-.668,0l-.984.984-.984-.984a.472.472,0,0,0-.668.668l.984.984-.984.984a.472.472,0,1,0,.668.668l.984-.984.984.984a.472.472,0,1,0,.668-.668L89,162.005l.984-.984A.472.472,0,0,0,89.985,160.353Z" transform="translate(-68.188 -128.585)" fill="#9f0925"/>
      <path id="Trazado_732607" data-name="Trazado 732607" d="M57.018,162.491a1.748,1.748,0,0,0-.677-1.313,2.26,2.26,0,0,0-2.883.09,1.737,1.737,0,0,0-.594,1.319l-.512-1.783a1.734,1.734,0,0,0-.847-1.037,2.194,2.194,0,0,0-1.663-.163,1.984,1.984,0,0,0-1.486,2.349l.144.552-1.983-2.993a1.694,1.694,0,0,0-1.1-.719,2.155,2.155,0,0,0-1.608.345,1.958,1.958,0,0,0-.691,2.652l1.832,2.792a6.3,6.3,0,0,0-5.963,1.241L36.875,159.6a.919.919,0,0,0-1.777.471l2.5,12.942a2.11,2.11,0,0,0-.391,3.3,4.671,4.671,0,0,0,1.131.537l.587,3.041a2.678,2.678,0,0,0,1.184,1.767,2.264,2.264,0,0,0,.753.3,1.886,1.886,0,0,1-1.839,1.482H5.737a1.883,1.883,0,1,1,0-3.767h8.874a.472.472,0,0,0,0-.945H5.737a2.828,2.828,0,1,0,0,5.656H39.02a2.83,2.83,0,0,0,2.8-2.44l.025-.005a2.187,2.187,0,0,0,1.368-1.1,2.662,2.662,0,0,0,.206-1.937c.638.252,1.341.529,2.118.834v2.606a2.05,2.05,0,0,0,2.047,2.047H53.5a2.05,2.05,0,0,0,2.047-2.047v-2.2c1.822-.884,1.707-3.245,1.689-3.5Zm-20.928-2.266,4.3,12.657-1.477-.165a2.077,2.077,0,0,0-.412-.006ZM41.425,173l-.958-2.821.431-.508c.008-.01.016-.02.024-.031a2.362,2.362,0,0,1,3.334-.529c.065.044,1.535,1.083.76,4.29Zm1.045,6.016a1.733,1.733,0,0,1-.091,1.371,1.294,1.294,0,0,1-.531.54V179.2a.472.472,0,0,0-.945,0v1.793a1.388,1.388,0,0,1-.3-.136,1.733,1.733,0,0,1-.758-1.146l-.469-2.428c.7.288,1.644.666,2.895,1.163Zm12.451.359a.472.472,0,0,0-.317.446v2.515a1.1,1.1,0,0,1-1.1,1.1H47.583a1.1,1.1,0,0,1-1.1-1.1V180.1l1.524.6a.472.472,0,0,0,.344-.88l-2.154-.844,0,0c-2.682-1.053-5.65-2.23-7.244-2.888l-.016-.007c-.563-.232-.952-.4-1.092-.471a1.167,1.167,0,0,1,.13-1.7,1.132,1.132,0,0,1,.839-.243l6.513.727a.471.471,0,0,0,.507-.341c1.2-4.229-.962-5.667-1.031-5.71a3.306,3.306,0,0,0-4.629.74l-.052.061-.792-2.332a5.347,5.347,0,0,1,6.808-.615,5.409,5.409,0,0,1,2.323,4.136.473.473,0,0,0,.471.443h.03a.472.472,0,0,0,.442-.5,6.348,6.348,0,0,0-2.728-4.853c-.023-.016-.047-.028-.07-.044l-2.689-4.1a1.034,1.034,0,0,1,.431-1.348,1.209,1.209,0,0,1,.9-.2.756.756,0,0,1,.494.314l3.588,5.416c.019.031,1.92,3.1,1.839,5.062a.472.472,0,0,0,.453.491h.02a.472.472,0,0,0,.472-.453c.093-2.257-1.9-5.466-1.988-5.612l-.008-.013c0-.008,0-.016,0-.025l-.832-3.2a1.061,1.061,0,0,1,.839-1.193,1.245,1.245,0,0,1,.942.083.8.8,0,0,1,.395.471l1.842,6.411a28.173,28.173,0,0,1,.681,3.107.472.472,0,0,0,.469.419.446.446,0,0,0,.054,0,.472.472,0,0,0,.416-.523,28.371,28.371,0,0,0-.711-3.256l-.438-1.525.051-3.1a.819.819,0,0,1,.288-.627,1.316,1.316,0,0,1,1.651-.052.814.814,0,0,1,.326.6l.221,14.183c.007.087.151,2.145-1.374,2.677Z" transform="translate(-0.002 -127.395)" fill="#9f0925"/>
    </g>
  </g>
</svg>
