<svg xmlns="http://www.w3.org/2000/svg" xmlns:xlink="http://www.w3.org/1999/xlink" width="190" height="196" viewBox="0 0 190 196">
  <defs>
    <clipPath id="clip-path">
      <rect id="Rectángulo_344973" data-name="Rectángulo 344973" width="160.481" height="111.312" fill="none"/>
    </clipPath>
  </defs>
  <g id="Grupo_987033" data-name="Grupo 987033" transform="translate(-705 -10375)">
    <rect id="Rectángulo_344887" data-name="Rectángulo 344887" width="190" height="196" transform="translate(705 10375)" fill="#fad1d9"/>
    <g id="Grupo_987032" data-name="Grupo 987032" transform="translate(720 10417)">
      <g id="Grupo_987031" data-name="Grupo 987031" clip-path="url(#clip-path)">
        <path id="Trazado_732318" data-name="Trazado 732318" d="M396.441,15.364A15.364,15.364,0,1,1,381.077,0a15.364,15.364,0,0,1,15.364,15.364" transform="translate(-284.535)" fill="#ab4019"/>
        <path id="Trazado_732319" data-name="Trazado 732319" d="M365.882,46.162a5.115,5.115,0,0,0-5.269,3.372,2.775,2.775,0,0,1-1.325,1.515c-4.564,2.4-10.662,6.972-12.893,14.883-3.445,12.212,5.393,25.381,5.771,25.936a2.561,2.561,0,0,0,4.234-2.881c-.079-.117-7.867-11.769-5.076-21.664,1.591-5.64,5.925-9.192,9.492-11.244a2.833,2.833,0,0,1,2.56-.125,5.118,5.118,0,0,0,7.167-4.971,5.15,5.15,0,0,0-4.66-4.821" transform="translate(-268.887 -35.9)" fill="#ab4019"/>
        <path id="Trazado_732320" data-name="Trazado 732320" d="M430.152,15.236C427.477,8.1,419.327,3.85,412.009,6.364c-.269.092-.153.521.118.428,7.076-2.43,15,1.637,17.6,8.563.1.265.529.15.428-.118" transform="translate(-320.436 -4.385)" fill="#fff"/>
        <path id="Trazado_732321" data-name="Trazado 732321" d="M494.224,57.9c-.043-.281-.471-.162-.428.118a11.617,11.617,0,0,1-.239,5.887c-.1.27.333.386.428.118a12.155,12.155,0,0,0,.239-6.123" transform="translate(-383.99 -44.92)" fill="#fff"/>
        <path id="Trazado_732322" data-name="Trazado 732322" d="M392.963,260.5H353.5v-60.72c0-2.11,9.414-8.236,16.475-8.023,3.46.1,5.824.034,6.722,1.109,3.013,3.607,23.5,30.961,25,33.366s-7.23,33.366-8.736,34.268" transform="translate(-275.033 -149.191)" fill="#f15a24"/>
        <path id="Trazado_732323" data-name="Trazado 732323" d="M376,260.523H336.534V199.67c0-3.013,20.184-10.544,23.2-6.929s23.5,31.029,25,33.439S377.5,259.619,376,260.523" transform="translate(-261.833 -149.21)" fill="#ab4019"/>
        <path id="Trazado_732324" data-name="Trazado 732324" d="M456.081,216.72c-2.467-3.562-4.875-7.176-7.461-10.653-2.388-3.21-5.011-6.244-7.561-9.324-.182-.22-.495.1-.314.314,2.616,3.159,5.31,6.271,7.743,9.574,2.487,3.376,4.822,6.867,7.21,10.313.162.233.547.012.383-.224" transform="translate(-342.87 -153.013)" fill="#fff"/>
        <path id="Trazado_732325" data-name="Trazado 732325" d="M516.322,296.424a44.8,44.8,0,0,0-3.293-3.82c-.2-.206-.513.109-.314.314a43.7,43.7,0,0,1,3.224,3.73c.172.223.558,0,.383-.224" transform="translate(-398.858 -227.603)" fill="#fff"/>
        <path id="Trazado_732326" data-name="Trazado 732326" d="M541.049,329.666c-.67-1.816-2.167-3.176-3.227-4.753-.158-.236-.543-.014-.383.224a41.921,41.921,0,0,1,2.893,4.008c.974,1.9.53,3.968.143,5.965-.054.279.374.4.428.118.35-1.8.805-3.777.147-5.563" transform="translate(-418.113 -252.714)" fill="#a6370f"/>
        <path id="Trazado_732327" data-name="Trazado 732327" d="M9.065,226.985h93.861c1.469,0,0,60.928,0,60.928H10.819Z" transform="translate(-7.053 -176.601)" fill="#732a12"/>
        <path id="Trazado_732328" data-name="Trazado 732328" d="M217.882,285h-74.7v10.845h74.7a5.423,5.423,0,1,0,0-10.845" transform="translate(-111.399 -221.741)" fill="#3f9cd1"/>
        <path id="Trazado_732329" data-name="Trazado 732329" d="M253.168,339.291h-74.7v10.845h74.7a5.423,5.423,0,1,0,0-10.845" transform="translate(-138.853 -263.978)" fill="#3f9cd1"/>
        <path id="Trazado_732330" data-name="Trazado 732330" d="M277.09,325.317l-54-.658a.222.222,0,0,0,0,.444l54,.657a.222.222,0,0,0,0-.444" transform="translate(-173.403 -252.595)" fill="#2785ba"/>
        <path id="Trazado_732331" data-name="Trazado 732331" d="M480.668,301.795c-.04-.282-.468-.162-.428.118.4,2.831-1.015,5.13-4.024,5.229-.285.009-.286.453,0,.444,3.328-.11,4.9-2.648,4.452-5.791" transform="translate(-370.343 -234.68)" fill="#2785ba"/>
        <path id="Trazado_732332" data-name="Trazado 732332" d="M291.211,360.717c-.059-.279-.487-.161-.428.118.615,2.934-3.006,3.536-5.07,3.6-2.275.07-4.551.112-6.826.156q-6.87.132-13.742.176c-9.163.064-18.325.032-27.488-.035q-7.759-.056-15.517-.135a.222.222,0,0,0,0,.444c19.949.188,39.9.376,59.85-.07,2.209-.049,4.819.243,6.924-.569a3.316,3.316,0,0,0,2.3-3.684" transform="translate(-172.664 -280.524)" fill="#2785ba"/>
        <path id="Trazado_732333" data-name="Trazado 732333" d="M522.945,346.975a4.023,4.023,0,0,0-2.128-1.808c-.258-.118-.483.264-.224.383a3.676,3.676,0,0,1,1.969,1.649c.122.258.5.033.383-.224" transform="translate(-404.947 -268.533)" fill="#2785ba"/>
        <path id="Trazado_732334" data-name="Trazado 732334" d="M482.21,289.522a2.021,2.021,0,0,0-.844-.7,5.98,5.98,0,0,0-1.346-.572.222.222,0,0,0-.118.428,5.054,5.054,0,0,1,1.109.457,1.9,1.9,0,0,1,.816.61.222.222,0,0,0,.383-.224" transform="translate(-373.255 -224.261)" fill="#2785ba"/>
        <path id="Trazado_732335" data-name="Trazado 732335" d="M274.952,354.808h53.68a5.406,5.406,0,0,0-.591-5.2h-53.68a5.407,5.407,0,0,1,.59,5.2" transform="translate(-213.462 -272.001)" fill="#f7c36f"/>
        <path id="Trazado_732336" data-name="Trazado 732336" d="M246.672,268.173h-53.68l18.062,18.075h53.68Z" transform="translate(-150.153 -208.646)" fill="#f7c36f"/>
        <path id="Trazado_732337" data-name="Trazado 732337" d="M294.395,373.05h-53.68l-10.358,18.075h53.68Z" transform="translate(-179.224 -290.244)" fill="#f7c36f"/>
        <path id="Trazado_732338" data-name="Trazado 732338" d="M247.386,293.489a9.372,9.372,0,0,0-.815-.555,3.049,3.049,0,0,1-1.03-1.389,1.7,1.7,0,0,0-.335-.514,4.532,4.532,0,0,1-1.076-1.214c-.354-.651-.642-.7-1.232-1.122-.681-.487-.608-1.37-1.212-1.91a4.954,4.954,0,0,1-1.147-1.12c-.14-.206-.162-.389-.361-.554a2.3,2.3,0,0,0-.65-.267,1.646,1.646,0,0,1-1.153-1.18,1.48,1.48,0,0,0-.224-.544c-.121-.151-.934-.5-.893-.694.059-.279-.368-.4-.428-.118-.086.4.077.5.341.767.622.635.632.465.823.958.06.155.059.33.134.483a1.146,1.146,0,0,0,.39.469,3.56,3.56,0,0,0,.77.261c.527.213.734.711,1.11,1.1a3.9,3.9,0,0,0,.589.483c.588.419.57.873.858,1.458.269.546.715.636,1.187.965.695.485.618,1.256,1.238,1.737.268.208.467.244.7.535a2.4,2.4,0,0,1,.315.6,2.545,2.545,0,0,0,.448.717c.541.557,1.7.834,1.791,1.719.028.282.472.285.444,0a1.484,1.484,0,0,0-.578-1.07" transform="translate(-184.243 -219.52)" fill="#f7bc5e"/>
        <path id="Trazado_732339" data-name="Trazado 732339" d="M277.905,293.489a9.367,9.367,0,0,0-.815-.555,3.049,3.049,0,0,1-1.03-1.389,1.7,1.7,0,0,0-.335-.514,4.532,4.532,0,0,1-1.076-1.214c-.354-.651-.642-.7-1.232-1.122-.681-.487-.608-1.37-1.212-1.91a4.954,4.954,0,0,1-1.147-1.12c-.14-.206-.162-.389-.361-.554a2.3,2.3,0,0,0-.65-.267,1.646,1.646,0,0,1-1.153-1.18,1.48,1.48,0,0,0-.224-.544c-.121-.151-.934-.5-.893-.694.059-.279-.368-.4-.428-.118-.086.4.077.5.341.767.622.635.632.465.823.958.06.155.059.33.134.483a1.145,1.145,0,0,0,.39.469,3.561,3.561,0,0,0,.77.261c.527.213.734.711,1.11,1.1a3.9,3.9,0,0,0,.589.483c.588.419.57.873.858,1.458.269.546.715.636,1.187.965.695.485.618,1.256,1.238,1.737.268.208.467.244.7.535a2.407,2.407,0,0,1,.315.6,2.543,2.543,0,0,0,.448.717c.541.557,1.7.834,1.791,1.719.028.282.472.285.444,0a1.484,1.484,0,0,0-.578-1.07" transform="translate(-207.988 -219.52)" fill="#f7bc5e"/>
        <path id="Trazado_732340" data-name="Trazado 732340" d="M308.425,293.489a9.372,9.372,0,0,0-.815-.555,3.049,3.049,0,0,1-1.03-1.389,1.694,1.694,0,0,0-.335-.514,4.532,4.532,0,0,1-1.076-1.214c-.354-.651-.642-.7-1.232-1.122-.681-.487-.608-1.37-1.212-1.91a4.954,4.954,0,0,1-1.147-1.12c-.14-.206-.162-.389-.361-.554a2.3,2.3,0,0,0-.65-.267,1.646,1.646,0,0,1-1.153-1.18,1.48,1.48,0,0,0-.224-.544c-.121-.151-.934-.5-.893-.694.059-.279-.368-.4-.428-.118-.086.4.077.5.341.767.622.635.632.465.823.958.06.155.059.33.134.483a1.145,1.145,0,0,0,.39.469,3.561,3.561,0,0,0,.77.261c.527.213.734.711,1.11,1.1a3.888,3.888,0,0,0,.589.483c.588.419.57.873.858,1.458.269.546.715.636,1.187.965.695.485.618,1.256,1.238,1.737.268.208.467.244.7.535a2.406,2.406,0,0,1,.315.6,2.545,2.545,0,0,0,.448.717c.541.557,1.7.834,1.791,1.719.028.282.472.285.444,0a1.484,1.484,0,0,0-.578-1.07" transform="translate(-231.733 -219.52)" fill="#f7bc5e"/>
        <path id="Trazado_732341" data-name="Trazado 732341" d="M338.945,293.489a9.372,9.372,0,0,0-.815-.555,3.049,3.049,0,0,1-1.03-1.389,1.694,1.694,0,0,0-.335-.514,4.532,4.532,0,0,1-1.076-1.214c-.354-.651-.642-.7-1.232-1.122-.681-.487-.608-1.37-1.212-1.91a4.954,4.954,0,0,1-1.147-1.12c-.14-.206-.162-.389-.361-.554a2.3,2.3,0,0,0-.65-.267,1.646,1.646,0,0,1-1.153-1.18,1.481,1.481,0,0,0-.224-.544c-.121-.151-.934-.5-.893-.694.059-.279-.368-.4-.428-.118-.086.4.077.5.341.767.622.635.632.465.823.958.06.155.059.33.134.483a1.145,1.145,0,0,0,.39.469,3.56,3.56,0,0,0,.77.261c.527.213.734.711,1.11,1.1a3.9,3.9,0,0,0,.589.483c.588.419.57.873.858,1.458.269.546.715.636,1.187.965.695.485.618,1.256,1.238,1.737.268.208.467.244.7.535a2.4,2.4,0,0,1,.315.6,2.545,2.545,0,0,0,.448.717c.541.557,1.7.834,1.791,1.719.028.282.472.285.444,0a1.484,1.484,0,0,0-.578-1.07" transform="translate(-255.478 -219.52)" fill="#f7bc5e"/>
        <path id="Trazado_732342" data-name="Trazado 732342" d="M369.464,293.489a9.372,9.372,0,0,0-.815-.555,3.049,3.049,0,0,1-1.03-1.389,1.694,1.694,0,0,0-.335-.514,4.532,4.532,0,0,1-1.076-1.214c-.354-.651-.642-.7-1.232-1.122-.681-.487-.608-1.37-1.212-1.91a4.949,4.949,0,0,1-1.146-1.12c-.141-.206-.162-.389-.361-.554a2.3,2.3,0,0,0-.65-.267,1.646,1.646,0,0,1-1.153-1.18,1.48,1.48,0,0,0-.224-.544c-.121-.151-.934-.5-.893-.694.059-.279-.368-.4-.428-.118-.086.4.077.5.341.767.622.635.632.465.823.958.06.155.059.33.134.483a1.145,1.145,0,0,0,.39.469,3.56,3.56,0,0,0,.77.261c.527.213.734.711,1.11,1.1a3.9,3.9,0,0,0,.589.483c.588.419.57.873.858,1.458.269.546.715.636,1.187.965.695.485.618,1.256,1.238,1.737.268.208.467.244.7.535a2.406,2.406,0,0,1,.315.6,2.545,2.545,0,0,0,.448.717c.541.557,1.7.834,1.791,1.719.028.282.472.285.444,0a1.484,1.484,0,0,0-.578-1.07" transform="translate(-279.223 -219.52)" fill="#f7bc5e"/>
        <path id="Trazado_732343" data-name="Trazado 732343" d="M399.984,293.489a9.368,9.368,0,0,0-.815-.555,3.047,3.047,0,0,1-1.03-1.389,1.7,1.7,0,0,0-.335-.514,4.532,4.532,0,0,1-1.076-1.214c-.354-.651-.642-.7-1.232-1.122-.681-.487-.608-1.37-1.212-1.91a4.955,4.955,0,0,1-1.147-1.12c-.14-.206-.162-.389-.361-.554a2.3,2.3,0,0,0-.65-.267,1.646,1.646,0,0,1-1.153-1.18,1.481,1.481,0,0,0-.224-.544c-.121-.151-.934-.5-.893-.694.059-.279-.368-.4-.428-.118-.086.4.077.5.341.767.622.635.632.465.823.958.06.155.059.33.134.483a1.144,1.144,0,0,0,.39.469,3.556,3.556,0,0,0,.77.261c.527.213.734.711,1.11,1.1a3.9,3.9,0,0,0,.589.483c.588.419.57.873.858,1.458.269.546.715.636,1.187.965.695.485.618,1.256,1.238,1.737.268.208.467.244.7.535a2.4,2.4,0,0,1,.315.6,2.544,2.544,0,0,0,.448.717c.541.557,1.7.834,1.791,1.719.028.282.472.285.444,0a1.484,1.484,0,0,0-.578-1.07" transform="translate(-302.969 -219.52)" fill="#f7bc5e"/>
        <path id="Trazado_732344" data-name="Trazado 732344" d="M430.5,293.489a9.372,9.372,0,0,0-.815-.555,3.049,3.049,0,0,1-1.03-1.389,1.694,1.694,0,0,0-.335-.514,4.532,4.532,0,0,1-1.076-1.214c-.354-.651-.642-.7-1.232-1.122-.681-.487-.608-1.37-1.212-1.91a4.949,4.949,0,0,1-1.147-1.12c-.14-.206-.162-.389-.361-.554a2.3,2.3,0,0,0-.65-.267,1.646,1.646,0,0,1-1.153-1.18,1.481,1.481,0,0,0-.224-.544c-.121-.151-.934-.5-.893-.694.059-.279-.368-.4-.428-.118-.086.4.077.5.341.767.622.635.632.465.823.958.06.155.059.33.134.483a1.145,1.145,0,0,0,.39.469,3.556,3.556,0,0,0,.77.261c.527.213.734.711,1.11,1.1a3.9,3.9,0,0,0,.589.483c.588.419.57.873.858,1.458.269.546.715.636,1.187.965.695.485.618,1.256,1.238,1.737.268.208.467.244.7.535a2.407,2.407,0,0,1,.315.6,2.543,2.543,0,0,0,.448.717c.541.557,1.7.834,1.791,1.719.028.282.472.285.444,0a1.484,1.484,0,0,0-.578-1.07" transform="translate(-326.714 -219.52)" fill="#f7bc5e"/>
        <path id="Trazado_732345" data-name="Trazado 732345" d="M274.873,349.837c-.375-.661-.122-1.079-.392-1.68a2.749,2.749,0,0,0-1.008-1.015c-.233-.166-.455.218-.224.383.679.486.56,1.051.82,1.787a2.814,2.814,0,0,0,.47.818,1.72,1.72,0,0,1,.385,1.909,2.879,2.879,0,0,0-.241.687,4.287,4.287,0,0,1-.707,1.431c-.189.288-.13.734-.284,1.033-.33.639-1.051.861-1.174,1.6-.039.234.053.461.022.7a1.729,1.729,0,0,1-.657,1.08c-.2.181-.544.331-.7.559a.951.951,0,0,0-.138.345c-.081.313.143.762.057,1.1a2.317,2.317,0,0,1-.849,1.073c-.507.459-.477.856-.778,1.4.035-.063-1.728,1.911-1.68,1.9-.272.084-.156.513.118.428.82-.254.822-.824,1.4-1.351a1.548,1.548,0,0,0,.512-.593c.147-.328.121-.691.3-1.015.283-.513.59-.472.9-.825a2.1,2.1,0,0,0,.533-1.047c.1-.565-.116-.921.33-1.4.308-.333.721-.522.945-.945s.106-.669.139-1.11c.055-.731.551-.9.934-1.418a4.929,4.929,0,0,0,.474-1.158c.156-.362.5-.549.654-.936a2.45,2.45,0,0,0,.1-.661,4.592,4.592,0,0,1,.387-1.061c.264-.827-.276-1.358-.649-2.015" transform="translate(-208.231 -270.055)" fill="#f7bc5e"/>
        <path id="Trazado_732346" data-name="Trazado 732346" d="M301.672,349.837c-.375-.661-.122-1.079-.392-1.68a2.748,2.748,0,0,0-1.008-1.015c-.233-.166-.455.218-.224.383.679.486.56,1.051.82,1.787a2.819,2.819,0,0,0,.47.818,1.719,1.719,0,0,1,.385,1.909,2.88,2.88,0,0,0-.241.687,4.284,4.284,0,0,1-.707,1.431c-.189.288-.129.734-.284,1.033-.33.639-1.051.861-1.174,1.6-.039.234.053.461.022.7a1.729,1.729,0,0,1-.657,1.08c-.2.181-.544.331-.7.559a.952.952,0,0,0-.138.345c-.081.313.143.762.057,1.1a2.317,2.317,0,0,1-.849,1.073c-.507.459-.477.856-.778,1.4.035-.063-1.728,1.911-1.68,1.9-.272.084-.156.513.118.428.82-.254.822-.824,1.4-1.351a1.548,1.548,0,0,0,.512-.593c.147-.328.121-.691.3-1.015.283-.513.59-.472.9-.825a2.1,2.1,0,0,0,.533-1.047c.1-.565-.116-.921.33-1.4.308-.333.721-.522.945-.945s.106-.669.139-1.11c.055-.731.551-.9.934-1.418a4.939,4.939,0,0,0,.474-1.158c.156-.362.5-.549.653-.936a2.447,2.447,0,0,0,.1-.661,4.594,4.594,0,0,1,.387-1.061c.264-.827-.276-1.358-.649-2.015" transform="translate(-229.081 -270.055)" fill="#f7bc5e"/>
        <path id="Trazado_732347" data-name="Trazado 732347" d="M335.407,349.837c-.375-.661-.122-1.079-.392-1.68a2.751,2.751,0,0,0-1.008-1.015c-.233-.166-.455.218-.224.383.679.486.56,1.051.82,1.787a2.82,2.82,0,0,0,.47.818,1.719,1.719,0,0,1,.385,1.909,2.88,2.88,0,0,0-.241.687,4.283,4.283,0,0,1-.707,1.431c-.189.288-.129.734-.284,1.033-.33.639-1.051.861-1.174,1.6-.039.234.053.461.022.7a1.729,1.729,0,0,1-.657,1.08c-.2.181-.544.331-.7.559a.952.952,0,0,0-.138.345c-.081.313.143.762.057,1.1a2.317,2.317,0,0,1-.849,1.073c-.507.459-.477.856-.778,1.4.035-.063-1.728,1.911-1.68,1.9-.272.084-.156.513.118.428.82-.254.822-.824,1.4-1.351a1.548,1.548,0,0,0,.512-.593c.147-.328.121-.691.3-1.015.283-.513.59-.472.9-.825a2.1,2.1,0,0,0,.533-1.047c.1-.565-.116-.921.33-1.4.308-.333.721-.522.945-.945s.106-.669.139-1.11c.055-.731.551-.9.934-1.418a4.937,4.937,0,0,0,.474-1.158c.156-.362.5-.549.653-.936a2.447,2.447,0,0,0,.1-.661,4.592,4.592,0,0,1,.387-1.061c.264-.827-.276-1.358-.649-2.015" transform="translate(-255.328 -270.055)" fill="#f7bc5e"/>
        <path id="Trazado_732348" data-name="Trazado 732348" d="M362.207,349.837c-.375-.661-.122-1.079-.392-1.68a2.75,2.75,0,0,0-1.008-1.015c-.233-.166-.455.218-.224.383.679.486.56,1.051.82,1.787a2.824,2.824,0,0,0,.47.818,1.72,1.72,0,0,1,.385,1.909,2.86,2.86,0,0,0-.241.687,4.288,4.288,0,0,1-.707,1.431c-.189.288-.129.734-.284,1.033-.329.639-1.051.861-1.174,1.6-.039.234.053.461.022.7a1.729,1.729,0,0,1-.657,1.08c-.2.181-.544.331-.7.559a.944.944,0,0,0-.138.345c-.081.313.143.762.057,1.1a2.316,2.316,0,0,1-.849,1.073c-.507.459-.477.856-.778,1.4.035-.063-1.728,1.911-1.68,1.9-.272.084-.156.513.118.428.819-.254.822-.824,1.4-1.351a1.547,1.547,0,0,0,.512-.593c.147-.328.121-.691.3-1.015.282-.513.59-.472.9-.825a2.1,2.1,0,0,0,.533-1.047c.1-.565-.116-.921.33-1.4.308-.333.721-.522.945-.945s.106-.669.139-1.11c.055-.731.551-.9.934-1.418a4.919,4.919,0,0,0,.474-1.158c.156-.362.5-.549.653-.936a2.456,2.456,0,0,0,.1-.661,4.582,4.582,0,0,1,.387-1.061c.264-.827-.275-1.358-.649-2.015" transform="translate(-276.179 -270.055)" fill="#f7bc5e"/>
        <path id="Trazado_732349" data-name="Trazado 732349" d="M396.983,349.837c-.375-.661-.122-1.079-.392-1.68a2.751,2.751,0,0,0-1.008-1.015c-.233-.166-.455.218-.224.383.679.486.56,1.051.82,1.787a2.819,2.819,0,0,0,.47.818,1.719,1.719,0,0,1,.385,1.909,2.88,2.88,0,0,0-.241.687,4.283,4.283,0,0,1-.707,1.431c-.189.288-.129.734-.284,1.033-.33.639-1.051.861-1.174,1.6-.039.234.053.461.022.7a1.729,1.729,0,0,1-.657,1.08c-.2.181-.544.331-.7.559a.952.952,0,0,0-.138.345c-.081.313.143.762.057,1.1a2.317,2.317,0,0,1-.849,1.073c-.507.459-.477.856-.778,1.4.035-.063-1.728,1.911-1.68,1.9-.272.084-.156.513.118.428.82-.254.822-.824,1.4-1.351a1.55,1.55,0,0,0,.513-.593c.147-.328.12-.691.3-1.015.283-.513.59-.472.9-.825a2.1,2.1,0,0,0,.533-1.047c.1-.565-.116-.921.33-1.4.308-.333.721-.522.945-.945s.106-.669.139-1.11c.055-.731.551-.9.934-1.418a4.947,4.947,0,0,0,.474-1.158c.156-.362.5-.549.653-.936a2.446,2.446,0,0,0,.1-.661,4.594,4.594,0,0,1,.387-1.061c.264-.827-.276-1.358-.649-2.015" transform="translate(-303.236 -270.055)" fill="#f7bc5e"/>
        <path id="Trazado_732350" data-name="Trazado 732350" d="M423.782,349.837c-.375-.661-.122-1.079-.392-1.68a2.751,2.751,0,0,0-1.008-1.015c-.233-.166-.455.218-.224.383.679.486.56,1.051.82,1.787a2.819,2.819,0,0,0,.47.818,1.719,1.719,0,0,1,.385,1.909,2.88,2.88,0,0,0-.241.687,4.283,4.283,0,0,1-.707,1.431c-.189.288-.129.734-.284,1.033-.33.639-1.051.861-1.174,1.6-.039.234.053.461.022.7a1.729,1.729,0,0,1-.657,1.08c-.2.181-.544.331-.7.559a.952.952,0,0,0-.138.345c-.081.313.143.762.057,1.1a2.317,2.317,0,0,1-.849,1.073c-.507.459-.477.856-.778,1.4.035-.063-1.728,1.911-1.68,1.9-.272.084-.156.513.118.428.82-.254.822-.824,1.4-1.351a1.55,1.55,0,0,0,.513-.593c.147-.328.12-.691.3-1.015.283-.513.59-.472.9-.825a2.1,2.1,0,0,0,.533-1.047c.1-.565-.116-.921.33-1.4.308-.333.721-.522.945-.945s.106-.669.139-1.11c.055-.731.551-.9.934-1.418a4.949,4.949,0,0,0,.474-1.158c.156-.362.5-.549.653-.936a2.447,2.447,0,0,0,.1-.661,4.592,4.592,0,0,1,.387-1.061c.264-.827-.276-1.358-.649-2.015" transform="translate(-324.086 -270.055)" fill="#f7bc5e"/>
        <path id="Trazado_732351" data-name="Trazado 732351" d="M456,349.837c-.375-.661-.122-1.079-.392-1.68a2.751,2.751,0,0,0-1.008-1.015c-.233-.166-.455.218-.224.383.679.486.56,1.051.82,1.787a2.819,2.819,0,0,0,.47.818,1.72,1.72,0,0,1,.385,1.909,2.88,2.88,0,0,0-.241.687,4.283,4.283,0,0,1-.707,1.431c-.189.288-.129.734-.284,1.033-.33.639-1.051.861-1.174,1.6-.039.234.053.461.022.7a1.729,1.729,0,0,1-.657,1.08c-.2.181-.544.331-.7.559a.952.952,0,0,0-.138.345c-.081.313.143.762.057,1.1a2.317,2.317,0,0,1-.849,1.073c-.507.459-.477.856-.778,1.4.035-.063-1.728,1.911-1.68,1.9-.272.084-.156.513.118.428.82-.254.822-.824,1.4-1.351a1.55,1.55,0,0,0,.513-.593c.147-.328.12-.691.3-1.015.283-.513.59-.472.9-.825a2.1,2.1,0,0,0,.533-1.047c.1-.565-.116-.921.33-1.4.308-.333.721-.522.945-.945s.106-.669.139-1.11c.055-.731.551-.9.934-1.418a4.949,4.949,0,0,0,.474-1.158c.156-.362.5-.549.653-.936a2.449,2.449,0,0,0,.1-.661,4.592,4.592,0,0,1,.387-1.061c.264-.827-.276-1.358-.649-2.015" transform="translate(-349.149 -270.055)" fill="#f7bc5e"/>
        <path id="Trazado_732352" data-name="Trazado 732352" d="M219.881,278.358a30.1,30.1,0,0,1-3.525-2.756c-.211-.192-.526.121-.314.314a30.833,30.833,0,0,0,3.615,2.825c.238.159.461-.225.224-.383" transform="translate(-168.033 -214.38)" fill="#fbcc83"/>
        <path id="Trazado_732353" data-name="Trazado 732353" d="M247.633,443.317H173.738v5.423h73.895a2.711,2.711,0,1,0,0-5.423" transform="translate(-135.173 -344.914)" fill="#78d6ff"/>
        <path id="Trazado_732354" data-name="Trazado 732354" d="M237.355,448.881l-14.549-.222a.222.222,0,0,0,.005.444l14.549.222a.222.222,0,0,0-.005-.444" transform="translate(-173.184 -349.07)" fill="#fff"/>
        <path id="Trazado_732355" data-name="Trazado 732355" d="M336.439,448.88c-10.967.113-21.931.165-32.9-.045a.222.222,0,0,0,0,.444c10.966.21,21.93.158,32.9.045a.222.222,0,0,0,0-.444" transform="translate(-235.998 -349.206)" fill="#fff"/>
        <path id="Trazado_732356" data-name="Trazado 732356" d="M110.586,204.592h73.425c.612,0,.962,8.78,0,8.78H110.586c-.534,0-.558-8.78,0-8.78" transform="translate(-85.721 -159.179)" fill="#2a75bd"/>
        <path id="Trazado_732357" data-name="Trazado 732357" d="M114.488,249.479h73.425c.612,0-1.749-5.334-2.71-5.334H111.778c-.534,0,2.152,5.334,2.71,5.334" transform="translate(-86.912 -189.952)" fill="#5cb0ff"/>
        <path id="Trazado_732358" data-name="Trazado 732358" d="M129.184,224.224h-.9a.452.452,0,0,1-.452-.452v-2.881a.9.9,0,0,1,1.808,0v2.881a.452.452,0,0,1-.452.452" transform="translate(-99.454 -171.157)" fill="#0e59a1"/>
        <path id="Trazado_732359" data-name="Trazado 732359" d="M142.328,224.224h-.9a.452.452,0,0,1-.452-.452v-2.881a.9.9,0,0,1,1.808,0v2.881a.452.452,0,0,1-.452.452" transform="translate(-109.68 -171.157)" fill="#0e59a1"/>
        <path id="Trazado_732360" data-name="Trazado 732360" d="M155.472,224.224h-.9a.452.452,0,0,1-.452-.452v-2.881a.9.9,0,0,1,1.808,0v2.881a.452.452,0,0,1-.452.452" transform="translate(-119.907 -171.157)" fill="#0e59a1"/>
        <path id="Trazado_732361" data-name="Trazado 732361" d="M168.616,224.224h-.9a.452.452,0,0,1-.452-.452v-2.881a.9.9,0,0,1,1.807,0v2.881a.452.452,0,0,1-.452.452" transform="translate(-130.133 -171.157)" fill="#0e59a1"/>
        <path id="Trazado_732362" data-name="Trazado 732362" d="M181.76,224.224h-.9a.452.452,0,0,1-.452-.452v-2.881a.9.9,0,0,1,1.808,0v2.881a.452.452,0,0,1-.452.452" transform="translate(-140.36 -171.157)" fill="#0e59a1"/>
        <path id="Trazado_732363" data-name="Trazado 732363" d="M194.9,224.224H194a.452.452,0,0,1-.452-.452v-2.881a.9.9,0,0,1,1.808,0v2.881a.452.452,0,0,1-.452.452" transform="translate(-150.585 -171.157)" fill="#0e59a1"/>
        <path id="Trazado_732364" data-name="Trazado 732364" d="M208.047,224.224h-.9a.452.452,0,0,1-.452-.452v-2.881a.9.9,0,0,1,1.808,0v2.881a.452.452,0,0,1-.452.452" transform="translate(-160.812 -171.157)" fill="#0e59a1"/>
        <path id="Trazado_732365" data-name="Trazado 732365" d="M221.191,224.224h-.9a.452.452,0,0,1-.452-.452v-2.881a.9.9,0,0,1,1.808,0v2.881a.452.452,0,0,1-.452.452" transform="translate(-171.038 -171.157)" fill="#0e59a1"/>
        <path id="Trazado_732366" data-name="Trazado 732366" d="M234.335,224.224h-.9a.452.452,0,0,1-.452-.452v-2.881a.9.9,0,0,1,1.807,0v2.881a.452.452,0,0,1-.452.452" transform="translate(-181.264 -171.157)" fill="#0e59a1"/>
        <path id="Trazado_732367" data-name="Trazado 732367" d="M247.479,224.224h-.9a.452.452,0,0,1-.452-.452v-2.881a.9.9,0,0,1,1.807,0v2.881a.452.452,0,0,1-.452.452" transform="translate(-191.491 -171.157)" fill="#0e59a1"/>
        <path id="Trazado_732368" data-name="Trazado 732368" d="M260.623,224.224h-.9a.452.452,0,0,1-.452-.452v-2.881a.9.9,0,0,1,1.808,0v2.881a.452.452,0,0,1-.452.452" transform="translate(-201.717 -171.157)" fill="#0e59a1"/>
        <path id="Trazado_732369" data-name="Trazado 732369" d="M273.767,224.224h-.9a.452.452,0,0,1-.452-.452v-2.881a.9.9,0,0,1,1.807,0v2.881a.452.452,0,0,1-.452.452" transform="translate(-211.944 -171.157)" fill="#0e59a1"/>
        <path id="Trazado_732370" data-name="Trazado 732370" d="M286.91,224.224h-.9a.452.452,0,0,1-.452-.452v-2.881a.9.9,0,0,1,1.808,0v2.881a.452.452,0,0,1-.452.452" transform="translate(-222.169 -171.157)" fill="#0e59a1"/>
        <path id="Trazado_732371" data-name="Trazado 732371" d="M300.054,224.224h-.9a.452.452,0,0,1-.452-.452v-2.881a.9.9,0,0,1,1.808,0v2.881a.452.452,0,0,1-.452.452" transform="translate(-232.396 -171.157)" fill="#0e59a1"/>
        <path id="Trazado_732372" data-name="Trazado 732372" d="M313.2,224.224h-.9a.452.452,0,0,1-.452-.452v-2.881a.9.9,0,0,1,1.808,0v2.881a.452.452,0,0,1-.452.452" transform="translate(-242.622 -171.157)" fill="#0e59a1"/>
        <path id="Trazado_732373" data-name="Trazado 732373" d="M326.342,224.224h-.9a.452.452,0,0,1-.452-.452v-2.881a.9.9,0,0,1,1.808,0v2.881a.452.452,0,0,1-.452.452" transform="translate(-252.849 -171.157)" fill="#0e59a1"/>
        <path id="Trazado_732374" data-name="Trazado 732374" d="M339.486,224.224h-.9a.452.452,0,0,1-.452-.452v-2.881a.9.9,0,0,1,1.807,0v2.881a.452.452,0,0,1-.452.452" transform="translate(-263.075 -171.157)" fill="#0e59a1"/>
        <path id="Trazado_732375" data-name="Trazado 732375" d="M352.63,224.224h-.9a.452.452,0,0,1-.452-.452v-2.881a.9.9,0,0,1,1.808,0v2.881a.452.452,0,0,1-.452.452" transform="translate(-273.301 -171.157)" fill="#0e59a1"/>
        <path id="Trazado_732376" data-name="Trazado 732376" d="M365.773,224.224h-.9a.452.452,0,0,1-.452-.452v-2.881a.9.9,0,0,1,1.807,0v2.881a.452.452,0,0,1-.452.452" transform="translate(-283.527 -171.157)" fill="#0e59a1"/>
        <path id="Trazado_732377" data-name="Trazado 732377" d="M378.917,224.224h-.9a.452.452,0,0,1-.452-.452v-2.881a.9.9,0,0,1,1.808,0v2.881a.452.452,0,0,1-.452.452" transform="translate(-293.753 -171.157)" fill="#0e59a1"/>
        <path id="Trazado_732378" data-name="Trazado 732378" d="M392.061,224.224h-.9a.452.452,0,0,1-.452-.452v-2.881a.9.9,0,0,1,1.807,0v2.881a.452.452,0,0,1-.452.452" transform="translate(-303.98 -171.157)" fill="#0e59a1"/>
        <path id="Trazado_732379" data-name="Trazado 732379" d="M405.2,224.224h-.9a.452.452,0,0,1-.452-.452v-2.881a.9.9,0,0,1,1.807,0v2.881a.452.452,0,0,1-.452.452" transform="translate(-314.206 -171.157)" fill="#0e59a1"/>
        <path id="Trazado_732380" data-name="Trazado 732380" d="M418.349,224.224h-.9a.452.452,0,0,1-.452-.452v-2.881a.9.9,0,0,1,1.808,0v2.881a.452.452,0,0,1-.452.452" transform="translate(-324.433 -171.157)" fill="#0e59a1"/>
        <path id="Trazado_732381" data-name="Trazado 732381" d="M431.493,224.224h-.9a.452.452,0,0,1-.452-.452v-2.881a.9.9,0,0,1,1.808,0v2.881a.452.452,0,0,1-.452.452" transform="translate(-334.659 -171.157)" fill="#0e59a1"/>
        <path id="Trazado_732382" data-name="Trazado 732382" d="M191.374,250.271q-10.493.284-20.98-.331c-.285-.017-.284.427,0,.444q10.479.616,20.98.331a.222.222,0,0,0,0-.444" transform="translate(-132.405 -194.46)" fill="#fff"/>
        <path id="Trazado_732383" data-name="Trazado 732383" d="M287.908,251.57l-14.941.029a.222.222,0,0,0,0,.444l14.941-.029a.222.222,0,0,0,0-.444" transform="translate(-212.209 -195.729)" fill="#fff"/>
        <rect id="Rectángulo_344920" data-name="Rectángulo 344920" width="22.232" height="0.281" transform="matrix(0.313, -0.95, 0.95, 0.313, 84.572, 45.368)" fill="#fbd18f"/>
        <rect id="Rectángulo_344921" data-name="Rectángulo 344921" width="22.232" height="0.281" transform="matrix(0.313, -0.95, 0.95, 0.313, 17.469, 45.368)" fill="#fbd18f"/>
        <rect id="Rectángulo_344922" data-name="Rectángulo 344922" width="22.232" height="0.281" transform="matrix(0.313, -0.95, 0.95, 0.313, 18.867, 45.368)" fill="#fbd18f"/>
        <rect id="Rectángulo_344923" data-name="Rectángulo 344923" width="22.232" height="0.281" transform="matrix(0.313, -0.95, 0.95, 0.313, 20.265, 45.368)" fill="#fbd18f"/>
        <rect id="Rectángulo_344924" data-name="Rectángulo 344924" width="22.232" height="0.281" transform="matrix(0.313, -0.95, 0.95, 0.313, 21.663, 45.368)" fill="#fbd18f"/>
        <rect id="Rectángulo_344925" data-name="Rectángulo 344925" width="22.232" height="0.281" transform="matrix(0.313, -0.95, 0.95, 0.313, 23.06, 45.368)" fill="#fbd18f"/>
        <rect id="Rectángulo_344926" data-name="Rectángulo 344926" width="22.232" height="0.281" transform="matrix(0.313, -0.95, 0.95, 0.313, 24.459, 45.368)" fill="#fbd18f"/>
        <rect id="Rectángulo_344927" data-name="Rectángulo 344927" width="22.232" height="0.281" transform="matrix(0.313, -0.95, 0.95, 0.313, 25.856, 45.368)" fill="#fbd18f"/>
        <rect id="Rectángulo_344928" data-name="Rectángulo 344928" width="22.232" height="0.281" transform="matrix(0.313, -0.95, 0.95, 0.313, 27.255, 45.368)" fill="#fbd18f"/>
        <rect id="Rectángulo_344929" data-name="Rectángulo 344929" width="22.232" height="0.281" transform="matrix(0.313, -0.95, 0.95, 0.313, 28.652, 45.368)" fill="#fbd18f"/>
        <rect id="Rectángulo_344930" data-name="Rectángulo 344930" width="22.232" height="0.281" transform="matrix(0.313, -0.95, 0.95, 0.313, 30.051, 45.368)" fill="#fbd18f"/>
        <rect id="Rectángulo_344931" data-name="Rectángulo 344931" width="22.232" height="0.281" transform="matrix(0.313, -0.95, 0.95, 0.313, 31.448, 45.368)" fill="#fbd18f"/>
        <rect id="Rectángulo_344932" data-name="Rectángulo 344932" width="22.232" height="0.281" transform="matrix(0.313, -0.95, 0.95, 0.313, 32.847, 45.368)" fill="#fbd18f"/>
        <rect id="Rectángulo_344933" data-name="Rectángulo 344933" width="22.232" height="0.281" transform="matrix(0.313, -0.95, 0.95, 0.313, 34.244, 45.368)" fill="#fbd18f"/>
        <rect id="Rectángulo_344934" data-name="Rectángulo 344934" width="22.232" height="0.281" transform="matrix(0.313, -0.95, 0.95, 0.313, 35.643, 45.368)" fill="#fbd18f"/>
        <rect id="Rectángulo_344935" data-name="Rectángulo 344935" width="22.232" height="0.281" transform="matrix(0.313, -0.95, 0.95, 0.313, 37.04, 45.368)" fill="#fbd18f"/>
        <rect id="Rectángulo_344936" data-name="Rectángulo 344936" width="22.232" height="0.281" transform="matrix(0.313, -0.95, 0.95, 0.313, 38.438, 45.368)" fill="#fbd18f"/>
        <rect id="Rectángulo_344937" data-name="Rectángulo 344937" width="22.232" height="0.281" transform="matrix(0.313, -0.95, 0.95, 0.313, 39.836, 45.368)" fill="#fbd18f"/>
        <rect id="Rectángulo_344938" data-name="Rectángulo 344938" width="22.232" height="0.281" transform="matrix(0.313, -0.95, 0.95, 0.313, 41.234, 45.368)" fill="#fbd18f"/>
        <rect id="Rectángulo_344939" data-name="Rectángulo 344939" width="22.232" height="0.281" transform="matrix(0.313, -0.95, 0.95, 0.313, 42.632, 45.368)" fill="#fbd18f"/>
        <rect id="Rectángulo_344940" data-name="Rectángulo 344940" width="22.232" height="0.281" transform="matrix(0.313, -0.95, 0.95, 0.313, 44.03, 45.368)" fill="#fbd18f"/>
        <rect id="Rectángulo_344941" data-name="Rectángulo 344941" width="22.232" height="0.281" transform="matrix(0.313, -0.95, 0.95, 0.313, 45.429, 45.368)" fill="#fbd18f"/>
        <rect id="Rectángulo_344942" data-name="Rectángulo 344942" width="22.232" height="0.281" transform="matrix(0.313, -0.95, 0.95, 0.313, 46.826, 45.368)" fill="#fbd18f"/>
        <rect id="Rectángulo_344943" data-name="Rectángulo 344943" width="22.232" height="0.281" transform="matrix(0.313, -0.95, 0.95, 0.313, 48.224, 45.368)" fill="#fbd18f"/>
        <rect id="Rectángulo_344944" data-name="Rectángulo 344944" width="22.232" height="0.281" transform="matrix(0.313, -0.95, 0.95, 0.313, 49.622, 45.368)" fill="#fbd18f"/>
        <rect id="Rectángulo_344945" data-name="Rectángulo 344945" width="22.232" height="0.281" transform="matrix(0.313, -0.95, 0.95, 0.313, 51.02, 45.368)" fill="#fbd18f"/>
        <rect id="Rectángulo_344946" data-name="Rectángulo 344946" width="22.232" height="0.281" transform="matrix(0.313, -0.95, 0.95, 0.313, 52.418, 45.368)" fill="#fbd18f"/>
        <rect id="Rectángulo_344947" data-name="Rectángulo 344947" width="22.232" height="0.281" transform="matrix(0.313, -0.95, 0.95, 0.313, 53.816, 45.368)" fill="#fbd18f"/>
        <rect id="Rectángulo_344948" data-name="Rectángulo 344948" width="22.232" height="0.281" transform="matrix(0.313, -0.95, 0.95, 0.313, 55.214, 45.368)" fill="#fbd18f"/>
        <rect id="Rectángulo_344949" data-name="Rectángulo 344949" width="22.232" height="0.281" transform="matrix(0.313, -0.95, 0.95, 0.313, 56.612, 45.368)" fill="#fbd18f"/>
        <rect id="Rectángulo_344950" data-name="Rectángulo 344950" width="22.232" height="0.281" transform="matrix(0.313, -0.95, 0.95, 0.313, 58.01, 45.368)" fill="#fbd18f"/>
        <rect id="Rectángulo_344951" data-name="Rectángulo 344951" width="22.232" height="0.281" transform="matrix(0.313, -0.95, 0.95, 0.313, 59.408, 45.368)" fill="#fbd18f"/>
        <rect id="Rectángulo_344952" data-name="Rectángulo 344952" width="22.232" height="0.281" transform="matrix(0.313, -0.95, 0.95, 0.313, 62.204, 45.368)" fill="#fbd18f"/>
        <rect id="Rectángulo_344953" data-name="Rectángulo 344953" width="22.232" height="0.281" transform="matrix(0.313, -0.95, 0.95, 0.313, 60.806, 45.368)" fill="#fbd18f"/>
        <rect id="Rectángulo_344954" data-name="Rectángulo 344954" width="22.232" height="0.281" transform="matrix(0.313, -0.95, 0.95, 0.313, 63.602, 45.368)" fill="#fbd18f"/>
        <rect id="Rectángulo_344955" data-name="Rectángulo 344955" width="22.232" height="0.281" transform="matrix(0.313, -0.95, 0.95, 0.313, 65, 45.368)" fill="#fbd18f"/>
        <rect id="Rectángulo_344956" data-name="Rectángulo 344956" width="22.232" height="0.281" transform="matrix(0.313, -0.95, 0.95, 0.313, 66.398, 45.368)" fill="#fbd18f"/>
        <rect id="Rectángulo_344957" data-name="Rectángulo 344957" width="22.232" height="0.281" transform="matrix(0.313, -0.95, 0.95, 0.313, 67.796, 45.368)" fill="#fbd18f"/>
        <rect id="Rectángulo_344958" data-name="Rectángulo 344958" width="22.232" height="0.281" transform="matrix(0.313, -0.95, 0.95, 0.313, 69.194, 45.368)" fill="#fbd18f"/>
        <rect id="Rectángulo_344959" data-name="Rectángulo 344959" width="22.232" height="0.281" transform="matrix(0.313, -0.95, 0.95, 0.313, 70.592, 45.368)" fill="#fbd18f"/>
        <rect id="Rectángulo_344960" data-name="Rectángulo 344960" width="22.232" height="0.281" transform="matrix(0.313, -0.95, 0.95, 0.313, 71.99, 45.368)" fill="#fbd18f"/>
        <rect id="Rectángulo_344961" data-name="Rectángulo 344961" width="22.232" height="0.281" transform="matrix(0.313, -0.95, 0.95, 0.313, 73.388, 45.368)" fill="#fbd18f"/>
        <rect id="Rectángulo_344962" data-name="Rectángulo 344962" width="22.232" height="0.281" transform="matrix(0.313, -0.95, 0.95, 0.313, 74.786, 45.368)" fill="#fbd18f"/>
        <rect id="Rectángulo_344963" data-name="Rectángulo 344963" width="22.232" height="0.281" transform="matrix(0.313, -0.95, 0.95, 0.313, 76.184, 45.368)" fill="#fbd18f"/>
        <rect id="Rectángulo_344964" data-name="Rectángulo 344964" width="22.232" height="0.281" transform="matrix(0.313, -0.95, 0.95, 0.313, 77.582, 45.368)" fill="#fbd18f"/>
        <rect id="Rectángulo_344965" data-name="Rectángulo 344965" width="22.232" height="0.281" transform="matrix(0.313, -0.95, 0.95, 0.313, 78.98, 45.368)" fill="#fbd18f"/>
        <rect id="Rectángulo_344966" data-name="Rectángulo 344966" width="22.232" height="0.281" transform="matrix(0.313, -0.95, 0.95, 0.313, 80.378, 45.368)" fill="#fbd18f"/>
        <rect id="Rectángulo_344967" data-name="Rectángulo 344967" width="22.232" height="0.281" transform="matrix(0.313, -0.95, 0.95, 0.313, 81.776, 45.368)" fill="#fbd18f"/>
        <rect id="Rectángulo_344968" data-name="Rectángulo 344968" width="22.232" height="0.281" transform="matrix(0.313, -0.95, 0.95, 0.313, 83.174, 45.368)" fill="#fbd18f"/>
        <path id="Trazado_732384" data-name="Trazado 732384" d="M173.1,14.928h-74.7v24.1h74.7a12.05,12.05,0,1,0,0-24.1" transform="translate(-76.554 -11.614)" fill="#ffad4a"/>
        <path id="Trazado_732385" data-name="Trazado 732385" d="M205.9,25.636q-18.813.746-37.643.056c-.286-.01-.285.434,0,.444q18.815.691,37.643-.056c.285-.011.286-.455,0-.444" transform="translate(-130.74 -19.946)" fill="#fff"/>
        <path id="Trazado_732386" data-name="Trazado 732386" d="M369.364,25.692q-8.447.247-16.9.2a.222.222,0,0,0,0,.444q8.45.047,16.9-.2c.285-.008.286-.452,0-.444" transform="translate(-274.062 -19.989)" fill="#fff"/>
        <path id="Trazado_732387" data-name="Trazado 732387" d="M463.035,33.518c-.21-.193-.525.121-.314.314a9.724,9.724,0,0,1,3.187,7.378.222.222,0,0,0,.444,0,10.159,10.159,0,0,0-3.317-7.692" transform="translate(-359.956 -26.031)" fill="#fff"/>
        <path id="Trazado_732388" data-name="Trazado 732388" d="M232.284,88.141c-2,4.14-6.9,4.75-10.995,4.821-4.621.081-9.243.107-13.864.174q-13.831.2-27.659.525-7.854.183-15.708.406a.222.222,0,0,0,0,.444q14.6-.414,29.2-.693c9.678-.185,19.383-.089,29.056-.438,3.955-.143,8.461-1.111,10.348-5.016.124-.256-.259-.482-.383-.224" transform="translate(-127.476 -68.488)" fill="#fbcc83"/>
        <path id="Trazado_732389" data-name="Trazado 732389" d="M190.43,99.921q-9.065.518-18.148.458a.222.222,0,0,0,0,.444q9.08.061,18.148-.458c.284-.016.286-.46,0-.444" transform="translate(-133.873 -77.741)" fill="#fbcc83"/>
        <path id="Trazado_732390" data-name="Trazado 732390" d="M59.907,15.364A15.364,15.364,0,1,1,44.543,0,15.364,15.364,0,0,1,59.907,15.364" transform="translate(-22.702)" fill="#f15a24"/>
        <path id="Trazado_732391" data-name="Trazado 732391" d="M68.208,26.978a12.05,12.05,0,1,1-12.05-12.05,12.05,12.05,0,0,1,12.05,12.05" transform="translate(-34.317 -11.614)" fill="#d65120"/>
        <path id="Trazado_732392" data-name="Trazado 732392" d="M68.253,14.259a22.232,22.232,0,0,0-4.149-.6,9.4,9.4,0,0,0-3.808.82c-2.284.9-4.517,1.975-5.947,4.05-.163.236.222.458.383.224,1.431-2.076,3.769-3.121,6.053-3.991,2.456-.936,4.828-.647,7.35-.077.278.063.4-.365.118-.428" transform="translate(-42.254 -10.627)" fill="#fff"/>
        <path id="Trazado_732393" data-name="Trazado 732393" d="M127.957,25.622a10.94,10.94,0,0,0-5.691-5.459c-.268-.1-.383.328-.118.428a10.52,10.52,0,0,1,5.426,5.256c.121.259.5.034.383-.224" transform="translate(-94.918 -15.675)" fill="#fff"/>
        <path id="Trazado_732394" data-name="Trazado 732394" d="M79.847,104.644a13.058,13.058,0,0,1-16.462,1.213c-.235-.163-.457.221-.224.383a13.5,13.5,0,0,0,17-1.282c.208-.2-.106-.51-.314-.314" transform="translate(-49.064 -81.368)" fill="#a6370f"/>
        <path id="Trazado_732395" data-name="Trazado 732395" d="M132.038,84.57a7.072,7.072,0,0,1-2.716,4.633c-.224.171,0,.557.224.384a7.489,7.489,0,0,0,2.921-4.9c.042-.279-.386-.4-.428-.118" transform="translate(-100.543 -65.673)" fill="#a6370f"/>
        <path id="Trazado_732396" data-name="Trazado 732396" d="M329.139,461.591h-53.68l-45.1,1.366c4.88.9,58.955.252,58.955.252Z" transform="translate(-179.224 -359.131)" fill="#db8329"/>
        <path id="Trazado_732397" data-name="Trazado 732397" d="M494.793,377.836H445.707v18.591h49.086a9.3,9.3,0,0,0,0-18.591" transform="translate(-346.773 -293.967)" fill="#ffad4a"/>
        <path id="Trazado_732398" data-name="Trazado 732398" d="M422.422,387.132a9.3,9.3,0,1,1-9.3-9.3,9.3,9.3,0,0,1,9.3,9.3" transform="translate(-314.192 -293.968)" fill="#db8329"/>
        <path id="Trazado_732399" data-name="Trazado 732399" d="M437.755,408.587a3.175,3.175,0,1,1-3.175-3.175,3.175,3.175,0,0,1,3.175,3.175" transform="translate(-335.646 -315.422)" fill="#784c05"/>
        <path id="Trazado_732400" data-name="Trazado 732400" d="M518.587,385.324q-13.407-.113-26.8.622c-.284.016-.286.459,0,.444q13.388-.736,26.8-.622a.222.222,0,0,0,0-.444" transform="translate(-382.457 -299.782)" fill="#fff"/>
        <path id="Trazado_732401" data-name="Trazado 732401" d="M640.807,385.407q-4.585-.175-9.159-.546c-.285-.023-.283.421,0,.444q4.574.371,9.159.546c.286.011.285-.433,0-.444" transform="translate(-491.275 -299.432)" fill="#fff"/>
        <path id="Trazado_732402" data-name="Trazado 732402" d="M532.412,435.253c-1.859,3.581-6.783,3.079-10.18,3.162q-5.731.141-11.464.212-11.685.144-23.372,0a.222.222,0,0,0,0,.444q12.567.156,25.135-.02,6.173-.088,12.345-.257c2.938-.085,6.4-.386,7.918-3.314.131-.253-.251-.478-.383-.224" transform="translate(-379.042 -338.553)" fill="#fbcc83"/>
        <path id="Trazado_732403" data-name="Trazado 732403" d="M697.179,414.341c-.053-.28-.481-.162-.428.118a6.25,6.25,0,0,1,.059,1.938c-.035.283.41.281.444,0a6.63,6.63,0,0,0-.075-2.056" transform="translate(-542.089 -322.245)" fill="#fbcc83"/>
        <rect id="Rectángulo_344969" data-name="Rectángulo 344969" width="24.244" height="2.523" transform="translate(87.49 108.789)" fill="#f15a24"/>
        <path id="Trazado_732404" data-name="Trazado 732404" d="M424.956,423.689h-2.35a3.172,3.172,0,0,1-6.1,0h-2.35l-2.933,14.742H427.89Z" transform="translate(-319.947 -329.642)" fill="#f15a24"/>
        <rect id="Rectángulo_344970" data-name="Rectángulo 344970" width="24.244" height="2.523" transform="translate(85.689 108.789)" fill="#c94b1f"/>
        <path id="Trazado_732405" data-name="Trazado 732405" d="M416.844,423.689h-2.35a3.172,3.172,0,0,1-6.1,0h-2.35l-2.933,14.742h16.663Z" transform="translate(-313.635 -329.642)" fill="#d44f1f"/>
        <path id="Trazado_732406" data-name="Trazado 732406" d="M438.763,448.048q-1.851-.034-3.7-.064c-.863-3.923-1.391-7.916-2.367-11.808a.222.222,0,0,0-.428.118c.965,3.851,1.493,7.8,2.34,11.682q-5.912-.1-11.825-.19a.222.222,0,0,0,0,.444q7.991.115,15.981.262a.222.222,0,0,0,0-.444" transform="translate(-328.77 -339.234)" fill="#a6370f"/>
        <path id="Trazado_732407" data-name="Trazado 732407" d="M432.642,434.313a3.228,3.228,0,0,1-4.048-.555c-.183-.22-.5.1-.314.314,1.177,1.415,3.038,1.36,4.586.624.258-.123.033-.505-.224-.383" transform="translate(-333.172 -337.419)" fill="#a6370f"/>
        <path id="Trazado_732408" data-name="Trazado 732408" d="M453,429.082a2.315,2.315,0,0,1-.184.4c-.059.1-.143.281-.261.326-.264.1-.15.53.118.428a1.615,1.615,0,0,0,.755-1.036c.095-.27-.334-.386-.428-.118" transform="translate(-351.987 -333.72)" fill="#a6370f"/>
        <rect id="Rectángulo_344971" data-name="Rectángulo 344971" width="24.244" height="2.523" transform="translate(136.216 108.789)" fill="#f15a24"/>
        <path id="Trazado_732409" data-name="Trazado 732409" d="M644.474,423.689h-2.35a3.172,3.172,0,0,1-6.1,0h-2.35l-2.933,14.742h16.663Z" transform="translate(-490.738 -329.642)" fill="#f15a24"/>
        <rect id="Rectángulo_344972" data-name="Rectángulo 344972" width="24.244" height="2.523" transform="translate(134.416 108.789)" fill="#c94b1f"/>
        <path id="Trazado_732410" data-name="Trazado 732410" d="M636.362,423.689h-2.35a3.172,3.172,0,0,1-6.1,0h-2.35l-2.933,14.742H639.3Z" transform="translate(-484.427 -329.642)" fill="#ab4019"/>
        <path id="Trazado_732411" data-name="Trazado 732411" d="M672.04,488.924q-7.017-.369-14.045-.226a.222.222,0,0,0,0,.444q7.025-.143,14.045.226c.285.015.285-.429,0-.444" transform="translate(-511.773 -380.19)" fill="#a6370f"/>
        <path id="Trazado_732412" data-name="Trazado 732412" d="M433.453,410.577h-3.415v4.056h3.415a2.028,2.028,0,1,0,0-4.056" transform="translate(-334.582 -319.441)" fill="#78d6ff"/>
        <path id="Trazado_732413" data-name="Trazado 732413" d="M424.956,412.605a2.028,2.028,0,1,1-2.028-2.028,2.028,2.028,0,0,1,2.028,2.028" transform="translate(-327.472 -319.441)" fill="#9ee2ff"/>
        <path id="Trazado_732414" data-name="Trazado 732414" d="M437.228,412.109l-2.039.03h0a2.03,2.03,0,0,0-.542-.485c-.244-.149-.468.234-.224.383a1.538,1.538,0,0,1,.744,1.316.222.222,0,0,0,.444,0,2.016,2.016,0,0,0-.162-.774l1.781-.027a.222.222,0,0,0,0-.444" transform="translate(-337.91 -320.253)" fill="#fff"/>
        <path id="Trazado_732415" data-name="Trazado 732415" d="M56.428,260.5H16.964v-60.72c0-2.11,9.414-8.236,16.475-8.023,3.46.1,5.824.034,6.722,1.109,3.013,3.607,23.5,30.961,25,33.366S57.934,259.6,56.428,260.5" transform="translate(-13.198 -149.191)" fill="#f15a24"/>
        <path id="Trazado_732416" data-name="Trazado 732416" d="M39.464,260.523H0V199.67c0-3.013,20.184-10.544,23.2-6.929s23.5,31.029,25,33.439-7.23,33.439-8.736,34.343" transform="translate(0 -149.21)" fill="#d44f1f"/>
        <path id="Trazado_732417" data-name="Trazado 732417" d="M129.6,290.427A5.423,5.423,0,1,1,124.175,285a5.422,5.422,0,0,1,5.423,5.423" transform="translate(-92.393 -221.741)" fill="#f15a24"/>
        <path id="Trazado_732418" data-name="Trazado 732418" d="M135.332,298.45a3.133,3.133,0,1,1-3.134-3.134,3.134,3.134,0,0,1,3.134,3.134" transform="translate(-100.416 -229.764)" fill="#78d6ff"/>
        <path id="Trazado_732419" data-name="Trazado 732419" d="M135.3,302.7a2.69,2.69,0,1,1,2.69-2.689,2.693,2.693,0,0,1-2.69,2.689" transform="translate(-103.175 -231.321)" fill="#2ba4d9"/>
        <path id="Trazado_732420" data-name="Trazado 732420" d="M164.883,344.714a5.423,5.423,0,1,1-5.423-5.423,5.422,5.422,0,0,1,5.423,5.423" transform="translate(-119.846 -263.978)" fill="#f15a24"/>
        <path id="Trazado_732421" data-name="Trazado 732421" d="M170.618,352.737a3.133,3.133,0,1,1-3.134-3.134,3.133,3.133,0,0,1,3.134,3.134" transform="translate(-127.87 -272.001)" fill="#78d6ff"/>
        <path id="Trazado_732422" data-name="Trazado 732422" d="M170.587,356.982a2.689,2.689,0,1,1,2.69-2.689,2.693,2.693,0,0,1-2.69,2.689" transform="translate(-130.629 -273.557)" fill="#2ba4d9"/>
        <path id="Trazado_732423" data-name="Trazado 732423" d="M164.277,442.3a3.777,3.777,0,1,1-3.776-3.776,3.777,3.777,0,0,1,3.776,3.776" transform="translate(-121.936 -341.181)" fill="#f15a24"/>
        <path id="Trazado_732424" data-name="Trazado 732424" d="M166.946,446.029a2.711,2.711,0,1,1-2.711-2.711,2.711,2.711,0,0,1,2.711,2.711" transform="translate(-125.67 -344.914)" fill="#78d6ff"/>
        <path id="Trazado_732425" data-name="Trazado 732425" d="M167.337,449.852a2.267,2.267,0,1,1,2.267-2.267,2.27,2.27,0,0,1-2.267,2.267" transform="translate(-128.429 -346.47)" fill="#2ba4d9"/>
        <path id="Trazado_732426" data-name="Trazado 732426" d="M97.1,203.753c-1.367-1.865-2.7-3.768-4.237-5.5a6.02,6.02,0,0,0-4.677-2.466.222.222,0,0,0,0,.444c2.269.063,3.495,1.291,4.878,2.932,1.3,1.54,2.463,3.189,3.653,4.813.167.228.552.007.383-.224" transform="translate(-68.445 -152.328)" fill="#fff"/>
        <path id="Trazado_732427" data-name="Trazado 732427" d="M136.791,244.7q-2.264-3.4-4.781-6.621c-.176-.225-.488.091-.314.314q2.481,3.175,4.712,6.531c.158.237.542.015.383-.224" transform="translate(-102.424 -185.175)" fill="#fff"/>
        <path id="Trazado_732428" data-name="Trazado 732428" d="M130.83,288.851a4.81,4.81,0,0,0-7.061,1.806c-.126.255.257.481.383.224a4.376,4.376,0,0,1,6.453-1.647c.242.154.464-.23.224-.383" transform="translate(-96.277 -224.078)" fill="#fff"/>
        <path id="Trazado_732429" data-name="Trazado 732429" d="M158.133,295.726a.222.222,0,0,0-.383.224,4.956,4.956,0,0,1,.706,2.212c.021.283.465.285.444,0a5.458,5.458,0,0,0-.767-2.436" transform="translate(-122.708 -230.001)" fill="#fff"/>
        <path id="Trazado_732430" data-name="Trazado 732430" d="M166.077,342.668a4.246,4.246,0,0,0-5.975,1.747.222.222,0,0,0,.383.224,3.8,3.8,0,0,1,5.368-1.588c.252.135.476-.248.224-.383" transform="translate(-124.541 -266.145)" fill="#fff"/>
        <path id="Trazado_732431" data-name="Trazado 732431" d="M191.332,349.351a2.746,2.746,0,0,0-1.176-1.59c-.255-.128-.48.255-.224.383a2.278,2.278,0,0,1,.972,1.325c.106.261.535.147.428-.118" transform="translate(-147.684 -270.548)" fill="#fff"/>
        <path id="Trazado_732432" data-name="Trazado 732432" d="M163.23,439.8a3.649,3.649,0,0,0-3.173,1.484c-.162.236.222.458.383.224a3.2,3.2,0,0,1,2.79-1.264.222.222,0,0,0,0-.444" transform="translate(-124.498 -342.176)" fill="#fff"/>
        <path id="Trazado_732433" data-name="Trazado 732433" d="M197.441,347.622c-.05-.281-.478-.162-.428.118a17.292,17.292,0,0,1-.568,6.912q-.725,3.192-1.5,6.373-1.542,6.363-3.251,12.685a.222.222,0,0,0,.428.118q1.82-6.743,3.456-13.534c.54-2.246,1.1-4.493,1.568-6.755a15.388,15.388,0,0,0,.295-5.918" transform="translate(-149.137 -270.335)" fill="#a6370f"/>
        <path id="Trazado_732434" data-name="Trazado 732434" d="M181.515,474.18c-.473,1.621-1.083,3.191-1.7,4.759-.105.266.324.381.428.118.622-1.568,1.232-3.138,1.705-4.759a.222.222,0,0,0-.428-.118" transform="translate(-139.885 -368.805)" fill="#a6370f"/>
        <path id="Trazado_732435" data-name="Trazado 732435" d="M163.9,463.371c-1.654,1.65-4.552,1.715-5.687-.585-.126-.256-.509-.032-.383.224,1.262,2.558,4.533,2.522,6.384.675a.222.222,0,0,0-.314-.314" transform="translate(-122.775 -359.972)" fill="#a6370f"/>
        <path id="Trazado_732436" data-name="Trazado 732436" d="M166.574,377.29a5.585,5.585,0,0,1-3.978,2.082,4.527,4.527,0,0,1-4.257-2.018.222.222,0,0,0-.383.224,4.815,4.815,0,0,0,4.26,2.232,5.944,5.944,0,0,0,4.672-2.206c.195-.209-.119-.523-.314-.314" transform="translate(-122.869 -293.489)" fill="#a6370f"/>
        <path id="Trazado_732437" data-name="Trazado 732437" d="M200.321,360.889c-.035-.28-.48-.283-.444,0a4.357,4.357,0,0,1-.385,2.463c-.122.257.26.482.383.224a4.77,4.77,0,0,0,.445-2.687" transform="translate(-155.192 -280.618)" fill="#a6370f"/>
        <path id="Trazado_732438" data-name="Trazado 732438" d="M143.975,312.728c-.033-.28-.477-.284-.444,0,.33,2.823-3.335,5.034-5.895,4.241-.273-.085-.39.344-.118.428,2.816.872,6.822-1.542,6.457-4.669" transform="translate(-106.873 -243.147)" fill="#a6370f"/>
        <path id="Trazado_732439" data-name="Trazado 732439" d="M5.991,221.6c-.735.909-1.66.907-1.855,2.222a37.135,37.135,0,0,0-.153,4.258.222.222,0,0,0,.444,0c.036-1.2.042-2.406.108-3.6a2.042,2.042,0,0,1,.811-1.821,4.172,4.172,0,0,0,.959-.741c.178-.22-.134-.536-.314-.314" transform="translate(-3.099 -172.348)" fill="#a6370f"/>
        <path id="Trazado_732440" data-name="Trazado 732440" d="M53.077,202.849a34.439,34.439,0,0,0-4.086.892.222.222,0,0,0,.118.428,34.439,34.439,0,0,1,4.086-.892c.281-.044.162-.471-.118-.428" transform="translate(-37.994 -157.82)" fill="#a6370f"/>
        <path id="Trazado_732441" data-name="Trazado 732441" d="M133.065,383.592c-3.391.065-6.78-.127-10.17-.081q-.019-7.816-.038-15.633c-.012-5.03.16-10.12-.791-15.083-.054-.28-.482-.162-.428.118.97,5.062.764,10.271.776,15.4q.019,7.6.037,15.2c-.14,0-.28,0-.421.007a.222.222,0,0,0,0,.444c3.679-.1,7.355.138,11.034.067a.222.222,0,0,0,0-.444" transform="translate(-94.634 -274.36)" fill="#a6370f"/>
        <path id="Trazado_732442" data-name="Trazado 732442" d="M15.84,268.718H8.215c-.932,0-1.29,51.665,0,51.665h23.4c.525,0,.287-36.975-.04-38.447S15.84,268.718,15.84,268.718" transform="translate(-5.739 -209.07)" fill="#7ad9ff"/>
        <path id="Trazado_732443" data-name="Trazado 732443" d="M28.684,268.718H41.939c1.13,0,6.665,13.1,6.1,13.217s-12.766,0-14.008,0-6.4-13.217-5.347-13.217" transform="translate(-22.207 -209.07)" fill="#a8e6ff"/>
        <path id="Trazado_732444" data-name="Trazado 732444" d="M36.254,273.875H47.222c.935,0,5.515,10.843,5.048,10.937s-10.563,0-11.591,0-5.3-10.937-4.425-10.937" transform="translate(-28.116 -213.083)" fill="#202369"/>
        <path id="Trazado_732445" data-name="Trazado 732445" d="M47.222,273.875H36.254c-.264,0-.056,1,.39,2.4h8.7c.657,0,3.116,5.359,4.356,8.574,1.393,0,2.423-.013,2.564-.041.467-.093-4.113-10.937-5.048-10.937" transform="translate(-28.116 -213.083)" fill="#232670"/>
        <path id="Trazado_732446" data-name="Trazado 732446" d="M31.05,279.877c-.63-1.274-1.327-2.534-1.892-3.839a21.335,21.335,0,0,1-1.189-4.461c-.053-.28-.481-.162-.428.118a23.089,23.089,0,0,0,1.122,4.3c.565,1.4,1.333,2.748,2,4.1.127.256.51.032.383-.224" transform="translate(-21.424 -211.171)" fill="#fff"/>
        <path id="Trazado_732447" data-name="Trazado 732447" d="M52.634,319.151l-3.647.082a3.438,3.438,0,0,1-2.043-.278,4.417,4.417,0,0,1-1.455-1.82.222.222,0,0,0-.383.224c.563.93.984,2.251,2.2,2.349a53.114,53.114,0,0,0,5.324-.112.222.222,0,0,0,0-.444" transform="translate(-35.068 -246.658)" fill="#fff"/>
        <path id="Trazado_732448" data-name="Trazado 732448" d="M88.14,327.239l-3.517.013a.222.222,0,0,0,0,.444l3.517-.013a.222.222,0,0,0,0-.444" transform="translate(-65.672 -254.601)" fill="#fff"/>
        <path id="Trazado_732449" data-name="Trazado 732449" d="M52.982,340.726a.222.222,0,0,0-.444,0l.057,13.152a.222.222,0,0,0,.444,0Z" transform="translate(-40.876 -264.928)" fill="#fff"/>
        <path id="Trazado_732450" data-name="Trazado 732450" d="M52.209,419.2q-.1,7.523-.192,15.045a.222.222,0,0,0,.444,0q.1-7.523.192-15.045a.222.222,0,0,0-.444,0" transform="translate(-40.471 -325.98)" fill="#69d1fa"/>
        <path id="Trazado_732451" data-name="Trazado 732451" d="M62.848,357.6a.222.222,0,0,0-.444,0q-.042,14.39.175,28.78a.222.222,0,0,0,.444,0q-.217-14.389-.175-28.78" transform="translate(-48.547 -278.056)" fill="#69d1fa"/>
        <path id="Trazado_732452" data-name="Trazado 732452" d="M107.942,358.455c-.03-.281-.474-.284-.444,0a89.632,89.632,0,0,1,.493,11.174.222.222,0,0,0,.444,0,89.632,89.632,0,0,0-.493-11.174" transform="translate(-83.635 -278.724)" fill="#69d1fa"/>
        <path id="Trazado_732453" data-name="Trazado 732453" d="M108.921,420.034q-.138,7.4-.276,14.8a.222.222,0,0,0,.444,0q.138-7.4.276-14.8a.222.222,0,0,0-.444,0" transform="translate(-84.529 -326.632)" fill="#69d1fa"/>
        <path id="Trazado_732454" data-name="Trazado 732454" d="M33.947,488.425a37.339,37.339,0,0,0-5-.056q-2.633.039-5.267,0-5.267-.072-10.523-.444c-.285-.02-.284.424,0,.444q5.255.365,10.523.444,2.633.036,5.267,0a37.334,37.334,0,0,1,5,.055c.283.034.281-.41,0-.444" transform="translate(-10.072 -379.622)" fill="#69d1fa"/>
        <path id="Trazado_732455" data-name="Trazado 732455" d="M14.1,274.716c.015-.285-.429-.285-.444,0q-.5,9.3-.29,18.608a.222.222,0,0,0,.444,0q-.2-9.307.29-18.608" transform="translate(-10.35 -213.571)" fill="#69d1fa"/>
        <path id="Trazado_732456" data-name="Trazado 732456" d="M13.681,368.85a.222.222,0,0,0-.444,0q.107,4.224.214,8.448a.222.222,0,0,0,.444,0q-.107-4.224-.214-8.448" transform="translate(-10.298 -286.809)" fill="#69d1fa"/>
        <path id="Trazado_732457" data-name="Trazado 732457" d="M22.918,423.3q-2.472-.184-4.95-.225a.222.222,0,0,0,0,.444q2.478.042,4.95.225c.285.021.284-.423,0-.444" transform="translate(-13.813 -329.161)" fill="#69d1fa"/>
        <path id="Trazado_732458" data-name="Trazado 732458" d="M23.261,430.068a36.011,36.011,0,0,0-5.125-.376c-.285.011-.286.455,0,.444a36.009,36.009,0,0,1,5.125.376c.284.029.282-.415,0-.444" transform="translate(-13.944 -334.305)" fill="#69d1fa"/>
        <path id="Trazado_732459" data-name="Trazado 732459" d="M23.043,437.469q-2.45.027-4.892-.157c-.285-.022-.283.422,0,.444q2.444.184,4.892.157a.222.222,0,0,0,0-.444" transform="translate(-13.956 -340.241)" fill="#69d1fa"/>
        <path id="Trazado_732460" data-name="Trazado 732460" d="M20.771,444.628q-1.026-.023-2.049-.085c-.285-.017-.284.427,0,.444q1.024.062,2.049.085a.222.222,0,0,0,0-.444" transform="translate(-14.4 -345.867)" fill="#69d1fa"/>
        <path id="Trazado_732461" data-name="Trazado 732461" d="M34.612,444.9l-1.831-.053a.222.222,0,0,0,0,.444l1.831.053a.222.222,0,0,0,0-.444" transform="translate(-25.337 -346.107)" fill="#69d1fa"/>
        <path id="Trazado_732462" data-name="Trazado 732462" d="M23.576,451.985q-2.476-.076-4.954-.087a.222.222,0,0,0,0,.444q2.478.012,4.954.087c.286.009.285-.435,0-.444" transform="translate(-14.322 -351.59)" fill="#69d1fa"/>
        <path id="Trazado_732463" data-name="Trazado 732463" d="M49.835,281.707c-.077-.379-.043-1.267-.484-1.4a5.866,5.866,0,0,0-1.234-.06l-1.424-.065a.211.211,0,0,0-.186.321.224.224,0,0,0,0,.087c.1.372.122,1.32.566,1.434a6.16,6.16,0,0,0,1.188-.018c.453.007.9.015,1.355-.021a.226.226,0,0,0,.214-.281m-2.021-.148q-.226,0-.451.013a.231.231,0,0,1-.213-.282,2.859,2.859,0,0,1-.173-.649l1.578.073c.281.013.553-.059.671.218a2.6,2.6,0,0,1,.138.625c-.517.022-1.032,0-1.55,0" transform="translate(-36.164 -217.991)" fill="#4349db"/>
        <path id="Trazado_732464" data-name="Trazado 732464" d="M70.554,281.707c-.077-.379-.043-1.267-.484-1.4a5.866,5.866,0,0,0-1.234-.06l-1.424-.065a.211.211,0,0,0-.186.321.224.224,0,0,0,0,.087c.1.372.122,1.32.566,1.434a6.16,6.16,0,0,0,1.188-.018c.453.007.9.015,1.355-.021a.226.226,0,0,0,.214-.281m-2.021-.148q-.226,0-.451.013a.231.231,0,0,1-.213-.282,2.86,2.86,0,0,1-.173-.649l1.578.073c.281.013.553-.059.671.218a2.589,2.589,0,0,1,.138.625c-.517.022-1.032,0-1.55,0" transform="translate(-52.284 -217.991)" fill="#4349db"/>
        <path id="Trazado_732465" data-name="Trazado 732465" d="M57.835,291.333c-2.535.368-5.148.2-7.7.5-.28.033-.284.477,0,.444,2.595-.3,5.243-.14,7.82-.515.282-.041.162-.469-.118-.428" transform="translate(-38.841 -226.664)" fill="#4349db"/>
        <path id="Trazado_732466" data-name="Trazado 732466" d="M60.6,296.926c-2.709.381-5.5.385-8.225.534-.284.016-.286.459,0,.444,2.771-.151,5.593-.163,8.343-.55.282-.04.162-.467-.118-.428" transform="translate(-40.581 -231.015)" fill="#4349db"/>
        <path id="Trazado_732467" data-name="Trazado 732467" d="M70.089,303.069c-.2-.208-.511.107-.314.314a2.239,2.239,0,0,1,.681,1.7c-.1.855-1.052,1.045-1.734.795-1.541-.565-1.1-3.048.616-2.61a.222.222,0,0,0,.118-.428c-2.172-.553-2.958,2.55-1.014,3.406a1.83,1.83,0,0,0,2.281-.532,2.4,2.4,0,0,0-.633-2.648" transform="translate(-52.387 -235.57)" fill="#4349db"/>
        <path id="Trazado_732468" data-name="Trazado 732468" d="M73.113,307.121a.822.822,0,0,0-.942-.061.873.873,0,0,0-.307.956c.044.281.471.162.428-.118-.027-.173-.042-.368.129-.469a.378.378,0,0,1,.431.049.447.447,0,0,1,.146.387c-.039.212-.251.22-.428.206-.285-.023-.283.421,0,.444a.759.759,0,0,0,.842-.469.891.891,0,0,0-.3-.924" transform="translate(-55.893 -238.807)" fill="#4349db"/>
        <path id="Trazado_732469" data-name="Trazado 732469" d="M86.892,302.873a11.494,11.494,0,0,0-1.847.26.222.222,0,0,0,.118.428,10.744,10.744,0,0,1,1.729-.244c.283-.023.285-.467,0-.444" transform="translate(-66.044 -235.643)" fill="#4349db"/>
        <path id="Trazado_732470" data-name="Trazado 732470" d="M89.193,307.758a17.1,17.1,0,0,0-2.075.1c-.281.031-.284.475,0,.444a17.1,17.1,0,0,1,2.075-.1.222.222,0,0,0,0-.444" transform="translate(-67.615 -239.444)" fill="#4349db"/>
        <path id="Trazado_732471" data-name="Trazado 732471" d="M54.916,305.093a12.173,12.173,0,0,0-1.685.1c-.28.035-.283.48,0,.444a12.178,12.178,0,0,1,1.685-.1.222.222,0,0,0,0-.444" transform="translate(-41.251 -237.37)" fill="#4349db"/>
        <path id="Trazado_732472" data-name="Trazado 732472" d="M56.771,309.306l-1.1.141c-.279.036-.283.48,0,.444l1.1-.141c.279-.036.283-.48,0-.444" transform="translate(-43.149 -240.647)" fill="#4349db"/>
        <path id="Trazado_732473" data-name="Trazado 732473" d="M48.739,272.837c-2.347.042-4.7.124-7.042-.02-.285-.018-.284.426,0,.444,2.345.144,4.7.061,7.042.02a.222.222,0,0,0,0-.444" transform="translate(-32.275 -212.259)" fill="#fff"/>
        <path id="Trazado_732474" data-name="Trazado 732474" d="M81.641,275.66a14.279,14.279,0,0,0-1.68-2.373c-.519-.583-1.224-.411-1.945-.342-.282.027-.285.471,0,.444a6.336,6.336,0,0,1,.911-.061,1.307,1.307,0,0,1,1.039.653,14.807,14.807,0,0,1,1.291,1.9.222.222,0,0,0,.383-.224" transform="translate(-60.534 -212.299)" fill="#fff"/>
        <path id="Trazado_732475" data-name="Trazado 732475" d="M29.347,46.162a5.115,5.115,0,0,0-5.269,3.372,2.775,2.775,0,0,1-1.325,1.515c-4.564,2.4-10.662,6.972-12.893,14.883-3.445,12.212,5.393,25.381,5.771,25.936a2.561,2.561,0,0,0,4.234-2.881c-.079-.117-7.867-11.769-5.076-21.664,1.591-5.64,5.925-9.192,9.492-11.244a2.833,2.833,0,0,1,2.56-.125,5.118,5.118,0,0,0,7.167-4.971,5.15,5.15,0,0,0-4.66-4.821" transform="translate(-7.052 -35.9)" fill="#f15a24"/>
        <path id="Trazado_732476" data-name="Trazado 732476" d="M90.848,58.656a3.012,3.012,0,1,1-3.013-3.013,3.013,3.013,0,0,1,3.013,3.013" transform="translate(-65.995 -43.292)" fill="#ab4019"/>
        <path id="Trazado_732477" data-name="Trazado 732477" d="M80.911,47.129a4.749,4.749,0,0,0-5.16-1.458,6.032,6.032,0,0,0-2.438,1.4c-.9.871-1.147,2.265-2.16,3.01-.228.168-.007.553.224.383a3.7,3.7,0,0,0,1.091-1.337,5.707,5.707,0,0,1,1.91-2.336c1.848-1.2,4.671-1.374,6.15.566.171.224.557,0,.383-.224" transform="translate(-55.284 -35.356)" fill="#fff"/>
        <path id="Trazado_732478" data-name="Trazado 732478" d="M117.487,56.626c-.164-.231-.55-.009-.383.224a3.816,3.816,0,0,1,.52,3.212c-.1.267.326.382.428.118a4.181,4.181,0,0,0-.564-3.554" transform="translate(-91.078 -43.981)" fill="#fff"/>
        <path id="Trazado_732479" data-name="Trazado 732479" d="M14.892,154.184a19.409,19.409,0,0,1-.728-11.272c.065-.278-.363-.4-.428-.118a19.824,19.824,0,0,0,.728,11.508c.1.265.528.15.428-.118" transform="translate(-10.274 -110.974)" fill="#fff"/>
        <path id="Trazado_732480" data-name="Trazado 732480" d="M59.36,81.119a4.978,4.978,0,0,1-5.232,2.126c-1.574-.358-2.5-.827-4,.069a19.7,19.7,0,0,0-7.225,6.666.222.222,0,0,0,.383.224,15.107,15.107,0,0,1,3.72-4.2c.736-.59,1.51-1.13,2.3-1.645A4.535,4.535,0,0,1,52.253,83.2c.836.095,1.595.509,2.437.6a5.311,5.311,0,0,0,1.933-.165,5.475,5.475,0,0,0,3.12-2.284c.159-.238-.225-.46-.383-.224" transform="translate(-33.357 -63.035)" fill="#a6370f"/>
        <path id="Trazado_732481" data-name="Trazado 732481" d="M43.638,210.638c-.678-1.279-1.394-2.55-2.125-3.8a10.9,10.9,0,0,1-1.808-3.735c-.044-.281-.471-.162-.428.118.288,1.865,1.653,3.475,2.553,5.086,1.064,1.905,3.237,4.744.572,6.361a.222.222,0,0,0,.224.383,3.147,3.147,0,0,0,1.011-4.414" transform="translate(-30.556 -157.896)" fill="#a6370f"/>
        <path id="Trazado_732482" data-name="Trazado 732482" d="M45.581,241.469c-.1-.267-.525-.152-.428.118a1.758,1.758,0,0,1-.127,1.685,1.04,1.04,0,0,1-1.447.272c-.238-.16-.46.224-.224.383a1.468,1.468,0,0,0,1.878-.212,2.13,2.13,0,0,0,.348-2.246" transform="translate(-33.653 -187.752)" fill="#a6370f"/>
      </g>
    </g>
  </g>
</svg>
