<svg xmlns="http://www.w3.org/2000/svg" width="276" height="291" viewBox="0 0 276 291">
  <g id="_48" data-name="48" transform="translate(-821 -5287)">
    <path id="Trazado_732658" data-name="Trazado 732658" d="M0,0H276V291H0Z" transform="translate(821 5287)" fill="#fff"/>
    <path id="Trazado_732659" data-name="Trazado 732659" d="M8.712,13V3.047h3.063a4.651,4.651,0,0,1,2.348.591A4.123,4.123,0,0,1,15.739,5.32,5.187,5.187,0,0,1,16.32,7.8v.458a5.2,5.2,0,0,1-.571,2.468A4.088,4.088,0,0,1,14.14,12.4a4.686,4.686,0,0,1-2.345.6Zm2.051-8.292v6.645h.991a2.227,2.227,0,0,0,1.839-.786,3.552,3.552,0,0,0,.649-2.249V7.791a3.609,3.609,0,0,0-.629-2.3,2.219,2.219,0,0,0-1.839-.783Zm9,8.292H17.783V5.6h1.982Zm-2.1-9.311a.973.973,0,0,1,.3-.731,1.281,1.281,0,0,1,1.617,0,.967.967,0,0,1,.3.731.97.97,0,0,1-.3.738,1.267,1.267,0,0,1-1.606,0A.97.97,0,0,1,17.667,3.689Zm7.882,3.767a5.367,5.367,0,0,0-.711-.055,1.447,1.447,0,0,0-1.47.759V13H21.393V5.6h1.866l.055.882a1.831,1.831,0,0,1,1.647-1.019,2.07,2.07,0,0,1,.615.089Zm4.225,5.681a3.631,3.631,0,0,1-2.649-1A3.548,3.548,0,0,1,26.1,9.479V9.288A4.468,4.468,0,0,1,26.533,7.3a3.161,3.161,0,0,1,1.22-1.354,3.425,3.425,0,0,1,1.8-.475,3.07,3.07,0,0,1,2.389.957,3.889,3.889,0,0,1,.872,2.714v.807h-4.71a1.835,1.835,0,0,0,.578,1.162,1.746,1.746,0,0,0,1.22.438,2.132,2.132,0,0,0,1.784-.827l.971,1.087a2.966,2.966,0,0,1-1.2.981A3.947,3.947,0,0,1,29.773,13.137ZM29.548,7.06a1.234,1.234,0,0,0-.954.4,2.062,2.062,0,0,0-.468,1.14h2.748V8.44a1.471,1.471,0,0,0-.355-1.02A1.274,1.274,0,0,0,29.548,7.06Zm7.465,4.484a1.3,1.3,0,0,0,.889-.3,1.054,1.054,0,0,0,.355-.8h1.853a2.534,2.534,0,0,1-.41,1.377,2.706,2.706,0,0,1-1.1.971,3.455,3.455,0,0,1-1.548.345,3.211,3.211,0,0,1-2.5-1.008,3.99,3.99,0,0,1-.916-2.786v-.13a3.944,3.944,0,0,1,.909-2.728,3.174,3.174,0,0,1,2.5-1.019,3.111,3.111,0,0,1,2.225.79,2.8,2.8,0,0,1,.851,2.1H38.257A1.358,1.358,0,0,0,37.9,7.42a1.321,1.321,0,0,0-1.945.142A2.916,2.916,0,0,0,35.6,9.2V9.4a2.953,2.953,0,0,0,.349,1.643A1.2,1.2,0,0,0,37.013,11.544Zm7.3,0a1.3,1.3,0,0,0,.889-.3,1.054,1.054,0,0,0,.355-.8H47.41A2.534,2.534,0,0,1,47,11.821a2.706,2.706,0,0,1-1.1.971,3.455,3.455,0,0,1-1.548.345,3.211,3.211,0,0,1-2.5-1.008,3.99,3.99,0,0,1-.916-2.786v-.13a3.944,3.944,0,0,1,.909-2.728,3.174,3.174,0,0,1,2.5-1.019,3.111,3.111,0,0,1,2.225.79,2.8,2.8,0,0,1,.851,2.1H45.558A1.358,1.358,0,0,0,45.2,7.42a1.321,1.321,0,0,0-1.945.142A2.916,2.916,0,0,0,42.905,9.2V9.4a2.953,2.953,0,0,0,.349,1.643A1.2,1.2,0,0,0,44.313,11.544ZM50.623,13H48.641V5.6h1.982Zm-2.1-9.311a.973.973,0,0,1,.3-.731,1.281,1.281,0,0,1,1.617,0,.967.967,0,0,1,.3.731.97.97,0,0,1-.3.738,1.267,1.267,0,0,1-1.606,0A.97.97,0,0,1,48.524,3.689Zm3.418,5.544a4.387,4.387,0,0,1,.424-1.962,3.1,3.1,0,0,1,1.22-1.333,3.56,3.56,0,0,1,1.849-.472,3.368,3.368,0,0,1,2.444.916,3.676,3.676,0,0,1,1.056,2.488l.014.506A3.866,3.866,0,0,1,58,12.108a3.683,3.683,0,0,1-5.1,0,3.934,3.934,0,0,1-.954-2.789Zm1.976.14a2.765,2.765,0,0,0,.4,1.612,1.424,1.424,0,0,0,2.256.007,3.025,3.025,0,0,0,.4-1.763,2.737,2.737,0,0,0-.4-1.6,1.311,1.311,0,0,0-1.135-.568,1.29,1.29,0,0,0-1.121.565A3.076,3.076,0,0,0,53.918,9.374ZM55.825,2.5h2.153L56.085,4.619H54.479Zm6.159,3.1.062.854a2.582,2.582,0,0,1,2.126-.991,2.146,2.146,0,0,1,1.75.69,3.221,3.221,0,0,1,.588,2.064V13H64.534V8.27a1.282,1.282,0,0,0-.273-.913,1.224,1.224,0,0,0-.909-.284,1.359,1.359,0,0,0-1.251.711V13H60.125V5.6Zm9.2,3.644a4.457,4.457,0,0,1,.776-2.755,2.517,2.517,0,0,1,2.123-1.025,2.265,2.265,0,0,1,1.784.807V2.5h1.982V13H76.066l-.1-.786a2.325,2.325,0,0,1-1.9.923,2.511,2.511,0,0,1-2.1-1.029A4.6,4.6,0,0,1,71.186,9.247Zm1.976.147a2.92,2.92,0,0,0,.362,1.6,1.18,1.18,0,0,0,1.053.555,1.322,1.322,0,0,0,1.292-.774V7.847a1.3,1.3,0,0,0-1.278-.774Q73.161,7.073,73.161,9.394Zm9.625,3.743a3.631,3.631,0,0,1-2.649-1,3.548,3.548,0,0,1-1.022-2.659V9.288A4.468,4.468,0,0,1,79.546,7.3a3.161,3.161,0,0,1,1.22-1.354,3.425,3.425,0,0,1,1.8-.475,3.07,3.07,0,0,1,2.389.957,3.889,3.889,0,0,1,.872,2.714v.807h-4.71a1.835,1.835,0,0,0,.578,1.162,1.746,1.746,0,0,0,1.22.438,2.132,2.132,0,0,0,1.784-.827l.971,1.087a2.966,2.966,0,0,1-1.2.981A3.947,3.947,0,0,1,82.786,13.137ZM82.561,7.06a1.234,1.234,0,0,0-.954.4,2.062,2.062,0,0,0-.468,1.14h2.748V8.44a1.471,1.471,0,0,0-.355-1.02A1.274,1.274,0,0,0,82.561,7.06ZM92.521,13H90.538V2.5h1.982Zm5.913,0a2.194,2.194,0,0,1-.2-.663,2.39,2.39,0,0,1-1.866.8,2.626,2.626,0,0,1-1.8-.629,2.023,2.023,0,0,1-.714-1.586,2.09,2.09,0,0,1,.872-1.8,4.3,4.3,0,0,1,2.519-.636h.909V8.058a1.219,1.219,0,0,0-.263-.82,1.035,1.035,0,0,0-.831-.308,1.177,1.177,0,0,0-.783.239.813.813,0,0,0-.284.656H94.018a1.985,1.985,0,0,1,.4-1.189,2.621,2.621,0,0,1,1.121-.858,4.086,4.086,0,0,1,1.627-.311,3.228,3.228,0,0,1,2.17.687,2.4,2.4,0,0,1,.8,1.931v3.206a3.536,3.536,0,0,0,.294,1.593V13ZM96.8,11.626a1.7,1.7,0,0,0,.807-.195,1.28,1.28,0,0,0,.547-.523V9.637h-.738q-1.483,0-1.579,1.025l-.007.116a.791.791,0,0,0,.26.608A1.009,1.009,0,0,0,96.8,11.626Zm12.5-4.17a5.367,5.367,0,0,0-.711-.055,1.447,1.447,0,0,0-1.47.759V13H105.14V5.6h1.866l.055.882a1.831,1.831,0,0,1,1.647-1.019,2.07,2.07,0,0,1,.615.089Zm4.225,5.681a3.631,3.631,0,0,1-2.649-1,3.548,3.548,0,0,1-1.022-2.659V9.288A4.468,4.468,0,0,1,110.28,7.3a3.161,3.161,0,0,1,1.22-1.354,3.425,3.425,0,0,1,1.8-.475,3.07,3.07,0,0,1,2.389.957,3.889,3.889,0,0,1,.872,2.714v.807h-4.71a1.835,1.835,0,0,0,.578,1.162,1.746,1.746,0,0,0,1.22.438,2.132,2.132,0,0,0,1.784-.827l.971,1.087a2.966,2.966,0,0,1-1.2.981A3.947,3.947,0,0,1,113.521,13.137Zm-.226-6.077a1.234,1.234,0,0,0-.954.4,2.062,2.062,0,0,0-.468,1.14h2.748V8.44a1.471,1.471,0,0,0-.355-1.02A1.274,1.274,0,0,0,113.295,7.06Zm9.345-3.028a9.508,9.508,0,0,0-1.094-.068q-1.34,0-1.34,1.142v.5h1.47V7.053h-1.47V13h-1.982V7.053h-1.1V5.6h1.1V5.029a2.527,2.527,0,0,1,.807-1.979,3.3,3.3,0,0,1,2.242-.694q1.032,0,3.35.219V13H122.64Zm7.027,9.105a3.631,3.631,0,0,1-2.649-1A3.548,3.548,0,0,1,126,9.479V9.288a4.468,4.468,0,0,1,.431-1.993,3.161,3.161,0,0,1,1.22-1.354,3.425,3.425,0,0,1,1.8-.475,3.07,3.07,0,0,1,2.389.957,3.889,3.889,0,0,1,.872,2.714v.807H128a1.835,1.835,0,0,0,.578,1.162,1.746,1.746,0,0,0,1.22.438,2.132,2.132,0,0,0,1.784-.827l.971,1.087a2.966,2.966,0,0,1-1.2.981A3.947,3.947,0,0,1,129.667,13.137Zm-.226-6.077a1.235,1.235,0,0,0-.954.4,2.062,2.062,0,0,0-.468,1.14h2.748V8.44a1.471,1.471,0,0,0-.355-1.02A1.274,1.274,0,0,0,129.441,7.06Zm7.205.752L137.891,5.6H140L137.9,9.227,140.092,13h-2.119l-1.319-2.324L135.341,13h-2.126l2.194-3.773-2.1-3.623h2.119ZM143.038,13h-1.982V5.6h1.982Zm-2.1-9.311a.973.973,0,0,1,.3-.731,1.281,1.281,0,0,1,1.617,0,.967.967,0,0,1,.3.731.97.97,0,0,1-.3.738,1.267,1.267,0,0,1-1.606,0A.97.97,0,0,1,140.939,3.689Zm3.418,5.544a4.387,4.387,0,0,1,.424-1.962A3.1,3.1,0,0,1,146,5.938a3.56,3.56,0,0,1,1.849-.472,3.368,3.368,0,0,1,2.444.916,3.676,3.676,0,0,1,1.056,2.488l.014.506a3.866,3.866,0,0,1-.95,2.731,3.683,3.683,0,0,1-5.1,0,3.934,3.934,0,0,1-.954-2.789Zm1.976.14a2.765,2.765,0,0,0,.4,1.612,1.424,1.424,0,0,0,2.256.007,3.025,3.025,0,0,0,.4-1.763,2.737,2.737,0,0,0-.4-1.6,1.311,1.311,0,0,0-1.135-.568,1.29,1.29,0,0,0-1.121.565A3.076,3.076,0,0,0,146.333,9.374ZM148.24,2.5h2.153L148.5,4.619h-1.606ZM154.4,5.6l.062.854a2.582,2.582,0,0,1,2.126-.991,2.146,2.146,0,0,1,1.75.69,3.221,3.221,0,0,1,.588,2.064V13h-1.976V8.27a1.282,1.282,0,0,0-.273-.913,1.224,1.224,0,0,0-.909-.284,1.359,1.359,0,0,0-1.251.711V13H152.54V5.6ZM32.638,31.137a3.631,3.631,0,0,1-2.649-1,3.548,3.548,0,0,1-1.022-2.659v-.191A4.468,4.468,0,0,1,29.4,25.3a3.161,3.161,0,0,1,1.22-1.354,3.425,3.425,0,0,1,1.8-.475,3.07,3.07,0,0,1,2.389.957,3.889,3.889,0,0,1,.872,2.714v.807H30.97a1.835,1.835,0,0,0,.578,1.162,1.746,1.746,0,0,0,1.22.438,2.132,2.132,0,0,0,1.784-.827l.971,1.087a2.966,2.966,0,0,1-1.2.981A3.947,3.947,0,0,1,32.638,31.137Zm-.226-6.077a1.234,1.234,0,0,0-.954.4,2.062,2.062,0,0,0-.468,1.14h2.748V26.44a1.471,1.471,0,0,0-.355-1.02A1.274,1.274,0,0,0,32.412,25.06Zm8.395,3.9a.637.637,0,0,0-.359-.571,4.077,4.077,0,0,0-1.152-.373q-2.639-.554-2.639-2.242a2.032,2.032,0,0,1,.817-1.644,3.3,3.3,0,0,1,2.136-.66,3.547,3.547,0,0,1,2.252.663,2.09,2.09,0,0,1,.844,1.723H40.731a.956.956,0,0,0-.273-.7,1.157,1.157,0,0,0-.854-.277,1.182,1.182,0,0,0-.772.226.712.712,0,0,0-.273.574.609.609,0,0,0,.311.53,3.2,3.2,0,0,0,1.049.349,8.571,8.571,0,0,1,1.244.332,2.044,2.044,0,0,1,1.565,1.989,1.929,1.929,0,0,1-.868,1.637,3.745,3.745,0,0,1-2.242.625,3.912,3.912,0,0,1-1.651-.332,2.77,2.77,0,0,1-1.131-.909,2.113,2.113,0,0,1-.41-1.248H38.3a1.031,1.031,0,0,0,.39.807,1.546,1.546,0,0,0,.971.28,1.43,1.43,0,0,0,.858-.215A.67.67,0,0,0,40.807,28.956Zm9.851-1.586a4.436,4.436,0,0,1-.776,2.738,2.488,2.488,0,0,1-2.1,1.029,2.3,2.3,0,0,1-1.812-.779v3.486H44V23.6h1.832l.068.725a2.322,2.322,0,0,1,1.873-.861A2.5,2.5,0,0,1,49.9,24.479a4.556,4.556,0,0,1,.759,2.789Zm-1.976-.144a2.911,2.911,0,0,0-.366-1.593,1.191,1.191,0,0,0-1.063-.561,1.294,1.294,0,0,0-1.278.711v3.028a1.316,1.316,0,0,0,1.292.731Q48.682,29.544,48.682,27.227Zm6.6,3.91a3.631,3.631,0,0,1-2.649-1,3.548,3.548,0,0,1-1.022-2.659v-.191a4.468,4.468,0,0,1,.431-1.993,3.161,3.161,0,0,1,1.22-1.354,3.425,3.425,0,0,1,1.8-.475,3.07,3.07,0,0,1,2.389.957,3.889,3.889,0,0,1,.872,2.714v.807h-4.71a1.835,1.835,0,0,0,.578,1.162,1.746,1.746,0,0,0,1.22.438,2.132,2.132,0,0,0,1.784-.827L58.17,29.8a2.966,2.966,0,0,1-1.2.981A3.947,3.947,0,0,1,55.285,31.137ZM55.06,25.06a1.234,1.234,0,0,0-.954.4,2.062,2.062,0,0,0-.468,1.14h2.748V26.44a1.471,1.471,0,0,0-.355-1.02A1.274,1.274,0,0,0,55.06,25.06Zm7.465,4.484a1.3,1.3,0,0,0,.889-.3,1.054,1.054,0,0,0,.355-.8h1.853a2.534,2.534,0,0,1-.41,1.377,2.706,2.706,0,0,1-1.1.971,3.455,3.455,0,0,1-1.548.345,3.211,3.211,0,0,1-2.5-1.008,3.99,3.99,0,0,1-.916-2.786v-.13a3.944,3.944,0,0,1,.909-2.728,3.174,3.174,0,0,1,2.5-1.019,3.111,3.111,0,0,1,2.225.79,2.8,2.8,0,0,1,.851,2.1H63.769a1.358,1.358,0,0,0-.355-.938,1.321,1.321,0,0,0-1.945.142,2.916,2.916,0,0,0-.352,1.633V27.4a2.953,2.953,0,0,0,.349,1.643A1.2,1.2,0,0,0,62.524,29.544Zm8.654.7a2.477,2.477,0,0,1-2.023.889,2.337,2.337,0,0,1-1.815-.684,2.918,2.918,0,0,1-.639-2V23.6h1.976v4.784q0,1.157,1.053,1.157a1.426,1.426,0,0,0,1.381-.7V23.6h1.982V31H71.233ZM76.668,31H74.686V20.5h1.982Zm5.913,0a2.194,2.194,0,0,1-.2-.663,2.39,2.39,0,0,1-1.866.8,2.626,2.626,0,0,1-1.8-.629A2.023,2.023,0,0,1,78,28.922a2.09,2.09,0,0,1,.872-1.8,4.3,4.3,0,0,1,2.519-.636H82.3v-.424a1.219,1.219,0,0,0-.263-.82,1.035,1.035,0,0,0-.831-.308,1.177,1.177,0,0,0-.783.239.813.813,0,0,0-.284.656H78.165a1.985,1.985,0,0,1,.4-1.189,2.621,2.621,0,0,1,1.121-.858,4.086,4.086,0,0,1,1.627-.311,3.228,3.228,0,0,1,2.17.687,2.4,2.4,0,0,1,.8,1.931v3.206a3.536,3.536,0,0,0,.294,1.593V31Zm-1.634-1.374a1.7,1.7,0,0,0,.807-.195,1.28,1.28,0,0,0,.547-.523V27.637h-.738q-1.483,0-1.579,1.025l-.007.116a.791.791,0,0,0,.26.608A1.009,1.009,0,0,0,80.947,29.626Zm9.01-4.17a5.367,5.367,0,0,0-.711-.055,1.447,1.447,0,0,0-1.47.759V31H85.8V23.6h1.866l.055.882a1.831,1.831,0,0,1,1.647-1.019,2.07,2.07,0,0,1,.615.089Zm4.525,1.5a10.491,10.491,0,0,1,.417-2.98,7.865,7.865,0,0,1,1.23-2.505,4.6,4.6,0,0,1,1.764-1.514l.383,1.066A4.758,4.758,0,0,0,96.718,23.3a10.572,10.572,0,0,0-.561,3.609v.212a10.774,10.774,0,0,0,.554,3.623,4.851,4.851,0,0,0,1.565,2.317l-.383,1.046a4.6,4.6,0,0,1-1.733-1.473A7.734,7.734,0,0,1,94.934,30.2a10.428,10.428,0,0,1-.451-2.885Zm11.491.417a4.479,4.479,0,0,1-.759,2.772,2.513,2.513,0,0,1-2.119.995,2.309,2.309,0,0,1-1.921-.923l-.089.786H99.309V20.5h1.976v3.767a2.25,2.25,0,0,1,1.8-.8,2.534,2.534,0,0,1,2.123.995,4.485,4.485,0,0,1,.769,2.8ZM104,27.227a2.942,2.942,0,0,0-.355-1.637,1.2,1.2,0,0,0-1.06-.516,1.3,1.3,0,0,0-1.3.772v2.919a1.321,1.321,0,0,0,1.313.779,1.22,1.22,0,0,0,1.258-.943A4.866,4.866,0,0,0,104,27.227Zm7.349-1.771a5.367,5.367,0,0,0-.711-.055,1.447,1.447,0,0,0-1.47.759V31H107.19V23.6h1.866l.055.882a1.831,1.831,0,0,1,1.647-1.019,2.07,2.07,0,0,1,.615.089ZM114.382,31H112.4V23.6h1.982Zm-2.1-9.311a.973.973,0,0,1,.3-.731,1.281,1.281,0,0,1,1.617,0,1.044,1.044,0,0,1,0,1.47,1.267,1.267,0,0,1-1.606,0A.97.97,0,0,1,112.283,21.689ZM118.094,31h-1.982V20.5h1.982Zm3.712,0h-1.982V20.5h1.982Zm1.319-3.767a4.387,4.387,0,0,1,.424-1.962,3.1,3.1,0,0,1,1.22-1.333,3.56,3.56,0,0,1,1.849-.472,3.368,3.368,0,0,1,2.444.916,3.676,3.676,0,0,1,1.056,2.488l.014.506a3.866,3.866,0,0,1-.95,2.731,3.683,3.683,0,0,1-5.1,0,3.934,3.934,0,0,1-.954-2.789Zm1.976.14a2.765,2.765,0,0,0,.4,1.612,1.424,1.424,0,0,0,2.256.007,3.025,3.025,0,0,0,.4-1.763,2.737,2.737,0,0,0-.4-1.6,1.311,1.311,0,0,0-1.135-.568,1.29,1.29,0,0,0-1.121.565A3.076,3.076,0,0,0,125.1,27.374Zm9.652-.263a9.955,9.955,0,0,1-.444,2.974,8.072,8.072,0,0,1-1.278,2.522,4.605,4.605,0,0,1-1.784,1.5l-.383-1.046a4.807,4.807,0,0,0,1.531-2.256,10.446,10.446,0,0,0,.581-3.507v-.362a10.683,10.683,0,0,0-.557-3.6A5.011,5.011,0,0,0,130.863,21l.383-1.046A4.607,4.607,0,0,1,133,21.416a7.968,7.968,0,0,1,1.278,2.468,9.884,9.884,0,0,1,.475,2.919Z" transform="translate(886 5528)" fill="#12263f"/>
    <path id="Trazado_732660" data-name="Trazado 732660" d="M18.876,8.933H14.938V13H12.888V3.047h6.48V4.708h-4.43v2.57h3.938Zm5.831,3.315a2.477,2.477,0,0,1-2.023.889,2.337,2.337,0,0,1-1.815-.684,2.918,2.918,0,0,1-.639-2V5.6h1.976v4.784q0,1.157,1.053,1.157a1.426,1.426,0,0,0,1.381-.7V5.6h1.982V13H24.762Zm6.809.889a3.631,3.631,0,0,1-2.649-1,3.548,3.548,0,0,1-1.022-2.659V9.288A4.468,4.468,0,0,1,28.275,7.3,3.161,3.161,0,0,1,29.5,5.942a3.425,3.425,0,0,1,1.8-.475,3.07,3.07,0,0,1,2.389.957,3.889,3.889,0,0,1,.872,2.714v.807h-4.71a1.835,1.835,0,0,0,.578,1.162,1.746,1.746,0,0,0,1.22.438,2.132,2.132,0,0,0,1.784-.827L34.4,11.8a2.966,2.966,0,0,1-1.2.981A3.947,3.947,0,0,1,31.516,13.137ZM31.29,7.06a1.234,1.234,0,0,0-.954.4,2.062,2.062,0,0,0-.468,1.14h2.748V8.44a1.471,1.471,0,0,0-.355-1.02A1.274,1.274,0,0,0,31.29,7.06ZM37.5,5.6l.062.854a2.582,2.582,0,0,1,2.126-.991,2.146,2.146,0,0,1,1.75.69,3.221,3.221,0,0,1,.588,2.064V13H40.047V8.27a1.282,1.282,0,0,0-.273-.913,1.224,1.224,0,0,0-.909-.284,1.359,1.359,0,0,0-1.251.711V13H35.638V5.6Zm8.388-1.818V5.6h1.265V7.053H45.885v3.691a.881.881,0,0,0,.157.588.79.79,0,0,0,.6.178,3.15,3.15,0,0,0,.581-.048v1.5a4.067,4.067,0,0,1-1.2.178,1.886,1.886,0,0,1-2.119-2.1V7.053h-1.08V5.6h1.08V3.785Zm5.77,9.352a3.631,3.631,0,0,1-2.649-1,3.548,3.548,0,0,1-1.022-2.659V9.288A4.468,4.468,0,0,1,48.414,7.3a3.161,3.161,0,0,1,1.22-1.354,3.425,3.425,0,0,1,1.8-.475,3.07,3.07,0,0,1,2.389.957A3.889,3.889,0,0,1,54.7,9.138v.807h-4.71a1.835,1.835,0,0,0,.578,1.162,1.746,1.746,0,0,0,1.22.438,2.132,2.132,0,0,0,1.784-.827l.971,1.087a2.966,2.966,0,0,1-1.2.981A3.947,3.947,0,0,1,51.654,13.137ZM51.429,7.06a1.234,1.234,0,0,0-.954.4,2.062,2.062,0,0,0-.468,1.14h2.748V8.44A1.471,1.471,0,0,0,52.4,7.42,1.274,1.274,0,0,0,51.429,7.06ZM59,9.247a4.457,4.457,0,0,1,.776-2.755,2.517,2.517,0,0,1,2.123-1.025,2.265,2.265,0,0,1,1.784.807V2.5h1.982V13H63.877l-.1-.786a2.325,2.325,0,0,1-1.9.923,2.511,2.511,0,0,1-2.1-1.029A4.6,4.6,0,0,1,59,9.247Zm1.976.147a2.92,2.92,0,0,0,.362,1.6,1.18,1.18,0,0,0,1.053.555,1.322,1.322,0,0,0,1.292-.774V7.847A1.3,1.3,0,0,0,62.4,7.073Q60.972,7.073,60.972,9.394ZM70.6,13.137a3.631,3.631,0,0,1-2.649-1,3.548,3.548,0,0,1-1.022-2.659V9.288A4.468,4.468,0,0,1,67.356,7.3a3.161,3.161,0,0,1,1.22-1.354,3.425,3.425,0,0,1,1.8-.475,3.07,3.07,0,0,1,2.389.957,3.889,3.889,0,0,1,.872,2.714v.807h-4.71a1.835,1.835,0,0,0,.578,1.162,1.746,1.746,0,0,0,1.22.438,2.132,2.132,0,0,0,1.784-.827l.971,1.087a2.966,2.966,0,0,1-1.2.981A3.947,3.947,0,0,1,70.6,13.137ZM70.371,7.06a1.234,1.234,0,0,0-.954.4,2.062,2.062,0,0,0-.468,1.14H71.7V8.44a1.471,1.471,0,0,0-.355-1.02A1.274,1.274,0,0,0,70.371,7.06ZM9.241,27H7.258V19.6H9.241Zm-2.1-9.311a.973.973,0,0,1,.3-.731,1.117,1.117,0,0,1,.81-.287,1.12,1.12,0,0,1,.807.287,1.044,1.044,0,0,1,0,1.47,1.122,1.122,0,0,1-.8.287,1.122,1.122,0,0,1-.8-.287A.97.97,0,0,1,7.142,17.689ZM12.953,27H10.97V16.5h1.982Zm6.057-.752a2.477,2.477,0,0,1-2.023.889,2.337,2.337,0,0,1-1.815-.684,2.918,2.918,0,0,1-.639-2V19.6h1.976v4.784q0,1.157,1.053,1.157a1.426,1.426,0,0,0,1.381-.7V19.6h1.982V27H19.064ZM24.266,19.6l.062.827a2.6,2.6,0,0,1,2.126-.964,1.973,1.973,0,0,1,1.962,1.128,2.54,2.54,0,0,1,2.222-1.128,2.206,2.206,0,0,1,1.791.7,3.221,3.221,0,0,1,.588,2.109V27H31.034V22.283a1.408,1.408,0,0,0-.246-.919,1.091,1.091,0,0,0-.868-.291,1.233,1.233,0,0,0-1.23.848L28.7,27H26.72V22.29a1.391,1.391,0,0,0-.253-.93,1.1,1.1,0,0,0-.861-.287,1.28,1.28,0,0,0-1.217.7V27H22.414V19.6ZM36.619,27H34.636V19.6h1.982Zm-2.1-9.311a.973.973,0,0,1,.3-.731,1.281,1.281,0,0,1,1.617,0,1.044,1.044,0,0,1,0,1.47,1.267,1.267,0,0,1-1.606,0A.97.97,0,0,1,34.52,17.689ZM40.064,19.6l.062.854a2.582,2.582,0,0,1,2.126-.991,2.146,2.146,0,0,1,1.75.69,3.221,3.221,0,0,1,.588,2.064V27H42.614V22.27a1.282,1.282,0,0,0-.273-.913,1.224,1.224,0,0,0-.909-.284,1.359,1.359,0,0,0-1.251.711V27H38.2V19.6ZM50.373,27a2.194,2.194,0,0,1-.2-.663,2.39,2.39,0,0,1-1.866.8,2.626,2.626,0,0,1-1.8-.629,2.023,2.023,0,0,1-.714-1.586,2.09,2.09,0,0,1,.872-1.8,4.3,4.3,0,0,1,2.519-.636h.909v-.424a1.219,1.219,0,0,0-.263-.82A1.035,1.035,0,0,0,49,20.93a1.177,1.177,0,0,0-.783.239.813.813,0,0,0-.284.656H45.957a1.984,1.984,0,0,1,.4-1.189,2.621,2.621,0,0,1,1.121-.858,4.086,4.086,0,0,1,1.627-.311,3.228,3.228,0,0,1,2.17.687,2.4,2.4,0,0,1,.8,1.931v3.206a3.536,3.536,0,0,0,.294,1.593V27Zm-1.634-1.374a1.7,1.7,0,0,0,.807-.195,1.28,1.28,0,0,0,.547-.523V23.637h-.738q-1.483,0-1.579,1.025l-.007.116a.791.791,0,0,0,.26.608A1.009,1.009,0,0,0,48.739,25.626Zm7.93-.082a1.3,1.3,0,0,0,.889-.3,1.054,1.054,0,0,0,.355-.8h1.853a2.534,2.534,0,0,1-.41,1.377,2.706,2.706,0,0,1-1.1.971,3.455,3.455,0,0,1-1.548.345,3.211,3.211,0,0,1-2.5-1.008,3.99,3.99,0,0,1-.916-2.786v-.13a3.944,3.944,0,0,1,.909-2.728,3.174,3.174,0,0,1,2.5-1.019,3.111,3.111,0,0,1,2.225.79,2.8,2.8,0,0,1,.851,2.1H57.913a1.358,1.358,0,0,0-.355-.938,1.321,1.321,0,0,0-1.945.142A2.916,2.916,0,0,0,55.26,23.2V23.4a2.953,2.953,0,0,0,.349,1.643A1.2,1.2,0,0,0,56.668,25.544ZM62.978,27H61V19.6h1.982Zm-2.1-9.311a.973.973,0,0,1,.3-.731,1.281,1.281,0,0,1,1.617,0,1.044,1.044,0,0,1,0,1.47,1.267,1.267,0,0,1-1.606,0A.97.97,0,0,1,60.879,17.689ZM64.3,23.233a4.387,4.387,0,0,1,.424-1.962,3.1,3.1,0,0,1,1.22-1.333,3.56,3.56,0,0,1,1.849-.472,3.368,3.368,0,0,1,2.444.916,3.676,3.676,0,0,1,1.056,2.488l.014.506a3.866,3.866,0,0,1-.95,2.731,3.683,3.683,0,0,1-5.1,0,3.934,3.934,0,0,1-.954-2.789Zm1.976.14a2.765,2.765,0,0,0,.4,1.612,1.424,1.424,0,0,0,2.256.007,3.025,3.025,0,0,0,.4-1.763,2.737,2.737,0,0,0-.4-1.6,1.311,1.311,0,0,0-1.135-.568,1.29,1.29,0,0,0-1.121.565A3.076,3.076,0,0,0,66.273,23.374ZM68.18,16.5h2.153L68.44,18.619H66.833Zm6.159,3.1.062.854a2.582,2.582,0,0,1,2.126-.991,2.146,2.146,0,0,1,1.75.69,3.221,3.221,0,0,1,.588,2.064V27H76.889V22.27a1.282,1.282,0,0,0-.273-.913,1.224,1.224,0,0,0-.909-.284,1.359,1.359,0,0,0-1.251.711V27H72.48V19.6Z" transform="translate(915 5333)" fill="#12263f"/>
    <path id="Trazado_732661" data-name="Trazado 732661" d="M23.025,7.877h-1.4V11H19.867V2.469h3.17a3.583,3.583,0,0,1,2.332.674,2.326,2.326,0,0,1,.82,1.9A2.625,2.625,0,0,1,25.812,6.5a2.578,2.578,0,0,1-1.146.929l1.846,3.486V11H24.625Zm-1.4-1.424h1.418a1.452,1.452,0,0,0,1.025-.337,1.2,1.2,0,0,0,.363-.929,1.289,1.289,0,0,0-.343-.949,1.424,1.424,0,0,0-1.052-.346H21.625Zm8.707,4.664a3.112,3.112,0,0,1-2.271-.855,3.041,3.041,0,0,1-.876-2.279V7.818a3.83,3.83,0,0,1,.369-1.708A2.709,2.709,0,0,1,28.6,4.95a2.936,2.936,0,0,1,1.544-.407,2.631,2.631,0,0,1,2.048.82,3.333,3.333,0,0,1,.747,2.326v.691H28.9a1.573,1.573,0,0,0,.5,1,1.5,1.5,0,0,0,1.046.375,1.828,1.828,0,0,0,1.529-.709l.832.932a2.542,2.542,0,0,1-1.031.841A3.383,3.383,0,0,1,30.332,11.117Zm-.193-5.209a1.058,1.058,0,0,0-.817.341,1.768,1.768,0,0,0-.4.977h2.355V7.091a1.261,1.261,0,0,0-.3-.874A1.092,1.092,0,0,0,30.139,5.908Zm8.01-2.6a8.15,8.15,0,0,0-.937-.059q-1.148,0-1.148.979V4.66h1.26V5.9h-1.26V11h-1.7V5.9H33.42V4.66h.943V4.168a2.166,2.166,0,0,1,.691-1.7,2.826,2.826,0,0,1,1.922-.595q.885,0,2.871.188V11h-1.7Zm6.023,7.8a3.112,3.112,0,0,1-2.271-.855,3.041,3.041,0,0,1-.876-2.279V7.818a3.83,3.83,0,0,1,.369-1.708A2.709,2.709,0,0,1,42.44,4.95a2.936,2.936,0,0,1,1.544-.407,2.631,2.631,0,0,1,2.048.82,3.333,3.333,0,0,1,.747,2.326v.691H42.742a1.573,1.573,0,0,0,.5,1,1.5,1.5,0,0,0,1.046.375,1.828,1.828,0,0,0,1.529-.709l.832.932a2.542,2.542,0,0,1-1.031.841A3.383,3.383,0,0,1,44.172,11.117Zm-.193-5.209a1.058,1.058,0,0,0-.817.341,1.768,1.768,0,0,0-.4.977h2.355V7.091a1.261,1.261,0,0,0-.3-.874A1.092,1.092,0,0,0,43.979,5.908Zm6.176.645L51.221,4.66h1.811l-1.8,3.105L53.107,11H51.291L50.16,9.008,49.035,11H47.213l1.881-3.234-1.8-3.105h1.816ZM55.633,11h-1.7V4.66h1.7Zm-1.8-7.98a.834.834,0,0,1,.255-.627,1.1,1.1,0,0,1,1.386,0,.829.829,0,0,1,.258.627.831.831,0,0,1-.261.633,1.086,1.086,0,0,1-1.377,0A.831.831,0,0,1,53.834,3.02Zm2.93,4.752a3.76,3.76,0,0,1,.363-1.682,2.659,2.659,0,0,1,1.046-1.143,3.051,3.051,0,0,1,1.585-.4,2.887,2.887,0,0,1,2.095.785,3.151,3.151,0,0,1,.905,2.133l.012.434a3.314,3.314,0,0,1-.814,2.341,3.157,3.157,0,0,1-4.374,0,3.372,3.372,0,0,1-.817-2.391Zm1.693.12a2.37,2.37,0,0,0,.34,1.382,1.221,1.221,0,0,0,1.934.006,2.593,2.593,0,0,0,.346-1.511A2.346,2.346,0,0,0,60.73,6.4a1.124,1.124,0,0,0-.973-.487,1.105,1.105,0,0,0-.961.484A2.637,2.637,0,0,0,58.457,7.892ZM60.092,2h1.846L60.314,3.816H58.938Zm5.279,2.66.053.732a2.213,2.213,0,0,1,1.822-.85,1.84,1.84,0,0,1,1.5.592,2.761,2.761,0,0,1,.5,1.77V11H67.557V6.945a1.1,1.1,0,0,0-.234-.782,1.049,1.049,0,0,0-.779-.243,1.165,1.165,0,0,0-1.072.609V11H63.777V4.66ZM7.2,21.783a3.821,3.821,0,0,1,.665-2.361,2.158,2.158,0,0,1,1.819-.879,1.942,1.942,0,0,1,1.529.691V16h1.7v9H11.38l-.082-.674a1.993,1.993,0,0,1-1.629.791,2.152,2.152,0,0,1-1.8-.882A3.944,3.944,0,0,1,7.2,21.783Zm1.693.126A2.5,2.5,0,0,0,9.2,23.277a1.012,1.012,0,0,0,.9.475,1.133,1.133,0,0,0,1.107-.663V20.583a1.117,1.117,0,0,0-1.1-.663Q8.89,19.92,8.89,21.909ZM16.009,25h-1.7V18.66h1.7Zm-1.8-7.98a.834.834,0,0,1,.255-.627,1.1,1.1,0,0,1,1.386,0,.895.895,0,0,1,0,1.26,1.086,1.086,0,0,1-1.377,0A.831.831,0,0,1,14.21,17.02ZM17.866,25V19.9h-.943V18.66h.943v-.539a2.189,2.189,0,0,1,.612-1.655,2.371,2.371,0,0,1,1.714-.589,3.959,3.959,0,0,1,.861.117l-.018,1.313a2.159,2.159,0,0,0-.516-.053q-.955,0-.955.9v.51h1.26V19.9h-1.26V25Zm7.635-.645a2.124,2.124,0,0,1-1.734.762,2,2,0,0,1-1.556-.586,2.5,2.5,0,0,1-.548-1.717V18.66h1.693v4.1q0,.991.9.991a1.223,1.223,0,0,0,1.184-.6V18.66h1.7V25H25.548Zm6.352-1.107a.546.546,0,0,0-.308-.489,3.494,3.494,0,0,0-.987-.319Q28.3,21.965,28.3,20.518a1.742,1.742,0,0,1,.7-1.409,2.824,2.824,0,0,1,1.831-.565,3.04,3.04,0,0,1,1.931.568,1.791,1.791,0,0,1,.724,1.477H31.788a.819.819,0,0,0-.234-.6.992.992,0,0,0-.732-.237,1.013,1.013,0,0,0-.662.193.61.61,0,0,0-.234.492.522.522,0,0,0,.267.454,2.743,2.743,0,0,0,.9.3,7.346,7.346,0,0,1,1.066.284A1.752,1.752,0,0,1,33.5,23.178a1.654,1.654,0,0,1-.744,1.4,3.21,3.21,0,0,1-1.922.536,3.353,3.353,0,0,1-1.415-.284,2.374,2.374,0,0,1-.97-.779,1.811,1.811,0,0,1-.352-1.069H29.7a.884.884,0,0,0,.334.691,1.325,1.325,0,0,0,.832.24,1.226,1.226,0,0,0,.735-.185A.574.574,0,0,0,31.853,23.248ZM38.263,25a1.88,1.88,0,0,1-.17-.568,2.049,2.049,0,0,1-1.6.686,2.251,2.251,0,0,1-1.544-.539,1.734,1.734,0,0,1-.612-1.359,1.792,1.792,0,0,1,.747-1.547,3.686,3.686,0,0,1,2.159-.545h.779v-.363a1.045,1.045,0,0,0-.226-.7.887.887,0,0,0-.712-.264,1.009,1.009,0,0,0-.671.205.7.7,0,0,0-.243.563H34.478a1.7,1.7,0,0,1,.34-1.02,2.246,2.246,0,0,1,.961-.735,3.5,3.5,0,0,1,1.395-.267,2.767,2.767,0,0,1,1.86.589,2.06,2.06,0,0,1,.688,1.655v2.748a3.031,3.031,0,0,0,.252,1.365V25Zm-1.4-1.178a1.458,1.458,0,0,0,.691-.167,1.1,1.1,0,0,0,.469-.448v-1.09H37.39q-1.271,0-1.354.879l-.006.1a.678.678,0,0,0,.223.521A.865.865,0,0,0,36.862,23.822Zm7.225-2.291a8.992,8.992,0,0,1,.357-2.555A6.742,6.742,0,0,1,45.5,16.829a3.938,3.938,0,0,1,1.512-1.3l.328.914A4.079,4.079,0,0,0,46,18.4a9.061,9.061,0,0,0-.48,3.094v.182A9.235,9.235,0,0,0,46,24.783a4.158,4.158,0,0,0,1.342,1.986l-.328.9A3.94,3.94,0,0,1,45.525,26.4a6.629,6.629,0,0,1-1.052-2.089,8.939,8.939,0,0,1-.387-2.473Zm6.773,2.221a1.111,1.111,0,0,0,.762-.258.9.9,0,0,0,.3-.686h1.588a2.172,2.172,0,0,1-.352,1.181,2.32,2.32,0,0,1-.946.832,2.962,2.962,0,0,1-1.327.3,2.752,2.752,0,0,1-2.145-.864,3.42,3.42,0,0,1-.785-2.388v-.111a3.381,3.381,0,0,1,.779-2.338,2.72,2.72,0,0,1,2.139-.873,2.667,2.667,0,0,1,1.907.677,2.4,2.4,0,0,1,.729,1.8H51.927a1.164,1.164,0,0,0-.3-.8,1.132,1.132,0,0,0-1.667.122,2.5,2.5,0,0,0-.3,1.4v.176a2.531,2.531,0,0,0,.3,1.408A1.033,1.033,0,0,0,50.86,23.752Zm3.357-1.98a3.76,3.76,0,0,1,.363-1.682,2.659,2.659,0,0,1,1.046-1.143,3.051,3.051,0,0,1,1.585-.4,2.887,2.887,0,0,1,2.095.785,3.151,3.151,0,0,1,.905,2.133l.012.434a3.314,3.314,0,0,1-.814,2.341,3.157,3.157,0,0,1-4.374,0,3.372,3.372,0,0,1-.817-2.391Zm1.693.12a2.37,2.37,0,0,0,.34,1.382,1.221,1.221,0,0,0,1.934.006,2.593,2.593,0,0,0,.346-1.511,2.346,2.346,0,0,0-.346-1.373,1.124,1.124,0,0,0-.973-.487,1.105,1.105,0,0,0-.961.484A2.637,2.637,0,0,0,55.911,21.892ZM63.054,25h-1.7V16h1.7Zm1.131-3.229a3.76,3.76,0,0,1,.363-1.682,2.659,2.659,0,0,1,1.046-1.143,3.051,3.051,0,0,1,1.585-.4,2.887,2.887,0,0,1,2.095.785,3.151,3.151,0,0,1,.905,2.133l.012.434a3.314,3.314,0,0,1-.814,2.341,3.157,3.157,0,0,1-4.374,0,3.372,3.372,0,0,1-.817-2.391Zm1.693.12a2.37,2.37,0,0,0,.34,1.382,1.221,1.221,0,0,0,1.934.006,2.593,2.593,0,0,0,.346-1.511,2.346,2.346,0,0,0-.346-1.373,1.124,1.124,0,0,0-.973-.487,1.105,1.105,0,0,0-.961.484A2.637,2.637,0,0,0,65.878,21.892ZM74.8,20.248a4.6,4.6,0,0,0-.609-.047,1.24,1.24,0,0,0-1.26.65V25H71.233V18.66h1.6l.047.756a1.569,1.569,0,0,1,1.412-.873,1.774,1.774,0,0,1,.527.076Zm3.732,1.418a8.533,8.533,0,0,1-.381,2.549,6.919,6.919,0,0,1-1.1,2.162,3.948,3.948,0,0,1-1.529,1.289l-.328-.9a4.12,4.12,0,0,0,1.313-1.934A8.954,8.954,0,0,0,77,21.83V21.52a9.156,9.156,0,0,0-.478-3.088,4.3,4.3,0,0,0-1.333-2l.328-.9a3.949,3.949,0,0,1,1.5,1.254,6.83,6.83,0,0,1,1.1,2.115,8.472,8.472,0,0,1,.407,2.5Z" transform="translate(914 5425)" fill="#12263f"/>
    <path id="Trazado_732662" data-name="Trazado 732662" d="M19.513,6.928a5.15,5.15,0,0,1-.445,2.209A3.354,3.354,0,0,1,17.793,10.6,3.766,3.766,0,0,1,14,10.607,3.387,3.387,0,0,1,12.71,9.151a5,5,0,0,1-.463-2.177V6.553A5.123,5.123,0,0,1,12.7,4.335a3.381,3.381,0,0,1,1.283-1.471,3.76,3.76,0,0,1,3.791,0,3.381,3.381,0,0,1,1.283,1.471,5.109,5.109,0,0,1,.454,2.212Zm-1.781-.387a3.59,3.59,0,0,0-.48-2.039,1.7,1.7,0,0,0-2.736-.009,3.549,3.549,0,0,0-.486,2.019v.416a3.635,3.635,0,0,0,.48,2.027,1.682,1.682,0,0,0,2.742.026,3.614,3.614,0,0,0,.48-2.024Zm8.66,1.348a3.839,3.839,0,0,1-.65,2.376,2.154,2.154,0,0,1-1.816.853,1.979,1.979,0,0,1-1.646-.791L22.2,11H20.679V2h1.693V5.229a1.929,1.929,0,0,1,1.541-.686,2.172,2.172,0,0,1,1.819.853,3.845,3.845,0,0,1,.659,2.4ZM24.7,7.766a2.522,2.522,0,0,0-.3-1.4,1.03,1.03,0,0,0-.908-.442,1.117,1.117,0,0,0-1.113.662v2.5a1.132,1.132,0,0,0,1.125.668,1.045,1.045,0,0,0,1.078-.809A4.171,4.171,0,0,0,24.7,7.766Zm6.17,1.482a.546.546,0,0,0-.308-.489,3.494,3.494,0,0,0-.987-.319q-2.262-.475-2.262-1.922a1.742,1.742,0,0,1,.7-1.409,2.825,2.825,0,0,1,1.831-.565,3.04,3.04,0,0,1,1.931.568A1.791,1.791,0,0,1,32.5,6.588H30.8a.819.819,0,0,0-.234-.6.992.992,0,0,0-.732-.237,1.013,1.013,0,0,0-.662.193.61.61,0,0,0-.234.492.522.522,0,0,0,.267.454,2.743,2.743,0,0,0,.9.3,7.346,7.346,0,0,1,1.066.284,1.752,1.752,0,0,1,1.342,1.705,1.654,1.654,0,0,1-.744,1.4,3.21,3.21,0,0,1-1.922.536,3.353,3.353,0,0,1-1.415-.284,2.374,2.374,0,0,1-.97-.779,1.811,1.811,0,0,1-.352-1.069h1.605a.884.884,0,0,0,.334.691,1.325,1.325,0,0,0,.832.24,1.226,1.226,0,0,0,.735-.185A.574.574,0,0,0,30.868,9.248Zm5.654,1.869a3.112,3.112,0,0,1-2.271-.855,3.041,3.041,0,0,1-.876-2.279V7.818a3.83,3.83,0,0,1,.369-1.708,2.709,2.709,0,0,1,1.046-1.16,2.936,2.936,0,0,1,1.544-.407,2.631,2.631,0,0,1,2.048.82,3.333,3.333,0,0,1,.747,2.326v.691H35.093a1.573,1.573,0,0,0,.5,1,1.5,1.5,0,0,0,1.046.375,1.828,1.828,0,0,0,1.529-.709L39,9.975a2.542,2.542,0,0,1-1.031.841A3.383,3.383,0,0,1,36.522,11.117Zm-.193-5.209a1.058,1.058,0,0,0-.817.341,1.768,1.768,0,0,0-.4.977h2.355V7.091a1.261,1.261,0,0,0-.3-.874A1.092,1.092,0,0,0,36.329,5.908Zm7.324.34a4.6,4.6,0,0,0-.609-.047,1.24,1.24,0,0,0-1.26.65V11H40.091V4.66h1.6l.047.756a1.569,1.569,0,0,1,1.412-.873,1.774,1.774,0,0,1,.527.076Zm3.293,2.684L48.124,4.66h1.77L47.755,11H46.138L44,4.66h1.77ZM54.224,11a1.88,1.88,0,0,1-.17-.568,2.049,2.049,0,0,1-1.6.686,2.251,2.251,0,0,1-1.544-.539A1.734,1.734,0,0,1,50.3,9.219a1.792,1.792,0,0,1,.747-1.547A3.686,3.686,0,0,1,53.2,7.127h.779V6.764a1.045,1.045,0,0,0-.226-.7.887.887,0,0,0-.712-.264A1.009,1.009,0,0,0,52.375,6a.7.7,0,0,0-.243.563H50.438a1.7,1.7,0,0,1,.34-1.02,2.246,2.246,0,0,1,.961-.735,3.5,3.5,0,0,1,1.395-.267,2.767,2.767,0,0,1,1.86.589,2.06,2.06,0,0,1,.688,1.655V9.535a3.031,3.031,0,0,0,.252,1.365V11Zm-1.4-1.178a1.458,1.458,0,0,0,.691-.167,1.1,1.1,0,0,0,.469-.448V8.117h-.633Q52.079,8.117,52,9l-.006.1a.678.678,0,0,0,.223.521A.865.865,0,0,0,52.823,9.822Zm3.9-2.039a3.821,3.821,0,0,1,.665-2.361A2.158,2.158,0,0,1,59.2,4.543a1.942,1.942,0,0,1,1.529.691V2h1.7v9H60.9l-.082-.674a1.993,1.993,0,0,1-1.629.791,2.152,2.152,0,0,1-1.8-.882A3.944,3.944,0,0,1,56.72,7.783Zm1.693.126a2.5,2.5,0,0,0,.311,1.367,1.012,1.012,0,0,0,.9.475,1.133,1.133,0,0,0,1.107-.663V6.583a1.117,1.117,0,0,0-1.1-.663Q58.413,5.92,58.413,7.909Zm5.068-.138a3.76,3.76,0,0,1,.363-1.682,2.659,2.659,0,0,1,1.046-1.143,3.051,3.051,0,0,1,1.585-.4,2.887,2.887,0,0,1,2.095.785,3.151,3.151,0,0,1,.905,2.133l.012.434a3.314,3.314,0,0,1-.814,2.341,3.157,3.157,0,0,1-4.374,0,3.372,3.372,0,0,1-.817-2.391Zm1.693.12a2.37,2.37,0,0,0,.34,1.382,1.221,1.221,0,0,0,1.934.006,2.593,2.593,0,0,0,.346-1.511A2.346,2.346,0,0,0,67.448,6.4a1.124,1.124,0,0,0-.973-.487,1.105,1.105,0,0,0-.961.484A2.637,2.637,0,0,0,65.175,7.892Zm8.918-1.644a4.6,4.6,0,0,0-.609-.047,1.24,1.24,0,0,0-1.26.65V11H70.53V4.66h1.6l.047.756a1.569,1.569,0,0,1,1.412-.873,1.774,1.774,0,0,1,.527.076Z" transform="translate(992 5500)" fill="#12263f"/>
    <path id="Trazado_732663" data-name="Trazado 732663" d="M23.772,2.469l2.191,6.188,2.18-6.187h2.309V11H28.688V8.668l.176-4.025L26.562,11H25.354l-2.3-6.352.176,4.02V11H21.476V2.469Zm11.9,7.887a2.124,2.124,0,0,1-1.734.762,2,2,0,0,1-1.556-.586,2.5,2.5,0,0,1-.548-1.717V4.66h1.693v4.1q0,.991.9.991a1.223,1.223,0,0,0,1.184-.6V4.66h1.7V11H35.72Zm5.836.762a3.112,3.112,0,0,1-2.271-.855,3.041,3.041,0,0,1-.876-2.279V7.818a3.83,3.83,0,0,1,.369-1.708,2.709,2.709,0,0,1,1.046-1.16,2.936,2.936,0,0,1,1.544-.407,2.631,2.631,0,0,1,2.048.82,3.333,3.333,0,0,1,.747,2.326v.691H40.079a1.573,1.573,0,0,0,.5,1,1.5,1.5,0,0,0,1.046.375,1.828,1.828,0,0,0,1.529-.709l.832.932a2.542,2.542,0,0,1-1.031.841A3.383,3.383,0,0,1,41.509,11.117Zm-.193-5.209a1.058,1.058,0,0,0-.817.341,1.768,1.768,0,0,0-.4.977h2.355V7.091a1.261,1.261,0,0,0-.3-.874A1.092,1.092,0,0,0,41.315,5.908Zm7.2,3.34a.546.546,0,0,0-.308-.489,3.494,3.494,0,0,0-.987-.319q-2.262-.475-2.262-1.922a1.742,1.742,0,0,1,.7-1.409,2.825,2.825,0,0,1,1.831-.565,3.04,3.04,0,0,1,1.931.568,1.791,1.791,0,0,1,.724,1.477H48.446a.819.819,0,0,0-.234-.6.992.992,0,0,0-.732-.237,1.013,1.013,0,0,0-.662.193.61.61,0,0,0-.234.492.522.522,0,0,0,.267.454,2.743,2.743,0,0,0,.9.3,7.346,7.346,0,0,1,1.066.284,1.752,1.752,0,0,1,1.342,1.705,1.654,1.654,0,0,1-.744,1.4,3.21,3.21,0,0,1-1.922.536,3.353,3.353,0,0,1-1.415-.284,2.374,2.374,0,0,1-.97-.779,1.811,1.811,0,0,1-.352-1.069H46.36a.884.884,0,0,0,.334.691,1.325,1.325,0,0,0,.832.24,1.226,1.226,0,0,0,.735-.185A.574.574,0,0,0,48.511,9.248ZM53.274,3.1V4.66h1.084V5.9H53.274V9.066a.756.756,0,0,0,.135.5.677.677,0,0,0,.516.152,2.7,2.7,0,0,0,.5-.041v1.283a3.486,3.486,0,0,1-1.025.152,1.617,1.617,0,0,1-1.816-1.8V5.9h-.926V4.66h.926V3.1Zm5.59,3.146a4.6,4.6,0,0,0-.609-.047,1.24,1.24,0,0,0-1.26.65V11H55.3V4.66h1.6l.047.756a1.569,1.569,0,0,1,1.412-.873,1.774,1.774,0,0,1,.527.076ZM63.177,11a1.88,1.88,0,0,1-.17-.568,2.049,2.049,0,0,1-1.6.686,2.251,2.251,0,0,1-1.544-.539,1.734,1.734,0,0,1-.612-1.359A1.792,1.792,0,0,1,60,7.672a3.686,3.686,0,0,1,2.159-.545h.779V6.764a1.045,1.045,0,0,0-.226-.7A.887.887,0,0,0,62,5.8,1.009,1.009,0,0,0,61.328,6a.7.7,0,0,0-.243.563H59.392a1.7,1.7,0,0,1,.34-1.02,2.246,2.246,0,0,1,.961-.735,3.5,3.5,0,0,1,1.395-.267,2.767,2.767,0,0,1,1.86.589,2.06,2.06,0,0,1,.688,1.655V9.535a3.031,3.031,0,0,0,.252,1.365V11Zm-1.4-1.178a1.458,1.458,0,0,0,.691-.167,1.1,1.1,0,0,0,.469-.448V8.117H62.3q-1.271,0-1.354.879l-.006.1a.678.678,0,0,0,.223.521A.865.865,0,0,0,61.776,9.822Z" transform="translate(848 5486) rotate(-90)" fill="#12263f"/>
    <path id="Trazado_731199" data-name="Trazado 731199" d="M-3810.526-6358.076l-74.768,76.229,87.213,86.594" transform="translate(4756 11723)" fill="none" stroke="#12263f" stroke-width="1"/>
    <path id="Trazado_731200" data-name="Trazado 731200" d="M-3714.1-6244.74c5.385-8.556,11.034-8.33,12.771-26.4s-.215-39.012-23.026-41.016c-29.32-2.576-31.977,18.034-31.4,22.148a9.177,9.177,0,0,0,2.846,5.865l-10.8,18.492h10.8v23.623h17.521v14.266h21.284Z" transform="translate(4756 11723)" fill="#fcdada" stroke="#12263f" stroke-width="1"/>
    <path id="Trazado_731202" data-name="Trazado 731202" d="M5,0c2.761,0,5,2.8,5,2.8S7.761,5.6,5,5.6,0,2.8,0,2.8,2.239,0,5,0Z" transform="translate(1005 5436)" fill="#fff"/>
    <path id="Trazado_732664" data-name="Trazado 732664" d="M2.5,0A2.5,2.5,0,1,1,0,2.5,2.5,2.5,0,0,1,2.5,0Z" transform="translate(1005 5436)" fill="#bad0eb"/>
    <path id="Trazado_732665" data-name="Trazado 732665" d="M1.5,0A1.5,1.5,0,1,1,0,1.5,1.5,1.5,0,0,1,1.5,0Z" transform="translate(1004 5437)"/>
    <path id="Trazado_731203" data-name="Trazado 731203" d="M5,0c2.761,0,5,2.8,5,2.8S7.761,5.6,5,5.6,0,2.8,0,2.8,2.239,0,5,0Z" transform="translate(1005 5436)" fill="#fff"/>
    <path id="Trazado_731204" data-name="Trazado 731204" d="M-3834.925-6231.78c3.247-5.19-8.726-9.713-10.827-20.355s-2.477-11.539,0-17.484,12.292-13.972,2.509-24.451-29-20.319-42.3,1.98S-3838.172-6226.59-3834.925-6231.78Z" transform="translate(4756 11723)" fill="none" stroke="#12263f" stroke-width="1"/>
    <path id="Trazado_731205" data-name="Trazado 731205" d="M14,0-1.069,22.668" transform="translate(870.5 5418.5)" fill="none" stroke="#12263f" stroke-width="1"/>
    <path id="Trazado_731206" data-name="Trazado 731206" d="M29.838,1.347-1.069,22.668" transform="translate(870.5 5418.5)" fill="none" stroke="#12263f" stroke-width="1"/>
    <path id="Trazado_731207" data-name="Trazado 731207" d="M37.38,5.995-1.069,22.668" transform="translate(870.5 5418.5)" fill="none" stroke="#12263f" stroke-width="1"/>
    <path id="Trazado_731208" data-name="Trazado 731208" d="M43.724,12.538-1.069,22.668" transform="translate(870.5 5418.5)" fill="none" stroke="#12263f" stroke-width="1"/>
    <path id="Trazado_731209" data-name="Trazado 731209" d="M46.7,19.954-1.069,22.668" transform="translate(870.5 5418.5)" fill="none" stroke="#12263f" stroke-width="1"/>
    <path id="Trazado_731210" data-name="Trazado 731210" d="M44.472,26.833-1.069,22.668" transform="translate(870.5 5418.5)" fill="none" stroke="#12263f" stroke-width="1"/>
    <path id="Trazado_731211" data-name="Trazado 731211" d="M41.941,32.185l-43.01-9.517" transform="translate(870.5 5418.5)" fill="none" stroke="#12263f" stroke-width="1"/>
    <path id="Trazado_731212" data-name="Trazado 731212" d="M38.693,38.16-1.069,22.668" transform="translate(870.5 5418.5)" fill="none" stroke="#12263f" stroke-width="1"/>
    <path id="Trazado_731213" data-name="Trazado 731213" d="M38.688,47.72-1.069,22.668" transform="translate(870.5 5418.5)" fill="none" stroke="#12263f" stroke-width="1"/>
    <path id="Trazado_731214" data-name="Trazado 731214" d="M42.23,58.266l-43.3-35.6" transform="translate(870.5 5418.5)" fill="none" stroke="#12263f" stroke-width="1"/>
    <path id="Trazado_731215" data-name="Trazado 731215" d="M49.7,67.827-1.069,22.668" transform="translate(870.5 5418.5)" fill="none" stroke="#12263f" stroke-width="1"/>
    <path id="Trazado_731216" data-name="Trazado 731216" d="M45.109,72.471l-46.177-49.8" transform="translate(870.5 5418.5)" fill="none" stroke="#12263f" stroke-width="1"/>
    <path id="Trazado_731217" data-name="Trazado 731217" d="M28.292,60.741-1.069,22.668" transform="translate(870.5 5418.5)" fill="none" stroke="#12263f" stroke-width="1"/>
    <path id="Trazado_731218" data-name="Trazado 731218" d="M17.059,51.624-1.069,22.668" transform="translate(870.5 5418.5)" fill="none" stroke="#12263f" stroke-width="1"/>
    <g id="Trazado_731222" data-name="Trazado 731222" transform="translate(865 5409)" fill="#9f0925">
      <path d="M 5.5 64.5 L 0.5 64.5 L 0.5 0.5 L 5.5 0.5 L 5.5 64.5 Z" stroke="none"/>
      <path d="M 1 1 L 1 64 L 5 64 L 5 1 L 1 1 M 0 0 L 6 0 L 6 65 L 0 65 L 0 0 Z" stroke="none" fill="#12263f"/>
    </g>
    <path id="Trazado_732666" data-name="Trazado 732666" d="M0,0H130" transform="translate(868.5 5439.5)" fill="none" stroke="#12263f" stroke-width="1"/>
    <path id="Trazado_731201" data-name="Trazado 731201" d="M-3784.49-6420.746l16.861-4.858,14.9,15.836-4.481,17.014" transform="translate(4770.898 11731.323)" fill="none" stroke="#12263f" stroke-width="1"/>
    <path id="Trazado_732667" data-name="Trazado 732667" d="M0,0,8.827,2.207" transform="translate(987.137 5316.83)" fill="none" stroke="#12263f" stroke-width="1"/>
    <path id="Trazado_732668" data-name="Trazado 732668" d="M0,3.31,7.356,0" transform="translate(987.872 5323.45)" fill="none" stroke="#12263f" stroke-width="1"/>
    <path id="Trazado_732669" data-name="Trazado 732669" d="M0,5.149,2.942,0" transform="translate(995.964 5328.599)" fill="none" stroke="#12263f" stroke-width="1"/>
    <path id="Trazado_732670" data-name="Trazado 732670" d="M1.471,5.517,0,0" transform="translate(1004.791 5329.334)" fill="none" stroke="#12263f" stroke-width="1"/>
    <g id="Trazado_732671" data-name="Trazado 732671" transform="translate(994.125 5313.52)" fill="#ffd800">
      <path d="M 8.459237098693848 16.41847801208496 C 4.070497035980225 16.41847801208496 0.4999971091747284 12.84797668457031 0.4999971091747284 8.459237098693848 C 0.4999971091747284 4.070497035980225 4.070497035980225 0.4999971091747284 8.459237098693848 0.4999971091747284 C 12.84797668457031 0.4999971091747284 16.41847801208496 4.070497035980225 16.41847801208496 8.459237098693848 C 16.41847801208496 12.84797668457031 12.84797668457031 16.41847801208496 8.459237098693848 16.41847801208496 Z" stroke="none"/>
      <path d="M 8.459237098693848 0.9999971389770508 C 4.346197128295898 0.9999971389770508 0.9999971389770508 4.346197128295898 0.9999971389770508 8.459237098693848 C 0.9999971389770508 12.5722770690918 4.346197128295898 15.91847705841064 8.459237098693848 15.91847705841064 C 12.5722770690918 15.91847705841064 15.91847705841064 12.5722770690918 15.91847705841064 8.459237098693848 C 15.91847705841064 4.346197128295898 12.5722770690918 0.9999971389770508 8.459237098693848 0.9999971389770508 M 8.459237098693848 -3.814697265625e-06 C 13.13114738464355 -3.814697265625e-06 16.91847801208496 3.787326812744141 16.91847801208496 8.459237098693848 C 16.91847801208496 13.13114738464355 13.13114738464355 16.91847801208496 8.459237098693848 16.91847801208496 C 3.787326812744141 16.91847801208496 -3.814697265625e-06 13.13114738464355 -3.814697265625e-06 8.459237098693848 C -3.814697265625e-06 3.787326812744141 3.787326812744141 -3.814697265625e-06 8.459237098693848 -3.814697265625e-06 Z" stroke="none" fill="#12263f"/>
    </g>
    <g id="Trazado_732672" data-name="Trazado 732672" transform="translate(983.827 5313.52)" fill="#fff">
      <path d="M 2.57455039024353 4.649100303649902 C 1.430640339851379 4.649100303649902 0.5000004172325134 3.718460321426392 0.5000004172325134 2.57455039024353 C 0.5000004172325134 1.430640339851379 1.430640339851379 0.5000004172325134 2.57455039024353 0.5000004172325134 C 3.718460321426392 0.5000004172325134 4.649100303649902 1.430640339851379 4.649100303649902 2.57455039024353 C 4.649100303649902 3.718460321426392 3.718460321426392 4.649100303649902 2.57455039024353 4.649100303649902 Z" stroke="none"/>
      <path d="M 2.57455039024353 1.000000476837158 C 1.706340312957764 1.000000476837158 1.000000476837158 1.706340312957764 1.000000476837158 2.57455039024353 C 1.000000476837158 3.442760467529297 1.706340312957764 4.149100303649902 2.57455039024353 4.149100303649902 C 3.442760467529297 4.149100303649902 4.149100303649902 3.442760467529297 4.149100303649902 2.57455039024353 C 4.149100303649902 1.706340312957764 3.442760467529297 1.000000476837158 2.57455039024353 1.000000476837158 M 2.57455039024353 4.76837158203125e-07 C 3.996430397033691 4.76837158203125e-07 5.149100303649902 1.152670383453369 5.149100303649902 2.57455039024353 C 5.149100303649902 3.996430397033691 3.996430397033691 5.149100303649902 2.57455039024353 5.149100303649902 C 1.152670383453369 5.149100303649902 4.76837158203125e-07 3.996430397033691 4.76837158203125e-07 2.57455039024353 C 4.76837158203125e-07 1.152670383453369 1.152670383453369 4.76837158203125e-07 2.57455039024353 4.76837158203125e-07 Z" stroke="none" fill="#12263f"/>
    </g>
    <g id="Trazado_732673" data-name="Trazado 732673" transform="translate(983.827 5325.289)" fill="#fff">
      <path d="M 2.57455039024353 4.649100303649902 C 1.430640339851379 4.649100303649902 0.5000004172325134 3.718460321426392 0.5000004172325134 2.57455039024353 C 0.5000004172325134 1.430640339851379 1.430640339851379 0.5000004172325134 2.57455039024353 0.5000004172325134 C 3.718460321426392 0.5000004172325134 4.649100303649902 1.430640339851379 4.649100303649902 2.57455039024353 C 4.649100303649902 3.718460321426392 3.718460321426392 4.649100303649902 2.57455039024353 4.649100303649902 Z" stroke="none"/>
      <path d="M 2.57455039024353 1.000000476837158 C 1.706340312957764 1.000000476837158 1.000000476837158 1.706340312957764 1.000000476837158 2.57455039024353 C 1.000000476837158 3.442760467529297 1.706340312957764 4.149100303649902 2.57455039024353 4.149100303649902 C 3.442760467529297 4.149100303649902 4.149100303649902 3.442760467529297 4.149100303649902 2.57455039024353 C 4.149100303649902 1.706340312957764 3.442760467529297 1.000000476837158 2.57455039024353 1.000000476837158 M 2.57455039024353 4.76837158203125e-07 C 3.996430397033691 4.76837158203125e-07 5.149100303649902 1.152670383453369 5.149100303649902 2.57455039024353 C 5.149100303649902 3.996430397033691 3.996430397033691 5.149100303649902 2.57455039024353 5.149100303649902 C 1.152670383453369 5.149100303649902 4.76837158203125e-07 3.996430397033691 4.76837158203125e-07 2.57455039024353 C 4.76837158203125e-07 1.152670383453369 1.152670383453369 4.76837158203125e-07 2.57455039024353 4.76837158203125e-07 Z" stroke="none" fill="#12263f"/>
    </g>
    <g id="Trazado_732674" data-name="Trazado 732674" transform="translate(993.389 5333.38)" fill="#fff">
      <path d="M 2.57455039024353 4.649100303649902 C 1.430640339851379 4.649100303649902 0.5000004172325134 3.718460321426392 0.5000004172325134 2.57455039024353 C 0.5000004172325134 1.430640339851379 1.430640339851379 0.5000004172325134 2.57455039024353 0.5000004172325134 C 3.718460321426392 0.5000004172325134 4.649100303649902 1.430640339851379 4.649100303649902 2.57455039024353 C 4.649100303649902 3.718460321426392 3.718460321426392 4.649100303649902 2.57455039024353 4.649100303649902 Z" stroke="none"/>
      <path d="M 2.57455039024353 1.000000476837158 C 1.706340312957764 1.000000476837158 1.000000476837158 1.706340312957764 1.000000476837158 2.57455039024353 C 1.000000476837158 3.442760467529297 1.706340312957764 4.149100303649902 2.57455039024353 4.149100303649902 C 3.442760467529297 4.149100303649902 4.149100303649902 3.442760467529297 4.149100303649902 2.57455039024353 C 4.149100303649902 1.706340312957764 3.442760467529297 1.000000476837158 2.57455039024353 1.000000476837158 M 2.57455039024353 4.76837158203125e-07 C 3.996430397033691 4.76837158203125e-07 5.149100303649902 1.152670383453369 5.149100303649902 2.57455039024353 C 5.149100303649902 3.996430397033691 3.996430397033691 5.149100303649902 2.57455039024353 5.149100303649902 C 1.152670383453369 5.149100303649902 4.76837158203125e-07 3.996430397033691 4.76837158203125e-07 2.57455039024353 C 4.76837158203125e-07 1.152670383453369 1.152670383453369 4.76837158203125e-07 2.57455039024353 4.76837158203125e-07 Z" stroke="none" fill="#12263f"/>
    </g>
    <g id="Trazado_732675" data-name="Trazado 732675" transform="translate(1003.688 5334.852)" fill="#fff">
      <path d="M 2.57455039024353 4.649100303649902 C 1.430640339851379 4.649100303649902 0.5000004172325134 3.718460321426392 0.5000004172325134 2.57455039024353 C 0.5000004172325134 1.430640339851379 1.430640339851379 0.5000004172325134 2.57455039024353 0.5000004172325134 C 3.718460321426392 0.5000004172325134 4.649100303649902 1.430640339851379 4.649100303649902 2.57455039024353 C 4.649100303649902 3.718460321426392 3.718460321426392 4.649100303649902 2.57455039024353 4.649100303649902 Z" stroke="none"/>
      <path d="M 2.57455039024353 1.000000476837158 C 1.706340312957764 1.000000476837158 1.000000476837158 1.706340312957764 1.000000476837158 2.57455039024353 C 1.000000476837158 3.442760467529297 1.706340312957764 4.149100303649902 2.57455039024353 4.149100303649902 C 3.442760467529297 4.149100303649902 4.149100303649902 3.442760467529297 4.149100303649902 2.57455039024353 C 4.149100303649902 1.706340312957764 3.442760467529297 1.000000476837158 2.57455039024353 1.000000476837158 M 2.57455039024353 4.76837158203125e-07 C 3.996430397033691 4.76837158203125e-07 5.149100303649902 1.152670383453369 5.149100303649902 2.57455039024353 C 5.149100303649902 3.996430397033691 3.996430397033691 5.149100303649902 2.57455039024353 5.149100303649902 C 1.152670383453369 5.149100303649902 4.76837158203125e-07 3.996430397033691 4.76837158203125e-07 2.57455039024353 C 4.76837158203125e-07 1.152670383453369 1.152670383453369 4.76837158203125e-07 2.57455039024353 4.76837158203125e-07 Z" stroke="none" fill="#12263f"/>
    </g>
  </g>
</svg>
