<svg xmlns="http://www.w3.org/2000/svg" xmlns:xlink="http://www.w3.org/1999/xlink" width="276" height="218" viewBox="0 0 276 218">
  <defs>
    <clipPath id="clip-path">
      <path id="Trazado_731203" data-name="Trazado 731203" d="M5,0c2.761,0,5,2.8,5,2.8S7.761,5.6,5,5.6,0,2.8,0,2.8,2.239,0,5,0Z" transform="translate(876 5413)" fill="#fff"/>
    </clipPath>
  </defs>
  <g id="_49" data-name="49" transform="translate(3569.313 5802)">
    <path id="Trazado_732676" data-name="Trazado 732676" d="M0,0H276V218H0Z" transform="translate(-3569.313 -5802)" fill="#fff"/>
    <path id="Trazado_732677" data-name="Trazado 732677" d="M7.8,8.933H3.861V13H1.81V3.047h6.48V4.708H3.861v2.57H7.8Zm5.831,3.315a2.477,2.477,0,0,1-2.023.889,2.337,2.337,0,0,1-1.815-.684,2.918,2.918,0,0,1-.639-2V5.6h1.976v4.784q0,1.157,1.053,1.157a1.426,1.426,0,0,0,1.381-.7V5.6h1.982V13H13.684Zm6.809.889a3.631,3.631,0,0,1-2.649-1,3.548,3.548,0,0,1-1.022-2.659V9.288A4.468,4.468,0,0,1,17.2,7.3a3.161,3.161,0,0,1,1.22-1.354,3.425,3.425,0,0,1,1.8-.475,3.07,3.07,0,0,1,2.389.957,3.889,3.889,0,0,1,.872,2.714v.807H18.77a1.835,1.835,0,0,0,.578,1.162,1.746,1.746,0,0,0,1.22.438,2.132,2.132,0,0,0,1.784-.827l.971,1.087a2.966,2.966,0,0,1-1.2.981A3.947,3.947,0,0,1,20.438,13.137ZM20.212,7.06a1.234,1.234,0,0,0-.954.4,2.062,2.062,0,0,0-.468,1.14h2.748V8.44a1.471,1.471,0,0,0-.355-1.02A1.274,1.274,0,0,0,20.212,7.06ZM26.419,5.6l.062.854a2.582,2.582,0,0,1,2.126-.991,2.146,2.146,0,0,1,1.75.69,3.221,3.221,0,0,1,.588,2.064V13H28.969V8.27a1.282,1.282,0,0,0-.273-.913,1.224,1.224,0,0,0-.909-.284,1.359,1.359,0,0,0-1.251.711V13H24.56V5.6Zm8.388-1.818V5.6h1.265V7.053H34.807v3.691a.881.881,0,0,0,.157.588.79.79,0,0,0,.6.178,3.15,3.15,0,0,0,.581-.048v1.5a4.067,4.067,0,0,1-1.2.178,1.886,1.886,0,0,1-2.119-2.1V7.053h-1.08V5.6h1.08V3.785Zm5.77,9.352a3.631,3.631,0,0,1-2.649-1,3.548,3.548,0,0,1-1.022-2.659V9.288A4.468,4.468,0,0,1,37.336,7.3a3.161,3.161,0,0,1,1.22-1.354,3.425,3.425,0,0,1,1.8-.475,3.07,3.07,0,0,1,2.389.957,3.889,3.889,0,0,1,.872,2.714v.807h-4.71a1.835,1.835,0,0,0,.578,1.162,1.746,1.746,0,0,0,1.22.438,2.132,2.132,0,0,0,1.784-.827l.971,1.087a2.966,2.966,0,0,1-1.2.981A3.947,3.947,0,0,1,40.577,13.137ZM40.351,7.06a1.234,1.234,0,0,0-.954.4,2.062,2.062,0,0,0-.468,1.14h2.748V8.44a1.471,1.471,0,0,0-.355-1.02A1.274,1.274,0,0,0,40.351,7.06Zm7.567,2.188a4.457,4.457,0,0,1,.776-2.755,2.517,2.517,0,0,1,2.123-1.025,2.265,2.265,0,0,1,1.784.807V2.5h1.982V13H52.8l-.1-.786a2.325,2.325,0,0,1-1.9.923,2.511,2.511,0,0,1-2.1-1.029A4.6,4.6,0,0,1,47.918,9.247Zm1.976.147a2.92,2.92,0,0,0,.362,1.6,1.18,1.18,0,0,0,1.053.555A1.322,1.322,0,0,0,52.6,10.77V7.847a1.3,1.3,0,0,0-1.278-.774Q49.894,7.073,49.894,9.394Zm9.625,3.743a3.631,3.631,0,0,1-2.649-1,3.548,3.548,0,0,1-1.022-2.659V9.288A4.468,4.468,0,0,1,56.279,7.3,3.161,3.161,0,0,1,57.5,5.942a3.425,3.425,0,0,1,1.8-.475,3.07,3.07,0,0,1,2.389.957,3.889,3.889,0,0,1,.872,2.714v.807h-4.71a1.835,1.835,0,0,0,.578,1.162,1.746,1.746,0,0,0,1.22.438,2.132,2.132,0,0,0,1.784-.827L62.4,11.8a2.966,2.966,0,0,1-1.2.981A3.947,3.947,0,0,1,59.519,13.137ZM59.293,7.06a1.234,1.234,0,0,0-.954.4,2.062,2.062,0,0,0-.468,1.14H60.62V8.44a1.471,1.471,0,0,0-.355-1.02A1.274,1.274,0,0,0,59.293,7.06ZM69.253,13H67.271V2.5h1.982Zm6.057-.752a2.477,2.477,0,0,1-2.023.889,2.337,2.337,0,0,1-1.815-.684,2.918,2.918,0,0,1-.639-2V5.6h1.976v4.784q0,1.157,1.053,1.157a1.426,1.426,0,0,0,1.381-.7V5.6h1.982V13H75.365Zm5.674-.841H84.6V13H78.461V11.8l3.479-4.6H78.564V5.6h5.927V6.767Z" transform="translate(-3555.77 -5743.543)" fill="#12263f"/>
    <path id="Trazado_732678" data-name="Trazado 732678" d="M6.563,7.789h.967V9.154H6.563V11H4.869V9.154h-3.5L1.3,8.088,4.852,2.469H6.563Zm-3.58,0H4.869V4.777l-.111.193ZM8.69,6.8l.492-4.336h4.781V3.881H10.57L10.36,5.715a2.685,2.685,0,0,1,1.283-.322,2.459,2.459,0,0,1,1.91.756,3.019,3.019,0,0,1,.691,2.115A3.093,3.093,0,0,1,13.9,9.743a2.461,2.461,0,0,1-1,1.014,3.119,3.119,0,0,1-1.535.36A3.312,3.312,0,0,1,9.926,10.8,2.546,2.546,0,0,1,8.88,9.922a2.4,2.4,0,0,1-.407-1.295h1.676a1.252,1.252,0,0,0,.372.829,1.18,1.18,0,0,0,.835.3,1.041,1.041,0,0,0,.885-.413,1.914,1.914,0,0,0,.311-1.169,1.582,1.582,0,0,0-.357-1.113A1.312,1.312,0,0,0,11.18,6.67a1.466,1.466,0,0,0-.979.316l-.164.152Zm6.791-2.836a1.558,1.558,0,0,1,.475-1.143,1.531,1.531,0,0,1,1.119-.475,1.5,1.5,0,0,1,1.1.472,1.57,1.57,0,0,1,.466,1.146A1.531,1.531,0,0,1,18.179,5.1a1.519,1.519,0,0,1-1.1.46,1.561,1.561,0,0,1-1.113-.46A1.508,1.508,0,0,1,15.481,3.969Zm1.594.727a.684.684,0,0,0,.513-.208.715.715,0,0,0,.2-.519.758.758,0,0,0-.2-.527.662.662,0,0,0-.513-.223.69.69,0,0,0-.521.223.741.741,0,0,0-.211.527.7.7,0,0,0,.214.516A.711.711,0,0,0,17.074,4.7Z" transform="translate(-3444.415 -5617.457)" fill="#12263f"/>
    <path id="Trazado_732679" data-name="Trazado 732679" d="M19.513,6.928a5.15,5.15,0,0,1-.445,2.209A3.354,3.354,0,0,1,17.793,10.6,3.766,3.766,0,0,1,14,10.607,3.387,3.387,0,0,1,12.71,9.151a5,5,0,0,1-.463-2.177V6.553A5.123,5.123,0,0,1,12.7,4.335a3.381,3.381,0,0,1,1.283-1.471,3.76,3.76,0,0,1,3.791,0,3.381,3.381,0,0,1,1.283,1.471,5.109,5.109,0,0,1,.454,2.212Zm-1.781-.387a3.59,3.59,0,0,0-.48-2.039,1.7,1.7,0,0,0-2.736-.009,3.549,3.549,0,0,0-.486,2.019v.416a3.635,3.635,0,0,0,.48,2.027,1.682,1.682,0,0,0,2.742.026,3.614,3.614,0,0,0,.48-2.024Zm8.66,1.348a3.839,3.839,0,0,1-.65,2.376,2.154,2.154,0,0,1-1.816.853,1.979,1.979,0,0,1-1.646-.791L22.2,11H20.679V2h1.693V5.229a1.929,1.929,0,0,1,1.541-.686,2.172,2.172,0,0,1,1.819.853,3.845,3.845,0,0,1,.659,2.4ZM24.7,7.766a2.522,2.522,0,0,0-.3-1.4,1.03,1.03,0,0,0-.908-.442,1.117,1.117,0,0,0-1.113.662v2.5a1.132,1.132,0,0,0,1.125.668,1.045,1.045,0,0,0,1.078-.809A4.171,4.171,0,0,0,24.7,7.766Zm6.17,1.482a.546.546,0,0,0-.308-.489,3.494,3.494,0,0,0-.987-.319q-2.262-.475-2.262-1.922a1.742,1.742,0,0,1,.7-1.409,2.825,2.825,0,0,1,1.831-.565,3.04,3.04,0,0,1,1.931.568A1.791,1.791,0,0,1,32.5,6.588H30.8a.819.819,0,0,0-.234-.6.992.992,0,0,0-.732-.237,1.013,1.013,0,0,0-.662.193.61.61,0,0,0-.234.492.522.522,0,0,0,.267.454,2.743,2.743,0,0,0,.9.3,7.346,7.346,0,0,1,1.066.284,1.752,1.752,0,0,1,1.342,1.705,1.654,1.654,0,0,1-.744,1.4,3.21,3.21,0,0,1-1.922.536,3.353,3.353,0,0,1-1.415-.284,2.374,2.374,0,0,1-.97-.779,1.811,1.811,0,0,1-.352-1.069h1.605a.884.884,0,0,0,.334.691,1.325,1.325,0,0,0,.832.24,1.226,1.226,0,0,0,.735-.185A.574.574,0,0,0,30.868,9.248Zm5.654,1.869a3.112,3.112,0,0,1-2.271-.855,3.041,3.041,0,0,1-.876-2.279V7.818a3.83,3.83,0,0,1,.369-1.708,2.709,2.709,0,0,1,1.046-1.16,2.936,2.936,0,0,1,1.544-.407,2.631,2.631,0,0,1,2.048.82,3.333,3.333,0,0,1,.747,2.326v.691H35.093a1.573,1.573,0,0,0,.5,1,1.5,1.5,0,0,0,1.046.375,1.828,1.828,0,0,0,1.529-.709L39,9.975a2.542,2.542,0,0,1-1.031.841A3.383,3.383,0,0,1,36.522,11.117Zm-.193-5.209a1.058,1.058,0,0,0-.817.341,1.768,1.768,0,0,0-.4.977h2.355V7.091a1.261,1.261,0,0,0-.3-.874A1.092,1.092,0,0,0,36.329,5.908Zm7.324.34a4.6,4.6,0,0,0-.609-.047,1.24,1.24,0,0,0-1.26.65V11H40.091V4.66h1.6l.047.756a1.569,1.569,0,0,1,1.412-.873,1.774,1.774,0,0,1,.527.076Zm3.293,2.684L48.124,4.66h1.77L47.755,11H46.138L44,4.66h1.77ZM54.224,11a1.88,1.88,0,0,1-.17-.568,2.049,2.049,0,0,1-1.6.686,2.251,2.251,0,0,1-1.544-.539A1.734,1.734,0,0,1,50.3,9.219a1.792,1.792,0,0,1,.747-1.547A3.686,3.686,0,0,1,53.2,7.127h.779V6.764a1.045,1.045,0,0,0-.226-.7.887.887,0,0,0-.712-.264A1.009,1.009,0,0,0,52.375,6a.7.7,0,0,0-.243.563H50.438a1.7,1.7,0,0,1,.34-1.02,2.246,2.246,0,0,1,.961-.735,3.5,3.5,0,0,1,1.395-.267,2.767,2.767,0,0,1,1.86.589,2.06,2.06,0,0,1,.688,1.655V9.535a3.031,3.031,0,0,0,.252,1.365V11Zm-1.4-1.178a1.458,1.458,0,0,0,.691-.167,1.1,1.1,0,0,0,.469-.448V8.117h-.633Q52.079,8.117,52,9l-.006.1a.678.678,0,0,0,.223.521A.865.865,0,0,0,52.823,9.822Zm3.9-2.039a3.821,3.821,0,0,1,.665-2.361A2.158,2.158,0,0,1,59.2,4.543a1.942,1.942,0,0,1,1.529.691V2h1.7v9H60.9l-.082-.674a1.993,1.993,0,0,1-1.629.791,2.152,2.152,0,0,1-1.8-.882A3.944,3.944,0,0,1,56.72,7.783Zm1.693.126a2.5,2.5,0,0,0,.311,1.367,1.012,1.012,0,0,0,.9.475,1.133,1.133,0,0,0,1.107-.663V6.583a1.117,1.117,0,0,0-1.1-.663Q58.413,5.92,58.413,7.909Zm5.068-.138a3.76,3.76,0,0,1,.363-1.682,2.659,2.659,0,0,1,1.046-1.143,3.051,3.051,0,0,1,1.585-.4,2.887,2.887,0,0,1,2.095.785,3.151,3.151,0,0,1,.905,2.133l.012.434a3.314,3.314,0,0,1-.814,2.341,3.157,3.157,0,0,1-4.374,0,3.372,3.372,0,0,1-.817-2.391Zm1.693.12a2.37,2.37,0,0,0,.34,1.382,1.221,1.221,0,0,0,1.934.006,2.593,2.593,0,0,0,.346-1.511A2.346,2.346,0,0,0,67.448,6.4a1.124,1.124,0,0,0-.973-.487,1.105,1.105,0,0,0-.961.484A2.637,2.637,0,0,0,65.175,7.892Zm8.918-1.644a4.6,4.6,0,0,0-.609-.047,1.24,1.24,0,0,0-1.26.65V11H70.53V4.66h1.6l.047.756a1.569,1.569,0,0,1,1.412-.873,1.774,1.774,0,0,1,.527.076Z" transform="translate(-3361.427 -5666.688) rotate(-45)" fill="#12263f"/>
    <path id="Trazado_732680" data-name="Trazado 732680" d="M23.772,2.469l2.191,6.188,2.18-6.187h2.309V11H28.688V8.668l.176-4.025L26.562,11H25.354l-2.3-6.352.176,4.02V11H21.476V2.469Zm11.9,7.887a2.124,2.124,0,0,1-1.734.762,2,2,0,0,1-1.556-.586,2.5,2.5,0,0,1-.548-1.717V4.66h1.693v4.1q0,.991.9.991a1.223,1.223,0,0,0,1.184-.6V4.66h1.7V11H35.72Zm5.836.762a3.112,3.112,0,0,1-2.271-.855,3.041,3.041,0,0,1-.876-2.279V7.818a3.83,3.83,0,0,1,.369-1.708,2.709,2.709,0,0,1,1.046-1.16,2.936,2.936,0,0,1,1.544-.407,2.631,2.631,0,0,1,2.048.82,3.333,3.333,0,0,1,.747,2.326v.691H40.079a1.573,1.573,0,0,0,.5,1,1.5,1.5,0,0,0,1.046.375,1.828,1.828,0,0,0,1.529-.709l.832.932a2.542,2.542,0,0,1-1.031.841A3.383,3.383,0,0,1,41.509,11.117Zm-.193-5.209a1.058,1.058,0,0,0-.817.341,1.768,1.768,0,0,0-.4.977h2.355V7.091a1.261,1.261,0,0,0-.3-.874A1.092,1.092,0,0,0,41.315,5.908Zm7.2,3.34a.546.546,0,0,0-.308-.489,3.494,3.494,0,0,0-.987-.319q-2.262-.475-2.262-1.922a1.742,1.742,0,0,1,.7-1.409,2.825,2.825,0,0,1,1.831-.565,3.04,3.04,0,0,1,1.931.568,1.791,1.791,0,0,1,.724,1.477H48.446a.819.819,0,0,0-.234-.6.992.992,0,0,0-.732-.237,1.013,1.013,0,0,0-.662.193.61.61,0,0,0-.234.492.522.522,0,0,0,.267.454,2.743,2.743,0,0,0,.9.3,7.346,7.346,0,0,1,1.066.284,1.752,1.752,0,0,1,1.342,1.705,1.654,1.654,0,0,1-.744,1.4,3.21,3.21,0,0,1-1.922.536,3.353,3.353,0,0,1-1.415-.284,2.374,2.374,0,0,1-.97-.779,1.811,1.811,0,0,1-.352-1.069H46.36a.884.884,0,0,0,.334.691,1.325,1.325,0,0,0,.832.24,1.226,1.226,0,0,0,.735-.185A.574.574,0,0,0,48.511,9.248ZM53.274,3.1V4.66h1.084V5.9H53.274V9.066a.756.756,0,0,0,.135.5.677.677,0,0,0,.516.152,2.7,2.7,0,0,0,.5-.041v1.283a3.486,3.486,0,0,1-1.025.152,1.617,1.617,0,0,1-1.816-1.8V5.9h-.926V4.66h.926V3.1Zm5.59,3.146a4.6,4.6,0,0,0-.609-.047,1.24,1.24,0,0,0-1.26.65V11H55.3V4.66h1.6l.047.756a1.569,1.569,0,0,1,1.412-.873,1.774,1.774,0,0,1,.527.076ZM63.177,11a1.88,1.88,0,0,1-.17-.568,2.049,2.049,0,0,1-1.6.686,2.251,2.251,0,0,1-1.544-.539,1.734,1.734,0,0,1-.612-1.359A1.792,1.792,0,0,1,60,7.672a3.686,3.686,0,0,1,2.159-.545h.779V6.764a1.045,1.045,0,0,0-.226-.7A.887.887,0,0,0,62,5.8,1.009,1.009,0,0,0,61.328,6a.7.7,0,0,0-.243.563H59.392a1.7,1.7,0,0,1,.34-1.02,2.246,2.246,0,0,1,.961-.735,3.5,3.5,0,0,1,1.395-.267,2.767,2.767,0,0,1,1.86.589,2.06,2.06,0,0,1,.688,1.655V9.535a3.031,3.031,0,0,0,.252,1.365V11Zm-1.4-1.178a1.458,1.458,0,0,0,.691-.167,1.1,1.1,0,0,0,.469-.448V8.117H62.3q-1.271,0-1.354.879l-.006.1a.678.678,0,0,0,.223.521A.865.865,0,0,0,61.776,9.822Z" transform="matrix(-0.719, -0.695, 0.695, -0.719, -3441.497, -5613.28)" fill="#12263f"/>
    <path id="Trazado_731200" data-name="Trazado 731200" d="M-3714.1-6244.74c5.385-8.556,11.034-8.33,12.771-26.4s-.215-39.012-23.026-41.016c-29.32-2.576-31.977,18.034-31.4,22.148a9.177,9.177,0,0,0,2.846,5.865l-10.8,18.492h10.8v23.623h17.521v14.266h21.284Z" transform="translate(3700.449 -3927.914) rotate(-45)" fill="#fcdada" stroke="#12263f" stroke-width="1"/>
    <path id="Trazado_731202" data-name="Trazado 731202" d="M5,0c2.761,0,5,2.8,5,2.8S7.761,5.6,5,5.6,0,2.8,0,2.8,2.239,0,5,0Z" transform="translate(-3397.49 -5721.136) rotate(-45)" fill="#fff"/>
    <g id="Enmascarar_grupo_550" data-name="Enmascarar grupo 550" transform="translate(-7844.483 -8929.279) rotate(-45)" clip-path="url(#clip-path)">
      <circle id="Elipse_5995" data-name="Elipse 5995" cx="2.5" cy="2.5" r="2.5" transform="translate(876 5413)" fill="#bad0eb"/>
      <circle id="Elipse_5996" data-name="Elipse 5996" cx="1.5" cy="1.5" r="1.5" transform="translate(875 5414)"/>
    </g>
    <g id="Trazado_732681" data-name="Trazado 732681" transform="translate(-3482.415 -5677.649) rotate(-45)" fill="#9f0925">
      <path d="M 5.5 64.5 L 0.5 64.5 L 0.5 0.5 L 5.5 0.5 L 5.5 64.5 Z" stroke="none"/>
      <path d="M 1 1 L 1 64 L 5 64 L 5 1 L 1 1 M 0 0 L 6 0 L 6 65 L 0 65 L 0 0 Z" stroke="none" fill="#12263f"/>
    </g>
    <path id="Trazado_732682" data-name="Trazado 732682" d="M0,0,8.827,2.207" transform="translate(-3472.879 -5771.187) rotate(-45)" fill="none" stroke="#12263f" stroke-width="1"/>
    <path id="Trazado_732683" data-name="Trazado 732683" d="M0,3.31,7.356,0" transform="translate(-3467.678 -5767.026) rotate(-45)" fill="none" stroke="#12263f" stroke-width="1"/>
    <path id="Trazado_732684" data-name="Trazado 732684" d="M0,5.149,2.942,0" transform="translate(-3458.315 -5769.106) rotate(-45)" fill="none" stroke="#12263f" stroke-width="1"/>
    <path id="Trazado_732685" data-name="Trazado 732685" d="M1.471,5.517,0,0" transform="translate(-3451.553 -5774.828) rotate(-45)" fill="none" stroke="#12263f" stroke-width="1"/>
    <g id="Trazado_732686" data-name="Trazado 732686" transform="translate(-3470.278 -5778.469) rotate(-45)" fill="#ffd800">
      <path d="M 8.459237098693848 16.41847801208496 C 4.070497035980225 16.41847801208496 0.4999971091747284 12.84797668457031 0.4999971091747284 8.459237098693848 C 0.4999971091747284 4.070497035980225 4.070497035980225 0.4999971091747284 8.459237098693848 0.4999971091747284 C 12.84797668457031 0.4999971091747284 16.41847801208496 4.070497035980225 16.41847801208496 8.459237098693848 C 16.41847801208496 12.84797668457031 12.84797668457031 16.41847801208496 8.459237098693848 16.41847801208496 Z" stroke="none"/>
      <path d="M 8.459237098693848 0.9999971389770508 C 4.346197128295898 0.9999971389770508 0.9999971389770508 4.346197128295898 0.9999971389770508 8.459237098693848 C 0.9999971389770508 12.5722770690918 4.346197128295898 15.91847705841064 8.459237098693848 15.91847705841064 C 12.5722770690918 15.91847705841064 15.91847705841064 12.5722770690918 15.91847705841064 8.459237098693848 C 15.91847705841064 4.346197128295898 12.5722770690918 0.9999971389770508 8.459237098693848 0.9999971389770508 M 8.459237098693848 -3.814697265625e-06 C 13.13114738464355 -3.814697265625e-06 16.91847801208496 3.787326812744141 16.91847801208496 8.459237098693848 C 16.91847801208496 13.13114738464355 13.13114738464355 16.91847801208496 8.459237098693848 16.91847801208496 C 3.787326812744141 16.91847801208496 -3.814697265625e-06 13.13114738464355 -3.814697265625e-06 8.459237098693848 C -3.814697265625e-06 3.787326812744141 3.787326812744141 -3.814697265625e-06 8.459237098693848 -3.814697265625e-06 Z" stroke="none" fill="#12263f"/>
    </g>
    <g id="Trazado_732687" data-name="Trazado 732687" transform="translate(-3477.56 -5771.187) rotate(-45)" fill="#fff">
      <path d="M 2.57455039024353 4.649100303649902 C 1.430640339851379 4.649100303649902 0.5000004172325134 3.718460321426392 0.5000004172325134 2.57455039024353 C 0.5000004172325134 1.430640339851379 1.430640339851379 0.5000004172325134 2.57455039024353 0.5000004172325134 C 3.718460321426392 0.5000004172325134 4.649100303649902 1.430640339851379 4.649100303649902 2.57455039024353 C 4.649100303649902 3.718460321426392 3.718460321426392 4.649100303649902 2.57455039024353 4.649100303649902 Z" stroke="none"/>
      <path d="M 2.57455039024353 1.000000476837158 C 1.706340312957764 1.000000476837158 1.000000476837158 1.706340312957764 1.000000476837158 2.57455039024353 C 1.000000476837158 3.442760467529297 1.706340312957764 4.149100303649902 2.57455039024353 4.149100303649902 C 3.442760467529297 4.149100303649902 4.149100303649902 3.442760467529297 4.149100303649902 2.57455039024353 C 4.149100303649902 1.706340312957764 3.442760467529297 1.000000476837158 2.57455039024353 1.000000476837158 M 2.57455039024353 4.76837158203125e-07 C 3.996430397033691 4.76837158203125e-07 5.149100303649902 1.152670383453369 5.149100303649902 2.57455039024353 C 5.149100303649902 3.996430397033691 3.996430397033691 5.149100303649902 2.57455039024353 5.149100303649902 C 1.152670383453369 5.149100303649902 4.76837158203125e-07 3.996430397033691 4.76837158203125e-07 2.57455039024353 C 4.76837158203125e-07 1.152670383453369 1.152670383453369 4.76837158203125e-07 2.57455039024353 4.76837158203125e-07 Z" stroke="none" fill="#12263f"/>
    </g>
    <g id="Trazado_732688" data-name="Trazado 732688" transform="translate(-3469.238 -5762.865) rotate(-45)" fill="#fff">
      <path d="M 2.57455039024353 4.649100303649902 C 1.430640339851379 4.649100303649902 0.5000004172325134 3.718460321426392 0.5000004172325134 2.57455039024353 C 0.5000004172325134 1.430640339851379 1.430640339851379 0.5000004172325134 2.57455039024353 0.5000004172325134 C 3.718460321426392 0.5000004172325134 4.649100303649902 1.430640339851379 4.649100303649902 2.57455039024353 C 4.649100303649902 3.718460321426392 3.718460321426392 4.649100303649902 2.57455039024353 4.649100303649902 Z" stroke="none"/>
      <path d="M 2.57455039024353 1.000000476837158 C 1.706340312957764 1.000000476837158 1.000000476837158 1.706340312957764 1.000000476837158 2.57455039024353 C 1.000000476837158 3.442760467529297 1.706340312957764 4.149100303649902 2.57455039024353 4.149100303649902 C 3.442760467529297 4.149100303649902 4.149100303649902 3.442760467529297 4.149100303649902 2.57455039024353 C 4.149100303649902 1.706340312957764 3.442760467529297 1.000000476837158 2.57455039024353 1.000000476837158 M 2.57455039024353 4.76837158203125e-07 C 3.996430397033691 4.76837158203125e-07 5.149100303649902 1.152670383453369 5.149100303649902 2.57455039024353 C 5.149100303649902 3.996430397033691 3.996430397033691 5.149100303649902 2.57455039024353 5.149100303649902 C 1.152670383453369 5.149100303649902 4.76837158203125e-07 3.996430397033691 4.76837158203125e-07 2.57455039024353 C 4.76837158203125e-07 1.152670383453369 1.152670383453369 4.76837158203125e-07 2.57455039024353 4.76837158203125e-07 Z" stroke="none" fill="#12263f"/>
    </g>
    <g id="Trazado_732689" data-name="Trazado 732689" transform="translate(-3456.754 -5763.905) rotate(-45)" fill="#fff">
      <path d="M 2.57455039024353 4.649100303649902 C 1.430640339851379 4.649100303649902 0.5000004172325134 3.718460321426392 0.5000004172325134 2.57455039024353 C 0.5000004172325134 1.430640339851379 1.430640339851379 0.5000004172325134 2.57455039024353 0.5000004172325134 C 3.718460321426392 0.5000004172325134 4.649100303649902 1.430640339851379 4.649100303649902 2.57455039024353 C 4.649100303649902 3.718460321426392 3.718460321426392 4.649100303649902 2.57455039024353 4.649100303649902 Z" stroke="none"/>
      <path d="M 2.57455039024353 1.000000476837158 C 1.706340312957764 1.000000476837158 1.000000476837158 1.706340312957764 1.000000476837158 2.57455039024353 C 1.000000476837158 3.442760467529297 1.706340312957764 4.149100303649902 2.57455039024353 4.149100303649902 C 3.442760467529297 4.149100303649902 4.149100303649902 3.442760467529297 4.149100303649902 2.57455039024353 C 4.149100303649902 1.706340312957764 3.442760467529297 1.000000476837158 2.57455039024353 1.000000476837158 M 2.57455039024353 4.76837158203125e-07 C 3.996430397033691 4.76837158203125e-07 5.149100303649902 1.152670383453369 5.149100303649902 2.57455039024353 C 5.149100303649902 3.996430397033691 3.996430397033691 5.149100303649902 2.57455039024353 5.149100303649902 C 1.152670383453369 5.149100303649902 4.76837158203125e-07 3.996430397033691 4.76837158203125e-07 2.57455039024353 C 4.76837158203125e-07 1.152670383453369 1.152670383453369 4.76837158203125e-07 2.57455039024353 4.76837158203125e-07 Z" stroke="none" fill="#12263f"/>
    </g>
    <g id="Trazado_732690" data-name="Trazado 732690" transform="translate(-3448.432 -5770.146) rotate(-45)" fill="#fff">
      <path d="M 2.57455039024353 4.649100303649902 C 1.430640339851379 4.649100303649902 0.5000004172325134 3.718460321426392 0.5000004172325134 2.57455039024353 C 0.5000004172325134 1.430640339851379 1.430640339851379 0.5000004172325134 2.57455039024353 0.5000004172325134 C 3.718460321426392 0.5000004172325134 4.649100303649902 1.430640339851379 4.649100303649902 2.57455039024353 C 4.649100303649902 3.718460321426392 3.718460321426392 4.649100303649902 2.57455039024353 4.649100303649902 Z" stroke="none"/>
      <path d="M 2.57455039024353 1.000000476837158 C 1.706340312957764 1.000000476837158 1.000000476837158 1.706340312957764 1.000000476837158 2.57455039024353 C 1.000000476837158 3.442760467529297 1.706340312957764 4.149100303649902 2.57455039024353 4.149100303649902 C 3.442760467529297 4.149100303649902 4.149100303649902 3.442760467529297 4.149100303649902 2.57455039024353 C 4.149100303649902 1.706340312957764 3.442760467529297 1.000000476837158 2.57455039024353 1.000000476837158 M 2.57455039024353 4.76837158203125e-07 C 3.996430397033691 4.76837158203125e-07 5.149100303649902 1.152670383453369 5.149100303649902 2.57455039024353 C 5.149100303649902 3.996430397033691 3.996430397033691 5.149100303649902 2.57455039024353 5.149100303649902 C 1.152670383453369 5.149100303649902 4.76837158203125e-07 3.996430397033691 4.76837158203125e-07 2.57455039024353 C 4.76837158203125e-07 1.152670383453369 1.152670383453369 4.76837158203125e-07 2.57455039024353 4.76837158203125e-07 Z" stroke="none" fill="#12263f"/>
    </g>
    <path id="Trazado_732691" data-name="Trazado 732691" d="M0,0,106,103.289" transform="translate(-3509.813 -5703.789)" fill="none" stroke="#12263f" stroke-width="1"/>
    <path id="Trazado_731219" data-name="Trazado 731219" d="M-3636.741-5533.919s-6.652-5.06,1.5-11.911" transform="translate(218.688 -67)" fill="none" stroke="#12263f" stroke-width="1"/>
    <path id="Trazado_732692" data-name="Trazado 732692" d="M0,60,62,0" transform="translate(-3458.813 -5714.5)" fill="none" stroke="#12263f" stroke-width="1"/>
    <path id="Trazado_732693" data-name="Trazado 732693" d="M0,111V0" transform="translate(-3458.813 -5765.5)" fill="none" stroke="#12263f" stroke-width="1"/>
    <path id="Trazado_731220" data-name="Trazado 731220" d="M-3731.458-5647.789V-5545.4h105.213" transform="translate(221.645 -56)" fill="none" stroke="#12263f" stroke-width="1"/>
  </g>
</svg>
