<svg xmlns="http://www.w3.org/2000/svg" xmlns:xlink="http://www.w3.org/1999/xlink" width="285" height="412.279" viewBox="0 0 285 412.279">
  <defs>
    <clipPath id="clip-path">
      <path id="Trazado_113926" data-name="Trazado 113926" d="M65.551,0A65.55,65.55,0,1,1,0,65.551,65.55,65.55,0,0,1,65.551,0Z" transform="translate(0 -0.001)" fill="#1448d3"/>
    </clipPath>
    <clipPath id="clip-path-2">
      <rect id="Rectángulo_344814" data-name="Rectángulo 344814" width="280.895" height="408.133" fill="none"/>
    </clipPath>
    <linearGradient id="linear-gradient" x1="0.5" x2="0.5" y2="1" gradientUnits="objectBoundingBox">
      <stop offset="0" stop-color="#ea526f"/>
      <stop offset="0.446" stop-color="#864d9e"/>
      <stop offset="1" stop-color="#1448d3"/>
    </linearGradient>
    <clipPath id="clip-path-4">
      <rect id="Rectángulo_344811" data-name="Rectángulo 344811" width="9.196" height="7.873" transform="translate(184.936 77.123)" fill="none"/>
    </clipPath>
  </defs>
  <g id="_8" data-name="8" transform="translate(-190 -4111.721)">
    <g id="Grupo_986776" data-name="Grupo 986776" transform="translate(0 2783)">
      <g id="Grupo_985081" data-name="Grupo 985081" transform="translate(190 1328.721)">
        <path id="Rectángulo_33771" data-name="Rectángulo 33771" d="M128.633,0h0A128.633,128.633,0,0,1,257.265,128.633V362.169a0,0,0,0,1,0,0H0a0,0,0,0,1,0,0V128.633A128.633,128.633,0,0,1,128.633,0Z" transform="translate(0 50.111)" fill="#0ce6ea"/>
        <g id="Grupo_80252" data-name="Grupo 80252" transform="translate(144.078 0)">
          <g id="Grupo_80252-2" data-name="Grupo 80252" clip-path="url(#clip-path)">
            <path id="Trazado_113845" data-name="Trazado 113845" d="M0,1.725A1.725,1.725,0,1,1,1.725,3.449,1.725,1.725,0,0,1,0,1.725" transform="translate(127.65 -0.002)" fill="#1448d3"/>
            <path id="Trazado_113846" data-name="Trazado 113846" d="M10.076,1.725A1.725,1.725,0,1,1,11.8,3.449a1.725,1.725,0,0,1-1.725-1.725" transform="translate(101.617 -0.002)" fill="#1448d3"/>
            <path id="Trazado_113847" data-name="Trazado 113847" d="M20.151,1.725a1.725,1.725,0,1,1,1.725,1.725,1.725,1.725,0,0,1-1.725-1.725" transform="translate(75.586 -0.002)" fill="#1448d3"/>
            <path id="Trazado_113848" data-name="Trazado 113848" d="M30.225,1.725A1.725,1.725,0,1,1,31.95,3.449a1.725,1.725,0,0,1-1.725-1.725" transform="translate(49.556 -0.002)" fill="#1448d3"/>
            <path id="Trazado_113849" data-name="Trazado 113849" d="M40.3,1.725a1.725,1.725,0,1,1,1.725,1.725A1.725,1.725,0,0,1,40.3,1.725" transform="translate(23.524 -0.002)" fill="#1448d3"/>
            <path id="Trazado_113850" data-name="Trazado 113850" d="M50.376,1.725A1.725,1.725,0,1,1,52.1,3.449a1.725,1.725,0,0,1-1.725-1.725" transform="translate(-2.507 -0.002)" fill="#1448d3"/>
            <path id="Trazado_113851" data-name="Trazado 113851" d="M60.45,1.725a1.725,1.725,0,1,1,1.725,1.725A1.725,1.725,0,0,1,60.45,1.725" transform="translate(-28.538 -0.002)" fill="#1448d3"/>
            <path id="Trazado_113852" data-name="Trazado 113852" d="M70.526,1.725a1.725,1.725,0,1,1,1.725,1.725,1.725,1.725,0,0,1-1.725-1.725" transform="translate(-54.57 -0.002)" fill="#1448d3"/>
            <path id="Trazado_113853" data-name="Trazado 113853" d="M80.6,1.725a1.725,1.725,0,1,1,1.725,1.725A1.725,1.725,0,0,1,80.6,1.725" transform="translate(-80.6 -0.002)" fill="#1448d3"/>
            <path id="Trazado_113854" data-name="Trazado 113854" d="M0,11.8a1.725,1.725,0,1,1,1.725,1.725A1.725,1.725,0,0,1,0,11.8" transform="translate(127.65 5.88)" fill="#1448d3"/>
            <path id="Trazado_113855" data-name="Trazado 113855" d="M10.076,11.8A1.725,1.725,0,1,1,11.8,13.524,1.725,1.725,0,0,1,10.076,11.8" transform="translate(101.617 5.88)" fill="#1448d3"/>
            <path id="Trazado_113856" data-name="Trazado 113856" d="M20.151,11.8a1.725,1.725,0,1,1,1.725,1.725A1.725,1.725,0,0,1,20.151,11.8" transform="translate(75.586 5.88)" fill="#1448d3"/>
            <path id="Trazado_113857" data-name="Trazado 113857" d="M30.225,11.8a1.725,1.725,0,1,1,1.725,1.725A1.725,1.725,0,0,1,30.225,11.8" transform="translate(49.556 5.88)" fill="#1448d3"/>
            <path id="Trazado_113858" data-name="Trazado 113858" d="M40.3,11.8a1.725,1.725,0,1,1,1.725,1.725A1.725,1.725,0,0,1,40.3,11.8" transform="translate(23.524 5.88)" fill="#1448d3"/>
            <path id="Trazado_113859" data-name="Trazado 113859" d="M50.376,11.8A1.725,1.725,0,1,1,52.1,13.524,1.725,1.725,0,0,1,50.376,11.8" transform="translate(-2.507 5.88)" fill="#1448d3"/>
            <path id="Trazado_113860" data-name="Trazado 113860" d="M60.45,11.8a1.725,1.725,0,1,1,1.725,1.725A1.725,1.725,0,0,1,60.45,11.8" transform="translate(-28.538 5.88)" fill="#1448d3"/>
            <path id="Trazado_113861" data-name="Trazado 113861" d="M70.526,11.8a1.725,1.725,0,1,1,1.725,1.725A1.725,1.725,0,0,1,70.526,11.8" transform="translate(-54.57 5.88)" fill="#1448d3"/>
            <path id="Trazado_113862" data-name="Trazado 113862" d="M80.6,11.8a1.725,1.725,0,1,1,1.725,1.725A1.725,1.725,0,0,1,80.6,11.8" transform="translate(-80.6 5.88)" fill="#1448d3"/>
            <path id="Trazado_113863" data-name="Trazado 113863" d="M0,21.875A1.725,1.725,0,1,1,1.725,23.6,1.725,1.725,0,0,1,0,21.875" transform="translate(127.65 11.761)" fill="#1448d3"/>
            <path id="Trazado_113864" data-name="Trazado 113864" d="M10.076,21.875A1.725,1.725,0,1,1,11.8,23.6a1.725,1.725,0,0,1-1.725-1.725" transform="translate(101.617 11.761)" fill="#1448d3"/>
            <path id="Trazado_113865" data-name="Trazado 113865" d="M20.151,21.875A1.725,1.725,0,1,1,21.876,23.6a1.725,1.725,0,0,1-1.725-1.725" transform="translate(75.586 11.761)" fill="#1448d3"/>
            <path id="Trazado_113866" data-name="Trazado 113866" d="M30.225,21.875A1.725,1.725,0,1,1,31.95,23.6a1.725,1.725,0,0,1-1.725-1.725" transform="translate(49.556 11.761)" fill="#1448d3"/>
            <path id="Trazado_113867" data-name="Trazado 113867" d="M40.3,21.875A1.725,1.725,0,1,1,42.026,23.6,1.725,1.725,0,0,1,40.3,21.875" transform="translate(23.524 11.761)" fill="#1448d3"/>
            <path id="Trazado_113868" data-name="Trazado 113868" d="M50.376,21.875A1.725,1.725,0,1,1,52.1,23.6a1.725,1.725,0,0,1-1.725-1.725" transform="translate(-2.507 11.761)" fill="#1448d3"/>
            <path id="Trazado_113869" data-name="Trazado 113869" d="M60.45,21.875A1.725,1.725,0,1,1,62.175,23.6a1.725,1.725,0,0,1-1.725-1.725" transform="translate(-28.538 11.761)" fill="#1448d3"/>
            <path id="Trazado_113870" data-name="Trazado 113870" d="M70.526,21.875A1.725,1.725,0,1,1,72.251,23.6a1.725,1.725,0,0,1-1.725-1.725" transform="translate(-54.57 11.761)" fill="#1448d3"/>
            <path id="Trazado_113871" data-name="Trazado 113871" d="M80.6,21.875A1.725,1.725,0,1,1,82.325,23.6,1.725,1.725,0,0,1,80.6,21.875" transform="translate(-80.6 11.761)" fill="#1448d3"/>
            <path id="Trazado_113872" data-name="Trazado 113872" d="M0,31.95a1.725,1.725,0,1,1,1.725,1.725A1.725,1.725,0,0,1,0,31.95" transform="translate(127.65 17.642)" fill="#1448d3"/>
            <path id="Trazado_113873" data-name="Trazado 113873" d="M10.076,31.95A1.725,1.725,0,1,1,11.8,33.674a1.725,1.725,0,0,1-1.725-1.725" transform="translate(101.617 17.642)" fill="#1448d3"/>
            <path id="Trazado_113874" data-name="Trazado 113874" d="M20.151,31.95a1.725,1.725,0,1,1,1.725,1.725,1.725,1.725,0,0,1-1.725-1.725" transform="translate(75.586 17.642)" fill="#1448d3"/>
            <path id="Trazado_113875" data-name="Trazado 113875" d="M30.225,31.95a1.725,1.725,0,1,1,1.725,1.725,1.725,1.725,0,0,1-1.725-1.725" transform="translate(49.556 17.642)" fill="#1448d3"/>
            <path id="Trazado_113876" data-name="Trazado 113876" d="M40.3,31.95a1.725,1.725,0,1,1,1.725,1.725A1.725,1.725,0,0,1,40.3,31.95" transform="translate(23.524 17.642)" fill="#1448d3"/>
            <path id="Trazado_113877" data-name="Trazado 113877" d="M50.376,31.95A1.725,1.725,0,1,1,52.1,33.674a1.725,1.725,0,0,1-1.725-1.725" transform="translate(-2.507 17.642)" fill="#1448d3"/>
            <path id="Trazado_113878" data-name="Trazado 113878" d="M60.45,31.95a1.725,1.725,0,1,1,1.725,1.725A1.725,1.725,0,0,1,60.45,31.95" transform="translate(-28.538 17.642)" fill="#1448d3"/>
            <path id="Trazado_113879" data-name="Trazado 113879" d="M70.526,31.95a1.725,1.725,0,1,1,1.725,1.725,1.725,1.725,0,0,1-1.725-1.725" transform="translate(-54.57 17.642)" fill="#1448d3"/>
            <path id="Trazado_113880" data-name="Trazado 113880" d="M80.6,31.95a1.725,1.725,0,1,1,1.725,1.725A1.725,1.725,0,0,1,80.6,31.95" transform="translate(-80.6 17.642)" fill="#1448d3"/>
            <path id="Trazado_113881" data-name="Trazado 113881" d="M0,42.025a1.725,1.725,0,1,1,1.725,1.725A1.725,1.725,0,0,1,0,42.025" transform="translate(127.65 23.523)" fill="#1448d3"/>
            <path id="Trazado_113882" data-name="Trazado 113882" d="M10.076,42.025A1.725,1.725,0,1,1,11.8,43.749a1.725,1.725,0,0,1-1.725-1.725" transform="translate(101.617 23.523)" fill="#1448d3"/>
            <path id="Trazado_113883" data-name="Trazado 113883" d="M20.151,42.025a1.725,1.725,0,1,1,1.725,1.725,1.725,1.725,0,0,1-1.725-1.725" transform="translate(75.586 23.523)" fill="#1448d3"/>
            <path id="Trazado_113884" data-name="Trazado 113884" d="M30.225,42.025a1.725,1.725,0,1,1,1.725,1.725,1.725,1.725,0,0,1-1.725-1.725" transform="translate(49.556 23.523)" fill="#1448d3"/>
            <path id="Trazado_113885" data-name="Trazado 113885" d="M40.3,42.025a1.725,1.725,0,1,1,1.725,1.725A1.725,1.725,0,0,1,40.3,42.025" transform="translate(23.524 23.523)" fill="#1448d3"/>
            <path id="Trazado_113886" data-name="Trazado 113886" d="M50.376,42.025A1.725,1.725,0,1,1,52.1,43.749a1.725,1.725,0,0,1-1.725-1.725" transform="translate(-2.507 23.523)" fill="#1448d3"/>
            <path id="Trazado_113887" data-name="Trazado 113887" d="M60.45,42.025a1.725,1.725,0,1,1,1.725,1.725,1.725,1.725,0,0,1-1.725-1.725" transform="translate(-28.538 23.523)" fill="#1448d3"/>
            <path id="Trazado_113888" data-name="Trazado 113888" d="M70.526,42.025a1.725,1.725,0,1,1,1.725,1.725,1.725,1.725,0,0,1-1.725-1.725" transform="translate(-54.57 23.523)" fill="#1448d3"/>
            <path id="Trazado_113889" data-name="Trazado 113889" d="M80.6,42.025a1.725,1.725,0,1,1,1.725,1.725A1.725,1.725,0,0,1,80.6,42.025" transform="translate(-80.6 23.523)" fill="#1448d3"/>
            <path id="Trazado_113890" data-name="Trazado 113890" d="M0,52.1a1.725,1.725,0,1,1,1.725,1.725A1.725,1.725,0,0,1,0,52.1" transform="translate(127.65 29.405)" fill="#1448d3"/>
            <path id="Trazado_113891" data-name="Trazado 113891" d="M10.076,52.1A1.725,1.725,0,1,1,11.8,53.824,1.725,1.725,0,0,1,10.076,52.1" transform="translate(101.617 29.405)" fill="#1448d3"/>
            <path id="Trazado_113892" data-name="Trazado 113892" d="M20.151,52.1a1.725,1.725,0,1,1,1.725,1.725A1.725,1.725,0,0,1,20.151,52.1" transform="translate(75.586 29.405)" fill="#1448d3"/>
            <path id="Trazado_113893" data-name="Trazado 113893" d="M30.225,52.1a1.725,1.725,0,1,1,1.725,1.725A1.725,1.725,0,0,1,30.225,52.1" transform="translate(49.556 29.405)" fill="#1448d3"/>
            <path id="Trazado_113894" data-name="Trazado 113894" d="M40.3,52.1a1.725,1.725,0,1,1,1.725,1.725A1.725,1.725,0,0,1,40.3,52.1" transform="translate(23.524 29.405)" fill="#1448d3"/>
            <path id="Trazado_113895" data-name="Trazado 113895" d="M50.376,52.1A1.725,1.725,0,1,1,52.1,53.824,1.725,1.725,0,0,1,50.376,52.1" transform="translate(-2.507 29.405)" fill="#1448d3"/>
            <path id="Trazado_113896" data-name="Trazado 113896" d="M60.45,52.1a1.725,1.725,0,1,1,1.725,1.725A1.725,1.725,0,0,1,60.45,52.1" transform="translate(-28.538 29.405)" fill="#1448d3"/>
            <path id="Trazado_113897" data-name="Trazado 113897" d="M70.526,52.1a1.725,1.725,0,1,1,1.725,1.725A1.725,1.725,0,0,1,70.526,52.1" transform="translate(-54.57 29.405)" fill="#1448d3"/>
            <path id="Trazado_113898" data-name="Trazado 113898" d="M80.6,52.1a1.725,1.725,0,1,1,1.725,1.725A1.725,1.725,0,0,1,80.6,52.1" transform="translate(-80.6 29.405)" fill="#1448d3"/>
            <path id="Trazado_113899" data-name="Trazado 113899" d="M0,62.175A1.725,1.725,0,1,1,1.725,63.9,1.725,1.725,0,0,1,0,62.175" transform="translate(127.65 35.286)" fill="#1448d3"/>
            <path id="Trazado_113900" data-name="Trazado 113900" d="M10.076,62.175A1.725,1.725,0,1,1,11.8,63.9a1.725,1.725,0,0,1-1.725-1.725" transform="translate(101.617 35.286)" fill="#1448d3"/>
            <path id="Trazado_113901" data-name="Trazado 113901" d="M20.151,62.175A1.725,1.725,0,1,1,21.876,63.9a1.725,1.725,0,0,1-1.725-1.725" transform="translate(75.586 35.286)" fill="#1448d3"/>
            <path id="Trazado_113902" data-name="Trazado 113902" d="M30.225,62.175A1.725,1.725,0,1,1,31.95,63.9a1.725,1.725,0,0,1-1.725-1.725" transform="translate(49.556 35.286)" fill="#1448d3"/>
            <path id="Trazado_113903" data-name="Trazado 113903" d="M40.3,62.175A1.725,1.725,0,1,1,42.026,63.9,1.725,1.725,0,0,1,40.3,62.175" transform="translate(23.524 35.286)" fill="#1448d3"/>
            <path id="Trazado_113904" data-name="Trazado 113904" d="M50.376,62.175A1.725,1.725,0,1,1,52.1,63.9a1.725,1.725,0,0,1-1.725-1.725" transform="translate(-2.507 35.286)" fill="#1448d3"/>
            <path id="Trazado_113905" data-name="Trazado 113905" d="M60.45,62.175A1.725,1.725,0,1,1,62.175,63.9a1.725,1.725,0,0,1-1.725-1.725" transform="translate(-28.538 35.286)" fill="#1448d3"/>
            <path id="Trazado_113906" data-name="Trazado 113906" d="M70.526,62.175A1.725,1.725,0,1,1,72.251,63.9a1.725,1.725,0,0,1-1.725-1.725" transform="translate(-54.57 35.286)" fill="#1448d3"/>
            <path id="Trazado_113907" data-name="Trazado 113907" d="M80.6,62.175A1.725,1.725,0,1,1,82.325,63.9,1.725,1.725,0,0,1,80.6,62.175" transform="translate(-80.6 35.286)" fill="#1448d3"/>
            <path id="Trazado_113908" data-name="Trazado 113908" d="M0,72.251a1.725,1.725,0,1,1,1.725,1.725A1.725,1.725,0,0,1,0,72.251" transform="translate(127.65 41.168)" fill="#1448d3"/>
            <path id="Trazado_113909" data-name="Trazado 113909" d="M10.076,72.251A1.725,1.725,0,1,1,11.8,73.975a1.725,1.725,0,0,1-1.725-1.725" transform="translate(101.617 41.168)" fill="#1448d3"/>
            <path id="Trazado_113910" data-name="Trazado 113910" d="M20.151,72.251a1.725,1.725,0,1,1,1.725,1.725,1.725,1.725,0,0,1-1.725-1.725" transform="translate(75.586 41.168)" fill="#1448d3"/>
            <path id="Trazado_113911" data-name="Trazado 113911" d="M30.225,72.251a1.725,1.725,0,1,1,1.725,1.725,1.725,1.725,0,0,1-1.725-1.725" transform="translate(49.556 41.168)" fill="#1448d3"/>
            <path id="Trazado_113912" data-name="Trazado 113912" d="M40.3,72.251a1.725,1.725,0,1,1,1.725,1.725A1.725,1.725,0,0,1,40.3,72.251" transform="translate(23.524 41.168)" fill="#1448d3"/>
            <path id="Trazado_113913" data-name="Trazado 113913" d="M50.376,72.251A1.725,1.725,0,1,1,52.1,73.975a1.725,1.725,0,0,1-1.725-1.725" transform="translate(-2.507 41.168)" fill="#1448d3"/>
            <path id="Trazado_113914" data-name="Trazado 113914" d="M60.45,72.251a1.725,1.725,0,1,1,1.725,1.725,1.725,1.725,0,0,1-1.725-1.725" transform="translate(-28.538 41.168)" fill="#1448d3"/>
            <path id="Trazado_113915" data-name="Trazado 113915" d="M70.526,72.251a1.725,1.725,0,1,1,1.725,1.725,1.725,1.725,0,0,1-1.725-1.725" transform="translate(-54.57 41.168)" fill="#1448d3"/>
            <path id="Trazado_113916" data-name="Trazado 113916" d="M80.6,72.251a1.725,1.725,0,1,1,1.725,1.725A1.725,1.725,0,0,1,80.6,72.251" transform="translate(-80.6 41.168)" fill="#1448d3"/>
            <path id="Trazado_113917" data-name="Trazado 113917" d="M0,82.326A1.725,1.725,0,1,1,1.725,84.05,1.725,1.725,0,0,1,0,82.326" transform="translate(127.65 47.049)" fill="#1448d3"/>
            <path id="Trazado_113918" data-name="Trazado 113918" d="M10.076,82.326A1.725,1.725,0,1,1,11.8,84.05a1.725,1.725,0,0,1-1.725-1.725" transform="translate(101.617 47.049)" fill="#1448d3"/>
            <path id="Trazado_113919" data-name="Trazado 113919" d="M20.151,82.326a1.725,1.725,0,1,1,1.725,1.725,1.725,1.725,0,0,1-1.725-1.725" transform="translate(75.586 47.049)" fill="#1448d3"/>
            <path id="Trazado_113920" data-name="Trazado 113920" d="M30.225,82.326A1.725,1.725,0,1,1,31.95,84.05a1.725,1.725,0,0,1-1.725-1.725" transform="translate(49.556 47.049)" fill="#1448d3"/>
            <path id="Trazado_113921" data-name="Trazado 113921" d="M40.3,82.326a1.725,1.725,0,1,1,1.725,1.725A1.725,1.725,0,0,1,40.3,82.326" transform="translate(23.524 47.049)" fill="#1448d3"/>
            <path id="Trazado_113922" data-name="Trazado 113922" d="M50.376,82.326A1.725,1.725,0,1,1,52.1,84.05a1.725,1.725,0,0,1-1.725-1.725" transform="translate(-2.507 47.049)" fill="#1448d3"/>
            <path id="Trazado_113923" data-name="Trazado 113923" d="M60.45,82.326a1.725,1.725,0,1,1,1.725,1.725,1.725,1.725,0,0,1-1.725-1.725" transform="translate(-28.538 47.049)" fill="#1448d3"/>
            <path id="Trazado_113924" data-name="Trazado 113924" d="M70.526,82.326a1.725,1.725,0,1,1,1.725,1.725,1.725,1.725,0,0,1-1.725-1.725" transform="translate(-54.57 47.049)" fill="#1448d3"/>
            <path id="Trazado_113925" data-name="Trazado 113925" d="M80.6,82.326a1.725,1.725,0,1,1,1.725,1.725A1.725,1.725,0,0,1,80.6,82.326" transform="translate(-80.6 47.049)" fill="#1448d3"/>
          </g>
        </g>
      </g>
    </g>
    <g id="Grupo_986866" data-name="Grupo 986866" transform="translate(194.105 4115.867)">
      <g id="Grupo_986865" data-name="Grupo 986865" clip-path="url(#clip-path-2)">
        <rect id="Rectángulo_344805" data-name="Rectángulo 344805" width="1" height="216.947" transform="translate(226.092 168.088)" fill="#111"/>
        <g id="Grupo_986864" data-name="Grupo 986864">
          <g id="Grupo_986863" data-name="Grupo 986863" clip-path="url(#clip-path-2)">
            <path id="Trazado_731020" data-name="Trazado 731020" d="M205.567,402.69h-1V391.914a6.507,6.507,0,0,1,6.5-6.5h31.361a6.507,6.507,0,0,1,6.5,6.5V399.2h-1v-7.281a5.506,5.506,0,0,0-5.5-5.5H211.067a5.507,5.507,0,0,0-5.5,5.5Z" fill="#111"/>
            <path id="Trazado_731021" data-name="Trazado 731021" d="M242.267,405.691h11.7V401.8a2.757,2.757,0,0,0-2.757-2.757h-5.971a2.97,2.97,0,0,0-2.97,2.97Z" fill="#111"/>
            <path id="Trazado_731022" data-name="Trazado 731022" d="M199.217,405.691h11.7V401.8a2.757,2.757,0,0,0-2.757-2.757h-5.971a2.97,2.97,0,0,0-2.97,2.97Z" fill="#111"/>
            <path id="Trazado_731023" data-name="Trazado 731023" d="M267.019,149.995h0a22.053,22.053,0,0,1-5.042-31.285,28.559,28.559,0,0,0,5.139-21.924L264.136,79.3a5.821,5.821,0,0,1,.243-2.894l3.734-10.676a5.81,5.81,0,0,0-2.578-6.948l-8.994-5.2a1.964,1.964,0,0,0-1.216-.246l.012-.018H243.381a3.839,3.839,0,0,1-3.839-3.839v-5a3.839,3.839,0,0,0-3.839-3.839H217.48a3.839,3.839,0,0,0-3.839,3.839v5.055a3.839,3.839,0,0,1-3.779,3.839s-11.933-.043-12.1-.055a1.971,1.971,0,0,0-1.117.26l-8.994,5.2a5.809,5.809,0,0,0-2.578,6.948L188.8,76.407a5.81,5.81,0,0,1,.243,2.894l-2.98,17.485a28.567,28.567,0,0,0,5.139,21.924,22.053,22.053,0,0,1-5.041,31.285h0c-12.137,11.215-12.883,30.7-10.694,50.6a3.848,3.848,0,0,0,3.821,3.43h96.83a3.847,3.847,0,0,0,3.824-3.449c2.113-20.144.627-41.745-12.926-50.582" fill="#111"/>
            <path id="Trazado_731024" data-name="Trazado 731024" d="M227.617,49.694c-5.532,0-10.693-.8-14.161-2.186a.5.5,0,0,1,.371-.928c3.354,1.343,8.381,2.114,13.79,2.114a44.562,44.562,0,0,0,11.787-1.44.5.5,0,0,1,.276.961,45.54,45.54,0,0,1-12.063,1.479" fill="#fff"/>
            <path id="Trazado_731025" data-name="Trazado 731025" d="M226.591,44.526a.5.5,0,0,1-.5-.5v-2.5a.5.5,0,0,1,1,0v2.5a.5.5,0,0,1-.5.5" fill="#fff"/>
            <path id="Trazado_731026" data-name="Trazado 731026" d="M226.591,189.585a.5.5,0,0,1-.5-.5v-4.836a.5.5,0,0,1,1,0v4.836a.5.5,0,0,1-.5.5m0-14.506a.5.5,0,0,1-.5-.5v-4.836a.5.5,0,0,1,1,0v4.836a.5.5,0,0,1-.5.5m0-14.506a.5.5,0,0,1-.5-.5v-4.835a.5.5,0,0,1,1,0v4.835a.5.5,0,0,1-.5.5m0-14.506a.5.5,0,0,1-.5-.5v-4.835a.5.5,0,0,1,1,0v4.835a.5.5,0,0,1-.5.5m0-14.506a.5.5,0,0,1-.5-.5v-4.835a.5.5,0,1,1,1,0v4.835a.5.5,0,0,1-.5.5m0-14.506a.5.5,0,0,1-.5-.5V111.72a.5.5,0,1,1,1,0v4.835a.5.5,0,0,1-.5.5m0-14.5a.5.5,0,0,1-.5-.5V97.214a.5.5,0,0,1,1,0v4.836a.5.5,0,0,1-.5.5m0-14.506a.5.5,0,0,1-.5-.5V82.708a.5.5,0,0,1,1,0v4.836a.5.5,0,0,1-.5.5m0-14.506a.5.5,0,0,1-.5-.5V68.2a.5.5,0,0,1,1,0v4.836a.5.5,0,0,1-.5.5m0-14.506a.5.5,0,0,1-.5-.5V53.7a.5.5,0,1,1,1,0v4.835a.5.5,0,0,1-.5.5" fill="#fff"/>
            <path id="Trazado_731027" data-name="Trazado 731027" d="M226.591,201.755a.5.5,0,0,1-.5-.5v-2.5a.5.5,0,0,1,1,0v2.5a.5.5,0,0,1-.5.5" fill="#fff"/>
            <path id="Trazado_731028" data-name="Trazado 731028" d="M227.288,65.613c-.867,0-1.742-.026-2.6-.077a.5.5,0,0,1-.468-.529.492.492,0,0,1,.529-.47,43.03,43.03,0,0,0,4.938.009.488.488,0,0,1,.528.471.5.5,0,0,1-.471.527c-.816.046-1.642.069-2.453.069m12.254-1.782a.5.5,0,0,1-.143-.979,42.292,42.292,0,0,0,4.643-1.683.5.5,0,1,1,.394.919,43.15,43.15,0,0,1-4.752,1.722.466.466,0,0,1-.142.021m-24.649-.041a.49.49,0,0,1-.144-.022A43.38,43.38,0,0,1,210,62.03a.5.5,0,1,1,.4-.917,42.424,42.424,0,0,0,4.639,1.7.5.5,0,0,1-.145.979m37.984-6.65a.5.5,0,0,1-.3-.9c1.08-.806,2.141-1.678,3.15-2.592l.477-.432a.5.5,0,0,1,.672.741l-.477.432c-1.034.936-2.119,1.828-3.224,2.652a.5.5,0,0,1-.3.1m-51.3-.086a.5.5,0,0,1-.3-.1,44.015,44.015,0,0,1-3.861-3.265.5.5,0,1,1,.688-.726,42.945,42.945,0,0,0,3.773,3.191.5.5,0,0,1-.3.9" fill="#fff"/>
            <path id="Trazado_731029" data-name="Trazado 731029" d="M230.7,108.659a.5.5,0,0,1-.014-1c1.656-.044,3.328-.127,4.972-.247a.515.515,0,0,1,.535.461.5.5,0,0,1-.463.536c-1.658.121-3.346.206-5.016.25Zm-10-.195h-.033c-1.668-.11-3.352-.261-5-.449a.5.5,0,1,1,.113-.993c1.635.185,3.3.335,4.955.444a.5.5,0,0,1-.033,1m24.913-1.264a.5.5,0,0,1-.084-.993c1.648-.284,3.29-.612,4.878-.973a.492.492,0,0,1,.6.376.5.5,0,0,1-.376.6c-1.6.366-3.264.7-4.93.985a.507.507,0,0,1-.086.007m-39.755-.806a.486.486,0,0,1-.106-.012c-1.651-.36-3.292-.767-4.879-1.208a.5.5,0,1,1,.267-.964c1.57.437,3.193.839,4.824,1.2a.5.5,0,0,1-.106.988m54.261-2.953a.5.5,0,0,1-.168-.97c1.581-.566,3.133-1.182,4.613-1.832a.5.5,0,1,1,.4.916c-1.5.659-3.076,1.284-4.679,1.857a.5.5,0,0,1-.168.029m-68.553-1.528a.505.505,0,0,1-.2-.04c-1.576-.67-3.109-1.392-4.558-2.146a.5.5,0,0,1,.462-.887c1.425.741,2.935,1.452,4.488,2.113a.5.5,0,0,1-.2.96" fill="#fff"/>
            <path id="Trazado_731030" data-name="Trazado 731030" d="M225.7,179.236h-.009c-1.661-.029-3.348-.083-5.012-.16a.5.5,0,0,1,.047-1c1.654.076,3.33.129,4.983.158a.5.5,0,0,1-.009,1m10-.106a.5.5,0,0,1-.02-1c1.66-.065,3.335-.155,4.981-.266a.508.508,0,0,1,.533.465.5.5,0,0,1-.465.533c-1.655.112-3.341.2-5.01.267H235.7m-24.966-.8a.5.5,0,0,1-.054,0c-1.666-.176-3.34-.379-4.975-.6a.5.5,0,0,1-.428-.563.506.506,0,0,1,.562-.428c1.626.223,3.29.425,4.947.6a.5.5,0,0,1-.052,1m39.91-.438a.5.5,0,0,1-.063-1c1.655-.213,3.316-.455,4.936-.718a.5.5,0,0,1,.16.987c-1.631.265-3.3.508-4.967.724-.023,0-.044,0-.066,0m-54.727-1.85a.5.5,0,0,1-.1-.01c-1.66-.345-3.307-.719-4.9-1.113a.5.5,0,1,1,.24-.97c1.576.39,3.211.762,4.858,1.1a.5.5,0,0,1-.1.99m69.489-.819a.5.5,0,0,1-.115-.987c1.629-.387,3.251-.807,4.82-1.249a.5.5,0,1,1,.271.963c-1.582.445-3.216.869-4.861,1.259a.5.5,0,0,1-.115.014m-83.957-3.111a.5.5,0,0,1-.164-.028c-1.614-.558-3.2-1.152-4.706-1.767a.5.5,0,1,1,.378-.926c1.491.608,3.057,1.2,4.655,1.748a.5.5,0,0,1-.163.973m98.281-1.3a.5.5,0,0,1-.182-.966l.665-.259a.5.5,0,0,1,.364.932l-.665.259a.505.505,0,0,1-.182.034" fill="#fff"/>
            <rect id="Rectángulo_344806" data-name="Rectángulo 344806" width="1" height="10.286" transform="translate(187.611 51.431) rotate(-30.549)" fill="#f7ece4"/>
            <path id="Trazado_731031" data-name="Trazado 731031" d="M189.2,49.555a2.3,2.3,0,1,1-2.3-2.3,2.3,2.3,0,0,1,2.3,2.3" fill="#3f53aa"/>
            <rect id="Rectángulo_344807" data-name="Rectángulo 344807" width="10.286" height="1" transform="matrix(0.521, -0.853, 0.853, 0.521, 263.484, 165.774)" fill="#f7ece4"/>
            <path id="Trazado_731032" data-name="Trazado 731032" d="M271.245,157.515a2.3,2.3,0,1,1,.945-3.111,2.3,2.3,0,0,1-.945,3.111" fill="#3f53aa"/>
            <path id="Trazado_731033" data-name="Trazado 731033" d="M248.858,52.5a1.2,1.2,0,0,0-1.2,1.34c.922,8,2.881,49.673-53.3,66.708-17.826,5.406-35.2,15.113-45.192,31.355-7.414,12.051-8.367,23.863-7.982,37.519.7,24.746-17.888,46.247-43.324,46.247A92.3,92.3,0,0,0,10.935,296.94L.71,325.583h136.1c31.651,0,56.368-26.583,52.877-58.041-1.479-13.319,8.854-25.894,22.256-25.894a38.958,38.958,0,0,0,21.907-6.86c7.69-5.341,11-12.18,14.434-20.723,10.515-26.189,9.946-52.828,9.467-80.475a26.039,26.039,0,0,1,4.645-15.056,37.9,37.9,0,0,0,4.965-32.1l-2.986-10.032-8.685-22.9a1.548,1.548,0,0,0-1.447-1Z" fill="url(#linear-gradient)"/>
            <path id="Trazado_731034" data-name="Trazado 731034" d="M136.814,326.084H0l10.464-29.312a92.992,92.992,0,0,1,87.394-61.6,41.737,41.737,0,0,0,30.177-12.708,45.686,45.686,0,0,0,12.648-33.024c-.41-14.583.794-25.992,8.057-37.8,8.8-14.3,24.523-25.218,45.473-31.571,55.71-16.893,53.878-58.087,52.945-66.173a1.693,1.693,0,0,1,.419-1.323A1.715,1.715,0,0,1,248.858,52h5.389a2.058,2.058,0,0,1,1.915,1.323l8.685,22.9,3,10.067a38.256,38.256,0,0,1-5.031,32.518,25.491,25.491,0,0,0-4.56,14.767l.014.8c.482,27.69.936,53.844-9.517,79.875-3.289,8.191-6.658,15.422-14.612,20.947a39.253,39.253,0,0,1-22.192,6.949,21.192,21.192,0,0,0-15.909,7.3,23.266,23.266,0,0,0-5.85,18.043,51.756,51.756,0,0,1-12.964,40.742,54.2,54.2,0,0,1-40.41,17.855m-135.395-1H136.814a53.2,53.2,0,0,0,39.665-17.522A50.766,50.766,0,0,0,189.193,267.6a24.275,24.275,0,0,1,6.1-18.82,22.183,22.183,0,0,1,16.655-7.629,38.25,38.25,0,0,0,21.622-6.77c7.726-5.367,11.027-12.459,14.255-20.5,10.377-25.843,9.924-51.9,9.444-79.484l-.014-.8a26.482,26.482,0,0,1,4.732-15.346,37.255,37.255,0,0,0,4.9-31.672L263.9,76.549l-8.674-22.868a1.051,1.051,0,0,0-.979-.677h-5.389a.712.712,0,0,0-.534.239.68.68,0,0,0-.172.543c.948,8.225,2.822,50.122-53.65,67.245-14.442,4.38-33.958,13.337-44.911,31.138-7.133,11.592-8.314,22.845-7.908,37.244a46.694,46.694,0,0,1-12.931,33.749,42.726,42.726,0,0,1-30.894,13.011A91.991,91.991,0,0,0,11.4,297.107Z" fill="#5c69ab"/>
            <path id="Trazado_731035" data-name="Trazado 731035" d="M245.108,88.77a.5.5,0,0,1-.4-.807c6.819-8.786,5.052-28.713,4.629-32.618a1.281,1.281,0,0,1,1.28-1.418h3.422a.5.5,0,0,1,0,1h-3.422a.288.288,0,0,0-.216.094.276.276,0,0,0-.069.217c.43,3.972,2.22,24.248-4.834,33.339a.5.5,0,0,1-.4.193" fill="#f7ece4"/>
            <path id="Trazado_731036" data-name="Trazado 731036" d="M250.118,125.018a29.775,29.775,0,0,1-4.5-.342.5.5,0,1,1,.15-.988,28.75,28.75,0,0,0,4.9.324.5.5,0,1,1,.017,1c-.19,0-.379.006-.568.006m5.527-.513a.5.5,0,0,1-.089-.992,33.492,33.492,0,0,0,4.26-1.086.5.5,0,0,1,.309.951,34.411,34.411,0,0,1-4.388,1.119.477.477,0,0,1-.092.008m-14.8-.989a.5.5,0,0,1-.157-.025,33.548,33.548,0,0,1-4.678-1.954.5.5,0,0,1,.453-.891A32.486,32.486,0,0,0,241,122.541a.5.5,0,0,1-.156.975m-8.9-4.491a.5.5,0,0,1-.284-.089,42.537,42.537,0,0,1-3.98-3.125.5.5,0,0,1,.662-.749,41.9,41.9,0,0,0,3.886,3.052.5.5,0,0,1-.284.911m-7.492-6.607a.5.5,0,0,1-.37-.165,35.593,35.593,0,0,1-3.179-3.978.5.5,0,1,1,.838-.546,35.177,35.177,0,0,0,3.081,3.854.5.5,0,0,1-.37.835" fill="#fff"/>
            <path id="Trazado_731037" data-name="Trazado 731037" d="M247.531,185.109q-.972,0-1.934-.02a.5.5,0,0,1,.02-1c1.643.034,3.3.024,4.973-.029a.488.488,0,0,1,.516.483.5.5,0,0,1-.485.516q-1.556.051-3.09.05m-6.914-.252-.038,0c-1.659-.12-3.34-.287-5-.5a.5.5,0,0,1,.125-.992c1.641.207,3.306.373,4.947.492a.5.5,0,0,1-.035,1m-9.913-1.251a.537.537,0,0,1-.09-.007c-1.642-.3-3.3-.639-4.92-1.018a.5.5,0,1,1,.228-.974c1.606.375,3.243.714,4.869,1.007a.5.5,0,0,1-.087.992m-9.732-2.274a.482.482,0,0,1-.139-.02c-1.6-.46-3.209-.969-4.79-1.511a.5.5,0,0,1,.325-.947c1.565.538,3.161,1.041,4.743,1.5a.5.5,0,0,1-.139.98m-9.454-3.241a.5.5,0,0,1-.185-.035c-1.532-.609-3.087-1.27-4.623-1.966a.5.5,0,0,1,.412-.911c1.523.689,3.063,1.344,4.58,1.947a.5.5,0,0,1-.184.965m-9.107-4.123a.5.5,0,0,1-.227-.054c-1.476-.75-2.965-1.549-4.426-2.374a.5.5,0,1,1,.491-.871c1.449.818,2.925,1.61,4.388,2.353a.5.5,0,0,1-.226.946m-8.71-4.912a.5.5,0,0,1-.263-.076c-1.4-.872-2.822-1.791-4.213-2.733a.5.5,0,1,1,.562-.828c1.378.934,2.784,1.847,4.178,2.712a.5.5,0,0,1-.264.925m-8.281-5.609a.5.5,0,0,1-.3-.1c-1.332-.979-2.674-2.005-3.989-3.049a.5.5,0,0,1,.622-.783c1.3,1.036,2.637,2.054,3.96,3.026a.5.5,0,0,1-.3.9m-7.835-6.219a.5.5,0,0,1-.324-.12c-1.257-1.073-2.522-2.192-3.76-3.327a.5.5,0,1,1,.676-.737c1.229,1.127,2.486,2.238,3.733,3.3a.5.5,0,0,1-.325.88m-7.377-6.758a.5.5,0,0,1-.35-.143c-1.183-1.161-2.368-2.364-3.524-3.577a.5.5,0,0,1,.724-.689c1.148,1.2,2.326,2.4,3.5,3.552a.5.5,0,0,1-.35.857m-6.9-7.245a.5.5,0,0,1-.373-.167c-1.123-1.262-2.224-2.544-3.273-3.811a.5.5,0,1,1,.77-.638c1.042,1.258,2.135,2.531,3.25,3.784a.5.5,0,0,1-.374.832" fill="#fff"/>
            <path id="Trazado_731038" data-name="Trazado 731038" d="M229.135,225.428a.477.477,0,0,1-.184-.035c-1.56-.615-3.117-1.275-4.624-1.96a.5.5,0,1,1,.414-.91c1.491.679,3.031,1.331,4.577,1.94a.5.5,0,0,1-.183.965m-9.092-4.138a.506.506,0,0,1-.231-.057c-1.47-.764-2.949-1.582-4.394-2.434a.5.5,0,1,1,.508-.861c1.429.842,2.892,1.652,4.347,2.408a.5.5,0,0,1-.23.944m-8.608-5.069a.5.5,0,0,1-.276-.083c-1.392-.923-2.777-1.892-4.115-2.882a.5.5,0,0,1-.106-.7.5.5,0,0,1,.7-.105c1.325.979,2.7,1.939,4.074,2.852a.5.5,0,0,1-.277.917M203.4,210.28a.5.5,0,0,1-.317-.113c-1.276-1.049-2.556-2.154-3.8-3.285a.5.5,0,0,1,.672-.74c1.233,1.119,2.5,2.213,3.765,3.251a.5.5,0,0,1-.318.887m-7.4-6.717a.5.5,0,0,1-.354-.146c-1.173-1.174-2.339-2.4-3.466-3.635a.5.5,0,0,1,.739-.673c1.117,1.227,2.272,2.438,3.434,3.6a.5.5,0,0,1-.353.853m-6.732-7.39a.5.5,0,0,1-.385-.18c-1.056-1.27-2.107-2.593-3.125-3.931a.5.5,0,1,1,.8-.606c1.009,1.328,2.051,2.639,3.1,3.9a.5.5,0,0,1-.384.82m-6.055-7.958a.5.5,0,0,1-.41-.214c-.947-1.359-1.885-2.765-2.787-4.178a.5.5,0,0,1,.843-.538c.9,1.4,1.825,2.8,2.764,4.144a.5.5,0,0,1-.41.786m-5.385-8.428a.5.5,0,0,1-.432-.247c-.839-1.433-1.666-2.906-2.457-4.379a.5.5,0,1,1,.881-.473c.785,1.462,1.605,2.925,2.439,4.346a.5.5,0,0,1-.431.753m-4.735-8.812a.5.5,0,0,1-.449-.28c-.733-1.491-1.452-3.02-2.136-4.544a.5.5,0,0,1,.912-.409c.679,1.513,1.393,3.031,2.121,4.512a.5.5,0,0,1-.227.67.51.51,0,0,1-.221.051m-4.1-9.127a.5.5,0,0,1-.463-.311c-.631-1.544-1.244-3.118-1.821-4.679a.5.5,0,0,1,.938-.347c.573,1.55,1.182,3.114,1.809,4.648a.5.5,0,0,1-.463.689m-3.472-9.386a.5.5,0,0,1-.475-.343c-.529-1.6-1.033-3.208-1.5-4.794a.5.5,0,1,1,.96-.281c.462,1.574.962,3.176,1.488,4.761a.5.5,0,0,1-.475.657" fill="#fff"/>
            <path id="Trazado_731039" data-name="Trazado 731039" d="M110.385,325.307q-.972,0-1.935-.02a.5.5,0,0,1,.009-1h.01q2.46.048,4.975-.029a.515.515,0,0,1,.515.484.5.5,0,0,1-.484.516q-1.557.048-3.09.049m-6.917-.252h-.036c-1.656-.121-3.338-.288-5-.5A.5.5,0,0,1,98,324a.494.494,0,0,1,.559-.433c1.644.207,3.308.372,4.946.491a.5.5,0,0,1-.036,1m-9.912-1.25a.545.545,0,0,1-.089-.008c-1.632-.294-3.287-.636-4.919-1.018a.5.5,0,0,1,.227-.974c1.616.378,3.255.718,4.869,1.008a.5.5,0,0,1-.088.992m-9.731-2.276a.474.474,0,0,1-.138-.019c-1.586-.456-3.2-.965-4.791-1.512a.5.5,0,1,1,.325-.945c1.577.541,3.172,1.044,4.742,1.5a.5.5,0,0,1-.138.98m-9.454-3.241a.518.518,0,0,1-.185-.035c-1.541-.613-3.1-1.274-4.622-1.966a.5.5,0,1,1,.413-.91c1.512.685,3.052,1.34,4.578,1.946a.5.5,0,0,1-.184.965m-9.107-4.122a.48.48,0,0,1-.226-.055c-1.486-.755-2.976-1.554-4.427-2.374a.5.5,0,0,1,.492-.871c1.439.813,2.915,1.605,4.388,2.355a.5.5,0,0,1-.227.945m-8.71-4.912a.5.5,0,0,1-.264-.075c-1.4-.872-2.822-1.792-4.212-2.734a.5.5,0,0,1,.561-.828c1.379.935,2.785,1.847,4.179,2.712a.5.5,0,0,1-.264.925m-8.281-5.608a.506.506,0,0,1-.3-.1c-1.332-.981-2.673-2.006-3.988-3.05a.5.5,0,1,1,.622-.783c1.3,1.036,2.637,2.055,3.959,3.026a.5.5,0,0,1-.3.9m-7.835-6.22a.493.493,0,0,1-.324-.12c-1.264-1.079-2.529-2.2-3.76-3.327a.5.5,0,1,1,.676-.737c1.222,1.119,2.478,2.232,3.733,3.3a.5.5,0,0,1-.325.88m-7.377-6.758a.5.5,0,0,1-.35-.144c-1.192-1.168-2.377-2.373-3.524-3.576a.5.5,0,1,1,.724-.689c1.139,1.2,2.317,2.39,3.5,3.553a.5.5,0,0,1-.351.856m-6.9-7.246a.5.5,0,0,1-.374-.168c-1.112-1.249-2.213-2.531-3.272-3.809a.5.5,0,1,1,.77-.638c1.051,1.269,2.145,2.542,3.25,3.783a.5.5,0,0,1-.374.832" fill="#fff"/>
            <rect id="Rectángulo_344808" data-name="Rectángulo 344808" width="10.286" height="1" transform="translate(227.406 113.43) rotate(-58.663)" fill="#f7ece4"/>
            <path id="Trazado_731040" data-name="Trazado 731040" d="M235.162,105.167a2.3,2.3,0,1,1,.945-3.111,2.3,2.3,0,0,1-.945,3.111" fill="#eb8d2e"/>
            <rect id="Rectángulo_344809" data-name="Rectángulo 344809" width="1" height="10.286" transform="translate(248.481 172.73) rotate(-25.073)" fill="#f7ece4"/>
            <path id="Trazado_731041" data-name="Trazado 731041" d="M250.246,171.015a2.3,2.3,0,1,1-2.069-2.508,2.3,2.3,0,0,1,2.069,2.508" fill="#eb8d2e"/>
            <rect id="Rectángulo_344810" data-name="Rectángulo 344810" width="10.287" height="1" transform="matrix(0.521, -0.854, 0.854, 0.521, 254.094, 63.847)" fill="#f7ece4"/>
            <path id="Trazado_731042" data-name="Trazado 731042" d="M261.854,55.585a2.3,2.3,0,1,1,.945-3.111,2.3,2.3,0,0,1-.945,3.111" fill="#eb8d2e"/>
            <path id="Trazado_731043" data-name="Trazado 731043" d="M181.844,265.929a.5.5,0,0,1-.5-.5V253.108a22.36,22.36,0,0,1,22.335-22.335H215a.5.5,0,0,1,0,1H203.679a21.359,21.359,0,0,0-21.335,21.335v12.321a.5.5,0,0,1-.5.5" fill="#f7ece4"/>
            <path id="Trazado_731044" data-name="Trazado 731044" d="M127.443,368.866v13.646l23.389-.627.863-12.364Z" fill="#ffa485"/>
            <path id="Trazado_731045" data-name="Trazado 731045" d="M152.36,381.814l3.612,3.411,21.1,19.338a2.055,2.055,0,0,1-1.431,3.569l-47.552-.98a2.269,2.269,0,0,1-2.221-2.36l.216-22.274Z" fill="#1448d3"/>
            <path id="Trazado_731046" data-name="Trazado 731046" d="M177.077,404.563l-.734-.673a1.98,1.98,0,0,1-1.4.529l-47.553-.98a2.25,2.25,0,0,1-1.5-.623l-.02,1.977a2.269,2.269,0,0,0,2.22,2.359l47.554.98a2.055,2.055,0,0,0,1.43-3.569" fill="#111"/>
            <path id="Trazado_731047" data-name="Trazado 731047" d="M170.18,404.671h-.008l-44.254-.687a.5.5,0,0,1-.492-.508.487.487,0,0,1,.508-.492l44.254.687a.5.5,0,0,1-.008,1" fill="#fff"/>
            <path id="Trazado_731048" data-name="Trazado 731048" d="M151.96,390.045a.5.5,0,0,1-.366-.84l4.011-4.319a.5.5,0,1,1,.733.679l-4.012,4.32a.5.5,0,0,1-.366.16" fill="#fff"/>
            <path id="Trazado_731049" data-name="Trazado 731049" d="M155.208,393.149a.5.5,0,0,1-.366-.84l4.011-4.318a.5.5,0,1,1,.733.679l-4.012,4.319a.5.5,0,0,1-.366.16" fill="#fff"/>
            <path id="Trazado_731050" data-name="Trazado 731050" d="M158.263,396.2a.5.5,0,0,1-.366-.84l4.011-4.318a.5.5,0,1,1,.733.679l-4.012,4.319a.5.5,0,0,1-.366.16" fill="#fff"/>
            <path id="Trazado_731051" data-name="Trazado 731051" d="M152.138,384.635a.648.648,0,0,1-.295-.074c-1.016-.509-3.282-6.027-3.434-6.879a2.536,2.536,0,0,1,3.948-2.525,2.513,2.513,0,0,1,1.046,1.635c.075.42.517,7.019-1,7.78a.577.577,0,0,1-.262.063m.174-.956h0Zm-1.4-7.979a1.563,1.563,0,0,0-.272.024,1.54,1.54,0,0,0-1.244,1.783,28.692,28.692,0,0,0,2.709,5.936,20.312,20.312,0,0,0,.317-6.475,1.536,1.536,0,0,0-1.51-1.268" fill="#fff"/>
            <path id="Trazado_731052" data-name="Trazado 731052" d="M152.775,384.646c-.462,0-.8-.082-.917-.283a.982.982,0,0,1-.084-.776c.391-1.522,4.088-4.481,4.951-4.981a2.536,2.536,0,1,1,2.541,4.389,24.565,24.565,0,0,1-6.491,1.651m-.042-.75h0Zm4.494-4.425c-1.109.642-4.049,3.246-4.449,4.222a25.7,25.7,0,0,0,5.988-1.563,1.536,1.536,0,1,0-1.539-2.659" fill="#fff"/>
            <path id="Trazado_731053" data-name="Trazado 731053" d="M64.006,368.866v13.646l23.389-.627.863-12.364Z" fill="#ffa485"/>
            <path id="Trazado_731054" data-name="Trazado 731054" d="M88.385,381.814,92,385.225l21.1,19.338a2.055,2.055,0,0,1-1.431,3.569l-47.552-.98a2.269,2.269,0,0,1-2.221-2.36l.216-22.274Z" fill="#1448d3"/>
            <path id="Trazado_731055" data-name="Trazado 731055" d="M113.1,404.563l-.734-.673a1.98,1.98,0,0,1-1.4.529l-47.553-.98a2.255,2.255,0,0,1-1.5-.623l-.019,1.977a2.268,2.268,0,0,0,2.22,2.359l47.554.98a2.055,2.055,0,0,0,1.43-3.569" fill="#111"/>
            <path id="Trazado_731056" data-name="Trazado 731056" d="M106.2,404.671H106.2l-44.254-.687a.5.5,0,0,1,.008-1h.008l44.254.687a.5.5,0,0,1-.008,1" fill="#fff"/>
            <path id="Trazado_731057" data-name="Trazado 731057" d="M87.985,390.045a.5.5,0,0,1-.366-.84l4.011-4.319a.5.5,0,1,1,.732.679l-4.011,4.32a.5.5,0,0,1-.366.16" fill="#fff"/>
            <path id="Trazado_731058" data-name="Trazado 731058" d="M91.233,393.149a.5.5,0,0,1-.366-.84l4.011-4.318a.5.5,0,1,1,.732.679L91.6,392.989a.5.5,0,0,1-.366.16" fill="#fff"/>
            <path id="Trazado_731059" data-name="Trazado 731059" d="M94.287,396.2a.5.5,0,0,1-.366-.84l4.011-4.318a.5.5,0,1,1,.732.679l-4.011,4.319a.5.5,0,0,1-.366.16" fill="#fff"/>
            <path id="Trazado_731060" data-name="Trazado 731060" d="M88.162,384.635a.648.648,0,0,1-.3-.074c-1.016-.509-3.282-6.027-3.434-6.879a2.536,2.536,0,0,1,4.994-.89c.075.42.517,7.019-1,7.78a.578.578,0,0,1-.262.063m.174-.956h0Zm-1.4-7.979a1.583,1.583,0,0,0-.273.024,1.54,1.54,0,0,0-1.243,1.783,28.692,28.692,0,0,0,2.709,5.936,20.312,20.312,0,0,0,.317-6.475,1.536,1.536,0,0,0-1.51-1.268" fill="#fff"/>
            <path id="Trazado_731061" data-name="Trazado 731061" d="M88.8,384.646c-.462,0-.8-.082-.917-.283a.987.987,0,0,1-.084-.776c.391-1.522,4.088-4.481,4.951-4.981a2.536,2.536,0,0,1,2.542,4.389,24.585,24.585,0,0,1-6.492,1.651m-.042-.75h0Zm4.493-4.425c-1.108.642-4.048,3.246-4.448,4.222a25.7,25.7,0,0,0,5.988-1.563,1.536,1.536,0,1,0-1.54-2.659" fill="#fff"/>
            <path id="Trazado_731062" data-name="Trazado 731062" d="M153.6,266.639a94.2,94.2,0,0,0-3.457-20.658l-23.64-83.092a1.57,1.57,0,0,1-.059-.426v-4.5a1.559,1.559,0,0,0-1.559-1.558H63.54a1.556,1.556,0,0,0-1.482,1.08L48.6,199.209a37.347,37.347,0,0,0,4.592,32.369,1.532,1.532,0,0,1,.263.782L60.23,369.294a1.558,1.558,0,0,0,1.556,1.481H92.2a1.559,1.559,0,0,0,1.556-1.469l6.4-112.354,13.113,32.18a1.6,1.6,0,0,1,.1.4l9.538,79.048a1.559,1.559,0,0,0,1.518,1.372l29.215.548a1.557,1.557,0,0,0,1.587-1.582Z" fill="#111"/>
            <path id="Trazado_731063" data-name="Trazado 731063" d="M102.815,263.97a.5.5,0,0,1-.457-.3L91.383,239.247l-10.114-11.91A26.9,26.9,0,0,1,76.636,204.7l2.816-11.224a.5.5,0,0,1,.97.244l-2.816,11.223a25.9,25.9,0,0,0,4.449,21.783l10.211,12.052,11.005,24.492a.5.5,0,0,1-.456.7" fill="#fff"/>
            <path id="Trazado_731064" data-name="Trazado 731064" d="M94.223,361.6h-34.4a.5.5,0,0,1,0-1h34.4a.5.5,0,0,1,0,1" fill="#fff"/>
            <path id="Trazado_731065" data-name="Trazado 731065" d="M156.768,361.6h-34.4a.5.5,0,1,1,0-1h34.4a.5.5,0,0,1,0,1" fill="#fff"/>
            <path id="Trazado_731066" data-name="Trazado 731066" d="M118.613,59.112A4.023,4.023,0,0,1,114.691,55l.192-4.1a5.6,5.6,0,0,0-5.459-5.729,6.47,6.47,0,0,1-6.288-6.116c-.057-1.825-.135-3.55-.238-4.271a32.935,32.935,0,0,0-2.545-9.286,23.283,23.283,0,0,0,3.621-4.929,12.593,12.593,0,0,0,.955,1.374c1.488,1.836,4.363,3.126,7.185,4.622a21.483,21.483,0,0,1,5.129,3.474C123.048,25.4,119.491,15.226,110.6,9.7a7.24,7.24,0,0,0-4.293-1.069A7.445,7.445,0,0,0,99.639,3.4l-9.181-.538a25.712,25.712,0,0,0-15.89,4.277c-.071-.161-.134-.323-.212-.483C71.812,1.418,66.577-1.293,62.664.606a7.075,7.075,0,0,0-3.685,5.38c-3.958-.047-7.438,1.624-8.965,4.738-2.345,4.784.8,11.134,7.022,14.184a15.238,15.238,0,0,0,7.141,1.6l-.045.766c-.981,3.921-1.777,8.564-2.113,8.7-3.068,1.268-4.406,1.521-6.5,3.326-2.376,2.051-3.454,6.607-2.48,9.531a23.143,23.143,0,0,1,.978,2.588,4.285,4.285,0,0,1-1.2,3.47c-.162.2-.316.415-.459.633a6.591,6.591,0,0,0-1.1,2.876,4.6,4.6,0,0,0,1.485,4.007,8,8,0,0,0,4.259,1.44c.333.042,3.957.237,9.2.5l-.017.031,53.385,2.5a3.3,3.3,0,0,0,3.524-3.064,4.6,4.6,0,0,0-4.482-4.7" fill="#111"/>
            <path id="Trazado_731067" data-name="Trazado 731067" d="M104.929,21.938a12.454,12.454,0,0,1-.955-1.374,24.321,24.321,0,0,1-14.09,11.46l-9.85-.065a6.52,6.52,0,0,0-3.495,1A7.156,7.156,0,0,0,73.2,39v.162a7.236,7.236,0,0,0,1.484,4.452,6.943,6.943,0,0,0,.479.561c.087.093.182.176.274.263s.164.162.252.237c.134.115.275.22.417.323.051.037.1.078.15.113.172.119.351.228.533.33.024.013.047.029.071.042a6.5,6.5,0,0,0,.625.3l.016.007a6.514,6.514,0,0,0,2.129.483c.1.006.206.02.312.021l5.972.039,1.168.283s-1.146,7.587-5.313,11.31L80.519,73.286c-.338,6.866,5.213,11.083,11.15,11.4l.246.013c5.937.314,11.071-5.047,11.409-11.913l.563-11.435c7.707-1.777,12.876-5.616,11.45-13.643L112.114,26.56c-2.822-1.5-5.7-2.786-7.185-4.622" fill="#e8a185"/>
            <path id="Trazado_731068" data-name="Trazado 731068" d="M80.111,41.59a.5.5,0,0,1-.237-.929l1.977-1.176-2.089-2.528a.5.5,0,0,1,.77-.636L82.994,39.3a.5.5,0,0,1-.13.749L80.385,41.52a.5.5,0,0,1-.274.07" fill="#e06a4b"/>
            <path id="Trazado_731069" data-name="Trazado 731069" d="M103.887,61.354s-9.936,1.034-11.76-2.668h0s-.762,5.922,11.473,8.5Z" fill="#e06a4b"/>
            <path id="Trazado_731070" data-name="Trazado 731070" d="M110.062,35.95a1.57,1.57,0,1,1-1.562-1.577,1.569,1.569,0,0,1,1.562,1.577" fill="#111"/>
            <path id="Trazado_731071" data-name="Trazado 731071" d="M105.641,44.63s.777,3.59,6.127,2.286" fill="#e8a185"/>
            <path id="Trazado_731072" data-name="Trazado 731072" d="M109.333,47.7a4.972,4.972,0,0,1-2.487-.709,3.852,3.852,0,0,1-1.695-2.252.5.5,0,0,1,.977-.215,2.837,2.837,0,0,0,1.266,1.631,5.562,5.562,0,0,0,4.255.278.5.5,0,0,1,.237.971,9.316,9.316,0,0,1-2.553.3" fill="#e06a4b"/>
            <path id="Trazado_731073" data-name="Trazado 731073" d="M102.164,30.464a3.743,3.743,0,0,0,1.695-.253c.583-.177,1.174-.339,1.693-.459s1.122-.237,1.723-.336a3.735,3.735,0,0,0,1.63-.521c.4-.313.442-.954-.254-1.567a4.493,4.493,0,0,0-3.857-.682,4.4,4.4,0,0,0-3.126,2.308c-.338.854,0,1.406.5,1.51" fill="#111"/>
            <path id="Trazado_731074" data-name="Trazado 731074" d="M106.993,37.7a2.236,2.236,0,0,1,2.768,0" fill="#e8a185"/>
            <path id="Trazado_731075" data-name="Trazado 731075" d="M106.974,38.2a.5.5,0,0,1-.365-.18.5.5,0,0,1,.064-.7,2.72,2.72,0,0,1,3.391-.014.5.5,0,0,1-.607.8,1.712,1.712,0,0,0-2.144-.012.5.5,0,0,1-.339.115" fill="#e06a4b"/>
            <path id="Trazado_731076" data-name="Trazado 731076" d="M112.888,32.343l.756,2.625a1.886,1.886,0,0,0,2.336,1.291.945.945,0,0,1,1.168.646,3.053,3.053,0,0,1-2.089,3.777L114,40.988" fill="#e8a185"/>
            <path id="Trazado_731077" data-name="Trazado 731077" d="M113.977,41.488a.5.5,0,0,1-.119-.98l1.063-.306a2.556,2.556,0,0,0,1.747-3.158.444.444,0,0,0-.549-.3,2.388,2.388,0,0,1-2.955-1.633l-.756-2.625a.5.5,0,0,1,.961-.277l.756,2.625a1.387,1.387,0,0,0,1.717.949,1.444,1.444,0,0,1,1.786.988,3.555,3.555,0,0,1-2.43,4.4l-1.063.307a.507.507,0,0,1-.158.019" fill="#e06a4b"/>
            <path id="Trazado_731078" data-name="Trazado 731078" d="M102.609,41a2.359,2.359,0,0,1-2.231-1.958l-.743-4.368a2.357,2.357,0,0,1,1.927-2.717l7.3-1.243a2.355,2.355,0,0,1,2.716,1.928l.743,4.367A2.358,2.358,0,0,1,110.4,39.73l-7.3,1.242a2.36,2.36,0,0,1-.486.032m6.7-9.318a1.331,1.331,0,0,0-.28.018l-7.3,1.242a1.359,1.359,0,0,0-1.11,1.564l.743,4.368a1.359,1.359,0,0,0,1.564,1.109l7.3-1.243a1.358,1.358,0,0,0,1.109-1.563l-.743-4.367a1.359,1.359,0,0,0-1.284-1.128" fill="#fff"/>
            <path id="Trazado_731079" data-name="Trazado 731079" d="M111.417,35.266a.5.5,0,0,1-.306-.879,3.439,3.439,0,0,1,2.976-.646.5.5,0,0,1-.269.964,2.461,2.461,0,0,0-2.056.441.5.5,0,0,1-.345.12" fill="#fff"/>
            <path id="Trazado_731080" data-name="Trazado 731080" d="M100.182,35.521a.464.464,0,0,1-.11-.016L88.771,32.5a.5.5,0,1,1,.256-.966l11.3,3.005a.5.5,0,0,1-.146.982" fill="#fff"/>
            <path id="Trazado_731081" data-name="Trazado 731081" d="M79.519,49.6c-.072,0-.143-.009-.214-.015a3.283,3.283,0,0,1-2.927-3.595h0A3.279,3.279,0,1,1,79.519,49.6m-2.146-3.509a2.281,2.281,0,0,0,2.034,2.5,2.279,2.279,0,0,0,2.5-2.031,2.279,2.279,0,0,0-4.534-.468" fill="#fff"/>
            <path id="Trazado_731082" data-name="Trazado 731082" d="M52.385,90.812,40.848,143.956a12.507,12.507,0,0,0,16.477,14.413l11.408-29.295Z" fill="#e8a185"/>
            <path id="Trazado_731083" data-name="Trazado 731083" d="M158.822,124.559a.5.5,0,0,1-.5-.488,18.424,18.424,0,0,0-2.35-8.541c-.52-.923-1.134-1.824-1.727-2.694a31.523,31.523,0,0,1-2.131-3.438,19.968,19.968,0,0,1-1.967-9.146,14.591,14.591,0,0,1,.885-5.432c1.51-3.82,5.421-6.716,10.207-7.558a35.562,35.562,0,0,1,5.311-.4,28.653,28.653,0,0,0,6.158-.591,17.424,17.424,0,0,0,9.852-7.194c.883-1.262,1.655-2.644,2.4-3.98a36.465,36.465,0,0,1,3.316-5.211,9.529,9.529,0,0,1,3.1-2.26,7.859,7.859,0,0,1,.395-3.254.5.5,0,0,1,.948.317,7.051,7.051,0,0,0-.375,2.476q.639-.287,1.36-.566a3.41,3.41,0,0,1,3.867.985,3.346,3.346,0,0,1,.361,3.9,5.845,5.845,0,0,1-1.96,2.042,2.579,2.579,0,0,1,.046.73,1.564,1.564,0,0,1-.523,1.056,1.006,1.006,0,0,1-.755.227.977.977,0,0,1-.766-.566,1.319,1.319,0,0,1,.059-1.236,2.038,2.038,0,0,1,.712-.663,4.031,4.031,0,0,0-.54-.743c-.216-.238-.449-.461-.682-.684a9.631,9.631,0,0,1-1.065-1.136,5.389,5.389,0,0,1-.9-1.857,8.2,8.2,0,0,0-2.514,1.858,35.622,35.622,0,0,0-3.22,5.07c-.759,1.357-1.544,2.762-2.455,4.065a18.421,18.421,0,0,1-10.432,7.592,29.4,29.4,0,0,1-6.374.62,34.8,34.8,0,0,0-5.162.38c-4.446.782-8.067,3.441-9.45,6.94a13.664,13.664,0,0,0-.815,5.068,18.975,18.975,0,0,0,1.86,8.691,30.507,30.507,0,0,0,2.064,3.326c.6.889,1.231,1.807,1.772,2.768a19.412,19.412,0,0,1,2.479,9.006.5.5,0,0,1-.487.513Zm36.209-50.452a.715.715,0,0,0-.141.163.319.319,0,0,0,0,.3,1.127,1.127,0,0,0,.134-.386c0-.025,0-.05,0-.074m-2.546-5.9a4.478,4.478,0,0,0,.777,1.709,8.8,8.8,0,0,0,.958,1.016c.25.239.5.479.733.736a4.964,4.964,0,0,1,.661.909,4.889,4.889,0,0,0,1.46-1.59,2.334,2.334,0,0,0-.258-2.749,2.394,2.394,0,0,0-2.744-.7q-.854.332-1.587.672" fill="#ff8e1e"/>
            <path id="Trazado_731084" data-name="Trazado 731084" d="M193.273,71.739a1.466,1.466,0,0,0,.44,2.027c.681.438,25.177,14.722,25.108,14.406S195.981,71.737,195.3,71.3a1.466,1.466,0,0,0-2.027.441m3.422,2.2c-.179.278-.871.153-1.545-.281s-1.075-1.011-.9-1.289.871-.153,1.545.281,1.075,1.011.9,1.289" fill="#fff"/>
            <path id="Trazado_731085" data-name="Trazado 731085" d="M212.2,84.907c-.2-2.776-2.474-3.063-4.689-2.76,1.481-.5,2.7-1.431,2.293-3.281-1.6-5.194-7.716-2.013-11.6-.562-1.785.817-3.426,1.543-4.965,2.211a16.1,16.1,0,0,0,1.054-5.635,2.048,2.048,0,0,0-.7-1.649,1.541,1.541,0,0,0-1.373-.093,4.211,4.211,0,0,0-1.193.772c-3.411,2.841-11.664,12.882-11.664,12.882a29.893,29.893,0,0,0-2.972,5.66l-26.2,27.759-6.115-18.827a43.326,43.326,0,0,0-21.163-25.026l-2.931,48.074,4.318,17.043,6.178,12.9a19.418,19.418,0,0,0,33.136.723l26.934-45.215.393-.607,15.033-8.171c2.881-1.382,3.823-5.38,1.4-5.631,2.438-.466,4.945-1.851,4.066-4.771-.3-1.67-1.559-2.023-2.98-1.934,2.219-.482,4.291-1.379,3.746-3.858" fill="#e8a185"/>
            <g id="Grupo_986862" data-name="Grupo 986862" opacity="0.36">
              <g id="Grupo_986861" data-name="Grupo 986861">
                <g id="Grupo_986860" data-name="Grupo 986860" clip-path="url(#clip-path-4)">
                  <path id="Trazado_731086" data-name="Trazado 731086" d="M193.234,80.515l-8.3,4.48s7.624-7.2,9.2-7.872Z" fill="#e06a4b"/>
                </g>
              </g>
            </g>
            <path id="Trazado_731087" data-name="Trazado 731087" d="M202.358,84.757a.5.5,0,0,1-.2-.957,58.354,58.354,0,0,1,6.1-2.421.5.5,0,1,1,.143.99,57.1,57.1,0,0,0-5.833,2.345.5.5,0,0,1-.2.043" fill="#e06a4b"/>
            <path id="Trazado_731088" data-name="Trazado 731088" d="M204.2,91.145a.5.5,0,0,1-.2-.96l4.709-2a.5.5,0,0,1,.39.92l-4.709,2a.51.51,0,0,1-.195.039" fill="#e06a4b"/>
            <path id="Trazado_731089" data-name="Trazado 731089" d="M204.8,96.99a.5.5,0,0,1-.186-.964L207.177,95a.5.5,0,0,1,.371.929l-2.559,1.02a.492.492,0,0,1-.186.036" fill="#e06a4b"/>
            <path id="Trazado_731090" data-name="Trazado 731090" d="M146.472,125.017a.5.5,0,0,1-.374-.832l5.668-6.376a.5.5,0,1,1,.747.664l-5.667,6.376a.5.5,0,0,1-.374.168" fill="#e06a4b"/>
            <path id="Trazado_731091" data-name="Trazado 731091" d="M51.414,91.972l6.342,40.559a2.913,2.913,0,0,0,3.609,2.37l-6.6-47.89-2.257,1.938a3.268,3.268,0,0,0-1.093,3.023" fill="#111"/>
            <path id="Trazado_731092" data-name="Trazado 731092" d="M78.232,70.7l-3.26.415c-12.781,1.628-21.618,11.3-20.563,19.559l6.219,42.235L52.9,174.416a2.623,2.623,0,0,0,2.593,3.1l73.414-.317a3.521,3.521,0,0,0,3.41-4.34l-11.408-47.753,1.993-48.751L108.458,70.7Z" fill="#eb8d2e"/>
            <path id="Trazado_731093" data-name="Trazado 731093" d="M105.882,75.543H79.3a2.3,2.3,0,0,1-2.289-2.288v-5.1A2.3,2.3,0,0,1,79.3,65.861h26.585a2.3,2.3,0,0,1,2.287,2.289v5.1a2.3,2.3,0,0,1-2.287,2.288" fill="#111"/>
            <path id="Trazado_731094" data-name="Trazado 731094" d="M122.309,75.543,118.5,125.334l1.918,1.255,4.685-49.465Z" fill="#111"/>
          </g>
        </g>
      </g>
    </g>
  </g>
</svg>
