<svg xmlns="http://www.w3.org/2000/svg" width="118.494" height="112.823" viewBox="0 0 118.494 112.823">
  <g id="Grupo_986732" data-name="Grupo 986732" transform="translate(-426 -1598)">
    <rect id="Rectángulo_338875" data-name="Rectángulo 338875" width="118.494" height="112.823" rx="10" transform="translate(426 1598)" fill="#ea526f"/>
    <g id="Grupo_986731" data-name="Grupo 986731" transform="translate(13957.337 12190.966)">
      <path id="Intersección_1" data-name="Intersección 1" d="M0,22.006,38.9,0,16.908,38.868A44.046,44.046,0,0,1,0,22.006Z" transform="translate(-13509.838 -10537.784)" fill="#d8dadc"/>
      <path id="Intersección_4" data-name="Intersección 4" d="M0,22.006,38.9,0,16.908,38.868A44.046,44.046,0,0,1,0,22.006Z" transform="matrix(0.469, -0.883, 0.883, 0.469, -13489.944, -10503.728)" fill="#b2b4b5"/>
      <path id="Intersección_2" data-name="Intersección 2" d="M0,22.006,38.9,0,16.908,38.868A44.046,44.046,0,0,1,0,22.006Z" transform="translate(-13504.546 -10517.871) rotate(-31)" fill="#c7c7c9"/>
      <path id="Intersección_3" data-name="Intersección 3" d="M0,22.006,38.9,0,16.908,38.868A44.046,44.046,0,0,1,0,22.006Z" transform="translate(-13469.877 -10499.051) rotate(-93)" fill="#9d9fa0"/>
      <path id="Intersección_1-2" data-name="Intersección 1" d="M0,23,37.3,0,14.152,37.81A43.514,43.514,0,0,1,0,23Z" transform="matrix(-0.545, -0.839, 0.839, -0.545, -13451.103, -10505.424)" fill="#87898a"/>
      <path id="Intersección_4-2" data-name="Intersección 4" d="M0,18.618,39.941,0,14.526,36.037A43.231,43.231,0,0,1,0,18.618Z" transform="translate(-13431.477 -10539.425) rotate(175)" fill="#58585b"/>
      <path id="Intersección_2-2" data-name="Intersección 2" d="M0,20.092,38.8,0,13.887,36.648A43.568,43.568,0,0,1,0,20.092Z" transform="translate(-13436.503 -10519.416) rotate(-154)" fill="#6f7173"/>
      <path id="Intersección_3-2" data-name="Intersección 3" d="M11.165,34.69A43.044,43.044,0,0,1,0,19.948L40.581,0,15.8,38.155A44.718,44.718,0,0,1,11.165,34.69Z" transform="translate(-13437.413 -10556.967) rotate(147)" fill="#38373a"/>
      <path id="Intersección_1-3" data-name="Intersección 1" d="M0,16.861,38.9,38.868,16.908,0A44.046,44.046,0,0,0,0,16.861Z" transform="matrix(0.53, -0.848, 0.848, 0.53, -13524.337, -10524.595)" fill="#d8dadc"/>
      <path id="Intersección_4-3" data-name="Intersección 4" d="M0,16.861,38.9,38.868,16.908,0A44.046,44.046,0,0,0,0,16.861Z" transform="matrix(0.998, 0.07, -0.07, 0.998, -13507.004, -10577.69)" fill="#ececee"/>
      <path id="Intersección_5" data-name="Intersección 5" d="M0,11.936A42.921,42.921,0,0,1,15.823,0L33.534,39.934Z" transform="translate(-13485.695 -10587.096) rotate(24)" fill="#fff"/>
      <path id="Intersección_2-3" data-name="Intersección 2" d="M0,16.861,38.9,38.868,16.908,0A44.046,44.046,0,0,0,0,16.861Z" transform="matrix(0.891, -0.454, 0.454, 0.891, -13523.104, -10553.67)" fill="#d8dadc"/>
      <path id="Unión_3" data-name="Unión 3" d="M22.237,81.654l.029-.051A44.049,44.049,0,0,1,5.615,64.891l-.2.111A44.041,44.041,0,0,1,.059,42.017l-.059,0a44.042,44.042,0,0,1,7.411-22.7l.122.081A44.051,44.051,0,0,1,25.312,4.15l.045.1A42.912,42.912,0,0,1,44.209,0V.3a44.744,44.744,0,0,1,5.571.379A43.045,43.045,0,0,1,67.171,6.964l-.052.087A43.227,43.227,0,0,1,82.191,22.412l.338-.193a43.564,43.564,0,0,1,5.225,20.573l.593-.016a43.517,43.517,0,0,1-4.716,19.937L81.924,61.9l1.578.786A44.048,44.048,0,0,1,67.548,80.459l-.032-.05a44.045,44.045,0,0,1-22.105,6.843l0,.146c-.465.015-.932.022-1.4.022A44.053,44.053,0,0,1,22.237,81.654Zm1.714-.486a42.808,42.808,0,0,0,20.178,5L43.111,47.3Zm22.2,4.8A42.812,42.812,0,0,0,66.026,79.86L45.136,47.071ZM7.331,65.35A42.8,42.8,0,0,0,22.051,80.029L41.2,46.191ZM67.924,78.718A42.8,42.8,0,0,0,81.812,63.248L47.019,45.9ZM2.355,53.454A42.775,42.775,0,0,0,5.927,63.3L40.12,44.731l-38.841-1.7A42.769,42.769,0,0,0,2.355,53.454ZM49.3,45.068,83.05,61.052a42.617,42.617,0,0,0,2.92-8.348,41.966,41.966,0,0,0,1.116-8.641Zm-.32-2.2,37.506-.9a42.314,42.314,0,0,0-4.471-18.011ZM3.328,30.542A42.754,42.754,0,0,0,1.32,40.819l38.872,1.7L7.773,21.056A42.763,42.763,0,0,0,3.328,30.542Zm44.3,10.739,33-19.046A41.973,41.973,0,0,0,66.806,8.328Zm-2.378-.028L65.461,7.386A41.8,41.8,0,0,0,49.616,1.923c-1.444-.189-2.906-.306-4.362-.35ZM16.031,11.672a42.763,42.763,0,0,0-7.014,7.774L41.463,40.921,24.726,5.83A42.731,42.731,0,0,0,16.031,11.672Zm18.519-9.34a41.891,41.891,0,0,0-7.968,2.723L42.9,38.308l.053-37.044A41.527,41.527,0,0,0,34.549,2.331Z" transform="translate(-13515.448 -10580.662)"/>
    </g>
  </g>
</svg>
