<svg xmlns="http://www.w3.org/2000/svg" xmlns:xlink="http://www.w3.org/1999/xlink" width="197" height="197" viewBox="0 0 197 197">
  <defs>
    <filter id="Trazado_113939" x="0" y="0" width="197" height="197" filterUnits="userSpaceOnUse">
      <feOffset input="SourceAlpha"/>
      <feGaussianBlur stdDeviation="20" result="blur"/>
      <feFlood flood-color="#402d27" flood-opacity="0.435"/>
      <feComposite operator="in" in2="blur"/>
      <feComposite in="SourceGraphic"/>
    </filter>
    <clipPath id="clip-path">
      <rect id="Rectángulo_344674" data-name="Rectángulo 344674" width="56.054" height="64.055" fill="none"/>
    </clipPath>
  </defs>
  <g id="a2" transform="translate(-1173.333 -124.355)">
    <g transform="matrix(1, 0, 0, 1, 1173.33, 124.36)" filter="url(#Trazado_113939)">
      <path id="Trazado_113939-2" data-name="Trazado 113939" d="M38.5,0A38.5,38.5,0,1,1,0,38.5,38.5,38.5,0,0,1,38.5,0Z" transform="translate(60 60)" fill="#ea526f"/>
    </g>
    <g id="Grupo_986763" data-name="Grupo 986763" transform="translate(1242.7 188.3)">
      <g id="Grupo_986762" data-name="Grupo 986762" transform="translate(0 0)" clip-path="url(#clip-path)">
        <path id="Trazado_730728" data-name="Trazado 730728" d="M49.6,43.579l-.515-.446a2.763,2.763,0,0,0-1.11-.586c-.473-.123-1.054-.212-1.267.008-.383.4.645.342.94.982s1.952.041,1.952.041" transform="translate(-17.328 -15.767)" fill="#ff8933"/>
        <path id="Trazado_730729" data-name="Trazado 730729" d="M64.363,27.46c-1.267-.537-2.165-.924-2.875,2.192L60.2,34.634a1.92,1.92,0,0,1-1.441,1.206l-8.634,1.69a1.057,1.057,0,0,0-.866,1.145,1.117,1.117,0,0,0,1.2.949l10.993-.73a1.6,1.6,0,0,0,1.316-.844l.1-.2s1.81-4.22,1.842-4.3c.417-1.132.78-5.612-.347-6.089" transform="translate(-18.304 -10.07)" fill="#f47925"/>
        <path id="Trazado_730730" data-name="Trazado 730730" d="M50.562,44.8c.208-.555-1.449-1.115-1.811-1.249a2.239,2.239,0,0,0-.987-.256c-.319.048-.535.323-.835.413a.861.861,0,0,1-.882-.315c-.21-.2-.454-.427-.737-.2a1.942,1.942,0,0,0-.439.848.9.9,0,0,0,.076.729,2.024,2.024,0,0,0,.577.747,6.125,6.125,0,0,0,1.008.415,6.217,6.217,0,0,0,1.915-.144c.262-.1.522-.2.788-.289.394-.126,1.164-.268,1.327-.7" transform="translate(-16.66 -16.02)" fill="#ff8933"/>
        <path id="Trazado_730731" data-name="Trazado 730731" d="M46.8,44.735c.021-.062,0-.1-.039-.1l-.241-.05a1.49,1.49,0,0,1-.9-.574l-.262-.358a.069.069,0,0,0-.1-.014.065.065,0,0,0-.018.093l.262.358a1.622,1.622,0,0,0,.981.625l.241.051a.073.073,0,0,0,.072-.026" transform="translate(-16.81 -16.213)" fill="#d35600"/>
        <path id="Trazado_730732" data-name="Trazado 730732" d="M46.359,45.634c.021-.062,0-.1-.039-.1l-.241-.05a1.49,1.49,0,0,1-.9-.574l-.262-.358a.069.069,0,0,0-.1-.014.065.065,0,0,0-.017.094l.261.357a1.623,1.623,0,0,0,.981.626l.241.05a.073.073,0,0,0,.072-.026" transform="translate(-16.647 -16.547)" fill="#d35600"/>
        <path id="Trazado_730733" data-name="Trazado 730733" d="M67.823,39.324l2.543,1.69.581-1.086Z" transform="translate(-25.208 -14.616)" fill="#603225"/>
        <path id="Trazado_730734" data-name="Trazado 730734" d="M67.389,32.634l3.653,2.08s2.613-6.332-.127-7.822c-2.416-1.147-3.52,1.925-3.526,5.742" transform="translate(-25.047 -9.905)" fill="#fff"/>
        <path id="Trazado_730735" data-name="Trazado 730735" d="M66.723,37.022l.56-1.861L71.126,37.3l-.557,1.539a5.605,5.605,0,0,1-3.845-1.814" transform="translate(-24.799 -13.068)" fill="#fff"/>
        <path id="Trazado_730736" data-name="Trazado 730736" d="M68.885,33.587q-.469-.148-.92-.339-.38-.159-.746-.348l-.15-.077-.03.114.128.066q.379.2.77.358a10.756,10.756,0,0,0,1.38.472Zm3.008-4.748q-.032-.206-.08-.4a2.443,2.443,0,0,0-1.231-1.68,2.187,2.187,0,0,0-.951-.27H69.58a1.459,1.459,0,0,0-.75.212,4.276,4.276,0,0,0-1.461,2.7,17.588,17.588,0,0,0-.394,3.375l-.052-.026a.057.057,0,0,0-.081.035,9.483,9.483,0,0,0-.21,1.007.055.055,0,0,0,.009.042c.039.057.08.111.123.164a3.676,3.676,0,0,0,1.145.91,7.32,7.32,0,0,0,2.283.709l.063.008c.1.014.175.022.216.026l.041,0a.058.058,0,0,0,.058-.035A21.7,21.7,0,0,0,71.736,31.8a8.849,8.849,0,0,0,.156-2.965m-5.048,4.442c.04-.2.072-.325.09-.4l.1.053.128.066q.379.2.77.358a10.756,10.756,0,0,0,1.38.472c.306.083.616.151.929.208l.238.042.338.06.123.022.036.006c-.237.711-.445,1.222-.5,1.363l-.167-.019-.074-.01a6.746,6.746,0,0,1-2.624-.906,3.246,3.246,0,0,1-.815-.744q-.026-.034-.051-.07c.035-.2.067-.368.094-.5Zm4.676-1.019c-.151.657-.328,1.263-.5,1.776-.007.023-.04.018-.04.018l-.116-.021-.374-.067-.227-.04a10.935,10.935,0,0,1-1.382-.341q-.469-.148-.92-.339-.38-.159-.746-.348l-.15-.077a.059.059,0,0,0,.022-.045v-.041c0-.057,0-.162.011-.309,0-.048.005-.1.008-.155a17.315,17.315,0,0,1,.381-2.855,4.162,4.162,0,0,1,1.4-2.614,1.336,1.336,0,0,1,.713-.195,1.557,1.557,0,0,1,.369.045,2.4,2.4,0,0,1,.558.21,2.374,2.374,0,0,1,1.185,1.681,8.155,8.155,0,0,1-.09,3.234c-.03.155-.063.309-.1.46,0,.008,0,.015-.006.022m-2.636,1.325q-.469-.148-.92-.339-.38-.159-.746-.348l-.15-.077-.03.114.128.066q.379.2.77.358a10.756,10.756,0,0,0,1.38.472Z" transform="translate(-24.765 -9.847)" fill="#4c56b5"/>
        <rect id="Rectángulo_344664" data-name="Rectángulo 344664" width="7.433" height="64.055" transform="translate(1.096)" fill="#bfad7f"/>
        <rect id="Rectángulo_344665" data-name="Rectángulo 344665" width="36.606" height="1.834" transform="translate(0.179 8.714)" fill="#d6c9ad"/>
        <rect id="Rectángulo_344666" data-name="Rectángulo 344666" width="36.606" height="1.835" transform="translate(0.179 18.501)" fill="#d6c9ad"/>
        <rect id="Rectángulo_344667" data-name="Rectángulo 344667" width="36.606" height="1.834" transform="translate(0.179 28.289)" fill="#d6c9ad"/>
        <rect id="Rectángulo_344668" data-name="Rectángulo 344668" width="36.606" height="1.834" transform="translate(0.179 38.077)" fill="#d6c9ad"/>
        <rect id="Rectángulo_344669" data-name="Rectángulo 344669" width="36.606" height="1.835" transform="translate(0.179 47.864)" fill="#d6c9ad"/>
        <rect id="Rectángulo_344670" data-name="Rectángulo 344670" width="36.606" height="1.835" transform="translate(0.179 57.652)" fill="#d6c9ad"/>
        <path id="Trazado_730737" data-name="Trazado 730737" d="M33.7,87.564v2.669H7.1l-.079,0a1.6,1.6,0,0,1-1-.376,1.037,1.037,0,0,1-.264-.349.837.837,0,0,1-.079-.355v-.5A1.287,1.287,0,0,1,7.1,87.564Z" transform="translate(-2.109 -32.545)" fill="#fff"/>
        <path id="Trazado_730738" data-name="Trazado 730738" d="M7.974,87.564l-1.909,2.29A1.037,1.037,0,0,1,5.8,89.5l1.62-1.941Z" transform="translate(-2.156 -32.545)" fill="#a3aeff"/>
        <path id="Trazado_730739" data-name="Trazado 730739" d="M10.59,87.564,8.365,90.233H7.89l-.079,0,2.225-2.667Z" transform="translate(-2.903 -32.545)" fill="#a3aeff"/>
        <path id="Trazado_730740" data-name="Trazado 730740" d="M13.563,87.564l-2.224,2.669h-.555l2.226-2.669Z" transform="translate(-4.008 -32.545)" fill="#a3aeff"/>
        <path id="Trazado_730741" data-name="Trazado 730741" d="M16.537,87.564l-2.226,2.669h-.555l2.226-2.669Z" transform="translate(-5.113 -32.545)" fill="#a3aeff"/>
        <path id="Trazado_730742" data-name="Trazado 730742" d="M19.51,87.564l-2.225,2.669H16.73l2.226-2.669Z" transform="translate(-6.218 -32.545)" fill="#a3aeff"/>
        <path id="Trazado_730743" data-name="Trazado 730743" d="M22.484,87.564l-2.226,2.669H19.7l2.226-2.669Z" transform="translate(-7.323 -32.545)" fill="#a3aeff"/>
        <path id="Trazado_730744" data-name="Trazado 730744" d="M25.458,87.564l-2.226,2.669h-.555L24.9,87.564Z" transform="translate(-8.429 -32.545)" fill="#a3aeff"/>
        <path id="Trazado_730745" data-name="Trazado 730745" d="M28.431,87.564l-2.225,2.669h-.555l2.226-2.669Z" transform="translate(-9.534 -32.545)" fill="#a3aeff"/>
        <path id="Trazado_730746" data-name="Trazado 730746" d="M31.405,87.564,29.18,90.233h-.555l2.226-2.669Z" transform="translate(-10.639 -32.545)" fill="#a3aeff"/>
        <path id="Trazado_730747" data-name="Trazado 730747" d="M34.379,87.564l-2.225,2.669H31.6l2.226-2.669Z" transform="translate(-11.744 -32.545)" fill="#a3aeff"/>
        <path id="Trazado_730748" data-name="Trazado 730748" d="M37.352,87.564l-2.226,2.669h-.555L36.8,87.564Z" transform="translate(-12.849 -32.545)" fill="#a3aeff"/>
        <path id="Trazado_730749" data-name="Trazado 730749" d="M40.326,87.564,38.1,90.233h-.555l2.226-2.669Z" transform="translate(-13.955 -32.545)" fill="#a3aeff"/>
        <path id="Trazado_730750" data-name="Trazado 730750" d="M43.3,87.564l-2.226,2.669h-.555l2.226-2.669Z" transform="translate(-15.06 -32.545)" fill="#a3aeff"/>
        <path id="Trazado_730751" data-name="Trazado 730751" d="M46.274,87.564l-2.226,2.669h-.555l2.226-2.669Z" transform="translate(-16.165 -32.545)" fill="#a3aeff"/>
        <path id="Trazado_730752" data-name="Trazado 730752" d="M48.866,87.564v.457l-1.844,2.211h-.555l2.227-2.669Z" transform="translate(-17.27 -32.545)" fill="#a3aeff"/>
        <path id="Trazado_730753" data-name="Trazado 730753" d="M33.705,83.345H7.1a1.286,1.286,0,0,0-1.421,1.082v.5A1.286,1.286,0,0,0,7.1,86.013H33.705Z" transform="translate(-2.11 -30.977)" fill="#a3aeff"/>
        <path id="Trazado_730754" data-name="Trazado 730754" d="M38.044,57.633H4.472a1.083,1.083,0,1,0,0,2.165H38.044Z" transform="translate(-1.26 -21.421)" fill="#f2a501"/>
        <path id="Trazado_730755" data-name="Trazado 730755" d="M38.446,67.584H6.017A1.547,1.547,0,0,0,4.47,69.131V69.4a1.547,1.547,0,0,0,1.547,1.547H38.446Z" transform="translate(-1.661 -25.119)" fill="#ffaea0"/>
        <path id="Trazado_730756" data-name="Trazado 730756" d="M5.559,68.152l-.36.36a.147.147,0,0,0,.208.207l.36-.359a.147.147,0,1,0-.208-.208" transform="translate(-1.916 -25.314)" fill="#e0694e"/>
        <path id="Trazado_730757" data-name="Trazado 730757" d="M6.526,68.152l-.36.36a.147.147,0,0,0,.207.207l.361-.359a.147.147,0,0,0-.208-.208" transform="translate(-2.276 -25.314)" fill="#e0694e"/>
        <path id="Trazado_730758" data-name="Trazado 730758" d="M7.542,68.152l-.36.36a.147.147,0,0,0,.208.207l.36-.359a.147.147,0,0,0-.208-.208" transform="translate(-2.653 -25.314)" fill="#e0694e"/>
        <path id="Trazado_730759" data-name="Trazado 730759" d="M8.233,69.834l-.36.36a.147.147,0,0,0,.208.207l.36-.359a.147.147,0,0,0-.208-.208" transform="translate(-2.91 -25.939)" fill="#e0694e"/>
        <path id="Trazado_730760" data-name="Trazado 730760" d="M9.2,69.834l-.36.36a.147.147,0,0,0,.208.207l.36-.359a.147.147,0,0,0-.208-.208" transform="translate(-3.269 -25.939)" fill="#e0694e"/>
        <path id="Trazado_730761" data-name="Trazado 730761" d="M10.216,69.834l-.36.36a.147.147,0,0,0,.208.207l.359-.359a.147.147,0,0,0-.207-.208" transform="translate(-3.647 -25.939)" fill="#e0694e"/>
        <path id="Trazado_730762" data-name="Trazado 730762" d="M11.393,71.216l-.36.359a.147.147,0,0,0,.208.208l.359-.36a.147.147,0,1,0-.207-.207" transform="translate(-4.085 -26.453)" fill="#e0694e"/>
        <path id="Trazado_730763" data-name="Trazado 730763" d="M12.359,71.216l-.36.359a.147.147,0,0,0,.208.208l.36-.36a.147.147,0,1,0-.208-.207" transform="translate(-4.444 -26.453)" fill="#e0694e"/>
        <path id="Trazado_730764" data-name="Trazado 730764" d="M13.376,71.216l-.36.359a.147.147,0,0,0,.207.208l.36-.36a.147.147,0,0,0-.207-.207" transform="translate(-4.822 -26.453)" fill="#e0694e"/>
        <path id="Trazado_730765" data-name="Trazado 730765" d="M12.879,68.152l-.36.36a.147.147,0,0,0,.208.207l.36-.359a.147.147,0,1,0-.208-.208" transform="translate(-4.637 -25.314)" fill="#e0694e"/>
        <path id="Trazado_730766" data-name="Trazado 730766" d="M13.845,68.152l-.359.36a.147.147,0,0,0,.207.207l.36-.359a.147.147,0,1,0-.208-.208" transform="translate(-4.996 -25.314)" fill="#e0694e"/>
        <path id="Trazado_730767" data-name="Trazado 730767" d="M14.862,68.152l-.36.36a.147.147,0,0,0,.208.207l.36-.359a.147.147,0,1,0-.208-.208" transform="translate(-5.374 -25.314)" fill="#e0694e"/>
        <path id="Trazado_730768" data-name="Trazado 730768" d="M15.553,69.834l-.36.36a.147.147,0,0,0,.207.207l.36-.359a.147.147,0,0,0-.207-.208" transform="translate(-5.631 -25.939)" fill="#e0694e"/>
        <path id="Trazado_730769" data-name="Trazado 730769" d="M16.519,69.834l-.36.36a.147.147,0,0,0,.208.207l.359-.359a.147.147,0,1,0-.207-.208" transform="translate(-5.99 -25.939)" fill="#e0694e"/>
        <path id="Trazado_730770" data-name="Trazado 730770" d="M17.536,69.834l-.36.36a.147.147,0,0,0,.207.207l.36-.359a.147.147,0,1,0-.207-.208" transform="translate(-6.368 -25.939)" fill="#e0694e"/>
        <path id="Trazado_730771" data-name="Trazado 730771" d="M18.713,71.216l-.36.359a.147.147,0,1,0,.207.208l.36-.36a.147.147,0,0,0-.207-.207" transform="translate(-6.805 -26.453)" fill="#e0694e"/>
        <path id="Trazado_730772" data-name="Trazado 730772" d="M19.679,71.216l-.36.359a.147.147,0,0,0,.208.208l.359-.36a.147.147,0,1,0-.207-.207" transform="translate(-7.164 -26.453)" fill="#e0694e"/>
        <path id="Trazado_730773" data-name="Trazado 730773" d="M20.7,71.216l-.36.359a.147.147,0,0,0,.207.208l.36-.36a.147.147,0,1,0-.207-.207" transform="translate(-7.542 -26.453)" fill="#e0694e"/>
        <path id="Trazado_730774" data-name="Trazado 730774" d="M20.2,68.152l-.361.36a.147.147,0,0,0,.207.207l.361-.359a.149.149,0,0,0,0-.208.147.147,0,0,0-.207,0" transform="translate(-7.358 -25.314)" fill="#e0694e"/>
        <path id="Trazado_730775" data-name="Trazado 730775" d="M21.166,68.152l-.36.36a.147.147,0,1,0,.208.207l.36-.359a.147.147,0,1,0-.208-.208" transform="translate(-7.717 -25.314)" fill="#e0694e"/>
        <path id="Trazado_730776" data-name="Trazado 730776" d="M22.182,68.152l-.36.36a.147.147,0,0,0,.207.207l.36-.359a.147.147,0,0,0-.207-.208" transform="translate(-8.095 -25.314)" fill="#e0694e"/>
        <path id="Trazado_730777" data-name="Trazado 730777" d="M22.873,69.834l-.36.36a.147.147,0,0,0,.208.207l.36-.359a.147.147,0,0,0-.208-.208" transform="translate(-8.351 -25.939)" fill="#e0694e"/>
        <path id="Trazado_730778" data-name="Trazado 730778" d="M23.84,69.834l-.36.36a.147.147,0,0,0,.207.207l.36-.359a.147.147,0,0,0-.207-.208" transform="translate(-8.711 -25.939)" fill="#e0694e"/>
        <path id="Trazado_730779" data-name="Trazado 730779" d="M24.856,69.834l-.36.36a.147.147,0,0,0,.208.207l.359-.359a.147.147,0,1,0-.207-.208" transform="translate(-9.088 -25.939)" fill="#e0694e"/>
        <path id="Trazado_730780" data-name="Trazado 730780" d="M26.033,71.216l-.36.359a.147.147,0,0,0,.208.208l.36-.36a.147.147,0,0,0-.208-.207" transform="translate(-9.526 -26.453)" fill="#e0694e"/>
        <path id="Trazado_730781" data-name="Trazado 730781" d="M27,71.216l-.36.359a.147.147,0,0,0,.207.208l.36-.36A.147.147,0,0,0,27,71.216" transform="translate(-9.885 -26.453)" fill="#e0694e"/>
        <path id="Trazado_730782" data-name="Trazado 730782" d="M28.016,71.216l-.36.359a.147.147,0,1,0,.208.208l.36-.36a.147.147,0,0,0-.208-.207" transform="translate(-10.263 -26.453)" fill="#e0694e"/>
        <path id="Trazado_730783" data-name="Trazado 730783" d="M27.519,68.152l-.359.36a.147.147,0,1,0,.207.207l.36-.359a.147.147,0,0,0-.208-.208" transform="translate(-10.079 -25.314)" fill="#e0694e"/>
        <path id="Trazado_730784" data-name="Trazado 730784" d="M28.486,68.152l-.36.36a.147.147,0,0,0,.208.207l.359-.359a.147.147,0,1,0-.207-.208" transform="translate(-10.438 -25.314)" fill="#e0694e"/>
        <path id="Trazado_730785" data-name="Trazado 730785" d="M29.5,68.152l-.36.36a.147.147,0,0,0,.208.207l.36-.359a.147.147,0,0,0-.208-.208" transform="translate(-10.815 -25.314)" fill="#e0694e"/>
        <path id="Trazado_730786" data-name="Trazado 730786" d="M30.193,69.834l-.36.36a.147.147,0,0,0,.208.207l.36-.359a.147.147,0,0,0-.208-.208" transform="translate(-11.072 -25.939)" fill="#e0694e"/>
        <path id="Trazado_730787" data-name="Trazado 730787" d="M31.159,69.834l-.36.36a.147.147,0,0,0,.208.207l.359-.359a.147.147,0,0,0-.207-.208" transform="translate(-11.431 -25.939)" fill="#e0694e"/>
        <path id="Trazado_730788" data-name="Trazado 730788" d="M32.176,69.834l-.36.36a.147.147,0,1,0,.208.207l.359-.359a.147.147,0,0,0-.207-.208" transform="translate(-11.809 -25.939)" fill="#e0694e"/>
        <path id="Trazado_730789" data-name="Trazado 730789" d="M33.353,71.216l-.36.359a.147.147,0,0,0,.208.208l.36-.36a.147.147,0,0,0-.208-.207" transform="translate(-12.246 -26.453)" fill="#e0694e"/>
        <path id="Trazado_730790" data-name="Trazado 730790" d="M34.32,71.216l-.36.359a.147.147,0,0,0,.208.208l.36-.36a.147.147,0,0,0-.208-.207" transform="translate(-12.606 -26.453)" fill="#e0694e"/>
        <path id="Trazado_730791" data-name="Trazado 730791" d="M35.336,71.216l-.36.359a.147.147,0,0,0,.208.208l.359-.36a.147.147,0,0,0-.207-.207" transform="translate(-12.983 -26.453)" fill="#e0694e"/>
        <path id="Trazado_730792" data-name="Trazado 730792" d="M34.84,68.152l-.36.36a.147.147,0,0,0,.208.207l.36-.359a.147.147,0,0,0-.208-.208" transform="translate(-12.799 -25.314)" fill="#e0694e"/>
        <path id="Trazado_730793" data-name="Trazado 730793" d="M35.806,68.152l-.36.36a.147.147,0,0,0,.207.207l.36-.359a.147.147,0,0,0-.207-.208" transform="translate(-13.158 -25.314)" fill="#e0694e"/>
        <path id="Trazado_730794" data-name="Trazado 730794" d="M36.823,68.152l-.36.36a.147.147,0,0,0,.208.207l.359-.359a.147.147,0,0,0-.207-.208" transform="translate(-13.536 -25.314)" fill="#e0694e"/>
        <path id="Trazado_730795" data-name="Trazado 730795" d="M37.513,69.834l-.36.36a.147.147,0,0,0,.207.207l.36-.359a.147.147,0,0,0-.207-.208" transform="translate(-13.793 -25.939)" fill="#e0694e"/>
        <path id="Trazado_730796" data-name="Trazado 730796" d="M38.48,69.834l-.36.36a.147.147,0,0,0,.207.207l.361-.359a.147.147,0,1,0-.208-.208" transform="translate(-14.152 -25.939)" fill="#e0694e"/>
        <path id="Trazado_730797" data-name="Trazado 730797" d="M39.5,69.834l-.359.36a.147.147,0,0,0,.207.207l.36-.359a.147.147,0,1,0-.208-.208" transform="translate(-14.53 -25.939)" fill="#e0694e"/>
        <path id="Trazado_730798" data-name="Trazado 730798" d="M40.674,71.216l-.36.359a.147.147,0,1,0,.207.208l.36-.36a.147.147,0,1,0-.207-.207" transform="translate(-14.967 -26.453)" fill="#e0694e"/>
        <path id="Trazado_730799" data-name="Trazado 730799" d="M41.64,71.216l-.36.359a.147.147,0,0,0,.208.208l.36-.36a.147.147,0,0,0-.208-.207" transform="translate(-15.327 -26.453)" fill="#e0694e"/>
        <path id="Trazado_730800" data-name="Trazado 730800" d="M42.656,71.216l-.36.359a.147.147,0,1,0,.208.208l.359-.36a.147.147,0,0,0-.207-.207" transform="translate(-15.704 -26.453)" fill="#e0694e"/>
        <path id="Trazado_730801" data-name="Trazado 730801" d="M42.16,68.152l-.36.36a.147.147,0,0,0,.208.207l.359-.359a.147.147,0,0,0-.207-.208" transform="translate(-15.52 -25.314)" fill="#e0694e"/>
        <path id="Trazado_730802" data-name="Trazado 730802" d="M43.126,68.152l-.36.36a.147.147,0,0,0,.208.207l.36-.359a.147.147,0,0,0-.208-.208" transform="translate(-15.879 -25.314)" fill="#e0694e"/>
        <path id="Trazado_730803" data-name="Trazado 730803" d="M44.143,68.152l-.36.36a.147.147,0,1,0,.207.207l.36-.359a.147.147,0,0,0-.207-.208" transform="translate(-16.257 -25.314)" fill="#e0694e"/>
        <path id="Trazado_730804" data-name="Trazado 730804" d="M44.833,69.834l-.36.36a.147.147,0,1,0,.208.207l.36-.359a.147.147,0,1,0-.208-.208" transform="translate(-16.513 -25.939)" fill="#e0694e"/>
        <path id="Trazado_730805" data-name="Trazado 730805" d="M45.8,69.834l-.359.36a.147.147,0,0,0,.207.207l.36-.359a.147.147,0,0,0-.208-.208" transform="translate(-16.873 -25.939)" fill="#e0694e"/>
        <path id="Trazado_730806" data-name="Trazado 730806" d="M46.816,69.834l-.36.36a.147.147,0,1,0,.208.207l.36-.359a.147.147,0,1,0-.208-.208" transform="translate(-17.25 -25.939)" fill="#e0694e"/>
        <path id="Trazado_730807" data-name="Trazado 730807" d="M47.993,71.216l-.36.359a.147.147,0,0,0,.208.208l.359-.36a.147.147,0,0,0-.207-.207" transform="translate(-17.688 -26.453)" fill="#e0694e"/>
        <path id="Trazado_730808" data-name="Trazado 730808" d="M48.96,71.216l-.359.359a.147.147,0,0,0,.207.208l.359-.36a.147.147,0,0,0-.207-.207" transform="translate(-18.047 -26.453)" fill="#e0694e"/>
        <path id="Trazado_730809" data-name="Trazado 730809" d="M49.976,71.216l-.36.359a.147.147,0,0,0,.208.208l.36-.36a.147.147,0,0,0-.208-.207" transform="translate(-18.425 -26.453)" fill="#e0694e"/>
        <path id="Trazado_730810" data-name="Trazado 730810" d="M49.48,68.152l-.36.36a.147.147,0,1,0,.208.207l.36-.359a.147.147,0,1,0-.208-.208" transform="translate(-18.24 -25.314)" fill="#e0694e"/>
        <path id="Trazado_730811" data-name="Trazado 730811" d="M50.447,68.152l-.36.36a.147.147,0,0,0,.207.207l.361-.359a.147.147,0,0,0-.208-.208" transform="translate(-18.6 -25.314)" fill="#e0694e"/>
        <path id="Trazado_730812" data-name="Trazado 730812" d="M51.463,68.152l-.36.36a.147.147,0,1,0,.208.207l.36-.359a.147.147,0,0,0-.208-.208" transform="translate(-18.977 -25.314)" fill="#e0694e"/>
        <path id="Trazado_730813" data-name="Trazado 730813" d="M52.154,69.834l-.36.36A.147.147,0,0,0,52,70.4l.36-.359a.147.147,0,0,0-.208-.208" transform="translate(-19.234 -25.939)" fill="#e0694e"/>
        <path id="Trazado_730814" data-name="Trazado 730814" d="M53.12,69.834l-.36.36a.147.147,0,0,0,.208.207l.36-.359a.147.147,0,0,0-.208-.208" transform="translate(-19.593 -25.939)" fill="#e0694e"/>
        <path id="Trazado_730815" data-name="Trazado 730815" d="M54.136,69.834l-.361.36a.147.147,0,1,0,.208.207l.359-.359a.148.148,0,0,0,0-.208.146.146,0,0,0-.207,0" transform="translate(-19.971 -25.939)" fill="#e0694e"/>
        <path id="Trazado_730816" data-name="Trazado 730816" d="M55.314,71.216l-.36.359a.147.147,0,0,0,.208.208l.359-.36a.147.147,0,0,0-.207-.207" transform="translate(-20.409 -26.453)" fill="#e0694e"/>
        <path id="Trazado_730817" data-name="Trazado 730817" d="M56.28,71.216l-.36.359a.147.147,0,0,0,.208.208l.36-.36a.147.147,0,0,0-.208-.207" transform="translate(-20.768 -26.453)" fill="#e0694e"/>
        <path id="Trazado_730818" data-name="Trazado 730818" d="M57.3,71.216l-.36.359a.147.147,0,0,0,.207.208l.36-.36a.147.147,0,0,0-.207-.207" transform="translate(-21.146 -26.453)" fill="#e0694e"/>
        <path id="Trazado_730819" data-name="Trazado 730819" d="M56.8,68.152l-.36.36a.147.147,0,0,0,.208.207l.36-.359a.147.147,0,0,0-.208-.208" transform="translate(-20.961 -25.314)" fill="#e0694e"/>
        <path id="Trazado_730820" data-name="Trazado 730820" d="M57.766,68.152l-.359.36a.147.147,0,0,0,.207.207l.36-.359a.147.147,0,0,0-.208-.208" transform="translate(-21.32 -25.314)" fill="#e0694e"/>
        <path id="Trazado_730821" data-name="Trazado 730821" d="M58.482,68.655l-.06.06a.146.146,0,0,0,0,.208.149.149,0,0,0,.06.035Z" transform="translate(-21.698 -25.517)" fill="#e0694e"/>
        <path id="Trazado_730822" data-name="Trazado 730822" d="M38.044,26.384H4.472a1.083,1.083,0,0,0,0,2.166H38.044Z" transform="translate(-1.26 -9.806)" fill="#4c56b5"/>
        <path id="Trazado_730823" data-name="Trazado 730823" d="M39.045,54.61H7.166a1.083,1.083,0,1,0,0,2.165H39.045Z" transform="translate(-2.261 -20.297)" fill="#4c56b5"/>
        <rect id="Rectángulo_344671" data-name="Rectángulo 344671" width="1.834" height="63.987" transform="translate(0 0.068)" fill="#d6c9ad"/>
        <path id="Trazado_730824" data-name="Trazado 730824" d="M5.856,75.375a5.392,5.392,0,0,0,0,3.975c6.574-2.752,21.25-3.629,21.25-3.629s-16.58-2.147-21.25-.346" transform="translate(-2.033 -27.747)" fill="#ce4f38"/>
        <path id="Trazado_730825" data-name="Trazado 730825" d="M38.044,72.828H4.5a1.107,1.107,0,1,0,0,2.214H38.044Z" transform="translate(-1.26 -27.068)" fill="#e0694e"/>
        <path id="Trazado_730826" data-name="Trazado 730826" d="M7.659,43.956v5.1l28.074-5.1Z" transform="translate(-2.847 -16.337)" fill="#e29100"/>
        <path id="Trazado_730827" data-name="Trazado 730827" d="M38.044,37.937H5.554a2.166,2.166,0,0,0,0,4.331h32.49Z" transform="translate(-1.26 -14.1)" fill="#f2a501"/>
        <path id="Trazado_730828" data-name="Trazado 730828" d="M7.62,42.046c.134.273-.111.67-.549.885s-.9.168-1.036-.1.111-.67.549-.885.9-.168,1.036.1" transform="translate(-2.229 -15.538)" fill="#e29100"/>
        <path id="Trazado_730829" data-name="Trazado 730829" d="M13.282,39.257c.134.274-.111.67-.549.886s-.9.168-1.036-.106.111-.67.549-.885.9-.168,1.036.1" transform="translate(-4.334 -14.501)" fill="#e29100"/>
        <path id="Trazado_730830" data-name="Trazado 730830" d="M17.95,42.372c.134.273-.111.67-.549.885s-.9.168-1.036-.1.111-.67.549-.885.9-.168,1.036.1" transform="translate(-6.069 -15.659)" fill="#e29100"/>
        <path id="Trazado_730831" data-name="Trazado 730831" d="M22.078,39.257c.135.274-.111.67-.549.886s-.9.168-1.036-.106.111-.67.549-.885.9-.168,1.036.1" transform="translate(-7.603 -14.501)" fill="#e29100"/>
        <path id="Trazado_730832" data-name="Trazado 730832" d="M26.746,42.372c.134.273-.111.67-.549.885s-.9.168-1.036-.1.111-.67.549-.885.9-.168,1.036.1" transform="translate(-9.338 -15.659)" fill="#e29100"/>
        <path id="Trazado_730833" data-name="Trazado 730833" d="M30.874,39.257c.134.274-.111.67-.549.886s-.9.168-1.036-.106.111-.67.549-.885.9-.168,1.036.1" transform="translate(-10.872 -14.501)" fill="#e29100"/>
        <path id="Trazado_730834" data-name="Trazado 730834" d="M35.542,42.372c.134.273-.111.67-.549.885s-.9.168-1.036-.1.111-.67.549-.885.9-.168,1.036.1" transform="translate(-12.607 -15.659)" fill="#e29100"/>
        <path id="Trazado_730835" data-name="Trazado 730835" d="M39.082,38.668c.134.274-.111.67-.549.886s-.9.168-1.036-.1.111-.67.549-.886.9-.168,1.036.1" transform="translate(-13.923 -14.282)" fill="#e29100"/>
        <path id="Trazado_730836" data-name="Trazado 730836" d="M43.75,41.784c.134.274-.111.67-.549.885s-.9.169-1.036-.1.111-.67.549-.885.9-.168,1.036.1" transform="translate(-15.658 -15.441)" fill="#e29100"/>
        <path id="Trazado_730837" data-name="Trazado 730837" d="M47.878,38.668c.134.274-.111.67-.549.886s-.9.168-1.036-.1.111-.67.549-.886.9-.168,1.036.1" transform="translate(-17.192 -14.282)" fill="#e29100"/>
        <path id="Trazado_730838" data-name="Trazado 730838" d="M52.546,41.784c.134.274-.111.67-.549.885s-.9.169-1.037-.1.111-.67.549-.885.9-.168,1.036.1" transform="translate(-18.927 -15.441)" fill="#e29100"/>
        <path id="Trazado_730839" data-name="Trazado 730839" d="M56.674,38.668c.134.274-.111.67-.549.886s-.9.168-1.036-.1.111-.67.549-.886.9-.168,1.036.1" transform="translate(-20.461 -14.282)" fill="#e29100"/>
        <path id="Trazado_730840" data-name="Trazado 730840" d="M38.384,7.067V11.4H5.768a1.738,1.738,0,0,1-.346-.035A1.756,1.756,0,0,1,4.012,9.641V8.823A1.755,1.755,0,0,1,5.768,7.067Z" transform="translate(-1.491 -2.627)" fill="#4c56b5"/>
        <path id="Trazado_730841" data-name="Trazado 730841" d="M5.128,7.786a.287.287,0,0,1-.535.144A1.721,1.721,0,0,1,5,7.547a.286.286,0,0,1,.129.239" transform="translate(-1.707 -2.805)" fill="#fff"/>
        <path id="Trazado_730842" data-name="Trazado 730842" d="M4.943,11.7a.287.287,0,1,1-.287-.287.287.287,0,0,1,.287.287" transform="translate(-1.624 -4.24)" fill="#fff"/>
        <path id="Trazado_730843" data-name="Trazado 730843" d="M6.9,9.734a.287.287,0,1,1-.287-.287.287.287,0,0,1,.287.287" transform="translate(-2.353 -3.511)" fill="#fff"/>
        <path id="Trazado_730844" data-name="Trazado 730844" d="M6.826,13.673a.257.257,0,0,1-.01.074H6.6a1.7,1.7,0,0,1-.346-.035.265.265,0,0,1,0-.039.287.287,0,1,1,.574,0" transform="translate(-2.324 -4.975)" fill="#fff"/>
        <path id="Trazado_730845" data-name="Trazado 730845" d="M8.789,11.712a.287.287,0,1,1-.287-.287.287.287,0,0,1,.287.287" transform="translate(-3.053 -4.246)" fill="#fff"/>
        <path id="Trazado_730846" data-name="Trazado 730846" d="M8.99,7.758A.287.287,0,1,1,8.7,7.471a.287.287,0,0,1,.287.287" transform="translate(-3.128 -2.777)" fill="#fff"/>
        <path id="Trazado_730847" data-name="Trazado 730847" d="M10.873,9.737a.287.287,0,1,1-.287-.287.287.287,0,0,1,.287.287" transform="translate(-3.828 -3.512)" fill="#fff"/>
        <path id="Trazado_730848" data-name="Trazado 730848" d="M12.757,7.742a.287.287,0,1,1-.287-.287.287.287,0,0,1,.287.287" transform="translate(-4.528 -2.771)" fill="#fff"/>
        <path id="Trazado_730849" data-name="Trazado 730849" d="M10.874,13.691a.3.3,0,0,1-.007.063h-.56a.3.3,0,0,1-.007-.063.287.287,0,0,1,.574,0" transform="translate(-3.828 -4.982)" fill="#fff"/>
        <path id="Trazado_730850" data-name="Trazado 730850" d="M12.757,11.7a.287.287,0,1,1-.287-.287.287.287,0,0,1,.287.287" transform="translate(-4.528 -4.24)" fill="#fff"/>
        <path id="Trazado_730851" data-name="Trazado 730851" d="M14.719,9.734a.287.287,0,1,1-.287-.287.287.287,0,0,1,.287.287" transform="translate(-5.257 -3.511)" fill="#fff"/>
        <path id="Trazado_730852" data-name="Trazado 730852" d="M14.641,13.673a.257.257,0,0,1-.01.074h-.555a.257.257,0,0,1-.01-.074.287.287,0,0,1,.575,0" transform="translate(-5.228 -4.975)" fill="#fff"/>
        <path id="Trazado_730853" data-name="Trazado 730853" d="M16.6,11.712a.287.287,0,1,1-.287-.287.287.287,0,0,1,.287.287" transform="translate(-5.958 -4.246)" fill="#fff"/>
        <path id="Trazado_730854" data-name="Trazado 730854" d="M16.8,7.758a.287.287,0,1,1-.287-.287.287.287,0,0,1,.287.287" transform="translate(-6.032 -2.777)" fill="#fff"/>
        <path id="Trazado_730855" data-name="Trazado 730855" d="M18.688,9.737A.287.287,0,1,1,18.4,9.45a.287.287,0,0,1,.287.287" transform="translate(-6.732 -3.512)" fill="#fff"/>
        <path id="Trazado_730856" data-name="Trazado 730856" d="M20.573,7.742a.287.287,0,1,1-.287-.287.287.287,0,0,1,.287.287" transform="translate(-7.433 -2.771)" fill="#fff"/>
        <path id="Trazado_730857" data-name="Trazado 730857" d="M18.688,13.691a.3.3,0,0,1-.007.063h-.56a.262.262,0,0,1-.008-.063.287.287,0,0,1,.574,0" transform="translate(-6.732 -4.982)" fill="#fff"/>
        <path id="Trazado_730858" data-name="Trazado 730858" d="M20.573,11.7a.287.287,0,1,1-.287-.287.287.287,0,0,1,.287.287" transform="translate(-7.433 -4.24)" fill="#fff"/>
        <path id="Trazado_730859" data-name="Trazado 730859" d="M22.534,9.734a.287.287,0,1,1-.287-.287.287.287,0,0,1,.287.287" transform="translate(-8.162 -3.511)" fill="#fff"/>
        <path id="Trazado_730860" data-name="Trazado 730860" d="M22.455,13.673a.257.257,0,0,1-.01.074h-.554a.257.257,0,0,1-.01-.074.287.287,0,1,1,.574,0" transform="translate(-8.133 -4.975)" fill="#fff"/>
        <path id="Trazado_730861" data-name="Trazado 730861" d="M24.418,11.712a.287.287,0,1,1-.287-.287.287.287,0,0,1,.287.287" transform="translate(-8.862 -4.246)" fill="#fff"/>
        <path id="Trazado_730862" data-name="Trazado 730862" d="M24.619,7.758a.287.287,0,1,1-.287-.287.287.287,0,0,1,.287.287" transform="translate(-8.937 -2.777)" fill="#fff"/>
        <path id="Trazado_730863" data-name="Trazado 730863" d="M26.5,9.737a.287.287,0,1,1-.287-.287.287.287,0,0,1,.287.287" transform="translate(-9.637 -3.512)" fill="#fff"/>
        <path id="Trazado_730864" data-name="Trazado 730864" d="M28.387,7.742a.287.287,0,1,1-.287-.287.287.287,0,0,1,.287.287" transform="translate(-10.337 -2.771)" fill="#fff"/>
        <path id="Trazado_730865" data-name="Trazado 730865" d="M26.5,13.691a.3.3,0,0,1-.007.063h-.56a.262.262,0,0,1-.008-.063.287.287,0,0,1,.574,0" transform="translate(-9.637 -4.982)" fill="#fff"/>
        <path id="Trazado_730866" data-name="Trazado 730866" d="M28.387,11.7a.287.287,0,1,1-.287-.287.287.287,0,0,1,.287.287" transform="translate(-10.337 -4.24)" fill="#fff"/>
        <path id="Trazado_730867" data-name="Trazado 730867" d="M30.348,9.734a.287.287,0,1,1-.287-.287.287.287,0,0,1,.287.287" transform="translate(-11.066 -3.511)" fill="#fff"/>
        <path id="Trazado_730868" data-name="Trazado 730868" d="M30.271,13.673a.257.257,0,0,1-.01.074h-.554a.257.257,0,0,1-.01-.074.287.287,0,1,1,.574,0" transform="translate(-11.038 -4.975)" fill="#fff"/>
        <path id="Trazado_730869" data-name="Trazado 730869" d="M32.232,11.712a.287.287,0,1,1-.287-.287.287.287,0,0,1,.287.287" transform="translate(-11.766 -4.246)" fill="#fff"/>
        <path id="Trazado_730870" data-name="Trazado 730870" d="M32.434,7.758a.287.287,0,1,1-.287-.287.287.287,0,0,1,.287.287" transform="translate(-11.841 -2.777)" fill="#fff"/>
        <path id="Trazado_730871" data-name="Trazado 730871" d="M34.318,9.737a.287.287,0,1,1-.287-.287.287.287,0,0,1,.287.287" transform="translate(-12.542 -3.512)" fill="#fff"/>
        <path id="Trazado_730872" data-name="Trazado 730872" d="M36.2,7.742a.287.287,0,1,1-.288-.287.288.288,0,0,1,.288.287" transform="translate(-13.242 -2.771)" fill="#fff"/>
        <path id="Trazado_730873" data-name="Trazado 730873" d="M34.318,13.691a.262.262,0,0,1-.008.063h-.56a.3.3,0,0,1-.007-.063.287.287,0,0,1,.574,0" transform="translate(-12.542 -4.982)" fill="#fff"/>
        <path id="Trazado_730874" data-name="Trazado 730874" d="M36.2,11.7a.287.287,0,1,1-.288-.287.288.288,0,0,1,.288.287" transform="translate(-13.242 -4.24)" fill="#fff"/>
        <path id="Trazado_730875" data-name="Trazado 730875" d="M38.164,9.734a.287.287,0,1,1-.287-.287.287.287,0,0,1,.287.287" transform="translate(-13.971 -3.511)" fill="#fff"/>
        <path id="Trazado_730876" data-name="Trazado 730876" d="M38.085,13.673a.257.257,0,0,1-.01.074h-.554a.256.256,0,0,1-.01-.074.287.287,0,1,1,.574,0" transform="translate(-13.942 -4.975)" fill="#fff"/>
        <path id="Trazado_730877" data-name="Trazado 730877" d="M40.048,11.712a.287.287,0,1,1-.287-.287.287.287,0,0,1,.287.287" transform="translate(-14.671 -4.246)" fill="#fff"/>
        <path id="Trazado_730878" data-name="Trazado 730878" d="M40.248,7.758a.287.287,0,1,1-.287-.287.287.287,0,0,1,.287.287" transform="translate(-14.746 -2.777)" fill="#fff"/>
        <path id="Trazado_730879" data-name="Trazado 730879" d="M42.132,9.737a.287.287,0,1,1-.287-.287.287.287,0,0,1,.287.287" transform="translate(-15.446 -3.512)" fill="#fff"/>
        <path id="Trazado_730880" data-name="Trazado 730880" d="M44.016,7.742a.287.287,0,1,1-.287-.287.287.287,0,0,1,.287.287" transform="translate(-16.146 -2.771)" fill="#fff"/>
        <path id="Trazado_730881" data-name="Trazado 730881" d="M42.132,13.691a.262.262,0,0,1-.008.063h-.56a.3.3,0,0,1-.007-.063.287.287,0,0,1,.574,0" transform="translate(-15.446 -4.982)" fill="#fff"/>
        <path id="Trazado_730882" data-name="Trazado 730882" d="M44.016,11.7a.287.287,0,1,1-.287-.287.287.287,0,0,1,.287.287" transform="translate(-16.146 -4.24)" fill="#fff"/>
        <path id="Trazado_730883" data-name="Trazado 730883" d="M45.978,9.734a.287.287,0,1,1-.287-.287.287.287,0,0,1,.287.287" transform="translate(-16.875 -3.511)" fill="#fff"/>
        <path id="Trazado_730884" data-name="Trazado 730884" d="M45.9,13.673a.281.281,0,0,1-.009.074h-.555a.281.281,0,0,1-.009-.074.287.287,0,0,1,.574,0" transform="translate(-16.846 -4.975)" fill="#fff"/>
        <path id="Trazado_730885" data-name="Trazado 730885" d="M47.862,11.712a.287.287,0,1,1-.287-.287.287.287,0,0,1,.287.287" transform="translate(-17.576 -4.246)" fill="#fff"/>
        <path id="Trazado_730886" data-name="Trazado 730886" d="M48.063,7.758a.287.287,0,1,1-.287-.287.287.287,0,0,1,.287.287" transform="translate(-17.65 -2.777)" fill="#fff"/>
        <path id="Trazado_730887" data-name="Trazado 730887" d="M49.947,9.737a.287.287,0,1,1-.287-.287.287.287,0,0,1,.287.287" transform="translate(-18.351 -3.512)" fill="#fff"/>
        <path id="Trazado_730888" data-name="Trazado 730888" d="M51.831,7.742a.287.287,0,1,1-.287-.287.287.287,0,0,1,.287.287" transform="translate(-19.051 -2.771)" fill="#fff"/>
        <path id="Trazado_730889" data-name="Trazado 730889" d="M49.947,13.691a.3.3,0,0,1-.007.063h-.56a.262.262,0,0,1-.008-.063.287.287,0,0,1,.574,0" transform="translate(-18.351 -4.982)" fill="#fff"/>
        <path id="Trazado_730890" data-name="Trazado 730890" d="M51.831,11.7a.287.287,0,1,1-.287-.287.287.287,0,0,1,.287.287" transform="translate(-19.051 -4.24)" fill="#fff"/>
        <path id="Trazado_730891" data-name="Trazado 730891" d="M53.793,9.734a.287.287,0,1,1-.287-.287.287.287,0,0,1,.287.287" transform="translate(-19.78 -3.511)" fill="#fff"/>
        <path id="Trazado_730892" data-name="Trazado 730892" d="M53.715,13.673a.257.257,0,0,1-.01.074h-.554a.257.257,0,0,1-.01-.074.287.287,0,0,1,.574,0" transform="translate(-19.751 -4.975)" fill="#fff"/>
        <path id="Trazado_730893" data-name="Trazado 730893" d="M55.677,11.712a.287.287,0,1,1-.287-.287.287.287,0,0,1,.287.287" transform="translate(-20.48 -4.246)" fill="#fff"/>
        <path id="Trazado_730894" data-name="Trazado 730894" d="M55.878,7.758a.287.287,0,1,1-.287-.287.287.287,0,0,1,.287.287" transform="translate(-20.555 -2.777)" fill="#fff"/>
        <path id="Trazado_730895" data-name="Trazado 730895" d="M57.762,9.737a.287.287,0,1,1-.287-.287.287.287,0,0,1,.287.287" transform="translate(-21.255 -3.512)" fill="#fff"/>
        <path id="Trazado_730896" data-name="Trazado 730896" d="M19.774,19.67c0,.008-6.132.008-6.132.008s-8.5-.008-8.5-.008A1.755,1.755,0,0,0,3.39,21.426v.819A1.756,1.756,0,0,0,5.146,24h32.9V19.67Z" transform="translate(-1.26 -7.311)" fill="#a3aeff"/>
        <path id="Trazado_730897" data-name="Trazado 730897" d="M7.582,21.487c0,.342-.456.62-1.019.62s-1.019-.278-1.019-.62.456-.62,1.019-.62,1.019.278,1.019.62" transform="translate(-2.061 -7.756)" fill="#4c56b5"/>
        <path id="Trazado_730898" data-name="Trazado 730898" d="M7.238,20.418c.3.172.309.706.028,1.193s-.75.744-1.047.573-.309-.706-.028-1.193.75-.743,1.047-.572" transform="translate(-2.225 -7.569)" fill="#4c56b5"/>
        <path id="Trazado_730899" data-name="Trazado 730899" d="M5.8,20.808c.2-.28.73-.244,1.19.081s.673.814.476,1.094-.731.244-1.191-.08S5.6,21.087,5.8,20.808" transform="translate(-2.127 -7.664)" fill="#4c56b5"/>
        <path id="Trazado_730900" data-name="Trazado 730900" d="M22.222,19.683a.528.528,0,0,0,.28.418,1.3,1.3,0,0,0,.547.182,1.738,1.738,0,0,0,.192.011,1.575,1.575,0,0,0,.338-.036,1.019,1.019,0,0,0,.565-.3.439.439,0,0,0,.115-.278Z" transform="translate(-8.259 -7.316)" fill="#4c56b5"/>
        <path id="Trazado_730901" data-name="Trazado 730901" d="M22.727,19.683a1.386,1.386,0,0,0-.038.15,1.086,1.086,0,0,0-.023.268.526.526,0,0,0,.23.456.619.619,0,0,0,.674-.135,1.309,1.309,0,0,0,.174-.163,1.6,1.6,0,0,0,.2-.275,1.577,1.577,0,0,0,.136-.3Z" transform="translate(-8.424 -7.316)" fill="#4c56b5"/>
        <path id="Trazado_730902" data-name="Trazado 730902" d="M24.182,19.683H22.555a1.106,1.106,0,0,0,.093.15,1.546,1.546,0,0,0,.359.348,1.564,1.564,0,0,0,.522.241.618.618,0,0,0,.669-.16.432.432,0,0,0,.071-.3.788.788,0,0,0-.086-.278" transform="translate(-8.383 -7.316)" fill="#4c56b5"/>
        <path id="Trazado_730903" data-name="Trazado 730903" d="M16.105,23.963c0,.342-.456.62-1.019.62s-1.019-.278-1.019-.62.456-.62,1.019-.62,1.019.278,1.019.62" transform="translate(-5.228 -8.676)" fill="#4c56b5"/>
        <path id="Trazado_730904" data-name="Trazado 730904" d="M15.761,22.894c.3.171.309.7.027,1.193s-.749.744-1.047.572-.308-.7-.026-1.193.75-.744,1.046-.572" transform="translate(-5.393 -8.489)" fill="#4c56b5"/>
        <path id="Trazado_730905" data-name="Trazado 730905" d="M14.319,23.284c.2-.28.73-.244,1.19.08s.673.814.476,1.095-.73.244-1.191-.081-.672-.814-.475-1.094" transform="translate(-5.295 -8.584)" fill="#4c56b5"/>
        <path id="Trazado_730906" data-name="Trazado 730906" d="M29.83,23.963c0,.342-.456.62-1.019.62s-1.019-.278-1.019-.62.456-.62,1.019-.62,1.019.278,1.019.62" transform="translate(-10.329 -8.676)" fill="#4c56b5"/>
        <path id="Trazado_730907" data-name="Trazado 730907" d="M29.486,22.894c.3.171.309.7.028,1.193s-.75.744-1.047.572-.309-.7-.028-1.193.75-.744,1.047-.572" transform="translate(-10.494 -8.489)" fill="#4c56b5"/>
        <path id="Trazado_730908" data-name="Trazado 730908" d="M28.044,23.284c.2-.28.73-.244,1.191.08s.672.814.475,1.095-.73.244-1.19-.081-.673-.814-.476-1.094" transform="translate(-10.396 -8.584)" fill="#4c56b5"/>
        <path id="Trazado_730909" data-name="Trazado 730909" d="M38.384,20.792c0,.342-.456.62-1.019.62s-1.019-.278-1.019-.62.457-.62,1.019-.62,1.019.278,1.019.62" transform="translate(-13.509 -7.497)" fill="#4c56b5"/>
        <path id="Trazado_730910" data-name="Trazado 730910" d="M38.04,19.722c.3.171.309.7.028,1.193s-.75.744-1.047.572-.309-.7-.027-1.192.75-.745,1.046-.573" transform="translate(-13.674 -7.31)" fill="#4c56b5"/>
        <path id="Trazado_730911" data-name="Trazado 730911" d="M36.6,20.113c.2-.28.73-.244,1.191.08s.672.814.475,1.095-.731.244-1.191-.08-.672-.814-.475-1.095" transform="translate(-13.576 -7.405)" fill="#4c56b5"/>
        <path id="Trazado_730912" data-name="Trazado 730912" d="M46.656,23.963c0,.342-.456.62-1.019.62s-1.019-.278-1.019-.62.456-.62,1.019-.62,1.019.278,1.019.62" transform="translate(-16.583 -8.676)" fill="#4c56b5"/>
        <path id="Trazado_730913" data-name="Trazado 730913" d="M46.312,22.894c.3.171.309.7.028,1.193s-.75.744-1.047.572-.309-.7-.028-1.193.75-.744,1.047-.572" transform="translate(-16.748 -8.489)" fill="#4c56b5"/>
        <path id="Trazado_730914" data-name="Trazado 730914" d="M44.871,23.284c.2-.28.73-.244,1.191.08s.672.814.475,1.095-.73.244-1.191-.081-.672-.814-.475-1.094" transform="translate(-16.65 -8.584)" fill="#4c56b5"/>
        <path id="Trazado_730915" data-name="Trazado 730915" d="M4.418,24.18a.123.123,0,1,1-.123-.123.123.123,0,0,1,.123.123" transform="translate(-1.551 -8.941)" fill="#4c56b5"/>
        <path id="Trazado_730916" data-name="Trazado 730916" d="M9.907,25a.123.123,0,1,1-.123-.123A.123.123,0,0,1,9.907,25" transform="translate(-3.591 -9.245)" fill="#4c56b5"/>
        <path id="Trazado_730917" data-name="Trazado 730917" d="M13.147,21.2a.123.123,0,1,1-.123-.123.123.123,0,0,1,.123.123" transform="translate(-4.795 -7.832)" fill="#4c56b5"/>
        <path id="Trazado_730918" data-name="Trazado 730918" d="M19.708,25a.123.123,0,1,1-.123-.123.123.123,0,0,1,.123.123" transform="translate(-7.233 -9.245)" fill="#4c56b5"/>
        <path id="Trazado_730919" data-name="Trazado 730919" d="M22.271,22.671a.123.123,0,1,1-.123-.123.123.123,0,0,1,.123.123" transform="translate(-8.186 -8.38)" fill="#4c56b5"/>
        <path id="Trazado_730920" data-name="Trazado 730920" d="M24.552,24.6a.123.123,0,1,1-.123-.123.123.123,0,0,1,.123.123" transform="translate(-9.034 -9.097)" fill="#4c56b5"/>
        <path id="Trazado_730921" data-name="Trazado 730921" d="M28.055,20.989a.123.123,0,1,1-.123-.123.123.123,0,0,1,.123.123" transform="translate(-10.335 -7.755)" fill="#4c56b5"/>
        <path id="Trazado_730922" data-name="Trazado 730922" d="M32.824,24.752a.123.123,0,1,1-.123-.123.123.123,0,0,1,.123.123" transform="translate(-12.108 -9.154)" fill="#4c56b5"/>
        <path id="Trazado_730923" data-name="Trazado 730923" d="M34.25,20.989a.123.123,0,1,1-.123-.123.123.123,0,0,1,.123.123" transform="translate(-12.638 -7.755)" fill="#4c56b5"/>
        <path id="Trazado_730924" data-name="Trazado 730924" d="M37.639,23.984a.123.123,0,1,1-.123-.123.123.123,0,0,1,.123.123" transform="translate(-13.898 -8.868)" fill="#4c56b5"/>
        <path id="Trazado_730925" data-name="Trazado 730925" d="M42.065,20.989a.123.123,0,1,1-.123-.123.123.123,0,0,1,.123.123" transform="translate(-15.543 -7.755)" fill="#4c56b5"/>
        <path id="Trazado_730926" data-name="Trazado 730926" d="M40.834,25a.123.123,0,1,1-.123-.123.123.123,0,0,1,.123.123" transform="translate(-15.085 -9.245)" fill="#4c56b5"/>
        <path id="Trazado_730927" data-name="Trazado 730927" d="M45.833,21.086a.123.123,0,1,1-.123-.123.123.123,0,0,1,.123.123" transform="translate(-16.943 -7.791)" fill="#4c56b5"/>
        <path id="Trazado_730928" data-name="Trazado 730928" d="M9.956,21.315c-.138.3-.368.481-.514.413s-.151-.363-.013-.659a.924.924,0,0,1,.514-.412.927.927,0,0,1,.013.658" transform="translate(-3.468 -7.678)" fill="#4c56b5"/>
        <path id="Trazado_730929" data-name="Trazado 730929" d="M17.674,22.711c-.188.267-.447.408-.579.315s-.085-.383.1-.651a.928.928,0,0,1,.579-.315.926.926,0,0,1-.1.651" transform="translate(-6.326 -8.199)" fill="#4c56b5"/>
        <path id="Trazado_730930" data-name="Trazado 730930" d="M47.983,21.919c-.188.267-.447.408-.579.315s-.085-.383.1-.65a.926.926,0,0,1,.579-.316.926.926,0,0,1-.1.651" transform="translate(-17.591 -7.905)" fill="#4c56b5"/>
        <path id="Trazado_730931" data-name="Trazado 730931" d="M31.2,21.713c-.188.267-.447.408-.579.316s-.085-.384.1-.651a.924.924,0,0,1,.579-.316.93.93,0,0,1-.1.651" transform="translate(-11.352 -7.828)" fill="#4c56b5"/>
        <path id="Trazado_730932" data-name="Trazado 730932" d="M43.36,23.183c.282.163.447.408.366.547s-.375.12-.658-.044a.927.927,0,0,1-.367-.547.929.929,0,0,1,.658.044" transform="translate(-15.871 -8.584)" fill="#4c56b5"/>
        <path id="Trazado_730933" data-name="Trazado 730933" d="M25.036,22.109c-.275-.177-.428-.429-.341-.564s.38-.1.654.075a.928.928,0,0,1,.341.565.927.927,0,0,1-.655-.075" transform="translate(-9.169 -7.977)" fill="#4c56b5"/>
        <path id="Trazado_730934" data-name="Trazado 730934" d="M40.142,22.2c-.275-.177-.427-.429-.341-.564s.38-.1.655.075a.927.927,0,0,1,.341.564.927.927,0,0,1-.655-.075" transform="translate(-14.784 -8.009)" fill="#4c56b5"/>
        <path id="Trazado_730935" data-name="Trazado 730935" d="M12.386,24.607c.327,0,.591.13.591.291s-.265.29-.591.29a.926.926,0,0,1-.591-.29.925.925,0,0,1,.591-.291" transform="translate(-4.384 -9.146)" fill="#4c56b5"/>
        <path id="Trazado_730936" data-name="Trazado 730936" d="M20.459,20.676c.273-.18.565-.218.654-.084s-.06.388-.333.569a.924.924,0,0,1-.653.085.924.924,0,0,1,.332-.569" transform="translate(-7.481 -7.624)" fill="#4c56b5"/>
        <path id="Trazado_730937" data-name="Trazado 730937" d="M34.933,21.946c.273-.18.565-.218.653-.084s-.06.388-.332.569a.926.926,0,0,1-.653.084.923.923,0,0,1,.332-.569" transform="translate(-12.86 -8.096)" fill="#4c56b5"/>
        <path id="Trazado_730938" data-name="Trazado 730938" d="M25.972,24.837c.272-.18.564-.218.653-.084s-.06.388-.332.569a.924.924,0,0,1-.654.084.926.926,0,0,1,.333-.569" transform="translate(-9.529 -9.17)" fill="#4c56b5"/>
        <path id="Trazado_730939" data-name="Trazado 730939" d="M6.683,23.891c.251-.209.538-.278.641-.154s-.018.393-.27.6a.927.927,0,0,1-.641.154.927.927,0,0,1,.27-.6" transform="translate(-2.384 -8.799)" fill="#4c56b5"/>
        <rect id="Rectángulo_344672" data-name="Rectángulo 344672" width="6.712" height="64.055" transform="translate(32.908)" fill="#bfad7f"/>
        <rect id="Rectángulo_344673" data-name="Rectángulo 344673" width="1.835" height="64.055" transform="translate(31.153)" fill="#d6c9ad"/>
        <path id="Trazado_730940" data-name="Trazado 730940" d="M71.024,78.863l.4,12.558-2.866,1.353L65.571,78.863Z" transform="translate(-24.371 -29.311)" fill="#f47925"/>
        <path id="Trazado_730941" data-name="Trazado 730941" d="M68.346,92.044l.317,1.472h3.8l-.04-1.472Z" transform="translate(-25.402 -34.21)" fill="#d5e1f1"/>
        <path id="Trazado_730942" data-name="Trazado 730942" d="M70.8,97.9a1.051,1.051,0,0,1-.1.116,1.134,1.134,0,0,1-.52.288,1.123,1.123,0,0,1-.27.032h-5.5a.817.817,0,0,1-.471-.148.823.823,0,0,1-.183-.173l-.021-.03a.838.838,0,0,1-.053-.085.81.81,0,0,1-.09-.286,3.132,3.132,0,0,1-.011-.736,1.243,1.243,0,0,1,.153-.488c.381-.633,3.1-1.3,3.1-1.3l-.216-2.307h4.109l.318,4.334a1.121,1.121,0,0,1-.238.78" transform="translate(-23.624 -34.487)" fill="#4c56b5"/>
        <path id="Trazado_730943" data-name="Trazado 730943" d="M70.692,101.388a1.126,1.126,0,0,1-.29.116h-6a.808.808,0,0,1-.241-.116Z" transform="translate(-23.846 -37.683)" fill="#cc8686"/>
        <path id="Trazado_730944" data-name="Trazado 730944" d="M82.208,78.863l1.226,12.56-3.024.914-3.3-13.313Z" transform="translate(-28.659 -29.311)" fill="#ff9c58"/>
        <path id="Trazado_730945" data-name="Trazado 730945" d="M80.331,92.089l.276,1.284,3.807.092-.2-1.422Z" transform="translate(-29.857 -34.21)" fill="#d5e1f1"/>
        <path id="Trazado_730946" data-name="Trazado 730946" d="M82.7,98.1a1.049,1.049,0,0,1-.1.116,1.134,1.134,0,0,1-.52.288,1.123,1.123,0,0,1-.27.032h-5.5a.843.843,0,0,1-.23-.032.838.838,0,0,1-.425-.288c-.008-.011-.015-.02-.021-.03a.779.779,0,0,1-.053-.085.808.808,0,0,1-.09-.287,3.127,3.127,0,0,1-.011-.736,1.253,1.253,0,0,1,.153-.488c.382-.633,3.1-1.3,3.1-1.3l-.216-2.307h4.109l.319,4.334a1.121,1.121,0,0,1-.238.78" transform="translate(-28.047 -34.561)" fill="#4c56b5"/>
        <path id="Trazado_730947" data-name="Trazado 730947" d="M82.592,101.587a1.158,1.158,0,0,1-.29.116h-6a.839.839,0,0,1-.241-.116Z" transform="translate(-28.269 -37.757)" fill="#cc8686"/>
        <path id="Trazado_730948" data-name="Trazado 730948" d="M80.843,33.664l-.084-7.206c-.189-1.542-2.77-1.365-4.471-1.916l-2.261-.055c-1.5.254-4.278.557-4.542,2.089l.488,7.9,1.682,5.384,7.352-.144Z" transform="translate(-25.826 -9.101)" fill="#fff"/>
        <path id="Trazado_730949" data-name="Trazado 730949" d="M79.561,25.209l-1.127,7.657,2.7.964s-1.019,6.295-1.249,6.34S71,40.355,71,40.355l-.736-5.708.994-1.312L71.2,25.312l1.267-.379.461,3.545,4.155-.084,1.093-3.416Z" transform="translate(-26.114 -9.267)" fill="#4c56b5"/>
        <path id="Trazado_730950" data-name="Trazado 730950" d="M83.964,29.488a.46.46,0,1,0-.347.762.449.449,0,0,0,.246-.072.458.458,0,0,0,.1-.69m-.082.556a.369.369,0,0,1-.634-.254.368.368,0,0,1,.7-.168.365.365,0,0,1-.028.381.3.3,0,0,1-.035.041" transform="translate(-30.907 -10.901)" fill="#fff"/>
        <path id="Trazado_730951" data-name="Trazado 730951" d="M79.594,65.758c-.092-.888-.671-2.074-.682-2.831-.006-.413.5-1.6.493-1.952-.024-2.033-.467-2.531-.173-3.979a4.05,4.05,0,0,1,.173-.765c1.536-3.756-1.51-8.973-1.51-8.973l-9.321.731s-.93,2.078-3.671,8.585c-1.54,3.656-.655,10.869-.7,11.6a1.774,1.774,0,0,0,.045.527H72.2c0-.008,7.483-.028,7.483-.028-.339-1.05.026-1.829-.087-2.912" transform="translate(-23.783 -17.565)" fill="#4c56b5"/>
        <path id="Trazado_730952" data-name="Trazado 730952" d="M82.735,55.656a.069.069,0,0,1-.059-.034c-.094-.155-2.283-3.806-2.439-4.194a.069.069,0,0,1,.128-.052c.151.378,2.406,4.137,2.428,4.175a.069.069,0,0,1-.024.094.067.067,0,0,1-.035.01" transform="translate(-29.82 -19.079)" fill="#e0e6fc"/>
        <path id="Trazado_730953" data-name="Trazado 730953" d="M76.929,24.391h.376a1.533,1.533,0,0,0,1.532-1.532v-4.3H75.4v4.3a1.533,1.533,0,0,0,1.532,1.532" transform="translate(-28.023 -6.896)" fill="#ff9c58"/>
        <path id="Trazado_730954" data-name="Trazado 730954" d="M75.786,22.765a2.925,2.925,0,0,0,2.1-1.18.049.049,0,0,0-.012-.068.049.049,0,0,0-.068.012,2.634,2.634,0,0,1-2.427,1.094.049.049,0,1,0-.021.1,2.01,2.01,0,0,0,.429.046" transform="translate(-27.994 -7.994)" fill="#ee4c00"/>
        <path id="Trazado_730955" data-name="Trazado 730955" d="M77.759,15.48s-.986,3.627-3.419,3.487-2.51-4.992-2.12-6,3.057-2.214,4.915-.373a3.412,3.412,0,0,1,.624,2.891" transform="translate(-26.776 -4.323)" fill="#ff9c58"/>
        <path id="Trazado_730956" data-name="Trazado 730956" d="M75.794,18.891a.282.282,0,1,0,.282-.283.283.283,0,0,0-.282.283" transform="translate(-28.17 -6.916)" fill="#ee4c00"/>
        <path id="Trazado_730957" data-name="Trazado 730957" d="M75.389,17.7a.186.186,0,0,1-.346.137.186.186,0,0,1,.346-.137" transform="translate(-27.887 -6.537)" fill="#603225"/>
        <path id="Trazado_730958" data-name="Trazado 730958" d="M72.893,17.714a.171.171,0,0,1-.317.126.171.171,0,0,1,.317-.126" transform="translate(-26.97 -6.545)" fill="#603225"/>
        <path id="Trazado_730959" data-name="Trazado 730959" d="M75,20.782a.5.5,0,0,0,.24-.069.972.972,0,0,0,.359-.684.049.049,0,1,0-.1-.009.89.89,0,0,1-.311.608.548.548,0,0,1-.511-.016.049.049,0,1,0-.04.09.826.826,0,0,0,.361.08" transform="translate(-27.729 -7.424)" fill="#6a3d2e"/>
        <path id="Trazado_730960" data-name="Trazado 730960" d="M74.165,14.81a5.917,5.917,0,0,1,2.106.24,5.928,5.928,0,0,0-1.1-2.914,1.809,1.809,0,0,0-1.255-.273,1.48,1.48,0,0,0,.248,2.947" transform="translate(-26.988 -4.404)" fill="#603225"/>
        <path id="Trazado_730961" data-name="Trazado 730961" d="M73.078,11.736s3.167-2.219,5.277-.512a2.892,2.892,0,0,1,1.14,3.353c-.107.3.146.579.4.772.681.511.038,1.89-.6,2.034.273.585-1.17,1.058-1.638.629-.277-.254-.172-.757-.363-1.01-.616-.814-.361-2.291.029-2.193-.464-.109-.93-.17-1.09-.414-.183-.277-.327-.6-.648-.682a1.6,1.6,0,0,1-1.051-1.147c.039-.371-1.456-.829-1.456-.829" transform="translate(-27.161 -3.932)" fill="#603225"/>
        <path id="Trazado_730962" data-name="Trazado 730962" d="M78.582,17.624a.57.57,0,0,1,.306-.564c.281-.142.643-.157.786.231.334.912-.719,1.13-1.017,1.243Z" transform="translate(-29.206 -6.306)" fill="#ff9c58"/>
        <path id="Trazado_730963" data-name="Trazado 730963" d="M78.879,17.929a.048.048,0,0,0,.041-.033c.16-.486.5-.315.538-.3a.05.05,0,0,0,.06-.035.05.05,0,0,0-.035-.06.546.546,0,0,0-.657.369.05.05,0,0,0,.032.062.047.047,0,0,0,.021,0" transform="translate(-29.297 -6.497)" fill="#ee4c00"/>
        <path id="Trazado_730964" data-name="Trazado 730964" d="M73.747,19.083a.325.325,0,0,1-.119-.023.322.322,0,0,1-.178-.4c.063-.253.229-.935.231-.942a.058.058,0,1,1,.112.027c0,.007-.167.69-.231.943a.21.21,0,0,0,.109.265c.1.041.259,0,.367-.2a.058.058,0,0,1,.1.057.461.461,0,0,1-.39.27" transform="translate(-27.294 -6.569)" fill="#ee4c00"/>
        <path id="Trazado_730965" data-name="Trazado 730965" d="M60.444,38.517l-.417-.538a2.765,2.765,0,0,0-.975-.792c-.439-.212-.992-.414-1.244-.24-.453.313.565.461.729,1.147s1.906.423,1.906.423" transform="translate(-21.443 -13.708)" fill="#ff9c58"/>
        <path id="Trazado_730966" data-name="Trazado 730966" d="M76.775,27.148c-1.138-.775-1.942-1.33-3.248,1.586l-2.243,4.633a1.918,1.918,0,0,1-1.649.9l-8.8-.034a1.059,1.059,0,0,0-1.074.954,1.117,1.117,0,0,0,.995,1.166L71.681,37.79a1.6,1.6,0,0,0,1.455-.571l.139-.173s2.6-3.784,2.648-3.86c.631-1.028,1.863-5.35.851-6.039" transform="translate(-22.211 -9.86)" fill="#ff9c58"/>
        <path id="Trazado_730967" data-name="Trazado 730967" d="M61.034,39.938c.313-.5-1.2-1.377-1.532-1.58a2.238,2.238,0,0,0-.917-.444c-.322-.016-.587.212-.9.242a.861.861,0,0,1-.8-.482c-.167-.237-.361-.508-.685-.337a1.943,1.943,0,0,0-.6.746.9.9,0,0,0-.068.729,2.016,2.016,0,0,0,.418.846,6.166,6.166,0,0,0,.909.6,6.245,6.245,0,0,0,1.906.233c.275-.045.552-.1.829-.129.411-.047,1.194-.035,1.439-.43" transform="translate(-20.623 -13.857)" fill="#ff9c58"/>
        <path id="Trazado_730968" data-name="Trazado 730968" d="M57.495,39.06c.033-.056.017-.1-.018-.111l-.226-.1a1.488,1.488,0,0,1-.771-.739l-.187-.4a.07.07,0,0,0-.092-.033.067.067,0,0,0-.035.089l.187.4a1.621,1.621,0,0,0,.84.806l.226.1a.07.07,0,0,0,.075-.012" transform="translate(-20.873 -14.002)" fill="#d35600"/>
        <path id="Trazado_730969" data-name="Trazado 730969" d="M56.891,39.856c.033-.056.017-.1-.018-.111l-.227-.1a1.488,1.488,0,0,1-.77-.738l-.187-.4a.07.07,0,0,0-.092-.033.066.066,0,0,0-.035.088l.187.4a1.623,1.623,0,0,0,.84.806l.226.1a.073.073,0,0,0,.075-.012" transform="translate(-20.649 -14.298)" fill="#d35600"/>
        <path id="Trazado_730970" data-name="Trazado 730970" d="M79.185,37.864l2.163,2.156.782-.951Z" transform="translate(-29.431 -14.073)" fill="#603225"/>
        <path id="Trazado_730971" data-name="Trazado 730971" d="M79.376,31.5l3.174,2.755s3.8-5.7,1.408-7.7c-2.144-1.6-3.828,1.2-4.582,4.94" transform="translate(-29.502 -9.699)" fill="#fff"/>
        <path id="Trazado_730972" data-name="Trazado 730972" d="M78.341,35.455l.914-1.715,3.35,2.847-.848,1.4a5.6,5.6,0,0,1-3.416-2.532" transform="translate(-29.117 -12.54)" fill="#fff"/>
        <path id="Trazado_730973" data-name="Trazado 730973" d="M80.5,32.771c-.288-.158-.565-.329-.836-.512-.227-.153-.449-.317-.664-.488l-.132-.1-.052.106.112.089q.332.266.685.5a10.626,10.626,0,0,0,1.261.733ZM84.381,28.7a3.756,3.756,0,0,0,0-.4,2.445,2.445,0,0,0-.878-1.889,2.2,2.2,0,0,0-.88-.451l-.049-.011a1.449,1.449,0,0,0-.777.062,4.267,4.267,0,0,0-1.961,2.357A17.529,17.529,0,0,0,78.788,31.6l-.045-.036a.058.058,0,0,0-.087.018,9.545,9.545,0,0,0-.4.947.051.051,0,0,0,0,.043c.026.063.056.125.087.185a3.679,3.679,0,0,0,.945,1.117,7.338,7.338,0,0,0,2.1,1.143l.06.02c.1.035.167.056.206.068l.04.011a.058.058,0,0,0,.063-.023,21.555,21.555,0,0,0,1.891-3.512,8.81,8.81,0,0,0,.734-2.877m-5.82,3.368c.079-.185.135-.3.167-.371l.092.073.112.089q.332.266.685.5a10.626,10.626,0,0,0,1.261.733c.283.141.574.27.87.386l.225.088.32.125.116.046.035.013c-.371.651-.674,1.112-.76,1.238l-.159-.051-.07-.025a6.775,6.775,0,0,1-2.4-1.4,3.271,3.271,0,0,1-.654-.89c-.012-.026-.025-.052-.036-.078.074-.191.138-.348.191-.474Zm4.785-.084c-.276.615-.569,1.175-.833,1.645-.011.021-.043.009-.043.009L82.36,33.6l-.354-.138-.216-.084a10.9,10.9,0,0,1-1.288-.605c-.288-.158-.565-.329-.836-.512-.227-.153-.449-.317-.664-.488l-.132-.1a.056.056,0,0,0,.03-.041l.008-.04c.013-.055.036-.158.071-.3.012-.046.024-.1.04-.151a17.3,17.3,0,0,1,.931-2.724,4.164,4.164,0,0,1,1.884-2.29,1.333,1.333,0,0,1,.737-.052,1.562,1.562,0,0,1,.352.117,2.348,2.348,0,0,1,.506.315,2.377,2.377,0,0,1,.834,1.88,8.176,8.176,0,0,1-.722,3.154q-.09.22-.185.432l-.01.02m-2.844.784c-.288-.158-.565-.329-.836-.512-.227-.153-.449-.317-.664-.488l-.132-.1-.052.106.112.089q.332.266.685.5a10.626,10.626,0,0,0,1.261.733Z" transform="translate(-29.083 -9.635)" fill="#4c56b5"/>
        <path id="Trazado_730974" data-name="Trazado 730974" d="M72.791,12.667s.009,2.14-1.023,2.99-.623-3.712,1.023-2.99" transform="translate(-26.464 -4.679)" fill="#603225"/>
        <path id="Trazado_730975" data-name="Trazado 730975" d="M76.608,14.546c.155.354-1.862-3.031-4.344-1.81-.122-.648.731-.586.731-.586s2.244-.718,3.613,2.4" transform="translate(-26.854 -4.489)" fill="#4c56b5"/>
        <path id="Trazado_730976" data-name="Trazado 730976" d="M69.69,27.473h-.066c0,.012.066.013.066.013s.007-.014,0-.014" transform="translate(-25.877 -10.211)" fill="#37459b"/>
        <path id="Trazado_730977" data-name="Trazado 730977" d="M70.782,25.521a4,4,0,0,0-1.358.975,1.821,1.821,0,0,0-.291.381c-.01.02.013.046.032.027.062-.063.111-.14.168-.209s.109-.129.165-.191a3.912,3.912,0,0,1,.394-.369,3.709,3.709,0,0,1,.907-.549c.034-.014.019-.08-.016-.064" transform="translate(-25.694 -9.484)" fill="#37459b"/>
        <path id="Trazado_730978" data-name="Trazado 730978" d="M74.7,24.837a2.1,2.1,0,0,0-.47.022,2.374,2.374,0,0,0-.453.106c-.046.016-.029.1.021.085a3.331,3.331,0,0,1,.45-.089,4.373,4.373,0,0,1,.454-.018c.061,0,.057-.1,0-.106" transform="translate(-27.409 -9.229)" fill="#37459b"/>
        <path id="Trazado_730979" data-name="Trazado 730979" d="M82.291,24.926a.338.338,0,0,0-.149-.04l-.155-.021c-.1-.013-.209-.022-.314-.028a4.847,4.847,0,0,0-.641.008.051.051,0,0,0-.046.041c.008.05.023.071.047.07a5.283,5.283,0,0,1,.631,0c.1.006.2.016.3.028.056.007.112.015.168.024a.335.335,0,0,0,.145.008.052.052,0,0,0,.009-.089" transform="translate(-30.1 -9.229)" fill="#37459b"/>
        <path id="Trazado_730980" data-name="Trazado 730980" d="M87.06,27.678a2.729,2.729,0,0,0-.232-.949,2.2,2.2,0,0,0-.5-.649,3.4,3.4,0,0,0-1.5-.762l-.041-.012c.03-.092-.133-.15-.167-.044-.053.161.194.186.292.212a3.609,3.609,0,0,1,.826.328,2.269,2.269,0,0,1,1.122,1.285,4.829,4.829,0,0,1,.148,1.111c.023.374.033.748.03,1.123a15.2,15.2,0,0,1-.19,2.233q-.088.555-.214,1.1c-.043.182-.085.365-.133.546s-.107.359-.153.54c-.023.089-.045.178-.067.268a5.969,5.969,0,0,0,.341-1c.1-.348.172-.7.239-1.056a15.687,15.687,0,0,0,.244-2.124,14.681,14.681,0,0,0-.049-2.155" transform="translate(-31.45 -9.368)" fill="#37459b"/>
        <path id="Trazado_730981" data-name="Trazado 730981" d="M71.133,37.764a.362.362,0,0,0-.155.01c-.052.007-.1.013-.156.018a2.816,2.816,0,0,1-.334.012,2.93,2.93,0,0,1-.323-.026c-.055-.007-.108-.016-.162-.027a.462.462,0,0,0-.083-.017c-.018,0-.028.013-.043.014a.026.026,0,0,0-.011.047c.021.013.022.03.048.038s.052.013.077.018c.055.012.109.022.164.031a2.86,2.86,0,0,0,.336.032,2.817,2.817,0,0,0,.334-.008c.056,0,.111-.011.166-.02a.317.317,0,0,0,.154-.044.047.047,0,0,0-.01-.079" transform="translate(-25.963 -14.025)" fill="#37459b"/>
        <path id="Trazado_730982" data-name="Trazado 730982" d="M68.2,96.027a.918.918,0,0,0-.145-.4,1.515,1.515,0,0,0-.306-.337,2.95,2.95,0,0,0-.368-.275.517.517,0,0,0-.378-.094.321.321,0,0,0-.227.266.457.457,0,0,0-.351.195.4.4,0,0,0,0,.4,1.025,1.025,0,0,0,.628.494,2.155,2.155,0,0,0,.74.077.846.846,0,0,0,.134.025.615.615,0,0,0,.214-.018.059.059,0,0,0,.028-.091.42.42,0,0,0,.031-.233m-.964-.957a1.561,1.561,0,0,1,.31.2,2.255,2.255,0,0,1,.3.257,1.008,1.008,0,0,1,.213.331.682.682,0,0,1,.041.17c.005.046.021.151-.033.172a.309.309,0,0,1-.087.009l-.1.006-.06,0a1.121,1.121,0,0,1-.41-.233,3.736,3.736,0,0,1-.274-.263,1.066,1.066,0,0,1-.212-.284.436.436,0,0,1-.038-.134,1.084,1.084,0,0,1,.251.058,1.578,1.578,0,0,1,.346.169,1.48,1.48,0,0,1,.3.25c.085.094.151.2.233.3.018.021.045-.005.039-.027a.887.887,0,0,0-.206-.337,1.691,1.691,0,0,0-.295-.266,1.549,1.549,0,0,0-.358-.19,1.169,1.169,0,0,0-.3-.075.236.236,0,0,1,.04-.08.251.251,0,0,1,.307-.033m-.011,1.118a1.084,1.084,0,0,1-.612-.329.435.435,0,0,1-.133-.332.292.292,0,0,1,.219-.209.409.409,0,0,1,.072-.013,1.074,1.074,0,0,0,.394.621,2.282,2.282,0,0,0,.356.3,1.941,1.941,0,0,1-.3-.033" transform="translate(-24.67 -35.274)" fill="#37459b"/>
        <path id="Trazado_730983" data-name="Trazado 730983" d="M79.812,95.837a.127.127,0,0,1,0-.067.689.689,0,0,0-.045-.456,2.207,2.207,0,0,0-.25-.363,1.333,1.333,0,0,0-.317-.309c-.195-.126-.629-.238-.682.1a.507.507,0,0,0,0,.175.682.682,0,0,0-.178-.019.447.447,0,0,0-.3.111.281.281,0,0,0-.057.317.711.711,0,0,0,.291.287,2.4,2.4,0,0,0,.394.207,2.366,2.366,0,0,0,.822.176c.009.014.017.028.026.042.033.053.1.01.085-.039a.206.206,0,0,0,.133-.035.1.1,0,0,1,.062-.014c.058,0,.06-.093.011-.109m-1.144-1.15a.233.233,0,0,1,.153-.035.565.565,0,0,1,.187.038,1.3,1.3,0,0,1,.542.507.7.7,0,0,1,.168.349.743.743,0,0,1-.018.2c0,.014-.005.031-.008.047a1.543,1.543,0,0,1-.239-.108l-.038-.023a2.2,2.2,0,0,0-.35-.434,1.385,1.385,0,0,0-.408-.271c-.032-.083-.057-.21.011-.271m.459.774a2.251,2.251,0,0,1-.341-.3,1.407,1.407,0,0,1,.2.156,1.711,1.711,0,0,1,.136.142m-.259.29a2,2,0,0,1-.674-.356c-.069-.058-.157-.157-.106-.253a.269.269,0,0,1,.21-.114.623.623,0,0,1,.273.031,1.17,1.17,0,0,0,.291.351,3.394,3.394,0,0,0,.505.38l.042.067a2.285,2.285,0,0,1-.542-.106" transform="translate(-28.976 -35.13)" fill="#37459b"/>
      </g>
    </g>
  </g>
</svg>
