<svg xmlns="http://www.w3.org/2000/svg" xmlns:xlink="http://www.w3.org/1999/xlink" width="216" height="216" viewBox="0 0 216 216">
  <defs>
    <filter id="Trazado_113935" x="0" y="0" width="216" height="216" filterUnits="userSpaceOnUse">
      <feOffset input="SourceAlpha"/>
      <feGaussianBlur stdDeviation="20" result="blur"/>
      <feFlood flood-color="#402d27" flood-opacity="0.263"/>
      <feComposite operator="in" in2="blur"/>
      <feComposite in="SourceGraphic"/>
    </filter>
    <clipPath id="clip-path">
      <rect id="Rectángulo_344660" data-name="Rectángulo 344660" width="71.869" height="74.469" fill="none"/>
    </clipPath>
  </defs>
  <g id="a3" transform="translate(-844.333 -322.495)">
    <g transform="matrix(1, 0, 0, 1, 844.33, 322.5)" filter="url(#Trazado_113935)">
      <path id="Trazado_113935-2" data-name="Trazado 113935" d="M48,0A48,48,0,1,1,0,48,48,48,0,0,1,48,0Z" transform="translate(60 60)" fill="#ea526f"/>
    </g>
    <g id="Grupo_986751" data-name="Grupo 986751" transform="translate(912.832 390.594)">
      <g id="Grupo_986751-2" data-name="Grupo 986751" transform="translate(0 0)" clip-path="url(#clip-path)">
        <path id="Trazado_730078" data-name="Trazado 730078" d="M84.376,12.687s-1.62,1.883-.581,3.729c-.636.905.154,4.23,3.38,3.774l3.227-.458s-.1,1.555,1.3,1.2,1.355-2.108,1.355-2.108,1.276.4,1.44-1.192-1.76-2.989-1.76-2.989a1.7,1.7,0,0,0,.183-2.167c-.825-1.156-2.4-.489-2.4-.489s-5.231-1.432-6.148.7" transform="translate(-22.929 -3.164)" fill="#8c5546"/>
        <rect id="Rectángulo_344591" data-name="Rectángulo 344591" width="40.606" height="1.778" transform="translate(3.406 0.001)" fill="#8b9192"/>
        <rect id="Rectángulo_344592" data-name="Rectángulo 344592" width="40.605" height="1.777" transform="translate(2.878 22.195)" fill="#8b9192"/>
        <rect id="Rectángulo_344593" data-name="Rectángulo 344593" width="40.605" height="1.778" transform="translate(2.878 45.727)" fill="#8b9192"/>
        <path id="Trazado_730079" data-name="Trazado 730079" d="M76.8,84.624l2.031-.967s-.928-7.83-1.567-13.287a32.859,32.859,0,0,1,.4-10.213c.784-3.949,1.77-8.839,1.931-9.281.061-.166,9.681.584,9.54.957-.075.183-1.8,3.687-3.564,7.194a26.7,26.7,0,0,0-2.509,16.108c.762,4.88,1.567,9.851,1.567,9.851l.078.5a2.377,2.377,0,0,1-2.328,2.737l-4.886-.06a1.787,1.787,0,0,1-1.6-1.073,1.9,1.9,0,0,1,.9-2.464" transform="translate(-20.81 -13.973)" fill="#ffb888"/>
        <path id="Trazado_730080" data-name="Trazado 730080" d="M84.2,90.314l-6.161.318.308,3.585a3.382,3.382,0,0,0-2.877,4.24.924.924,0,0,0,.9.778H83.6a1.456,1.456,0,0,0,1.415-1.643Z" transform="translate(-20.715 -24.816)" fill="#d8ceae"/>
        <path id="Trazado_730081" data-name="Trazado 730081" d="M77.818,65.711h7.738l-7.22-3.256Z" transform="translate(-21.383 -17.161)" fill="#603225"/>
        <path id="Trazado_730082" data-name="Trazado 730082" d="M87.529,84.431,89.2,83.5c-.009-.139-.382-4.559-.473-5.386-.036-.336-1.875-9.064-2.4-11.968-.115-.636-.663-15.4-.7-15.7H94.1c-.176.489-1.109,8.7-1.593,12.825a18.227,18.227,0,0,0,.06,4.719c.777,5.4,2.617,17.4,2.622,17.531a2.4,2.4,0,0,1-2.237,2.548l-4.42.219a1.964,1.964,0,0,1-1.836-1.074,2.1,2.1,0,0,1,.835-2.783" transform="translate(-23.528 -13.861)" fill="#ffb888"/>
        <path id="Trazado_730083" data-name="Trazado 730083" d="M94.6,90.314l-6.161.318.308,3.585a3.381,3.381,0,0,0-2.876,4.24.923.923,0,0,0,.9.778h7.23a1.456,1.456,0,0,0,1.415-1.643Z" transform="translate(-23.574 -24.816)" fill="#e9e1c2"/>
        <path id="Trazado_730084" data-name="Trazado 730084" d="M86.253,67.41l6.339-1.5-6.462-1.5Z" transform="translate(-23.667 -17.697)" fill="#603225"/>
        <path id="Trazado_730085" data-name="Trazado 730085" d="M85.783,99.647a.053.053,0,0,1-.052-.046,3.418,3.418,0,0,1,.883-2.873,3.531,3.531,0,0,1,1.136-.814.054.054,0,0,1,.069.03.053.053,0,0,1-.029.069,3.5,3.5,0,0,0-1.1.791,3.317,3.317,0,0,0-.852,2.784.053.053,0,0,1-.046.059h-.007" transform="translate(-23.548 -26.354)" fill="#fff"/>
        <path id="Trazado_730086" data-name="Trazado 730086" d="M79.449,47.706a.225.225,0,0,0,.156.135c.969.227,9.351,2.1,12.469-.47a3.871,3.871,0,0,0,.436-.4.266.266,0,0,0-.041-.387c-2.511-1.773-13.722-.574-13.019,1.119" transform="translate(-21.822 -12.56)" fill="#000949"/>
        <path id="Trazado_730087" data-name="Trazado 730087" d="M78.318,44.389c-.174.292-3.9,14.613-3.9,14.613s7.222,3.576,17.9,1.628c-.632-13.049-2.494-16.666-2.494-16.666Z" transform="translate(-20.448 -12.081)" fill="#8b88f5"/>
        <path id="Trazado_730088" data-name="Trazado 730088" d="M73.582,30.674s.167-1.72-.747,0-3.443,3.8-1.506,3.429a3.067,3.067,0,0,0,2.253-3.429" transform="translate(-19.404 -8.219)" fill="#000949"/>
        <path id="Trazado_730089" data-name="Trazado 730089" d="M79.376,24.951c-.028-1.577-1.6-2.7-2.84-1.918-1.59,1-4.19,2.754-6.781,1.149a8.993,8.993,0,0,1-3.778-4.837,5.262,5.262,0,0,1-2.564.921c.664,2.929,2.618,7.353,4.2,8.361a8.224,8.224,0,0,0,9.615-.5c1.733-1.378,2.17-1.975,2.149-3.171" transform="translate(-17.424 -5.315)" fill="#ffb888"/>
        <path id="Trazado_730090" data-name="Trazado 730090" d="M63.762,20.027s-1.867-3.8-.769-3.623c-.421-1.7-.131-1.9.223-1.661-.063-.585.452-1.438.862-.366.113-.751.695-.294,1.271,1.421.877-.862,1.4-1.091,1.35-.347a13.968,13.968,0,0,1-.738,2.519l.394,1.458Z" transform="translate(-17.214 -3.81)" fill="#ffb888"/>
        <path id="Trazado_730091" data-name="Trazado 730091" d="M68.681,23.316s.706,4.137-3.1,4.581c4.277,3.215,7.09,4.992,13.508.595a13.936,13.936,0,0,0,2.308-5.95,10.5,10.5,0,0,0-4.52,1.21c-1.756.96-2.359,2.013-4.188,1.777a8.492,8.492,0,0,1-4.01-2.212" transform="translate(-18.021 -6.194)" fill="#e9e1c2"/>
        <path id="Trazado_730092" data-name="Trazado 730092" d="M92.008,28.535a4.244,4.244,0,0,0-.881-4.225,6.8,6.8,0,0,0-11.913,3,46.474,46.474,0,0,0-1.58,7.337s-1.51,5.325.587,5.812,5.618,1.745,9.356-.13c2.942-1.475,4.363-.132,4.363-.132a12.583,12.583,0,0,0-.967-2.888c-2.169-5.247.054-5.886,1.036-8.773" transform="translate(-21.187 -6.013)" fill="#e9e1c2"/>
        <path id="Trazado_730093" data-name="Trazado 730093" d="M77.107,37.878a.053.053,0,0,1-.052-.056A41.156,41.156,0,0,1,78.137,31a20.948,20.948,0,0,1,1.941-5.148,6.951,6.951,0,0,1,3.414-3.3.053.053,0,0,1,.037.1A6.853,6.853,0,0,0,80.171,25.9a20.839,20.839,0,0,0-1.931,5.121,41.235,41.235,0,0,0-1.08,6.806.053.053,0,0,1-.053.05" transform="translate(-21.173 -6.195)" fill="#756641"/>
        <path id="Trazado_730094" data-name="Trazado 730094" d="M91.238,17.153l-.718,4.453a1.832,1.832,0,0,1-2.1,1.551,1.875,1.875,0,0,1-1.513-2.062c0-.036.007-.074.014-.11l.009-.061.289-1.793.01-.061.408-2.538Z" transform="translate(-23.877 -4.542)" fill="#ffb888"/>
        <path id="Trazado_730095" data-name="Trazado 730095" d="M90.946,15.116s-1.838,4.138-4.623,3.486S84.385,12.135,85.03,11s3.959-2.036,5.751.534c1.022,1.465.165,3.58.165,3.58" transform="translate(-23.187 -2.714)" fill="#ffb888"/>
        <path id="Trazado_730096" data-name="Trazado 730096" d="M92.173,16.421c.361-.324,1.175-.455,1.281.3.115.825-1.07.994-1.441,1.026Z" transform="translate(-25.283 -4.441)" fill="#ffb888"/>
        <path id="Trazado_730097" data-name="Trazado 730097" d="M92.421,17.041a.058.058,0,0,0,.057-.025.506.506,0,0,1,.7-.174.056.056,0,0,0,.078-.022.06.06,0,0,0-.02-.081.626.626,0,0,0-.859.21.061.061,0,0,0,.016.083.048.048,0,0,0,.022.01" transform="translate(-25.382 -4.574)" fill="#ee4c00"/>
        <path id="Trazado_730098" data-name="Trazado 730098" d="M85.251,15.826a.218.218,0,0,1-.426.1.218.218,0,0,1,.426-.1" transform="translate(-23.307 -4.302)" fill="#212745"/>
        <path id="Trazado_730099" data-name="Trazado 730099" d="M87.46,16a.218.218,0,0,1-.426.1.218.218,0,0,1,.426-.1" transform="translate(-23.914 -4.349)" fill="#212745"/>
        <path id="Trazado_730100" data-name="Trazado 730100" d="M86.594,18.9a.51.51,0,0,1-.716.085.64.64,0,0,1-.14-.143.125.125,0,0,1,.087-.207.67.67,0,0,0,.469-.142c.228-.213.447.157.3.407" transform="translate(-23.551 -5.064)" fill="#6a3d2e"/>
        <path id="Trazado_730101" data-name="Trazado 730101" d="M87.906,17.267a.256.256,0,0,0,.2.3.249.249,0,0,0,.286-.211.256.256,0,0,0-.2-.3.25.25,0,0,0-.286.211" transform="translate(-24.154 -4.686)" fill="#ee4c00"/>
        <path id="Trazado_730102" data-name="Trazado 730102" d="M87.273,21.536a2.434,2.434,0,0,1-.461-.045,2.309,2.309,0,0,1-1.454-.912.059.059,0,0,1,.017-.082.058.058,0,0,1,.08.017,2.189,2.189,0,0,0,1.379.862c1.711.33,2.942-1.387,2.955-1.4a.058.058,0,0,1,.081-.015.059.059,0,0,1,.014.081,3.657,3.657,0,0,1-2.612,1.5" transform="translate(-23.452 -5.481)" fill="#ee4c00"/>
        <path id="Trazado_730103" data-name="Trazado 730103" d="M86.727,21.905s-.862-.145-.871.883c.011,1.635,1.348,2.132,2.646,2.045S90.63,23,90.63,23a2.273,2.273,0,0,1-2.387.968,2.474,2.474,0,0,1-1.516-2.063" transform="translate(-23.591 -6.017)" fill="#8b88f5"/>
        <path id="Trazado_730104" data-name="Trazado 730104" d="M91.1,21.428a1.146,1.146,0,0,1,.459,1.231c-.322,2.2-2.266,2.349-3.493,1.115,3.034.01,3.034-2.345,3.034-2.345" transform="translate(-24.199 -5.888)" fill="#8b88f5"/>
        <path id="Trazado_730105" data-name="Trazado 730105" d="M90.665,25.265a.5.5,0,0,1-.067.65.4.4,0,0,1-.591-.073.5.5,0,0,1,.067-.651.4.4,0,0,1,.591.074" transform="translate(-24.707 -6.894)" fill="#8b88f5"/>
        <path id="Trazado_730106" data-name="Trazado 730106" d="M90.788,26.956a1.581,1.581,0,0,1-.472,1,1.581,1.581,0,0,1-.472-1c0-.551.211-1,.472-1s.472.446.472,1" transform="translate(-24.687 -7.133)" fill="#8b88f5"/>
        <path id="Trazado_730107" data-name="Trazado 730107" d="M92.36,25.524a2.375,2.375,0,0,1,1.06,1.215,2.03,2.03,0,0,1-1.527.108c-.714-.306-1.189-.85-1.06-1.215s.814-.413,1.527-.107" transform="translate(-24.953 -6.958)" fill="#8b88f5"/>
        <rect id="Rectángulo_344594" data-name="Rectángulo 344594" width="1.893" height="74.458" transform="translate(1.987)" fill="#8b9192"/>
        <rect id="Rectángulo_344595" data-name="Rectángulo 344595" width="1.893" height="74.458" transform="translate(42.119)" fill="#8b9192"/>
        <rect id="Rectángulo_344596" data-name="Rectángulo 344596" width="8.069" height="22.769" transform="translate(6.404 0.001)" fill="#e0694e"/>
        <rect id="Rectángulo_344597" data-name="Rectángulo 344597" width="8.069" height="2.546" transform="translate(6.404 0)" fill="#e0694e"/>
        <path id="Trazado_730108" data-name="Trazado 730108" d="M11.4.04a.366.366,0,0,0-.09.236.536.536,0,0,0,1.048,0A.365.365,0,0,0,12.265.04Z" transform="translate(-3.107 -0.011)" fill="#fff"/>
        <path id="Trazado_730109" data-name="Trazado 730109" d="M18.081.888a.482.482,0,0,1-.524-.424.536.536,0,0,1,1.049,0,.483.483,0,0,1-.524.424" transform="translate(-4.824 -0.011)" fill="#fff"/>
        <path id="Trazado_730110" data-name="Trazado 730110" d="M14.953,3.3a.483.483,0,0,1-.524-.424.536.536,0,0,1,1.049,0,.483.483,0,0,1-.524.424" transform="translate(-3.965 -0.674)" fill="#fff"/>
        <path id="Trazado_730111" data-name="Trazado 730111" d="M18.107,5.713a.483.483,0,0,1-.524-.424.536.536,0,0,1,1.049,0,.483.483,0,0,1-.524.424" transform="translate(-4.831 -1.337)" fill="#fff"/>
        <path id="Trazado_730112" data-name="Trazado 730112" d="M8.856,3.3a.662.662,0,0,1-.115-.011V2.462a.662.662,0,0,1,.115-.01.483.483,0,0,1,.524.424.483.483,0,0,1-.524.424" transform="translate(-2.402 -0.674)" fill="#fff"/>
        <path id="Trazado_730113" data-name="Trazado 730113" d="M11.856,5.713a.483.483,0,0,1-.524-.424.536.536,0,0,1,1.048,0,.482.482,0,0,1-.524.424" transform="translate(-3.114 -1.337)" fill="#fff"/>
        <path id="Trazado_730114" data-name="Trazado 730114" d="M14.957,8.224a.483.483,0,0,1-.524-.424.536.536,0,0,1,1.049,0,.482.482,0,0,1-.524.424" transform="translate(-3.966 -2.026)" fill="#fff"/>
        <path id="Trazado_730115" data-name="Trazado 730115" d="M8.876,8.125a.63.63,0,0,1-.135-.015v-.82a.587.587,0,0,1,.135-.015A.483.483,0,0,1,9.4,7.7a.483.483,0,0,1-.524.424" transform="translate(-2.402 -1.999)" fill="#fff"/>
        <path id="Trazado_730116" data-name="Trazado 730116" d="M11.829,10.636a.483.483,0,0,1-.524-.424.536.536,0,0,1,1.049,0,.483.483,0,0,1-.524.424" transform="translate(-3.106 -2.689)" fill="#fff"/>
        <path id="Trazado_730117" data-name="Trazado 730117" d="M18.081,10.895a.482.482,0,0,1-.524-.424.536.536,0,0,1,1.049,0,.483.483,0,0,1-.524.424" transform="translate(-4.824 -2.76)" fill="#fff"/>
        <path id="Trazado_730118" data-name="Trazado 730118" d="M14.953,13.307a.434.434,0,1,1,.524-.424.483.483,0,0,1-.524.424" transform="translate(-3.965 -3.423)" fill="#fff"/>
        <path id="Trazado_730119" data-name="Trazado 730119" d="M18.107,15.719a.434.434,0,1,1,.524-.424.483.483,0,0,1-.524.424" transform="translate(-4.831 -4.086)" fill="#fff"/>
        <path id="Trazado_730120" data-name="Trazado 730120" d="M8.856,13.306a.6.6,0,0,1-.115-.011v-.827a.6.6,0,0,1,.115-.012.434.434,0,1,1,0,.849" transform="translate(-2.402 -3.423)" fill="#fff"/>
        <path id="Trazado_730121" data-name="Trazado 730121" d="M11.856,15.719a.434.434,0,1,1,.524-.424.483.483,0,0,1-.524.424" transform="translate(-3.114 -4.086)" fill="#fff"/>
        <path id="Trazado_730122" data-name="Trazado 730122" d="M14.957,18.232a.434.434,0,1,1,.524-.425.483.483,0,0,1-.524.425" transform="translate(-3.966 -4.776)" fill="#fff"/>
        <path id="Trazado_730123" data-name="Trazado 730123" d="M8.876,18.132a.63.63,0,0,1-.135-.015V17.3a.587.587,0,0,1,.135-.015.434.434,0,1,1,0,.849" transform="translate(-2.402 -4.749)" fill="#fff"/>
        <path id="Trazado_730124" data-name="Trazado 730124" d="M11.829,20.644a.434.434,0,1,1,.524-.424.483.483,0,0,1-.524.424" transform="translate(-3.106 -5.439)" fill="#fff"/>
        <path id="Trazado_730125" data-name="Trazado 730125" d="M18.081,20.9a.434.434,0,1,1,.524-.424.482.482,0,0,1-.524.424" transform="translate(-4.824 -5.51)" fill="#fff"/>
        <path id="Trazado_730126" data-name="Trazado 730126" d="M14.953,23.314a.434.434,0,1,1,.524-.424.483.483,0,0,1-.524.424" transform="translate(-3.965 -6.173)" fill="#fff"/>
        <path id="Trazado_730127" data-name="Trazado 730127" d="M18.107,25.726a.434.434,0,1,1,.524-.424.482.482,0,0,1-.524.424" transform="translate(-4.831 -6.836)" fill="#fff"/>
        <path id="Trazado_730128" data-name="Trazado 730128" d="M8.856,23.314a.6.6,0,0,1-.115-.011v-.827a.6.6,0,0,1,.115-.011.434.434,0,1,1,0,.849" transform="translate(-2.402 -6.173)" fill="#fff"/>
        <path id="Trazado_730129" data-name="Trazado 730129" d="M11.856,25.726a.434.434,0,1,1,.524-.424.482.482,0,0,1-.524.424" transform="translate(-3.114 -6.836)" fill="#fff"/>
        <path id="Trazado_730130" data-name="Trazado 730130" d="M14.957,28.239a.434.434,0,1,1,.524-.424.483.483,0,0,1-.524.424" transform="translate(-3.966 -7.526)" fill="#fff"/>
        <path id="Trazado_730131" data-name="Trazado 730131" d="M8.876,28.138a.587.587,0,0,1-.135-.015V27.3a.587.587,0,0,1,.135-.015.434.434,0,1,1,0,.849" transform="translate(-2.402 -7.498)" fill="#fff"/>
        <path id="Trazado_730132" data-name="Trazado 730132" d="M11.829,30.651a.434.434,0,1,1,.524-.424.483.483,0,0,1-.524.424" transform="translate(-3.106 -8.189)" fill="#fff"/>
        <path id="Trazado_730133" data-name="Trazado 730133" d="M18.081,30.909a.434.434,0,1,1,.524-.425.482.482,0,0,1-.524.425" transform="translate(-4.824 -8.26)" fill="#fff"/>
        <rect id="Rectángulo_344598" data-name="Rectángulo 344598" width="9.644" height="22.769" transform="translate(12.581 0.001)" fill="#ce4f38"/>
        <rect id="Rectángulo_344599" data-name="Rectángulo 344599" width="9.644" height="2.546" transform="translate(12.581 0)" fill="#ce4f38"/>
        <rect id="Rectángulo_344600" data-name="Rectángulo 344600" width="9.645" height="22.769" transform="translate(20.147 0.001)" fill="#ffaea0"/>
        <rect id="Rectángulo_344601" data-name="Rectángulo 344601" width="9.645" height="2.545" transform="translate(20.147 0.001)" fill="#ffaea0"/>
        <path id="Trazado_730134" data-name="Trazado 730134" d="M30.312,0,27.78,1.716V.748L28.884,0Z" transform="translate(-7.633 0)" fill="#d35540"/>
        <path id="Trazado_730135" data-name="Trazado 730135" d="M33.954,0,30.2,2.546,27.78,4.184V3.216L32.526,0Z" transform="translate(-7.633 0)" fill="#d35540"/>
        <path id="Trazado_730136" data-name="Trazado 730136" d="M37.425,0V.117L27.78,6.651V5.684l4.632-3.137L36.169,0Z" transform="translate(-7.633 0)" fill="#d35540"/>
        <path id="Trazado_730137" data-name="Trazado 730137" d="M37.425,2.229V3.2L27.78,9.731V8.763l8.274-5.605Z" transform="translate(-7.633 -0.612)" fill="#d35540"/>
        <path id="Trazado_730138" data-name="Trazado 730138" d="M37.425,5.631V6.6L27.78,13.133v-.967Z" transform="translate(-7.633 -1.547)" fill="#d35540"/>
        <path id="Trazado_730139" data-name="Trazado 730139" d="M37.425,9.034V10L27.78,16.535v-.967Z" transform="translate(-7.633 -2.482)" fill="#d35540"/>
        <path id="Trazado_730140" data-name="Trazado 730140" d="M37.425,12.436V13.4L27.78,19.936v-.967Z" transform="translate(-7.633 -3.417)" fill="#d35540"/>
        <path id="Trazado_730141" data-name="Trazado 730141" d="M37.425,15.837V16.8L27.78,23.338v-.967Z" transform="translate(-7.633 -4.352)" fill="#d35540"/>
        <path id="Trazado_730142" data-name="Trazado 730142" d="M37.425,19.24v.967L27.78,26.741v-.967Z" transform="translate(-7.633 -5.287)" fill="#d35540"/>
        <path id="Trazado_730143" data-name="Trazado 730143" d="M37.528,22.642v.967l-7.944,5.383H28.156Z" transform="translate(-7.737 -6.222)" fill="#d35540"/>
        <path id="Trazado_730144" data-name="Trazado 730144" d="M38.908,26.043v.967l-4.3,2.915H33.177Z" transform="translate(-9.116 -7.156)" fill="#d35540"/>
        <path id="Trazado_730145" data-name="Trazado 730145" d="M40.288,29.446v.967l-.66.447H38.2Z" transform="translate(-10.497 -8.091)" fill="#d35540"/>
        <rect id="Rectángulo_344602" data-name="Rectángulo 344602" width="6.96" height="22.769" transform="translate(27.521 0.001)" fill="#e0694e"/>
        <rect id="Rectángulo_344603" data-name="Rectángulo 344603" width="6.96" height="2.545" transform="translate(27.521 0.001)" fill="#e0694e"/>
        <path id="Trazado_730146" data-name="Trazado 730146" d="M38.893,28.481l-.445.418a.163.163,0,0,0,0,.241.19.19,0,0,0,.257,0l.446-.418a.165.165,0,0,0,0-.241.191.191,0,0,0-.257,0" transform="translate(-10.55 -7.812)" fill="#cc4e38"/>
        <path id="Trazado_730147" data-name="Trazado 730147" d="M39.93,28.481l-.445.418a.162.162,0,0,0,0,.241.19.19,0,0,0,.257,0l.446-.418a.165.165,0,0,0,0-.241.191.191,0,0,0-.257,0" transform="translate(-10.835 -7.812)" fill="#cc4e38"/>
        <path id="Trazado_730148" data-name="Trazado 730148" d="M41.02,28.481l-.445.418a.163.163,0,0,0,0,.241.19.19,0,0,0,.257,0l.446-.418a.163.163,0,0,0,0-.241.191.191,0,0,0-.257,0" transform="translate(-11.134 -7.812)" fill="#cc4e38"/>
        <path id="Trazado_730149" data-name="Trazado 730149" d="M44.159,25.565l-.445.418a.163.163,0,0,0,0,.242.19.19,0,0,0,.257,0l.446-.418a.164.164,0,0,0,0-.241.191.191,0,0,0-.257,0" transform="translate(-11.997 -7.011)" fill="#cc4e38"/>
        <path id="Trazado_730150" data-name="Trazado 730150" d="M45.2,25.565l-.445.418a.162.162,0,0,0,0,.242.19.19,0,0,0,.257,0l.445-.418a.163.163,0,0,0,0-.241.19.19,0,0,0-.257,0" transform="translate(-12.282 -7.011)" fill="#cc4e38"/>
        <path id="Trazado_730151" data-name="Trazado 730151" d="M46.286,25.565l-.445.418a.163.163,0,0,0,0,.242.19.19,0,0,0,.257,0l.445-.418a.161.161,0,0,0,0-.241.19.19,0,0,0-.257,0" transform="translate(-12.581 -7.011)" fill="#cc4e38"/>
        <path id="Trazado_730152" data-name="Trazado 730152" d="M38.893,23.288l-.445.418a.163.163,0,0,0,0,.241.19.19,0,0,0,.257,0l.446-.418a.165.165,0,0,0,0-.241.191.191,0,0,0-.257,0" transform="translate(-10.55 -6.385)" fill="#cc4e38"/>
        <path id="Trazado_730153" data-name="Trazado 730153" d="M39.93,23.288l-.445.418a.162.162,0,0,0,0,.241.19.19,0,0,0,.257,0l.446-.418a.165.165,0,0,0,0-.241.191.191,0,0,0-.257,0" transform="translate(-10.835 -6.385)" fill="#cc4e38"/>
        <path id="Trazado_730154" data-name="Trazado 730154" d="M41.02,23.288l-.445.418a.163.163,0,0,0,0,.241.19.19,0,0,0,.257,0l.446-.418a.163.163,0,0,0,0-.241.191.191,0,0,0-.257,0" transform="translate(-11.134 -6.385)" fill="#cc4e38"/>
        <path id="Trazado_730155" data-name="Trazado 730155" d="M44.159,20.372l-.445.418a.163.163,0,0,0,0,.242.19.19,0,0,0,.257,0l.446-.418a.165.165,0,0,0,0-.242.191.191,0,0,0-.257,0" transform="translate(-11.997 -5.584)" fill="#cc4e38"/>
        <path id="Trazado_730156" data-name="Trazado 730156" d="M45.2,20.372l-.445.418a.162.162,0,0,0,0,.242.19.19,0,0,0,.257,0l.445-.418a.163.163,0,0,0,0-.242.19.19,0,0,0-.257,0" transform="translate(-12.282 -5.584)" fill="#cc4e38"/>
        <path id="Trazado_730157" data-name="Trazado 730157" d="M46.286,20.372l-.445.418a.163.163,0,0,0,0,.242.19.19,0,0,0,.257,0l.445-.418a.162.162,0,0,0,0-.242.19.19,0,0,0-.257,0" transform="translate(-12.581 -5.584)" fill="#cc4e38"/>
        <path id="Trazado_730158" data-name="Trazado 730158" d="M38.893,18.1l-.445.418a.163.163,0,0,0,0,.241.19.19,0,0,0,.257,0l.446-.418a.165.165,0,0,0,0-.241.191.191,0,0,0-.257,0" transform="translate(-10.55 -4.959)" fill="#cc4e38"/>
        <path id="Trazado_730159" data-name="Trazado 730159" d="M39.93,18.1l-.445.418a.162.162,0,0,0,0,.241.19.19,0,0,0,.257,0l.446-.418a.165.165,0,0,0,0-.241.191.191,0,0,0-.257,0" transform="translate(-10.835 -4.959)" fill="#cc4e38"/>
        <path id="Trazado_730160" data-name="Trazado 730160" d="M41.02,18.1l-.445.418a.163.163,0,0,0,0,.241.19.19,0,0,0,.257,0l.446-.418a.163.163,0,0,0,0-.241.191.191,0,0,0-.257,0" transform="translate(-11.134 -4.959)" fill="#cc4e38"/>
        <path id="Trazado_730161" data-name="Trazado 730161" d="M44.159,15.179l-.445.418a.163.163,0,0,0,0,.241.19.19,0,0,0,.257,0l.446-.418a.165.165,0,0,0,0-.241.191.191,0,0,0-.257,0" transform="translate(-11.997 -4.157)" fill="#cc4e38"/>
        <path id="Trazado_730162" data-name="Trazado 730162" d="M45.2,15.179l-.445.418a.162.162,0,0,0,0,.241.19.19,0,0,0,.257,0l.445-.418a.163.163,0,0,0,0-.241.19.19,0,0,0-.257,0" transform="translate(-12.282 -4.157)" fill="#cc4e38"/>
        <path id="Trazado_730163" data-name="Trazado 730163" d="M46.286,15.179l-.445.418a.163.163,0,0,0,0,.241.19.19,0,0,0,.257,0l.445-.418a.162.162,0,0,0,0-.241.19.19,0,0,0-.257,0" transform="translate(-12.581 -4.157)" fill="#cc4e38"/>
        <path id="Trazado_730164" data-name="Trazado 730164" d="M38.893,12.9l-.445.418a.163.163,0,0,0,0,.241.19.19,0,0,0,.257,0l.446-.418a.165.165,0,0,0,0-.241.191.191,0,0,0-.257,0" transform="translate(-10.55 -3.531)" fill="#cc4e38"/>
        <path id="Trazado_730165" data-name="Trazado 730165" d="M39.93,12.9l-.445.418a.161.161,0,0,0,0,.241.19.19,0,0,0,.257,0l.446-.418a.165.165,0,0,0,0-.241.191.191,0,0,0-.257,0" transform="translate(-10.835 -3.531)" fill="#cc4e38"/>
        <path id="Trazado_730166" data-name="Trazado 730166" d="M41.02,12.9l-.445.418a.163.163,0,0,0,0,.241.19.19,0,0,0,.257,0l.446-.418a.163.163,0,0,0,0-.241.191.191,0,0,0-.257,0" transform="translate(-11.134 -3.531)" fill="#cc4e38"/>
        <path id="Trazado_730167" data-name="Trazado 730167" d="M44.159,9.986l-.445.418a.163.163,0,0,0,0,.241.19.19,0,0,0,.257,0l.446-.418a.165.165,0,0,0,0-.241.191.191,0,0,0-.257,0" transform="translate(-11.997 -2.73)" fill="#cc4e38"/>
        <path id="Trazado_730168" data-name="Trazado 730168" d="M45.2,9.986l-.445.418a.161.161,0,0,0,0,.241.19.19,0,0,0,.257,0l.445-.418a.163.163,0,0,0,0-.241.19.19,0,0,0-.257,0" transform="translate(-12.282 -2.73)" fill="#cc4e38"/>
        <path id="Trazado_730169" data-name="Trazado 730169" d="M46.286,9.986l-.445.418a.163.163,0,0,0,0,.241.19.19,0,0,0,.257,0l.445-.418a.162.162,0,0,0,0-.241.19.19,0,0,0-.257,0" transform="translate(-12.581 -2.73)" fill="#cc4e38"/>
        <path id="Trazado_730170" data-name="Trazado 730170" d="M38.893,7.71l-.445.418a.163.163,0,0,0,0,.241.19.19,0,0,0,.257,0l.446-.418a.164.164,0,0,0,0-.241.191.191,0,0,0-.257,0" transform="translate(-10.55 -2.105)" fill="#cc4e38"/>
        <path id="Trazado_730171" data-name="Trazado 730171" d="M39.93,7.71l-.445.418a.162.162,0,0,0,0,.241.19.19,0,0,0,.257,0l.446-.418a.164.164,0,0,0,0-.241.191.191,0,0,0-.257,0" transform="translate(-10.835 -2.105)" fill="#cc4e38"/>
        <path id="Trazado_730172" data-name="Trazado 730172" d="M41.02,7.71l-.445.418a.163.163,0,0,0,0,.241.19.19,0,0,0,.257,0l.446-.418a.163.163,0,0,0,0-.241.191.191,0,0,0-.257,0" transform="translate(-11.134 -2.105)" fill="#cc4e38"/>
        <path id="Trazado_730173" data-name="Trazado 730173" d="M44.159,4.793l-.445.418a.163.163,0,0,0,0,.241.188.188,0,0,0,.257,0l.446-.418a.165.165,0,0,0,0-.241.191.191,0,0,0-.257,0" transform="translate(-11.997 -1.303)" fill="#cc4e38"/>
        <path id="Trazado_730174" data-name="Trazado 730174" d="M45.2,4.793l-.445.418a.161.161,0,0,0,0,.241.188.188,0,0,0,.257,0l.445-.418a.163.163,0,0,0,0-.241.19.19,0,0,0-.257,0" transform="translate(-12.282 -1.303)" fill="#cc4e38"/>
        <path id="Trazado_730175" data-name="Trazado 730175" d="M46.286,4.793l-.445.418a.163.163,0,0,0,0,.241.188.188,0,0,0,.257,0l.445-.418a.162.162,0,0,0,0-.241.19.19,0,0,0-.257,0" transform="translate(-12.581 -1.303)" fill="#cc4e38"/>
        <path id="Trazado_730176" data-name="Trazado 730176" d="M38.893,1.985l-.445.418a.163.163,0,0,0,0,.241.19.19,0,0,0,.257,0l.446-.418a.164.164,0,0,0,0-.241.191.191,0,0,0-.257,0" transform="translate(-10.55 -0.532)" fill="#cc4e38"/>
        <path id="Trazado_730177" data-name="Trazado 730177" d="M39.93,1.985l-.445.418a.162.162,0,0,0,0,.241.19.19,0,0,0,.257,0l.446-.418a.164.164,0,0,0,0-.241.191.191,0,0,0-.257,0" transform="translate(-10.835 -0.532)" fill="#cc4e38"/>
        <path id="Trazado_730178" data-name="Trazado 730178" d="M41.02,1.985l-.445.418a.163.163,0,0,0,0,.241.19.19,0,0,0,.257,0l.446-.418a.163.163,0,0,0,0-.241.191.191,0,0,0-.257,0" transform="translate(-11.134 -0.532)" fill="#cc4e38"/>
        <path id="Trazado_730179" data-name="Trazado 730179" d="M43.946,0l-.408.381a.187.187,0,0,1-.257,0,.162.162,0,0,1,0-.24L43.432,0Z" transform="translate(-11.878 0)" fill="#cc4e38"/>
        <path id="Trazado_730180" data-name="Trazado 730180" d="M44.982,0l-.407.381a.187.187,0,0,1-.257,0,.162.162,0,0,1,0-.24L44.469,0Z" transform="translate(-12.163 0)" fill="#cc4e38"/>
        <path id="Trazado_730181" data-name="Trazado 730181" d="M46.073,0l-.407.381a.187.187,0,0,1-.257,0,.162.162,0,0,1,0-.24L45.56,0Z" transform="translate(-12.463 0)" fill="#cc4e38"/>
        <rect id="Rectángulo_344604" data-name="Rectángulo 344604" width="7.798" height="25.499" transform="translate(5.678 45.738)" fill="#cc8200"/>
        <rect id="Rectángulo_344605" data-name="Rectángulo 344605" width="7.798" height="2.85" transform="translate(5.678 45.738)" fill="#db8d00"/>
        <rect id="Rectángulo_344606" data-name="Rectángulo 344606" width="7.798" height="25.499" transform="translate(11.797 45.738)" fill="#e29100"/>
        <rect id="Rectángulo_344607" data-name="Rectángulo 344607" width="7.798" height="2.85" transform="translate(11.797 45.738)" fill="#e29100"/>
        <rect id="Rectángulo_344608" data-name="Rectángulo 344608" width="7.8" height="25.5" transform="translate(17.914 45.738)" fill="#e29100"/>
        <rect id="Rectángulo_344609" data-name="Rectángulo 344609" width="7.8" height="2.851" transform="translate(17.914 45.738)" fill="#e29100"/>
        <path id="Trazado_730182" data-name="Trazado 730182" d="M27.14,63.683a1.867,1.867,0,0,1-2.008,1.682,2.384,2.384,0,0,1-.43-.038v-2.26H27a1.439,1.439,0,0,1,.139.616" transform="translate(-6.788 -17.329)" fill="#f2a501"/>
        <path id="Trazado_730183" data-name="Trazado 730183" d="M34.138,64.457v2.286a2.2,2.2,0,0,1-1.473.54,2.015,2.015,0,0,1-1.9-1.13,1.422,1.422,0,0,1-.112-.553,1.866,1.866,0,0,1,2.008-1.682,2.2,2.2,0,0,1,1.473.539" transform="translate(-8.424 -17.563)" fill="#f2a501"/>
        <path id="Trazado_730184" data-name="Trazado 730184" d="M27.14,70.351a1.867,1.867,0,0,1-2.008,1.683,2.319,2.319,0,0,1-.43-.039V68.707a2.319,2.319,0,0,1,.43-.039,1.867,1.867,0,0,1,2.008,1.683" transform="translate(-6.788 -18.868)" fill="#f2a501"/>
        <path id="Trazado_730185" data-name="Trazado 730185" d="M34.138,71.527v2.286a2.2,2.2,0,0,1-1.473.539,1.708,1.708,0,1,1,0-3.364,2.2,2.2,0,0,1,1.473.539" transform="translate(-8.424 -19.506)" fill="#f2a501"/>
        <path id="Trazado_730186" data-name="Trazado 730186" d="M27.14,77.421A1.867,1.867,0,0,1,25.132,79.1a2.383,2.383,0,0,1-.43-.038V75.777a2.384,2.384,0,0,1,.43-.038,1.866,1.866,0,0,1,2.008,1.682" transform="translate(-6.788 -20.811)" fill="#f2a501"/>
        <path id="Trazado_730187" data-name="Trazado 730187" d="M34.138,78.6v2.287a2.2,2.2,0,0,1-1.473.539,1.709,1.709,0,1,1,0-3.364,2.2,2.2,0,0,1,1.473.539" transform="translate(-8.424 -21.449)" fill="#f2a501"/>
        <path id="Trazado_730188" data-name="Trazado 730188" d="M27.14,84.492a1.867,1.867,0,0,1-2.008,1.682,2.383,2.383,0,0,1-.43-.038V82.848a2.32,2.32,0,0,1,.43-.039,1.866,1.866,0,0,1,2.008,1.683" transform="translate(-6.788 -22.754)" fill="#f2a501"/>
        <path id="Trazado_730189" data-name="Trazado 730189" d="M34.138,85.668v2.287a2.2,2.2,0,0,1-1.473.539,1.708,1.708,0,1,1,0-3.364,2.2,2.2,0,0,1,1.473.538" transform="translate(-8.424 -23.392)" fill="#f2a501"/>
        <path id="Trazado_730190" data-name="Trazado 730190" d="M27.14,91.563a1.867,1.867,0,0,1-2.008,1.683,2.383,2.383,0,0,1-.43-.039V89.919a2.384,2.384,0,0,1,.43-.039,1.867,1.867,0,0,1,2.008,1.683" transform="translate(-6.788 -24.697)" fill="#f2a501"/>
        <path id="Trazado_730191" data-name="Trazado 730191" d="M34.138,92.739v2.286a2.195,2.195,0,0,1-1.473.539,1.708,1.708,0,1,1,0-3.364,2.2,2.2,0,0,1,1.473.539" transform="translate(-8.424 -25.334)" fill="#f2a501"/>
        <rect id="Rectángulo_344610" data-name="Rectángulo 344610" width="7.798" height="25.5" transform="translate(25.246 45.738)" fill="#cc8200"/>
        <rect id="Rectángulo_344611" data-name="Rectángulo 344611" width="7.798" height="2.851" transform="translate(25.246 45.738)" fill="#db8d00"/>
        <rect id="Rectángulo_344612" data-name="Rectángulo 344612" width="7.798" height="25.5" transform="translate(32.586 45.738)" fill="#f2a501"/>
        <rect id="Rectángulo_344613" data-name="Rectángulo 344613" width="7.798" height="2.851" transform="translate(32.586 45.738)" fill="#f2a501"/>
        <path id="Trazado_730192" data-name="Trazado 730192" d="M52.731,64.6v.384a1.3,1.3,0,0,1-.8-.462.8.8,0,0,0-1.326,0,1.212,1.212,0,0,1-1.919,0,.8.8,0,0,0-1.327,0,1.211,1.211,0,0,1-1.917,0,.965.965,0,0,0-.506-.335V63.8a1.3,1.3,0,0,1,.8.462.8.8,0,0,0,1.327,0,1.212,1.212,0,0,1,1.919,0,.8.8,0,0,0,1.326,0,1.212,1.212,0,0,1,1.919,0,.962.962,0,0,0,.507.336" transform="translate(-12.346 -17.528)" fill="#e29100"/>
        <path id="Trazado_730193" data-name="Trazado 730193" d="M52.731,66.974v.384a1.3,1.3,0,0,1-.8-.463c-.043-.045-.086-.087-.128-.125a.749.749,0,0,0-1.073,0c-.041.038-.083.08-.126.125a1.211,1.211,0,0,1-1.919,0c-.044-.045-.086-.087-.127-.125a.748.748,0,0,0-1.072,0c-.043.038-.085.08-.128.125a1.21,1.21,0,0,1-1.917,0c-.044-.045-.086-.087-.128-.125a.75.75,0,0,0-.379-.211v-.384a1.3,1.3,0,0,1,.8.463c.047.047.091.091.135.132a.749.749,0,0,0,1.057,0c.045-.041.087-.085.135-.132a1.211,1.211,0,0,1,1.919,0c.046.047.09.091.134.132a.748.748,0,0,0,1.057,0c.044-.041.089-.085.135-.132a1.211,1.211,0,0,1,1.919,0c.046.047.091.091.135.132a.745.745,0,0,0,.372.2" transform="translate(-12.346 -18.181)" fill="#e29100"/>
        <path id="Trazado_730194" data-name="Trazado 730194" d="M52.731,69.351v.384a1.3,1.3,0,0,1-.8-.462.8.8,0,0,0-1.326,0,1.212,1.212,0,0,1-1.919,0,.8.8,0,0,0-1.327,0,1.211,1.211,0,0,1-1.917,0,.966.966,0,0,0-.506-.336v-.384a1.3,1.3,0,0,1,.8.462.8.8,0,0,0,1.327,0,1.211,1.211,0,0,1,1.919,0,.8.8,0,0,0,1.326,0,1.211,1.211,0,0,1,1.919,0,.966.966,0,0,0,.507.336" transform="translate(-12.346 -18.834)" fill="#e29100"/>
        <path id="Trazado_730195" data-name="Trazado 730195" d="M52.731,71.729v.384a1.3,1.3,0,0,1-.8-.462.8.8,0,0,0-1.326,0,1.212,1.212,0,0,1-1.919,0,.8.8,0,0,0-1.327,0,1.211,1.211,0,0,1-1.917,0,.962.962,0,0,0-.506-.336v-.384a1.31,1.31,0,0,1,.8.462.8.8,0,0,0,1.327,0,1.213,1.213,0,0,1,1.919,0,.8.8,0,0,0,1.326,0,1.213,1.213,0,0,1,1.919,0,.964.964,0,0,0,.507.337" transform="translate(-12.346 -19.488)" fill="#e29100"/>
        <path id="Trazado_730196" data-name="Trazado 730196" d="M52.731,74.107v.384a1.3,1.3,0,0,1-.8-.463.8.8,0,0,0-1.326,0,1.211,1.211,0,0,1-1.919,0,.8.8,0,0,0-1.327,0,1.21,1.21,0,0,1-1.917,0,.969.969,0,0,0-.506-.335v-.384a1.3,1.3,0,0,1,.8.463.8.8,0,0,0,1.327,0,1.211,1.211,0,0,1,1.919,0,.8.8,0,0,0,1.326,0,1.211,1.211,0,0,1,1.919,0,.962.962,0,0,0,.507.336" transform="translate(-12.346 -20.141)" fill="#e29100"/>
        <path id="Trazado_730197" data-name="Trazado 730197" d="M52.731,76.484v.384a1.308,1.308,0,0,1-.8-.462.8.8,0,0,0-1.326,0,1.212,1.212,0,0,1-1.919,0,.8.8,0,0,0-1.327,0,1.211,1.211,0,0,1-1.917,0,.963.963,0,0,0-.506-.336v-.384a1.3,1.3,0,0,1,.8.462.8.8,0,0,0,1.327,0,1.212,1.212,0,0,1,1.919,0,.8.8,0,0,0,1.326,0,1.212,1.212,0,0,1,1.919,0,.964.964,0,0,0,.507.337" transform="translate(-12.346 -20.794)" fill="#e29100"/>
        <path id="Trazado_730198" data-name="Trazado 730198" d="M52.731,78.862v.384a1.3,1.3,0,0,1-.8-.463.8.8,0,0,0-1.326,0,1.211,1.211,0,0,1-1.919,0,.8.8,0,0,0-1.327,0,1.21,1.21,0,0,1-1.917,0,.961.961,0,0,0-.506-.335v-.384a1.3,1.3,0,0,1,.8.462.8.8,0,0,0,1.327,0,1.212,1.212,0,0,1,1.919,0,.8.8,0,0,0,1.326,0,1.212,1.212,0,0,1,1.919,0,.968.968,0,0,0,.507.337" transform="translate(-12.346 -21.447)" fill="#e29100"/>
        <path id="Trazado_730199" data-name="Trazado 730199" d="M52.731,81.24v.384a1.306,1.306,0,0,1-.8-.463.8.8,0,0,0-1.326,0,1.21,1.21,0,0,1-1.919,0,.8.8,0,0,0-1.327,0,1.208,1.208,0,0,1-1.917,0,.969.969,0,0,0-.506-.335v-.384a1.3,1.3,0,0,1,.8.462.8.8,0,0,0,1.327,0,1.212,1.212,0,0,1,1.919,0,.8.8,0,0,0,1.326,0,1.212,1.212,0,0,1,1.919,0,.964.964,0,0,0,.507.337" transform="translate(-12.346 -22.101)" fill="#e29100"/>
        <path id="Trazado_730200" data-name="Trazado 730200" d="M52.731,83.617V84a1.3,1.3,0,0,1-.8-.462.8.8,0,0,0-1.326,0,1.212,1.212,0,0,1-1.919,0,.8.8,0,0,0-1.327,0,1.211,1.211,0,0,1-1.917,0,.961.961,0,0,0-.506-.335v-.384a1.3,1.3,0,0,1,.8.462.8.8,0,0,0,1.327,0,1.212,1.212,0,0,1,1.919,0,.8.8,0,0,0,1.326,0,1.212,1.212,0,0,1,1.919,0,.958.958,0,0,0,.507.336" transform="translate(-12.346 -22.754)" fill="#e29100"/>
        <path id="Trazado_730201" data-name="Trazado 730201" d="M52.731,86v.383a1.3,1.3,0,0,1-.8-.463.8.8,0,0,0-1.326,0,1.21,1.21,0,0,1-1.919,0,.8.8,0,0,0-1.327,0,1.208,1.208,0,0,1-1.917,0,.965.965,0,0,0-.506-.335V85.2a1.306,1.306,0,0,1,.8.462.8.8,0,0,0,1.327,0,1.213,1.213,0,0,1,1.919,0,.8.8,0,0,0,1.326,0,1.213,1.213,0,0,1,1.919,0,.965.965,0,0,0,.507.337" transform="translate(-12.346 -23.408)" fill="#e29100"/>
        <path id="Trazado_730202" data-name="Trazado 730202" d="M52.731,88.373v.384a1.3,1.3,0,0,1-.8-.463.8.8,0,0,0-1.326,0,1.211,1.211,0,0,1-1.919,0,.8.8,0,0,0-1.327,0,1.21,1.21,0,0,1-1.917,0,.969.969,0,0,0-.506-.335v-.384a1.3,1.3,0,0,1,.8.463.8.8,0,0,0,1.327,0,1.211,1.211,0,0,1,1.919,0,.8.8,0,0,0,1.326,0,1.211,1.211,0,0,1,1.919,0,.962.962,0,0,0,.507.336" transform="translate(-12.346 -24.061)" fill="#e29100"/>
        <path id="Trazado_730203" data-name="Trazado 730203" d="M52.731,90.751v.384a1.305,1.305,0,0,1-.8-.463.8.8,0,0,0-1.326,0,1.212,1.212,0,0,1-1.919,0,.8.8,0,0,0-1.327,0,1.211,1.211,0,0,1-1.917,0,.965.965,0,0,0-.506-.335v-.384a1.3,1.3,0,0,1,.8.462.8.8,0,0,0,1.327,0,1.212,1.212,0,0,1,1.919,0,.8.8,0,0,0,1.326,0,1.212,1.212,0,0,1,1.919,0,.964.964,0,0,0,.507.337" transform="translate(-12.346 -24.714)" fill="#e29100"/>
        <path id="Trazado_730204" data-name="Trazado 730204" d="M52.731,93.129v.384a1.3,1.3,0,0,1-.8-.463.8.8,0,0,0-1.326,0,1.211,1.211,0,0,1-1.919,0,.8.8,0,0,0-1.327,0,1.21,1.21,0,0,1-1.917,0,.96.96,0,0,0-.506-.335V92.33a1.3,1.3,0,0,1,.8.462.8.8,0,0,0,1.327,0,1.212,1.212,0,0,1,1.919,0,.8.8,0,0,0,1.326,0,1.212,1.212,0,0,1,1.919,0,.964.964,0,0,0,.507.337" transform="translate(-12.346 -25.368)" fill="#e29100"/>
        <path id="Trazado_730205" data-name="Trazado 730205" d="M52.731,95.507v.384a1.305,1.305,0,0,1-.8-.463.8.8,0,0,0-1.326,0,1.212,1.212,0,0,1-1.919,0,.8.8,0,0,0-1.327,0,1.211,1.211,0,0,1-1.917,0,.966.966,0,0,0-.506-.336v-.384a1.3,1.3,0,0,1,.8.463.8.8,0,0,0,1.327,0,1.211,1.211,0,0,1,1.919,0,.8.8,0,0,0,1.326,0,1.211,1.211,0,0,1,1.919,0,.964.964,0,0,0,.507.337" transform="translate(-12.346 -26.021)" fill="#e29100"/>
        <path id="Trazado_730206" data-name="Trazado 730206" d="M36.677,68.987a.286.286,0,1,1-.286-.268.277.277,0,0,1,.286.268" transform="translate(-9.921 -18.882)" fill="#f2a501"/>
        <path id="Trazado_730207" data-name="Trazado 730207" d="M38.378,72.836a.286.286,0,1,1-.286-.268.277.277,0,0,1,.286.268" transform="translate(-10.389 -19.94)" fill="#f2a501"/>
        <path id="Trazado_730208" data-name="Trazado 730208" d="M40.211,77.957a.286.286,0,1,1-.285-.268.277.277,0,0,1,.285.268" transform="translate(-10.892 -21.347)" fill="#f2a501"/>
        <path id="Trazado_730209" data-name="Trazado 730209" d="M41.344,81.434a.286.286,0,1,1-.286-.268.277.277,0,0,1,.286.268" transform="translate(-11.204 -22.303)" fill="#f2a501"/>
        <path id="Trazado_730210" data-name="Trazado 730210" d="M39.424,85.027a.286.286,0,1,1-.285-.268.277.277,0,0,1,.285.268" transform="translate(-10.676 -23.29)" fill="#f2a501"/>
        <path id="Trazado_730211" data-name="Trazado 730211" d="M38.771,87.882a.286.286,0,1,1-.286-.268.277.277,0,0,1,.286.268" transform="translate(-10.497 -24.074)" fill="#f2a501"/>
        <path id="Trazado_730212" data-name="Trazado 730212" d="M37.07,89.667a.286.286,0,1,1-.285-.268.277.277,0,0,1,.285.268" transform="translate(-10.029 -24.565)" fill="#f2a501"/>
        <path id="Trazado_730213" data-name="Trazado 730213" d="M42.284,85.4A.286.286,0,1,1,42,85.129a.277.277,0,0,1,.286.268" transform="translate(-11.462 -23.392)" fill="#f2a501"/>
        <path id="Trazado_730214" data-name="Trazado 730214" d="M43.539,83.077a.286.286,0,1,1-.286-.268.278.278,0,0,1,.286.268" transform="translate(-11.807 -22.754)" fill="#f2a501"/>
        <path id="Trazado_730215" data-name="Trazado 730215" d="M41.5,88.251a.286.286,0,1,1-.286-.268.277.277,0,0,1,.286.268" transform="translate(-11.246 -24.176)" fill="#f2a501"/>
        <path id="Trazado_730216" data-name="Trazado 730216" d="M42.525,89.778a.286.286,0,1,1-.286-.268.278.278,0,0,1,.286.268" transform="translate(-11.528 -24.595)" fill="#f2a501"/>
        <path id="Trazado_730217" data-name="Trazado 730217" d="M42.284,92.251A.286.286,0,1,1,42,91.983a.278.278,0,0,1,.286.268" transform="translate(-11.462 -25.275)" fill="#f2a501"/>
        <path id="Trazado_730218" data-name="Trazado 730218" d="M40.556,95.191a.286.286,0,1,1-.286-.268.277.277,0,0,1,.286.268" transform="translate(-10.987 -26.083)" fill="#f2a501"/>
        <path id="Trazado_730219" data-name="Trazado 730219" d="M37.7,96.737a.286.286,0,1,1-.286-.268.278.278,0,0,1,.286.268" transform="translate(-10.202 -26.508)" fill="#f2a501"/>
        <path id="Trazado_730220" data-name="Trazado 730220" d="M38.126,91.042a.286.286,0,1,1-.286-.268.277.277,0,0,1,.286.268" transform="translate(-10.319 -24.943)" fill="#f2a501"/>
        <path id="Trazado_730221" data-name="Trazado 730221" d="M38.126,93.722a.286.286,0,1,1-.286-.268.277.277,0,0,1,.286.268" transform="translate(-10.319 -25.679)" fill="#f2a501"/>
        <path id="Trazado_730222" data-name="Trazado 730222" d="M42.132,94.417a.286.286,0,1,1-.285-.268.277.277,0,0,1,.285.268" transform="translate(-11.42 -25.87)" fill="#f2a501"/>
        <path id="Trazado_730223" data-name="Trazado 730223" d="M38.771,81.8a.286.286,0,1,1-.286-.268.277.277,0,0,1,.286.268" transform="translate(-10.497 -22.404)" fill="#f2a501"/>
        <path id="Trazado_730224" data-name="Trazado 730224" d="M36.282,84.657A.286.286,0,1,1,36,84.389a.278.278,0,0,1,.286.268" transform="translate(-9.813 -23.188)" fill="#f2a501"/>
        <path id="Trazado_730225" data-name="Trazado 730225" d="M37.3,79.608a.286.286,0,1,1-.286-.268.277.277,0,0,1,.286.268" transform="translate(-10.094 -21.801)" fill="#f2a501"/>
        <path id="Trazado_730226" data-name="Trazado 730226" d="M38.126,74.366a.286.286,0,1,1-.286-.268.277.277,0,0,1,.286.268" transform="translate(-10.319 -20.36)" fill="#f2a501"/>
        <path id="Trazado_730227" data-name="Trazado 730227" d="M37.07,76.564a.286.286,0,1,1-.285-.268.277.277,0,0,1,.285.268" transform="translate(-10.029 -20.964)" fill="#f2a501"/>
        <path id="Trazado_730228" data-name="Trazado 730228" d="M38.378,67.31a.286.286,0,1,1-.286-.268.277.277,0,0,1,.286.268" transform="translate(-10.389 -18.422)" fill="#f2a501"/>
        <path id="Trazado_730229" data-name="Trazado 730229" d="M37.3,64.551a.286.286,0,1,1-.286-.268.277.277,0,0,1,.286.268" transform="translate(-10.094 -17.664)" fill="#f2a501"/>
        <path id="Trazado_730230" data-name="Trazado 730230" d="M40.211,65.4a.286.286,0,1,1-.285-.268.277.277,0,0,1,.285.268" transform="translate(-10.892 -17.897)" fill="#f2a501"/>
        <path id="Trazado_730231" data-name="Trazado 730231" d="M42.132,64.182a.286.286,0,1,1-.285-.268.277.277,0,0,1,.285.268" transform="translate(-11.42 -17.562)" fill="#f2a501"/>
        <path id="Trazado_730232" data-name="Trazado 730232" d="M39.817,70.087a.286.286,0,1,1-.286-.268.277.277,0,0,1,.286.268" transform="translate(-10.784 -19.185)" fill="#f2a501"/>
        <path id="Trazado_730233" data-name="Trazado 730233" d="M40.95,72.046a.286.286,0,1,1-.286-.268.277.277,0,0,1,.286.268" transform="translate(-11.095 -19.723)" fill="#f2a501"/>
        <path id="Trazado_730234" data-name="Trazado 730234" d="M41.738,73.189a.286.286,0,1,1-.286-.268.277.277,0,0,1,.286.268" transform="translate(-11.312 -20.037)" fill="#f2a501"/>
        <path id="Trazado_730235" data-name="Trazado 730235" d="M43.932,70.456a.286.286,0,1,1-.286-.268.278.278,0,0,1,.286.268" transform="translate(-11.915 -19.286)" fill="#f2a501"/>
        <path id="Trazado_730236" data-name="Trazado 730236" d="M39.817,74.964a.286.286,0,1,1-.286-.268.277.277,0,0,1,.286.268" transform="translate(-10.784 -20.525)" fill="#f2a501"/>
        <path id="Trazado_730237" data-name="Trazado 730237" d="M42.565,76.193a.286.286,0,1,1-.286-.268.277.277,0,0,1,.286.268" transform="translate(-11.539 -20.862)" fill="#f2a501"/>
        <path id="Trazado_730238" data-name="Trazado 730238" d="M41.89,79.238a.286.286,0,1,1-.286-.268.278.278,0,0,1,.286.268" transform="translate(-11.354 -21.699)" fill="#f2a501"/>
        <path id="Trazado_730239" data-name="Trazado 730239" d="M43.539,78.326a.286.286,0,1,1-.286-.268.277.277,0,0,1,.286.268" transform="translate(-11.807 -21.449)" fill="#f2a501"/>
        <path id="Trazado_730240" data-name="Trazado 730240" d="M41.344,68.961a.286.286,0,1,1-.286-.268.278.278,0,0,1,.286.268" transform="translate(-11.204 -18.875)" fill="#f2a501"/>
        <path id="Trazado_730241" data-name="Trazado 730241" d="M43.539,65.4a.286.286,0,1,1-.286-.268.277.277,0,0,1,.286.268" transform="translate(-11.807 -17.897)" fill="#f2a501"/>
        <rect id="Rectángulo_344614" data-name="Rectángulo 344614" width="42.024" height="5.129" transform="translate(1.987 69.34)" fill="#8b9192"/>
        <rect id="Rectángulo_344615" data-name="Rectángulo 344615" width="46.204" height="1.777" transform="translate(0 72.692)" fill="#757e7f"/>
        <rect id="Rectángulo_344616" data-name="Rectángulo 344616" width="9.644" height="22.769" transform="translate(6.439 22.147)" fill="#8b88f5"/>
        <rect id="Rectángulo_344617" data-name="Rectángulo 344617" width="9.644" height="2.546" transform="translate(6.439 22.147)" fill="#8b88f5"/>
        <rect id="Rectángulo_344618" data-name="Rectángulo 344618" width="8.069" height="22.769" transform="translate(12.687 22.147)" fill="#6b75e2"/>
        <rect id="Rectángulo_344619" data-name="Rectángulo 344619" width="8.069" height="2.546" transform="translate(12.687 22.147)" fill="#6b75e2"/>
        <path id="Trazado_730242" data-name="Trazado 730242" d="M20.06,30.577a.369.369,0,0,0-.089.237.536.536,0,0,0,1.048,0,.37.37,0,0,0-.09-.237Z" transform="translate(-5.488 -8.402)" fill="#fff"/>
        <path id="Trazado_730243" data-name="Trazado 730243" d="M26.745,31.426A.434.434,0,1,1,27.27,31a.483.483,0,0,1-.524.424" transform="translate(-7.205 -8.402)" fill="#fff"/>
        <path id="Trazado_730244" data-name="Trazado 730244" d="M23.617,33.838a.434.434,0,1,1,.524-.424.483.483,0,0,1-.524.424" transform="translate(-6.345 -9.065)" fill="#fff"/>
        <path id="Trazado_730245" data-name="Trazado 730245" d="M26.771,36.25a.434.434,0,1,1,.524-.424.483.483,0,0,1-.524.424" transform="translate(-7.212 -9.727)" fill="#fff"/>
        <path id="Trazado_730246" data-name="Trazado 730246" d="M17.52,33.838a.663.663,0,0,1-.115-.01V33a.662.662,0,0,1,.115-.011.434.434,0,1,1,0,.849" transform="translate(-4.783 -9.065)" fill="#fff"/>
        <path id="Trazado_730247" data-name="Trazado 730247" d="M20.52,36.25a.434.434,0,1,1,.524-.424.483.483,0,0,1-.524.424" transform="translate(-5.494 -9.727)" fill="#fff"/>
        <path id="Trazado_730248" data-name="Trazado 730248" d="M23.621,38.762a.434.434,0,1,1,.524-.424.483.483,0,0,1-.524.424" transform="translate(-6.347 -10.418)" fill="#fff"/>
        <path id="Trazado_730249" data-name="Trazado 730249" d="M17.54,38.663a.635.635,0,0,1-.135-.015v-.82a.635.635,0,0,1,.135-.015.434.434,0,1,1,0,.849" transform="translate(-4.783 -10.39)" fill="#fff"/>
        <path id="Trazado_730250" data-name="Trazado 730250" d="M20.494,41.175a.434.434,0,1,1,.524-.424.483.483,0,0,1-.524.424" transform="translate(-5.487 -11.081)" fill="#fff"/>
        <path id="Trazado_730251" data-name="Trazado 730251" d="M26.745,41.433a.434.434,0,1,1,.524-.425.483.483,0,0,1-.524.425" transform="translate(-7.205 -11.152)" fill="#fff"/>
        <path id="Trazado_730252" data-name="Trazado 730252" d="M23.617,43.845a.434.434,0,1,1,.524-.424.483.483,0,0,1-.524.424" transform="translate(-6.345 -11.814)" fill="#fff"/>
        <path id="Trazado_730253" data-name="Trazado 730253" d="M26.771,46.258a.434.434,0,1,1,.524-.424.483.483,0,0,1-.524.424" transform="translate(-7.212 -12.477)" fill="#fff"/>
        <path id="Trazado_730254" data-name="Trazado 730254" d="M17.52,43.844a.662.662,0,0,1-.115-.011v-.827a.6.6,0,0,1,.115-.011.434.434,0,1,1,0,.849" transform="translate(-4.783 -11.814)" fill="#fff"/>
        <path id="Trazado_730255" data-name="Trazado 730255" d="M20.52,46.258a.434.434,0,1,1,.524-.424.483.483,0,0,1-.524.424" transform="translate(-5.494 -12.477)" fill="#fff"/>
        <path id="Trazado_730256" data-name="Trazado 730256" d="M23.621,48.769a.434.434,0,1,1,.524-.424.483.483,0,0,1-.524.424" transform="translate(-6.347 -13.167)" fill="#fff"/>
        <path id="Trazado_730257" data-name="Trazado 730257" d="M17.54,48.67a.591.591,0,0,1-.135-.015v-.819a.635.635,0,0,1,.135-.015.434.434,0,1,1,0,.849" transform="translate(-4.783 -13.14)" fill="#fff"/>
        <path id="Trazado_730258" data-name="Trazado 730258" d="M20.494,51.181a.434.434,0,1,1,.524-.424.483.483,0,0,1-.524.424" transform="translate(-5.487 -13.83)" fill="#fff"/>
        <path id="Trazado_730259" data-name="Trazado 730259" d="M26.745,51.44a.434.434,0,1,1,.524-.424.483.483,0,0,1-.524.424" transform="translate(-7.205 -13.901)" fill="#fff"/>
        <path id="Trazado_730260" data-name="Trazado 730260" d="M23.617,53.852a.434.434,0,1,1,.524-.424.483.483,0,0,1-.524.424" transform="translate(-6.345 -14.564)" fill="#fff"/>
        <path id="Trazado_730261" data-name="Trazado 730261" d="M26.771,56.264a.434.434,0,1,1,.524-.424.483.483,0,0,1-.524.424" transform="translate(-7.212 -15.227)" fill="#fff"/>
        <path id="Trazado_730262" data-name="Trazado 730262" d="M17.52,53.851a.662.662,0,0,1-.115-.011v-.827A.662.662,0,0,1,17.52,53a.434.434,0,1,1,0,.849" transform="translate(-4.783 -14.564)" fill="#fff"/>
        <path id="Trazado_730263" data-name="Trazado 730263" d="M20.52,56.264a.434.434,0,1,1,.524-.424.483.483,0,0,1-.524.424" transform="translate(-5.494 -15.227)" fill="#fff"/>
        <path id="Trazado_730264" data-name="Trazado 730264" d="M23.621,58.777a.434.434,0,1,1,.524-.425.483.483,0,0,1-.524.425" transform="translate(-6.347 -15.917)" fill="#fff"/>
        <path id="Trazado_730265" data-name="Trazado 730265" d="M17.54,58.676a.635.635,0,0,1-.135-.015v-.82a.592.592,0,0,1,.135-.015.434.434,0,1,1,0,.849" transform="translate(-4.783 -15.89)" fill="#fff"/>
        <path id="Trazado_730266" data-name="Trazado 730266" d="M20.494,61.189a.434.434,0,1,1,.524-.424.483.483,0,0,1-.524.424" transform="translate(-5.487 -16.58)" fill="#fff"/>
        <path id="Trazado_730267" data-name="Trazado 730267" d="M26.745,61.447a.434.434,0,1,1,.524-.424.483.483,0,0,1-.524.424" transform="translate(-7.205 -16.651)" fill="#fff"/>
        <rect id="Rectángulo_344620" data-name="Rectángulo 344620" width="9.644" height="22.769" transform="translate(30.741 22.181)" fill="#6b75e2"/>
        <rect id="Rectángulo_344621" data-name="Rectángulo 344621" width="9.644" height="2.546" transform="translate(30.741 22.18)" fill="#6b75e2"/>
        <rect id="Rectángulo_344622" data-name="Rectángulo 344622" width="9.645" height="22.769" transform="translate(20.147 22.18)" fill="#6b75e2"/>
        <rect id="Rectángulo_344623" data-name="Rectángulo 344623" width="9.645" height="2.546" transform="translate(20.147 22.18)" fill="#6b75e2"/>
        <path id="Trazado_730268" data-name="Trazado 730268" d="M30.312,30.584,27.78,32.3v-.967l1.1-.748Z" transform="translate(-7.633 -8.404)" fill="#a3aeff"/>
        <path id="Trazado_730269" data-name="Trazado 730269" d="M33.954,30.584,30.2,33.13,27.78,34.767V33.8l4.746-3.216Z" transform="translate(-7.633 -8.404)" fill="#a3aeff"/>
        <path id="Trazado_730270" data-name="Trazado 730270" d="M37.425,30.584V30.7L27.78,37.235v-.967l4.632-3.137,3.757-2.546Z" transform="translate(-7.633 -8.404)" fill="#a3aeff"/>
        <path id="Trazado_730271" data-name="Trazado 730271" d="M37.425,32.813v.967L27.78,40.315v-.967l8.274-5.605Z" transform="translate(-7.633 -9.016)" fill="#a3aeff"/>
        <path id="Trazado_730272" data-name="Trazado 730272" d="M37.425,36.215v.967L27.78,43.717v-.967Z" transform="translate(-7.633 -9.951)" fill="#a3aeff"/>
        <path id="Trazado_730273" data-name="Trazado 730273" d="M37.425,39.618v.967L27.78,47.118v-.967Z" transform="translate(-7.633 -10.886)" fill="#a3aeff"/>
        <path id="Trazado_730274" data-name="Trazado 730274" d="M37.425,43.02v.967L27.78,50.52v-.967Z" transform="translate(-7.633 -11.821)" fill="#a3aeff"/>
        <path id="Trazado_730275" data-name="Trazado 730275" d="M37.425,46.42v.967L27.78,53.922v-.967Z" transform="translate(-7.633 -12.755)" fill="#a3aeff"/>
        <path id="Trazado_730276" data-name="Trazado 730276" d="M37.425,49.823v.967L27.78,57.324v-.967Z" transform="translate(-7.633 -13.69)" fill="#a3aeff"/>
        <path id="Trazado_730277" data-name="Trazado 730277" d="M37.528,53.225v.967l-7.944,5.382H28.156Z" transform="translate(-7.737 -14.625)" fill="#a3aeff"/>
        <path id="Trazado_730278" data-name="Trazado 730278" d="M38.908,56.627v.967l-4.3,2.915H33.177Z" transform="translate(-9.116 -15.56)" fill="#a3aeff"/>
        <path id="Trazado_730279" data-name="Trazado 730279" d="M40.288,60.03V61l-.66.447H38.2Z" transform="translate(-10.497 -16.495)" fill="#d35540"/>
        <rect id="Rectángulo_344624" data-name="Rectángulo 344624" width="6.96" height="22.769" transform="translate(27.521 22.18)" fill="#8b88f5"/>
        <rect id="Rectángulo_344625" data-name="Rectángulo 344625" width="6.96" height="2.545" transform="translate(27.521 22.18)" fill="#8b88f5"/>
        <rect id="Rectángulo_344626" data-name="Rectángulo 344626" width="1.82" height="1.708" transform="translate(27.521 24.726)" fill="#a3aeff"/>
        <rect id="Rectángulo_344627" data-name="Rectángulo 344627" width="1.82" height="1.708" transform="translate(31.162 24.726)" fill="#a3aeff"/>
        <rect id="Rectángulo_344628" data-name="Rectángulo 344628" width="1.821" height="1.709" transform="translate(29.341 26.434)" fill="#a3aeff"/>
        <rect id="Rectángulo_344629" data-name="Rectángulo 344629" width="1.498" height="1.709" transform="translate(32.982 26.434)" fill="#a3aeff"/>
        <rect id="Rectángulo_344630" data-name="Rectángulo 344630" width="1.821" height="0.858" transform="translate(27.521 22.18)" fill="#a3aeff"/>
        <rect id="Rectángulo_344631" data-name="Rectángulo 344631" width="1.821" height="0.858" transform="translate(31.161 22.18)" fill="#a3aeff"/>
        <rect id="Rectángulo_344632" data-name="Rectángulo 344632" width="1.821" height="1.709" transform="translate(29.341 23.038)" fill="#a3aeff"/>
        <rect id="Rectángulo_344633" data-name="Rectángulo 344633" width="1.498" height="1.709" transform="translate(32.982 23.038)" fill="#a3aeff"/>
        <rect id="Rectángulo_344634" data-name="Rectángulo 344634" width="1.82" height="1.708" transform="translate(27.521 28.148)" fill="#a3aeff"/>
        <rect id="Rectángulo_344635" data-name="Rectángulo 344635" width="1.82" height="1.708" transform="translate(31.162 28.148)" fill="#a3aeff"/>
        <rect id="Rectángulo_344636" data-name="Rectángulo 344636" width="1.821" height="1.709" transform="translate(29.341 29.857)" fill="#a3aeff"/>
        <rect id="Rectángulo_344637" data-name="Rectángulo 344637" width="1.498" height="1.708" transform="translate(32.982 29.857)" fill="#a3aeff"/>
        <rect id="Rectángulo_344638" data-name="Rectángulo 344638" width="1.82" height="1.709" transform="translate(27.521 31.57)" fill="#a3aeff"/>
        <rect id="Rectángulo_344639" data-name="Rectángulo 344639" width="1.82" height="1.709" transform="translate(31.162 31.57)" fill="#a3aeff"/>
        <rect id="Rectángulo_344640" data-name="Rectángulo 344640" width="1.821" height="1.709" transform="translate(29.341 33.28)" fill="#a3aeff"/>
        <rect id="Rectángulo_344641" data-name="Rectángulo 344641" width="1.498" height="1.709" transform="translate(32.982 33.279)" fill="#a3aeff"/>
        <rect id="Rectángulo_344642" data-name="Rectángulo 344642" width="1.82" height="1.709" transform="translate(27.521 34.993)" fill="#a3aeff"/>
        <rect id="Rectángulo_344643" data-name="Rectángulo 344643" width="1.82" height="1.709" transform="translate(31.162 34.993)" fill="#a3aeff"/>
        <rect id="Rectángulo_344644" data-name="Rectángulo 344644" width="1.821" height="1.709" transform="translate(29.341 36.701)" fill="#a3aeff"/>
        <rect id="Rectángulo_344645" data-name="Rectángulo 344645" width="1.498" height="1.709" transform="translate(32.982 36.701)" fill="#a3aeff"/>
        <rect id="Rectángulo_344646" data-name="Rectángulo 344646" width="1.82" height="1.709" transform="translate(27.521 38.414)" fill="#a3aeff"/>
        <rect id="Rectángulo_344647" data-name="Rectángulo 344647" width="1.82" height="1.709" transform="translate(31.162 38.414)" fill="#a3aeff"/>
        <rect id="Rectángulo_344648" data-name="Rectángulo 344648" width="1.821" height="1.709" transform="translate(29.341 40.124)" fill="#a3aeff"/>
        <rect id="Rectángulo_344649" data-name="Rectángulo 344649" width="1.498" height="1.708" transform="translate(32.982 40.124)" fill="#a3aeff"/>
        <rect id="Rectángulo_344650" data-name="Rectángulo 344650" width="1.82" height="1.709" transform="translate(27.521 41.837)" fill="#a3aeff"/>
        <rect id="Rectángulo_344651" data-name="Rectángulo 344651" width="1.82" height="1.709" transform="translate(31.162 41.837)" fill="#a3aeff"/>
        <rect id="Rectángulo_344652" data-name="Rectángulo 344652" width="1.82" height="1.404" transform="translate(29.342 43.545)" fill="#a3aeff"/>
        <path id="Trazado_730280" data-name="Trazado 730280" d="M46.977,60.044h-1.5v1.4Z" transform="translate(-12.497 -16.499)" fill="#a3aeff"/>
        <path id="Trazado_730281" data-name="Trazado 730281" d="M77.161,27.246,64.325,30.465a11.011,11.011,0,0,1-12.107-4.783,30.618,30.618,0,0,1-4.074-12.359l-2.139-11.3L52.583,0l3.512,7.793c2.051,4.55,6.247,9.339,9.21,14.136a7.993,7.993,0,0,0,4.816,3.488Z" transform="translate(-12.641 0)" fill="#ff9280"/>
        <path id="Trazado_730282" data-name="Trazado 730282" d="M53.584,2.546H46.559A1.05,1.05,0,0,1,45.477,1.53V0h8.107Z" transform="translate(-12.496 0)" fill="#ff9280"/>
        <path id="Trazado_730283" data-name="Trazado 730283" d="M54.865,6.034s-4.381,4.3,0,10.936,1.278,4.383,2.741,11.609c1.2,5.925,18.115.606,18.115.606s-8.84.587-10.48-3.356c-1.231-2.957-2.85-7.563-5.341-10.142a18.577,18.577,0,0,1-4.966-9.292c-.046-.231-.068-.36-.068-.36" transform="translate(-14.541 -1.658)" fill="#e0694e"/>
        <path id="Trazado_730284" data-name="Trazado 730284" d="M86,35.815s.521-1.684-1.128-.342-2.657,3.25-1.514,3.2,1.9-.073,2.642-2.862" transform="translate(-22.771 -9.604)" fill="#000949"/>
        <path id="Trazado_730285" data-name="Trazado 730285" d="M80.943,34.232s-3.277-2.385-2.231-2.8c-1.1-1.277-.931-1.61-.515-1.58-.306-.482-.218-1.5.6-.77-.222-.722.487-.621,1.73.593.4-1.215.77-1.691,1.041-1.007a14.266,14.266,0,0,1,.429,2.6l.973,1.081Z" transform="translate(-21.4 -7.792)" fill="#ffb888"/>
        <path id="Trazado_730286" data-name="Trazado 730286" d="M82.58,32.408l5.371,4.8-2.466,3.182-5-6.169Z" transform="translate(-22.116 -8.905)" fill="#ffb888"/>
        <path id="Trazado_730287" data-name="Trazado 730287" d="M85.97,32.338c.553.381-.865,4.6-2.989,3.607,3.794,3.744,8.442,5.108,10.1.757,1.342-3.524,1.712-7.352.548-10.279a1.487,1.487,0,0,0-2.561-.368A10.638,10.638,0,0,0,89.135,30.5l-.8,3.514Z" transform="translate(-22.801 -7.001)" fill="#e9e1c2"/>
        <path id="Trazado_730288" data-name="Trazado 730288" d="M89.5,39.643c-1.93,0-4.32-1.25-6.581-3.481a.051.051,0,0,1-.007-.067.053.053,0,0,1,.066-.018,1.437,1.437,0,0,0,.618.146c.892,0,1.529-.919,1.793-1.378.6-1.043.745-2.12.527-2.28a.053.053,0,1,1,.057-.089l2.306,1.635.778-3.436A10.778,10.778,0,0,1,91,26.2a1.589,1.589,0,0,1,1.469-.579,1.494,1.494,0,0,1,1.184.959c1.1,2.762.9,6.523-.548,10.317a3.84,3.84,0,0,1-2.759,2.655,3.971,3.971,0,0,1-.846.087m-6.323-3.377c2.524,2.424,5.182,3.612,7.146,3.187a3.743,3.743,0,0,0,2.683-2.589c1.437-3.77,1.637-7.5.549-10.24a1.391,1.391,0,0,0-1.1-.893,1.479,1.479,0,0,0-1.37.54,10.674,10.674,0,0,0-1.92,4.424l-.8,3.519a.053.053,0,0,1-.033.038.051.051,0,0,1-.049-.007L86.1,32.69a3.952,3.952,0,0,1-.612,2.207c-.646,1.128-1.474,1.614-2.3,1.369" transform="translate(-22.781 -7.036)" fill="#756641"/>
        <rect id="Rectángulo_344653" data-name="Rectángulo 344653" width="0.397" height="23.602" transform="translate(12.151 45.738)" fill="#f2a501"/>
        <rect id="Rectángulo_344654" data-name="Rectángulo 344654" width="0.397" height="23.602" transform="translate(12.908 45.738)" fill="#f2a501"/>
        <rect id="Rectángulo_344655" data-name="Rectángulo 344655" width="0.397" height="23.602" transform="translate(13.765 45.738)" fill="#f2a501"/>
        <rect id="Rectángulo_344656" data-name="Rectángulo 344656" width="0.397" height="23.602" transform="translate(14.623 45.738)" fill="#f2a501"/>
        <rect id="Rectángulo_344657" data-name="Rectángulo 344657" width="0.397" height="23.602" transform="translate(15.48 45.738)" fill="#f2a501"/>
        <rect id="Rectángulo_344658" data-name="Rectángulo 344658" width="0.397" height="23.602" transform="translate(16.337 45.738)" fill="#f2a501"/>
        <rect id="Rectángulo_344659" data-name="Rectángulo 344659" width="0.397" height="23.602" transform="translate(17.194 45.738)" fill="#f2a501"/>
        <path id="Trazado_730289" data-name="Trazado 730289" d="M85.5,17.556a.242.242,0,0,1-.124-.031.339.339,0,0,1-.133-.284c0-.016.518-1.336.518-1.336a.048.048,0,0,1,.063-.028.047.047,0,0,1,.027.062l-.511,1.312a.237.237,0,0,0,.086.19c.073.041.2.012.356-.086a.048.048,0,0,1,.067.015.049.049,0,0,1-.017.067.668.668,0,0,1-.331.118" transform="translate(-23.423 -4.362)" fill="#603225"/>
        <path id="Trazado_730290" data-name="Trazado 730290" d="M91.381,15.962a.529.529,0,0,0-.75-.2c-.081.061-.084.105-.194.106a.566.566,0,0,1-.278-.1.5.5,0,0,1-.234-.382c0-.044.044-.357.146-.4a.143.143,0,0,0,.088.051.18.18,0,0,0,.223-.141.236.236,0,0,0-.077-.255c-.232-.162-.484.007-.613.221a.826.826,0,0,0-.051.1.124.124,0,0,0-.1.024.7.7,0,0,1-.406.176.39.39,0,0,1-.379-.36c0-.136.088-.256.077-.4a.488.488,0,0,0-.136-.289.684.684,0,0,0-.6-.263l-.142.015c.007-.015.015-.03.021-.047.028-.069-.015-.2-.112-.163a1.684,1.684,0,0,0-.262.136c-.016-.012-.033-.024-.049-.038-.189-.157-.267-.343-.078-.537a.121.121,0,0,0-.022-.173c-.382-.207-.511.381-.391.64a.946.946,0,0,0,.14.215.479.479,0,0,1-.215-.133c-.406-.4.066-.765.433-.93.2-.09.089-.434-.123-.322-.506.27-1.025.783-.64,1.374a.787.787,0,0,0,.977.319c.244.059.522-.078.726.05.141.089.146.175.1.319a.856.856,0,0,0-.038.309.777.777,0,0,0,.258.529.709.709,0,0,0,.881.024.985.985,0,0,0,.1.363.916.916,0,0,0,.676.5.515.515,0,0,0,.36-.057c.064-.041.1-.107.168-.141a.309.309,0,0,1,.307.044.152.152,0,0,0,.207-.19" transform="translate(-23.774 -3.433)" fill="#8c5546"/>
        <path id="Trazado_730291" data-name="Trazado 730291" d="M92.424,13.487a3.67,3.67,0,0,0,.107-1.664c-.063-.374-.279-1.012-.777-.739a.146.146,0,0,0-.053.052,1.37,1.37,0,0,0-1.72-1.353,1.783,1.783,0,0,0-2.274-.916c-.979-.746-2.617.194-2.594.985-.8,0-1,1-.767,1.351a.854.854,0,0,0-.218,1.287c.206.255.87.443,1.443-.461a1.3,1.3,0,0,1,1.123-.653.843.843,0,0,0-.112.069.892.892,0,0,0-.27.822l.6.7.4-.046.624.207-.046.587.358.66.581-.226.252.2s.027.606.917.382c.138-.871.783-.9,1.113-.336a1.2,1.2,0,0,1,.063.481.566.566,0,0,1-.139.373c-.1.089-.24.093-.356.148-.291.136-.512.743-.11.878a.149.149,0,0,0,.179-.121.152.152,0,0,0,.067-.112c.007-.12.442-.242.525-.284.052-.027.1-.056.155-.086a.285.285,0,0,0,.036-.022c.036-.022.071-.046.105-.07.147-.062.379-.049.511-.112a.707.707,0,0,0,.379-.444c.16-.531-.243-1.01-.1-1.532M91.675,11.4c0-.022.007-.044.011-.065a.345.345,0,0,1,.017.087l-.028-.022m.451.481c-.083-.091-.172-.2-.262-.3a.442.442,0,0,0-.031-.123.523.523,0,0,1,.3.425l0,0" transform="translate(-23.061 -2.362)" fill="#8c5546"/>
      </g>
    </g>
  </g>
</svg>
