<svg id="Grupo_985746" data-name="Grupo 985746" xmlns="http://www.w3.org/2000/svg" xmlns:xlink="http://www.w3.org/1999/xlink" width="1240" height="330" viewBox="0 0 1240 330">
  <defs>
    <clipPath id="clip-path">
      <rect id="Rect치ngulo_338862" data-name="Rect치ngulo 338862" width="1240" height="328" rx="13" fill="#dee9f0"/>
    </clipPath>
    <clipPath id="clip-path-2">
      <path id="Trazado_113926" data-name="Trazado 113926" d="M78.2,0C35.013,0,0,35.448,0,79.176s35.013,79.175,78.2,79.175,78.2-35.449,78.2-79.175S121.393,0,78.2,0Z" transform="translate(0 -0.001)" fill="#1448d3"/>
    </clipPath>
    <clipPath id="clip-path-3">
      <path id="Trazado_113844" data-name="Trazado 113844" d="M47.3,47.543a66.664,66.664,0,0,0,0,93.451,64.7,64.7,0,0,0,92.3,0,66.661,66.661,0,0,0,0-93.451,64.7,64.7,0,0,0-92.3,0" transform="translate(-28.187 -28.187)" fill="#1448d3"/>
    </clipPath>
  </defs>
  <rect id="Rect치ngulo_338861" data-name="Rect치ngulo 338861" width="1240" height="330" rx="13" fill="#dee9f0"/>
  <g id="Enmascarar_grupo_466" data-name="Enmascarar grupo 466" transform="translate(0 0)" clip-path="url(#clip-path)">
    <g id="Grupo_985110" data-name="Grupo 985110" transform="translate(-197 -716.14)">
      <ellipse id="Elipse_4725" data-name="Elipse 4725" cx="403.5" cy="408.5" rx="403.5" ry="408.5" transform="translate(440 0.14)" fill="#cde3f2"/>
      <ellipse id="Elipse_5926" data-name="Elipse 5926" cx="403.5" cy="409" rx="403.5" ry="409" transform="translate(1184 738.14)" fill="#cde3f2"/>
      <ellipse id="Elipse_4724" data-name="Elipse 4724" cx="180.5" cy="183" rx="180.5" ry="183" transform="translate(0 888.14)" fill="#cde3f2"/>
      <g id="Grupo_80255" data-name="Grupo 80255" transform="translate(164.927 944.187)">
        <g id="Grupo_80252" data-name="Grupo 80252" transform="translate(0 0)" clip-path="url(#clip-path-2)">
          <path id="Trazado_113845" data-name="Trazado 113845" d="M4.117,2.083A2.07,2.07,0,0,0,2.059,0,2.071,2.071,0,0,0,0,2.083,2.071,2.071,0,0,0,2.059,4.166,2.07,2.07,0,0,0,4.117,2.083" transform="translate(0 -0.002)" fill="#1448d3"/>
          <path id="Trazado_113846" data-name="Trazado 113846" d="M14.191,2.083a2.058,2.058,0,1,0-4.115,0,2.058,2.058,0,1,0,4.115,0" transform="translate(8.962 -0.002)" fill="#1448d3"/>
          <path id="Trazado_113847" data-name="Trazado 113847" d="M24.266,2.083a2.058,2.058,0,1,0-4.115,0,2.058,2.058,0,1,0,4.115,0" transform="translate(17.923 -0.002)" fill="#1448d3"/>
          <path id="Trazado_113848" data-name="Trazado 113848" d="M34.342,2.083a2.059,2.059,0,1,0-4.117,0,2.059,2.059,0,1,0,4.117,0" transform="translate(26.883 -0.002)" fill="#1448d3"/>
          <path id="Trazado_113849" data-name="Trazado 113849" d="M44.416,2.083a2.058,2.058,0,1,0-4.115,0,2.058,2.058,0,1,0,4.115,0" transform="translate(35.845 -0.002)" fill="#1448d3"/>
          <path id="Trazado_113850" data-name="Trazado 113850" d="M54.491,2.083a2.058,2.058,0,1,0-4.115,0,2.058,2.058,0,1,0,4.115,0" transform="translate(44.806 -0.002)" fill="#1448d3"/>
          <path id="Trazado_113851" data-name="Trazado 113851" d="M64.567,2.083a2.059,2.059,0,1,0-4.117,0,2.059,2.059,0,1,0,4.117,0" transform="translate(53.767 -0.002)" fill="#1448d3"/>
          <path id="Trazado_113852" data-name="Trazado 113852" d="M74.641,2.083a2.058,2.058,0,1,0-4.115,0,2.058,2.058,0,1,0,4.115,0" transform="translate(62.729 -0.002)" fill="#1448d3"/>
          <path id="Trazado_113853" data-name="Trazado 113853" d="M84.717,2.083a2.059,2.059,0,1,0-4.117,0,2.059,2.059,0,1,0,4.117,0" transform="translate(71.689 -0.002)" fill="#1448d3"/>
          <path id="Trazado_113854" data-name="Trazado 113854" d="M4.117,12.158a2.07,2.07,0,0,0-2.058-2.083,2.083,2.083,0,0,0,0,4.166,2.07,2.07,0,0,0,2.058-2.083" transform="translate(0 9.196)" fill="#1448d3"/>
          <path id="Trazado_113855" data-name="Trazado 113855" d="M14.191,12.158a2.058,2.058,0,1,0-2.058,2.083,2.07,2.07,0,0,0,2.058-2.083" transform="translate(8.962 9.196)" fill="#1448d3"/>
          <path id="Trazado_113856" data-name="Trazado 113856" d="M24.266,12.158a2.058,2.058,0,1,0-2.058,2.083,2.07,2.07,0,0,0,2.058-2.083" transform="translate(17.923 9.196)" fill="#1448d3"/>
          <path id="Trazado_113857" data-name="Trazado 113857" d="M34.342,12.158a2.059,2.059,0,1,0-2.058,2.083,2.07,2.07,0,0,0,2.058-2.083" transform="translate(26.883 9.196)" fill="#1448d3"/>
          <path id="Trazado_113858" data-name="Trazado 113858" d="M44.416,12.158a2.058,2.058,0,1,0-2.058,2.083,2.07,2.07,0,0,0,2.058-2.083" transform="translate(35.845 9.196)" fill="#1448d3"/>
          <path id="Trazado_113859" data-name="Trazado 113859" d="M54.491,12.158a2.058,2.058,0,1,0-2.058,2.083,2.07,2.07,0,0,0,2.058-2.083" transform="translate(44.806 9.196)" fill="#1448d3"/>
          <path id="Trazado_113860" data-name="Trazado 113860" d="M64.567,12.158a2.059,2.059,0,1,0-2.058,2.083,2.07,2.07,0,0,0,2.058-2.083" transform="translate(53.767 9.196)" fill="#1448d3"/>
          <path id="Trazado_113861" data-name="Trazado 113861" d="M74.641,12.158a2.058,2.058,0,1,0-2.058,2.083,2.07,2.07,0,0,0,2.058-2.083" transform="translate(62.729 9.196)" fill="#1448d3"/>
          <path id="Trazado_113862" data-name="Trazado 113862" d="M84.717,12.158a2.059,2.059,0,1,0-2.058,2.083,2.07,2.07,0,0,0,2.058-2.083" transform="translate(71.689 9.196)" fill="#1448d3"/>
          <path id="Trazado_113863" data-name="Trazado 113863" d="M4.117,22.233A2.07,2.07,0,0,0,2.059,20.15a2.083,2.083,0,0,0,0,4.166,2.07,2.07,0,0,0,2.058-2.083" transform="translate(0 18.394)" fill="#1448d3"/>
          <path id="Trazado_113864" data-name="Trazado 113864" d="M14.191,22.233a2.058,2.058,0,1,0-2.058,2.083,2.07,2.07,0,0,0,2.058-2.083" transform="translate(8.962 18.394)" fill="#1448d3"/>
          <path id="Trazado_113865" data-name="Trazado 113865" d="M24.266,22.233a2.058,2.058,0,1,0-2.058,2.083,2.07,2.07,0,0,0,2.058-2.083" transform="translate(17.923 18.394)" fill="#1448d3"/>
          <path id="Trazado_113866" data-name="Trazado 113866" d="M34.342,22.233a2.059,2.059,0,1,0-2.058,2.083,2.07,2.07,0,0,0,2.058-2.083" transform="translate(26.883 18.394)" fill="#1448d3"/>
          <path id="Trazado_113867" data-name="Trazado 113867" d="M44.416,22.233a2.058,2.058,0,1,0-2.058,2.083,2.07,2.07,0,0,0,2.058-2.083" transform="translate(35.845 18.394)" fill="#1448d3"/>
          <path id="Trazado_113868" data-name="Trazado 113868" d="M54.491,22.233a2.058,2.058,0,1,0-2.058,2.083,2.07,2.07,0,0,0,2.058-2.083" transform="translate(44.806 18.394)" fill="#1448d3"/>
          <path id="Trazado_113869" data-name="Trazado 113869" d="M64.567,22.233a2.059,2.059,0,1,0-2.058,2.083,2.07,2.07,0,0,0,2.058-2.083" transform="translate(53.767 18.394)" fill="#1448d3"/>
          <path id="Trazado_113870" data-name="Trazado 113870" d="M74.641,22.233a2.058,2.058,0,1,0-2.058,2.083,2.07,2.07,0,0,0,2.058-2.083" transform="translate(62.729 18.394)" fill="#1448d3"/>
          <path id="Trazado_113871" data-name="Trazado 113871" d="M84.717,22.233a2.059,2.059,0,1,0-2.058,2.083,2.07,2.07,0,0,0,2.058-2.083" transform="translate(71.689 18.394)" fill="#1448d3"/>
          <path id="Trazado_113872" data-name="Trazado 113872" d="M4.117,32.308a2.07,2.07,0,0,0-2.058-2.083,2.083,2.083,0,0,0,0,4.166,2.07,2.07,0,0,0,2.058-2.083" transform="translate(0 27.592)" fill="#1448d3"/>
          <path id="Trazado_113873" data-name="Trazado 113873" d="M14.191,32.308a2.058,2.058,0,1,0-2.058,2.083,2.07,2.07,0,0,0,2.058-2.083" transform="translate(8.962 27.592)" fill="#1448d3"/>
          <path id="Trazado_113874" data-name="Trazado 113874" d="M24.266,32.308a2.058,2.058,0,1,0-2.058,2.083,2.07,2.07,0,0,0,2.058-2.083" transform="translate(17.923 27.592)" fill="#1448d3"/>
          <path id="Trazado_113875" data-name="Trazado 113875" d="M34.342,32.308a2.059,2.059,0,1,0-2.058,2.083,2.07,2.07,0,0,0,2.058-2.083" transform="translate(26.883 27.592)" fill="#1448d3"/>
          <path id="Trazado_113876" data-name="Trazado 113876" d="M44.416,32.308a2.058,2.058,0,1,0-2.058,2.083,2.07,2.07,0,0,0,2.058-2.083" transform="translate(35.845 27.592)" fill="#1448d3"/>
          <path id="Trazado_113877" data-name="Trazado 113877" d="M54.491,32.308a2.058,2.058,0,1,0-2.058,2.083,2.07,2.07,0,0,0,2.058-2.083" transform="translate(44.806 27.592)" fill="#1448d3"/>
          <path id="Trazado_113878" data-name="Trazado 113878" d="M64.567,32.308a2.059,2.059,0,1,0-2.058,2.083,2.07,2.07,0,0,0,2.058-2.083" transform="translate(53.767 27.592)" fill="#1448d3"/>
          <path id="Trazado_113879" data-name="Trazado 113879" d="M74.641,32.308a2.058,2.058,0,1,0-2.058,2.083,2.07,2.07,0,0,0,2.058-2.083" transform="translate(62.729 27.592)" fill="#1448d3"/>
          <path id="Trazado_113880" data-name="Trazado 113880" d="M84.717,32.308a2.059,2.059,0,1,0-2.058,2.083,2.07,2.07,0,0,0,2.058-2.083" transform="translate(71.689 27.592)" fill="#1448d3"/>
          <path id="Trazado_113881" data-name="Trazado 113881" d="M4.117,42.383A2.07,2.07,0,0,0,2.059,40.3a2.083,2.083,0,0,0,0,4.166,2.07,2.07,0,0,0,2.058-2.083" transform="translate(0 36.79)" fill="#1448d3"/>
          <path id="Trazado_113882" data-name="Trazado 113882" d="M14.191,42.383a2.058,2.058,0,1,0-2.058,2.083,2.07,2.07,0,0,0,2.058-2.083" transform="translate(8.962 36.79)" fill="#1448d3"/>
          <path id="Trazado_113883" data-name="Trazado 113883" d="M24.266,42.383a2.058,2.058,0,1,0-2.058,2.083,2.07,2.07,0,0,0,2.058-2.083" transform="translate(17.923 36.79)" fill="#1448d3"/>
          <path id="Trazado_113884" data-name="Trazado 113884" d="M34.342,42.383a2.059,2.059,0,1,0-2.058,2.083,2.07,2.07,0,0,0,2.058-2.083" transform="translate(26.883 36.79)" fill="#1448d3"/>
          <path id="Trazado_113885" data-name="Trazado 113885" d="M44.416,42.383a2.058,2.058,0,1,0-2.058,2.083,2.07,2.07,0,0,0,2.058-2.083" transform="translate(35.845 36.79)" fill="#1448d3"/>
          <path id="Trazado_113886" data-name="Trazado 113886" d="M54.491,42.383a2.058,2.058,0,1,0-2.058,2.083,2.07,2.07,0,0,0,2.058-2.083" transform="translate(44.806 36.79)" fill="#1448d3"/>
          <path id="Trazado_113887" data-name="Trazado 113887" d="M64.567,42.383a2.059,2.059,0,1,0-2.058,2.083,2.07,2.07,0,0,0,2.058-2.083" transform="translate(53.767 36.79)" fill="#1448d3"/>
          <path id="Trazado_113888" data-name="Trazado 113888" d="M74.641,42.383a2.058,2.058,0,1,0-2.058,2.083,2.07,2.07,0,0,0,2.058-2.083" transform="translate(62.729 36.79)" fill="#1448d3"/>
          <path id="Trazado_113889" data-name="Trazado 113889" d="M84.717,42.383a2.059,2.059,0,1,0-2.058,2.083,2.07,2.07,0,0,0,2.058-2.083" transform="translate(71.689 36.79)" fill="#1448d3"/>
          <path id="Trazado_113890" data-name="Trazado 113890" d="M4.117,52.458a2.07,2.07,0,0,0-2.058-2.083,2.083,2.083,0,0,0,0,4.166,2.07,2.07,0,0,0,2.058-2.083" transform="translate(0 45.988)" fill="#1448d3"/>
          <path id="Trazado_113891" data-name="Trazado 113891" d="M14.191,52.458a2.058,2.058,0,1,0-2.058,2.083,2.07,2.07,0,0,0,2.058-2.083" transform="translate(8.962 45.988)" fill="#1448d3"/>
          <path id="Trazado_113892" data-name="Trazado 113892" d="M24.266,52.458a2.058,2.058,0,1,0-2.058,2.083,2.07,2.07,0,0,0,2.058-2.083" transform="translate(17.923 45.988)" fill="#1448d3"/>
          <path id="Trazado_113893" data-name="Trazado 113893" d="M34.342,52.458a2.059,2.059,0,1,0-2.058,2.083,2.07,2.07,0,0,0,2.058-2.083" transform="translate(26.883 45.988)" fill="#1448d3"/>
          <path id="Trazado_113894" data-name="Trazado 113894" d="M44.416,52.458a2.058,2.058,0,1,0-2.058,2.083,2.07,2.07,0,0,0,2.058-2.083" transform="translate(35.845 45.988)" fill="#1448d3"/>
          <path id="Trazado_113895" data-name="Trazado 113895" d="M54.491,52.458a2.058,2.058,0,1,0-2.058,2.083,2.07,2.07,0,0,0,2.058-2.083" transform="translate(44.806 45.988)" fill="#1448d3"/>
          <path id="Trazado_113896" data-name="Trazado 113896" d="M64.567,52.458a2.059,2.059,0,1,0-2.058,2.083,2.07,2.07,0,0,0,2.058-2.083" transform="translate(53.767 45.988)" fill="#1448d3"/>
          <path id="Trazado_113897" data-name="Trazado 113897" d="M74.641,52.458a2.058,2.058,0,1,0-2.058,2.083,2.07,2.07,0,0,0,2.058-2.083" transform="translate(62.729 45.988)" fill="#1448d3"/>
          <path id="Trazado_113898" data-name="Trazado 113898" d="M84.717,52.458a2.059,2.059,0,1,0-2.058,2.083,2.07,2.07,0,0,0,2.058-2.083" transform="translate(71.689 45.988)" fill="#1448d3"/>
          <path id="Trazado_113899" data-name="Trazado 113899" d="M4.117,62.533A2.07,2.07,0,0,0,2.059,60.45a2.083,2.083,0,0,0,0,4.166,2.07,2.07,0,0,0,2.058-2.083" transform="translate(0 55.186)" fill="#1448d3"/>
          <path id="Trazado_113900" data-name="Trazado 113900" d="M14.191,62.533a2.058,2.058,0,1,0-2.058,2.083,2.07,2.07,0,0,0,2.058-2.083" transform="translate(8.962 55.186)" fill="#1448d3"/>
          <path id="Trazado_113901" data-name="Trazado 113901" d="M24.266,62.533a2.058,2.058,0,1,0-2.058,2.083,2.07,2.07,0,0,0,2.058-2.083" transform="translate(17.923 55.186)" fill="#1448d3"/>
          <path id="Trazado_113902" data-name="Trazado 113902" d="M34.342,62.533a2.059,2.059,0,1,0-2.058,2.083,2.07,2.07,0,0,0,2.058-2.083" transform="translate(26.883 55.186)" fill="#1448d3"/>
          <path id="Trazado_113903" data-name="Trazado 113903" d="M44.416,62.533a2.058,2.058,0,1,0-2.058,2.083,2.07,2.07,0,0,0,2.058-2.083" transform="translate(35.845 55.186)" fill="#1448d3"/>
          <path id="Trazado_113904" data-name="Trazado 113904" d="M54.491,62.533a2.058,2.058,0,1,0-2.058,2.083,2.07,2.07,0,0,0,2.058-2.083" transform="translate(44.806 55.186)" fill="#1448d3"/>
          <path id="Trazado_113905" data-name="Trazado 113905" d="M64.567,62.533a2.059,2.059,0,1,0-2.058,2.083,2.07,2.07,0,0,0,2.058-2.083" transform="translate(53.767 55.186)" fill="#1448d3"/>
          <path id="Trazado_113906" data-name="Trazado 113906" d="M74.641,62.533a2.058,2.058,0,1,0-2.058,2.083,2.07,2.07,0,0,0,2.058-2.083" transform="translate(62.729 55.186)" fill="#1448d3"/>
          <path id="Trazado_113907" data-name="Trazado 113907" d="M84.717,62.533a2.059,2.059,0,1,0-2.058,2.083,2.07,2.07,0,0,0,2.058-2.083" transform="translate(71.689 55.186)" fill="#1448d3"/>
          <path id="Trazado_113908" data-name="Trazado 113908" d="M4.117,72.609a2.07,2.07,0,0,0-2.058-2.083,2.083,2.083,0,0,0,0,4.166,2.07,2.07,0,0,0,2.058-2.083" transform="translate(0 64.385)" fill="#1448d3"/>
          <path id="Trazado_113909" data-name="Trazado 113909" d="M14.191,72.609a2.058,2.058,0,1,0-2.058,2.083,2.07,2.07,0,0,0,2.058-2.083" transform="translate(8.962 64.385)" fill="#1448d3"/>
          <path id="Trazado_113910" data-name="Trazado 113910" d="M24.266,72.609a2.058,2.058,0,1,0-2.058,2.083,2.07,2.07,0,0,0,2.058-2.083" transform="translate(17.923 64.385)" fill="#1448d3"/>
          <path id="Trazado_113911" data-name="Trazado 113911" d="M34.342,72.609a2.059,2.059,0,1,0-2.058,2.083,2.07,2.07,0,0,0,2.058-2.083" transform="translate(26.883 64.385)" fill="#1448d3"/>
          <path id="Trazado_113912" data-name="Trazado 113912" d="M44.416,72.609a2.058,2.058,0,1,0-2.058,2.083,2.07,2.07,0,0,0,2.058-2.083" transform="translate(35.845 64.385)" fill="#1448d3"/>
          <path id="Trazado_113913" data-name="Trazado 113913" d="M54.491,72.609a2.058,2.058,0,1,0-2.058,2.083,2.07,2.07,0,0,0,2.058-2.083" transform="translate(44.806 64.385)" fill="#1448d3"/>
          <path id="Trazado_113914" data-name="Trazado 113914" d="M64.567,72.609a2.059,2.059,0,1,0-2.058,2.083,2.07,2.07,0,0,0,2.058-2.083" transform="translate(53.767 64.385)" fill="#1448d3"/>
          <path id="Trazado_113915" data-name="Trazado 113915" d="M74.641,72.609a2.058,2.058,0,1,0-2.058,2.083,2.07,2.07,0,0,0,2.058-2.083" transform="translate(62.729 64.385)" fill="#1448d3"/>
          <path id="Trazado_113916" data-name="Trazado 113916" d="M84.717,72.609a2.059,2.059,0,1,0-2.058,2.083,2.07,2.07,0,0,0,2.058-2.083" transform="translate(71.689 64.385)" fill="#1448d3"/>
          <path id="Trazado_113917" data-name="Trazado 113917" d="M4.117,82.684A2.07,2.07,0,0,0,2.059,80.6a2.083,2.083,0,0,0,0,4.166,2.07,2.07,0,0,0,2.058-2.083" transform="translate(0 73.582)" fill="#1448d3"/>
          <path id="Trazado_113918" data-name="Trazado 113918" d="M14.191,82.684a2.058,2.058,0,1,0-2.058,2.083,2.07,2.07,0,0,0,2.058-2.083" transform="translate(8.962 73.582)" fill="#1448d3"/>
          <path id="Trazado_113919" data-name="Trazado 113919" d="M24.266,82.684a2.058,2.058,0,1,0-2.058,2.083,2.07,2.07,0,0,0,2.058-2.083" transform="translate(17.923 73.582)" fill="#1448d3"/>
          <path id="Trazado_113920" data-name="Trazado 113920" d="M34.342,82.684a2.059,2.059,0,1,0-2.058,2.083,2.07,2.07,0,0,0,2.058-2.083" transform="translate(26.883 73.582)" fill="#1448d3"/>
          <path id="Trazado_113921" data-name="Trazado 113921" d="M44.416,82.684a2.058,2.058,0,1,0-2.058,2.083,2.07,2.07,0,0,0,2.058-2.083" transform="translate(35.845 73.582)" fill="#1448d3"/>
          <path id="Trazado_113922" data-name="Trazado 113922" d="M54.491,82.684a2.058,2.058,0,1,0-2.058,2.083,2.07,2.07,0,0,0,2.058-2.083" transform="translate(44.806 73.582)" fill="#1448d3"/>
          <path id="Trazado_113923" data-name="Trazado 113923" d="M64.567,82.684a2.059,2.059,0,1,0-2.058,2.083,2.07,2.07,0,0,0,2.058-2.083" transform="translate(53.767 73.582)" fill="#1448d3"/>
          <path id="Trazado_113924" data-name="Trazado 113924" d="M74.641,82.684a2.058,2.058,0,1,0-2.058,2.083,2.07,2.07,0,0,0,2.058-2.083" transform="translate(62.729 73.582)" fill="#1448d3"/>
          <path id="Trazado_113925" data-name="Trazado 113925" d="M84.717,82.684a2.059,2.059,0,1,0-2.058,2.083,2.07,2.07,0,0,0,2.058-2.083" transform="translate(71.689 73.582)" fill="#1448d3"/>
        </g>
      </g>
      <g id="Grupo_80253" data-name="Grupo 80253" transform="translate(1312 897.121)">
        <ellipse id="Elipse_4722" data-name="Elipse 4722" cx="113" cy="114.5" rx="113" ry="114.5" transform="translate(-0.001 0.02)" fill="#0ce6ea"/>
        <g id="Grupo_80253-2" data-name="Grupo 80253" transform="translate(45.566 36.891)">
          <g id="Grupo_80251" data-name="Grupo 80251" transform="translate(0 0)" clip-path="url(#clip-path-3)">
            <path id="Trazado_212241" data-name="Trazado 212241" d="M.064,3.346,168.517,2.3l-.006.93L.058,4.276Z" transform="translate(47.283 167.843) rotate(-45)" fill="#1448d3"/>
            <path id="Trazado_212242" data-name="Trazado 212242" d="M.064,3.346,168.517,2.3l-.006.93L.058,4.276Z" transform="translate(40.522 160.998) rotate(-45)" fill="#1448d3"/>
            <path id="Trazado_212243" data-name="Trazado 212243" d="M.064,3.346,168.517,2.3l-.006.93L.058,4.276Z" transform="translate(33.763 154.155) rotate(-45)" fill="#1448d3"/>
            <path id="Trazado_212244" data-name="Trazado 212244" d="M.064,3.346,168.517,2.3l-.006.93L.058,4.276Z" transform="translate(27.002 147.31) rotate(-45)" fill="#1448d3"/>
            <path id="Trazado_212245" data-name="Trazado 212245" d="M.064,3.346,168.517,2.3l-.006.93L.058,4.276Z" transform="translate(20.242 140.466) rotate(-45)" fill="#1448d3"/>
            <path id="Trazado_113843" data-name="Trazado 113843" d="M158.949,40.58,40.571,160.431l-.653-.663L158.3,39.918Z" transform="translate(-24.025 -23.827)" fill="#1448d3"/>
            <path id="Trazado_212246" data-name="Trazado 212246" d="M.064,3.346,168.517,2.3l-.006.93L.058,4.276Z" transform="translate(6.721 126.777) rotate(-45)" fill="#1448d3"/>
            <path id="Trazado_212247" data-name="Trazado 212247" d="M.064,3.346,168.517,2.3l-.006.93L.058,4.276Z" transform="translate(-0.038 119.933) rotate(-45)" fill="#1448d3"/>
            <path id="Trazado_212248" data-name="Trazado 212248" d="M.064,3.346,168.517,2.3l-.006.93L.058,4.276Z" transform="translate(-6.799 113.088) rotate(-45)" fill="#1448d3"/>
            <path id="Trazado_212249" data-name="Trazado 212249" d="M.064,3.346,168.517,2.3l-.006.93L.058,4.276Z" transform="translate(-13.56 106.244) rotate(-45)" fill="#1448d3"/>
            <path id="Trazado_212250" data-name="Trazado 212250" d="M.064,3.346,168.517,2.3l-.006.93L.058,4.276Z" transform="translate(-20.319 99.4) rotate(-45)" fill="#1448d3"/>
            <path id="Trazado_212251" data-name="Trazado 212251" d="M.064,3.346,168.517,2.3l-.006.93L.058,4.276Z" transform="translate(-27.08 92.555) rotate(-45)" fill="#1448d3"/>
            <path id="Trazado_212252" data-name="Trazado 212252" d="M.064,3.346,168.517,2.3l-.006.93L.058,4.276Z" transform="translate(-33.839 85.712) rotate(-45)" fill="#1448d3"/>
            <path id="Trazado_212253" data-name="Trazado 212253" d="M.064,3.346,168.517,2.3l-.006.93L.058,4.276Z" transform="translate(-40.6 78.867) rotate(-45)" fill="#1448d3"/>
          </g>
        </g>
      </g>
      <path id="Trazado_113927" data-name="Trazado 113927" d="M332.929,70.547a36.149,36.149,0,0,0,3.807-34.674A37.211,37.211,0,0,0,308.93,14.207c-14.921-2.393-29.629,4.57-42.26,12.657s-24.751,17.675-39.3,21.547c-13.862,3.689-28.733,1.793-42.557-2.254s-26.938-10.174-40.461-15.139c-22.168-8.139-46.669-13.126-69.241-6.56S33.095,51.964,34.91,75.271c.758,9.731,4.962,18.842,8.69,27.9s7.091,18.684,6.042,28.373S41.9,150.929,32.182,152.424c-7.792,1.2-15.707-3.142-20.606-9.317s-7.266-13.922-8.94-21.58A154.8,154.8,0,0,1,27.681-.256" transform="translate(1427.762 612.344) rotate(69)" fill="none" stroke="#1448d3" stroke-miterlimit="10" stroke-width="1.701"/>
      <path id="Trazado_113928" data-name="Trazado 113928" d="M228.129,194.041c-34.692,12.974-73.033,20.93-108.345,10.491s-65.72-43.769-62.863-80.88c1.193-15.494,7.778-30,13.618-44.428S81.65,49.47,80.015,34.043,67.912,3.182,52.713.807C40.522-1.1,28.135,5.82,20.465,15.656s-11.38,22.172-14,34.367C-7.873,116.6,6.666,188.715,45.551,243.914" transform="matrix(0.914, -0.407, 0.407, 0.914, 178.825, 925.954)" fill="none" stroke="#4d342c" stroke-miterlimit="10" stroke-width="1.701" stroke-dasharray="3"/>
    </g>
  </g>
</svg>
