<svg xmlns="http://www.w3.org/2000/svg" xmlns:xlink="http://www.w3.org/1999/xlink" width="610" height="296" viewBox="0 0 610 296">
  <defs>
    <filter id="Rectángulo_344756" x="-15" y="-12" width="640" height="326" filterUnits="userSpaceOnUse">
      <feOffset dy="3" input="SourceAlpha"/>
      <feGaussianBlur stdDeviation="5" result="blur"/>
      <feFlood flood-opacity="0.161"/>
      <feComposite operator="in" in2="blur"/>
      <feComposite in="SourceGraphic"/>
    </filter>
    <clipPath id="clip-path">
      <g transform="matrix(1, 0, 0, 1, 0, 0)" filter="url(#Rectángulo_344756)">
        <rect id="Rectángulo_344756-2" data-name="Rectángulo 344756" width="610" height="296" rx="23" transform="translate(810 11485)" fill="#fff"/>
      </g>
    </clipPath>
    <clipPath id="clip-path-2">
      <path id="Trazado_113926" data-name="Trazado 113926" d="M112,0A112,112,0,1,0,224,112,112,112,0,0,0,112,0Z" transform="translate(0 -0.001)" fill="#1448d3"/>
    </clipPath>
  </defs>
  <g id="fondo-card" transform="translate(-810 -12049)">
    <rect id="Rectángulo_344755" data-name="Rectángulo 344755" width="610" height="296" transform="translate(810 12049)" fill="#effefe"/>
    <g id="Grupo_528" data-name="Grupo 528" transform="translate(0 564)" clip-path="url(#clip-path)">
      <g id="Grupo_986827" data-name="Grupo 986827">
        <g id="Grupo_80255" data-name="Grupo 80255" transform="translate(1304.208 11353.998)">
          <g id="Grupo_80252" data-name="Grupo 80252" transform="translate(0 0.001)" clip-path="url(#clip-path-2)">
            <path id="Trazado_113845" data-name="Trazado 113845" d="M5.9,2.947A2.948,2.948,0,1,0,2.95,5.894,2.947,2.947,0,0,0,5.9,2.947" transform="translate(0 -0.003)" fill="#1448d3"/>
            <path id="Trazado_113846" data-name="Trazado 113846" d="M15.97,2.947a2.947,2.947,0,1,0-2.947,2.947A2.947,2.947,0,0,0,15.97,2.947" transform="translate(17.19 -0.003)" fill="#1448d3"/>
            <path id="Trazado_113847" data-name="Trazado 113847" d="M26.045,2.947A2.947,2.947,0,1,0,23.1,5.894a2.947,2.947,0,0,0,2.947-2.947" transform="translate(34.379 -0.003)" fill="#1448d3"/>
            <path id="Trazado_113848" data-name="Trazado 113848" d="M36.121,2.947a2.948,2.948,0,1,0-2.947,2.947,2.947,2.947,0,0,0,2.947-2.947" transform="translate(51.565 -0.003)" fill="#1448d3"/>
            <path id="Trazado_113849" data-name="Trazado 113849" d="M46.195,2.947a2.947,2.947,0,1,0-2.947,2.947,2.947,2.947,0,0,0,2.947-2.947" transform="translate(68.755 -0.003)" fill="#1448d3"/>
            <path id="Trazado_113850" data-name="Trazado 113850" d="M56.27,2.947a2.947,2.947,0,1,0-2.947,2.947A2.947,2.947,0,0,0,56.27,2.947" transform="translate(85.944 -0.003)" fill="#1448d3"/>
            <path id="Trazado_113851" data-name="Trazado 113851" d="M66.346,2.947A2.948,2.948,0,1,0,63.4,5.894a2.947,2.947,0,0,0,2.947-2.947" transform="translate(103.13 -0.003)" fill="#1448d3"/>
            <path id="Trazado_113852" data-name="Trazado 113852" d="M76.42,2.947a2.947,2.947,0,1,0-2.947,2.947A2.947,2.947,0,0,0,76.42,2.947" transform="translate(120.321 -0.003)" fill="#1448d3"/>
            <path id="Trazado_113853" data-name="Trazado 113853" d="M86.5,2.947A2.948,2.948,0,1,0,83.55,5.894,2.947,2.947,0,0,0,86.5,2.947" transform="translate(137.507 -0.003)" fill="#1448d3"/>
            <path id="Trazado_113854" data-name="Trazado 113854" d="M5.9,13.022A2.948,2.948,0,1,0,2.95,15.969,2.947,2.947,0,0,0,5.9,13.022" transform="translate(0 17.186)" fill="#1448d3"/>
            <path id="Trazado_113855" data-name="Trazado 113855" d="M15.97,13.022a2.947,2.947,0,1,0-2.947,2.947,2.947,2.947,0,0,0,2.947-2.947" transform="translate(17.19 17.186)" fill="#1448d3"/>
            <path id="Trazado_113856" data-name="Trazado 113856" d="M26.045,13.022A2.947,2.947,0,1,0,23.1,15.969a2.947,2.947,0,0,0,2.947-2.947" transform="translate(34.379 17.186)" fill="#1448d3"/>
            <path id="Trazado_113857" data-name="Trazado 113857" d="M36.121,13.022a2.948,2.948,0,1,0-2.947,2.947,2.947,2.947,0,0,0,2.947-2.947" transform="translate(51.565 17.186)" fill="#1448d3"/>
            <path id="Trazado_113858" data-name="Trazado 113858" d="M46.195,13.022a2.947,2.947,0,1,0-2.947,2.947,2.947,2.947,0,0,0,2.947-2.947" transform="translate(68.755 17.186)" fill="#1448d3"/>
            <path id="Trazado_113859" data-name="Trazado 113859" d="M56.27,13.022a2.947,2.947,0,1,0-2.947,2.947,2.947,2.947,0,0,0,2.947-2.947" transform="translate(85.944 17.186)" fill="#1448d3"/>
            <path id="Trazado_113860" data-name="Trazado 113860" d="M66.346,13.022A2.948,2.948,0,1,0,63.4,15.969a2.947,2.947,0,0,0,2.947-2.947" transform="translate(103.13 17.186)" fill="#1448d3"/>
            <path id="Trazado_113861" data-name="Trazado 113861" d="M76.42,13.022a2.947,2.947,0,1,0-2.947,2.947,2.947,2.947,0,0,0,2.947-2.947" transform="translate(120.321 17.186)" fill="#1448d3"/>
            <path id="Trazado_113862" data-name="Trazado 113862" d="M86.5,13.022a2.948,2.948,0,1,0-2.947,2.947A2.947,2.947,0,0,0,86.5,13.022" transform="translate(137.507 17.186)" fill="#1448d3"/>
            <path id="Trazado_113863" data-name="Trazado 113863" d="M5.9,23.1A2.948,2.948,0,1,0,2.95,26.044,2.947,2.947,0,0,0,5.9,23.1" transform="translate(0 34.374)" fill="#1448d3"/>
            <path id="Trazado_113864" data-name="Trazado 113864" d="M15.97,23.1a2.947,2.947,0,1,0-2.947,2.947A2.947,2.947,0,0,0,15.97,23.1" transform="translate(17.19 34.374)" fill="#1448d3"/>
            <path id="Trazado_113865" data-name="Trazado 113865" d="M26.045,23.1A2.947,2.947,0,1,0,23.1,26.044,2.947,2.947,0,0,0,26.045,23.1" transform="translate(34.379 34.374)" fill="#1448d3"/>
            <path id="Trazado_113866" data-name="Trazado 113866" d="M36.121,23.1a2.948,2.948,0,1,0-2.947,2.947A2.947,2.947,0,0,0,36.121,23.1" transform="translate(51.565 34.374)" fill="#1448d3"/>
            <path id="Trazado_113867" data-name="Trazado 113867" d="M46.195,23.1a2.947,2.947,0,1,0-2.947,2.947A2.947,2.947,0,0,0,46.195,23.1" transform="translate(68.755 34.374)" fill="#1448d3"/>
            <path id="Trazado_113868" data-name="Trazado 113868" d="M56.27,23.1a2.947,2.947,0,1,0-2.947,2.947A2.947,2.947,0,0,0,56.27,23.1" transform="translate(85.944 34.374)" fill="#1448d3"/>
            <path id="Trazado_113869" data-name="Trazado 113869" d="M66.346,23.1A2.948,2.948,0,1,0,63.4,26.044,2.947,2.947,0,0,0,66.346,23.1" transform="translate(103.13 34.374)" fill="#1448d3"/>
            <path id="Trazado_113870" data-name="Trazado 113870" d="M76.42,23.1a2.947,2.947,0,1,0-2.947,2.947A2.947,2.947,0,0,0,76.42,23.1" transform="translate(120.321 34.374)" fill="#1448d3"/>
            <path id="Trazado_113871" data-name="Trazado 113871" d="M86.5,23.1a2.948,2.948,0,1,0-2.947,2.947A2.947,2.947,0,0,0,86.5,23.1" transform="translate(137.507 34.374)" fill="#1448d3"/>
            <path id="Trazado_113872" data-name="Trazado 113872" d="M5.9,33.172A2.948,2.948,0,1,0,2.95,36.119,2.947,2.947,0,0,0,5.9,33.172" transform="translate(0 51.562)" fill="#1448d3"/>
            <path id="Trazado_113873" data-name="Trazado 113873" d="M15.97,33.172a2.947,2.947,0,1,0-2.947,2.947,2.947,2.947,0,0,0,2.947-2.947" transform="translate(17.19 51.562)" fill="#1448d3"/>
            <path id="Trazado_113874" data-name="Trazado 113874" d="M26.045,33.172A2.947,2.947,0,1,0,23.1,36.119a2.947,2.947,0,0,0,2.947-2.947" transform="translate(34.379 51.562)" fill="#1448d3"/>
            <path id="Trazado_113875" data-name="Trazado 113875" d="M36.121,33.172a2.948,2.948,0,1,0-2.947,2.947,2.947,2.947,0,0,0,2.947-2.947" transform="translate(51.565 51.562)" fill="#1448d3"/>
            <path id="Trazado_113876" data-name="Trazado 113876" d="M46.195,33.172a2.947,2.947,0,1,0-2.947,2.947,2.947,2.947,0,0,0,2.947-2.947" transform="translate(68.755 51.562)" fill="#1448d3"/>
            <path id="Trazado_113877" data-name="Trazado 113877" d="M56.27,33.172a2.947,2.947,0,1,0-2.947,2.947,2.947,2.947,0,0,0,2.947-2.947" transform="translate(85.944 51.562)" fill="#1448d3"/>
            <path id="Trazado_113878" data-name="Trazado 113878" d="M66.346,33.172A2.948,2.948,0,1,0,63.4,36.119a2.947,2.947,0,0,0,2.947-2.947" transform="translate(103.13 51.562)" fill="#1448d3"/>
            <path id="Trazado_113879" data-name="Trazado 113879" d="M76.42,33.172a2.947,2.947,0,1,0-2.947,2.947,2.947,2.947,0,0,0,2.947-2.947" transform="translate(120.321 51.562)" fill="#1448d3"/>
            <path id="Trazado_113880" data-name="Trazado 113880" d="M86.5,33.172a2.948,2.948,0,1,0-2.947,2.947A2.947,2.947,0,0,0,86.5,33.172" transform="translate(137.507 51.562)" fill="#1448d3"/>
            <path id="Trazado_113881" data-name="Trazado 113881" d="M5.9,43.247A2.948,2.948,0,1,0,2.95,46.194,2.947,2.947,0,0,0,5.9,43.247" transform="translate(0 68.751)" fill="#1448d3"/>
            <path id="Trazado_113882" data-name="Trazado 113882" d="M15.97,43.247a2.947,2.947,0,1,0-2.947,2.947,2.947,2.947,0,0,0,2.947-2.947" transform="translate(17.19 68.751)" fill="#1448d3"/>
            <path id="Trazado_113883" data-name="Trazado 113883" d="M26.045,43.247A2.947,2.947,0,1,0,23.1,46.194a2.947,2.947,0,0,0,2.947-2.947" transform="translate(34.379 68.751)" fill="#1448d3"/>
            <path id="Trazado_113884" data-name="Trazado 113884" d="M36.121,43.247a2.948,2.948,0,1,0-2.947,2.947,2.947,2.947,0,0,0,2.947-2.947" transform="translate(51.565 68.751)" fill="#1448d3"/>
            <path id="Trazado_113885" data-name="Trazado 113885" d="M46.195,43.247a2.947,2.947,0,1,0-2.947,2.947,2.947,2.947,0,0,0,2.947-2.947" transform="translate(68.755 68.751)" fill="#1448d3"/>
            <path id="Trazado_113886" data-name="Trazado 113886" d="M56.27,43.247a2.947,2.947,0,1,0-2.947,2.947,2.947,2.947,0,0,0,2.947-2.947" transform="translate(85.944 68.751)" fill="#1448d3"/>
            <path id="Trazado_113887" data-name="Trazado 113887" d="M66.346,43.247A2.948,2.948,0,1,0,63.4,46.194a2.947,2.947,0,0,0,2.947-2.947" transform="translate(103.13 68.751)" fill="#1448d3"/>
            <path id="Trazado_113888" data-name="Trazado 113888" d="M76.42,43.247a2.947,2.947,0,1,0-2.947,2.947,2.947,2.947,0,0,0,2.947-2.947" transform="translate(120.321 68.751)" fill="#1448d3"/>
            <path id="Trazado_113889" data-name="Trazado 113889" d="M86.5,43.247a2.948,2.948,0,1,0-2.947,2.947A2.947,2.947,0,0,0,86.5,43.247" transform="translate(137.507 68.751)" fill="#1448d3"/>
            <path id="Trazado_113890" data-name="Trazado 113890" d="M5.9,53.322A2.948,2.948,0,1,0,2.95,56.269,2.947,2.947,0,0,0,5.9,53.322" transform="translate(0 85.939)" fill="#1448d3"/>
            <path id="Trazado_113891" data-name="Trazado 113891" d="M15.97,53.322a2.947,2.947,0,1,0-2.947,2.947,2.947,2.947,0,0,0,2.947-2.947" transform="translate(17.19 85.939)" fill="#1448d3"/>
            <path id="Trazado_113892" data-name="Trazado 113892" d="M26.045,53.322A2.947,2.947,0,1,0,23.1,56.269a2.947,2.947,0,0,0,2.947-2.947" transform="translate(34.379 85.939)" fill="#1448d3"/>
            <path id="Trazado_113893" data-name="Trazado 113893" d="M36.121,53.322a2.948,2.948,0,1,0-2.947,2.947,2.947,2.947,0,0,0,2.947-2.947" transform="translate(51.565 85.939)" fill="#1448d3"/>
            <path id="Trazado_113894" data-name="Trazado 113894" d="M46.195,53.322a2.947,2.947,0,1,0-2.947,2.947,2.947,2.947,0,0,0,2.947-2.947" transform="translate(68.755 85.939)" fill="#1448d3"/>
            <path id="Trazado_113895" data-name="Trazado 113895" d="M56.27,53.322a2.947,2.947,0,1,0-2.947,2.947,2.947,2.947,0,0,0,2.947-2.947" transform="translate(85.944 85.939)" fill="#1448d3"/>
            <path id="Trazado_113896" data-name="Trazado 113896" d="M66.346,53.322A2.948,2.948,0,1,0,63.4,56.269a2.947,2.947,0,0,0,2.947-2.947" transform="translate(103.13 85.939)" fill="#1448d3"/>
            <path id="Trazado_113897" data-name="Trazado 113897" d="M76.42,53.322a2.947,2.947,0,1,0-2.947,2.947,2.947,2.947,0,0,0,2.947-2.947" transform="translate(120.321 85.939)" fill="#1448d3"/>
            <path id="Trazado_113898" data-name="Trazado 113898" d="M86.5,53.322a2.948,2.948,0,1,0-2.947,2.947A2.947,2.947,0,0,0,86.5,53.322" transform="translate(137.507 85.939)" fill="#1448d3"/>
            <path id="Trazado_113899" data-name="Trazado 113899" d="M5.9,63.4A2.948,2.948,0,1,0,2.95,66.344,2.947,2.947,0,0,0,5.9,63.4" transform="translate(0 103.128)" fill="#1448d3"/>
            <path id="Trazado_113900" data-name="Trazado 113900" d="M15.97,63.4a2.947,2.947,0,1,0-2.947,2.947A2.947,2.947,0,0,0,15.97,63.4" transform="translate(17.19 103.128)" fill="#1448d3"/>
            <path id="Trazado_113901" data-name="Trazado 113901" d="M26.045,63.4A2.947,2.947,0,1,0,23.1,66.344,2.947,2.947,0,0,0,26.045,63.4" transform="translate(34.379 103.128)" fill="#1448d3"/>
            <path id="Trazado_113902" data-name="Trazado 113902" d="M36.121,63.4a2.948,2.948,0,1,0-2.947,2.947A2.947,2.947,0,0,0,36.121,63.4" transform="translate(51.565 103.128)" fill="#1448d3"/>
            <path id="Trazado_113903" data-name="Trazado 113903" d="M46.195,63.4a2.947,2.947,0,1,0-2.947,2.947A2.947,2.947,0,0,0,46.195,63.4" transform="translate(68.755 103.128)" fill="#1448d3"/>
            <path id="Trazado_113904" data-name="Trazado 113904" d="M56.27,63.4a2.947,2.947,0,1,0-2.947,2.947A2.947,2.947,0,0,0,56.27,63.4" transform="translate(85.944 103.128)" fill="#1448d3"/>
            <path id="Trazado_113905" data-name="Trazado 113905" d="M66.346,63.4A2.948,2.948,0,1,0,63.4,66.344,2.947,2.947,0,0,0,66.346,63.4" transform="translate(103.13 103.128)" fill="#1448d3"/>
            <path id="Trazado_113906" data-name="Trazado 113906" d="M76.42,63.4a2.947,2.947,0,1,0-2.947,2.947A2.947,2.947,0,0,0,76.42,63.4" transform="translate(120.321 103.128)" fill="#1448d3"/>
            <path id="Trazado_113907" data-name="Trazado 113907" d="M86.5,63.4a2.948,2.948,0,1,0-2.947,2.947A2.947,2.947,0,0,0,86.5,63.4" transform="translate(137.507 103.128)" fill="#1448d3"/>
            <path id="Trazado_113908" data-name="Trazado 113908" d="M5.9,73.473A2.948,2.948,0,1,0,2.95,76.42,2.947,2.947,0,0,0,5.9,73.473" transform="translate(0 120.318)" fill="#1448d3"/>
            <path id="Trazado_113909" data-name="Trazado 113909" d="M15.97,73.473a2.947,2.947,0,1,0-2.947,2.947,2.947,2.947,0,0,0,2.947-2.947" transform="translate(17.19 120.318)" fill="#1448d3"/>
            <path id="Trazado_113910" data-name="Trazado 113910" d="M26.045,73.473A2.947,2.947,0,1,0,23.1,76.42a2.947,2.947,0,0,0,2.947-2.947" transform="translate(34.379 120.318)" fill="#1448d3"/>
            <path id="Trazado_113911" data-name="Trazado 113911" d="M36.121,73.473a2.948,2.948,0,1,0-2.947,2.947,2.947,2.947,0,0,0,2.947-2.947" transform="translate(51.565 120.318)" fill="#1448d3"/>
            <path id="Trazado_113912" data-name="Trazado 113912" d="M46.195,73.473a2.947,2.947,0,1,0-2.947,2.947,2.947,2.947,0,0,0,2.947-2.947" transform="translate(68.755 120.318)" fill="#1448d3"/>
            <path id="Trazado_113913" data-name="Trazado 113913" d="M56.27,73.473a2.947,2.947,0,1,0-2.947,2.947,2.947,2.947,0,0,0,2.947-2.947" transform="translate(85.944 120.318)" fill="#1448d3"/>
            <path id="Trazado_113914" data-name="Trazado 113914" d="M66.346,73.473A2.948,2.948,0,1,0,63.4,76.42a2.947,2.947,0,0,0,2.947-2.947" transform="translate(103.13 120.318)" fill="#1448d3"/>
            <path id="Trazado_113915" data-name="Trazado 113915" d="M76.42,73.473a2.947,2.947,0,1,0-2.947,2.947,2.947,2.947,0,0,0,2.947-2.947" transform="translate(120.321 120.318)" fill="#1448d3"/>
            <path id="Trazado_113916" data-name="Trazado 113916" d="M86.5,73.473A2.948,2.948,0,1,0,83.55,76.42,2.947,2.947,0,0,0,86.5,73.473" transform="translate(137.507 120.318)" fill="#1448d3"/>
            <path id="Trazado_113917" data-name="Trazado 113917" d="M5.9,83.548A2.948,2.948,0,1,0,2.95,86.495,2.947,2.947,0,0,0,5.9,83.548" transform="translate(0 137.506)" fill="#1448d3"/>
            <path id="Trazado_113918" data-name="Trazado 113918" d="M15.97,83.548a2.947,2.947,0,1,0-2.947,2.947,2.947,2.947,0,0,0,2.947-2.947" transform="translate(17.19 137.506)" fill="#1448d3"/>
            <path id="Trazado_113919" data-name="Trazado 113919" d="M26.045,83.548A2.947,2.947,0,1,0,23.1,86.495a2.947,2.947,0,0,0,2.947-2.947" transform="translate(34.379 137.506)" fill="#1448d3"/>
            <path id="Trazado_113920" data-name="Trazado 113920" d="M36.121,83.548a2.948,2.948,0,1,0-2.947,2.947,2.947,2.947,0,0,0,2.947-2.947" transform="translate(51.565 137.506)" fill="#1448d3"/>
            <path id="Trazado_113921" data-name="Trazado 113921" d="M46.195,83.548a2.947,2.947,0,1,0-2.947,2.947,2.947,2.947,0,0,0,2.947-2.947" transform="translate(68.755 137.506)" fill="#1448d3"/>
            <path id="Trazado_113922" data-name="Trazado 113922" d="M56.27,83.548a2.947,2.947,0,1,0-2.947,2.947,2.947,2.947,0,0,0,2.947-2.947" transform="translate(85.944 137.506)" fill="#1448d3"/>
            <path id="Trazado_113923" data-name="Trazado 113923" d="M66.346,83.548A2.948,2.948,0,1,0,63.4,86.495a2.947,2.947,0,0,0,2.947-2.947" transform="translate(103.13 137.506)" fill="#1448d3"/>
            <path id="Trazado_113924" data-name="Trazado 113924" d="M76.42,83.548a2.947,2.947,0,1,0-2.947,2.947,2.947,2.947,0,0,0,2.947-2.947" transform="translate(120.321 137.506)" fill="#1448d3"/>
            <path id="Trazado_113925" data-name="Trazado 113925" d="M86.5,83.548a2.948,2.948,0,1,0-2.947,2.947A2.947,2.947,0,0,0,86.5,83.548" transform="translate(137.507 137.506)" fill="#1448d3"/>
          </g>
        </g>
      </g>
    </g>
  </g>
</svg>
